<svg xmlns="http://www.w3.org/2000/svg" width="18.686" height="32.068" viewBox="0 0 18.686 32.068">
  <g id="Group_14128" data-name="Group 14128" transform="translate(6143 3607.603)">
    <g id="Group_14127" data-name="Group 14127" transform="translate(-6143 -3583.002)">
      <g id="g20" transform="translate(0 4.006)">
        <path id="path22" d="M-16.626-46.657v.923h.84a.815.815,0,0,0,.351-.061.436.436,0,0,0,.227-.432.372.372,0,0,0-.221-.371.874.874,0,0,0-.346-.059Zm0-1.336v.763h.841a.694.694,0,0,0,.366-.086.327.327,0,0,0,.141-.3.31.31,0,0,0-.186-.319,1.3,1.3,0,0,0-.409-.054Zm1.88-.232a.881.881,0,0,1,.159.528.772.772,0,0,1-.16.51.827.827,0,0,1-.264.2.772.772,0,0,1,.4.306.915.915,0,0,1,.135.507,1.012,1.012,0,0,1-.154.552.955.955,0,0,1-.245.272.953.953,0,0,1-.391.174,2.389,2.389,0,0,1-.489.047h-1.56v-3.462h1.673a1.061,1.061,0,0,1,.9.369" transform="translate(17.316 48.595)" fill="#fff"/>
      </g>
      <path id="path24" d="M343.614-197.08H342.9v-3.462h.719Z" transform="translate(-339.636 204.548)" fill="#fff"/>
      <g id="g26" transform="translate(4.51 4.006)">
        <path id="path28" d="M0,0H.723V2.839H2.452v.622H0Z" fill="#fff"/>
      </g>
      <g id="g30" transform="translate(7.303 4.006)">
        <path id="path32" d="M0,0H.723V2.839H2.452v.622H0Z" fill="#fff"/>
      </g>
      <g id="g34" transform="translate(10.113 4.006)">
        <path id="path36" d="M-42.27-17.248a.583.583,0,0,0-.385-.115h-.652v1.019h.652a.553.553,0,0,0,.385-.125.508.508,0,0,0,.137-.395.477.477,0,0,0-.137-.385M-41.718-16a1.32,1.32,0,0,1-.868.254h-.721V-14.5h-.718v-3.462h1.486a1.2,1.2,0,0,1,.82.268,1.045,1.045,0,0,1,.306.829,1.074,1.074,0,0,1-.3.867" transform="translate(44.025 17.964)" fill="#fff"/>
      </g>
      <g id="g38" transform="translate(12.56 4.006)">
        <path id="path40" d="M-28.609-51.861h.887l-.437-1.362Zm.048-2.154h.819l1.225,3.462H-27.3l-.229-.712h-1.275l-.235.712H-29.8Z" transform="translate(29.797 54.015)" fill="#fff"/>
      </g>
      <g id="g42" transform="translate(15.41 4.006)">
        <path id="path44" d="M-54.406,0h.82l-1.158,2.164v1.3h-.723v-1.3L-56.665,0h.852l.719,1.508Z" transform="translate(56.665)" fill="#fff"/>
      </g>
      <g id="g46" transform="translate(0 0)">
        <path id="path48" d="M-37.944-69.116a1.015,1.015,0,0,0,.213-.022.523.523,0,0,0,.179-.073.365.365,0,0,0,.123-.138.475.475,0,0,0,.046-.223.448.448,0,0,0-.15-.381.642.642,0,0,0-.4-.114h-.829v.95Zm-.044-1.469a.547.547,0,0,0,.335-.1A.366.366,0,0,0-37.522-71a.4.4,0,0,0-.044-.2.323.323,0,0,0-.116-.121.494.494,0,0,0-.167-.061,1.116,1.116,0,0,0-.2-.017h-.713v.81Zm.1-1.4a2.159,2.159,0,0,1,.451.044.975.975,0,0,1,.349.143.665.665,0,0,1,.225.264.927.927,0,0,1,.08.407.758.758,0,0,1-.119.436.863.863,0,0,1-.351.286.832.832,0,0,1,.478.322.96.96,0,0,1,.158.555.953.953,0,0,1-.1.453.883.883,0,0,1-.274.313,1.213,1.213,0,0,1-.393.179,1.768,1.768,0,0,1-.453.058H-39.52v-3.462Z" transform="translate(39.52 71.986)" fill="#fff"/>
      </g>
      <g id="g50" transform="translate(3.219 0)">
        <path id="path52" d="M-18.333,0V1.328h1.4V0h.761V3.462h-.761V1.968h-1.4V3.462h-.761V0Z" transform="translate(19.095)" fill="#fff"/>
      </g>
      <g id="g54" transform="translate(6.351 0)">
        <path id="path56" d="M-51.369-51.136l-.436-1.27h-.01l-.451,1.27Zm-.044-2.124,1.294,3.462h-.79l-.262-.771h-1.295l-.271.771H-53.5l1.309-3.462Z" transform="translate(53.503 53.26)" fill="#fff"/>
      </g>
      <g id="g58" transform="translate(9.939)">
        <path id="path60" d="M-38.414-37.711a.576.576,0,0,0,.393-.116.483.483,0,0,0,.131-.378.461.461,0,0,0-.131-.366.584.584,0,0,0-.393-.114h-.834v.975Zm.271-1.566a1.114,1.114,0,0,1,.42.075A.965.965,0,0,1-37.4-39a.9.9,0,0,1,.2.3.973.973,0,0,1,.07.371,1.041,1.041,0,0,1-.129.528.807.807,0,0,1-.419.34v.01a.587.587,0,0,1,.233.119.659.659,0,0,1,.15.189.886.886,0,0,1,.085.24,2.132,2.132,0,0,1,.036.262q0,.083.01.194t.017.228a1.523,1.523,0,0,0,.039.221.512.512,0,0,0,.08.177h-.761a1.345,1.345,0,0,1-.078-.393q-.015-.228-.044-.436a.689.689,0,0,0-.165-.4.567.567,0,0,0-.412-.126h-.761v1.353h-.761v-3.462Z" transform="translate(40.009 39.277)" fill="#fff"/>
      </g>
      <g id="g62" transform="translate(12.979 0)">
        <path id="path64" d="M-51.373-51.136l-.436-1.27h-.01l-.451,1.27Zm-.044-2.124,1.295,3.462h-.79l-.262-.771h-1.294l-.272.771h-.766L-52.2-53.26Z" transform="translate(53.507 53.26)" fill="#fff"/>
      </g>
      <g id="g66" transform="translate(15.85 0)">
        <path id="path68" d="M0-15.412v-.64H2.836v.64H1.8v2.822H1.038v-2.822Z" transform="translate(0 16.052)" fill="#fff"/>
      </g>
    </g>
    <g id="g70" transform="translate(-6137.401 -3607.603)">
      <path id="path72" d="M0-29.84H3.9a7.113,7.113,0,0,1,1.266.11,3.175,3.175,0,0,1,1.078.39,2.08,2.08,0,0,1,.75.781,2.593,2.593,0,0,1,.281,1.28,2.362,2.362,0,0,1-.843,2.032,14.04,14.04,0,0,1,3.657,1.126,4.916,4.916,0,0,0,1.171-1.188,4.892,4.892,0,0,0,.765-2.813,5.994,5.994,0,0,0-.515-2.624,4.3,4.3,0,0,0-1.453-1.7,6.291,6.291,0,0,0-2.249-.921A13.922,13.922,0,0,0,4.9-33.652H0Z" transform="translate(0 33.652)" fill="#f9b73f"/>
    </g>
    <g id="g74" transform="translate(-6143 -3607.603)">
      <path id="path76" d="M-105.544-133.056a2.352,2.352,0,0,1-.8.891,3.385,3.385,0,0,1-1.156.469,6.612,6.612,0,0,1-1.375.14h-5.25v-6.124h5.343a4.143,4.143,0,0,1,2.563.734,2.886,2.886,0,0,1,.968,2.453,3.061,3.061,0,0,1-.3,1.437m-3.609-7.967h-4.968v-5.219h0v-3.812h-4.908v22.311h10.812a11.383,11.383,0,0,0,2.922-.375,7.8,7.8,0,0,0,2.531-1.156A5.7,5.7,0,0,0-101-131.29a6.147,6.147,0,0,0,.656-2.923,6.43,6.43,0,0,0-1.015-3.578c-1.257-1.947-3.983-3.234-7.8-3.234" transform="translate(119.028 150.054)" fill="#f17f36"/>
    </g>
  </g>
</svg>
