<svg width="199" height="181" viewBox="0 0 199 181" fill="none" xmlns="http://www.w3.org/2000/svg">
<path d="M29.8667 0.267578H169.213C177.081 0.419755 184.558 3.30239 190.002 8.28209C195.445 13.2618 198.41 19.9312 198.244 26.8249V154.303C198.41 161.197 195.445 167.866 190.002 172.846C184.558 177.826 177.081 180.708 169.213 180.861H29.8667C21.9989 180.708 14.5218 177.826 9.07834 172.846C3.63489 167.866 0.670382 161.197 0.836189 154.303V26.8249C0.670382 19.9312 3.63489 13.2618 9.07834 8.28209C14.5218 3.30239 21.9989 0.419755 29.8667 0.267578V0.267578Z" fill="#F4F5F6"/>
<path d="M135.797 115.976H64.1404C63.6612 115.964 63.1841 116.036 62.7374 116.189C62.2906 116.341 61.8833 116.571 61.5396 116.863C61.1958 117.156 60.9225 117.506 60.7359 117.893C60.5493 118.28 60.4531 118.696 60.4531 119.116C60.4531 119.536 60.5493 119.952 60.7359 120.339C60.9225 120.726 61.1958 121.076 61.5396 121.369C61.8833 121.661 62.2906 121.891 62.7374 122.043C63.1841 122.196 63.6612 122.268 64.1404 122.256H135.797C136.729 122.233 137.615 121.892 138.265 121.305C138.916 120.719 139.28 119.934 139.28 119.116C139.28 118.298 138.916 117.513 138.265 116.927C137.615 116.34 136.729 115.999 135.797 115.976Z" fill="#1B1811"/>
<path d="M68.6077 107.814C67.6569 107.814 66.7449 108.145 66.0726 108.734C65.4002 109.323 65.0225 110.122 65.0225 110.955C65.0225 111.788 65.4002 112.587 66.0726 113.176C66.7449 113.766 67.6569 114.096 68.6077 114.096H131.314C132.265 114.096 133.177 113.766 133.849 113.176C134.521 112.587 134.899 111.788 134.899 110.955C134.899 110.122 134.521 109.323 133.849 108.734C133.177 108.145 132.265 107.814 131.314 107.814H130.42V79.5574H131.314C131.555 79.5659 131.795 79.5317 132.021 79.4567C132.247 79.3817 132.453 79.2676 132.627 79.1211C132.801 78.9747 132.939 78.7989 133.034 78.6044C133.128 78.4099 133.177 78.2007 133.177 77.9893C133.177 77.7779 133.128 77.5687 133.034 77.3742C132.939 77.1797 132.801 77.0039 132.627 76.8575C132.453 76.711 132.247 76.5969 132.021 76.5219C131.795 76.4469 131.555 76.4127 131.314 76.4212H68.6077C68.3666 76.4127 68.1261 76.4469 67.9005 76.5219C67.6748 76.5969 67.4688 76.711 67.2948 76.8575C67.1208 77.0039 66.9824 77.1797 66.8878 77.3742C66.7932 77.5687 66.7445 77.7779 66.7445 77.9893C66.7445 78.2007 66.7932 78.4099 66.8878 78.6044C66.9824 78.7989 67.1208 78.9747 67.2948 79.1211C67.4688 79.2676 67.6748 79.3817 67.9005 79.4567C68.1261 79.5317 68.3666 79.5659 68.6077 79.5574H69.5048V107.811H68.6077V107.814ZM123.258 79.5574V107.811H112.516V79.5574H123.258ZM105.343 79.5574V107.811H94.6017V79.5574H105.343ZM76.6811 79.5574H87.4224V107.811H76.6782L76.6811 79.5574Z" fill="#1B1811"/>
<path d="M64.137 73.5984H135.842C136.686 73.5925 137.501 73.3261 138.142 72.846C138.784 72.3659 139.212 71.7029 139.351 70.9736C139.489 70.2443 139.33 69.4956 138.901 68.8591C138.471 68.2226 137.8 67.7391 137.004 67.4938L101.441 53.4712C100.979 53.2893 100.478 53.1953 99.9708 53.1953C99.464 53.1953 98.9628 53.2893 98.5004 53.4712L62.668 67.5956C61.9196 67.8896 61.309 68.3997 60.9382 69.0408C60.5674 69.6818 60.4589 70.415 60.6309 71.1176C60.8028 71.8203 61.2448 72.45 61.8829 72.9016C62.5211 73.3531 63.3167 73.5991 64.137 73.5984Z" fill="#1B1811"/>
</svg>
