
<svg width="34" height="34" viewBox="0 0 34 34" fill="currentColor" xmlns="http://www.w3.org/2000/svg">
<g clip-path="url(#clip0_1684_3657)">
<path fill-rule="evenodd" clip-rule="evenodd" d="M29.0417 21.2499C26.3075 21.2499 24.0833 23.4741 24.0833 26.2083C24.0833 28.9424 26.3075 31.1666 29.0417 31.1666C31.7758 31.1666 34 28.9424 34 26.2083C34 23.4741 31.7758 21.2499 29.0417 21.2499ZM32.5833 18.4166C33.3667 18.4166 34 17.7819 34 16.9999C34 16.2179 33.3667 15.5833 32.5833 15.5833H29.0417C28.662 15.5833 28.2852 15.6088 27.9126 15.6527L25.5382 9.544C25.9477 9.77492 26.4137 9.91659 26.9181 9.91659C27.7001 9.91659 28.3347 9.28192 28.3347 8.49992V5.66659C28.3347 4.88459 27.7001 4.24992 26.9181 4.24992C25.653 4.24992 24.5947 5.08434 24.2307 6.229C23.3254 4.1635 21.3251 2.83325 19.0527 2.83325H18.4181C17.6347 2.83325 17.0014 3.46792 17.0014 4.24992C17.0014 5.03192 17.6347 5.66659 18.4181 5.66659H19.0527C20.2102 5.66659 21.2712 6.39334 21.6934 7.47284L25.16 16.3865C23.8397 16.9518 22.6341 17.7975 21.641 18.9011L19.3162 21.6593C18.7765 22.2997 17.9874 22.6666 17.1502 22.6666H16.8257L13.7176 14.8962C12.8534 12.7315 10.7879 11.3333 8.45608 11.3333H5.66667C2.5415 11.3333 0 13.8748 0 16.9999V19.8333C0 22.005 1.24242 23.8736 3.04017 24.8242C2.91125 25.2704 2.83333 25.7323 2.83333 26.2083C2.83333 28.9424 5.0575 31.1666 7.79167 31.1666C10.5258 31.1666 12.75 28.9424 12.75 26.2083C12.75 25.9688 12.7273 25.7337 12.6933 25.4999H17.1487C18.8232 25.4999 20.4028 24.7661 21.4823 23.4854L23.7759 20.7612C25.1175 19.2708 27.0371 18.4166 29.0417 18.4166H32.5833ZM5.66667 22.6666C4.10408 22.6666 2.83333 21.3958 2.83333 19.8333V16.9999C2.83333 15.4373 4.10408 14.1666 5.66667 14.1666H8.45608C9.62058 14.1666 10.6547 14.865 11.0854 15.9473L13.7728 22.6666H5.66667Z"/>
</g>
<defs>
<clipPath  id="clip0_1684_3657">
<rect width="34" height="34" />
</clipPath>
</defs>
</svg>
