
<svg width="24" height="24" viewBox="0 0 24 24" fill="none" xmlns="http://www.w3.org/2000/svg">
<path d="M18.3984 1.19921V10.8C17.9512 10.8 17.6001 11.1622 17.5999 11.5984L17.5984 15.2008H1.60078C0.705834 15.2008 0 15.9221 0 16.8016V20.7992C0 21.6787 0.708813 22.4 1.60078 22.4H2.4V23.5984C2.39915 23.8206 2.57943 24.0008 2.80156 24H5.2C5.42091 23.9991 5.60085 23.8193 5.6 23.5984V22.4H18.3984V23.5984C18.3976 23.8209 18.5783 24.0013 18.8008 24H21.1977C21.4201 24.0013 21.6008 23.8209 21.6 23.5984V22.4H22.4C23.2949 22.4 24 21.6787 24 20.7992V16.8016C24 15.9221 23.2951 15.2008 22.4 15.2008H21.5992V11.5984C21.5992 11.1622 21.2457 10.8 20.8 10.8L20.7992 1.19921C20.7992 0.541334 20.268 0 19.6008 0C18.9335 0 18.3984 0.541334 18.3984 1.19921ZM8.22338 4.52343C5.48134 4.52343 2.85323 5.6287 0.915574 7.58906C0.525496 7.95342 1.12537 8.54705 1.4851 8.14999C3.27385 6.34029 5.6957 5.32422 8.22338 5.32422C10.7513 5.32422 13.176 6.34002 14.9648 8.14999C15.3269 8.54971 15.9213 7.95051 15.5343 7.58906C13.5966 5.6284 10.9657 4.52343 8.22338 4.52343ZM8.22338 7.03984C6.13985 7.03984 4.1445 7.87703 2.6726 9.36641C2.25908 9.71813 2.90221 10.3312 3.23901 9.92733C4.56198 8.58866 6.35423 7.83671 8.22338 7.83671C10.0923 7.83671 11.8848 8.58893 13.2078 9.92733C13.5746 10.3145 14.1576 9.73816 13.7781 9.36641C12.3062 7.87734 10.3067 7.03984 8.22338 7.03984ZM8.22338 9.55235C6.79879 9.55235 5.43569 10.1228 4.42964 11.1406C4.04124 11.499 4.63254 12.102 4.99604 11.7047C5.85318 10.8375 7.01315 10.3523 8.22338 10.3523C9.43377 10.3523 10.5967 10.8373 11.4539 11.7047C11.8251 12.0961 12.4057 11.5103 12.0234 11.1406C11.0173 10.1226 9.64815 9.55235 8.22338 9.55235ZM8.22338 12.0648C7.45724 12.0648 6.72385 12.3718 6.18354 12.9187C5.79083 13.2984 6.37721 13.8792 6.75307 13.4828C7.14445 13.0867 7.67166 12.8656 8.22338 12.8656C8.7748 12.8656 9.30551 13.0871 9.69682 13.4828C10.0728 13.8764 10.6555 13.2968 10.264 12.9187C9.72378 12.3724 8.9891 12.0648 8.22338 12.0648ZM3.59839 16.8016C4.26576 16.8016 4.80073 17.342 4.80073 18C4.80073 18.658 4.26523 19.1992 3.59839 19.1992C2.93154 19.1992 2.39995 18.658 2.39995 18C2.39995 17.342 2.93101 16.8016 3.59839 16.8016ZM6.80229 16.8016C7.47576 16.8016 8.00073 17.342 8.00073 18C8.00073 18.658 7.46811 19.1992 6.80229 19.1992C6.13647 19.1992 5.59995 18.658 5.59995 18C5.59995 17.342 6.12883 16.8016 6.80229 16.8016ZM10.0015 16.8016C10.6706 16.8016 11.1999 17.342 11.1999 18C11.1999 18.658 10.6673 19.1992 10.0015 19.1992C9.33569 19.1992 8.79917 18.658 8.79917 18C8.79917 17.342 9.33246 16.8016 10.0015 16.8016ZM3.59839 17.5984C3.38524 17.5984 3.19995 17.7743 3.19995 18C3.19995 18.2256 3.38211 18.3984 3.59839 18.3984C3.81467 18.3984 4.00073 18.2256 4.00073 18C4.00073 17.7743 3.81154 17.5984 3.59839 17.5984ZM6.80229 17.5984C6.58769 17.5984 6.39995 17.7743 6.39995 18C6.39995 18.2256 6.58601 18.3984 6.80229 18.3984C7.01857 18.3984 7.20073 18.2256 7.20073 18C7.20073 17.7743 7.01689 17.5984 6.80229 17.5984ZM10.0015 17.5984C9.79132 17.5984 9.59917 17.7743 9.59917 18C9.59917 18.2256 9.78367 18.3984 10.0015 18.3984C10.2193 18.3984 10.3999 18.2256 10.3999 18C10.3999 17.7743 10.2117 17.5984 10.0015 17.5984ZM12.3984 17.5984H16.0015C16.5233 17.5984 16.5233 18.3984 16.0015 18.3984H12.3984C11.8766 18.3984 11.8766 17.5984 12.3984 17.5984ZM17.7992 17.5984H18.8007C19.3225 17.5984 19.3225 18.3984 18.8007 18.3984H17.7992C17.2774 18.3984 17.2774 17.5984 17.7992 17.5984Z" fill="white"/>
</svg>
