
<svg width="25" height="27" viewBox="0 0 25 27" fill="none" xmlns="http://www.w3.org/2000/svg">
<path d="M20.1895 5.4052H15.428L18.4785 2.42375C18.6022 2.30236 18.7003 2.15825 18.7672 1.99964C18.8342 1.84104 18.8686 1.67105 18.8686 1.49938C18.8686 1.3277 18.8342 1.15771 18.7672 0.999106C18.7003 0.840501 18.6022 0.696389 18.4785 0.574998C18.3549 0.453607 18.2081 0.357314 18.0465 0.291618C17.8849 0.225922 17.7117 0.192108 17.5369 0.192108C17.1837 0.192108 16.8449 0.329838 16.5952 0.574998L12.2316 4.8063L10.6798 2.20242C10.5927 2.05368 10.4766 1.92322 10.3382 1.81851C10.1997 1.7138 10.0416 1.63689 9.87288 1.59216C9.70415 1.54742 9.5281 1.53575 9.35477 1.55781C9.18145 1.57987 9.01425 1.63522 8.86271 1.72071C8.71118 1.80619 8.57829 1.92014 8.47162 2.05604C8.36495 2.19194 8.28659 2.34714 8.24102 2.51277C8.19545 2.6784 8.18356 2.85121 8.20603 3.02135C8.2285 3.19149 8.28489 3.35562 8.37197 3.50436L9.57893 5.4052H4.27364C3.21835 5.4052 2.20629 5.8167 1.46009 6.54918C0.713889 7.28167 0.294678 8.27513 0.294678 9.31102V19.7265C0.294678 20.7624 0.713889 21.7559 1.46009 22.4884C2.20629 23.2209 3.21835 23.6324 4.27364 23.6324V24.9343C4.27364 25.2796 4.41338 25.6107 4.66211 25.8549C4.91085 26.0991 5.2482 26.2362 5.59996 26.2362C5.95173 26.2362 6.28908 26.0991 6.53781 25.8549C6.78655 25.6107 6.92628 25.2796 6.92628 24.9343V23.6324H17.5369V24.9343C17.5369 25.2796 17.6766 25.6107 17.9253 25.8549C18.1741 26.0991 18.5114 26.2362 18.8632 26.2362C19.2149 26.2362 19.5523 26.0991 19.801 25.8549C20.0498 25.6107 20.1895 25.2796 20.1895 24.9343V23.6324C21.2448 23.6324 22.2569 23.2209 23.0031 22.4884C23.7493 21.7559 24.1685 20.7624 24.1685 19.7265V9.31102C24.1685 8.27513 23.7493 7.28167 23.0031 6.54918C22.2569 5.8167 21.2448 5.4052 20.1895 5.4052ZM21.5158 19.7265C21.5158 20.0718 21.3761 20.403 21.1273 20.6472C20.8786 20.8913 20.5413 21.0285 20.1895 21.0285H4.27364C3.92188 21.0285 3.58452 20.8913 3.33579 20.6472C3.08706 20.403 2.94732 20.0718 2.94732 19.7265V9.31102C2.94732 8.96572 3.08706 8.63457 3.33579 8.39041C3.58452 8.14625 3.92188 8.00908 4.27364 8.00908H20.1895C20.5413 8.00908 20.8786 8.14625 21.1273 8.39041C21.3761 8.63457 21.5158 8.96572 21.5158 9.31102V19.7265Z" fill="white"/>
</svg>
