
<svg width="29" fill="white" height="29" viewBox="0 0 29 29" xmlns="http://www.w3.org/2000/svg">
<g clip-path="url(#clip0_1684_3644)">
<path d="M29 14.5C29 15.1682 28.4587 15.7083 27.7917 15.7083H15.7083V27.7917C15.7083 28.4599 15.167 29 14.5 29C13.833 29 13.2917 28.4599 13.2917 27.7917V15.7083H1.20833C0.541333 15.7083 0 15.1682 0 14.5C0 13.8318 0.541333 13.2917 1.20833 13.2917H13.2917V1.20833C13.2917 0.540125 13.833 0 14.5 0C15.167 0 15.7083 0.540125 15.7083 1.20833V13.2917H27.7917C28.4587 13.2917 29 13.8318 29 14.5ZM27.7917 19.3333H20.5417C19.8747 19.3333 19.3333 19.8735 19.3333 20.5417C19.3333 21.2099 19.8747 21.75 20.5417 21.75H27.7917C28.4587 21.75 29 21.2099 29 20.5417C29 19.8735 28.4587 19.3333 27.7917 19.3333ZM27.7917 24.1667H20.5417C19.8747 24.1667 19.3333 24.7068 19.3333 25.375C19.3333 26.0432 19.8747 26.5833 20.5417 26.5833H27.7917C28.4587 26.5833 29 26.0432 29 25.375C29 24.7068 28.4587 24.1667 27.7917 24.1667ZM1.20833 7.25H8.45833C9.12533 7.25 9.66667 6.70988 9.66667 6.04167C9.66667 5.37346 9.12533 4.83333 8.45833 4.83333H1.20833C0.541333 4.83333 0 5.37346 0 6.04167C0 6.70988 0.541333 7.25 1.20833 7.25ZM20.5417 7.25H22.9583V9.66667C22.9583 10.3349 23.4997 10.875 24.1667 10.875C24.8337 10.875 25.375 10.3349 25.375 9.66667V7.25H27.7917C28.4587 7.25 29 6.70988 29 6.04167C29 5.37346 28.4587 4.83333 27.7917 4.83333H25.375V2.41667C25.375 1.74846 24.8337 1.20833 24.1667 1.20833C23.4997 1.20833 22.9583 1.74846 22.9583 2.41667V4.83333H20.5417C19.8747 4.83333 19.3333 5.37346 19.3333 6.04167C19.3333 6.70988 19.8747 7.25 20.5417 7.25ZM9.31262 19.6874C8.84017 19.2149 8.0765 19.2149 7.60404 19.6874L5.4375 21.8539L3.27096 19.6874C2.7985 19.2149 2.03483 19.2149 1.56238 19.6874C1.08992 20.1598 1.08992 20.9235 1.56238 21.396L3.72892 23.5625L1.56238 25.729C1.08992 26.2015 1.08992 26.9652 1.56238 27.4376C1.798 27.6733 2.10733 27.7917 2.41667 27.7917C2.726 27.7917 3.03533 27.6733 3.27096 27.4376L5.4375 25.2711L7.60404 27.4376C7.83967 27.6733 8.149 27.7917 8.45833 27.7917C8.76767 27.7917 9.077 27.6733 9.31262 27.4376C9.78508 26.9652 9.78508 26.2015 9.31262 25.729L7.14608 23.5625L9.31262 21.396C9.78508 20.9235 9.78508 20.1598 9.31262 19.6874Z"/>
</g>
<defs>
<clipPath id="clip0_1684_3644">
<rect width="29" height="29" />
</clipPath>
</defs>
</svg>
