
<svg width="35" height="35" viewBox="0 0 35 35" fill="currentColor" xmlns="http://www.w3.org/2000/svg">
<path d="M8.02051 25.4167C9.22863 25.4167 10.208 24.4374 10.208 23.2292C10.208 22.0211 9.22863 21.0417 8.02051 21.0417C6.81238 21.0417 5.83301 22.0211 5.83301 23.2292C5.83301 24.4374 6.81238 25.4167 8.02051 25.4167Z" />
<path d="M27.7083 5H7.29167C5.35851 5.00232 3.50519 5.77129 2.13824 7.13824C0.771286 8.50519 0.00231563 10.3585 0 12.2917L0 23.9583C0.00231563 25.8915 0.771286 27.7448 2.13824 29.1118C3.50519 30.4787 5.35851 31.2477 7.29167 31.25H27.7083C29.6415 31.2477 31.4948 30.4787 32.8618 29.1118C34.2287 27.7448 34.9977 25.8915 35 23.9583V12.2917C34.9977 10.3585 34.2287 8.50519 32.8618 7.13824C31.4948 5.77129 29.6415 5.00232 27.7083 5ZM7.29167 7.91667H27.7083C28.8687 7.91667 29.9815 8.3776 30.8019 9.19807C31.6224 10.0185 32.0833 11.1313 32.0833 12.2917H2.91667C2.91667 11.1313 3.3776 10.0185 4.19807 9.19807C5.01855 8.3776 6.13134 7.91667 7.29167 7.91667ZM27.7083 28.3333H7.29167C6.13134 28.3333 5.01855 27.8724 4.19807 27.0519C3.3776 26.2315 2.91667 25.1187 2.91667 23.9583V15.2083H32.0833V23.9583C32.0833 25.1187 31.6224 26.2315 30.8019 27.0519C29.9815 27.8724 28.8687 28.3333 27.7083 28.3333Z" />
</svg>
