<svg width="58" height="43" viewBox="0 0 58 43" fill="none" xmlns="http://www.w3.org/2000/svg">
<circle cx="21.7568" cy="21.7568" r="20.7568" fill="#FFEAA9"/>
<mask id="mask0_1_270" style="mask-type:alpha" maskUnits="userSpaceOnUse" x="1" y="0" width="43" height="43">
<circle cx="22.2275" cy="21.2275" r="21.2275" fill="#FFE4E4"/>
</mask>
<g mask="url(#mask0_1_270)">
<path d="M20.9531 16.448C19.0532 16.6081 17.2319 17.1409 15.5171 18.0828C11.5193 20.2784 9.05248 23.6231 8.1539 28.1038C8.0388 28.6751 7.9819 29.2588 7.89819 29.8366C7.89819 30.4458 7.89819 31.0544 7.89819 31.6636C7.91716 31.7577 7.93939 31.8512 7.95509 31.9459C8.08196 32.7159 8.15456 33.4997 8.3416 34.2546C10.1773 41.6676 17.5563 46.3164 25.0908 44.8241C32.9262 43.2723 38.0123 35.4678 36.2753 27.6613C34.9104 21.5288 29.7668 17.0186 23.5631 16.4565C23.5631 16.4565 22.5965 16.3009 20.9531 16.448Z" fill="#FFF6DB"/>
<g clip-path="url(#clip0_1_270)">
<path d="M30.5 43C23.3544 43 16.2081 43 9.0625 43C9.01562 42.9806 8.97062 42.9515 8.92188 42.9437C7.9625 42.7847 7.16875 42.3121 6.64875 41.4709C6.35625 40.997 6.21125 40.4248 6 39.8966C6 34.8748 6 29.8537 6 24.8319C6.01187 24.8151 6.0325 24.7989 6.03562 24.7808C6.25 23.5233 6.92625 22.6272 8.02063 22.0556C8.03625 22.0472 8.04375 22.0226 8.065 21.9909C8.03 21.7925 8 21.5797 7.95438 21.3709C7.41563 18.8888 9.02125 17.1088 11.0219 16.7875C14.4944 16.2295 17.9475 15.5435 21.4087 14.9125C24.0919 14.4224 26.775 13.9356 29.4575 13.4435C30.2231 13.3032 30.9856 13.1481 31.75 13C32 13 32.25 13 32.5 13C32.5481 13.0187 32.5944 13.0459 32.6437 13.055C34.1625 13.3414 35.2306 14.3823 35.505 15.945C36.185 19.8179 36.8344 23.6966 37.4994 27.5726C37.6606 28.5134 37.8331 29.4522 38 30.3922C38 30.6942 38 30.9955 38 31.2974C37.9806 31.3453 37.9538 31.3918 37.9431 31.4416C37.6306 32.9545 36.755 33.9179 35.3037 34.2961C34.8312 34.4196 34.3475 34.505 33.8638 34.569C33.6194 34.6013 33.5638 34.6957 33.565 34.9343C33.5738 36.4627 33.5956 37.9912 33.5588 39.519C33.5244 40.9433 32.8463 41.9901 31.6169 42.6244C31.27 42.8034 30.8738 42.8778 30.5 43ZM31.6919 32.544C23.7319 32.544 15.8131 32.544 7.87812 32.544C7.87812 32.6765 7.87812 32.7832 7.87812 32.8899C7.87812 35.0125 7.8775 37.1351 7.87875 39.2578C7.87937 40.3802 8.5225 41.0513 9.605 41.0519C16.3956 41.0532 23.1863 41.0532 29.9769 41.0519C31.0456 41.0519 31.6906 40.3834 31.6919 39.2836C31.6938 37.4086 31.6925 35.5343 31.6925 33.6593C31.6919 33.294 31.6919 32.9287 31.6919 32.544ZM9.92375 21.7401C10.1062 21.7401 10.2406 21.7401 10.3756 21.7401C16.875 21.7401 23.375 21.7388 29.8744 21.744C30.2056 21.744 30.5444 21.7634 30.8662 21.8377C32.48 22.2127 33.5575 23.6002 33.5669 25.3291C33.5794 27.6347 33.57 29.9409 33.5706 32.2465C33.5706 32.372 33.5706 32.4968 33.5706 32.6506C34.0625 32.5582 34.5175 32.4981 34.9594 32.383C35.515 32.2381 35.9144 31.8593 36.0394 31.2845C36.1163 30.9315 36.0863 30.5351 36.0256 30.1724C35.465 26.811 34.8862 23.4522 34.3144 20.0927C34.1012 18.8422 33.8956 17.5899 33.6769 16.3407C33.5106 15.3929 32.7394 14.8272 31.8319 14.9875C30.2219 15.272 28.6131 15.5649 27.005 15.8584C21.6975 16.8263 16.3906 17.7948 11.0844 18.7634C10.2512 18.9153 9.68625 19.5961 9.73625 20.4334C9.76187 20.8601 9.85562 21.283 9.92375 21.7401ZM7.89688 28.1241C7.89688 28.9582 7.89688 29.7502 7.89688 30.5532C15.8325 30.5532 23.75 30.5532 31.6688 30.5532C31.6688 29.7295 31.6688 28.9284 31.6688 28.1241C23.735 28.1241 15.825 28.1241 7.89688 28.1241ZM31.67 26.1373C31.67 25.7455 31.715 25.375 31.6612 25.02C31.5344 24.1828 30.8656 23.6849 29.9306 23.6849C23.1738 23.6843 16.4169 23.6843 9.66 23.6856C9.525 23.6856 9.38875 23.6888 9.25563 23.7082C8.5475 23.811 8.02063 24.3075 7.91313 25.0362C7.86125 25.3905 7.90437 25.7591 7.90437 26.1373C15.825 26.1373 23.735 26.1373 31.67 26.1373Z" fill="#325BC2"/>
<path d="M31.6917 32.5441C31.6917 32.9288 31.6917 33.2941 31.6917 33.6588C31.6917 35.5338 31.693 37.4081 31.6911 39.2831C31.6898 40.3835 31.0448 41.0514 29.9761 41.0514C23.1855 41.0527 16.3949 41.0527 9.60423 41.0514C8.52173 41.0514 7.8786 40.3797 7.87798 39.2572C7.87673 37.1346 7.87735 35.012 7.87735 32.8894C7.87735 32.7827 7.87735 32.676 7.87735 32.5435C15.813 32.5441 23.7311 32.5441 31.6917 32.5441ZM12.8892 39.084C13.5761 39.084 14.2624 39.0891 14.9492 39.0827C15.5636 39.0769 15.983 38.6838 15.9892 38.1225C15.9961 37.5562 15.5592 37.1411 14.9367 37.1391C13.5949 37.1353 12.253 37.1359 10.9105 37.1385C10.2736 37.1398 9.85048 37.5277 9.84423 38.1025C9.83798 38.6883 10.2649 39.0794 10.923 39.0833C11.5786 39.0872 12.2342 39.084 12.8892 39.084Z" fill="#FFF6DB"/>
<path d="M9.92348 21.7399C9.85536 21.2828 9.76161 20.86 9.73598 20.4332C9.68598 19.596 10.251 18.9151 11.0841 18.7632C16.3904 17.7947 21.6972 16.8261 27.0035 15.8589C28.6122 15.566 30.2204 15.2731 31.8304 14.988C32.7379 14.8276 33.5097 15.3934 33.6754 16.3412C33.8941 17.591 34.0997 18.8427 34.3129 20.0931C34.8854 23.4526 35.4635 26.8115 36.0241 30.1729C36.0847 30.5356 36.1141 30.9319 36.0379 31.285C35.9135 31.8591 35.5135 32.2386 34.9579 32.3835C34.516 32.4985 34.061 32.5587 33.5691 32.6511C33.5691 32.4979 33.5691 32.3725 33.5691 32.247C33.5691 29.9414 33.5785 27.6352 33.5654 25.3296C33.556 23.6007 32.4785 22.2132 30.8647 21.8382C30.5435 21.7632 30.2041 21.7444 29.8729 21.7444C23.3741 21.7386 16.8747 21.7399 10.3747 21.7399C10.2404 21.7399 10.106 21.7399 9.92348 21.7399Z" fill="#FFF6DB"/>
<path d="M7.89673 28.124C15.8249 28.124 23.7349 28.124 31.6686 28.124C31.6686 28.9277 31.6686 29.7294 31.6686 30.5531C23.7499 30.5531 15.833 30.5531 7.89673 30.5531C7.89673 29.7495 7.89673 28.9574 7.89673 28.124Z" fill="#FFF6DB"/>
<path d="M31.67 26.1374C23.7344 26.1374 15.825 26.1374 7.90378 26.1374C7.90378 25.7591 7.86065 25.39 7.91253 25.0363C8.0194 24.3083 8.5469 23.8117 9.25503 23.7083C9.38815 23.6889 9.5244 23.6856 9.6594 23.6856C16.4163 23.6843 23.1732 23.6843 29.93 23.685C30.8657 23.685 31.5344 24.1828 31.6607 25.0201C31.715 25.3744 31.67 25.7456 31.67 26.1374Z" fill="#FFF6DB"/>
<path d="M12.8905 39.0838C12.2349 39.0838 11.5799 39.0864 10.9243 39.0832C10.2662 39.0793 9.83928 38.6881 9.84553 38.1023C9.85178 37.5276 10.2755 37.1403 10.9118 37.1383C12.2537 37.1351 13.5955 37.1344 14.938 37.139C15.5605 37.1409 15.9968 37.5554 15.9905 38.1224C15.9843 38.6836 15.5649 39.0767 14.9505 39.0825C14.2643 39.089 13.5774 39.0838 12.8905 39.0838Z" fill="#325BC2"/>
</g>
</g>
<g clip-path="url(#clip1_1_270)">
<circle cx="40.747" cy="23.3243" r="10" transform="rotate(56.6631 40.747 23.3243)" fill="#FFF6DB"/>
<path d="M32.1027 28.3799C31.8896 27.9257 31.6386 27.4852 31.4697 27.0147C30.0442 23.038 30.7113 19.3861 33.6823 16.3371C36.6771 13.2646 40.3549 12.4816 44.4043 13.8415C46.2552 14.4631 47.7625 15.6098 48.9287 17.1755C49.134 17.4508 49.309 17.7486 49.4981 18.0361C49.519 18.0287 49.5398 18.0209 49.5608 18.0135C49.698 17.2862 49.8352 16.5596 49.9768 15.8103C50.4996 15.9017 51.0093 15.9911 51.5449 16.0847C51.2279 17.772 50.9132 19.4472 50.5954 21.1373C48.9031 20.8403 47.2329 20.5474 45.5309 20.2487C45.627 19.7316 45.7214 19.2241 45.8209 18.6866C46.5443 18.8127 47.2567 18.9368 47.9854 19.0636C46.7157 16.6011 43.21 14.3015 39.1153 15.2229C35.2407 16.0948 32.4792 19.5418 32.5808 23.5645C32.6866 27.7649 35.8858 31.1585 40.1944 31.4843C41.6573 31.5947 43.0568 31.3074 44.3869 30.6714C45.7264 30.0308 46.8143 29.0954 47.6583 27.8793C48.4976 26.67 48.972 25.3293 49.1126 23.8586C49.7155 23.9031 50.3002 23.9469 50.8981 23.991C50.8443 24.7044 50.7094 25.387 50.5049 26.0563C49.9845 27.7578 49.094 29.2471 47.7859 30.462C45.4554 32.6266 42.6981 33.5831 39.5436 33.2193C37.06 32.933 34.9801 31.8272 33.3009 29.9959C33.0968 29.7732 32.9083 29.5358 32.7126 29.3054C32.509 28.9976 32.3058 28.6885 32.1027 28.3799Z" fill="#325BC2"/>
</g>
<defs>
<clipPath id="clip0_1_270">
<rect width="32" height="30" fill="white" transform="translate(6 13)"/>
</clipPath>
<clipPath id="clip1_1_270">
<rect width="20" height="23" fill="white" transform="translate(46.1123 7.82568) rotate(56.6631)"/>
</clipPath>
</defs>
</svg>
