<svg xmlns="http://www.w3.org/2000/svg" stroke="#fff" stroke-width="0.2" fill="#fff" width="20.313" height="22.2" viewBox="0 0 20.313 22.2">
  <path id="Path_6309" data-name="Path 6309" d="M26.645,12.855a.94.94,0,1,0,0,1.879,2.2,2.2,0,0,1,2.2,2.2V27.309a2.2,2.2,0,0,1-2.2,2.2H14.709a2.2,2.2,0,0,1-2.2-2.2V16.929a2.2,2.2,0,0,1,2.2-2.2.94.94,0,0,0,0-1.879,4.089,4.089,0,0,0-4.089,4.081V27.3a4.1,4.1,0,0,0,4.089,4.089H26.645A4.1,4.1,0,0,0,30.733,27.3V16.929a4.089,4.089,0,0,0-4.089-4.074Zm-6.892,0a.94.94,0,0,0,0,1.879H21.6a.94.94,0,0,0,0-1.879Zm-2.834,3.5a.94.94,0,0,0,.94-.947c0-2.255,1.293-4.164,2.826-4.164S23.51,13.148,23.51,15.4a.947.947,0,1,0,1.887,0c0-3.33-2.112-6.013-4.713-6.013s-4.72,2.713-4.72,6.013a.94.94,0,0,0,.955.947Z" transform="translate(-10.52 -9.29)"  />
</svg>
