<svg width="61" height="60" viewBox="0 0 61 60" fill="none" xmlns="http://www.w3.org/2000/svg">
<path d="M22.7859 0.331055C16.7827 0.337115 11.0271 2.66541 6.78222 6.80503C2.53729 10.9446 0.149769 16.5574 0.143555 22.4117C0.143555 37.7215 20.582 57.8156 21.4505 58.6779C21.8057 59.0215 22.2857 59.2143 22.7859 59.2143C23.2862 59.2143 23.7662 59.0215 24.1214 58.6779C24.1214 58.6779 25.7828 57.0627 28.1329 54.4276C28.2981 54.2457 28.4248 54.0337 28.5057 53.8039C28.5865 53.574 28.6199 53.3308 28.6039 53.0883C28.588 52.8458 28.5229 52.6088 28.4126 52.3909C28.3022 52.173 28.1488 51.9786 27.961 51.8188C27.7733 51.6591 27.5549 51.5371 27.3186 51.46C27.0823 51.3829 26.8327 51.3522 26.5842 51.3696C26.3356 51.387 26.0931 51.4522 25.8705 51.5614C25.6479 51.6707 25.4497 51.8218 25.2873 52.0061C24.2987 53.11 23.438 54.041 22.7859 54.7099C18.2789 50.0145 3.91772 34.107 3.91772 22.4066C3.91772 17.5263 5.90576 12.8458 9.44448 9.39488C12.9832 5.94395 17.7827 4.00523 22.7872 4.00523C27.7918 4.00523 32.5913 5.94395 36.13 9.39488C39.6687 12.8458 41.6568 17.5263 41.6568 22.4066C41.6608 22.9576 41.6189 23.508 41.5316 24.0523C41.4486 24.5337 41.565 25.0274 41.8553 25.425C42.1456 25.8226 42.586 26.0914 43.0796 26.1724C43.5732 26.2533 44.0795 26.1398 44.4872 25.8567C44.8949 25.5736 45.1706 25.1441 45.2536 24.6628C45.3767 23.9168 45.436 23.1622 45.4309 22.4066C45.4233 16.5528 43.0349 10.9409 38.7895 6.80233C34.5442 2.66374 28.7887 0.336439 22.7859 0.331055Z" fill="#474747"/>
<path d="M22.7878 11.373C20.5485 11.373 18.3594 12.0206 16.4974 13.2339C14.6354 14.4472 13.1842 16.1716 12.3272 18.1892C11.4702 20.2068 11.246 22.4269 11.6829 24.5688C12.1198 26.7106 13.1981 28.6781 14.7816 30.2223C16.3651 31.7665 18.3826 32.8181 20.5789 33.2441C22.7753 33.6701 25.0518 33.4515 27.1208 32.6158C29.1897 31.7801 30.958 30.3648 32.2021 28.5491C33.4463 26.7333 34.1103 24.5985 34.1103 22.4147C34.1069 19.4873 32.9129 16.6808 30.7902 14.6108C28.6676 12.5408 25.7897 11.3764 22.7878 11.373ZM22.7878 29.7732C21.2949 29.7732 19.8355 29.3415 18.5942 28.5326C17.3529 27.7238 16.3854 26.5741 15.8141 25.2291C15.2428 23.884 15.0933 22.4039 15.3845 20.976C15.6758 19.5481 16.3947 18.2365 17.4504 17.207C18.506 16.1776 19.851 15.4765 21.3152 15.1925C22.7795 14.9085 24.2972 15.0542 25.6765 15.6114C27.0557 16.1685 28.2346 17.112 29.0641 18.3225C29.8935 19.533 30.3362 20.9562 30.3362 22.4121C30.332 24.3631 29.5354 26.2331 28.1207 27.6127C26.706 28.9923 24.7885 29.7692 22.7878 29.7732Z" fill="#474747"/>
<path d="M45.4311 29.7734C42.4453 29.7734 39.5265 30.6369 37.0439 32.2546C34.5613 33.8723 32.6263 36.1715 31.4837 38.8617C30.341 41.5518 30.042 44.5119 30.6246 47.3677C31.2071 50.2235 32.6449 52.8468 34.7562 54.9057C36.8675 56.9647 39.5575 58.3668 42.4859 58.9349C45.4144 59.5029 48.4498 59.2113 51.2084 58.0971C53.9669 56.9828 56.3248 55.0958 57.9836 52.6748C59.6424 50.2537 60.5278 47.4073 60.5278 44.4956C60.5243 40.592 58.9327 36.8494 56.1023 34.0891C53.2719 31.3289 49.434 29.7768 45.4311 29.7734ZM45.4311 55.5346C43.1918 55.5346 41.0027 54.8871 39.1407 53.6738C37.2788 52.4606 35.8275 50.7361 34.9705 48.7185C34.1136 46.7009 33.8894 44.4808 34.3263 42.339C34.7631 40.1971 35.8415 38.2296 37.4249 36.6854C39.0084 35.1412 41.0259 34.0897 43.2222 33.6636C45.4186 33.2376 47.6952 33.4562 49.7641 34.2919C51.833 35.1276 53.6013 36.5429 54.8454 38.3587C56.0896 40.1744 56.7537 42.3092 56.7537 44.493C56.7502 47.4204 55.5562 50.227 53.4335 52.297C51.3109 54.3669 48.433 55.5313 45.4311 55.5346Z" fill="#474747"/>
<path d="M51.0904 42.6536H47.3163V38.973C47.3163 38.485 47.1174 38.0169 46.7635 37.6718C46.4096 37.3266 45.9296 37.1328 45.4291 37.1328C44.9287 37.1328 44.4487 37.3266 44.0948 37.6718C43.7409 38.0169 43.5421 38.485 43.5421 38.973V42.6536H39.7679C39.2674 42.6536 38.7874 42.8474 38.4335 43.1926C38.0796 43.5377 37.8809 44.0058 37.8809 44.4938C37.8809 44.9819 38.0796 45.45 38.4335 45.7951C38.7874 46.1402 39.2674 46.3341 39.7679 46.3341H43.5421V50.0147C43.5421 50.5027 43.7409 50.9708 44.0948 51.3159C44.4487 51.661 44.9287 51.8549 45.4291 51.8549C45.9296 51.8549 46.4096 51.661 46.7635 51.3159C47.1174 50.9708 47.3163 50.5027 47.3163 50.0147V46.3341H51.0904C51.5909 46.3341 52.0709 46.1402 52.4248 45.7951C52.7787 45.45 52.9775 44.9819 52.9775 44.4938C52.9775 44.0058 52.7787 43.5377 52.4248 43.1926C52.0709 42.8474 51.5909 42.6536 51.0904 42.6536Z" fill="#474747"/>
</svg>
