<svg xmlns="http://www.w3.org/2000/svg" viewBox="0 0 100 125" height="35" width="40">
<g data-name="25-Reliability">
    <path fill="#c0282c" d="M31.56,76.77a2,2,0,0,0-2-2H16.91a2,2,0,1,0,0,4H29.56A2,2,0,0,0,31.56,76.77Z"/>
    <path fill="#c0282c" d="M16.91,80.51a2,2,0,1,0,0,4h7.9a2,2,0,1,0,0-4Z"/><circle fill="#c0282c" cx="29.55" cy="82.51" r="2"/>
    <path fill="#000000" d="M85,44a2,2,0,0,0-2,2V84l-6,4.8V48a2,2,0,0,0-4,0V91H9V27H31.09V53.46a2,2,0,0,0,3,1.72L41,51.05l6.88,4.13a2,2,0,0,0,2,0,2,2,0,0,0,1-1.75V27h.8a2,2,0,1,0,0-4H11.16L16,17H54a2,2,0,0,0,0-4H15a2,2,0,0,0-1.56.75l-8,10a.21.21,0,0,0,0,.06,1.22,1.22,0,0,0-.12.19l-.09.16a1.34,1.34,0,0,0-.07.18l-.06.19,0,.18a1.49,1.49,0,0,0,0,.21S5,25,5,25V93a2,2,0,0,0,2,2H75a1.92,1.92,0,0,0,.59-.1l.1,0a2,2,0,0,0,.52-.29l0,0,10-8A2,2,0,0,0,87,85V46A2,2,0,0,0,85,44ZM46.91,27V49.93L42,47A2,2,0,0,0,40,47l-4.88,2.92V27Z"/>
    <path fill="#c0282c" d="M94.09,11.62C89,8.3,77.5,5.2,77,5.07a2,2,0,0,0-1,0c-.48.13-12,3.23-17.07,6.55a2,2,0,0,0-.9,1.89c.15,1.29.27,2.61.4,4,1.07,11.37,2.41,25.53,18,26.39h.21c16-.83,17.08-14.38,17.93-25.28.14-1.76.27-3.43.46-5.06A2,2,0,0,0,94.09,11.62Zm-3.54,6.64c-.89,11.21-1.65,20.89-14,21.59-11.19-.67-12.85-9.46-14.11-22.77-.09-.92-.17-1.83-.27-2.73C66.48,12,74.41,9.66,76.5,9.07c2.09.59,10,2.89,14.38,5.28C90.75,15.65,90.65,17,90.55,18.26Z"/>
    <path fill="#c0282c" d="M70.65,23.82a2,2,0,0,0-2.83,2.83l5.25,5.25a2,2,0,0,0,1.41.58,2,2,0,0,0,1.42-.58L86.4,21.4a2,2,0,1,0-2.83-2.83l-9.09,9.08Z"/>
    </g>
    </svg>


