<svg width="26" height="31" viewBox="0 0 26 31" fill="none" xmlns="http://www.w3.org/2000/svg">
<path fill-rule="evenodd" clip-rule="evenodd" d="M0 0.861111C0 0.385533 0.415736 0 0.928572 0H13.0671C13.3134 0 13.5496 0.0907234 13.7237 0.252213L25.728 11.3844C25.9022 11.5459 26 11.7649 26 11.9933V30.1389C26 30.6145 25.5843 31 25.0714 31H0.928571C0.415736 31 0 30.6145 0 30.1389V0.861111ZM2.32143 2.15278V28.8472H23.6786V13.1589H12.7388C12.226 13.1589 11.8103 12.7733 11.8103 12.2977V2.15278H2.32143ZM14.1317 3.67502L22.0371 11.0061H14.1317V3.67502Z"   />
<path d="M6.03571 16.4688C6.03571 16.231 6.24358 16.0382 6.5 16.0382H19.5C19.7564 16.0382 19.9643 16.231 19.9643 16.4688V17.7604C19.9643 17.9982 19.7564 18.191 19.5 18.191H6.5C6.24358 18.191 6.03571 17.9982 6.03571 17.7604V16.4688Z"   />
<path d="M6.03571 20.3438C6.03571 20.106 6.24358 19.9132 6.5 19.9132H19.5C19.7564 19.9132 19.9643 20.106 19.9643 20.3438V21.6354C19.9643 21.8732 19.7564 22.066 19.5 22.066H6.5C6.24358 22.066 6.03571 21.8732 6.03571 21.6354V20.3438Z"   />
<path d="M6.03571 24.2188C6.03571 23.981 6.24358 23.7882 6.5 23.7882H12.5357C12.7921 23.7882 13 23.981 13 24.2188V25.5104C13 25.7482 12.7921 25.941 12.5357 25.941H6.5C6.24358 25.941 6.03571 25.7482 6.03571 25.5104V24.2188Z"   />
</svg>