
<svg width="36" height="35" viewBox="0 0 36 35" fill="currentColor" xmlns="http://www.w3.org/2000/svg">
<path d="M27.75 7.29167H23.25C21.1815 7.29167 19.5 8.92792 19.5 10.9375V16.0417H17.427L15.3735 12.0473C14.328 10.0129 12.2235 8.75 9.885 8.75C6.9165 8.75 4.5 11.0994 4.5 14.0058L4.581 19.5183C4.611 21.5513 5.697 23.3888 7.488 24.4344L11.274 26.6481C11.7225 26.9106 12 27.3904 12 27.8979V33.5402C12 34.3452 12.6705 34.9985 13.5 34.9985C14.3295 34.9985 15 34.3452 15 33.5402V27.8979C15 26.3725 14.1645 24.936 12.8205 24.1485L9.033 21.9333C8.139 21.4098 7.596 20.491 7.581 19.4746L7.5 13.9825C7.5 12.7035 8.5695 11.6638 9.885 11.6638C10.095 11.6638 10.3005 11.6842 10.5 11.7221V18.9554C10.5 19.7604 11.1705 20.4138 12 20.4138C12.8295 20.4138 13.5 19.7604 13.5 18.9554V14.9231L14.7435 17.341C15.2535 18.3371 16.281 18.954 17.427 18.954H27.75C29.8185 18.954 31.5 17.3177 31.5 15.3081V10.9331C31.5 8.92354 29.8185 7.28729 27.75 7.28729V7.29167ZM28.5 15.3125C28.5 15.715 28.1625 16.0417 27.75 16.0417H22.5V10.9375C22.5 10.535 22.8375 10.2083 23.25 10.2083H27.75C28.1625 10.2083 28.5 10.535 28.5 10.9375V15.3125ZM6 3.64583C6 1.63188 7.6785 0 9.75 0C11.8215 0 13.5 1.63188 13.5 3.64583C13.5 5.65979 11.8215 7.29167 9.75 7.29167C7.6785 7.29167 6 5.65979 6 3.64583ZM9 29.1667V33.5417C9 34.3467 8.3295 35 7.5 35C6.6705 35 6 34.3467 6 33.5417V29.1667C6 28.3617 6.6705 27.7083 7.5 27.7083C8.3295 27.7083 9 28.3617 9 29.1667Z" />
</svg>
