<?xml version="1.0" standalone="no"?>
<!DOCTYPE svg PUBLIC "-//W3C//DTD SVG 20010904//EN"
 "http://www.w3.org/TR/2001/REC-SVG-20010904/DTD/svg10.dtd">
<svg version="1.0" xmlns="http://www.w3.org/2000/svg"
 width="26" height="26" viewBox="0 0 120.000000 120.000000"
 preserveAspectRatio="xMidYMid meet">

<g transform="translate(0.000000,120.000000) scale(0.100000,-0.100000)"
fill="currentColor" stroke="none">
<path d="M505 1190 c-169 -30 -336 -143 -419 -284 -83 -142 -104 -338 -52
-491 49 -141 148 -265 269 -334 142 -80 330 -99 482 -47 136 47 262 146 329
260 83 142 104 338 52 491 -47 137 -146 262 -260 329 -106 62 -286 96 -401 76z
m228 -65 c94 -24 176 -72 248 -144 214 -214 214 -548 0 -762 -214 -214 -548
-214 -762 0 -108 107 -159 233 -159 386 0 239 168 456 403 520 69 18 199 19
270 0z"/>
<path d="M729 720 c-117 -132 -217 -240 -221 -240 -4 0 -40 30 -80 66 -89 82
-107 91 -147 74 -34 -14 -52 -54 -40 -88 14 -39 217 -279 240 -285 48 -13 64
8 268 337 112 179 205 334 208 345 14 55 -35 10 -228 -209z"/>
</g>
</svg>
