<svg viewBox="0 0 41 30" height="40" width="40" xmlns="http://www.w3.org/2000/svg"><g data-name="Layer 2"><g data-name="Layer 1"><path d="M36.4 0H8.6a4.59 4.59 0 0 0-4.54 4.06A4.59 4.59 0 0 0 0 8.6v16.8A4.61 4.61 0 0 0 4.6 30h27.8a4.59 4.59 0 0 0 4.55-4.06A4.59 4.59 0 0 0 41 21.4V4.6A4.61 4.61 0 0 0 36.4 0ZM35 25.4a2.6 2.6 0 0 1-2.6 2.6H4.6A2.6 2.6 0 0 1 2 25.4V8.6A2.6 2.6 0 0 1 4.6 6h27.8A2.6 2.6 0 0 1 35 8.6Zm4-4a2.6 2.6 0 0 1-2 2.52V8.6A4.61 4.61 0 0 0 32.4 4H6.08A2.6 2.6 0 0 1 8.6 2h27.8A2.6 2.6 0 0 1 39 4.6Z" fill="#1d4e8e" class="fill-f7931e"></path><path d="M5 20h7v2H5zM5 24h10v2H5zM30 20a3 3 0 0 0-2 .78 3 3 0 1 0 0 4.44A3 3 0 1 0 30 20Zm-4 4a1 1 0 1 1 1-1 1 1 0 0 1-1 1Zm4 0a1 1 0 1 1 1-1 1 1 0 0 1-1 1ZM5 9h20v3H5z" fill="#1d4e8e" class="fill-f7931e"></path></g></g></svg>