<svg xmlns="http://www.w3.org/2000/svg" width="22.673" height="28.568" viewBox="0 0 22.673 28.568">
  <g id="Group_13386" data-name="Group 13386" transform="translate(-6.664 -0.075)">
    <g id="Group_13380" data-name="Group 13380" transform="translate(13.321 5.572)">
      <path id="Path_6245" data-name="Path 6245" d="M36.688,30.321a1.266,1.266,0,0,1-1.071-.681l-2.991-5.468H24.936l-.1-.007H24.7a1.674,1.674,0,0,1-1.666-1.561l-.488-7.436a1.676,1.676,0,0,1,1.561-1.777l.437-.027c.038,0,.076,0,.113,0a1.672,1.672,0,0,1,1.667,1.557l.157,2.472h4.932a.725.725,0,0,1,0,1.426h-4.84l.169,2.55H32.56A1.373,1.373,0,0,1,33,21.44l.032.01.033.006a1.255,1.255,0,0,1,.873.654l3.556,6.5a1.167,1.167,0,0,1-.353,1.592A.935.935,0,0,1,36.688,30.321Z" transform="translate(-22.096 -12.915)" fill="currentColor"/>
      <path id="Path_6246" data-name="Path 6246" d="M24.106,13.257a1.223,1.223,0,0,1,1.22,1.137l.131,2.053.053.838h5.352c.052,0,.149.1.149.266s-.1.265-.149.265H25.544l.064.954.11,1.655.055.836h6.236a.949.949,0,0,1,.3.05l.064.021.066.011a.821.821,0,0,1,.557.427l3.555,6.5a.724.724,0,0,1-.174.988.477.477,0,0,1-.24.061.813.813,0,0,1-.678-.448l-2.864-5.235-.255-.465H24.4l-.041-.007h-.21a1.226,1.226,0,0,1-1.22-1.142l-.487-7.436a1.227,1.227,0,0,1,1.14-1.3l.441-.027.082,0m0-.895c-.047,0-.093,0-.14,0l-.438.027a2.121,2.121,0,0,0-1.979,2.253l.488,7.437a2.119,2.119,0,0,0,2.113,1.979h.14a.768.768,0,0,0,.123.007h7.4L34.672,29.3a1.705,1.705,0,0,0,1.464.914,1.377,1.377,0,0,0,.672-.172,1.609,1.609,0,0,0,.53-2.2l-3.557-6.5a1.709,1.709,0,0,0-1.188-.879,1.83,1.83,0,0,0-.584-.1h-5.4l-.11-1.655h4.362a1.167,1.167,0,0,0,0-2.321H26.349l-.131-2.053a2.115,2.115,0,0,0-2.113-1.975Z" transform="translate(-21.544 -12.362)" fill="currentColor"/>
    </g>
    <g id="Group_13381" data-name="Group 13381" transform="translate(13.092 0.075)">
      <path id="Path_6247" data-name="Path 6247" d="M24.045,5.1a2.013,2.013,0,1,1,2.014-2.013A2.016,2.016,0,0,1,24.045,5.1Z" transform="translate(-21.585 -0.628)" fill="currentColor"/>
      <path id="Path_6248" data-name="Path 6248" d="M23.493.97a1.566,1.566,0,1,1-1.566,1.566A1.568,1.568,0,0,1,23.493.97m0-.895a2.461,2.461,0,1,0,2.461,2.461A2.461,2.461,0,0,0,23.493.075Z" transform="translate(-21.032 -0.075)" fill="currentColor"/>
    </g>
    <path id="Path_6249" data-name="Path 6249" d="M10.4,24.892a9.592,9.592,0,0,0,4.442,17.082,9.6,9.6,0,0,0,9.829-4.906c.214-.48.451-.823,0-1.253a.683.683,0,0,0-1.03.236,8,8,0,0,1-3.562,3.67,7.859,7.859,0,0,1-6.267.623,8.278,8.278,0,0,1-5.751-8.477,8.38,8.38,0,0,1,3.584-6.159c.515-.472.494-.794.257-1.073a.7.7,0,0,0-.944-.129A6.508,6.508,0,0,0,10.4,24.892Z" transform="translate(0 -13.429)" fill="currentColor"/>
  </g>
</svg>
