
<svg width="30" height="31" viewBox="0 0 30 31" fill="none" xmlns="http://www.w3.org/2000/svg">
<path d="M18.2442 18.7828C23.1467 18.7828 27.1356 14.7939 27.1356 9.8914C27.1356 4.9889 23.1467 0.999996 18.2442 0.999996C13.3417 0.999996 9.35278 4.9889 9.35278 9.8914C9.35278 14.7939 13.3417 18.7828 18.2442 18.7828ZM18.2442 2.11142C22.5343 2.11142 26.0242 5.6013 26.0242 9.8914C26.0242 14.1815 22.5343 17.6714 18.2442 17.6714C13.9541 17.6714 10.4642 14.1815 10.4642 9.8914C10.4642 5.6013 13.9546 2.11142 18.2442 2.11142Z" fill="white" stroke="white" stroke-width="0.511735"/>
<path d="M18.2442 16.56C21.9214 16.56 24.9128 13.5686 24.9128 9.8914C24.9128 6.21425 21.9214 3.22285 18.2442 3.22285C14.5671 3.22285 11.5757 6.21425 11.5757 9.8914C11.5757 13.5686 14.5676 16.56 18.2442 16.56ZM18.2442 3.77856C21.6146 3.77856 24.3571 6.521 24.3571 9.8914C24.3571 13.2618 21.6146 16.0042 18.2442 16.0042C14.8738 16.0042 12.1314 13.2618 12.1314 9.8914C12.1314 6.521 14.8738 3.77856 18.2442 3.77856Z" fill="white" stroke="white" stroke-width="0.511735"/>
<path d="M28.9596 22.9912C28.4889 21.9148 27.5136 21.9131 27.0363 22.0748L21.7592 24.5461C21.8064 24.3916 21.8392 24.2316 21.8392 24.0621C21.8392 23.1429 21.0912 22.3949 20.1721 22.3949H15.5613C15.0734 20.7478 13.5719 19.6164 11.8364 19.6164H7.11284V18.7828C7.11284 18.4755 6.86388 18.2271 6.55713 18.2271H1.55571C1.24896 18.2271 1 18.4755 1 18.7828V28.2299C1 28.5372 1.24896 28.7856 1.55571 28.7856H6.55713C6.86388 28.7856 7.11284 28.5372 7.11284 28.2299V27.413L16.0009 30.42C16.3371 30.5239 16.6872 30.5739 17.034 30.5739C17.7403 30.5739 18.4322 30.3655 18.9656 29.9754L28.0838 25.0262L28.2655 24.9029C28.9318 24.5689 29.2391 23.7353 28.9596 22.9912ZM6.00141 27.6742H2.11143V19.3385H6.00141V27.6742ZM27.9871 24.4227L18.6694 29.5058C17.9826 30.0049 17.0229 30.1521 16.1715 29.8904L7.11284 26.8262V20.1721H11.8364C13.3874 20.1721 14.72 21.2263 15.0779 22.7367C15.1073 22.8623 15.219 22.9507 15.3479 22.9507H20.1721C20.785 22.9507 21.2835 23.4491 21.2835 24.0621C21.2835 24.675 20.785 25.1735 20.1721 25.1735H14.8767C14.7233 25.1735 14.5988 25.298 14.5988 25.4514C14.5988 25.6047 14.7233 25.7292 14.8767 25.7292H20.1721C20.4222 25.7292 20.6567 25.6703 20.8701 25.5708C20.8778 25.5681 20.8862 25.5686 20.894 25.5653L27.2419 22.59C27.2747 22.5783 28.0638 22.3283 28.445 23.2002C28.6178 23.6603 28.4255 24.201 27.9871 24.4227Z" fill="white" stroke="white" stroke-width="0.511735"/>
<mask id="path-4-outside-1_1445_1068" maskUnits="userSpaceOnUse" x="15.0662" y="5.89486" width="7" height="8" fill="black">
<rect fill="white" x="15.0662" y="5.89486" width="7" height="8"/>
<path d="M20.2647 8.3474L20.067 9.02196H16.2988L16.4965 8.3474H20.2647ZM18.4969 12.8949L16.3686 10.2897L16.3569 9.80119H17.4153C17.6905 9.80119 17.9251 9.76242 18.1189 9.68489C18.3128 9.60541 18.461 9.48717 18.5638 9.33016C18.6665 9.17121 18.7179 8.97156 18.7179 8.7312C18.7179 8.37647 18.6113 8.09831 18.398 7.89672C18.1848 7.69319 17.8572 7.59142 17.4153 7.59142H16.2988L16.4965 6.94012H17.4153C17.8883 6.94012 18.2759 7.01863 18.5783 7.17564C18.8826 7.33071 19.1075 7.54393 19.2529 7.81531C19.4002 8.08474 19.4739 8.39004 19.4739 8.7312C19.4739 9.0394 19.406 9.32338 19.2703 9.58312C19.1366 9.84093 18.9214 10.0483 18.6248 10.2053C18.3302 10.3624 17.9406 10.4409 17.456 10.4409H17.4385L19.4041 12.8483V12.8949H18.4969ZM20.2647 6.94012L20.067 7.61468L17.1013 7.59142L17.299 6.94012H20.2647Z"/>
</mask>
<path d="M20.2647 8.3474L20.067 9.02196H16.2988L16.4965 8.3474H20.2647ZM18.4969 12.8949L16.3686 10.2897L16.3569 9.80119H17.4153C17.6905 9.80119 17.9251 9.76242 18.1189 9.68489C18.3128 9.60541 18.461 9.48717 18.5638 9.33016C18.6665 9.17121 18.7179 8.97156 18.7179 8.7312C18.7179 8.37647 18.6113 8.09831 18.398 7.89672C18.1848 7.69319 17.8572 7.59142 17.4153 7.59142H16.2988L16.4965 6.94012H17.4153C17.8883 6.94012 18.2759 7.01863 18.5783 7.17564C18.8826 7.33071 19.1075 7.54393 19.2529 7.81531C19.4002 8.08474 19.4739 8.39004 19.4739 8.7312C19.4739 9.0394 19.406 9.32338 19.2703 9.58312C19.1366 9.84093 18.9214 10.0483 18.6248 10.2053C18.3302 10.3624 17.9406 10.4409 17.456 10.4409H17.4385L19.4041 12.8483V12.8949H18.4969ZM20.2647 6.94012L20.067 7.61468L17.1013 7.59142L17.299 6.94012H20.2647Z" fill="white"/>
<path d="M20.2647 8.3474L20.9195 8.53931L21.1757 7.66508H20.2647V8.3474ZM20.067 9.02196V9.70427H20.578L20.7218 9.21387L20.067 9.02196ZM16.2988 9.02196L15.644 8.83004L15.3878 9.70427H16.2988V9.02196ZM16.4965 8.3474V7.66508H15.9855L15.8417 8.15548L16.4965 8.3474ZM18.4969 12.8949L17.9685 13.3265L18.1733 13.5772H18.4969V12.8949ZM16.3686 10.2897L15.6864 10.3059L15.692 10.54L15.8402 10.7213L16.3686 10.2897ZM16.3569 9.80119V9.11888H15.6582L15.6748 9.81743L16.3569 9.80119ZM18.1189 9.68489L18.3723 10.3184L18.3778 10.3162L18.1189 9.68489ZM18.5638 9.33016L19.1347 9.70375L19.1368 9.70054L18.5638 9.33016ZM18.398 7.89672L17.9269 8.39028L17.9293 8.39252L18.398 7.89672ZM16.2988 7.59142L15.6459 7.39322L15.3786 8.27374H16.2988V7.59142ZM16.4965 6.94012V6.25781H15.9906L15.8436 6.74192L16.4965 6.94012ZM18.5783 7.17564L18.2639 7.78121L18.2685 7.78358L18.5783 7.17564ZM19.2529 7.81531L18.6514 8.13752L18.6542 8.14264L19.2529 7.81531ZM19.2703 9.58312L18.6656 9.2672L18.6647 9.26891L19.2703 9.58312ZM18.6248 10.2053L18.3056 9.60232L18.304 9.60319L18.6248 10.2053ZM17.4385 10.4409V9.75855H16.0007L16.91 10.8724L17.4385 10.4409ZM19.4041 12.8483H20.0864V12.6052L19.9326 12.4168L19.4041 12.8483ZM19.4041 12.8949V13.5772H20.0864V12.8949H19.4041ZM20.2647 6.94012L20.9195 7.13204L21.1757 6.25781H20.2647V6.94012ZM20.067 7.61468L20.0617 8.29698L20.5769 8.30102L20.7218 7.8066L20.067 7.61468ZM17.1013 7.59142L16.4484 7.39322L16.1833 8.26656L17.0959 8.27372L17.1013 7.59142ZM17.299 6.94012V6.25781H16.793L16.6461 6.74192L17.299 6.94012ZM19.61 8.15548L19.4122 8.83004L20.7218 9.21387L20.9195 8.53931L19.61 8.15548ZM20.067 8.33964H16.2988V9.70427H20.067V8.33964ZM16.9535 9.21387L17.1513 8.53931L15.8417 8.15548L15.644 8.83004L16.9535 9.21387ZM16.4965 9.02971H20.2647V7.66508H16.4965V9.02971ZM19.0253 12.4632L16.8969 9.85798L15.8402 10.7213L17.9685 13.3265L19.0253 12.4632ZM17.0507 10.2734L17.039 9.78495L15.6748 9.81743L15.6864 10.3059L17.0507 10.2734ZM16.3569 10.4835H17.4153V9.11888H16.3569V10.4835ZM17.4153 10.4835C17.7512 10.4835 18.0767 10.4366 18.3723 10.3184L17.8655 9.05137C17.7735 9.0882 17.6299 9.11888 17.4153 9.11888V10.4835ZM18.3778 10.3162C18.6838 10.1907 18.9478 9.98951 19.1347 9.70375L17.9928 8.95657C17.9743 8.98483 17.9417 9.02011 17.8601 9.05357L18.3778 10.3162ZM19.1368 9.70054C19.3279 9.40495 19.4002 9.06772 19.4002 8.7312H18.0356C18.0356 8.8754 18.0052 8.93747 17.9907 8.95978L19.1368 9.70054ZM19.4002 8.7312C19.4002 8.23109 19.2443 7.75778 18.8668 7.40092L17.9293 8.39252C17.9783 8.43885 18.0356 8.52185 18.0356 8.7312H19.4002ZM18.8692 7.40316C18.4781 7.02987 17.9467 6.90911 17.4153 6.90911V8.27374C17.7678 8.27374 17.8916 8.35651 17.9269 8.39028L18.8692 7.40316ZM17.4153 6.90911H16.2988V8.27374H17.4153V6.90911ZM16.9517 7.78962L17.1494 7.13832L15.8436 6.74192L15.6459 7.39322L16.9517 7.78962ZM16.4965 7.62244H17.4153V6.25781H16.4965V7.62244ZM17.4153 7.62244C17.8189 7.62244 18.0889 7.69033 18.2639 7.78119L18.8927 6.57009C18.4629 6.34692 17.9576 6.25781 17.4153 6.25781V7.62244ZM18.2685 7.78358C18.4629 7.88263 18.579 8.00224 18.6514 8.13751L19.8543 7.4931C19.636 7.08563 19.3024 6.77879 18.8881 6.5677L18.2685 7.78358ZM18.6542 8.14264C18.7408 8.30093 18.7915 8.49149 18.7915 8.7312H20.1562C20.1562 8.28859 20.0596 7.86856 19.8515 7.48798L18.6542 8.14264ZM18.7915 8.7312C18.7915 8.93525 18.7477 9.11004 18.6656 9.2672L19.8751 9.89904C20.0644 9.53671 20.1562 9.14355 20.1562 8.7312H18.7915ZM18.6647 9.26891C18.6043 9.38521 18.4992 9.49983 18.3056 9.60232L18.9441 10.8084C19.3436 10.5968 19.6688 10.2966 19.876 9.89733L18.6647 9.26891ZM18.304 9.60319C18.1426 9.68917 17.8757 9.75855 17.456 9.75855V11.1232C18.0054 11.1232 18.5178 11.0355 18.9457 10.8075L18.304 9.60319ZM17.456 9.75855H17.4385V11.1232H17.456V9.75855ZM16.91 10.8724L18.8755 13.2799L19.9326 12.4168L17.9671 10.0093L16.91 10.8724ZM18.7218 12.8483V12.8949H20.0864V12.8483H18.7218ZM19.4041 12.2125H18.4969V13.5772H19.4041V12.2125ZM19.61 6.74821L19.4122 7.42277L20.7218 7.8066L20.9195 7.13204L19.61 6.74821ZM20.0724 6.93239L17.1066 6.90913L17.0959 8.27372L20.0617 8.29698L20.0724 6.93239ZM17.7542 7.78962L17.9519 7.13832L16.6461 6.74192L16.4484 7.39322L17.7542 7.78962ZM17.299 7.62244H20.2647V6.25781H17.299V7.62244Z" fill="white" mask="url(#path-4-outside-1_1445_1068)"/>
</svg>
