<svg width="24" height="24" viewBox="0 0 50 50" fill="none" xmlns="http://www.w3.org/2000/svg">
<path d="M43.75 20.8333C43.75 35.4167 25 47.9167 25 47.9167C25 47.9167 6.25 35.4167 6.25 20.8333C6.25 15.8605 8.22544 11.0914 11.7417 7.57508C15.2581 4.05877 20.0272 2.08333 25 2.08333C29.9728 2.08333 34.7419 4.05877 38.2582 7.57508C41.7746 11.0914 43.75 15.8605 43.75 20.8333Z" stroke="black" stroke-width="2" stroke-linecap="round" stroke-linejoin="round"/>
<path d="M25 27.0833C28.4518 27.0833 31.25 24.2851 31.25 20.8333C31.25 17.3816 28.4518 14.5833 25 14.5833C21.5482 14.5833 18.75 17.3816 18.75 20.8333C18.75 24.2851 21.5482 27.0833 25 27.0833Z" stroke="black" stroke-width="2" stroke-linecap="round" stroke-linejoin="round"/>
<path d="M25 25C25.9167 25 26.7017 24.6733 27.355 24.02C28.0072 23.3678 28.3333 22.5833 28.3333 21.6667C28.3333 20.75 28.0072 19.965 27.355 19.3117C26.7017 18.6594 25.9167 18.3333 25 18.3333C24.0833 18.3333 23.2989 18.6594 22.6467 19.3117C21.9933 19.965 21.6667 20.75 21.6667 21.6667C21.6667 22.5833 21.9933 23.3678 22.6467 24.02C23.2989 24.6733 24.0833 25 25 25ZM25 41.0417C24.7778 41.0417 24.5556 41 24.3333 40.9167C24.1111 40.8333 23.9167 40.7222 23.75 40.5833C19.6944 37 16.6667 33.6739 14.6667 30.605C12.6667 27.535 11.6667 24.6667 11.6667 22C11.6667 17.8333 13.0072 14.5139 15.6883 12.0417C18.3683 9.56944 21.4722 8.33333 25 8.33333C28.5278 8.33333 31.6317 9.56944 34.3117 12.0417C36.9928 14.5139 38.3333 17.8333 38.3333 22C38.3333 24.6667 37.3333 27.535 35.3333 30.605C33.3333 33.6739 30.3055 37 26.25 40.5833C26.0833 40.7222 25.8889 40.8333 25.6667 40.9167C25.4444 41 25.2222 41.0417 25 41.0417Z" fill="#EC3535"/>
</svg>
