<svg width="83" height="82" viewBox="0 0 83 82" fill="none" xmlns="http://www.w3.org/2000/svg">
<path d="M41.478 80.2323C63.2519 80.2323 80.9032 62.581 80.9032 40.8071C80.9032 19.0331 63.2519 1.38184 41.478 1.38184C19.704 1.38184 2.05273 19.0331 2.05273 40.8071C2.05273 62.581 19.704 80.2323 41.478 80.2323Z" stroke="#1B1811" stroke-width="2.54356"/>
<path d="M60.5527 30.4661C60.5617 29.6587 60.4106 28.8575 60.1079 28.1087C59.8052 27.3599 59.357 26.6783 58.7891 26.1032C57.6235 24.9527 56.057 24.297 54.4179 24.2735C53.6201 24.2701 52.8295 24.4238 52.0914 24.7259C51.3532 25.0279 50.682 25.4723 50.1162 26.0337L58.7891 34.7596C59.3647 34.2046 59.8186 33.5365 60.1222 32.7975C60.4257 32.0585 60.5723 31.2646 60.5527 30.4661Z" fill="#1B1811"/>
<path d="M56.818 36.7307L48.144 28.0732L28.0479 48.1311L36.7219 56.7885L56.818 36.7307Z" fill="#1B1811"/>
<path d="M26.9201 50.9463L24.9448 59.8835L33.8991 57.912L26.9201 50.9463Z" fill="#1B1811"/>
</svg>
