
<svg width="33" height="31" viewBox="0 0 33 31" fill="none" xmlns="http://www.w3.org/2000/svg">
<path d="M16.6767 3.74145H16.6777C16.9686 3.7443 17.2464 3.86252 17.4502 4.07015C17.6538 4.27767 17.7667 4.55752 17.7641 4.84824M16.6767 3.74145L17.6574 12.9424C17.6574 13.0712 17.6062 13.1947 17.5152 13.2857C17.4241 13.3768 17.3007 13.4279 17.1719 13.4279C17.0431 13.4279 16.9196 13.3768 16.8286 13.2857C16.7375 13.1947 16.6864 13.0712 16.6864 12.9424V4.84768M16.6767 3.74145H2.69553L4.66329 2.07774H18.7358C18.9135 2.07774 19.0839 2.14833 19.2096 2.27399C19.3353 2.39964 19.4058 2.57007 19.4058 2.74777V12.6C19.4058 12.7571 19.4682 12.9077 19.5793 13.0188C19.6904 13.1299 19.841 13.1923 19.9981 13.1923C20.1552 13.1923 20.3058 13.1299 20.4169 13.0188C20.528 12.9077 20.5903 12.7571 20.5903 12.6V2.74777C20.5903 2.25592 20.395 1.78421 20.0472 1.43642C19.6994 1.08863 19.2277 0.89324 18.7358 0.89324H4.44685C4.3069 0.893164 4.17149 0.942699 4.06462 1.03304L4.06453 1.03312L1.18072 3.47611L1.1804 3.47574L1.17328 3.48304C1.09734 3.56093 1.03749 3.65297 0.997109 3.75392C0.945316 3.84046 0.916819 3.939 0.914488 4.03995L0.914459 4.03995V4.04241L0.914459 20.8728L0.91446 20.8732C0.915087 21.0299 0.977761 21.1799 1.08876 21.2904C1.19976 21.401 1.35005 21.4631 1.50671 21.4631C1.66379 21.4631 1.81443 21.4007 1.9255 21.2896C2.03656 21.1785 2.09896 21.0279 2.09896 20.8708V4.92938M16.6767 3.74145L2.09896 4.92938M17.7641 4.84824C17.7641 4.84838 17.7641 4.84852 17.7641 4.84866L17.6574 4.84768H17.7641V4.84824ZM17.7641 4.84824V12.9424C17.7641 13.0995 17.7017 13.2501 17.5907 13.3612C17.4796 13.4723 17.329 13.5347 17.1719 13.5347C17.0148 13.5347 16.8642 13.4723 16.7531 13.3612C16.642 13.2501 16.5796 13.0995 16.5796 12.9424V4.95426M16.5796 4.95426L16.6862 4.95444L16.6864 4.84768M16.5796 4.95426L2.09896 4.92938M16.5796 4.95426V4.84768H16.6864M16.6864 4.84768L2.09896 4.92938M0.950237 25.0917L1.05289 25.0625L0.950237 25.0917C1.01212 25.3092 1.12258 25.5098 1.27331 25.6784C1.42403 25.847 1.61107 25.9792 1.82031 26.0649C2.0285 26.1502 2.25326 26.1874 2.4778 26.1736H9.19883C9.35591 26.1736 9.50655 26.1112 9.61762 26.0002C9.72869 25.8891 9.79108 25.7385 9.79108 25.5814C9.79108 25.4243 9.72869 25.2737 9.61762 25.1626C9.50655 25.0515 9.35591 24.9891 9.19883 24.9891H2.47446C2.38114 24.9891 2.3157 24.9888 2.26406 24.9803C2.21587 24.9724 2.19243 24.9591 2.17637 24.9417C2.15814 24.922 2.13704 24.8833 2.12175 24.8004C2.10654 24.718 2.09896 24.603 2.09896 24.4415V22.8846C2.09896 22.7276 2.03656 22.5769 1.9255 22.4659C1.81443 22.3548 1.66379 22.2924 1.50671 22.2924C1.34964 22.2924 1.19899 22.3548 1.08793 22.4659C0.976857 22.5769 0.914459 22.7276 0.914459 22.8846V24.4323C0.877021 24.652 0.889229 24.8773 0.950237 25.0917Z" fill="white" stroke="white" stroke-width="0.213521"/>
<path d="M24.7923 26.5336V22.4969C24.7923 22.3681 24.8434 22.2446 24.9345 22.1536C25.0255 22.0626 25.149 22.0114 25.2778 22.0114C25.3416 22.0113 25.4048 22.0238 25.4637 22.0482C25.5227 22.0725 25.5763 22.1083 25.6215 22.1534C25.6666 22.1985 25.7024 22.252 25.7269 22.311C25.7513 22.3699 25.7639 22.4331 25.7639 22.4969L24.7923 26.5336ZM24.7923 26.5336C24.7932 26.6283 24.7709 26.7219 24.7275 26.8061L24.7923 26.5336ZM18.5904 12.8757H18.5909L5.50014 3.37567L5.49992 3.48243L5.50003 3.48243C5.50006 3.48243 5.5001 3.48243 5.50014 3.48243L17.6352 3.50767C17.7323 3.50794 17.8253 3.54666 17.8939 3.61536C17.9625 3.68407 18.0011 3.77716 18.0013 3.87425V12.2835C18.0013 12.44 18.0632 12.5901 18.1736 12.7011C18.284 12.8121 18.4338 12.8749 18.5904 12.8757ZM25.8706 26.5349L25.8706 22.4969C25.8706 22.419 25.8553 22.342 25.8255 22.2701C25.7957 22.1982 25.752 22.1328 25.6969 22.0778C25.6418 22.0228 25.5764 21.9792 25.5045 21.9495C25.4325 21.9198 25.3555 21.9045 25.2776 21.9046C25.2777 21.9046 25.2777 21.9046 25.2778 21.9046L25.8706 26.5349Z" fill="white" stroke="white" stroke-width="0.213521"/>
<path d="M31.7947 17.7548L31.7947 17.7543L18.9508 13.464C18.9507 13.464 18.9507 13.4639 18.9506 13.4639C18.8308 13.4236 18.7011 13.4236 18.5812 13.4637C18.5809 13.4638 18.5807 13.4639 18.5804 13.464L4.11358 18.1022L4.1128 18.1025C3.99497 18.1412 3.89228 18.216 3.81917 18.3162C3.74607 18.4164 3.70623 18.537 3.70527 18.6611C3.70431 18.7851 3.74228 18.9063 3.81383 19.0076C3.88538 19.109 3.9869 19.1853 4.10411 19.2259L4.10487 19.2261L17.6339 23.7988C17.6948 23.8194 17.7587 23.83 17.823 23.8303L17.8236 23.8303C17.8914 23.8302 17.9587 23.8185 18.0225 23.7956L18.0225 23.7956L17.9866 23.6951L18.0226 23.7956L31.7947 17.7548ZM31.7947 17.7548C31.9111 17.7938 32.0125 17.8681 32.0848 17.9673C32.1574 18.0669 32.1971 18.1867 32.1984 18.31C32.1998 18.4332 32.1626 18.5538 32.0921 18.6549C32.0216 18.756 31.9213 18.8327 31.8052 18.8741L28.9949 19.8773M31.7947 17.7548L27.8104 20.3005M27.8104 20.3005V22.402M27.8104 20.3005L27.9171 20.2624M27.8104 20.3005V20.1872L27.9171 20.2624M27.8104 22.402C27.4853 22.5167 27.201 22.7256 26.9944 23.003C26.7718 23.3017 26.6509 23.664 26.6497 24.0365V24.0369V25.0156C26.6497 25.4779 26.8334 25.9213 27.1603 26.2482C27.4872 26.5752 27.9306 26.7588 28.3929 26.7588C28.8552 26.7588 29.2986 26.5752 29.6255 26.2482C29.9524 25.9213 30.1361 25.4779 30.1361 25.0156V24.0356V24.0353C30.1351 23.6662 30.0168 23.3069 29.7983 23.0094C29.5953 22.733 29.3156 22.5233 28.9949 22.4057M27.8104 22.402C27.8354 22.3932 27.8607 22.3849 27.8863 22.3772L27.9171 22.4794M27.8104 22.402V22.4794H27.9171M28.9949 22.4057V19.8773M28.9949 22.4057V22.482H28.8881L28.9203 22.3802C28.9454 22.3881 28.9702 22.3966 28.9949 22.4057ZM28.9949 19.8773L28.924 19.9026L28.8881 19.8021H28.9949V19.8773ZM27.9171 22.4794V20.2624M27.9171 22.4794C27.5824 22.5805 27.2889 22.7864 27.08 23.0668C26.871 23.3471 26.7576 23.6872 26.7565 24.0369V25.0156C26.7565 25.4496 26.9289 25.8659 27.2358 26.1728C27.5427 26.4796 27.9589 26.6521 28.3929 26.6521C28.8269 26.6521 29.2431 26.4796 29.55 26.1728C29.8569 25.8659 30.0293 25.4496 30.0293 25.0156V24.0356L27.9171 20.2624M4.13905 19.125C4.04295 19.0917 3.9597 19.0291 3.90104 18.946C3.84237 18.863 3.81124 18.7636 3.81203 18.6619C3.81281 18.5602 3.84548 18.4613 3.90542 18.3791C3.96536 18.297 4.04956 18.2357 4.14617 18.2039L4.13905 19.125ZM4.13905 19.125L17.6681 23.6977M4.13905 19.125L17.6681 23.6977M17.6681 23.6977C17.7181 23.7146 17.7706 23.7233 17.8234 23.7236L17.6681 23.6977ZM27.8741 23.8218L27.7755 23.7809L27.8741 23.8218C27.9022 23.754 27.9434 23.6924 27.9953 23.6405C28.0471 23.5887 28.1087 23.5475 28.1765 23.5194C28.2443 23.4913 28.3169 23.4769 28.3903 23.4769C28.4637 23.4769 28.5363 23.4913 28.6041 23.5194C28.6719 23.5475 28.7335 23.5887 28.7854 23.6405C28.8372 23.6924 28.8784 23.754 28.9065 23.8218C28.9345 23.8896 28.949 23.9622 28.949 24.0356V25.0156C28.949 25.1638 28.8901 25.3059 28.7854 25.4107C28.6806 25.5154 28.5385 25.5743 28.3903 25.5743C28.2421 25.5743 28.1 25.5154 27.9953 25.4107C27.8905 25.3059 27.8316 25.1638 27.8316 25.0156V24.0356C27.8316 23.9622 27.8461 23.8896 27.8741 23.8218ZM18.7588 14.6478L29.7939 18.3342L28.3205 18.8609L18.0452 17.7522C17.9673 17.7421 17.8882 17.7476 17.8124 17.7683C17.7362 17.7892 17.665 17.8251 17.6029 17.874C17.5409 17.9228 17.4892 17.9835 17.4509 18.0526C17.4126 18.1217 17.3886 18.1978 17.3802 18.2763C17.3717 18.3549 17.3791 18.4343 17.4018 18.5099C17.4246 18.5856 17.4622 18.6559 17.5125 18.7168C17.5628 18.7777 17.6248 18.8279 17.6948 18.8644C17.7644 18.9008 17.8405 18.923 17.9187 18.9296L25.7588 19.7754L17.8173 22.6124L6.18789 18.681L18.7588 14.6478Z" fill="white" stroke="white" stroke-width="0.213521"/>
</svg>
