<svg xmlns="http://www.w3.org/2000/svg" width="241.702" height="201.77" viewBox="0 0 241.702 201.77">
  <g id="undraw_empty_cart_co35" transform="translate(0 0)">
    <path id="Path_9523" data-name="Path 9523" d="M187.966,751.857c3.353,6.218,10.468,8.887,10.468,8.887s1.68-7.412-1.673-13.629-10.468-8.887-10.468-8.887S184.614,745.639,187.966,751.857Z" transform="translate(-176.735 -559.591)" fill="#ccc"/>
    <path id="Path_9524" data-name="Path 9524" d="M165.536,774.268c6.053,3.642,8.384,10.875,8.384,10.875s-7.483,1.329-13.535-2.313S152,771.956,152,771.956,159.482,770.627,165.536,774.268Z" transform="translate(-152 -584.048)" fill="#5c98e9"/>
    <rect id="Rectangle_2209" data-name="Rectangle 2209" width="37.766" height="0.54" transform="translate(111.477 9.686)" fill="#f2f2f2"/>
    <rect id="Rectangle_2210" data-name="Rectangle 2210" width="0.54" height="4.991" transform="translate(138.452 10.091)" fill="#f2f2f2"/>
    <rect id="Rectangle_2211" data-name="Rectangle 2211" width="0.54" height="4.991" transform="translate(121.997 10.091)" fill="#f2f2f2"/>
    <rect id="Rectangle_2212" data-name="Rectangle 2212" width="37.766" height="0.54" transform="translate(130.63 35.583)" fill="#f2f2f2"/>
    <rect id="Rectangle_2213" data-name="Rectangle 2213" width="0.54" height="4.991" transform="translate(140.88 30.727)" fill="#f2f2f2"/>
    <rect id="Rectangle_2214" data-name="Rectangle 2214" width="0.54" height="4.991" transform="translate(157.335 30.727)" fill="#f2f2f2"/>
    <rect id="Rectangle_2215" data-name="Rectangle 2215" width="37.766" height="0.54" transform="translate(180.804 47.722)" fill="#f2f2f2"/>
    <rect id="Rectangle_2216" data-name="Rectangle 2216" width="0.54" height="4.991" transform="translate(191.055 42.867)" fill="#f2f2f2"/>
    <rect id="Rectangle_2217" data-name="Rectangle 2217" width="0.54" height="4.991" transform="translate(207.51 42.867)" fill="#f2f2f2"/>
    <rect id="Rectangle_2218" data-name="Rectangle 2218" width="37.766" height="0.54" transform="translate(177.027 172.889)" fill="#f2f2f2"/>
    <rect id="Rectangle_2219" data-name="Rectangle 2219" width="0.54" height="4.991" transform="translate(187.278 168.034)" fill="#f2f2f2"/>
    <rect id="Rectangle_2220" data-name="Rectangle 2220" width="0.54" height="4.991" transform="translate(203.733 168.034)" fill="#f2f2f2"/>
    <rect id="Rectangle_2221" data-name="Rectangle 2221" width="37.766" height="0.54" transform="translate(112.556 86.297)" fill="#f2f2f2"/>
    <rect id="Rectangle_2222" data-name="Rectangle 2222" width="0.54" height="4.991" transform="translate(122.807 81.442)" fill="#f2f2f2"/>
    <rect id="Rectangle_2223" data-name="Rectangle 2223" width="0.54" height="4.991" transform="translate(139.261 81.442)" fill="#f2f2f2"/>
    <rect id="Rectangle_2224" data-name="Rectangle 2224" width="37.766" height="0.54" transform="translate(124.425 151.309)" fill="#f2f2f2"/>
    <rect id="Rectangle_2225" data-name="Rectangle 2225" width="0.54" height="4.991" transform="translate(134.676 146.453)" fill="#f2f2f2"/>
    <rect id="Rectangle_2226" data-name="Rectangle 2226" width="0.54" height="4.991" transform="translate(151.131 146.453)" fill="#f2f2f2"/>
    <rect id="Rectangle_2227" data-name="Rectangle 2227" width="37.766" height="0.54" transform="translate(184.85 131.617)" fill="#f2f2f2"/>
    <rect id="Rectangle_2228" data-name="Rectangle 2228" width="0.54" height="4.991" transform="translate(195.101 126.761)" fill="#f2f2f2"/>
    <rect id="Rectangle_2229" data-name="Rectangle 2229" width="0.54" height="4.991" transform="translate(211.556 126.761)" fill="#f2f2f2"/>
    <path id="Path_9525" data-name="Path 9525" d="M189.149,624.167H125.274v-.459h63.415V601.42H130.644l-2.82-5.875.414-.2,2.695,5.614h58.216Z" transform="translate(-91.48 -434.748)" fill="#2f2e41"/>
    <circle id="Ellipse_140" data-name="Ellipse 140" cx="4.825" cy="4.825" r="4.825" transform="translate(37.47 191.027)" fill="#3f3d56"/>
    <circle id="Ellipse_141" data-name="Ellipse 141" cx="4.825" cy="4.825" r="4.825" transform="translate(85.031 191.027)" fill="#3f3d56"/>
    <circle id="Ellipse_142" data-name="Ellipse 142" cx="2.987" cy="2.987" r="2.987" transform="translate(142.932 90.39)" fill="#3f3d56"/>
    <path id="Path_9526" data-name="Path 9526" d="M302.978,528.309h-71.8l-15.535-50.778H318.977l-.094.3Zm-71.455-.46h71.118L318.35,477.99H216.269Z" transform="translate(-198.478 -369.219)" fill="#2f2e41"/>
    <path id="Path_9527" data-name="Path 9527" d="M158.965,458.049H95.9L82.26,413.015h90.757l-.083.265Z" transform="translate(-60.07 -301.601)" fill="#f2f2f2"/>
    <path id="Path_9528" data-name="Path 9528" d="M450.262,353.441l-.444-.118,3.032-11.429h17.639v.46H453.2Z" transform="translate(-328.476 -249.666)" fill="#2f2e41"/>
    <rect id="Rectangle_2230" data-name="Rectangle 2230" width="93.145" height="0.46" transform="translate(22.19 123.706)" fill="#2f2e41"/>
    <rect id="Rectangle_2231" data-name="Rectangle 2231" width="82.632" height="0.46" transform="translate(27.369 140.636)" fill="#2f2e41"/>
    <rect id="Rectangle_2232" data-name="Rectangle 2232" width="0.46" height="50.319" transform="translate(68.603 108.542)" fill="#2f2e41"/>
    <rect id="Rectangle_2233" data-name="Rectangle 2233" width="50.425" height="0.46" transform="matrix(0.065, -0.998, 0.998, 0.065, 86.338, 158.845)" fill="#2f2e41"/>
    <rect id="Rectangle_2234" data-name="Rectangle 2234" width="0.46" height="50.425" transform="translate(47.58 108.556) rotate(-3.729)" fill="#2f2e41"/>
    <rect id="Rectangle_2235" data-name="Rectangle 2235" width="241.702" height="0.54" transform="translate(0 200.969)" fill="#2f2e41"/>
    <path id="Path_9529" data-name="Path 9529" d="M747.411,135.813s3.943,11.224,1.517,12.95,8.19,15.828,8.19,15.828l12.74-3.453-6.977-11.8s-.91-11.8-.91-13.526S747.411,135.813,747.411,135.813Z" transform="translate(-586.795 -119.121)" fill="#f3a5a5"/>
    <path id="Path_9531" data-name="Path 9531" d="M721.489,411.488s-1.151,14.389,0,21.872,2.878,28.2,2.878,28.2,0,39.139,6.331,39.714,10.936,1.151,11.511-1.151-2.878-3.453-1.151-4.6,2.3-5.18,0-9.785,0-51.225,0-51.225l10.936,29.354s1.151,24.174,2.3,27.627-1.151,9.785,2.878,10.36,8.633-2.878,10.936-4.029-3.453-1.151-2.3-1.727,4.6-2.3,3.453-2.878-2.3-28.2-2.3-28.2-3.166-59-7.195-61.3-6.619,1.663-6.619,1.663Z" transform="translate(-567.492 -314.793)" fill="#2f2e41"/>
    <path id="Path_9532" data-name="Path 9532" d="M755.047,758.784v4.6s-5.18,12.517,0,12.517,9.209,1.3,9.209-.43v-15.54Z" transform="translate(-590.689 -574.602)" fill="#2f2e41"/>
    <path id="Path_9533" data-name="Path 9533" d="M862.235,758.754v4.6s5.18,12.517,0,12.517-9.209,1.3-9.209-.43v-15.54Z" transform="translate(-663.92 -574.58)" fill="#2f2e41"/>
    <circle id="Ellipse_143" data-name="Ellipse 143" cx="10.36" cy="10.36" r="10.36" transform="translate(158.314 4.317)" fill="#ffb8b8"/>
    <path id="Path_9534" data-name="Path 9534" d="M762.431,201.9s2.878,8.633,7.482,6.907l4.6-1.727,8.058,55.255s-6.331,9.209-15.54,3.453S762.431,201.9,762.431,201.9Z" transform="translate(-596.922 -167.941)" fill="#ccc"/>
    <path id="Path_9535" data-name="Path 9535" d="M795.418,180.7l2.59-5.468s15.253,7.195,17.555,9.5a8.989,8.989,0,0,1,2.3,5.756l-4.029,14.389s1.151,31.656,1.151,32.807,4.029,7.482,1.151,5.18-3.453-4.6-5.756-1.151-7.482,7.482-7.482,7.482Z" transform="translate(-621.851 -148.465)" fill="#5c98e9"/>
    <path id="Path_9536" data-name="Path 9536" d="M842.7,349.122l-1.727,16.116s-10.36,9.209-8.058,9.785,3.453-1.727,3.453-1.727,4.029,4.029,6.331,1.727,8.058-24.174,8.058-24.174Z" transform="translate(-648.993 -275.449)" fill="#ffb8b8"/>
    <path id="Path_9537" data-name="Path 9537" d="M745.563,76.049c-2.3-.082-4.755-.123-6.691,1.115a9.8,9.8,0,0,0-2.312,2.264c-1.886,2.384-3.516,5.384-2.815,8.342l.814-.317a5.328,5.328,0,0,1-.514,2.283c.115-.333.5.206.4.543l-.9,2.941a2.768,2.768,0,0,1,3.531,2.107c.1-3.415.457-7.332,3.227-9.332a11.164,11.164,0,0,1,4.867-1.59,9.79,9.79,0,0,1,4.718.024c1.5.517,2.784,2.054,2.443,3.607a1.607,1.607,0,0,1,1.811.893,4.689,4.689,0,0,1,.371,2.146c.739.522,1.58-.515,1.881-1.368a12.349,12.349,0,0,0,.954-6.224c-.381-2.089-2.083-4.086-4.207-4.093a1.474,1.474,0,0,0,.383-1.038l-1.75-.148a1.935,1.935,0,0,0,1.156-.61C752.225,78.366,746.7,76.09,745.563,76.049Z" transform="translate(-576.668 -76.014)" fill="#2f2e41"/>
    <path id="Path_9538" data-name="Path 9538" d="M712.286,177.4s-4.685-4.591-6.372-4.31-3.989,4.31-3.989,4.31-13.814,4.6-13.238,9.209,6.907,27.052,6.907,27.052,5.18,27.052.576,29.929,21.872,10.36,22.447,6.907,1.727-37.987,0-43.168S712.286,177.4,712.286,177.4Z" transform="translate(-543.899 -146.891)" fill="#5c98e9"/>
    <path id="Path_9539" data-name="Path 9539" d="M850.893,223.236h7.117s4.97,21.872,5.545,24.174,1.727,13.238,1.151,13.238-12.087-2.3-12.087-.576Z" transform="translate(-662.362 -183.522)" fill="#5c98e9"/>
    <path id="Path_9540" data-name="Path 9540" d="M770.62,328.352H743.374c-2.659-12.231-2.881-24.048,0-35.338H770.62C766.223,304.1,765.948,315.837,770.62,328.352Z" transform="translate(-582.329 -234.477)" fill="#f2f2f2"/>
    <path id="Path_9541" data-name="Path 9541" d="M707.938,354.493,716,357.946s15.54,2.3,15.54-4.029S716,351.039,716,351.039l-5.18-1.656Z" transform="translate(-557.97 -275.64)" fill="#ffb8b8"/>
    <path id="Path_9542" data-name="Path 9542" d="M680.228,210.435l-6.907,1.727-5.18,30.5s-1.727,8.058,1.151,8.634,10.936,5.18,10.936,5.18,1.151-8.634,3.453-8.634l-5.756-4.6,3.453-20.145Z" transform="translate(-528.533 -174.174)" fill="#5c98e9"/>
    <rect id="Rectangle_2236" data-name="Rectangle 2236" width="37.766" height="0.54" transform="translate(16.252 95.199)" fill="#f2f2f2"/>
    <rect id="Rectangle_2237" data-name="Rectangle 2237" width="0.54" height="4.991" transform="translate(26.503 90.344)" fill="#f2f2f2"/>
    <rect id="Rectangle_2238" data-name="Rectangle 2238" width="0.54" height="4.991" transform="translate(42.959 90.344)" fill="#f2f2f2"/>
    <rect id="Rectangle_2239" data-name="Rectangle 2239" width="37.766" height="0.54" transform="translate(29.47 15.351)" fill="#f2f2f2"/>
    <rect id="Rectangle_2240" data-name="Rectangle 2240" width="0.54" height="4.991" transform="translate(56.446 15.756)" fill="#f2f2f2"/>
    <rect id="Rectangle_2241" data-name="Rectangle 2241" width="0.54" height="4.991" transform="translate(39.991 15.756)" fill="#f2f2f2"/>
    <rect id="Rectangle_2242" data-name="Rectangle 2242" width="37.766" height="0.54" transform="translate(67.506 68.493)" fill="#f2f2f2"/>
    <rect id="Rectangle_2243" data-name="Rectangle 2243" width="0.54" height="4.991" transform="translate(94.482 68.898)" fill="#f2f2f2"/>
    <rect id="Rectangle_2244" data-name="Rectangle 2244" width="0.54" height="4.991" transform="translate(78.027 68.898)" fill="#f2f2f2"/>
    <rect id="Rectangle_2245" data-name="Rectangle 2245" width="37.766" height="0.54" transform="translate(3.304 68.224)" fill="#f2f2f2"/>
    <rect id="Rectangle_2246" data-name="Rectangle 2246" width="0.54" height="4.991" transform="translate(30.28 68.628)" fill="#f2f2f2"/>
    <rect id="Rectangle_2247" data-name="Rectangle 2247" width="0.54" height="4.991" transform="translate(13.825 68.628)" fill="#f2f2f2"/>
    <rect id="Rectangle_2248" data-name="Rectangle 2248" width="37.766" height="0.54" transform="translate(48.623 41.248)" fill="#f2f2f2"/>
    <rect id="Rectangle_2249" data-name="Rectangle 2249" width="0.54" height="4.991" transform="translate(58.874 36.392)" fill="#f2f2f2"/>
    <rect id="Rectangle_2250" data-name="Rectangle 2250" width="0.54" height="4.991" transform="translate(75.329 36.392)" fill="#f2f2f2"/>
  </g>
</svg>
