
<svg width="22" height="22" viewBox="0 0 22 22" fill="currentColor" xmlns="http://www.w3.org/2000/svg">
<path d="M7.69134 3.69783L8.71709 4.53292L8.31192 5.75117C8.18542 6.15267 8.3275 6.59175 8.66484 6.84475C8.83809 6.974 9.04434 7.04183 9.25975 7.04183C9.45684 7.04183 9.6475 6.98408 9.8125 6.87408L11.0088 6.07292L12.2279 6.86767C12.5808 7.09683 13.0419 7.07758 13.3756 6.82183C13.7093 6.56425 13.8449 6.12242 13.7093 5.71542L13.2922 4.52742L14.3133 3.69508C14.6314 3.42742 14.7497 2.98558 14.6067 2.59508C14.4637 2.20458 14.0897 1.94242 13.6735 1.94242H12.392L11.9309 0.648083C11.7879 0.260333 11.4139 0 11.0005 0C10.5871 0 10.2131 0.260333 10.0673 0.652667L9.60809 1.9415H8.32658C7.91133 1.9415 7.53734 2.20275 7.39434 2.5905C7.25042 2.97917 7.36684 3.42283 7.69134 3.69783ZM8.32658 2.85817H9.93075C10.1242 2.85817 10.2974 2.73625 10.3625 2.55383L10.9308 0.960667H11.0683L11.6367 2.55383C11.7018 2.73625 11.875 2.85817 12.0684 2.85817H13.6726L13.7276 2.98833L12.4626 4.01958C12.3132 4.1415 12.2554 4.34408 12.3196 4.5265L12.843 6.01883L12.7266 6.0995L11.2544 5.14067C11.1004 5.03983 10.9024 5.04258 10.7493 5.14342L9.30192 6.11233C9.28542 6.12333 9.26984 6.12517 9.25884 6.12517L9.18367 6.03258L9.68692 4.521C9.7465 4.34042 9.68875 4.14058 9.54117 4.02142L8.26975 2.98742L8.32658 2.85817ZM21.94 5.24517C21.797 4.85467 21.423 4.5925 21.0068 4.5925H19.7253L19.2643 3.29817C19.1213 2.91042 18.7473 2.65008 18.3338 2.65008C17.9204 2.65008 17.5464 2.91042 17.4007 3.30275L16.9414 4.59158H15.6599C15.2447 4.59158 14.8698 4.85375 14.7286 5.24058C14.5847 5.63017 14.7002 6.072 15.0247 6.347L16.0504 7.18208L15.6453 8.40033C15.5188 8.80183 15.6608 9.24092 15.9973 9.493C16.1696 9.62317 16.3758 9.691 16.5931 9.691C16.7902 9.691 16.9808 9.63325 17.1458 9.52325L18.3421 8.72208L19.5613 9.51683C19.9133 9.746 20.3753 9.72675 20.7089 9.471C21.0426 9.21342 21.1783 8.77158 21.0426 8.36458L20.6255 7.17658L21.6467 6.34425C21.9648 6.07658 22.083 5.63567 21.94 5.24517ZM19.7968 6.66967C19.6474 6.79158 19.5897 6.99417 19.6538 7.17658L20.1773 8.66892L20.0608 8.74958L18.5887 7.79075C18.4347 7.69083 18.2358 7.69267 18.0836 7.7935L16.6362 8.76242C16.6197 8.77342 16.6041 8.77525 16.5931 8.77525L16.5179 8.68267L17.0212 7.17108C17.0808 6.9905 17.023 6.79067 16.8754 6.6715L15.604 5.6375L15.6608 5.50917H17.265C17.4584 5.50917 17.6317 5.38725 17.6968 5.20483L18.2651 3.61167H18.4026L18.9709 5.20483C19.036 5.38725 19.2093 5.50917 19.4027 5.50917H21.0068L21.0618 5.63933L19.7968 6.66967ZM4.89367 9.51775C5.24659 9.74692 5.70767 9.72767 6.04134 9.47192C6.375 9.21433 6.51067 8.7725 6.375 8.3655L5.95792 7.1775L6.97909 6.34517C7.29717 6.0775 7.41542 5.63567 7.27242 5.24517C7.12942 4.85467 6.75542 4.5925 6.33925 4.5925H5.05775L4.59667 3.29817C4.45367 2.91042 4.07967 2.65008 3.66625 2.65008C3.25284 2.65008 2.87884 2.91042 2.73309 3.30275L2.27384 4.59158H0.992336C0.577086 4.59158 0.202169 4.85375 0.0610026 5.24058C-0.0829141 5.63017 0.0325859 6.072 0.357086 6.347L1.38284 7.18208L0.977669 8.40033C0.851169 8.80183 0.993252 9.24092 1.32967 9.493C1.502 9.62317 1.70825 9.691 1.9255 9.691C2.12259 9.691 2.31325 9.63325 2.47825 9.52325L3.6745 8.72208L4.89367 9.51683V9.51775ZM3.416 7.7935L1.96859 8.76242C1.95209 8.77342 1.9365 8.77525 1.9255 8.77525L1.85034 8.68267L2.35359 7.17108C2.41317 6.9905 2.35542 6.79067 2.20784 6.6715L0.936419 5.6375L0.993252 5.50917H2.59742C2.79084 5.50917 2.96409 5.38725 3.02917 5.20483L3.5975 3.61167H3.735L4.30334 5.20483C4.36842 5.38725 4.54167 5.50917 4.73509 5.50917H6.33925L6.39425 5.63933L5.12925 6.67058C4.97984 6.7925 4.92209 6.99508 4.98625 7.1775L5.50967 8.66983L5.39325 8.7505L3.92109 7.79167C3.768 7.69175 3.56909 7.69358 3.416 7.79442V7.7935ZM15.5829 12.8333H11.7485L12.2866 9.78083C12.3006 9.47039 12.3006 9.30753 12.2866 9.29225C12.1757 8.88525 11.9181 8.56442 11.5615 8.38933C11.2003 8.21333 10.7842 8.206 10.3873 8.371C10.1544 8.46725 9.92709 8.70742 9.76484 9.02367L7.75184 12.8324H6.41717C4.901 12.8324 3.66717 14.0663 3.66717 15.5824V19.2491C3.66717 20.7653 4.901 21.9991 6.41717 21.9991H14.0979C15.8396 21.9991 17.3521 20.7588 17.694 19.0511L18.2798 16.1214C18.442 15.3102 18.2339 14.4788 17.7096 13.8389C17.1853 13.1991 16.4107 12.8324 15.5829 12.8324V12.8333ZM4.58384 19.25V15.5833C4.58384 14.5723 5.40609 13.75 6.41717 13.75H7.33384V21.0833H6.41717C5.40609 21.0833 4.58384 20.2611 4.58384 19.25ZM17.3805 15.9427L16.7948 18.8723C16.5381 20.1529 15.4042 21.0833 14.0979 21.0833H8.2505V13.6024C8.37975 13.519 8.48792 13.4026 8.56217 13.2614L10.5788 9.44717C10.665 9.2785 10.7457 9.21708 10.7411 9.21708C10.8905 9.15475 11.0381 9.15383 11.1582 9.2125C11.2498 9.25742 11.3223 9.33625 11.3846 9.47925L10.8474 12.6729C10.7998 12.9406 10.8722 13.2128 11.0473 13.4227C11.2223 13.6308 11.4781 13.75 11.7494 13.75H15.5838C16.1357 13.75 16.6518 13.9948 17.001 14.421C17.3512 14.8473 17.4887 15.4018 17.3805 15.9427Z" />
</svg>
