<svg id="Group_13404" data-name="Group 13404" xmlns="http://www.w3.org/2000/svg" width="24" height="24" viewBox="0 0 24 24" fill="#000">
  <path id="Path_6265" data-name="Path 6265" d="M0,0H24V24H0Z" fill="none"/>
  <path id="Path_6266" data-name="Path 6266" d="M4,18H9.5v1.25a2.75,2.75,0,0,1-5.5,0Zm4.058-4,.045-.132A11.021,11.021,0,0,0,9,11a5.344,5.344,0,0,0-.528-2.273C8.23,8.257,8.06,8.12,8,8.12A2.834,2.834,0,0,0,5.5,11a17.118,17.118,0,0,0,.227,2.758L5.765,14H8.058ZM8,6.12c2,0,3,2.88,3,4.88a12.719,12.719,0,0,1-1,3.5L9.5,16H4c0-1-.5-2.5-.5-5A4.818,4.818,0,0,1,8,6.12ZM20.054,14.1l-.217,1.231a2.75,2.75,0,0,1-5.417-.955l.218-1.23ZM19,9.852c.165-.5.3-.9.3-.9a16.392,16.392,0,0,0,.485-2.008,2.835,2.835,0,0,0-1.962-3.27c-.059-.01-.25.1-.57.515a5.364,5.364,0,0,0-.915,2.147c-.058.33-.049.405.27,2.263.045.256.082.486.116.717l.02.138,2.254.4ZM18.178,1.7a4.816,4.816,0,0,1,3.584,5.586c-.434,2.463-1.187,3.853-1.36,4.838l-5.417-.955L14.753,9.61a12.74,12.74,0,0,1-.377-3.62C14.723,4.02,16.208,1.358,18.178,1.7Z" transform="translate(0 0)"/>
</svg>
