<svg width="65" height="60" viewBox="0 0 65 60" fill="none" xmlns="http://www.w3.org/2000/svg">
<path d="M15.8338 13.022L12.7558 10.3818C11.8092 11.4849 10.9454 12.6565 10.1714 13.8869L13.6182 16.0413C14.2799 14.9807 15.0206 13.9715 15.8338 13.022Z" fill="#474747"/>
<path d="M21.4911 8.11739L19.3086 4.69629C18.0808 5.47598 16.9125 6.34573 15.8135 7.29836L18.4692 10.3506C19.4202 9.53286 20.4302 8.78642 21.4911 8.11739Z" fill="#474747"/>
<path d="M61.3793 16.3411C57.9834 9.58682 52.12 4.39688 45.0031 1.84577C37.8861 -0.70534 30.0606 -0.422257 23.1467 2.63641L24.7925 6.34239C29.3289 4.32429 34.3579 3.68219 39.2559 4.49573C44.1539 5.30928 48.7053 7.54268 52.3455 10.9189C55.9858 14.2951 58.5547 18.6657 59.7338 23.4884C60.9128 28.3111 60.6501 33.3738 58.9781 38.0485C57.3062 42.7233 54.2985 46.8044 50.3283 49.7857C46.3581 52.767 41.6 54.5173 36.6441 54.8195C31.6882 55.1217 26.7526 53.9626 22.4495 51.4858C18.1464 49.0089 14.6651 45.3235 12.4375 40.8865L8.81006 42.7001C10.5161 46.1932 12.8979 49.3133 15.8176 51.88C18.7373 54.4466 22.1371 56.4089 25.8201 57.6533C29.5032 58.8977 33.3965 59.3995 37.2748 59.1296C41.153 58.8597 44.9393 57.8235 48.4144 56.081C51.8896 54.3385 54.9848 51.9243 57.5208 48.9779C60.0569 46.0316 61.9834 42.6117 63.1891 38.916C64.3948 35.2203 64.8557 31.3223 64.545 27.4473C64.2344 23.5724 63.1584 19.7976 61.3793 16.3411Z" fill="#474747"/>
<path d="M12.3513 24.0346L9.93224 26.4484C10.1646 24.4477 10.6413 22.483 11.3517 20.5982C11.5068 20.1836 11.6773 19.7716 11.8604 19.3621L8.14143 17.7393C7.93793 18.2073 7.73698 18.6829 7.56654 19.1586C6.63293 21.6096 6.0398 24.1771 5.80372 26.7893L3.05901 24.0422L0.18457 26.9012L7.70136 34.4174L15.2182 26.9012L12.3513 24.0346Z" fill="#474747"/>
<path d="M32.0376 11.2734V31.5507H44.2171V27.4963H36.1051V11.2734H32.0376Z" fill="#474747"/>
<path d="M52.316 27.4961H48.2612V31.5505H52.316V27.4961Z" fill="#474747"/>
<path d="M36.0923 43.7168H32.0376V47.7712H36.0923V43.7168Z" fill="#474747"/>
</svg>
