<svg xmlns="http://www.w3.org/2000/svg" width="10.663" height="10.663" viewBox="0 0 10.663 10.663">
  <path id="history_FILL0_wght400_GRAD0_opsz48" d="M11.287,16.663A5.064,5.064,0,0,1,7.54,15.1,5.191,5.191,0,0,1,6,11.317h.889a4.348,4.348,0,0,0,1.274,3.154,4.2,4.2,0,0,0,3.125,1.3,4.307,4.307,0,0,0,3.184-1.318,4.381,4.381,0,0,0,1.3-3.2,4.136,4.136,0,0,0-1.318-3.1,4.411,4.411,0,0,0-3.169-1.266A4.027,4.027,0,0,0,9.4,7.348,5.15,5.15,0,0,0,7.866,8.562H9.421v.889h-3.1V6.37h.889V7.94A5.636,5.636,0,0,1,9.043,6.518,5.038,5.038,0,0,1,11.287,6a5.291,5.291,0,0,1,2.088.415,5.472,5.472,0,0,1,1.711,1.133,5.319,5.319,0,0,1,1.155,1.681,5.106,5.106,0,0,1,.422,2.073,5.211,5.211,0,0,1-.422,2.088,5.36,5.36,0,0,1-1.155,1.7,5.513,5.513,0,0,1-1.711,1.148A5.211,5.211,0,0,1,11.287,16.663Zm1.9-2.918L10.9,11.494V8.325h.889v2.8l2.029,1.985Z" transform="translate(-6 -6)" fill="#000"/>
</svg>
