
<svg width="24" height="31" viewBox="0 0 24 31" fill="none" xmlns="http://www.w3.org/2000/svg">
<path d="M10.151 26.2881L9.95037 26.2641L10.133 24.7186C10.1874 24.2598 10.1408 23.7947 9.99639 23.3559C9.85198 22.9171 9.61329 22.5151 9.29708 22.1783L3.902 16.4206L4.63185 12.7468C4.67201 12.5446 4.67106 12.3363 4.62907 12.1344C4.58707 11.9325 4.50489 11.7412 4.38741 11.5717C4.26993 11.4023 4.11955 11.2582 3.94524 11.1481C3.77092 11.0379 3.57622 10.964 3.37274 10.9306C3.2901 10.9172 3.20652 10.9104 3.12279 10.9103C2.79536 10.9094 2.47627 11.0135 2.21239 11.2074C1.9485 11.4012 1.75374 11.6746 1.65669 11.9873L0.186239 16.676C-0.0800808 17.5285 -0.060306 18.4447 0.242548 19.2849L1.3192 22.2595C1.57754 22.9729 2.02973 23.6001 2.62495 24.0707L3.29607 24.6012C3.43808 24.7141 3.55618 24.8542 3.64347 25.0132C3.73076 25.1723 3.7855 25.3472 3.80448 25.5276C3.46276 25.4962 3.12223 25.5992 2.85518 25.8147C2.58812 26.0302 2.41555 26.3413 2.37409 26.6819L2.27924 27.4727L2.27911 27.4731V27.4735L2.04034 29.4634C2.02664 29.5824 2.06063 29.702 2.13487 29.796C2.20911 29.8901 2.31757 29.9509 2.43652 29.9651C2.55547 29.9794 2.67523 29.946 2.76961 29.8722C2.86399 29.7984 2.9253 29.6903 2.94015 29.5714L3.12418 28.0374L10.2484 28.9434L10.0704 30.4268C10.0626 30.4863 10.0666 30.5467 10.0823 30.6046C10.0979 30.6624 10.1249 30.7166 10.1617 30.764C10.1984 30.8113 10.2442 30.8509 10.2964 30.8805C10.3486 30.91 10.4061 30.9289 10.4656 30.9361C10.5252 30.9432 10.5855 30.9385 10.6432 30.9221C10.7009 30.9058 10.7548 30.8781 10.8017 30.8408C10.8486 30.8035 10.8877 30.7572 10.9166 30.7047C10.9455 30.6522 10.9637 30.5945 10.9702 30.5349L11.2012 28.6092L11.2014 28.6078L11.2016 28.606L11.3039 27.7535C11.3244 27.5815 11.3109 27.4073 11.2641 27.2406C11.2172 27.0739 11.138 26.9181 11.031 26.782C10.9239 26.6459 10.7911 26.5323 10.6401 26.4476C10.4891 26.3628 10.3229 26.3086 10.151 26.2881H10.151ZM3.18707 23.3599C2.72406 22.9938 2.37229 22.5059 2.17127 21.9509L1.09462 18.9763C0.859094 18.3229 0.843712 17.6104 1.05082 16.9475L2.52139 12.2586C2.56118 12.1303 2.64106 12.0181 2.7493 11.9386C2.85755 11.859 2.98845 11.8162 3.12279 11.8165C3.1576 11.8166 3.19235 11.8194 3.22671 11.825C3.31018 11.8387 3.39004 11.8691 3.46153 11.9144C3.53302 11.9596 3.59468 12.0187 3.64284 12.0883C3.691 12.1578 3.72468 12.2364 3.74187 12.3192C3.75907 12.402 3.75942 12.4875 3.74292 12.5704L3.00606 16.2794C2.60278 16.5573 2.31604 16.974 2.20066 17.4499C2.08528 17.9258 2.14934 18.4276 2.38062 18.8593L3.6645 21.2609C3.72116 21.3669 3.81762 21.446 3.93263 21.4809C3.98958 21.4982 4.04938 21.504 4.1086 21.4982C4.16782 21.4924 4.22532 21.4749 4.2778 21.4469C4.33028 21.4188 4.37672 21.3807 4.41447 21.3347C4.45222 21.2887 4.48053 21.2357 4.4978 21.1787C4.51507 21.1218 4.52095 21.062 4.51511 21.0028C4.50927 20.9435 4.49182 20.886 4.46377 20.8336L3.17976 18.4317C3.09493 18.2747 3.05064 18.099 3.05089 17.9206C3.05055 17.6382 3.16005 17.3667 3.35624 17.1635L8.63574 22.798C8.86161 23.0386 9.03211 23.3256 9.13528 23.6391C9.23845 23.9525 9.27179 24.2848 9.23297 24.6125L9.05057 26.1561L4.71764 25.6362C4.71237 25.2998 4.63255 24.9686 4.48391 24.6667C4.33528 24.3648 4.12153 24.0996 3.85808 23.8902L3.18707 23.3599ZM10.4041 27.6454L10.3564 28.0435L3.23215 27.1374L3.27383 26.7899C3.28729 26.6815 3.34317 26.5828 3.42922 26.5155C3.51527 26.4482 3.62449 26.4178 3.73295 26.4309L4.19466 26.4863H4.19497L10.043 27.1879C10.1515 27.2007 10.2506 27.2561 10.3183 27.3419C10.386 27.4277 10.4169 27.5369 10.4041 27.6454ZM16.6359 13.4813C17.8916 11.7009 18.5553 9.66755 18.5553 7.60083V2.83604C18.5553 2.72779 18.5166 2.62312 18.4461 2.54097C18.3756 2.45882 18.2781 2.40461 18.1711 2.38816C17.0165 2.2116 15.8874 1.89623 14.8085 1.4489C13.9275 1.08404 13.0882 0.625644 12.3051 0.0815839C12.2268 0.0268983 12.1332 -0.00163154 12.0377 7.20896e-05C11.9422 0.00177571 11.8497 0.0336256 11.7734 0.0910695C11.1991 0.521829 10.5861 0.898319 9.94222 1.21569C8.65184 1.84622 7.26556 2.25769 5.84015 2.43323C5.73084 2.44726 5.63039 2.50064 5.5576 2.58337C5.4848 2.66611 5.44465 2.77254 5.44465 2.88274V7.60089C5.44465 9.66755 6.10834 11.7009 7.36413 13.4813C8.45213 15.0238 9.97931 16.3663 11.7805 17.3636C11.8477 17.4008 11.9232 17.4203 12 17.4203C12.0768 17.4203 12.1523 17.4008 12.2195 17.3636C14.0207 16.3663 15.5478 15.0238 16.6359 13.4813ZM12 16.4466C10.4133 15.5295 9.07015 14.3277 8.10467 12.9589C6.95733 11.3322 6.35092 9.4794 6.35092 7.60089V3.27618C7.73768 3.06615 9.08417 2.64529 10.3437 2.02819C10.9403 1.73379 11.5126 1.39251 12.0553 1.00755C12.8145 1.50907 13.6199 1.93704 14.4604 2.28563C15.4864 2.71133 16.5555 3.02455 17.6491 3.21981V7.60089C17.6491 9.4794 17.0426 11.3323 15.8953 12.9589C14.9298 14.3277 13.5867 15.5295 12 16.4466ZM16.7428 4.31784C16.7428 4.21677 16.709 4.1186 16.6468 4.03894C16.5846 3.95928 16.4976 3.90269 16.3995 3.87818C15.6194 3.68338 14.8548 3.43072 14.1122 3.1223C13.4913 2.86417 12.8879 2.56576 12.3059 2.22896C12.2351 2.18795 12.1546 2.16686 12.0728 2.1679C11.9911 2.16894 11.9111 2.19208 11.8414 2.23488C11.4854 2.45345 11.1196 2.6556 10.7452 2.84069C9.74594 3.33204 8.69326 3.70626 7.60809 3.95588C7.50833 3.97898 7.41934 4.03519 7.35561 4.11535C7.29189 4.19551 7.25719 4.29489 7.25719 4.39729V7.60089C7.25719 9.29138 7.80632 10.9635 8.84527 12.4365C9.59306 13.4967 10.5697 14.4341 11.7479 15.2227C11.8225 15.2726 11.9102 15.2992 12 15.2992C12.0897 15.2992 12.1775 15.2726 12.2521 15.2227C13.4303 14.4341 14.4069 13.4967 15.1547 12.4365C16.1937 10.9635 16.7428 9.29138 16.7428 7.60089V4.31784ZM15.8365 7.60089C15.8365 9.10336 15.3447 10.5948 14.4141 11.9141C13.7487 12.8378 12.9326 13.643 12 14.2958C11.0673 13.6429 10.2512 12.8378 9.58587 11.914C8.65532 10.5947 8.16345 9.1033 8.16345 7.60077V4.75334C9.19338 4.49125 10.1932 4.12252 11.1466 3.65313C11.4656 3.49554 11.7786 3.32633 12.0851 3.14586C12.6289 3.44856 13.1894 3.72007 13.764 3.95908C14.439 4.23947 15.1312 4.47623 15.8365 4.66791V7.60089ZM23.8139 16.6763L22.3433 11.9871C22.2255 11.6117 21.9683 11.2957 21.6246 11.1042C21.2809 10.9127 20.8769 10.8603 20.4957 10.9576C20.1145 11.055 19.7851 11.2948 19.5754 11.6277C19.3656 11.9605 19.2915 12.3611 19.3681 12.747L20.098 16.4206L14.7029 22.1783C14.3867 22.5152 14.148 22.9171 14.0036 23.356C13.8592 23.7948 13.8125 24.26 13.867 24.7188L14.0496 26.2641L13.849 26.2881C13.6771 26.3086 13.5109 26.3628 13.3599 26.4475C13.209 26.5323 13.0762 26.6459 12.9691 26.782C12.862 26.9181 12.7828 27.0739 12.736 27.2405C12.6892 27.4072 12.6756 27.5815 12.6961 27.7534L12.7984 28.606L12.7985 28.6078L12.7988 28.6092L13.0298 30.5349C13.0368 30.5941 13.0553 30.6513 13.0844 30.7033C13.1135 30.7553 13.1526 30.8011 13.1994 30.838C13.2463 30.8749 13.2999 30.9022 13.3573 30.9183C13.4147 30.9344 13.4747 30.9391 13.5339 30.9319C13.5931 30.9248 13.6503 30.9061 13.7022 30.8769C13.7541 30.8476 13.7998 30.8084 13.8366 30.7615C13.8733 30.7146 13.9005 30.6609 13.9164 30.6034C13.9324 30.546 13.9369 30.486 13.9296 30.4268L13.7516 28.9434L20.8758 28.0373L21.0598 29.5714C21.0747 29.6903 21.136 29.7984 21.2304 29.8722C21.3248 29.946 21.4445 29.9794 21.5635 29.9651C21.6824 29.9509 21.7909 29.8901 21.8651 29.796C21.9394 29.702 21.9733 29.5824 21.9596 29.4634L21.7209 27.4735V27.4731L21.7208 27.4727L21.6259 26.6819C21.5843 26.3414 21.4117 26.0304 21.1447 25.8149C20.8776 25.5994 20.5372 25.4964 20.1955 25.5276C20.2145 25.3472 20.2692 25.1723 20.3565 25.0133C20.4437 24.8542 20.5618 24.7141 20.7038 24.6012L21.3752 24.0706C21.9704 23.6 22.4225 22.9728 22.6808 22.2594L23.7574 19.2851C24.0603 18.4449 24.0801 17.5288 23.8139 16.6763ZM20.267 26.4309C20.3755 26.4178 20.4847 26.4483 20.5707 26.5156C20.6568 26.5829 20.7126 26.6815 20.7261 26.7899L20.7678 27.1374L13.6437 28.0435L13.5959 27.6454C13.5832 27.5369 13.614 27.4277 13.6817 27.3419C13.7494 27.2561 13.8484 27.2008 13.957 27.1879L19.805 26.4863H19.8053L20.267 26.4309ZM22.9053 18.9765L21.8287 21.9507C21.6277 22.5057 21.276 22.9936 20.8131 23.3597L20.1418 23.8903C19.8784 24.0997 19.6647 24.3648 19.5161 24.6668C19.3674 24.9687 19.2876 25.2998 19.2823 25.6362L14.9494 26.1561L14.7669 24.6126C14.7281 24.2849 14.7615 23.9526 14.8646 23.6392C14.9678 23.3257 15.1383 23.0386 15.3642 22.798L20.6437 17.1635C20.8399 17.3666 20.9494 17.6381 20.9491 17.9206C20.9493 18.0991 20.905 18.2749 20.8201 18.4319L19.5362 20.8336C19.5082 20.886 19.4907 20.9435 19.4849 21.0028C19.479 21.062 19.4849 21.1218 19.5022 21.1787C19.5195 21.2357 19.5478 21.2886 19.5855 21.3347C19.6233 21.3807 19.6697 21.4188 19.7222 21.4468C19.7747 21.4749 19.8322 21.4923 19.8914 21.4982C19.9506 21.504 20.0104 21.4981 20.0674 21.4808C20.1243 21.4636 20.1773 21.4353 20.2233 21.3975C20.2693 21.3598 20.3074 21.3133 20.3355 21.2608L21.6192 18.8595C21.8506 18.4278 21.9147 17.926 21.7993 17.45C21.684 16.974 21.3972 16.5573 20.9939 16.2794L20.2571 12.5707C20.2406 12.4878 20.2409 12.4025 20.258 12.3197C20.2751 12.237 20.3087 12.1585 20.3567 12.089C20.4047 12.0195 20.4662 11.9603 20.5375 11.915C20.6089 11.8697 20.6885 11.8392 20.7719 11.8253C20.8067 11.8196 20.8419 11.8167 20.8772 11.8165C21.0115 11.8162 21.1424 11.859 21.2507 11.9385C21.3589 12.0181 21.4388 12.1302 21.4786 12.2585L22.9493 16.9478C23.1563 17.6108 23.1408 18.3232 22.9053 18.9765Z" fill="white"/>
</svg>
