<svg xmlns="http://www.w3.org/2000/svg" width="22.155" height="15.736" viewBox="0 0 22.155 15.736">
  <path id="Path_6238" data-name="Path 6238" d="M52.872,107.489l3.283,3.283-3.283,3.283-1.065-1.065,1.554-1.556c-4.249-.46-6.812-2.595-9.3-4.668-2.72-2.268-5.291-4.411-10.061-4.411v-1.507c5.316,0,8.219,2.42,11.028,4.759,2.326,1.939,4.541,3.784,8.115,4.28l-1.335-1.335Zm-6.341-1.955a13.209,13.209,0,0,1,6.613-3.051l-1.338,1.338,1.065,1.065,3.283-3.283L52.872,98.32l-1.065,1.065,1.557,1.558a14.617,14.617,0,0,0-7.761,3.405ZM34,110.02v1.507a14.548,14.548,0,0,0,9.646-3.629l-.936-1.181A12.971,12.971,0,0,1,34,110.02Z" transform="translate(-34 -98.32)" fill="#c0282c"/>
</svg>
