<svg width="21" height="26" viewBox="0 -2 21 28" fill="none" xmlns="http://www.w3.org/2000/svg">
<path d="M10.08 13.86C9.69639 13.8555 9.32062 13.9687 9.00326 14.1842C8.6859 14.3997 8.44219 14.7073 8.30493 15.0656C8.16767 15.4238 8.14346 15.8155 8.23555 16.1879C8.32763 16.5603 8.5316 16.8956 8.82 17.1486V18.9C8.82 19.2342 8.95275 19.5547 9.18905 19.791C9.42534 20.0273 9.74583 20.16 10.08 20.16C10.4142 20.16 10.7347 20.0273 10.971 19.791C11.2073 19.5547 11.34 19.2342 11.34 18.9V17.1486C11.6284 16.8956 11.8324 16.5603 11.9245 16.1879C12.0165 15.8155 11.9923 15.4238 11.8551 15.0656C11.7178 14.7073 11.4741 14.3997 11.1567 14.1842C10.8394 13.9687 10.4636 13.8555 10.08 13.86ZM16.38 8.82V6.3C16.38 4.62914 15.7163 3.02671 14.5348 1.84523C13.3533 0.663748 11.7509 0 10.08 0C8.40914 0 6.80671 0.663748 5.62523 1.84523C4.44375 3.02671 3.78 4.62914 3.78 6.3V8.82C2.77748 8.82 1.81602 9.21825 1.10714 9.92714C0.398249 10.636 0 11.5975 0 12.6V21.42C0 22.4225 0.398249 23.384 1.10714 24.0929C1.81602 24.8018 2.77748 25.2 3.78 25.2H16.38C17.3825 25.2 18.344 24.8018 19.0529 24.0929C19.7618 23.384 20.16 22.4225 20.16 21.42V12.6C20.16 11.5975 19.7618 10.636 19.0529 9.92714C18.344 9.21825 17.3825 8.82 16.38 8.82ZM6.3 6.3C6.3 5.29748 6.69825 4.33602 7.40714 3.62714C8.11602 2.91825 9.07748 2.52 10.08 2.52C11.0825 2.52 12.044 2.91825 12.7529 3.62714C13.4618 4.33602 13.86 5.29748 13.86 6.3V8.82H6.3V6.3ZM17.64 21.42C17.64 21.7542 17.5073 22.0747 17.271 22.311C17.0347 22.5473 16.7142 22.68 16.38 22.68H3.78C3.44583 22.68 3.12534 22.5473 2.88905 22.311C2.65275 22.0747 2.52 21.7542 2.52 21.42V12.6C2.52 12.2658 2.65275 11.9453 2.88905 11.709C3.12534 11.4727 3.44583 11.34 3.78 11.34H16.38C16.7142 11.34 17.0347 11.4727 17.271 11.709C17.5073 11.9453 17.64 12.2658 17.64 12.6V21.42Z" fill="currentColor"/>
</svg>
