<svg width="14" height="17" viewBox="0 0 14 17" fill="none" xmlns="http://www.w3.org/2000/svg">
<path d="M7.04272 0.366364C5.36912 0.366364 3.76408 1.0312 2.58067 2.21461C1.39725 3.39802 0.732422 5.00307 0.732422 6.67666C0.732422 10.9361 6.29337 15.7477 6.53001 15.9528C6.67288 16.075 6.85471 16.1422 7.04272 16.1422C7.23073 16.1422 7.41256 16.075 7.55543 15.9528C7.83151 15.7477 13.353 10.9361 13.353 6.67666C13.353 5.00307 12.6882 3.39802 11.5048 2.21461C10.3214 1.0312 8.71631 0.366364 7.04272 0.366364ZM7.04272 14.2885C5.3626 12.7109 2.31 9.31121 2.31 6.67666C2.31 5.42146 2.80862 4.21768 3.69618 3.33012C4.58374 2.44256 5.78752 1.94394 7.04272 1.94394C8.29792 1.94394 9.5017 2.44256 10.3893 3.33012C11.2768 4.21768 11.7754 5.42146 11.7754 6.67666C11.7754 9.31121 8.72284 12.7188 7.04272 14.2885ZM7.04272 3.52151C6.41869 3.52151 5.80867 3.70656 5.28981 4.05325C4.77095 4.39994 4.36655 4.89271 4.12774 5.46924C3.88894 6.04576 3.82645 6.68016 3.9482 7.2922C4.06994 7.90424 4.37044 8.46643 4.81169 8.90769C5.25295 9.34894 5.81514 9.64944 6.42718 9.77118C7.03922 9.89293 7.67361 9.83044 8.25014 9.59164C8.82667 9.35283 9.31944 8.94843 9.66613 8.42957C10.0128 7.9107 10.1979 7.30069 10.1979 6.67666C10.1979 5.83986 9.86545 5.03734 9.27375 4.44563C8.68204 3.85393 7.87952 3.52151 7.04272 3.52151ZM7.04272 8.25423C6.7307 8.25423 6.4257 8.16171 6.16627 7.98836C5.90684 7.81502 5.70463 7.56864 5.58523 7.28037C5.46583 6.99211 5.43459 6.67491 5.49546 6.36889C5.55633 6.06287 5.70658 5.78177 5.92721 5.56115C6.14783 5.34052 6.42893 5.19027 6.73495 5.1294C7.04097 5.06853 7.35817 5.09977 7.64643 5.21917C7.93469 5.33857 8.18108 5.54078 8.35442 5.80021C8.52777 6.05964 8.62029 6.36465 8.62029 6.67666C8.62029 7.09506 8.45409 7.49632 8.15823 7.79217C7.86238 8.08803 7.46112 8.25423 7.04272 8.25423Z"/>
</svg>
