<svg xmlns="http://www.w3.org/2000/svg" width="18.1" height="18.01" viewBox="0 0 18.1 18.01">
  <g id="Group_13375" data-name="Group 13375" transform="translate(-8.086 -8.207)">
    <path id="Path_6239" data-name="Path 6239" d="M28.952,12.948a4.741,4.741,0,0,0-9.482,0c0,3.752,4.741,9.3,4.741,9.3S28.952,16.68,28.952,12.948Zm-7.08-.283A2.339,2.339,0,1,1,24.211,15,2.339,2.339,0,0,1,21.873,12.665Z" transform="translate(-7.076)" fill="#c0282c"/>
    <circle id="Ellipse_22" data-name="Ellipse 22" cx="1.15" cy="1.15" r="1.15" transform="translate(15.986 11.515)" fill="#c0282c"/>
    <path id="Path_6240" data-name="Path 6240" d="M19.816,40.958c-.386.558-.749,1.045-1.051,1.436a13.278,13.278,0,0,1,5.69,1.308c-.856.564-3.4,1.358-7.319,1.358s-6.463-.794-7.319-1.358A13.278,13.278,0,0,1,15.5,42.394c-.3-.391-.666-.877-1.053-1.435-3.687.363-6.364,1.454-6.364,2.742,0,1.586,4.052,2.872,9.05,2.872s9.05-1.286,9.05-2.872C26.187,42.412,23.506,41.321,19.816,40.958Z" transform="translate(0 -20.356)" fill="#c0282c"/>
  </g>
</svg>
