<svg width="60" height="60" viewBox="0 0 21 8" fill="currentColor" xmlns="http://www.w3.org/2000/svg">
<path fill-rule="evenodd" clip-rule="evenodd" d="M19.5301 2.84464C19.5301 2.62582 19.7051 2.44201 19.9152 2.44201C20.134 2.44201 20.3003 2.62582 20.3003 2.84464C20.3003 3.06346 20.134 3.24726 19.9152 3.24726C19.7051 3.25602 19.5301 3.07221 19.5301 2.84464ZM19.9152 3.15974C20.0815 3.15974 20.204 3.01969 20.204 2.85339C20.204 2.68709 20.0727 2.54705 19.9152 2.54705C19.7489 2.54705 19.6263 2.68709 19.6263 2.85339C19.6263 3.01969 19.7576 3.15974 19.9152 3.15974ZM19.8627 3.02845H19.7839V2.66958H19.9327C19.9589 2.66958 19.9939 2.66958 20.0202 2.68709C20.0465 2.70459 20.064 2.73961 20.064 2.77462C20.064 2.81838 20.0377 2.85339 20.0027 2.86214L20.064 3.01969H19.9764L19.9239 2.87965H19.8627V3.02845ZM19.8627 2.82713H19.9064C19.9239 2.82713 19.9414 2.82713 19.9502 2.81838C19.9589 2.80963 19.9677 2.79212 19.9677 2.77462C19.9677 2.76586 19.9589 2.74836 19.9502 2.73961C19.9414 2.73085 19.9152 2.73085 19.9064 2.73085H19.8627C19.8714 2.73961 19.8627 2.82713 19.8627 2.82713ZM14.0246 0.157549L13.9195 0.849015C13.692 0.726477 13.5257 0.682713 13.3419 0.682713C12.8605 0.682713 12.5279 1.17287 12.5279 1.86433C12.5279 2.34573 12.7554 2.63457 13.1318 2.63457C13.2894 2.63457 13.4644 2.58206 13.6832 2.46827L13.5694 3.19475C13.3331 3.26477 13.1756 3.29103 13.0005 3.29103C12.309 3.29103 11.8714 2.76586 11.8714 1.9256C11.8714 0.796499 12.4666 0 13.3244 0C13.4381 0 13.5344 0.0087522 13.6132 0.0350104L13.8845 0.105033C13.9458 0.131291 13.9633 0.131291 14.0246 0.157549ZM11.8802 0.630197C11.8627 0.621444 11.8364 0.621444 11.8189 0.621444C11.6088 0.621444 11.4863 0.735229 11.285 1.04157L11.3462 0.647702H10.7598L10.3659 3.22101H11.0136C11.25 1.64551 11.3025 1.37418 11.6176 1.37418H11.6613C11.7226 1.06783 11.7926 0.840262 11.9064 0.630197H11.8802ZM8.02896 3.18599C7.8539 3.24726 7.71386 3.27352 7.56506 3.27352C7.24121 3.27352 7.0574 3.07221 7.0574 2.70459C7.0574 2.63457 7.06616 2.5558 7.07491 2.46827L7.11867 2.21444L7.14493 2.01313L7.42502 0.253829H8.06397L7.98519 0.630197H8.3178L8.22152 1.25164H7.90642L7.73137 2.34573C7.72261 2.3895 7.72261 2.42451 7.72261 2.45077C7.72261 2.58206 7.79263 2.64333 7.94143 2.64333C8.0202 2.64333 8.07272 2.63457 8.11648 2.61707L8.02896 3.18599ZM5.48191 1.46171C5.48191 1.78556 5.63071 2.01313 5.97207 2.17943C6.22589 2.31072 6.27841 2.34573 6.27841 2.46827C6.27841 2.62582 6.16463 2.70459 5.9108 2.70459C5.71824 2.70459 5.54318 2.67834 5.33312 2.59956L5.24559 3.19475L5.27185 3.2035L5.38563 3.22976C5.4294 3.23851 5.48191 3.24726 5.55193 3.25602C5.70073 3.26477 5.82327 3.28228 5.9108 3.28228C6.58476 3.28228 6.89986 3.01094 6.89986 2.42451C6.89986 2.0744 6.76856 1.86433 6.44471 1.70678C6.17338 1.57549 6.14712 1.54923 6.14712 1.4267C6.14712 1.28665 6.25215 1.21663 6.46222 1.21663C6.59351 1.21663 6.75981 1.23414 6.92611 1.26039L7.02239 0.665208C6.83859 0.630197 6.64603 0.612691 6.45347 0.612691C5.72699 0.595186 5.48191 0.980306 5.48191 1.46171ZM19.1624 3.22101H18.5497L18.576 2.96718C18.4009 3.16849 18.2171 3.25602 17.9808 3.25602C17.5082 3.25602 17.2018 2.82713 17.2018 2.18818C17.2018 1.33042 17.6832 0.603938 18.2522 0.603938C18.506 0.603938 18.6898 0.717724 18.8736 0.954048L19.0136 0.0525163H19.6526L19.1624 3.22101ZM18.2084 2.61707C18.5147 2.61707 18.7248 2.25821 18.7248 1.75055C18.7248 1.4267 18.6023 1.24289 18.3834 1.24289C18.0946 1.24289 17.8845 1.60175 17.8845 2.10941C17.8758 2.44201 17.9896 2.61707 18.2084 2.61707ZM10.0683 3.16849C9.84953 3.23851 9.63071 3.27352 9.40314 3.27352C8.68541 3.27352 8.30905 2.87965 8.30905 2.11816C8.30905 1.23414 8.79045 0.586433 9.43815 0.586433C9.97207 0.586433 10.3047 0.954048 10.3047 1.52298C10.3047 1.70678 10.2784 1.89934 10.2259 2.16193H8.93924C8.93049 2.20569 8.93049 2.22319 8.93049 2.2407C8.93049 2.54705 9.12305 2.69584 9.49942 2.69584C9.72699 2.69584 9.93705 2.64333 10.1734 2.52954C10.1646 2.52954 10.0683 3.16849 10.0683 3.16849ZM9.70948 1.62801C9.71824 1.57549 9.71824 1.53173 9.71824 1.49672C9.71824 1.28665 9.60445 1.16411 9.41189 1.16411C9.21058 1.16411 9.06178 1.33042 9.00051 1.62801H9.70948ZM2.8911 3.22101H2.25215L2.61977 0.787746L1.78826 3.22101H1.35062L1.2981 0.805251L0.904232 3.22101H0.300293L0.816704 0.0525163H1.74449L1.77075 2.01313L2.3922 0.0525163H3.39876L2.8911 3.22101ZM4.55412 2.0744C4.4841 2.06565 4.45784 2.06565 4.40533 2.06565C4.03771 2.06565 3.8539 2.19694 3.8539 2.45952C3.8539 2.61707 3.95018 2.7221 4.09023 2.7221C4.35281 2.71335 4.54537 2.45077 4.55412 2.0744ZM5.02677 3.22101H4.49285L4.50161 2.94967C4.3353 3.16849 4.12524 3.25602 3.82765 3.25602C3.47754 3.25602 3.24121 2.96718 3.24121 2.5558C3.24121 1.9256 3.66134 1.56674 4.37031 1.56674C4.44909 1.56674 4.53662 1.57549 4.6329 1.58424C4.6504 1.49672 4.65916 1.46171 4.65916 1.41794C4.65916 1.25164 4.54537 1.18162 4.24778 1.18162C4.06397 1.18162 3.8539 1.20788 3.71386 1.26039L3.61758 1.28665L3.55631 1.30416L3.64384 0.726477C3.96769 0.630197 4.17775 0.586433 4.41408 0.586433C4.9655 0.586433 5.26309 0.849015 5.26309 1.33917C5.26309 1.47046 5.25434 1.55799 5.21058 1.85558L5.07929 2.77462L5.05303 2.94092L5.03552 3.07221L5.02677 3.16849C5.03552 3.15098 5.02677 3.22101 5.02677 3.22101ZM15.1362 2.0744C15.0749 2.06565 15.0399 2.06565 14.9874 2.06565C14.6198 2.06565 14.436 2.19694 14.436 2.45952C14.436 2.61707 14.5322 2.7221 14.6723 2.7221C14.9349 2.71335 15.1274 2.45077 15.1362 2.0744ZM15.6001 3.22101H15.0662L15.0749 2.94967C14.9086 3.16849 14.6985 3.25602 14.4009 3.25602C14.0508 3.25602 13.8145 2.96718 13.8145 2.5558C13.8145 1.9256 14.2346 1.56674 14.9436 1.56674C15.0136 1.56674 15.1099 1.57549 15.2062 1.58424C15.2237 1.49672 15.2325 1.46171 15.2325 1.41794C15.2325 1.25164 15.1187 1.18162 14.8211 1.18162C14.6373 1.18162 14.4272 1.20788 14.2872 1.26039L14.1909 1.28665L14.1296 1.30416L14.2171 0.726477C14.541 0.630197 14.7511 0.586433 14.9874 0.586433C15.5388 0.586433 15.8364 0.849015 15.8364 1.33917C15.8364 1.47046 15.8276 1.55799 15.7839 1.85558L15.6526 2.76586L15.6351 2.93217L15.6176 3.06346L15.6088 3.15098L15.6001 3.22101ZM17.4031 0.630197C17.3856 0.621444 17.3594 0.621444 17.3419 0.621444C17.1318 0.621444 17.0093 0.735229 16.808 1.04157L16.8692 0.647702H16.2828L15.8889 3.22101H16.5366C16.7729 1.64551 16.8255 1.37418 17.1406 1.37418H17.1843C17.2281 1.1116 17.3156 0.86652 17.4294 0.630197H17.4031Z" />
<path fill-rule="evenodd" clip-rule="evenodd" d="M14.1831 5.74508C14.1831 6.31822 14.0034 6.65184 13.7297 6.65184C13.5244 6.66039 13.4046 6.42943 13.4046 6.09581C13.4046 5.69376 13.5843 5.24038 13.8751 5.24038C14.1061 5.24038 14.1831 5.48845 14.1831 5.74508ZM14.8075 5.75364C14.8075 5.12062 14.491 4.62447 13.9093 4.62447C13.2335 4.62447 12.7887 5.22327 12.7887 6.10436C12.7887 6.73738 13.0539 7.2592 13.6869 7.2592C14.3285 7.2592 14.8075 6.80582 14.8075 5.75364ZM12.9855 4.1882L12.8914 4.86399C12.6775 4.74423 12.5321 4.70145 12.3695 4.70145C11.9333 4.70145 11.6253 5.1805 11.6253 5.85629C11.6253 6.32677 11.8306 6.60907 12.1728 6.60907C12.3182 6.60907 12.4808 6.55774 12.6775 6.44654L12.5749 7.15654C12.361 7.22498 12.2156 7.25064 12.053 7.25064C11.42 7.25064 11.018 6.73738 11.018 5.91617C11.018 4.81266 11.5654 4.03422 12.3439 4.03422C12.4465 4.03422 12.5321 4.04277 12.6091 4.06843L12.8486 4.13687C12.917 4.15398 12.9341 4.16253 12.9855 4.1882ZM9.09324 4.64157C9.07613 4.63302 9.05047 4.63302 9.03336 4.63302C8.83661 4.63302 8.73396 4.74423 8.54577 5.04363L8.60565 4.65868H8.07528L7.716 7.17365H8.30624C8.5201 5.63388 8.57143 5.36869 8.85372 5.36869C8.87083 5.36869 8.87083 5.36869 8.89649 5.37725C8.94782 5.07784 9.02481 4.85543 9.1189 4.65013L9.09324 4.64157ZM16.775 7.15654H16.219L16.2447 6.90847C16.0821 7.10522 15.911 7.19076 15.6972 7.19076C15.2695 7.19076 14.9872 6.7716 14.9872 6.14713C14.9872 5.30881 15.4234 4.5988 15.9453 4.5988C16.1762 4.5988 16.3473 4.71001 16.5098 4.94953L16.6382 4.06843H17.2198L16.775 7.15654ZM15.9025 6.5663C16.1848 6.5663 16.373 6.21557 16.373 5.71942C16.373 5.40291 16.2618 5.23182 16.0565 5.23182C15.7913 5.23182 15.6031 5.58255 15.6031 6.0787C15.6031 6.39521 15.7057 6.5663 15.9025 6.5663ZM3.57571 7.14799C3.37896 7.21642 3.17365 7.25064 2.96835 7.25064C2.30967 7.25064 1.96749 6.8657 1.96749 6.12147C1.96749 5.25749 2.40376 4.62447 2.99401 4.62447C3.48161 4.62447 3.78956 4.97519 3.78956 5.53978C3.78956 5.71942 3.7639 5.90761 3.71257 6.16424H2.54919C2.54063 6.20701 2.54063 6.22412 2.54063 6.24123C2.54063 6.53208 2.72027 6.6775 3.06245 6.6775C3.2763 6.6775 3.4645 6.62618 3.6698 6.51497L3.57571 7.14799ZM3.24209 5.65098C3.24209 5.59966 3.25064 5.55689 3.25064 5.52267C3.25064 5.31737 3.14799 5.1976 2.96835 5.1976C2.78015 5.1976 2.65184 5.36014 2.59196 5.65098H3.24209ZM10.5731 7.14799C10.3764 7.21642 10.1711 7.25064 9.96578 7.25064C9.3071 7.25064 8.96493 6.8657 8.96493 6.12147C8.96493 5.25749 9.4012 4.62447 9.99145 4.62447C10.479 4.62447 10.787 4.97519 10.787 5.53978C10.787 5.71942 10.7613 5.90761 10.71 6.16424H9.53807C9.52951 6.20701 9.52951 6.22412 9.52951 6.24123C9.52951 6.53208 9.70915 6.6775 10.0513 6.6775C10.2652 6.6775 10.4534 6.62618 10.6587 6.51497L10.5731 7.14799ZM10.2481 5.65098C10.2566 5.59966 10.2566 5.55689 10.2566 5.52267C10.2566 5.31737 10.154 5.1976 9.97434 5.1976C9.78614 5.1976 9.65783 5.36014 9.59795 5.65098H10.2481ZM18.7853 7.14799C18.5885 7.21642 18.3832 7.25064 18.1779 7.25064C17.5192 7.25064 17.1771 6.8657 17.1771 6.12147C17.1771 5.25749 17.6133 4.62447 18.2121 4.62447C18.6997 4.62447 19.0077 4.97519 19.0077 5.53978C19.0077 5.71942 18.982 5.90761 18.9307 6.16424H17.7588C17.7502 6.20701 17.7502 6.22412 17.7502 6.24123C17.7502 6.53208 17.9299 6.6775 18.272 6.6775C18.4859 6.6775 18.6741 6.62618 18.8794 6.51497L18.7853 7.14799ZM18.4517 5.65098C18.4517 5.59966 18.4602 5.55689 18.4602 5.52267C18.4602 5.31737 18.3576 5.1976 18.1779 5.1976C17.9897 5.1976 17.8614 5.36014 17.8015 5.65098H18.4517ZM1.83062 4.76133C1.71942 4.68435 1.55689 4.61591 1.34303 4.61591C1.10351 4.61591 0.915312 4.66724 0.915312 4.91531C0.915312 5.36014 1.7793 5.1976 1.7793 6.15569C1.7793 7.02823 1.20616 7.2592 0.6929 7.2592C0.461933 7.2592 0.196749 7.18221 0 7.09666L0.145424 6.45509C0.265184 6.5663 0.496151 6.63473 0.701454 6.63473C0.889649 6.63473 1.17194 6.58341 1.17194 6.25834C1.17194 5.75364 0.307956 5.94183 0.307956 5.05218C0.307956 4.23952 0.81266 4 1.30881 4C1.58255 4 1.84773 4.04277 1.99316 4.14542L1.83062 4.76133ZM5.29512 7.14799C5.17536 7.20787 5.01283 7.24209 4.77331 7.24209C4.26005 7.24209 3.94354 6.72883 3.94354 6.10436C3.94354 5.28315 4.40547 4.63302 5.08127 4.63302C5.22669 4.63302 5.45766 4.6929 5.6373 4.79555L5.50898 5.39435C5.38067 5.30881 5.25235 5.25748 5.11548 5.25748C4.79897 5.25748 4.57656 5.54833 4.57656 6.06159C4.57656 6.36099 4.73909 6.60051 4.99572 6.60051C5.1497 6.60051 5.26091 6.5663 5.38922 6.48931L5.29512 7.14799ZM7.50214 6.51497C7.46792 6.72883 7.45081 6.95124 7.42515 7.1651H6.86056L6.90334 6.76305H6.89478C6.71514 7.03678 6.5355 7.22498 6.21044 7.22498C5.85971 7.22498 5.66296 6.84859 5.66296 6.36099C5.66296 6.18991 5.67151 6.09581 5.70573 5.83918L5.86826 4.67579H6.50128L6.3302 5.84773C6.31309 5.97605 6.28743 6.09581 6.28743 6.23268C6.28743 6.3781 6.35586 6.53208 6.52695 6.51497C6.78358 6.51497 6.93755 6.19846 6.98032 5.83063L7.15997 4.67579H7.76732L7.50214 6.51497ZM19.367 7.13088H19.2729V6.72027H19.136V6.62618H19.5038V6.72027H19.367V7.13088ZM20 7.13088H19.9059V6.71172L19.8204 7.13088H19.7263L19.6407 6.71172V7.13088H19.5466V6.62618H19.692L19.769 7.02823H19.7776L19.8546 6.62618H19.9914C20 6.62618 20 7.13088 20 7.13088Z" />
</svg>
