<svg width="66" height="44" viewBox="0 0 66 44" fill="none" xmlns="http://www.w3.org/2000/svg">
<path d="M49.3713 3.17416C49.3713 2.34813 49.0268 1.55593 48.4135 0.971839C47.8003 0.387748 46.9685 0.0596161 46.1012 0.0596161H3.58264C2.71535 0.0596161 1.88357 0.387748 1.2703 0.971839C0.657032 1.55593 0.3125 2.34813 0.3125 3.17416C0.3125 4.00019 0.657032 4.79239 1.2703 5.37648C1.88357 5.96057 2.71535 6.2887 3.58264 6.2887H46.1012C46.9685 6.2887 47.8003 5.96057 48.4135 5.37648C49.0268 4.79239 49.3713 4.00019 49.3713 3.17416ZM3.58264 18.749H62.4541C63.3214 18.749 64.1532 19.0771 64.7665 19.6612C65.3797 20.2453 65.7243 21.0375 65.7243 21.8635C65.7243 22.6896 65.3797 23.4818 64.7665 24.0658C64.1532 24.6499 63.3214 24.9781 62.4541 24.9781H3.58264C2.71535 24.9781 1.88357 24.6499 1.2703 24.0658C0.657032 23.4818 0.3125 22.6896 0.3125 21.8635C0.3125 21.0375 0.657032 20.2453 1.2703 19.6612C1.88357 19.0771 2.71535 18.749 3.58264 18.749ZM3.58264 37.4384H33.0184C33.8857 37.4384 34.7175 37.7665 35.3307 38.3506C35.944 38.9347 36.2885 39.7269 36.2885 40.5529C36.2885 41.3789 35.944 42.1711 35.3307 42.7552C34.7175 43.3393 33.8857 43.6675 33.0184 43.6675H3.58264C2.71535 43.6675 1.88357 43.3393 1.2703 42.7552C0.657032 42.1711 0.3125 41.3789 0.3125 40.5529C0.3125 39.7269 0.657032 38.9347 1.2703 38.3506C1.88357 37.7665 2.71535 37.4384 3.58264 37.4384Z" fill="black"/>
</svg>
