<svg width="100" height="99" viewBox="0 0 100 99" fill="none" xmlns="http://www.w3.org/2000/svg">
<path d="M99.0981 49.3137C99.0981 22.2193 77.1337 0.254883 50.0393 0.254883C22.9449 0.254883 0.980469 22.2193 0.980469 49.3137C0.980469 76.4081 22.9449 98.3725 50.0393 98.3725C77.1337 98.3725 99.0981 76.4081 99.0981 49.3137Z" fill="#1B1811"/>
<path d="M65.2844 29.655H35.8764C34.4854 29.7571 33.1907 30.403 32.2725 31.4528C31.3543 32.5026 30.8865 33.8719 30.9705 35.2641V66.6372C30.9702 66.7321 30.9986 66.8249 31.0519 66.9035C31.1053 66.982 31.1811 67.0427 31.2694 67.0774C31.3578 67.1122 31.4546 67.1195 31.5471 67.0983C31.6397 67.0771 31.7237 67.0285 31.7882 66.9588L39.0625 59.213H65.1046C66.5488 59.0649 67.8818 58.3707 68.8312 57.2724C69.7806 56.174 70.2746 54.7545 70.2121 53.3041V35.2668C70.2961 33.8746 69.8284 32.5054 68.9102 31.4556C67.992 30.4058 66.6972 29.7598 65.3062 29.6577L65.2844 29.655ZM36.6041 50.8866C36.6048 50.6034 36.7176 50.3321 36.9178 50.1319C37.118 49.9317 37.3894 49.8189 37.6725 49.8182H48.5336C48.8169 49.8182 49.0887 49.9307 49.289 50.1311C49.4894 50.3315 49.602 50.6032 49.602 50.8866C49.602 51.1699 49.4894 51.4417 49.289 51.6421C49.0887 51.8424 48.8169 51.955 48.5336 51.955H37.6779C37.5373 51.9553 37.3979 51.928 37.2678 51.8745C37.1378 51.821 37.0195 51.7424 36.9198 51.6432C36.82 51.544 36.7408 51.4261 36.6867 51.2963C36.6325 51.1664 36.6045 51.0272 36.6041 50.8866ZM36.6041 44.4326C36.6048 44.1495 36.7176 43.8781 36.9178 43.6779C37.118 43.4777 37.3894 43.365 37.6725 43.3642H63.491C63.7744 43.3642 64.0462 43.4768 64.2465 43.6771C64.4469 43.8775 64.5594 44.1493 64.5594 44.4326C64.5594 44.716 64.4469 44.9877 64.2465 45.1881C64.0462 45.3884 63.7744 45.501 63.491 45.501H37.6725C37.3894 45.5003 37.118 45.3875 36.9178 45.1873C36.7176 44.9871 36.6048 44.7158 36.6041 44.4326ZM63.4883 39.0471H37.6698C37.3864 39.0471 37.1147 38.9345 36.9143 38.7341C36.7139 38.5338 36.6014 38.262 36.6014 37.9787C36.6014 37.6953 36.7139 37.4236 36.9143 37.2232C37.1147 37.0228 37.3864 36.9102 37.6698 36.9102H63.4883C63.7717 36.9102 64.0434 37.0228 64.2438 37.2232C64.4441 37.4236 64.5567 37.6953 64.5567 37.9787C64.5567 38.262 64.4441 38.5338 64.2438 38.7341C64.0434 38.9345 63.7717 39.0471 63.4883 39.0471Z" fill="white"/>
</svg>
