
<svg width="39" fill="white" height="39" viewBox="0 0 39 39" fill="none" xmlns="http://www.w3.org/2000/svg">
<path d="M32.9934 30.1632C32.9934 32.8286 30.8259 34.9961 28.1605 34.9961H13.4855L15.9563 32.5797H28.1617C29.4944 32.5797 30.5782 31.4959 30.5782 30.1632C30.5782 28.8306 29.4944 27.7468 28.1617 27.7468H22.1206C19.4553 27.7468 17.2877 25.5793 17.2877 22.9139C17.2877 20.5857 18.943 18.638 21.1383 18.1825L23.5052 20.4975H22.1206C20.788 20.4975 19.7042 21.5812 19.7042 22.9139C19.7042 24.2466 20.788 25.3304 22.1206 25.3304H28.1617C30.8271 25.3304 32.9934 27.4979 32.9934 30.1632ZM31.2234 16.3122L26.9523 20.4902L22.6897 16.3218C20.3252 13.9561 20.3252 10.1249 22.68 7.76884C23.8218 6.62828 25.3393 6 26.9523 6C28.5653 6 30.0828 6.62828 31.2234 7.76884C33.5794 10.1249 33.5794 13.9574 31.2234 16.3122ZM14.3083 22.2675C16.6643 24.6235 16.6643 28.456 14.3083 30.8109L10.0372 34.9889L5.77458 30.8205C3.41009 28.4548 3.41009 24.6235 5.76491 22.2675C6.90668 21.127 8.42421 20.4987 10.0372 20.4987C11.6502 20.4987 13.1677 21.127 14.3083 22.2675Z" />
</svg>
