<svg height="42" width="42" viewBox="0 0 252 146" fill="none" xmlns="http://www.w3.org/2000/svg">
<path d="M251.618 137.055L251.9 8.5827C251.907 4.13621 248.253 0.484704 243.798 0.485887L9.2016 0.468772C4.74673 0.469955 1.08162 4.1234 1.07462 8.56989L0.792812 137.042C0.785812 141.488 4.43942 145.14 8.8943 145.139L243.491 145.156C247.946 145.075 251.611 141.501 251.618 137.055Z" fill="#699FF0"/>
<path d="M251.753 21.9221L1.07422 21.9534L1.03314 50.5982L251.712 50.5669L251.753 21.9221Z" fill="#365DA4"/>
<path d="M173.372 58.5526L19.9551 58.5752L19.9224 81.0328L173.34 81.0102L173.372 58.5526Z" fill="#AFCDFB"/>
<path d="M51.1398 121.473L51.1659 105.034C51.1712 101.698 48.4705 98.9197 45.0493 98.9207L25.9544 98.926C22.5332 98.927 19.8238 101.628 19.8184 105.043L19.7923 121.482C19.7869 124.897 22.4877 127.596 25.9089 127.595L45.0038 127.59C48.3454 127.589 51.1343 124.888 51.1398 121.473Z" fill="#AFCDFB"/>
<path opacity="0.2" d="M79.7823 101.854L230.485 101.921C231.757 101.921 232.872 100.89 232.874 99.5423L232.877 97.2428C232.879 95.9742 231.847 94.8641 230.495 94.8643L79.792 94.7967C78.5196 94.7968 77.4048 95.8277 77.4029 97.1757L77.3998 99.4751C77.3979 100.823 78.4303 101.854 79.7823 101.854Z" fill="#AFCDFB"/>
<path opacity="0.2" d="M79.6855 115.124L230.388 115.192C231.66 115.192 232.695 114.161 232.697 112.892L232.7 110.672C232.702 109.403 231.67 108.373 230.397 108.373L79.6949 108.305C78.4225 108.305 77.3872 109.336 77.3855 110.604L77.3824 112.825C77.3807 114.093 78.4131 115.124 79.6855 115.124Z" fill="#AFCDFB"/>
<path opacity="0.2" d="M232.76 125.526L232.763 123.068C232.765 121.72 231.653 120.689 230.381 120.689L79.837 120.622C78.485 120.622 77.4496 121.732 77.4479 123.001L77.4445 125.459C77.4426 126.807 78.5545 127.837 79.8269 127.837L230.371 127.905C231.643 127.984 232.758 126.874 232.76 125.526Z" fill="#AFCDFB"/>
</svg>
