
<svg width="35" height="35" viewBox="0 0 35 35" fill="currentColor" xmlns="http://www.w3.org/2000/svg">
<g clip-path="url(#clip0_1684_3664)">
<path d="M0.179147 11.3329L0.177692 11.5171C0.178708 12.1511 0.390263 12.7669 0.779142 13.2677C1.16802 13.7684 1.7122 14.1259 2.32624 14.2839C2.92395 14.4526 3.44965 14.8131 3.82248 15.3098C4.1953 15.8065 4.3946 16.412 4.38969 17.033C4.38479 17.6541 4.17596 18.2563 3.79533 18.7471C3.4147 19.2378 2.88337 19.59 2.28307 19.7492C1.66661 19.8975 1.11686 20.2463 0.720117 20.7409C0.323376 21.2355 0.102121 21.8478 0.0910903 22.4818L0.0896358 22.6659C0.0770533 24.5438 0.809811 26.35 2.12718 27.6883C3.44454 29.0267 5.23895 29.7879 7.1168 29.805L29.7828 29.984C30.9099 29.9929 31.9944 29.5537 32.7977 28.763C33.601 27.9723 34.0573 26.8948 34.0662 25.7677L34.09 22.7503C34.089 22.1162 33.8775 21.5005 33.4886 20.9997C33.0997 20.4989 32.5555 20.1415 31.9415 19.9835C31.3438 19.8147 30.8181 19.4543 30.4452 18.9576C30.0724 18.4609 29.8731 17.8554 29.878 17.2343C29.8829 16.6133 30.0918 16.0111 30.4724 15.5203C30.853 15.0295 31.3844 14.6774 31.9846 14.5181C32.6011 14.3699 33.1509 14.0211 33.5476 13.5265C33.9443 13.0319 34.1656 12.4196 34.1766 11.7856L34.2005 8.76822C34.2094 7.64109 33.7702 6.55658 32.9794 5.75328C32.1887 4.94998 31.1113 4.49369 29.9842 4.48478L7.3182 4.30576C5.44032 4.29318 3.63411 5.02594 2.29577 6.3433C0.957424 7.66067 0.196228 9.45508 0.179147 11.3329ZM31.3672 8.74584L31.254 11.781C30.0492 12.1042 28.9848 12.8159 28.2258 13.8057C27.4667 14.7955 27.0554 16.0081 27.0558 17.2555C27.0561 18.5029 27.468 19.7153 28.2275 20.7047C28.9871 21.6941 30.0519 22.4053 31.2568 22.7279L31.233 25.7453C31.23 26.121 31.0779 26.4802 30.8101 26.7437C30.5424 27.0073 30.1809 27.1537 29.8051 27.1507L24.1387 27.106L24.161 24.2727C24.164 23.897 24.0176 23.5355 23.754 23.2678C23.4905 23 23.1313 22.8479 22.7556 22.8449C22.3799 22.842 22.0184 22.9884 21.7506 23.2519C21.4828 23.5155 21.3308 23.8747 21.3278 24.2504L21.3054 27.0836L7.13918 26.9717C6.01205 26.9628 4.93461 26.5065 4.1439 25.7032C3.35319 24.8999 2.91398 23.8154 2.92288 22.6883L3.01373 22.4864C4.21117 22.164 5.27023 21.4587 6.02926 20.4781C6.7883 19.4974 7.20561 18.2954 7.2175 17.0554C7.21674 15.7985 6.80541 14.5763 6.04612 13.5747C5.28683 12.5732 4.22113 11.8471 3.01119 11.5069L3.01239 11.3553C3.02129 10.2282 3.47758 9.15074 4.28088 8.36003C5.08418 7.56932 6.16869 7.13011 7.29583 7.13901L21.4621 7.2509L21.4397 10.0841C21.4367 10.4599 21.5831 10.8214 21.8467 11.0891C22.1103 11.3569 22.4694 11.509 22.8451 11.512C23.2208 11.5149 23.5823 11.3685 23.8501 11.1049C24.1179 10.8414 24.2699 10.4822 24.2729 10.1065L24.2953 7.27327L29.9618 7.31803C30.3375 7.321 30.6966 7.47309 30.9602 7.74086C31.2238 8.00863 31.3702 8.37013 31.3672 8.74584Z" />
<path d="M21.3949 15.7506L21.3725 18.5839C21.3695 18.9596 21.516 19.3211 21.7795 19.5888C22.0431 19.8566 22.4022 20.0087 22.778 20.0117C23.1537 20.0146 23.5152 19.8682 23.7829 19.6047C24.0507 19.3411 24.2028 18.982 24.2058 18.6062L24.2281 15.773C24.2311 15.3973 24.0847 15.0358 23.8211 14.768C23.5576 14.5003 23.1984 14.3482 22.8227 14.3452C22.447 14.3422 22.0855 14.4886 21.8177 14.7522C21.55 15.0158 21.3979 15.3749 21.3949 15.7506Z" />
</g>
<defs>
<clipPath id="clip0_1684_3664">
<rect width="34" height="34"  transform="translate(0 33.9989) rotate(-89.5475)"/>
</clipPath>
</defs>
</svg>
