<svg width="100" height="100" viewBox="0 0 100 100" fill="none" xmlns="http://www.w3.org/2000/svg">
<g clip-path="url(#clip0_1_2)">
<path d="M75.8286 92.3225C74.7573 97.6579 69.6101 96.9776 66.1404 96.9281C64.3089 96.902 62.4774 96.8789 60.6458 96.859C54.7204 96.7945 48.7946 96.7623 42.8689 96.7624C39.9121 96.7625 36.9344 96.8828 33.9797 96.7871C31.6053 96.7102 29.4656 96.7714 27.619 94.977C24.8398 92.2765 25.5756 87.6333 25.5614 84.1267C25.5431 79.6046 25.5247 83.6713 25.5064 79.1492C25.4582 67.249 25.4099 55.3488 25.3617 43.4486C25.3135 31.5484 25.2652 19.6482 25.217 7.748C25.21 6.0202 25.9029 4.5738 27.1085 3.336C29.4857 0.895203 32.398 0.971303 35.5007 1.0383C39.0503 1.115 42.6003 1.1698 46.1506 1.2028C53.2511 1.2688 60.3524 1.2474 67.4524 1.1387C68.9657 1.1155 70.3289 0.990203 71.7767 1.552C73.128 2.0764 74.3331 2.9899 75.1692 4.1772C78.832 9.3781 74.9696 8.4619 76.0032 76.529C76.0827 81.7682 76.6531 88.2163 75.8286 92.3225Z" fill="#30302F"/>
<path d="M73.0041 71.7924L73.0042 71.7966C73.0639 74.2303 73.1192 76.2938 73.1664 78.0584C73.3847 86.2061 73.4323 87.981 72.9511 90.3982C72.7801 91.2175 72.4697 91.7485 72.084 92.1057C71.6946 92.4663 71.1873 92.688 70.5584 92.8156C69.9251 92.944 69.1968 92.9716 68.3894 92.9636C68.0573 92.9603 67.6947 92.9504 67.3215 92.9401C66.8336 92.9267 66.3278 92.9128 65.8489 92.9127C64.0571 92.8818 62.2554 92.861 60.465 92.8404L60.3478 92.839H60.3473C54.38 92.7759 48.3917 92.7443 42.5401 92.7443C40.9411 92.7443 39.4983 92.7719 38.2008 92.7999C38.031 92.8036 37.8637 92.8073 37.6989 92.8109C36.6031 92.835 35.6195 92.8566 34.7329 92.8582C32.6754 92.8619 31.2233 92.7551 30.1902 92.3655C29.212 91.9967 28.5965 91.3691 28.2241 90.2166C27.8367 89.0176 27.7193 87.2657 27.805 84.6861L27.8051 84.6848L27.8073 84.6117C27.8274 83.9576 27.8471 83.3181 27.8368 82.6967C27.8368 82.6957 27.8367 82.6946 27.8367 82.6936L27.5002 7.64464L27.5002 7.64209C27.4912 6.70222 27.8333 5.88849 28.6513 5.05112C29.6811 4.00579 31.0641 3.64026 32.338 3.53588C32.9715 3.48397 33.563 3.49785 34.0525 3.51875C34.1458 3.52274 34.2382 3.52713 34.3271 3.53134C34.4645 3.53786 34.5932 3.54397 34.7035 3.54757C34.8583 3.55262 35.0225 3.55501 35.1599 3.53937C37.6549 3.59903 40.1402 3.63985 42.6333 3.67078C42.6988 3.87702 42.7758 4.0794 42.8618 4.2728L42.8618 4.27282L42.8647 4.27918C43.2776 5.17404 44.0049 6.05297 45.0334 6.39583L45.0355 6.39654C45.7862 6.64296 46.59 6.57026 47.2529 6.51031C47.3175 6.50447 47.3808 6.49874 47.4425 6.49345C48.9642 6.36934 50.4936 6.35916 51.9997 6.48301L52.0006 6.48308C52.0986 6.49095 52.1987 6.49956 52.3007 6.50834C53.3654 6.59996 54.6338 6.70909 55.7328 6.1707L55.7341 6.17004C56.704 5.69128 57.3612 4.8123 57.7595 3.90203L57.761 3.89847C57.7832 3.8466 57.8058 3.79275 57.8281 3.73744C60.9446 3.72517 64.0688 3.68458 67.1614 3.64401C67.3789 3.64546 67.6084 3.63854 67.8468 3.63135C69.3717 3.58538 71.2631 3.52836 72.7169 5.57871C73.0857 6.10315 73.3392 6.55675 73.5157 7.0656C73.6929 7.57646 73.8005 8.1664 73.8505 8.97035C73.9423 10.4459 73.8377 12.5575 73.6628 16.0894C73.6445 16.4587 73.6254 16.8435 73.6057 17.2448C73.1913 25.6909 72.5137 41.2278 73.0041 71.7924Z" fill="white" stroke="black"/>
<circle cx="54" cy="28" r="1.75" fill="white" stroke="#9FA8AA" stroke-width="0.5"/>
<circle cx="54" cy="28" r="1" fill="#9FA8AA"/>
<path d="M57.4339 27.5455V29H57.1264V27.5455H57.4339ZM57.9838 28.3693V29H57.6813V27.9091H57.9696V28.1016H57.9824C58.0066 28.0381 58.0471 27.9879 58.1039 27.951C58.1607 27.9136 58.2296 27.8949 58.3105 27.8949C58.3863 27.8949 58.4524 27.9115 58.5087 27.9446C58.565 27.9777 58.6088 28.0251 58.6401 28.0866C58.6713 28.1477 58.687 28.2206 58.687 28.3054V29H58.3844V28.3594C58.3849 28.2926 58.3678 28.2405 58.3333 28.2031C58.2987 28.1652 58.2511 28.1463 58.1905 28.1463C58.1498 28.1463 58.1138 28.1551 58.0826 28.1726C58.0518 28.1901 58.0276 28.2157 58.0101 28.2493C57.9931 28.2824 57.9843 28.3224 57.9838 28.3693ZM59.1818 29H58.8523L59.3544 27.5455H59.7507L60.2521 29H59.9226L59.5582 27.8778H59.5469L59.1818 29ZM59.1612 28.4283H59.9396V28.6683H59.1612V28.4283ZM60.8636 29.0213C60.7519 29.0213 60.6558 28.9976 60.5753 28.9503C60.4953 28.9025 60.4337 28.8362 60.3906 28.7514C60.348 28.6667 60.3267 28.5691 60.3267 28.4588C60.3267 28.3471 60.3482 28.2491 60.3913 28.1648C60.4349 28.08 60.4967 28.014 60.5767 27.9666C60.6567 27.9188 60.7519 27.8949 60.8622 27.8949C60.9574 27.8949 61.0407 27.9122 61.1122 27.9467C61.1837 27.9813 61.2403 28.0298 61.282 28.0923C61.3236 28.1548 61.3466 28.2282 61.3509 28.3125H61.0653C61.0573 28.258 61.036 28.2143 61.0014 28.1811C60.9673 28.1475 60.9226 28.1307 60.8672 28.1307C60.8203 28.1307 60.7794 28.1435 60.7443 28.169C60.7098 28.1941 60.6828 28.2308 60.6634 28.2791C60.6439 28.3274 60.6342 28.3859 60.6342 28.4545C60.6342 28.5241 60.6437 28.5833 60.6626 28.6321C60.6821 28.6809 60.7093 28.718 60.7443 28.7436C60.7794 28.7692 60.8203 28.782 60.8672 28.782C60.9018 28.782 60.9328 28.7749 60.9602 28.7607C60.9882 28.7464 61.0111 28.7259 61.0291 28.6989C61.0476 28.6714 61.0597 28.6385 61.0653 28.6001H61.3509C61.3461 28.6835 61.3234 28.7569 61.2827 28.8203C61.2424 28.8833 61.1868 28.9325 61.1158 28.968C61.0447 29.0036 60.9607 29.0213 60.8636 29.0213ZM62.1248 27.9091V28.1364H61.4679V27.9091H62.1248ZM61.617 27.6477H61.9196V28.6648C61.9196 28.6927 61.9238 28.7145 61.9324 28.7301C61.9409 28.7453 61.9527 28.7559 61.9679 28.7621C61.9835 28.7682 62.0015 28.7713 62.0218 28.7713C62.036 28.7713 62.0502 28.7701 62.0645 28.7678C62.0787 28.7649 62.0895 28.7628 62.0971 28.7614L62.1447 28.9865C62.1296 28.9912 62.1083 28.9967 62.0808 29.0028C62.0533 29.0095 62.0199 29.0135 61.9806 29.0149C61.9077 29.0178 61.8438 29.008 61.7889 28.9858C61.7344 28.9635 61.6921 28.929 61.6618 28.8821C61.6315 28.8352 61.6165 28.776 61.617 28.7045V27.6477ZM62.3219 29V27.9091H62.6245V29H62.3219ZM62.4739 27.7685C62.4289 27.7685 62.3903 27.7536 62.3581 27.7237C62.3264 27.6934 62.3105 27.6572 62.3105 27.6151C62.3105 27.5734 62.3264 27.5376 62.3581 27.5078C62.3903 27.4775 62.4289 27.4624 62.4739 27.4624C62.5189 27.4624 62.5572 27.4775 62.589 27.5078C62.6212 27.5376 62.6373 27.5734 62.6373 27.6151C62.6373 27.6572 62.6212 27.6934 62.589 27.7237C62.5572 27.7536 62.5189 27.7685 62.4739 27.7685ZM63.8839 27.9091L63.5025 29H63.1616L62.7802 27.9091H63.0998L63.3263 28.6896H63.3377L63.5636 27.9091H63.8839ZM64.5007 29.0213C64.3885 29.0213 64.2919 28.9986 64.2109 28.9531C64.1304 28.9072 64.0684 28.8423 64.0249 28.7585C63.9813 28.6742 63.9595 28.5746 63.9595 28.4595C63.9595 28.3473 63.9813 28.2488 64.0249 28.1641C64.0684 28.0793 64.1297 28.0133 64.2088 27.9659C64.2884 27.9186 64.3816 27.8949 64.4886 27.8949C64.5606 27.8949 64.6276 27.9065 64.6896 27.9297C64.7521 27.9524 64.8066 27.9867 64.853 28.0327C64.8999 28.0786 64.9363 28.1364 64.9624 28.206C64.9884 28.2751 65.0014 28.3561 65.0014 28.4489V28.532H64.0803V28.3445H64.7166C64.7166 28.3009 64.7071 28.2623 64.6882 28.2287C64.6693 28.1951 64.643 28.1688 64.6094 28.1499C64.5762 28.1304 64.5376 28.1207 64.4936 28.1207C64.4477 28.1207 64.407 28.1314 64.3714 28.1527C64.3364 28.1735 64.3089 28.2017 64.2891 28.2372C64.2692 28.2723 64.259 28.3113 64.2585 28.3544V28.5327C64.2585 28.5866 64.2685 28.6333 64.2884 28.6726C64.3087 28.7119 64.3374 28.7422 64.3743 28.7635C64.4112 28.7848 64.455 28.7955 64.5057 28.7955C64.5393 28.7955 64.5701 28.7907 64.598 28.7812C64.6259 28.7718 64.6499 28.7576 64.6697 28.7386C64.6896 28.7197 64.7048 28.6965 64.7152 28.669L64.995 28.6875C64.9808 28.7547 64.9517 28.8134 64.9077 28.8636C64.8641 28.9134 64.8078 28.9522 64.7386 28.9801C64.67 29.0076 64.5907 29.0213 64.5007 29.0213Z" fill="black"/>
<path d="M34 18.5H67C68.933 18.5 70.5 20.067 70.5 22V58C70.5 59.933 68.933 61.5 67 61.5H34C32.067 61.5 30.5 59.933 30.5 58V22C30.5 20.067 32.067 18.5 34 18.5Z" stroke="black"/>
<path d="M75.5785 3.8892C72.978 0.199001 69.5641 0.816001 67.4447 0.638201C64.5035 0.683201 61.5485 0.704501 58.5941 0.719801C58.5385 0.683401 58.4753 0.657001 58.4056 0.645001C58.2751 0.621201 58.1466 0.654401 58.0429 0.724801C50.8897 0.757301 43.9638 0.720001 35.4633 0.537601C32.0937 0.465901 29.2113 0.460001 26.7504 2.9868C25.394 4.3794 24.7104 5.9819 24.7172 7.7495C25.0243 81.4145 24.9965 81.1921 25.0356 81.6782C25.4044 86.0116 23.8116 91.9745 27.27 95.3354C29.1362 97.1479 31.2573 97.2084 33.5044 97.2729C62.7421 97.4473 68.0706 97.4819 68.6499 97.4819C71.7476 97.4819 75.4185 96.9067 76.3188 92.4214C76.9448 89.3023 76.7836 84.9224 76.6274 80.687C76.2412 70.0345 76.0497 40.933 77.0737 16.7358C77.4535 7.7739 77.5024 6.6226 75.5785 3.8892ZM73.2777 90.4956C72.8295 92.6431 71.3558 93.063 68.9613 93.063C30.029 93.063 30.6654 93.0913 29.3431 91.7232C27.6469 89.9719 28.2034 85.3004 28.1624 82.7984L27.8266 7.7407C27.8072 5.8176 29.531 3.5991 33.5952 3.5991C33.9793 3.5991 35.5037 3.6662 35.4477 3.6372C37.9545 3.6977 40.4526 3.7388 42.9594 3.769C43.4355 5.2682 44.4093 6.1778 45.3608 6.4946C46.1437 6.7528 46.9557 6.6643 47.768 6.5913C53.6232 6.1214 56.3715 7.9297 58.0864 3.9976C58.1098 3.9449 58.1323 3.8912 58.1538 3.8365C61.272 3.8238 64.3979 3.7828 67.5356 3.7427C69.4735 3.7427 71.4608 3.4443 73.0424 5.6773C74.4135 7.6255 74.3481 8.9293 73.9897 16.1695C72.046 55.3855 74.2462 85.6356 73.2777 90.4956ZM57.7009 1.7281C57.6034 2.2343 57.496 2.7208 57.3324 3.1782C57.2836 3.3227 57.226 3.4673 57.1693 3.6001C55.7312 6.8879 53.3991 5.1299 47.6839 5.5952C47.2191 5.6268 46.2857 5.746 45.6751 5.5454C44.7158 5.2251 44.0803 4.201 43.8177 3.1294C43.6746 2.6532 43.59 2.1492 43.5175 1.6622C44.9187 1.6794 49.0366 1.7639 57.7009 1.7281ZM76.0746 16.6929C75.0486 40.9042 75.2374 70.0823 75.6283 80.7242C75.7826 84.9019 75.9408 89.2213 75.3383 92.2242C74.5873 95.9664 71.6801 96.482 68.6498 96.482C67.821 96.482 62.5551 96.4462 33.5326 96.273C31.3978 96.2125 29.5531 96.1597 27.9672 94.6187C25.8236 92.5347 25.9301 89.0796 26.0238 86.0308C26.0443 85.3726 26.0638 84.731 26.0609 84.1245C26.0521 81.8432 26.0433 81.729 26.0326 81.5981C25.9981 81.1837 26.0213 80.6702 25.7172 7.7456C25.7113 6.228 26.2836 4.8989 27.4672 3.6841C29.6734 1.4191 32.3299 1.4708 35.4897 1.5386C37.8269 1.5887 40.1644 1.615 42.5019 1.6466C42.5551 2.013 42.6226 2.3899 42.7031 2.7649C40.2896 2.7346 37.8781 2.696 35.3813 2.6431C35.1788 2.6729 34.4409 2.5992 33.5952 2.5992C28.9069 2.5992 26.8037 5.3356 26.8266 7.7476L27.1625 82.8091C27.2072 85.5007 26.5786 90.3036 28.6244 92.4185C30.2957 94.1463 29.0304 94.063 68.9613 94.063C71.348 94.063 73.64 93.6558 74.2572 90.6948C75.289 85.5161 73.0096 56.087 74.9886 16.2192C75.3616 8.6879 75.429 7.3305 73.8597 5.1001C72.2617 2.8468 70.1846 2.5697 67.4789 2.7427C64.4918 2.7818 61.4765 2.8171 58.4676 2.831C58.5642 2.4677 58.6506 2.0973 58.7202 1.7188C61.6374 1.7034 64.5554 1.6827 67.4604 1.6383C69.0643 1.5779 70.3119 1.5197 71.5961 2.0182C72.8754 2.5153 73.9994 3.3834 74.7602 4.4655C76.4897 6.9204 76.4496 7.8452 76.0746 16.6929Z" fill="white"/>
<path d="M35 55C35 53.3431 36.3431 52 38 52H63C64.6569 52 66 53.3431 66 55V55C66 56.6569 64.6569 58 63 58H38C36.3431 58 35 56.6569 35 55V55Z" fill="#00C6FF"/>
<path d="M48.3894 54.9091C48.3894 55.147 48.3443 55.3494 48.2541 55.5163C48.1646 55.6832 48.0425 55.8107 47.8877 55.8988C47.7335 55.9862 47.5602 56.0298 47.3678 56.0298C47.1739 56.0298 46.9999 55.9858 46.8457 55.8977C46.6916 55.8097 46.5698 55.6822 46.4803 55.5153C46.3908 55.3484 46.3461 55.1463 46.3461 54.9091C46.3461 54.6712 46.3908 54.4688 46.4803 54.3018C46.5698 54.1349 46.6916 54.0078 46.8457 53.9205C46.9999 53.8324 47.1739 53.7884 47.3678 53.7884C47.5602 53.7884 47.7335 53.8324 47.8877 53.9205C48.0425 54.0078 48.1646 54.1349 48.2541 54.3018C48.3443 54.4688 48.3894 54.6712 48.3894 54.9091ZM47.9217 54.9091C47.9217 54.755 47.8987 54.625 47.8525 54.5192C47.807 54.4134 47.7428 54.3331 47.6597 54.2784C47.5766 54.2237 47.4793 54.1964 47.3678 54.1964C47.2563 54.1964 47.159 54.2237 47.0759 54.2784C46.9928 54.3331 46.9281 54.4134 46.882 54.5192C46.8365 54.625 46.8138 54.755 46.8138 54.9091C46.8138 55.0632 46.8365 55.1932 46.882 55.299C46.9281 55.4048 46.9928 55.4851 47.0759 55.5398C47.159 55.5945 47.2563 55.6218 47.3678 55.6218C47.4793 55.6218 47.5766 55.5945 47.6597 55.5398C47.7428 55.4851 47.807 55.4048 47.8525 55.299C47.8987 55.1932 47.9217 55.0632 47.9217 54.9091ZM48.7311 56V53.8182H49.1924V54.7802H49.2212L50.0063 53.8182H50.5593L49.7496 54.7951L50.5688 56H50.017L49.4193 55.103L49.1924 55.38V56H48.7311ZM51.1756 56H50.6812L51.4344 53.8182H52.0289L52.781 56H52.2867L51.7402 54.3168H51.7231L51.1756 56ZM51.1447 55.1424H52.3123V55.5025H51.1447V55.1424ZM52.6931 53.8182H53.2098L53.7073 54.7578H53.7286L54.2262 53.8182H54.7429L53.947 55.2287V56H53.4889V55.2287L52.6931 53.8182Z" fill="white"/>
<circle cx="36" cy="28" r="1.75" fill="white" stroke="#00C6FF" stroke-width="0.5"/>
<circle cx="36" cy="28" r="1" fill="#00C6FF"/>
<path d="M39.3771 29H39.0476L39.5497 27.5455H39.946L40.4474 29H40.1179L39.7536 27.8778H39.7422L39.3771 29ZM39.3565 28.4283H40.1349V28.6683H39.3565V28.4283ZM41.0589 29.0213C40.9472 29.0213 40.8511 28.9976 40.7706 28.9503C40.6906 28.9025 40.629 28.8362 40.5859 28.7514C40.5433 28.6667 40.522 28.5691 40.522 28.4588C40.522 28.3471 40.5436 28.2491 40.5866 28.1648C40.6302 28.08 40.692 28.014 40.772 27.9666C40.852 27.9188 40.9472 27.8949 41.0575 27.8949C41.1527 27.8949 41.236 27.9122 41.3075 27.9467C41.379 27.9813 41.4356 28.0298 41.4773 28.0923C41.5189 28.1548 41.5419 28.2282 41.5462 28.3125H41.2607C41.2526 28.258 41.2313 28.2143 41.1967 28.1811C41.1626 28.1475 41.1179 28.1307 41.0625 28.1307C41.0156 28.1307 40.9747 28.1435 40.9396 28.169C40.9051 28.1941 40.8781 28.2308 40.8587 28.2791C40.8393 28.3274 40.8295 28.3859 40.8295 28.4545C40.8295 28.5241 40.839 28.5833 40.858 28.6321C40.8774 28.6809 40.9046 28.718 40.9396 28.7436C40.9747 28.7692 41.0156 28.782 41.0625 28.782C41.0971 28.782 41.1281 28.7749 41.1555 28.7607C41.1835 28.7464 41.2064 28.7259 41.2244 28.6989C41.2429 28.6714 41.255 28.6385 41.2607 28.6001H41.5462C41.5414 28.6835 41.5187 28.7569 41.478 28.8203C41.4377 28.8833 41.3821 28.9325 41.3111 28.968C41.2401 29.0036 41.156 29.0213 41.0589 29.0213ZM42.3201 27.9091V28.1364H41.6632V27.9091H42.3201ZM41.8123 27.6477H42.1149V28.6648C42.1149 28.6927 42.1191 28.7145 42.1277 28.7301C42.1362 28.7453 42.148 28.7559 42.1632 28.7621C42.1788 28.7682 42.1968 28.7713 42.2172 28.7713C42.2314 28.7713 42.2456 28.7701 42.2598 28.7678C42.274 28.7649 42.2849 28.7628 42.2924 28.7614L42.34 28.9865C42.3249 28.9912 42.3036 28.9967 42.2761 29.0028C42.2486 29.0095 42.2153 29.0135 42.176 29.0149C42.103 29.0178 42.0391 29.008 41.9842 28.9858C41.9297 28.9635 41.8874 28.929 41.8571 28.8821C41.8268 28.8352 41.8118 28.776 41.8123 28.7045V27.6477ZM42.5172 29V27.9091H42.8198V29H42.5172ZM42.6692 27.7685C42.6242 27.7685 42.5856 27.7536 42.5534 27.7237C42.5217 27.6934 42.5059 27.6572 42.5059 27.6151C42.5059 27.5734 42.5217 27.5376 42.5534 27.5078C42.5856 27.4775 42.6242 27.4624 42.6692 27.4624C42.7142 27.4624 42.7525 27.4775 42.7843 27.5078C42.8165 27.5376 42.8326 27.5734 42.8326 27.6151C42.8326 27.6572 42.8165 27.6934 42.7843 27.7237C42.7525 27.7536 42.7142 27.7685 42.6692 27.7685ZM44.0792 27.9091L43.6978 29H43.3569L42.9755 27.9091H43.2951L43.5217 28.6896H43.533L43.7589 27.9091H44.0792ZM44.696 29.0213C44.5838 29.0213 44.4872 28.9986 44.4062 28.9531C44.3258 28.9072 44.2637 28.8423 44.2202 28.7585C44.1766 28.6742 44.1548 28.5746 44.1548 28.4595C44.1548 28.3473 44.1766 28.2488 44.2202 28.1641C44.2637 28.0793 44.325 28.0133 44.4041 27.9659C44.4837 27.9186 44.5769 27.8949 44.6839 27.8949C44.7559 27.8949 44.8229 27.9065 44.8849 27.9297C44.9474 27.9524 45.0019 27.9867 45.0483 28.0327C45.0952 28.0786 45.1316 28.1364 45.1577 28.206C45.1837 28.2751 45.1967 28.3561 45.1967 28.4489V28.532H44.2756V28.3445H44.9119C44.9119 28.3009 44.9025 28.2623 44.8835 28.2287C44.8646 28.1951 44.8383 28.1688 44.8047 28.1499C44.7715 28.1304 44.733 28.1207 44.6889 28.1207C44.643 28.1207 44.6023 28.1314 44.5668 28.1527C44.5317 28.1735 44.5043 28.2017 44.4844 28.2372C44.4645 28.2723 44.4543 28.3113 44.4538 28.3544V28.5327C44.4538 28.5866 44.4638 28.6333 44.4837 28.6726C44.504 28.7119 44.5327 28.7422 44.5696 28.7635C44.6065 28.7848 44.6503 28.7955 44.701 28.7955C44.7346 28.7955 44.7654 28.7907 44.7933 28.7812C44.8213 28.7718 44.8452 28.7576 44.8651 28.7386C44.8849 28.7197 44.9001 28.6965 44.9105 28.669L45.1903 28.6875C45.1761 28.7547 45.147 28.8134 45.103 28.8636C45.0594 28.9134 45.0031 28.9522 44.9339 28.9801C44.8653 29.0076 44.786 29.0213 44.696 29.0213Z" fill="black"/>
<rect x="34" y="40" width="3" height="3" fill="#00C6FF"/>
<path d="M36.7689 40L35.2112 42.5362L34.1778 41.5822L34 41.8286L35.2689 43L37 40.1814L36.7689 40Z" fill="white"/>
<path d="M39.4098 41.0547H39.0987C39.093 41.0144 39.0814 40.9787 39.0639 40.9474C39.0464 40.9157 39.0239 40.8887 38.9964 40.8665C38.969 40.8442 38.9373 40.8272 38.9013 40.8153C38.8658 40.8035 38.8272 40.7976 38.7855 40.7976C38.7102 40.7976 38.6446 40.8163 38.5888 40.8537C38.5329 40.8906 38.4896 40.9446 38.4588 41.0156C38.428 41.0862 38.4126 41.1719 38.4126 41.2727C38.4126 41.3764 38.428 41.4635 38.4588 41.5341C38.4901 41.6046 38.5336 41.6579 38.5895 41.6939C38.6454 41.7299 38.71 41.7479 38.7834 41.7479C38.8246 41.7479 38.8627 41.7424 38.8977 41.7315C38.9332 41.7206 38.9647 41.7048 38.9922 41.6839C39.0196 41.6626 39.0424 41.6368 39.0604 41.6065C39.0788 41.5762 39.0916 41.5417 39.0987 41.5028L39.4098 41.5043C39.4018 41.571 39.3816 41.6354 39.3494 41.6974C39.3177 41.759 39.2749 41.8142 39.2209 41.8629C39.1674 41.9112 39.1035 41.9496 39.0291 41.978C38.9553 42.0059 38.8717 42.0199 38.7784 42.0199C38.6487 42.0199 38.5327 41.9905 38.4304 41.9318C38.3286 41.8731 38.2481 41.7881 38.1889 41.6768C38.1302 41.5656 38.1009 41.4309 38.1009 41.2727C38.1009 41.1141 38.1307 40.9792 38.1903 40.8679C38.25 40.7566 38.331 40.6719 38.4332 40.6136C38.5355 40.5549 38.6506 40.5256 38.7784 40.5256C38.8627 40.5256 38.9408 40.5374 39.0128 40.5611C39.0852 40.5848 39.1494 40.6193 39.2053 40.6648C39.2611 40.7098 39.3066 40.7649 39.3416 40.8303C39.3771 40.8956 39.3999 40.9704 39.4098 41.0547ZM39.9272 41.3693V42H39.6246V40.5455H39.9187V41.1016H39.9315C39.9561 41.0372 39.9959 40.9867 40.0508 40.9503C40.1057 40.9134 40.1746 40.8949 40.2575 40.8949C40.3332 40.8949 40.3993 40.9115 40.4556 40.9446C40.5124 40.9773 40.5565 41.0244 40.5877 41.0859C40.6194 41.147 40.6351 41.2202 40.6346 41.3054V42H40.332V41.3594C40.3325 41.2921 40.3155 41.2398 40.2809 41.2024C40.2468 41.165 40.199 41.1463 40.1374 41.1463C40.0962 41.1463 40.0598 41.1551 40.0281 41.1726C39.9968 41.1901 39.9722 41.2157 39.9542 41.2493C39.9367 41.2824 39.9277 41.3224 39.9272 41.3693ZM41.3699 42.0213C41.2576 42.0213 41.161 41.9986 41.0801 41.9531C40.9996 41.9072 40.9376 41.8423 40.894 41.7585C40.8504 41.6742 40.8287 41.5746 40.8287 41.4595C40.8287 41.3473 40.8504 41.2488 40.894 41.1641C40.9376 41.0793 40.9989 41.0133 41.0779 40.9659C41.1575 40.9186 41.2508 40.8949 41.3578 40.8949C41.4297 40.8949 41.4967 40.9065 41.5588 40.9297C41.6213 40.9524 41.6757 40.9867 41.7221 41.0327C41.769 41.0786 41.8055 41.1364 41.8315 41.206C41.8575 41.2751 41.8706 41.3561 41.8706 41.4489V41.532H40.9494V41.3445H41.5858C41.5858 41.3009 41.5763 41.2623 41.5574 41.2287C41.5384 41.1951 41.5121 41.1688 41.4785 41.1499C41.4454 41.1304 41.4068 41.1207 41.3627 41.1207C41.3168 41.1207 41.2761 41.1314 41.2406 41.1527C41.2056 41.1735 41.1781 41.2017 41.1582 41.2372C41.1383 41.2723 41.1281 41.3113 41.1277 41.3544V41.5327C41.1277 41.5866 41.1376 41.6333 41.1575 41.6726C41.1779 41.7119 41.2065 41.7422 41.2434 41.7635C41.2804 41.7848 41.3242 41.7955 41.3748 41.7955C41.4084 41.7955 41.4392 41.7907 41.4672 41.7812C41.4951 41.7718 41.519 41.7576 41.5389 41.7386C41.5588 41.7197 41.5739 41.6965 41.5843 41.669L41.8642 41.6875C41.85 41.7547 41.8208 41.8134 41.7768 41.8636C41.7333 41.9134 41.6769 41.9522 41.6078 41.9801C41.5391 42.0076 41.4598 42.0213 41.3699 42.0213ZM42.5609 42.0213C42.4492 42.0213 42.353 41.9976 42.2725 41.9503C42.1925 41.9025 42.131 41.8362 42.0879 41.7514C42.0453 41.6667 42.024 41.5691 42.024 41.4588C42.024 41.3471 42.0455 41.2491 42.0886 41.1648C42.1322 41.08 42.194 41.014 42.274 40.9666C42.354 40.9188 42.4492 40.8949 42.5595 40.8949C42.6547 40.8949 42.738 40.9122 42.8095 40.9467C42.881 40.9813 42.9376 41.0298 42.9792 41.0923C43.0209 41.1548 43.0439 41.2282 43.0481 41.3125H42.7626C42.7546 41.258 42.7333 41.2143 42.6987 41.1811C42.6646 41.1475 42.6199 41.1307 42.5645 41.1307C42.5176 41.1307 42.4766 41.1435 42.4416 41.169C42.407 41.1941 42.38 41.2308 42.3606 41.2791C42.3412 41.3274 42.3315 41.3859 42.3315 41.4545C42.3315 41.5241 42.341 41.5833 42.3599 41.6321C42.3793 41.6809 42.4065 41.718 42.4416 41.7436C42.4766 41.7692 42.5176 41.782 42.5645 41.782C42.599 41.782 42.63 41.7749 42.6575 41.7607C42.6854 41.7464 42.7084 41.7259 42.7264 41.6989C42.7449 41.6714 42.7569 41.6385 42.7626 41.6001H43.0481C43.0434 41.6835 43.0207 41.7569 42.9799 41.8203C42.9397 41.8833 42.8841 41.9325 42.813 41.968C42.742 42.0036 42.658 42.0213 42.5609 42.0213ZM43.516 41.6861L43.5167 41.3232H43.5607L43.9102 40.9091H44.2575L43.788 41.4574H43.7163L43.516 41.6861ZM43.2418 42V40.5455H43.5444V42H43.2418ZM43.9237 42L43.6026 41.5249L43.8043 41.3111L44.2781 42H43.9237ZM44.4116 42V40.5455H44.994C45.101 40.5455 45.1902 40.5613 45.2617 40.593C45.3332 40.6248 45.387 40.6688 45.4229 40.7251C45.4589 40.781 45.4769 40.8454 45.4769 40.9183C45.4769 40.9751 45.4656 41.0251 45.4428 41.0682C45.4201 41.1108 45.3888 41.1458 45.3491 41.1733C45.3098 41.2003 45.2648 41.2195 45.2141 41.2308V41.245C45.2695 41.2474 45.3214 41.263 45.3697 41.2919C45.4184 41.3208 45.458 41.3613 45.4883 41.4134C45.5186 41.465 45.5337 41.5265 45.5337 41.598C45.5337 41.6752 45.5146 41.7441 45.4762 41.8047C45.4383 41.8648 45.3822 41.9124 45.3079 41.9474C45.2335 41.9825 45.1419 42 45.033 42H44.4116ZM44.7191 41.7486H44.9698C45.0555 41.7486 45.118 41.7322 45.1573 41.6996C45.1966 41.6664 45.2163 41.6224 45.2163 41.5675C45.2163 41.5272 45.2066 41.4917 45.1871 41.4609C45.1677 41.4302 45.14 41.406 45.104 41.3885C45.0685 41.371 45.0262 41.3622 44.9769 41.3622H44.7191V41.7486ZM44.7191 41.1541H44.9471C44.9892 41.1541 45.0266 41.1468 45.0593 41.1321C45.0924 41.117 45.1185 41.0956 45.1374 41.0682C45.1568 41.0407 45.1665 41.0078 45.1665 40.9695C45.1665 40.9169 45.1478 40.8745 45.1104 40.8423C45.0735 40.8101 45.021 40.794 44.9528 40.794H44.7191V41.1541ZM46.2211 42.0213C46.1107 42.0213 46.0153 41.9979 45.9348 41.951C45.8548 41.9036 45.793 41.8378 45.7495 41.7536C45.7059 41.6688 45.6841 41.5705 45.6841 41.4588C45.6841 41.3461 45.7059 41.2476 45.7495 41.1634C45.793 41.0786 45.8548 41.0128 45.9348 40.9659C46.0153 40.9186 46.1107 40.8949 46.2211 40.8949C46.3314 40.8949 46.4266 40.9186 46.5066 40.9659C46.5871 41.0128 46.6491 41.0786 46.6926 41.1634C46.7362 41.2476 46.758 41.3461 46.758 41.4588C46.758 41.5705 46.7362 41.6688 46.6926 41.7536C46.6491 41.8378 46.5871 41.9036 46.5066 41.951C46.4266 41.9979 46.3314 42.0213 46.2211 42.0213ZM46.2225 41.7869C46.2727 41.7869 46.3146 41.7727 46.3482 41.7443C46.3818 41.7154 46.4071 41.6761 46.4242 41.6264C46.4417 41.5767 46.4505 41.5201 46.4505 41.4567C46.4505 41.3932 46.4417 41.3366 46.4242 41.2869C46.4071 41.2372 46.3818 41.1979 46.3482 41.169C46.3146 41.1402 46.2727 41.1257 46.2225 41.1257C46.1718 41.1257 46.1292 41.1402 46.0946 41.169C46.0605 41.1979 46.0347 41.2372 46.0172 41.2869C46.0002 41.3366 45.9917 41.3932 45.9917 41.4567C45.9917 41.5201 46.0002 41.5767 46.0172 41.6264C46.0347 41.6761 46.0605 41.7154 46.0946 41.7443C46.1292 41.7727 46.1718 41.7869 46.2225 41.7869ZM47.1685 40.9091L47.3688 41.2905L47.574 40.9091H47.8844L47.5684 41.4545L47.8929 42H47.584L47.3688 41.6229L47.1571 42H46.8446L47.1685 41.4545L46.856 40.9091H47.1685Z" fill="black"/>
</g>
<defs>
<clipPath id="clip0_1_2">
<rect width="98" height="98" fill="white" transform="translate(2)"/>
</clipPath>
</defs>
</svg>
