<svg width="100" height="100" viewBox="0 0 100 100" fill="none" xmlns="http://www.w3.org/2000/svg">
<path d="M75.8286 92.3225C74.7573 97.6579 69.6101 96.9776 66.1404 96.9281C64.3089 96.902 62.4774 96.8789 60.6458 96.859C54.7204 96.7945 48.7946 96.7623 42.8689 96.7624C39.9121 96.7625 36.9344 96.8828 33.9797 96.7871C31.6053 96.7102 29.4656 96.7714 27.619 94.977C24.8398 92.2765 25.5756 87.6333 25.5614 84.1267C25.5431 79.6046 25.5247 83.6713 25.5064 79.1492C25.4582 67.249 25.4099 55.3488 25.3617 43.4486C25.3135 31.5484 25.2652 19.6482 25.217 7.748C25.21 6.0202 25.9029 4.5738 27.1085 3.336C29.4857 0.895203 32.398 0.971303 35.5007 1.0383C39.0503 1.115 42.6003 1.1698 46.1506 1.2028C53.2511 1.2688 60.3524 1.2474 67.4524 1.1387C68.9657 1.1155 70.3289 0.990203 71.7767 1.552C73.128 2.0764 74.3331 2.9899 75.1692 4.1772C78.832 9.3781 74.9696 8.4619 76.0032 76.529C76.0827 81.7682 76.6531 88.2163 75.8286 92.3225Z" fill="#30302F"/>
<path d="M73.5041 71.7844C73.838 85.4077 74.0412 87.4846 73.441 90.4983C72.6909 94.0986 69.3014 93.4127 65.8447 93.4127C64.014 93.3811 62.1727 93.3601 60.342 93.339C54.3765 93.2759 48.3899 93.2443 42.5401 93.2443C29.7932 93.2443 26.9619 95.0068 27.3053 84.6695C27.3263 83.9856 27.3474 83.3333 27.3368 82.702L27.0002 7.64689C26.9897 6.55259 27.4 5.61629 28.2944 4.70099C30.5952 2.36449 34.388 3.15579 35.1332 3.03859C37.7635 3.10169 40.3833 3.14379 43.0136 3.17539C43.0873 3.48049 43.1924 3.78559 43.3187 4.06969C43.6974 4.89039 44.3393 5.63739 45.1915 5.92149C45.8964 6.15289 46.6644 6.05829 47.4009 5.99519C48.9475 5.86899 50.5047 5.85839 52.0407 5.98469C53.2191 6.07939 54.4606 6.23719 55.5128 5.72169C56.344 5.31139 56.9331 4.54329 57.3014 3.70159C57.3645 3.55429 57.4277 3.39639 57.4803 3.23869C60.7103 3.22819 63.9508 3.18609 67.1599 3.14399C68.6535 3.15489 71.2607 2.65969 73.1254 5.29039C76.2136 9.68069 72.5236 10.6791 73.5041 71.7844Z" fill="white"/>
<rect x="28" y="78" width="46" height="15" rx="4" fill="#00C6FF"/>
<path d="M75.5785 3.8892C72.978 0.199001 69.5641 0.816001 67.4447 0.638201C64.5035 0.683201 61.5485 0.704501 58.5941 0.719801C58.5385 0.683401 58.4753 0.657001 58.4056 0.645001C58.2751 0.621201 58.1466 0.654401 58.0429 0.724801C50.8897 0.757301 43.9638 0.720001 35.4633 0.537601C32.0937 0.465901 29.2113 0.460001 26.7504 2.9868C25.394 4.3794 24.7104 5.9819 24.7172 7.7495C25.0243 81.4145 24.9965 81.1921 25.0356 81.6782C25.4044 86.0116 23.8116 91.9745 27.27 95.3354C29.1362 97.1479 31.2573 97.2084 33.5044 97.2729C62.7421 97.4473 68.0706 97.4819 68.6499 97.4819C71.7476 97.4819 75.4185 96.9067 76.3188 92.4214C76.9448 89.3023 76.7836 84.9224 76.6274 80.687C76.2412 70.0345 76.0497 40.933 77.0737 16.7358C77.4535 7.7739 77.5024 6.6226 75.5785 3.8892ZM73.2777 90.4956C72.8295 92.6431 71.3558 93.063 68.9613 93.063C30.029 93.063 30.6654 93.0913 29.3431 91.7232C27.6469 89.9719 28.2034 85.3004 28.1624 82.7984L27.8266 7.7407C27.8072 5.8176 29.531 3.5991 33.5952 3.5991C33.9793 3.5991 35.5037 3.6662 35.4477 3.6372C37.9545 3.6977 40.4526 3.7388 42.9594 3.769C43.4355 5.2682 44.4093 6.1778 45.3608 6.4946C46.1437 6.7528 46.9557 6.6643 47.768 6.5913C53.6232 6.1214 56.3715 7.9297 58.0864 3.9976C58.1098 3.9449 58.1323 3.8912 58.1538 3.8365C61.272 3.8238 64.3979 3.7828 67.5356 3.7427C69.4735 3.7427 71.4608 3.4443 73.0424 5.6773C74.4135 7.6255 74.3481 8.9293 73.9897 16.1695C72.046 55.3855 74.2462 85.6356 73.2777 90.4956ZM57.7009 1.7281C57.6034 2.2343 57.496 2.7208 57.3324 3.1782C57.2836 3.3227 57.226 3.4673 57.1693 3.6001C55.7312 6.8879 53.3991 5.1299 47.6839 5.5952C47.2191 5.6268 46.2857 5.746 45.6751 5.5454C44.7158 5.2251 44.0803 4.201 43.8177 3.1294C43.6746 2.6532 43.59 2.1492 43.5175 1.6622C44.9187 1.6794 49.0366 1.7639 57.7009 1.7281ZM76.0746 16.6929C75.0486 40.9042 75.2374 70.0823 75.6283 80.7242C75.7826 84.9019 75.9408 89.2213 75.3383 92.2242C74.5873 95.9664 71.6801 96.482 68.6498 96.482C67.821 96.482 62.5551 96.4462 33.5326 96.273C31.3978 96.2125 29.5531 96.1597 27.9672 94.6187C25.8236 92.5347 25.9301 89.0796 26.0238 86.0308C26.0443 85.3726 26.0638 84.731 26.0609 84.1245C26.0521 81.8432 26.0433 81.729 26.0326 81.5981C25.9981 81.1837 26.0213 80.6702 25.7172 7.7456C25.7113 6.228 26.2836 4.8989 27.4672 3.6841C29.6734 1.4191 32.3299 1.4708 35.4897 1.5386C37.8269 1.5887 40.1644 1.615 42.5019 1.6466C42.5551 2.013 42.6226 2.3899 42.7031 2.7649C40.2896 2.7346 37.8781 2.696 35.3813 2.6431C35.1788 2.6729 34.4409 2.5992 33.5952 2.5992C28.9069 2.5992 26.8037 5.3356 26.8266 7.7476L27.1625 82.8091C27.2072 85.5007 26.5786 90.3036 28.6244 92.4185C30.2957 94.1463 29.0304 94.063 68.9613 94.063C71.348 94.063 73.64 93.6558 74.2572 90.6948C75.289 85.5161 73.0096 56.087 74.9886 16.2192C75.3616 8.6879 75.429 7.3305 73.8597 5.1001C72.2617 2.8468 70.1846 2.5697 67.4789 2.7427C64.4918 2.7818 61.4765 2.8171 58.4676 2.831C58.5642 2.4677 58.6506 2.0973 58.7202 1.7188C61.6374 1.7034 64.5554 1.6827 67.4604 1.6383C69.0643 1.5779 70.3119 1.5197 71.5961 2.0182C72.8754 2.5153 73.9994 3.3834 74.7602 4.4655C76.4897 6.9204 76.4496 7.8452 76.0746 16.6929Z" fill="white"/>
</svg>
