<svg xmlns="http://www.w3.org/2000/svg" width="29.399" height="29.387" viewBox="0 0 29.399 29.387">
  <g id="Group_21" data-name="Group 21" transform="translate(-0.9 -0.91)">
    <path id="Path_310" data-name="Path 310" d="M30.191,9.193c0-.013.008-.025.008-.038a.859.859,0,0,0-.025-.124.891.891,0,0,0-.037-.186,1.7,1.7,0,0,0-.178-.3.9.9,0,0,0-.147-.121.864.864,0,0,0-.1-.08L16.026,1.1a.856.856,0,0,0-.082-.024A.991.991,0,0,0,15.6,1.01a.99.99,0,0,0-.345.07c-.027.011-.055.01-.081.024L1.486,8.349a.864.864,0,0,0-.1.08.9.9,0,0,0-.147.121.877.877,0,0,0-.1.143.878.878,0,0,0-.082.153.891.891,0,0,0-.037.186A.859.859,0,0,0,1,9.155c0,.013.007.025.008.038a.908.908,0,0,0,.036.178.9.9,0,0,0,.051.173c.006.012,0,.025.011.037s.035.03.048.051a.893.893,0,0,0,.244.256.86.86,0,0,0,.1.065.89.89,0,0,0,.418.114H29.286a.89.89,0,0,0,.418-.114.86.86,0,0,0,.1-.065.893.893,0,0,0,.244-.256c.013-.021.037-.029.048-.051s.005-.025.011-.037a.9.9,0,0,0,.051-.173A.908.908,0,0,0,30.191,9.193ZM15.6,2.943l10.013,5.3H5.587Z" transform="translate(0 0)" fill="#fff" stroke="#eaf1ff" stroke-width="0.2"/>
    <path id="Path_311" data-name="Path 311" d="M10.3,21.671a.913.913,0,0,0,.912.912h4.733a.909.909,0,0,0,.321-1.76v-9.81a.909.909,0,0,0-.321-1.76H11.217a.909.909,0,0,0-.321,1.76v9.81A.907.907,0,0,0,10.3,21.671Zm2.417-.912V11.078h1.725v9.681Z" transform="translate(2.016 1.786)" fill="#fff" stroke="#eaf1ff" stroke-width="0.2"/>
    <path id="Path_312" data-name="Path 312" d="M3.82,21.671a.913.913,0,0,0,.912.912H9.466a.909.909,0,0,0,.321-1.76v-9.81a.909.909,0,0,0-.321-1.76H4.733a.909.909,0,0,0-.321,1.76v9.81A.907.907,0,0,0,3.82,21.671Zm2.417-.912V11.078H7.962v9.681Z" transform="translate(0.611 1.786)" fill="#fff" stroke="#eaf1ff" stroke-width="0.2"/>
    <path id="Path_313" data-name="Path 313" d="M16.789,21.671a.913.913,0,0,0,.912.912h4.733a.909.909,0,0,0,.321-1.76v-9.81a.909.909,0,0,0-.321-1.76H17.7a.909.909,0,0,0-.321,1.76v9.81A.907.907,0,0,0,16.789,21.671Zm2.417-.912V11.078h1.725v9.681Z" transform="translate(3.42 1.786)" fill="#fff" stroke="#eaf1ff" stroke-width="0.2"/>
    <path id="Path_314" data-name="Path 314" d="M1.983,22.009a.913.913,0,0,0,.912.912H27.877a.912.912,0,1,0,0-1.825H2.9A.913.913,0,0,0,1.983,22.009Z" transform="translate(0.213 4.351)" fill="#fff" stroke="#eaf1ff" stroke-width="0.2"/>
    <path id="Path_315" data-name="Path 315" d="M29.039,23.5H2.085a.912.912,0,1,0,0,1.825H29.039a.912.912,0,1,0,0-1.825Z" transform="translate(0.037 4.872)" fill="#fff" stroke="#eaf1ff" stroke-width="0.2"/>
  </g>
</svg>
