
<svg width="32" height="32" viewBox="0 0 32 32" fill="currentColor" xmlns="http://www.w3.org/2000/svg">
<path d="M31.9997 14.9132L28.361 9.33324H22.6664C22.6664 5.88527 20.0265 3.07463 16.6665 2.73464V0H15.3332V2.73464C11.9732 3.07463 9.33324 5.88661 9.33324 9.33324H3.63863L0 14.9132V15.9998H1.33332V31.9997H5.33328V23.3331C5.33328 22.9651 5.63327 22.6664 5.99994 22.6664C6.3666 22.6664 6.6666 22.9651 6.6666 23.3331V31.9997H10.6666V25.3331C10.6666 22.3918 13.0585 19.9998 15.9998 19.9998C18.9411 19.9998 21.3331 22.3918 21.3331 25.3331V31.9997H25.3331V23.3331C25.3331 22.9651 25.6331 22.6664 25.9997 22.6664C26.3664 22.6664 26.6664 22.9651 26.6664 23.3331V31.9997H30.6663V15.9998H31.9997V14.9132ZM4.36129 10.6666H10.6666V9.33324C10.6666 6.39193 13.0585 3.99996 15.9998 3.99996C18.9411 3.99996 21.3331 6.39193 21.3331 9.33324V10.6666H27.6384L30.2464 14.6665H1.75198L4.36129 10.6666ZM29.333 30.6663H27.9997V23.3331C27.9997 22.2304 27.1024 21.3331 25.9997 21.3331C24.8971 21.3331 23.9998 22.2304 23.9998 23.3331V30.6663H22.6664V25.3331C22.6664 21.6571 19.6758 18.6665 15.9998 18.6665C12.3239 18.6665 9.33324 21.6571 9.33324 25.3331V30.6663H7.99992V23.3331C7.99992 22.2304 7.10259 21.3331 5.99994 21.3331C4.89728 21.3331 3.99996 22.2304 3.99996 23.3331V30.6663H2.66664V15.9998H29.333V30.6663ZM15.9998 5.33328C13.7945 5.33328 11.9999 7.12793 11.9999 9.33324C11.9999 11.5385 13.7945 13.3332 15.9998 13.3332C18.2051 13.3332 19.9998 11.5385 19.9998 9.33324C19.9998 7.12793 18.2051 5.33328 15.9998 5.33328ZM15.9998 11.9999C14.5292 11.9999 13.3332 10.8039 13.3332 9.33324C13.3332 7.86258 14.5292 6.6666 15.9998 6.6666C17.4705 6.6666 18.6665 7.86258 18.6665 9.33324C18.6665 10.8039 17.4705 11.9999 15.9998 11.9999ZM16.6665 9.05724L17.8051 10.1959L16.8625 11.1386L15.3345 9.61057V7.33459H16.6678V9.05857L16.6665 9.05724Z" />
</svg>
