
<svg width="22" height="22" viewBox="0 0 22 22" fill="currentColor" xmlns="http://www.w3.org/2000/svg">
<path d="M11 22C8.82441 22 6.69767 21.3549 4.88873 20.1462C3.07979 18.9375 1.66989 17.2195 0.83733 15.2095C0.00476615 13.1995 -0.213071 10.9878 0.211367 8.85401C0.635804 6.72022 1.68345 4.76021 3.22183 3.22183C4.76021 1.68345 6.72022 0.635804 8.85401 0.211367C10.9878 -0.213071 13.1995 0.00476615 15.2095 0.83733C17.2195 1.66989 18.9375 3.07979 20.1462 4.88873C21.3549 6.69767 22 8.82441 22 11C21.9969 13.9164 20.8369 16.7125 18.7747 18.7747C16.7125 20.8369 13.9164 21.9969 11 22ZM11 1.83334C9.18701 1.83334 7.41473 2.37095 5.90728 3.3782C4.39983 4.38545 3.22491 5.81708 2.53111 7.49207C1.83731 9.16706 1.65578 11.0102 2.00947 12.7883C2.36317 14.5665 3.23621 16.1998 4.51819 17.4818C5.80017 18.7638 7.43352 19.6368 9.21168 19.9905C10.9898 20.3442 12.8329 20.1627 14.5079 19.4689C16.1829 18.7751 17.6146 17.6002 18.6218 16.0927C19.6291 14.5853 20.1667 12.813 20.1667 11C20.164 8.56967 19.1974 6.23965 17.4789 4.52114C15.7604 2.80264 13.4303 1.83601 11 1.83334Z" />
<path d="M12.8337 17.4167H11.0003V11.0001H9.16699V9.16675H11.0003C11.4866 9.16675 11.9529 9.3599 12.2967 9.70372C12.6405 10.0475 12.8337 10.5139 12.8337 11.0001V17.4167Z" />
<path d="M11 7.33325C11.7594 7.33325 12.375 6.71764 12.375 5.95825C12.375 5.19886 11.7594 4.58325 11 4.58325C10.2406 4.58325 9.625 5.19886 9.625 5.95825C9.625 6.71764 10.2406 7.33325 11 7.33325Z" />
</svg>
