<svg xmlns="http://www.w3.org/2000/svg" width="298.703" height="215.128" viewBox="0 0 298.703 215.128">
  <g id="undraw_signal_searching_re_yl8n" transform="translate(0 0.006)">
    <path id="Path_8955" data-name="Path 8955" d="M81.251,435.893a1.168,1.168,0,0,1-.847-2.025l.08-.318-.032-.076a3.138,3.138,0,0,0-5.788.021c-.947,2.28-2.152,4.564-2.449,6.975a9.283,9.283,0,0,0,.163,3.193A37.218,37.218,0,0,1,68.993,428.2a35.92,35.92,0,0,1,.223-4.007q.185-1.636.512-3.249a37.649,37.649,0,0,1,7.466-15.957,10.019,10.019,0,0,0,4.167-4.323,7.643,7.643,0,0,0,.7-2.089,9.432,9.432,0,0,1-.612-3.253c-.283-.429-.789-.642-1.1-1.061-1.536-2.082-3.651-1.718-4.756,1.111-2.359,1.191-2.382,3.166-.935,5.065.921,1.208,1.048,2.843,1.856,4.137-.083.106-.17.21-.253.316A37.89,37.89,0,0,0,72.3,411.16a15.752,15.752,0,0,0-.94-7.316c-.9-2.171-2.587-4-4.073-5.878a3.233,3.233,0,0,0-5.759,1.588l-.009.083q.331.187.648.4a1.585,1.585,0,0,1-.639,2.884l-.032.005a15.772,15.772,0,0,0,.416,2.358c-1.906,7.371,2.209,10.056,8.085,10.177.13.066.256.133.386.2a38.677,38.677,0,0,0-2.082,9.8,36.684,36.684,0,0,0,.027,5.923l-.01-.07a9.693,9.693,0,0,0-3.309-5.6c-2.546-2.092-6.144-2.862-8.891-4.544a1.819,1.819,0,0,0-2.786,1.77l.011.073a10.646,10.646,0,0,1,1.194.575q.331.187.648.4a1.585,1.585,0,0,1-.639,2.884l-.032,0-.066.01a15.784,15.784,0,0,0,2.9,4.546c1.192,6.435,6.311,7.045,11.786,5.171h0a38.664,38.664,0,0,0,2.6,7.582h9.279c.033-.1.063-.21.093-.313a10.543,10.543,0,0,1-2.567-.153c.688-.845,1.377-1.7,2.065-2.541a.571.571,0,0,0,.043-.05c.349-.432.7-.861,1.051-1.294h0a15.442,15.442,0,0,0-.452-3.934h0Z" transform="translate(-31.127 -229.396)" fill="#e4e4e4"/>
    <path id="Path_8956" data-name="Path 8956" d="M146.07,264.854h14.973c2.561-8.622.014-29,3.389-37.329,6.476-15.97,14.749-32.82,30.19-40.617a45.358,45.358,0,0,1,21.123-4.559c10.141.1,20.568,2.818,30.113,6.426,3.9,1.472,7.774,3.092,11.628,4.746,14.52,6.239,28.881,13.035,44.5,14.872,19.758,2.323,42.988-6.517,48.385-25.558,4.119-14.578-3.3-29.713-11.078-42.732s-16.474-26.95-15.054-42.024c.005-.051.01-.106.02-.157.535-5.414,3.767-9.305,8.283-11.8H312.875c-.26,14.062,7.876,26.474,15.2,38.73,7.779,13.015,15.2,28.154,11.078,42.732-5.4,19.036-50.082-3.278-69.84-5.606-5.58-.653,3.284,1.67-2.036,0-8.344-2.616-9.269,21.378-17.389,17.856-5.055-2.2-10.116-4.377-15.242-6.315-2.123-.8-4.292-1.559-6.486-2.257a.015.015,0,0,1-.01-.005c-14.733-4.665-30.846-6.482-44.46.263l-.28.137c-15.441,7.792-23.714,24.642-30.19,40.612-5.351,13.2-4.509,38.659-7.146,52.585Z" transform="translate(-85.274 -50.281)" fill="#e4e4e4"/>
    <path id="Path_8957" data-name="Path 8957" d="M254.573,323.187C181.5,324.735,179.9,292.726,179.9,254.655S213.22,186.8,254.512,186.8,328.6,216.572,328.6,254.643,295.864,323.187,254.573,323.187Z" transform="translate(-105.022 -109.055)" fill="#fff"/>
    <path id="Path_8958" data-name="Path 8958" d="M253.573,322.518C180.5,324.066,178.9,292.058,178.9,253.986s33.594-69.044,74.885-69.044,74.885,30.973,74.885,69.044S294.864,322.518,253.573,322.518Zm.211-135.677c-40.156,0-72.149,30.126-72.825,67.145-.629,34.432,39.043,77.4,72.825,67.145,18.116-18.4,69.336-38.209,72.825-67.145,4.437-36.8-32.669-67.145-72.825-67.145Z" transform="translate(-104.438 -107.97)" fill="#cacaca"/>
    <path id="Path_8959" data-name="Path 8959" d="M0,514.981a.494.494,0,0,0,.5.5H298.208a.5.5,0,1,0,0-.991H.5a.494.494,0,0,0-.5.5Z" transform="translate(0 -300.354)" fill="#ccc"/>
    <path id="Path_8960" data-name="Path 8960" d="M471.333,472.63h-5.141l-2.446-19.83h7.588Z" transform="translate(-270.729 -264.342)" fill="#ffb6b6"/>
    <path id="Path_8961" data-name="Path 8961" d="M460.234,501.346H444.425v-.2a6.154,6.154,0,0,1,6.153-6.153h0l2.888-2.191,5.388,2.191h1.38v6.354Z" transform="translate(-259.45 -287.695)" fill="#2f2e41"/>
    <path id="Path_8962" data-name="Path 8962" d="M312.685,359.776A76.567,76.567,0,0,0,292.7,345.787l-3.757,4.241,2.393-4.886a76.565,76.565,0,0,0-62.871-.332l1.952,4.24-3-3.768a76.512,76.512,0,0,0-20.95,14.4,3.471,3.471,0,0,0-1.092,2.246,3.265,3.265,0,0,0,.956,2.535c.945.447,2.291,1.474,4.291,4.291a3.3,3.3,0,0,0,4.612.028,63.685,63.685,0,0,1,88.588,0,3.3,3.3,0,0,0,4.612-.028c2.013-1.81,2.483-4.369,4.212-4.212a3.43,3.43,0,0,0,1.037-2.227,3.281,3.281,0,0,0-1-2.543Z" transform="translate(-119.893 -197.454)" fill="#5c98e9"/>
    <path id="Path_8963" data-name="Path 8963" d="M358.39,377.017h-5.141l-2.446-19.83h7.588Z" transform="translate(-204.794 -208.525)" fill="#ffb6b6"/>
    <path id="Path_8964" data-name="Path 8964" d="M347.291,405.733H331.482v-.2a6.154,6.154,0,0,1,6.153-6.153h0l2.888-2.191,5.388,2.191h1.38v6.354Z" transform="translate(-193.515 -231.877)" fill="#2f2e41"/>
    <path id="Path_8965" data-name="Path 8965" d="M400.334,229.417l-36.485,3.812-8.965,8.858-14.26,4.656a9.272,9.272,0,0,0-6.386,8.421c-.371,8.7-1.1,23.137-1.879,22.985-1.107-.216,1.106,5.195,2.656,4.881s3.162,3.214,2.091,3.841.714,5.994.714,5.994l11.168-1.8c1.4-10.544,6.5-21.658.486-29.417,10.191-3.307,19.169-6.072,25.77-7.777l3.57-1.481h0l7.413,78.761,10.483.172c2.893-14.88,4.346-28.272,2.085-37.826,0,0,.325-28.7,1.565-28.387s.189-3.425.189-3.425-1.086-3.184.248-4.505.5-9.091.5-9.091c2.2-7.353,1.541-13.424-.962-18.673Z" transform="translate(-193.853 -133.934)" fill="#2f2e41"/>
    <path id="Path_8966" data-name="Path 8966" d="M447.91,115.486l1.084-4.862h0q1.522-6.808,3.04-13.609c1.328-5.941,2.662-12.089,1.52-18.068a17.95,17.95,0,0,0-.717-2.646c-1.711-4.894-5.49-9.183-10.5-10.086l-.819-3.05-11.181-1.376-2.116,2.918c-4.555-.364-7.258,4.171-10.4,7.908l-1.249,1.249c-.91,1.138-1.1,5.414-1.665,6.659-2.527,5.54.955.156.832,6.243-.127,6.308-1.367,12.429-1.494,18.736-.014.677-1.47,1.193-1.721,2.379-.135.64.993,1.828.822,2.544-.146.611.583,3.067.427,3.7-.726,2.93-2.37,4.084-2.442,5.529a9.3,9.3,0,0,1-.248,1.649c-.09.384-1.35-.076-1.473.314-.206.655.7,2.164.452,2.82-.481,1.269-.158,3.511-.452,4.672-1.237,4.87-.762,2.938-3.444,7.187,6.865,2.075,9.83,9.026,16.892,10.277q.477-1.543.952-3.094c.936.06,1.878.116,2.82.168h0c.053.9.106,1.8.159,2.689a182.517,182.517,0,0,0,21.5.117,17.078,17.078,0,0,1-.574-2.2c-.393-2.073.452-4.32.542-6.372.064-1.52-.659-2.811-.638-4.448.005-.3,1.706-.558,1.7-.866-.027-2.721-1.573-6.361-1.063-9.034.531-2.747-1.153-5.314-.548-8.045h0Z" transform="translate(-237.115 -36.074)" fill="#5c98e9"/>
    <path id="Path_8967" data-name="Path 8967" d="M375.79,32.905a3.58,3.58,0,0,0-3.576,3.576V58.025A3.58,3.58,0,0,0,375.79,61.6h6.665a3.58,3.58,0,0,0,3.576-3.576c1.062-10.826.672-16.668,0-21.545a3.58,3.58,0,0,0-3.576-3.576H375.79Z" transform="translate(-217.294 -19.213)" fill="#5c98e9"/>
    <path id="Path_8968" data-name="Path 8968" d="M373.238,32.905a3.58,3.58,0,0,0-3.576,3.575c-.383,8.469-.649,16.546,0,21.545a3.58,3.58,0,0,0,3.576,3.576H379.9a3.58,3.58,0,0,0,3.576-3.576V36.481a3.58,3.58,0,0,0-3.576-3.576Z" transform="translate(-215.575 -19.213)" fill="#3f3d56"/>
    <path id="Path_8969" data-name="Path 8969" d="M394.056,98.84s6.3-.256,3.1,2.466c-2.088,1.771-6.79,14.1-11.675,15.594a4.342,4.342,0,0,1-5.512-3.245l-4.428-20.64,5.784-.88,3.525,16.335Z" transform="translate(-219.233 -53.791)" fill="#ffb6b6"/>
    <circle id="Ellipse_78" data-name="Ellipse 78" cx="4.091" cy="4.091" r="4.091" transform="translate(155.424 32.55)" fill="#ffb6b6"/>
    <path id="Path_8970" data-name="Path 8970" d="M402.791,78.608h0c3.748,2.814,4.851,12.044,2.5,16.1-4.5,7.746-13.377,13.71-13.755,12.881-.518-1.134-1.422.389-1.391.887s-1.679.35-1.48.878-1.15.642-1.736.948c0,0-5.363.091-7.055-2.357a13.3,13.3,0,0,1-1.919-5.829l-2.1-2.471,11.137-6.51-.918,4.394,5.556-6.469,1.176-2.6,1.876-.958.622-1.956,1.73-.782,6.841-7.965-1.077,1.808Z" transform="translate(-219.417 -44.838)" fill="#5c98e9"/>
    <path id="Path_8971" data-name="Path 8971" d="M506.106,206.031a3.83,3.83,0,0,0,.668-5.835l.787-35-6.915,1.076.488,33.945a3.851,3.851,0,0,0,4.973,5.812Z" transform="translate(-291.96 -96.444)" fill="#ffb6b6"/>
    <path id="Path_8972" data-name="Path 8972" d="M501.8,93.525s-.459.347,1.894,3.931c.467.711.783,3.577,1,7.317.072,1.218.766,2.074.82,3.434.046,1.154-.546,2.8-.511,3.995.019.638.495,1.194.511,1.832.007.266-.445.617-.439.882q.01.429.02.856c.162,7.109.2,13.529.357,13.42.342-.231-.508.964-.083,1.163s-.363,1.19-.16,1.7a3,3,0,0,1-.255,1.943c-.561,1.812-.682,3.368-1.17,4.229a3.009,3.009,0,0,1,1.4,3.412l-9.746-1.762c-1.188-1.9-1.017-3.9-.207-4.25l-.241-6.194-2.776-32.048,8.135-3.632,1.445-.231Z" transform="translate(-287.351 -54.602)" fill="#5c98e9"/>
    <path id="Path_8973" data-name="Path 8973" d="M369.542,46.181c-.14,0-.254.067-.254.149v1.189c0,.082.114.149.254.149s.254-.067.254-.149V46.33C369.8,46.248,369.682,46.181,369.542,46.181Z" transform="translate(-215.586 -26.963)" fill="#3f3d56"/>
    <path id="Path_8974" data-name="Path 8974" d="M369.542,53.752c-.14,0-.254.067-.254.149v2.3c0,.082.114.149.254.149s.254-.067.254-.149V53.9C369.8,53.819,369.682,53.752,369.542,53.752Z" transform="translate(-215.586 -31.383)" fill="#3f3d56"/>
    <path id="Path_8975" data-name="Path 8975" d="M403.535,54.752a.288.288,0,0,0-.254.312V59.9a.259.259,0,1,0,.507,0V55.064A.288.288,0,0,0,403.535,54.752Z" transform="translate(-235.427 -31.967)" fill="#3f3d56"/>
    <path id="Path_8976" data-name="Path 8976" d="M368.542,62.609c-.14,0-.254.067-.254.149v2.3c0,.082.114.149.254.149s.254-.067.254-.149v-2.3C368.8,62.675,368.682,62.609,368.542,62.609Z" transform="translate(-215.002 -36.553)" fill="#3f3d56"/>
    <circle id="Ellipse_79" data-name="Ellipse 79" cx="10.449" cy="10.449" r="10.449" transform="translate(187.581 3.736)" fill="#ffb6b6"/>
    <path id="Path_8977" data-name="Path 8977" d="M469.607,18.985a8.054,8.054,0,0,1-3,3.566,4.991,4.991,0,0,1-.173-.636c-.15.336-.3.67-.45,1.007-.892.5.071-.27-1.39.287L463.363,21.1a3.45,3.45,0,0,1,.747-2.957,10.728,10.728,0,0,0,1.692-2.656,2.159,2.159,0,0,0-.949-2.7c-.971-.373-2.045.334-3.077.212a2.659,2.659,0,0,1-2.067-2.587,7.787,7.787,0,0,1,.9-3.449,21.573,21.573,0,0,1-8.348,2.976,3.013,3.013,0,0,0-.982-1.976,2.743,2.743,0,0,1-.47,1.966c-2.383-.122-2.831,3.339-4.061,2.086.384-.193-1.031-4.495-.647-4.688L445.216,4.9c.547.138,1.1.279,1.65.416a2.358,2.358,0,0,1,.264-.841,5.7,5.7,0,0,1,1.245-.526c.14-.037.284-.076.429-.107a5.731,5.731,0,0,1,.651-.106c-.317-.184-.636-.363-.954-.55l-.11-.065a12.188,12.188,0,0,1,1.4-.828A16.32,16.32,0,0,1,456.23.008a6.454,6.454,0,0,1,4.182,1.2,5.786,5.786,0,0,0,3.6,1.082,4.121,4.121,0,0,1,1.809.4,5.8,5.8,0,0,1-.845.7c.662.017,1.321.035,1.984.056A9.147,9.147,0,0,1,468.811,5.8a14.092,14.092,0,0,1,.8,13.182Z" transform="translate(-259.912 0)" fill="#2f2e41"/>
    <path id="Path_8978" data-name="Path 8978" d="M320.743,421.556a3.313,3.313,0,0,0-1.778-2.458,75.4,75.4,0,0,0-13.821-5.431l-4.468,5.89,3.3-6.215a76.17,76.17,0,0,0-37.379-.53l1.718,4.737-2.807-4.466a75.586,75.586,0,0,0-16,6.015,3.34,3.34,0,0,0-.841,5.333c1.932.119,3.207,1.913,4.48,4.48a3.323,3.323,0,0,0,3.777.629,63.585,63.585,0,0,1,54.621,0,3.322,3.322,0,0,0,3.776-.629c.765-2.075,2.343-3.3,4.481-4.48a3.3,3.3,0,0,0,.936-2.875Z" transform="translate(-144.602 -239.788)" fill="#5c98e9"/>
    <path id="Path_8979" data-name="Path 8979" d="M327.412,484.185q-1.468-.23-2.953-.4l-3.882,6.176,2.892-6.282a77.552,77.552,0,0,0-14.142-.149l2.961,6.43-3.985-6.341q-2.282.216-4.53.568a2.757,2.757,0,0,0-2.228,1.906,2.835,2.835,0,0,0,.691,2.9c1.6,1.57,3.37,3.75,6.274,6.274a2.788,2.788,0,0,0,2.187.822c1.609-.119,3.256-.18,4.895-.18h0c1.639,0,3.286.061,4.895.18a2.8,2.8,0,0,0,2.187-.822c3-2.56,4.515-4.907,6.274-6.274a2.835,2.835,0,0,0,.691-2.9A2.756,2.756,0,0,0,327.412,484.185Z" transform="translate(-175.955 -282.134)" fill="#5c98e9"/>
    <g id="Group_13997" data-name="Group 13997" transform="translate(95.571 132.883)">
      <circle id="Ellipse_80" data-name="Ellipse 80" cx="14.623" cy="14.623" r="14.623" transform="translate(0 29.146) rotate(-85.269)" fill="#c0282c"/>
      <path id="Path_8980" data-name="Path 8980" d="M268.829,263.247l-3.841,3.841-3.841-3.841a1.592,1.592,0,0,0-2.252,2.252l3.841,3.841-3.841,3.841a1.592,1.592,0,0,0,2.252,2.252l3.841-3.841,3.841,3.841a1.592,1.592,0,0,0,2.252-2.252l-3.841-3.841,3.841-3.841a1.592,1.592,0,1,0-2.252-2.252Z" transform="translate(-249.208 -253.561)" fill="#fff"/>
    </g>
  </g>
</svg>
