<svg xmlns="http://www.w3.org/2000/svg" width="327.075" height="194.782" viewBox="0 0 327.075 194.782">
  <g id="Group_14132" data-name="Group 14132" transform="translate(7729.982 -247.459)">
    <g id="undraw_vault_re_s4my" transform="translate(-7712.971 247.459)">
      <path id="Path_9349" data-name="Path 9349" d="M304.33,596.106c-6.986-4.553-12.065-12.736-11.025-21.009a38.417,38.417,0,0,0,23.707,11.562c3.48.348,7.386.373,9.857,2.848a8.588,8.588,0,0,1,2.224,5.966,25.5,25.5,0,0,1-1.009,6.43l.128.528C319.88,602.123,311.316,600.659,304.33,596.106Z" transform="translate(-290.784 -468.999)" fill="#f0f0f0"/>
      <path id="Path_9350" data-name="Path 9350" d="M293.349,574.82a32.837,32.837,0,0,0,13.031,15.439,14.14,14.14,0,0,0,4.05,1.8,8.111,8.111,0,0,0,4.265-.164,16.793,16.793,0,0,1,3.944-.975,4.966,4.966,0,0,1,3.75,1.559,12.9,12.9,0,0,1,2.579,4.439,12.67,12.67,0,0,0,2.869,4.932c.175.159-.081.422-.257.263-2.519-2.282-2.8-5.943-4.776-8.589a5.029,5.029,0,0,0-3.817-2.24,13.022,13.022,0,0,0-4.023.913,8.656,8.656,0,0,1-4.165.315,13.075,13.075,0,0,1-4.1-1.634,31.859,31.859,0,0,1-7.681-6.336,33.416,33.416,0,0,1-6.02-9.623c-.089-.218.266-.315.354-.1Z" transform="translate(-290.654 -468.723)" fill="#fff"/>
      <path id="Path_9351" data-name="Path 9351" d="M315.7,620.728a4.927,4.927,0,0,1-6.282,1.108c-.2-.12-.026-.442.177-.322a4.562,4.562,0,0,0,5.842-1.042c.15-.183.412.075.263.257Z" transform="translate(-301.934 -500.256)" fill="#fff"/>
      <path id="Path_9352" data-name="Path 9352" d="M354.027,616.528a9.5,9.5,0,0,0-3.056-6.209c-.175-.16.082-.422.257-.263a9.877,9.877,0,0,1,3.167,6.467C354.414,616.759,354.046,616.763,354.027,616.528Z" transform="translate(-330.618 -493.08)" fill="#fff"/>
      <path id="Path_9353" data-name="Path 9353" d="M305.622,590.966a2.788,2.788,0,0,0,1.038-2.434c-.022-.236.345-.239.367,0a3.125,3.125,0,0,1-1.142,2.7.19.19,0,0,1-.26,0A.185.185,0,0,1,305.622,590.966Z" transform="translate(-299.339 -478.143)" fill="#fff"/>
      <path id="Path_9354" data-name="Path 9354" d="M358.4,526.285c.018.147.036.294.057.442a36.732,36.732,0,0,0,1.236,5.828c.042.148.086.3.132.444a38.717,38.717,0,0,0,6.659,12.6,37.6,37.6,0,0,0,3.886,4.187c1.933,1.789,4.172,3.574,5.366,5.83a6.441,6.441,0,0,1,.337.724l-5.96,12.218c-.027.021-.052.043-.08.065l-.216.5-.232-.189c-.045-.036-.088-.074-.133-.11-.029-.025-.059-.049-.087-.07l-.027-.023c-.028-.021-.052-.043-.077-.062q-.659-.549-1.312-1.109s0,0,0-.005a55.284,55.284,0,0,1-8.938-9.536c-.076-.106-.155-.214-.228-.325a35.877,35.877,0,0,1-2.98-5.039,31.73,31.73,0,0,1-1.246-2.958,26.373,26.373,0,0,1-1.55-8.1,20.943,20.943,0,0,1,5.11-15.011C358.213,526.485,358.306,526.386,358.4,526.285Z" transform="translate(-332.054 -435.326)" fill="#f0f0f0"/>
      <path id="Path_9355" data-name="Path 9355" d="M367.676,526.056a32.837,32.837,0,0,0,1.109,20.172,14.142,14.142,0,0,0,2.152,3.873,8.11,8.11,0,0,0,3.5,2.437,16.791,16.791,0,0,1,3.736,1.6,4.966,4.966,0,0,1,2.055,3.5,12.9,12.9,0,0,1-.613,5.1,12.669,12.669,0,0,0-.679,5.666c.044.232-.319.288-.363.056-.637-3.338,1.345-6.428,1.358-9.734a5.029,5.029,0,0,0-1.7-4.087,13.023,13.023,0,0,0-3.762-1.693,8.654,8.654,0,0,1-3.515-2.255,13.073,13.073,0,0,1-2.293-3.776,31.856,31.856,0,0,1-2.319-9.683,33.419,33.419,0,0,1,.986-11.308c.06-.228.4-.091.342.135Z" transform="translate(-341.185 -434.993)" fill="#fff"/>
      <path id="Path_9356" data-name="Path 9356" d="M358.823,578.1a4.927,4.927,0,0,1-5.683-2.9c-.09-.219.245-.369.336-.15a4.562,4.562,0,0,0,5.292,2.685C359,577.686,359.051,578.049,358.823,578.1Z" transform="translate(-332.144 -468.897)" fill="#fff"/>
      <path id="Path_9357" data-name="Path 9357" d="M390.466,595.919a9.5,9.5,0,0,0,1.3-6.8c-.044-.233.32-.288.363-.056a9.877,9.877,0,0,1-1.365,7.07C390.635,596.336,390.34,596.118,390.466,595.919Z" transform="translate(-357.882 -478.532)" fill="#fff"/>
      <path id="Path_9358" data-name="Path 9358" d="M366.723,547.785a2.789,2.789,0,0,0,2.294-1.318c.124-.2.42.017.3.218a3.125,3.125,0,0,1-2.535,1.464.19.19,0,0,1-.209-.154A.185.185,0,0,1,366.723,547.785Z" transform="translate(-341.417 -449.193)" fill="#fff"/>
      <path id="Path_9359" data-name="Path 9359" d="M961.42,596.106c6.986-4.553,12.065-12.736,11.025-21.009a38.416,38.416,0,0,1-23.707,11.562c-3.48.348-7.386.373-9.857,2.848a8.588,8.588,0,0,0-2.224,5.966,25.508,25.508,0,0,0,1.009,6.43l-.128.528C945.87,602.123,954.434,600.659,961.42,596.106Z" transform="translate(-734.687 -468.999)" fill="#f0f0f0"/>
      <path id="Path_9360" data-name="Path 9360" d="M974.642,574.82a32.837,32.837,0,0,1-13.031,15.439,14.141,14.141,0,0,1-4.05,1.8,8.111,8.111,0,0,1-4.265-.164,16.787,16.787,0,0,0-3.944-.975,4.966,4.966,0,0,0-3.75,1.559,12.9,12.9,0,0,0-2.579,4.439,12.669,12.669,0,0,1-2.869,4.932c-.175.159.081.422.257.263,2.519-2.282,2.8-5.942,4.776-8.589a5.029,5.029,0,0,1,3.817-2.24,13.022,13.022,0,0,1,4.023.913,8.656,8.656,0,0,0,4.164.315,13.073,13.073,0,0,0,4.1-1.634,31.861,31.861,0,0,0,7.681-6.336A33.419,33.419,0,0,0,975,574.918C975.085,574.7,974.73,574.6,974.642,574.82Z" transform="translate(-737.059 -468.723)" fill="#fff"/>
      <path id="Path_9361" data-name="Path 9361" d="M1015.681,620.728a4.926,4.926,0,0,0,6.282,1.108c.2-.12.026-.442-.177-.322a4.562,4.562,0,0,1-5.842-1.042c-.15-.183-.412.075-.263.257Z" transform="translate(-789.171 -500.256)" fill="#fff"/>
      <path id="Path_9362" data-name="Path 9362" d="M983.88,616.528a9.5,9.5,0,0,1,3.056-6.209c.175-.16-.082-.422-.257-.263a9.877,9.877,0,0,0-3.167,6.467C983.493,616.759,983.861,616.763,983.88,616.528Z" transform="translate(-767.01 -493.08)" fill="#fff"/>
      <path id="Path_9363" data-name="Path 9363" d="M1036.768,590.966a2.789,2.789,0,0,1-1.038-2.434c.022-.236-.345-.239-.367,0a3.125,3.125,0,0,0,1.142,2.7.19.19,0,0,0,.26,0A.185.185,0,0,0,1036.768,590.966Z" transform="translate(-802.771 -478.143)" fill="#fff"/>
      <path id="Path_9364" data-name="Path 9364" d="M935.914,526.285c-.018.147-.036.294-.057.442a36.726,36.726,0,0,1-1.236,5.828c-.042.148-.086.3-.132.444a38.717,38.717,0,0,1-6.659,12.6,37.6,37.6,0,0,1-3.886,4.187c-1.933,1.789-4.172,3.574-5.366,5.83a6.447,6.447,0,0,0-.337.724l5.96,12.218c.027.021.052.043.08.065l.216.5.232-.189c.045-.036.088-.074.133-.11.029-.025.059-.049.087-.07l.027-.023c.028-.021.052-.043.077-.062q.659-.549,1.312-1.109s0,0,0-.005a55.287,55.287,0,0,0,8.938-9.536c.076-.106.155-.214.228-.325a35.879,35.879,0,0,0,2.98-5.039,31.728,31.728,0,0,0,1.245-2.958,26.371,26.371,0,0,0,1.55-8.1,20.943,20.943,0,0,0-5.11-15.01C936.1,526.485,936.011,526.386,935.914,526.285Z" transform="translate(-721.984 -435.326)" fill="#f0f0f0"/>
      <path id="Path_9365" data-name="Path 9365" d="M946.681,526.056a32.836,32.836,0,0,1-1.109,20.172,14.141,14.141,0,0,1-2.152,3.873,8.11,8.11,0,0,1-3.5,2.437,16.79,16.79,0,0,0-3.736,1.6,4.966,4.966,0,0,0-2.055,3.5,12.9,12.9,0,0,0,.613,5.1,12.667,12.667,0,0,1,.679,5.666c-.044.232.319.288.363.056.637-3.338-1.345-6.428-1.358-9.734a5.029,5.029,0,0,1,1.7-4.087,13.023,13.023,0,0,1,3.762-1.693,8.655,8.655,0,0,0,3.515-2.255,13.074,13.074,0,0,0,2.293-3.776,31.856,31.856,0,0,0,2.318-9.683,33.417,33.417,0,0,0-.986-11.308c-.06-.228-.4-.091-.342.135Z" transform="translate(-732.893 -434.993)" fill="#fff"/>
      <path id="Path_9366" data-name="Path 9366" d="M973.831,578.1a4.926,4.926,0,0,0,5.683-2.9c.09-.219-.245-.369-.335-.15a4.562,4.562,0,0,1-5.292,2.685c-.23-.056-.284.308-.056.363Z" transform="translate(-760.231 -468.897)" fill="#fff"/>
      <path id="Path_9367" data-name="Path 9367" d="M951.061,595.919a9.5,9.5,0,0,1-1.3-6.8c.044-.233-.32-.288-.363-.056a9.877,9.877,0,0,0,1.365,7.07C950.891,596.336,951.187,596.118,951.061,595.919Z" transform="translate(-743.365 -478.532)" fill="#fff"/>
      <path id="Path_9368" data-name="Path 9368" d="M972.757,547.785a2.788,2.788,0,0,1-2.294-1.318c-.124-.2-.42.017-.3.218a3.125,3.125,0,0,0,2.535,1.464.19.19,0,0,0,.209-.154A.185.185,0,0,0,972.757,547.785Z" transform="translate(-757.784 -449.193)" fill="#fff"/>
      <path id="Path_9379" data-name="Path 9379" d="M561.118,367.008H399.373a6.29,6.29,0,0,1-6.283-6.283V239.3a6.29,6.29,0,0,1,6.283-6.283H561.118A6.29,6.29,0,0,1,567.4,239.3V360.725A6.29,6.29,0,0,1,561.118,367.008Z" transform="translate(-359.714 -233.019)" fill="#e4e4e4"/>
      <path id="Path_9380" data-name="Path 9380" d="M737.707,392.074H712.738a4.652,4.652,0,1,1,0-9.3h24.968a4.652,4.652,0,1,1,0,9.3Z" transform="translate(-577.01 -336.323)" fill="#fff"/>
      <path id="Path_9381" data-name="Path 9381" d="M716.186,446.181h-5.893a1.706,1.706,0,1,1,0-3.412h5.893a1.706,1.706,0,0,1,0,3.412Z" transform="translate(-577.356 -377.713)" fill="#fff"/>
      <path id="Path_9382" data-name="Path 9382" d="M795.186,446.181h-5.893a1.706,1.706,0,0,1,0-3.412h5.893a1.706,1.706,0,0,1,0,3.412Z" transform="translate(-631.854 -377.713)" fill="#fff"/>
      <path id="Path_9383" data-name="Path 9383" d="M755.186,446.181h-5.893a1.706,1.706,0,0,1,0-3.412h5.893a1.706,1.706,0,0,1,0,3.412Z" transform="translate(-604.26 -377.713)" fill="#fff"/>
      <path id="Path_9384" data-name="Path 9384" d="M716.186,467.181h-5.893a1.706,1.706,0,1,1,0-3.412h5.893a1.706,1.706,0,0,1,0,3.412Z" transform="translate(-577.356 -392.2)" fill="#fff"/>
      <path id="Path_9385" data-name="Path 9385" d="M795.186,467.181h-5.893a1.706,1.706,0,0,1,0-3.412h5.893a1.706,1.706,0,0,1,0,3.412Z" transform="translate(-631.854 -392.2)" fill="#fff"/>
      <path id="Path_9386" data-name="Path 9386" d="M755.186,467.181h-5.893a1.706,1.706,0,0,1,0-3.412h5.893a1.706,1.706,0,0,1,0,3.412Z" transform="translate(-604.26 -392.2)" fill="#fff"/>
      <path id="Path_9387" data-name="Path 9387" d="M716.186,488.181h-5.893a1.706,1.706,0,1,1,0-3.412h5.893a1.706,1.706,0,0,1,0,3.412Z" transform="translate(-577.356 -406.686)" fill="#fff"/>
      <path id="Path_9388" data-name="Path 9388" d="M795.186,488.181h-5.893a1.706,1.706,0,0,1,0-3.412h5.893a1.706,1.706,0,0,1,0,3.412Z" transform="translate(-631.854 -406.686)" fill="#fff"/>
      <path id="Path_9389" data-name="Path 9389" d="M755.186,488.181h-5.893a1.706,1.706,0,0,1,0-3.412h5.893a1.706,1.706,0,0,1,0,3.412Z" transform="translate(-604.26 -406.686)" fill="#fff"/>
      <path id="Path_9390" data-name="Path 9390" d="M716.186,509.181h-5.893a1.706,1.706,0,1,1,0-3.412h5.893a1.706,1.706,0,0,1,0,3.412Z" transform="translate(-577.356 -421.173)" fill="#fff"/>
      <path id="Path_9391" data-name="Path 9391" d="M795.186,509.181h-5.893a1.706,1.706,0,0,1,0-3.412h5.893a1.706,1.706,0,0,1,0,3.412Z" transform="translate(-631.854 -421.173)" fill="#fff"/>
      <path id="Path_9392" data-name="Path 9392" d="M755.186,509.181h-5.893a1.706,1.706,0,1,1,0-3.412h5.893a1.706,1.706,0,0,1,0,3.412Z" transform="translate(-604.26 -421.173)" fill="#fff"/>
      <circle id="Ellipse_127" data-name="Ellipse 127" cx="15.818" cy="15.818" r="15.818" transform="translate(83.156 49.548)" fill="#cacaca"/>
      <path id="Path_9393" data-name="Path 9393" d="M594.239,420.039a4.658,4.658,0,0,1-4.652-4.652V385.921a4.652,4.652,0,1,1,9.3,0v29.465A4.658,4.658,0,0,1,594.239,420.039Z" transform="translate(-495.265 -335.288)" fill="#fff"/>
      <path id="Path_9394" data-name="Path 9394" d="M726.786,403.569h-4.342a.62.62,0,1,1,0-1.241h4.342a.62.62,0,0,1,0,1.241Z" transform="translate(-586.487 -349.815)" fill="#e4e4e4"/>
      <path id="Path_9395" data-name="Path 9395" d="M748.786,404.069h-4.342a.62.62,0,0,1,0-1.241h4.342a.62.62,0,0,1,0,1.241Z" transform="translate(-601.663 -350.16)" fill="#e4e4e4"/>
      <path id="Path_9396" data-name="Path 9396" d="M770.786,404.569h-4.342a.62.62,0,0,1,0-1.241h4.342a.62.62,0,0,1,0,1.241Z" transform="translate(-616.84 -350.505)" fill="#e4e4e4"/>
      <path id="Path_9397" data-name="Path 9397" d="M792.786,405.069h-4.342a.62.62,0,1,1,0-1.241h4.342a.62.62,0,0,1,0,1.241Z" transform="translate(-632.016 -350.85)" fill="#e4e4e4"/>
      <path id="Path_9398" data-name="Path 9398" d="M444.921,379.284a5.8,5.8,0,0,0,1.724,4.128h-2.562a5.756,5.756,0,0,1-5.756-5.756V284.334a5.756,5.756,0,0,1,5.756-5.756h3.728a5.814,5.814,0,0,0-2.891,5.025Z" transform="translate(-390.92 -264.447)" fill="#cacaca"/>
      <path id="Path_9399" data-name="Path 9399" d="M372.786,665.338H129.97a.375.375,0,0,1,0-.739H372.785a.375.375,0,0,1,0,.739Z" transform="translate(-129.662 -530.741)" fill="#cacaca"/>
      <path id="Path_9410" data-name="Path 9410" d="M457.587,301.086v30.957c.208-.068.416-.133.62-.2V301.368C458,301.272,457.795,301.179,457.587,301.086Zm0,0v30.957c.208-.068.416-.133.62-.2V301.368C458,301.272,457.795,301.179,457.587,301.086Zm0,0v30.957c.208-.068.416-.133.62-.2V301.368C458,301.272,457.795,301.179,457.587,301.086Zm0,2.261v35.671c.208-.05.416-.1.62-.143V303.523C458,303.461,457.791,303.4,457.587,303.347Zm0,0v35.671c.208-.05.416-.1.62-.143V303.523C458,303.461,457.791,303.4,457.587,303.347Zm0,0v35.671c.208-.05.416-.1.62-.143V303.523C458,303.461,457.791,303.4,457.587,303.347Zm0,0v35.671c.208-.05.416-.1.62-.143V303.523C458,303.461,457.791,303.4,457.587,303.347Zm0,0v35.994c.208-.05.413-.1.62-.146V303.523C458,303.461,457.791,303.4,457.587,303.347Zm135.307-29.329H464.026a6.45,6.45,0,0,0-6.439,6.439v95.681a6.447,6.447,0,0,0,6.439,6.436H592.894a6.444,6.444,0,0,0,6.436-6.436V280.457a6.444,6.444,0,0,0-6.436-6.439Zm5.815,102.12a5.821,5.821,0,0,1-5.815,5.815H464.026a5.824,5.824,0,0,1-5.819-5.816V280.457a5.827,5.827,0,0,1,5.819-5.819H592.894a5.822,5.822,0,0,1,5.815,5.819ZM457.587,303.347V338.7l.62-.149V303.523c-.208-.062-.416-.121-.62-.177Zm0,0v35.671c.208-.05.416-.1.62-.143V303.523c-.208-.062-.416-.121-.62-.177Zm0,0v35.671c.208-.05.416-.1.62-.143V303.523c-.208-.062-.416-.121-.62-.177Zm0,0v35.671c.208-.05.416-.1.62-.143V303.523c-.208-.062-.416-.121-.62-.177Zm0-2.261v30.957c.208-.068.416-.133.62-.2V301.368c-.208-.1-.413-.189-.62-.282Zm0,0v30.957c.208-.068.416-.133.62-.2V301.368c-.208-.1-.413-.189-.62-.282Z" transform="translate(-404.206 -261.302)" fill="#2f2e41"/>
      <g id="Group_14135" data-name="Group 14135" transform="translate(85.723 52.114)">
        <circle id="Ellipse_80" data-name="Ellipse 80" cx="12.281" cy="12.281" r="12.281" transform="translate(0 24.478) rotate(-85.269)" fill="#c0282c"/>
        <path id="Path_8980" data-name="Path 8980" d="M267.163,263.172l-3.226,3.226-3.226-3.226a1.337,1.337,0,1,0-1.891,1.891l3.226,3.226-3.226,3.226a1.337,1.337,0,0,0,1.891,1.891l3.226-3.226,3.226,3.226a1.337,1.337,0,0,0,1.891-1.891l-3.226-3.226,3.226-3.226a1.337,1.337,0,0,0-1.891-1.891Z" transform="translate(-250.685 -255.038)" fill="#fff"/>
      </g>
    </g>
    <g id="Group_14133" data-name="Group 14133" transform="translate(-7502.011 282.029)">
      <path id="Path_9422" data-name="Path 9422" d="M650.437,348.988l-.429-8.054-4.334-3.521-2.511,7.458L629.12,363.6a3.519,3.519,0,1,0,4.076,3.473c0-.047-.005-.093-.007-.14Z" transform="translate(-626.157 -293.5)" fill="#ffb7b7"/>
      <path id="Path_9423" data-name="Path 9423" d="M594.912,589.207h-3.321l-1.58-12.809h4.9Z" transform="translate(-562.286 -432.214)" fill="#ffb7b7"/>
      <path id="Path_9424" data-name="Path 9424" d="M720.907,755.184H710.2v-.135a4.168,4.168,0,0,1,4.167-4.168h6.54Z" transform="translate(-687.435 -594.972)" fill="#2f2e41"/>
      <path id="Path_9425" data-name="Path 9425" d="M651.912,589.207h-3.321l-1.58-12.809h4.9Z" transform="translate(-603.847 -432.214)" fill="#ffb7b7"/>
      <path id="Path_9426" data-name="Path 9426" d="M777.907,755.184H767.2v-.135a4.168,4.168,0,0,1,4.167-4.168h6.54Z" transform="translate(-728.995 -594.972)" fill="#2f2e41"/>
      <path id="Path_9427" data-name="Path 9427" d="M732.719,197.14c1.406-5.805,2.6-12.353-.054-17.7-1.84-3.71-8.646-4.959-12.547-3.622s-6.722,4.962-7.963,8.916-1.1,8.213-.556,12.323C718.775,196.919,725.95,196.781,732.719,197.14Z" transform="translate(-688.165 -175.298)" fill="#2f2e41"/>
      <circle id="Ellipse_129" data-name="Ellipse 129" cx="8.367" cy="8.367" r="8.367" transform="translate(21.09 10.145) rotate(-28.663)" fill="#ffb8b8"/>
      <path id="Path_9428" data-name="Path 9428" d="M727.131,189.852a10.509,10.509,0,1,0-21.006.277C713.287,190.144,720.448,190.159,727.131,189.852Z" transform="translate(-684.456 -178.102)" fill="#2f2e41"/>
      <path id="Path_9429" data-name="Path 9429" d="M694.071,405.355s-1.362,19.777-.623,25.809,8.784,58.774,8.784,58.774l6.069-.011,1.8-62.152,7.176,62.757,6.276-.653,3.56-61.387s-.558-22.982-5.1-25.287Z" transform="translate(-675.061 -341.472)" fill="#2f2e41"/>
      <path id="Path_9430" data-name="Path 9430" d="M696.753,328.843a28.05,28.05,0,0,1-12.815-3.1l-.087-.044,3.354-22.258-.218-26.527a5.484,5.484,0,0,1,5.534-5.528l18,.165a5.809,5.809,0,0,1,5.737,6.267l-1.684,21.266,5.57,17.261-.968,1.287A28.025,28.025,0,0,1,696.753,328.843Z" transform="translate(-668.224 -245.355)" fill="#3f3d56"/>
      <path id="Path_9431" data-name="Path 9431" d="M688.755,295.47l1.886-19.246.606-.863a5.484,5.484,0,0,1,7.659-1.32l.52.369-.513,19.5Z" transform="translate(-671.799 -246.558)" fill="#3f3d56"/>
      <path id="Path_9432" data-name="Path 9432" d="M966.628,702.564c4.876-1.347,6.957,6.058,2.093,7.448C963.845,711.359,961.764,703.954,966.628,702.564Z" transform="translate(-872.386 -559.625)" fill="#3f3d56"/>
      <path id="Path_9433" data-name="Path 9433" d="M866.819,737.748c4.876-1.347,6.957,6.058,2.093,7.448C864.037,746.543,861.956,739.138,866.819,737.748Z" transform="translate(-799.613 -585.278)" fill="#3f3d56"/>
      <path id="Path_9434" data-name="Path 9434" d="M809.307,441.746l.075-.021,12.559,34.1,1.656-.465-12.65-34.342h0a2.323,2.323,0,0,0-1.942-2.172,8.364,8.364,0,0,0-8.827,4.582l.025.037,12.84,34.861,1.656-.465-12.462-33.835C806.032,440.271,809.307,441.746,809.307,441.746Z" transform="translate(-753.042 -367.37)" fill="#3f3d56"/>
      <path id="Path_9435" data-name="Path 9435" d="M841.539,604.986a8.413,8.413,0,0,1-7.978-5.968c-2.4-7.846-8.053-26.644-8.8-31.746-.976-6.642,4.522-8.531,4.645-8.572.148-.05,2.358-.668,5.418-1.525,5.2-1.455,13.059-3.655,13.348-3.785a9.362,9.362,0,0,1,7.47.577,9.777,9.777,0,0,1,4.856,5.99l8.09,28.781a7.781,7.781,0,0,1-4.124,9.134c-6.242,3-15.4,7-22.8,7.112Z" transform="translate(-770.88 -450.598)" fill="#5c98e9"/>
      <path id="Path_9436" data-name="Path 9436" d="M799.083,360l-4.067-23.755-.454-8.017-6.574,2.153,5.545,31.105a3.52,3.52,0,1,0,5.55-1.487Z" transform="translate(-744.153 -286.805)" fill="#ffb7b7"/>
      <path id="Path_9437" data-name="Path 9437" d="M783.93,294.335l-10.261-.558-2.411-19.361.235-.2a5.809,5.809,0,0,1,8.21.6l.475.552.007.035Z" transform="translate(-731.954 -246.383)" fill="#3f3d56"/>
      <path id="Path_9438" data-name="Path 9438" d="M738.794,472.934l-10.488-35.5-24.662,6.97-.147-.521,25.178-7.115.076.257,10.564,35.755Z" transform="translate(-645.032 -330.407)" fill="#3f3d56"/>
    </g>
    <g id="Group_14134" data-name="Group 14134" transform="translate(-7729.982 264.964)">
      <path id="Path_9413" data-name="Path 9413" d="M318.116,182.157l-7.862,5.592,4.892.524,6.814-5.766Z" transform="translate(-270.4 -141.569)" fill="#3f3d56"/>
      <path id="Path_9414" data-name="Path 9414" d="M206.25,551.239h4.728L213.228,533h-6.979Z" transform="translate(-189.292 -415.173)" fill="#ffb8b8"/>
      <path id="Path_9415" data-name="Path 9415" d="M339.274,740.03h9.313a5.935,5.935,0,0,1,5.934,5.934v.193H339.274Z" transform="translate(-323.522 -605.508)" fill="#2f2e41"/>
      <path id="Path_9416" data-name="Path 9416" d="M329.077,451.143s-2.049,2.316,1.344,11.346l-.6,49.513,11-.215,2.417-24.152,4.4-35.245Z" transform="translate(-315.092 -380.221)" fill="#2f2e41"/>
      <path id="Path_9417" data-name="Path 9417" d="M270.731,272.565a2.5,2.5,0,0,1-2.49-2.431l-.516-19.448,8.83-16.752a2.512,2.512,0,0,1,2.049-1.328l6.729-.432-.581,39.2-13.8,1.18Q270.84,272.565,270.731,272.565Z" transform="translate(-267.725 -209.459)" fill="#5c98e9"/>
      <path id="Path_9418" data-name="Path 9418" d="M343.987,272.068l-.12-.018c-14.068-2.146-24.684-4.2-24.789-4.223l-.132-.026,3.688-8.97c-.029-.937-.827-27.257.7-34.819,1.479-7.32,8.452-8.52,9.247-8.633l.8-2.644,10.08,5.245,1.758,6.051.357,16.583Z" transform="translate(-307.67 -194.3)" fill="#3f3d56"/>
      <path id="Path_9419" data-name="Path 9419" d="M328.046,256.68c-6.495,0-11.778-7.061-11.778-15.741s5.284-15.741,11.778-15.741,11.778,7.061,11.778,15.741S334.541,256.68,328.046,256.68Zm0-29.941c-5.645,0-10.237,6.37-10.237,14.2s4.592,14.2,10.237,14.2,10.237-6.37,10.237-14.2S333.691,226.739,328.046,226.739Z" transform="translate(-305.581 -204.018)" fill="#5c98e9"/>
      <path id="Path_9420" data-name="Path 9420" d="M369.706,327.2a3.29,3.29,0,0,0-2.417,1.057H350.346l-6.206,1.321,1.019,7.859,22.077-4.748a3.3,3.3,0,1,0,2.47-5.489Z" transform="translate(-327.317 -283.563)" fill="#ffb8b8"/>
      <circle id="Ellipse_128" data-name="Ellipse 128" cx="8.166" cy="8.166" r="8.166" transform="translate(23.823 11.548) rotate(-45)" fill="#ffb8b8"/>
      <path id="Path_9421" data-name="Path 9421" d="M386.3,135.733l-.4-.8,1.992-.99s2.2-3.575,6.174-2.571,5.765,1.606,5.765,1.606l1.987,1-1,.992,1.789.6-1.2.594,1.391.8-.749,4.1s-1.243-3.108-3.634-1.92-6.763-.614-6.763-.614l-3.8,7.351s-.784-2.577-2.181-1.89C385.686,143.993,382.117,138.309,386.3,135.733Z" transform="translate(-358.611 -130.713)" fill="#2f2e41"/>
      <path id="Path_9439" data-name="Path 9439" d="M142.554,140.558l-.908-19.792,9.3-18.175.392.2-9.244,18.07.9,19.675Z" transform="translate(-138.911 -79.52)" fill="#3f3d56"/>
      <path id="Path_9441" data-name="Path 9441" d="M340.737,263.1,338.8,257.34l-.469-19.213.826-2.726a7.616,7.616,0,1,1,14.384,4.976l-4.425,11.339.225.437,9.587-.078,3.405,6.13Z" transform="translate(-322.787 -207.758)" fill="#3f3d56"/>
    </g>
  </g>
</svg>
