<svg xmlns="http://www.w3.org/2000/svg" width="271.477" height="176" viewBox="0 0 271.477 176">
  <g id="undraw_notify_re_65on" transform="translate(0 -0.047)">
    <path id="Path_9333" data-name="Path 9333" d="M910.754,658.644,903,635.245s8.529,8.529,8.529,15.526L910,634.589a24.7,24.7,0,0,1,3.936,14.87C913.5,658.425,910.754,658.644,910.754,658.644Z" transform="translate(-663.138 -483.117)" fill="#e6e6e6"/>
    <path id="Path_9334" data-name="Path 9334" d="M426.567,597.748,419,574.912s8.324,8.324,8.324,15.153l-1.494-15.794a24.1,24.1,0,0,1,3.842,14.513C429.244,597.535,426.567,597.748,426.567,597.748Z" transform="translate(-345.461 -443.527)" fill="#e6e6e6"/>
    <path id="Path_9335" data-name="Path 9335" d="M532.434,638.43c.013,15.022-29.782,10.4-66.257,10.433s-65.82,4.7-65.833-10.319,29.771-18.315,66.246-18.347S532.421,623.408,532.434,638.43Z" transform="translate(-333.216 -473.671)" fill="#e6e6e6"/>
    <rect id="Rectangle_2191" data-name="Rectangle 2191" width="271.477" height="0.687" transform="translate(0 175.183)" fill="#3f3d56"/>
    <path id="Path_9336" data-name="Path 9336" d="M491.893,385.19h-4.769L484.855,366.8h7.038Z" transform="translate(-318.238 -240.719)" fill="#a0616a"/>
    <path id="Path_9337" data-name="Path 9337" d="M469.958,416.357h9.726v5.791H464.7v-.53a5.261,5.261,0,0,1,5.261-5.261Z" transform="translate(-305.007 -273.248)" fill="#2f2e41"/>
    <path id="Path_9338" data-name="Path 9338" d="M593.893,464.19h-4.769L586.855,445.8h7.038Z" transform="translate(-385.187 -292.571)" fill="#a0616a"/>
    <path id="Path_9339" data-name="Path 9339" d="M571.958,495.357h9.726v5.791H566.7v-.53a5.261,5.261,0,0,1,5.261-5.261Z" transform="translate(-371.956 -325.1)" fill="#2f2e41"/>
    <path id="Path_9340" data-name="Path 9340" d="M839.763,437.823a3.545,3.545,0,0,0-1-5.344l-11.076-45.118-7.082,3.047,13.174,43.625a3.564,3.564,0,0,0,5.979,3.79Z" transform="translate(-609.061 -320.847)" fill="#a0616a"/>
    <path id="Path_9341" data-name="Path 9341" d="M807.035,266.553a3.911,3.911,0,0,0-5.985.4l-17.143,1.968,2.608,6.612,15.59-2.918a3.933,3.933,0,0,0,4.929-6.058Z" transform="translate(-584.97 -240.761)" fill="#a0616a"/>
    <path id="Path_9342" data-name="Path 9342" d="M769,510.744l7.481,56.142,9.31-1.917s-1.369-40.887,3.286-45.816-5.988-13.564-5.988-13.564Z" transform="translate(-575.186 -398.447)" fill="#2f2e41"/>
    <path id="Path_9343" data-name="Path 9343" d="M716.9,464.7l-3.436,5.155s-26.46-11-26.46,6.529-1.514,29.419-2.062,30.24,6.336,2.953,9.622,2.406c0,0,4.054-28.254,3.78-29.9,0,0,25.956,12.726,30.886,11.631s6.094-4.973,6.915-7.164-.344-19.588-.344-19.588L719.371,459Z" transform="translate(-519.993 -367.867)" fill="#2f2e41"/>
    <path id="Path_9344" data-name="Path 9344" d="M762.84,309.431l-.979-1.175s-10.97-24.683-6.661-31.344,23.116-7.64,23.7-7.248-1.4,5.479-.032,7.829c0,0-14.568,3.159-15.548,3.55s7.549,14.871,7.549,14.871l-.979,8.815Z" transform="translate(-565.47 -243.547)" fill="#ccc"/>
    <path id="Path_9345" data-name="Path 9345" d="M790.064,347.566s-10.187,1.175-10.579,1.175-.588-2.547-.588-2.547l-9.011,12.342s-4.439,35.8-3.264,35.217,22.854,2.787,23.05,1.22-.2-9.4.392-9.795,10.187-24.683,10.187-24.683-.98-5.093-4.31-6.856S790.064,347.566,790.064,347.566Z" transform="translate(-573.495 -293.827)" fill="#ccc"/>
    <path id="Path_9346" data-name="Path 9346" d="M841.894,378.118l3.134,3.33s4.657,38.268,2.11,39.443-7.56,1.031-7.56,1.031l-4.933-18.142Z" transform="translate(-618.273 -314.78)" fill="#ccc"/>
    <circle id="Ellipse_124" data-name="Ellipse 124" cx="9.017" cy="9.017" r="9.017" transform="translate(197.763 33.282)" fill="#a0616a"/>
    <path id="Path_9347" data-name="Path 9347" d="M781.454,289.25c-.122-1.871-2.482-1.935-4.357-1.953s-4.116.049-5.177-1.5a3.494,3.494,0,0,1,.012-3.535,10.046,10.046,0,0,1,2.469-2.748,34.226,34.226,0,0,1,7.819-5.507,12.538,12.538,0,0,1,9.322-.805c3.7,1.321,8.7,8.119,9.136,12.025a14.165,14.165,0,0,1-3.76,10.806c-2.631,2.919-8.654,1.741-12.443,2.779,2.3-3.261.785-9.186-2.906-10.709Z" transform="translate(-576.79 -245.545)" fill="#2f2e41"/>
    <circle id="Ellipse_125" data-name="Ellipse 125" cx="21.646" cy="21.646" r="21.646" transform="translate(102.657 117.047)" fill="#5c98e9"/>
    <path id="Path_9348" data-name="Path 9348" d="M428.594,309.4a15.519,15.519,0,0,1-14.177-9.206l-34.347-77.35a20.56,20.56,0,1,1,38.443-14.386l24.872,80.9a15.491,15.491,0,0,1-14.79,20.045Z" transform="translate(-318.746 -193.896)" fill="#5c98e9"/>
  </g>
</svg>
