<svg xmlns="http://www.w3.org/2000/svg" width="278.154" height="138.879" viewBox="0 0 278.154 138.879">
  <g id="undraw_navigation_re_wxx4" transform="translate(0.001)">
    <path id="Path_9503" data-name="Path 9503" d="M291.347,499.213c-.714,5.625-3.2,10.811-5.982,15.8-.137.249-.275.494-.416.744h-35.98c-.639-.227-1.268-.476-1.892-.744a33.33,33.33,0,0,1-6.517-3.647c-11.7-8.432-16.209-24.366-14.172-38.642,1.26-8.874,5.156-17.931,12.737-22.708a19.143,19.143,0,0,1,13.748-2.409q.184.034.368.078a14.2,14.2,0,0,1,9.506,6.681c3.614,6.421,1.461,14.373-.316,21.518s-2.732,15.7,2.409,20.972a13.115,13.115,0,0,1,15.25-17.049c.372.078.74.167,1.1.279a12.161,12.161,0,0,1,2.509,1.052C289.767,484.524,292.221,492.324,291.347,499.213Z" transform="translate(-225.912 -378.365)" fill="#f2f2f2"/>
    <path id="Path_9504" data-name="Path 9504" d="M297.811,515.642c.8.271,1.613.517,2.428.744h-3.521q-.982-.346-1.948-.744c-.141-.056-.286-.115-.428-.175a36.136,36.136,0,0,1-13.9-10.027,28.125,28.125,0,0,1-4.387-7.164,32.451,32.451,0,0,1-2.246-9.168,65.25,65.25,0,0,1,1.29-19.447,81.088,81.088,0,0,1,6.342-19.02q.524-1.087,1.078-2.164a.437.437,0,0,1,.279-.242.488.488,0,0,1,.368.078.574.574,0,0,1,.227.758,80.179,80.179,0,0,0-6.729,18.332,70.378,70.378,0,0,0-2,19.083,30.438,30.438,0,0,0,5.361,16.7,33.676,33.676,0,0,0,12.614,10.35,42.365,42.365,0,0,0,5.175,2.1Z" transform="translate(-255.834 -378.993)" fill="#fff"/>
    <path id="Path_9505" data-name="Path 9505" d="M363.867,570.81H362.5c-.193-.245-.379-.494-.561-.744a30.211,30.211,0,0,1-5.354-12.3,29.52,29.52,0,0,1,2.543-18.354,30.323,30.323,0,0,1,2.747-4.55c.372.078.74.167,1.1.279a28.523,28.523,0,0,0,.282,34.928C363.462,570.32,363.663,570.569,363.867,570.81Z" transform="translate(-307.7 -433.418)" fill="#fff"/>
    <path id="Path_9506" data-name="Path 9506" d="M510.671,391.847a3.994,3.994,0,0,0-3.57-4.976L484.38,358.465l-5.622,5.24,24,27.135a4.015,4.015,0,0,0,7.911,1.007Z" transform="translate(-384.756 -322.602)" fill="#ffb8b8"/>
    <path id="Path_9507" data-name="Path 9507" d="M479.875,352.142l-7.181,5.5a1.791,1.791,0,0,1-2.655-.553l-4.374-7.885a4.973,4.973,0,1,1,7.915-6.025l6.453,6.256a1.791,1.791,0,0,1-.158,2.707Z" transform="translate(-375.892 -311.767)" fill="#ccc"/>
    <circle id="Ellipse_138" data-name="Ellipse 138" cx="9.131" cy="9.131" r="9.131" transform="translate(82.793 4.964)" fill="#ffb8b8"/>
    <path id="Path_9508" data-name="Path 9508" d="M295.289,342.091h4.558l-.434-8.531h-6.727Z" transform="translate(-183.874 -209.552)" fill="#ffb8b8"/>
    <path id="Path_9509" data-name="Path 9509" d="M522.468,614.5h8.976a5.72,5.72,0,0,1,5.72,5.72v.186h-14.7Z" transform="translate(-412.216 -483.452)" fill="#2f2e41"/>
    <path id="Path_9510" data-name="Path 9510" d="M168.975,325.586l3.878,2.4,4.114-7.486-4.693-2.936Z" transform="translate(-106.155 -199.5)" fill="#ffb8b8"/>
    <path id="Path_9511" data-name="Path 9511" d="M389.081,596.1l7.637,4.717h0a5.72,5.72,0,0,1,1.86,7.873l-.1.158-12.5-7.723Z" transform="translate(-326.468 -471.89)" fill="#2f2e41"/>
    <path id="Path_9512" data-name="Path 9512" d="M443.866,488.689a1.67,1.67,0,0,1-1.561-1.079l-16.487-39.418a.558.558,0,0,0-.985-.12l-22.649,35.68a1.667,1.667,0,0,1-2.1.583l-3.1-1.446a1.68,1.68,0,0,1-.819-2.2l18.556-41.363c-.405-.986-4.357-11.107,1.715-16.107l.042-.026,16.466-7.345.415,12.631,16.412,56.942a1.673,1.673,0,0,1-1.182,2.081l-4.3,1.131A1.679,1.679,0,0,1,443.866,488.689Z" transform="translate(-332.78 -358.651)" fill="#2f2e41"/>
    <path id="Path_9513" data-name="Path 9513" d="M462.392,345.362c-.627-2.516-1.516-5.053-2.707-6.224a15.082,15.082,0,0,1-1.232-1.357,9.024,9.024,0,0,0-2.956-2.422c.42-.233.666-.512.666-.812,0-.821-1.831-1.487-4.09-1.487s-4.09.666-4.09,1.487a.726.726,0,0,0,.243.5,8.7,8.7,0,0,0-5.38,7.255c-.528,5.657-.682,12.888,1.169,17.461a16.838,16.838,0,0,1,.347,11.867,1.485,1.485,0,0,0,1.966,1.847l16.338-6.584a1.487,1.487,0,0,0,.931-1.379v-10a41.991,41.991,0,0,0-1.206-10.154Z" transform="translate(-361.975 -306.642)" fill="#ccc"/>
    <path id="Path_9514" data-name="Path 9514" d="M403.564,407.9a3.994,3.994,0,0,0,2.768-5.463l12.783-33.711-6.483-1.674-11.824,33.364a4.015,4.015,0,0,0,2.755,7.484Z" transform="translate(-334.407 -328)" fill="#ffb8b8"/>
    <path id="Path_9515" data-name="Path 9515" d="M438.029,360.349l-8.191-3.834a1.791,1.791,0,0,1-.734-2.61l4.978-7.518a4.973,4.973,0,0,1,9,4.243l-2.574,8.611a1.791,1.791,0,0,1-2.475,1.108Z" transform="translate(-353.374 -313.221)" fill="#ccc"/>
    <path id="Path_9516" data-name="Path 9516" d="M448.629,275.377a2.082,2.082,0,0,0,1.2-.216c.674-.441.607-1.443.379-2.215a11.525,11.525,0,0,0-7.938-7.725c-1.3-.345-2.945-.332-3.688.789a9.39,9.39,0,0,0-12.148,1.492,12.722,12.722,0,0,0-2.852,6.077c-.78,3.823-4.122,11.708-2.271,15.142,1.232,2.285,6.9.5,9.3,1.5a7.919,7.919,0,0,0,7.442-.6,6.073,6.073,0,0,0,2.336-6.846,21.188,21.188,0,0,0-1.448-2.636,4.242,4.242,0,0,1-.629-2.878C438.642,275.732,445.85,275.32,448.629,275.377Z" transform="translate(-348.318 -263.529)" fill="#2f2e41"/>
    <path id="Path_9517" data-name="Path 9517" d="M403.242,629.932a.371.371,0,0,1-.372.372H226.279a.372.372,0,0,1,0-.744H402.87a.371.371,0,0,1,.372.372Z" transform="translate(-225.907 -492.912)" fill="#3f3d56"/>
    <ellipse id="Ellipse_139" data-name="Ellipse 139" cx="13.012" cy="2.231" rx="13.012" ry="2.231" transform="translate(191.035 134.418)" fill="#5c98e9"/>
    <path id="Path_9518" data-name="Path 9518" d="M888.282,630.744H838.465a.372.372,0,1,1,0-.744h49.817a.372.372,0,0,1,0,.744Z" transform="translate(-610.5 -493.188)" fill="#3f3d56"/>
    <path id="Path_9519" data-name="Path 9519" d="M736.177,339.344a17.71,17.71,0,0,1,13.986-17.312,17.707,17.707,0,1,0,0,34.624,17.711,17.711,0,0,1-13.989-17.312Z" transform="translate(-541.802 -299.466)" fill="#5c98e9"/>
    <path id="Path_9520" data-name="Path 9520" d="M680.574,302.384A39.584,39.584,0,0,1,715.318,263.1a39.594,39.594,0,0,0-44.41,39.285c0,17.754,26.11,67.82,35.916,86a4.16,4.16,0,0,0,7.326,0c.367-.68.759-1.41,1.17-2.177C704.764,366.5,680.574,319.474,680.574,302.384Z" transform="translate(-505.47 -262.506)" fill="#5c98e9"/>
    <path id="Path_9521" data-name="Path 9521" d="M709.951,390.509a4.471,4.471,0,0,1-3.99-2.383C695.148,368.083,670,319.564,670,301.951a39.951,39.951,0,1,1,79.9,0c0,17.615-25.149,66.132-35.961,86.174A4.471,4.471,0,0,1,709.951,390.509Zm0-127.766a39.252,39.252,0,0,0-39.208,39.208c0,17.444,25.086,65.828,35.872,85.822a3.789,3.789,0,0,0,6.672,0c10.786-19.993,35.872-68.376,35.872-85.822a39.252,39.252,0,0,0-39.208-39.208Z" transform="translate(-504.899 -262)" fill="#3f3d56"/>
    <path id="Path_9522" data-name="Path 9522" d="M746.912,356.99a18.078,18.078,0,1,1,18.078-18.078,18.079,18.079,0,0,1-18.078,18.078Zm0-35.413a17.335,17.335,0,1,0,17.335,17.335,17.335,17.335,0,0,0-17.335-17.335Z" transform="translate(-541.86 -298.961)" fill="#3f3d56"/>
  </g>
</svg>
