<svg xmlns="http://www.w3.org/2000/svg" width="286.048" height="198.864" viewBox="0 0 286.048 198.864">
  <g id="undraw_mobile_payments_re_7udl" transform="translate(0 -28.247)">
    <path id="Path_9066" data-name="Path 9066" d="M252.737,637.219a20.4,20.4,0,0,0,5.458,5.072c.45.285.912.554,1.381.8h11.056c-.132-.265-.261-.534-.385-.8a38.293,38.293,0,0,1,7.968-43.909,32.307,32.307,0,0,0-16.9,11.795,25.889,25.889,0,0,0-4.108,9.237,38.662,38.662,0,0,1,3.08-19.441,32.3,32.3,0,0,0-11.26,17.26A24.522,24.522,0,0,0,252.737,637.219Z" transform="translate(-220.931 -416.787)" fill="#f0f0f0"/>
    <path id="Path_9077" data-name="Path 9077" d="M471.377,374.473a4.491,4.491,0,0,0-4.79,4.947l-14.45,6.774,7.073,4.331,12.638-7.1a4.515,4.515,0,0,0-.47-8.955Z" transform="translate(-342.891 -282.789)" fill="#ffb6b6"/>
    <path id="Path_9078" data-name="Path 9078" d="M171.048,482.086h4.99l2.374-19.249h-7.365Z" transform="translate(-102.357 -260.065)" fill="#ffb6b6"/>
    <path id="Path_9079" data-name="Path 9079" d="M347.981,694.99h9.828a6.263,6.263,0,0,1,6.263,6.263v.2H347.981Z" transform="translate(-280.563 -474.598)" fill="#2f2e41"/>
    <path id="Path_9080" data-name="Path 9080" d="M234.458,482.086h4.991l2.374-19.249h-7.365Z" transform="translate(-140.302 -260.065)" fill="#ffb6b6"/>
    <path id="Path_9081" data-name="Path 9081" d="M411.391,694.99h9.828a6.263,6.263,0,0,1,6.263,6.263v.2H411.391Z" transform="translate(-318.508 -474.598)" fill="#2f2e41"/>
    <path id="Path_9082" data-name="Path 9082" d="M194.327,262.159l2.533,5.453,4.566,48.768-3.55,41.917h-8.3l-9.8-66.07-4.6,64.548-11.2-.452-2.15-87.514Z" transform="translate(-96.838 -139.976)" fill="#2f2e41"/>
    <path id="Path_9083" data-name="Path 9083" d="M317.941,332.006l10.5-4.272,14.822.831,13.177,4.8,4.4,49.1c-11.464,6.26-23.076,7.969-34.891,3.492l-10.965-31.977Z" transform="translate(-260.816 -254.826)" fill="#5c98e9"/>
    <path id="Path_9084" data-name="Path 9084" d="M405.473,342.507l4.66-1.3s3.525-2.292,4.684,4.521,7.127,17.409,7.127,17.409l10.215-5.444,4.729,10.328L420.757,377.8l-16.988-17.117Z" transform="translate(-313.947 -262.668)" fill="#5c98e9"/>
    <path id="Path_40" data-name="Path 40" d="M343,282.734h0a10.686,10.686,0,1,1,19.557-8.619l.061.141A10.688,10.688,0,1,1,343,282.736Z" transform="translate(-277.04 -218.924)" fill="#ffb6b6"/>
    <path id="Path_72" data-name="Path 72" d="M351.233,265.769c2.222.4,5.66,1.8,7.569.161a9.354,9.354,0,0,0-3.463-2.533,2.134,2.134,0,0,1-.717-.405c-.651-.658-.148-1.79-.446-2.679a2.3,2.3,0,0,0-1.581-1.3c-.662-.2-1.356-.23-2.007-.471-1.54-.579-2.634-2.235-4.213-2.685a5.055,5.055,0,0,0-3.946.942,9.319,9.319,0,0,1-3.749,1.714c-1.038.095-1.694,1.8-2.736,1.851-2.183.106-2.061-1.332-2.223.961-.093,1.368-2.048,4.09-2.017,5.471.032.9-.128,1.8-.1,2.707a7.034,7.034,0,0,0,1.947,4.623c.994,1.022,2.286,1.711,3.123,2.876a18.7,18.7,0,0,0,1.243,1.9,1.574,1.574,0,0,0,1.929.5c.565-.4.576-1.264.856-1.922a2.1,2.1,0,0,1,2.089-1.271,2.461,2.461,0,0,1,2.008,1.639c-.265-1.454-.962-2.816-1.227-4.271s.08-3.193,1.333-3.761c.538-.25,1.264-.318,1.481-.894a5.2,5.2,0,0,0,.062-1.134C346.722,265.94,349.784,265.485,351.233,265.769Z" transform="translate(-270.761 -211.738)" fill="#2f2e41"/>
    <path id="Path_9085" data-name="Path 9085" d="M318.14,447.1a4.491,4.491,0,0,0-5.868-3.6l-9.746-12.638-2.694,7.843,9.668,10.8a4.515,4.515,0,0,0,8.64-2.4Z" transform="translate(-251.75 -316.536)" fill="#ffb6b6"/>
    <path id="Path_9086" data-name="Path 9086" d="M291.53,340.746l-3.366-2.384s-7.7-.441-8.821,5.882l-14.121,23.23,17.508,24.154,8.489-8.936-10.711-12.517,8.993-16.512Z" transform="translate(-231.038 -261.183)" fill="#5c98e9"/>
    <path id="Path_9087" data-name="Path 9087" d="M511.074,342.092H510.9v-4.838a2.8,2.8,0,0,0-2.8-2.8h-10.25a2.8,2.8,0,0,0-2.8,2.8V363.8a2.8,2.8,0,0,0,2.8,2.8H508.1a2.8,2.8,0,0,0,2.8-2.8v-18.26h.177Z" transform="translate(-368.569 -258.849)" fill="#3f3d56"/>
    <path id="Path_9088" data-name="Path 9088" d="M509.362,336.268h-1.338a.993.993,0,0,1-.92,1.369h-5.872a.993.993,0,0,1-.92-1.369h-1.25a2.091,2.091,0,0,0-2.091,2.091v26.5a2.091,2.091,0,0,0,2.091,2.091h10.3a2.091,2.091,0,0,0,2.091-2.091h0v-26.5A2.091,2.091,0,0,0,509.362,336.268Z" transform="translate(-369.721 -259.934)" fill="#5c98e9"/>
    <path id="Path_9094" data-name="Path 9094" d="M333.508,710.525h-153a.4.4,0,1,1,0-.8h153a.4.4,0,1,1,0,.8Z" transform="translate(-180.102 -483.414)" fill="#cacaca"/>
    <g id="Group_14027" data-name="Group 14027" transform="translate(207.388 59.973)">
      <path id="Path_9072" data-name="Path 9072" d="M773.437,317.271H698.272a1.75,1.75,0,0,1-1.748-1.748v-46.5a1.75,1.75,0,0,1,1.748-1.748h75.164a1.75,1.75,0,0,1,1.748,1.748v46.5A1.75,1.75,0,0,1,773.437,317.271Z" transform="translate(-696.524 -267.278)" fill="#fff"/>
      <path id="Path_9073" data-name="Path 9073" d="M773.437,317.271H698.272a1.75,1.75,0,0,1-1.748-1.748v-46.5a1.75,1.75,0,0,1,1.748-1.748h75.164a1.75,1.75,0,0,1,1.748,1.748v46.5A1.75,1.75,0,0,1,773.437,317.271Zm-75.164-49.294a1.05,1.05,0,0,0-1.049,1.049v46.5a1.05,1.05,0,0,0,1.049,1.049h75.164a1.05,1.05,0,0,0,1.049-1.049v-46.5a1.05,1.05,0,0,0-1.049-1.049Z" transform="translate(-696.524 -267.278)" fill="#3f3d56"/>
      <path id="Path_9074" data-name="Path 9074" d="M780.979,301.257H735.532a1.573,1.573,0,1,1,0-3.146h45.448a1.573,1.573,0,0,1,0,3.146Z" transform="translate(-718.925 -285.729)" fill="#ccc"/>
      <path id="Path_9075" data-name="Path 9075" d="M780.979,328.244H735.532a1.573,1.573,0,1,1,0-3.146h45.448a1.573,1.573,0,1,1,0,3.146Z" transform="translate(-718.925 -301.878)" fill="#ccc"/>
      <circle id="Ellipse_99" data-name="Ellipse 99" cx="5.622" cy="5.622" r="5.622" transform="translate(52.383 32.305)" fill="#5c98e9"/>
      <path id="Path_9096" data-name="Path 9096" d="M449.666,129.015v.3a.091.091,0,0,1-.1.095h-.5a1.11,1.11,0,0,1-.383.695,1.505,1.505,0,0,1-.819.327q.5.528,1.363,1.591a.081.081,0,0,1,.012.1.086.086,0,0,1-.086.053h-.579a.087.087,0,0,1-.074-.036q-.908-1.09-1.478-1.7a.089.089,0,0,1-.027-.065v-.377a.1.1,0,0,1,.1-.095h.332a1.34,1.34,0,0,0,.631-.128.58.58,0,0,0,.3-.371H447.1a.091.091,0,0,1-.1-.095v-.3a.092.092,0,0,1,.1-.1h1.226q-.169-.335-.8-.335h-.43a.1.1,0,0,1-.1-.095v-.395a.091.091,0,0,1,.1-.095h2.47a.091.091,0,0,1,.1.095v.3a.091.091,0,0,1-.1.095h-.692a1.027,1.027,0,0,1,.19.427h.508a.092.092,0,0,1,.1.1Z" transform="translate(-390.054 -92.163)" fill="#fff"/>
    </g>
    <g id="Group_14026" data-name="Group 14026" transform="translate(168.058 131.602)">
      <path id="Path_9067" data-name="Path 9067" d="M900.938,394.771H825.772a1.75,1.75,0,0,1-1.748-1.748v-46.5a1.75,1.75,0,0,1,1.748-1.748h75.164a1.75,1.75,0,0,1,1.748,1.748v46.5a1.75,1.75,0,0,1-1.746,1.748Z" transform="translate(-824.024 -344.778)" fill="#fff"/>
      <path id="Path_9068" data-name="Path 9068" d="M900.938,394.771H825.772a1.75,1.75,0,0,1-1.748-1.748v-46.5a1.75,1.75,0,0,1,1.748-1.748h75.164a1.75,1.75,0,0,1,1.748,1.748v46.5a1.75,1.75,0,0,1-1.746,1.748Zm-75.166-49.294a1.05,1.05,0,0,0-1.049,1.049v46.5a1.05,1.05,0,0,0,1.049,1.049h75.164a1.05,1.05,0,0,0,1.049-1.049v-46.5a1.05,1.05,0,0,0-1.049-1.049Z" transform="translate(-824.024 -344.778)" fill="#3f3d56"/>
      <path id="Path_9069" data-name="Path 9069" d="M908.48,378.757H863.032a1.573,1.573,0,0,1,0-3.146H908.48a1.573,1.573,0,1,1,0,3.146Z" transform="translate(-846.425 -363.229)" fill="#ccc"/>
      <path id="Path_9070" data-name="Path 9070" d="M908.48,405.744H863.032a1.573,1.573,0,0,1,0-3.146H908.48a1.573,1.573,0,1,1,0,3.146Z" transform="translate(-846.425 -379.378)" fill="#ccc"/>
      <circle id="Ellipse_98" data-name="Ellipse 98" cx="5.622" cy="5.622" r="5.622" transform="translate(52.383 32.305)" fill="#5c98e9"/>
      <path id="Path_9097" data-name="Path 9097" d="M449.666,129.015v.3a.091.091,0,0,1-.1.095h-.5a1.11,1.11,0,0,1-.383.695,1.505,1.505,0,0,1-.819.327q.5.528,1.363,1.591a.081.081,0,0,1,.012.1.086.086,0,0,1-.086.053h-.579a.087.087,0,0,1-.074-.036q-.908-1.09-1.478-1.7a.089.089,0,0,1-.027-.065v-.377a.1.1,0,0,1,.1-.095h.332a1.34,1.34,0,0,0,.631-.128.58.58,0,0,0,.3-.371H447.1a.091.091,0,0,1-.1-.095v-.3a.092.092,0,0,1,.1-.1h1.226q-.169-.335-.8-.335h-.43a.1.1,0,0,1-.1-.095v-.395a.091.091,0,0,1,.1-.095h2.47a.091.091,0,0,1,.1.095v.3a.091.091,0,0,1-.1.095h-.692a1.027,1.027,0,0,1,.19.427h.508a.092.092,0,0,1,.1.1Z" transform="translate(-390.327 -92.163)" fill="#fff"/>
    </g>
    <g id="Group_14028" data-name="Group 14028" transform="translate(155.182 28.247)">
      <path id="Path_9089" data-name="Path 9089" d="M643.437,238.271H568.272a1.75,1.75,0,0,1-1.748-1.748v-46.5a1.75,1.75,0,0,1,1.748-1.748h75.164a1.75,1.75,0,0,1,1.748,1.748v46.5A1.75,1.75,0,0,1,643.437,238.271Z" transform="translate(-566.524 -188.278)" fill="#fff"/>
      <path id="Path_9090" data-name="Path 9090" d="M643.437,238.271H568.272a1.75,1.75,0,0,1-1.748-1.748v-46.5a1.75,1.75,0,0,1,1.748-1.748h75.164a1.75,1.75,0,0,1,1.748,1.748v46.5A1.75,1.75,0,0,1,643.437,238.271Zm-75.164-49.294a1.05,1.05,0,0,0-1.049,1.049v46.5a1.05,1.05,0,0,0,1.049,1.049h75.164a1.05,1.05,0,0,0,1.049-1.049v-46.5a1.05,1.05,0,0,0-1.049-1.049Z" transform="translate(-566.524 -188.278)" fill="#3f3d56"/>
      <path id="Path_9091" data-name="Path 9091" d="M650.979,222.257H605.532a1.573,1.573,0,1,1,0-3.146h45.448a1.573,1.573,0,1,1,0,3.146Z" transform="translate(-588.925 -206.729)" fill="#ccc"/>
      <path id="Path_9092" data-name="Path 9092" d="M650.979,249.244H605.532a1.573,1.573,0,1,1,0-3.146h45.448a1.573,1.573,0,1,1,0,3.146Z" transform="translate(-588.925 -222.878)" fill="#ccc"/>
      <circle id="Ellipse_100" data-name="Ellipse 100" cx="5.845" cy="5.845" r="5.845" transform="translate(52.195 32.374)" fill="#5c98e9"/>
      <path id="Path_9095" data-name="Path 9095" d="M449.666,129.015v.3a.091.091,0,0,1-.1.095h-.5a1.11,1.11,0,0,1-.383.695,1.505,1.505,0,0,1-.819.327q.5.528,1.363,1.591a.081.081,0,0,1,.012.1.086.086,0,0,1-.086.053h-.579a.087.087,0,0,1-.074-.036q-.908-1.09-1.478-1.7a.089.089,0,0,1-.027-.065v-.377a.1.1,0,0,1,.1-.095h.332a1.34,1.34,0,0,0,.631-.128.58.58,0,0,0,.3-.371H447.1a.091.091,0,0,1-.1-.095v-.3a.092.092,0,0,1,.1-.1h1.226q-.169-.335-.8-.335h-.43a.1.1,0,0,1-.1-.095v-.395a.091.091,0,0,1,.1-.095h2.47a.091.091,0,0,1,.1.095v.3a.091.091,0,0,1-.1.095h-.692a1.027,1.027,0,0,1,.19.427h.508a.092.092,0,0,1,.1.1Z" transform="translate(-390.145 -92.259)" fill="#fff"/>
    </g>
  </g>
</svg>
