<svg width="35" height="35" viewBox="0 0 55 72" fill="none" xmlns="http://www.w3.org/2000/svg">
<path fill-rule="evenodd" clip-rule="evenodd" d="M27.5475 71.5571C30.2533 71.5571 43.138 54.8679 46.3151 49.5518C51.1989 41.3797 54.2142 36.5452 54.2142 27.5236C54.2142 12.3335 42.2751 0.0195312 27.5475 0.0195312C12.8199 0.0195312 0.880859 12.3335 0.880859 27.5236C0.880859 36.5921 3.67478 41.3945 8.54232 49.5518C11.9349 55.2372 24.8418 71.5571 27.5475 71.5571ZM27.5476 41.2757C34.9114 41.2757 40.8809 35.1187 40.8809 27.5236C40.8809 19.9286 34.9114 13.7716 27.5476 13.7716C20.1838 13.7716 14.2142 19.9286 14.2142 27.5236C14.2142 35.1187 20.1838 41.2757 27.5476 41.2757Z" fill="#F52D56"/>
</svg>
