
<svg width="26" height="26" viewBox="0 0 26 26" fill="none" xmlns="http://www.w3.org/2000/svg">
<path fill-rule="evenodd" clip-rule="evenodd" d="M11.0335 1.39852C11.2655 0.592922 12.0067 0 12.8896 0C13.4052 0 13.895 0.206234 14.2559 0.567143C14.4879 0.799156 14.6555 1.08917 14.7457 1.39852L20.1142 2.59081C20.4107 2.65526 20.6169 2.9195 20.6169 3.2224V5.15585C20.6169 5.51031 20.3269 5.80033 19.9725 5.80033H14.8166V6.47703C15.5513 6.63171 16.1056 7.28263 16.1056 8.0689V9.02273H17.0723C17.4977 9.02273 17.9101 9.1903 18.213 9.4932C18.5159 9.79611 18.6835 10.2021 18.6835 10.6339C18.6835 11.0657 18.5159 11.4718 18.213 11.7747C18.1099 11.8778 17.9875 11.968 17.8586 12.0389C18.1679 12.4836 18.5417 13.0314 18.8188 13.5212C18.9542 13.7532 19.0637 13.9788 19.1475 14.1786H22.5762C22.6406 13.8692 22.7888 13.5857 23.0144 13.3601C23.3173 13.0572 23.7233 12.8896 24.1551 12.8896C24.5805 12.8896 24.993 13.0572 25.2959 13.3601C25.5988 13.663 25.7663 14.069 25.7663 14.5008V22.8791C25.7663 23.3044 25.5988 23.7169 25.2959 24.0198C24.993 24.3227 24.5869 24.4903 24.1551 24.4903C23.7233 24.4903 23.3173 24.3227 23.0144 24.0198C22.7888 23.7942 22.6406 23.5107 22.5762 23.2013H18.6577C18.4193 23.5236 18.1228 23.8265 17.7877 24.1036C16.5052 25.1412 14.5653 25.7792 12.8832 25.7792C11.2011 25.7792 9.26119 25.1412 7.97867 24.1036C7.6371 23.8265 7.34708 23.5236 7.10862 23.2013H3.19018C3.12573 23.5107 2.9775 23.7942 2.75193 24.0198C2.44903 24.3227 2.043 24.4903 1.6112 24.4903C1.18584 24.4903 0.773377 24.3227 0.470471 24.0198C0.167565 23.7169 0 23.3109 0 22.8791V14.5008C0 14.0755 0.167565 13.663 0.470471 13.3601C0.773377 13.0572 1.1794 12.8896 1.6112 12.8896C2.043 12.8896 2.44903 13.0572 2.75193 13.3601C2.9775 13.5857 3.12573 13.8692 3.19018 14.1786H6.61882C6.7026 13.9788 6.81216 13.7532 6.9475 13.5212C7.23108 13.0378 7.59843 12.4836 7.90778 12.0389C7.77888 11.968 7.66288 11.8778 7.55332 11.7747C7.25041 11.4718 7.08284 11.0657 7.08284 10.6339C7.08284 10.2021 7.25041 9.79611 7.55332 9.4932C7.85622 9.1903 8.26225 9.02273 8.69405 9.02273H9.66077V8.0689C9.66077 7.28908 10.215 6.63171 10.9497 6.47703V5.80033H5.79388C5.43942 5.80033 5.1494 5.51031 5.1494 5.15585V3.2224C5.1494 2.9195 5.36208 2.66171 5.6521 2.59081L11.0206 1.39852H11.0335ZM9.35142 12.2451C9.05496 12.6576 8.46203 13.4825 8.0689 14.1657C7.91423 14.4364 7.75955 14.8037 7.74022 14.8488V21.2679C7.74022 21.9832 8.17846 22.6019 8.80361 23.1046C9.87345 23.9682 11.4911 24.4903 12.8961 24.4903C14.301 24.4903 15.9251 23.9682 16.9885 23.1046C17.6137 22.6019 18.0519 21.9832 18.0519 21.2679V14.8488C18.0326 14.8037 17.8779 14.4364 17.7232 14.1657C17.3236 13.4825 16.7372 12.6576 16.4407 12.2451H9.35786H9.35142ZM8.37825 16.112V20.6234C8.37825 21.6223 9.0034 22.3828 9.809 22.9049C10.8337 23.5751 12.1227 23.8329 12.1227 23.8329C12.4707 23.9038 12.8123 23.6782 12.8832 23.3302C12.9541 22.9822 12.7285 22.6406 12.3805 22.5697C12.3805 22.5697 11.3429 22.3635 10.5179 21.8286C10.0797 21.545 9.6801 21.1712 9.6801 20.6234V16.112C9.6801 15.7576 9.39009 15.4675 9.03562 15.4675C8.68116 15.4675 8.39114 15.7576 8.39114 16.112H8.37825ZM1.6112 23.2013C1.52742 23.2013 1.44364 23.1691 1.38563 23.1046C1.32763 23.0466 1.28896 22.9629 1.28896 22.8791V14.5008C1.28896 14.417 1.32119 14.3333 1.38563 14.2753C1.44364 14.2172 1.52742 14.1786 1.6112 14.1786C1.69498 14.1786 1.77877 14.2108 1.83677 14.2753C1.89477 14.3333 1.93344 14.417 1.93344 14.5008V22.8791C1.93344 22.9629 1.90122 23.0466 1.83677 23.1046C1.77877 23.1626 1.69498 23.2013 1.6112 23.2013ZM24.168 23.2013C24.0843 23.2013 24.0005 23.1691 23.9425 23.1046C23.8845 23.0466 23.8458 22.9629 23.8458 22.8791V14.5008C23.8458 14.417 23.878 14.3333 23.9425 14.2753C24.0005 14.2172 24.0843 14.1786 24.168 14.1786C24.2518 14.1786 24.3356 14.2108 24.3936 14.2753C24.4516 14.3333 24.4903 14.417 24.4903 14.5008V22.8791C24.4903 22.9629 24.458 23.0466 24.3936 23.1046C24.3356 23.1626 24.2518 23.2013 24.168 23.2013ZM19.2635 21.9123H22.5568V15.4675H19.3344V21.2679C19.3344 21.487 19.3086 21.6997 19.2635 21.9123ZM6.44481 15.4675H3.2224V21.9123H6.5157C6.47059 21.6997 6.44481 21.487 6.44481 21.2679V15.4675ZM17.0787 10.3117H8.70049C8.61671 10.3117 8.53293 10.3439 8.47492 10.4084C8.41692 10.4664 8.37825 10.5502 8.37825 10.6339C8.37825 10.7177 8.41048 10.8015 8.47492 10.8595C8.53293 10.9175 8.61671 10.9562 8.70049 10.9562H17.0787C17.1625 10.9562 17.2463 10.924 17.3043 10.8595C17.3623 10.8015 17.401 10.7177 17.401 10.6339C17.401 10.5502 17.3688 10.4664 17.3043 10.4084C17.2463 10.3504 17.1625 10.3117 17.0787 10.3117ZM11.2913 7.73377H14.4879C14.6748 7.73377 14.8231 7.882 14.8231 8.0689V9.02273H10.9562V8.0689C10.9562 7.882 11.1044 7.73377 11.2913 7.73377ZM13.5341 6.44481V1.93344C13.5341 1.75943 13.4632 1.59831 13.3472 1.47586C13.2247 1.35341 13.0636 1.28896 12.8896 1.28896C12.5352 1.28896 12.2451 1.57898 12.2451 1.93344V6.44481H13.5341ZM14.8231 2.73904V4.51137H19.3344V3.73799L14.8231 2.7326V2.73904ZM10.9562 4.51137V2.73904L6.44481 3.74443V4.51781H10.9562V4.51137Z" fill="white"/>
</svg>
