<svg width="75" height="23" viewBox="0 0 75 23" fill="currentColor" xmlns="http://www.w3.org/2000/svg">
<path fill-rule="evenodd" clip-rule="evenodd" d="M2.55125 0.765185C2.67163 0.765185 2.79296 0.764237 2.91713 0.764237C3.25267 0.763289 3.58727 0.763289 3.92281 0.764237C4.28774 0.765185 4.65267 0.764237 5.01665 0.763289C5.65646 0.762341 6.29533 0.762341 6.93514 0.763289C7.88585 0.764237 8.83656 0.764237 9.78632 0.763289C11.4849 0.761393 13.1825 0.761393 14.8802 0.762341C16.3664 0.763289 17.8517 0.763289 19.338 0.763289C19.4366 0.763289 19.5351 0.763289 19.6366 0.763289C20.0366 0.762341 20.4366 0.762341 20.8366 0.762341C24.5882 0.761393 28.3408 0.762341 32.0934 0.764237C35.428 0.765185 38.7626 0.765185 42.0972 0.764237C45.8422 0.762341 49.5873 0.761393 53.3323 0.762341C53.7313 0.762341 54.1304 0.763289 54.5295 0.763289C54.6773 0.763289 54.6773 0.763289 54.828 0.763289C56.3124 0.763289 57.7977 0.763289 59.2821 0.762341C60.9712 0.761393 62.6593 0.761393 64.3475 0.763289C65.2925 0.764237 66.2385 0.764237 67.1835 0.763289C67.8148 0.762341 68.446 0.762341 69.0773 0.764237C69.4366 0.764237 69.7967 0.765185 70.156 0.764237C70.5437 0.762341 70.9314 0.764237 71.319 0.765185C71.4299 0.764237 71.5418 0.764237 71.6565 0.763289C72.2802 0.767081 72.9314 0.784142 73.4934 1.08556C73.6138 1.28556 73.6138 1.28556 73.683 1.46471C73.7456 1.46471 73.8081 1.46471 73.8726 1.46471C74.1257 1.97466 74.1987 2.36613 74.1949 2.93296C74.1958 3.01068 74.1958 3.08936 74.1968 3.17087C74.1987 3.43248 74.1986 3.69409 74.1977 3.95571C74.1986 4.14433 74.1996 4.33296 74.2005 4.52063C74.2034 5.03154 74.2043 5.54244 74.2043 6.05239C74.2043 6.37182 74.2053 6.69125 74.2062 7.00973C74.2081 8.12443 74.21 9.23817 74.2091 10.3519C74.2091 11.3898 74.2119 12.4277 74.2167 13.4647C74.2205 14.3567 74.2223 15.2486 74.2214 16.1396C74.2214 16.6723 74.2223 17.204 74.2252 17.7367C74.228 18.2372 74.228 18.7377 74.2261 19.2382C74.2261 19.4211 74.2271 19.605 74.228 19.7879C74.2432 21.5254 74.2432 21.5254 73.7749 22.0732C72.9579 22.7273 71.9295 22.6543 70.9389 22.6467C70.7768 22.6467 70.6148 22.6467 70.4517 22.6467C70.0062 22.6476 69.5598 22.6458 69.1133 22.6439C68.628 22.641 68.1418 22.642 67.6555 22.641C66.6944 22.641 65.7323 22.6382 64.7712 22.6344C63.6413 22.6306 62.5114 22.6296 61.3816 22.6277C58.628 22.624 55.8754 22.6154 53.1219 22.6059C52.1323 22.6031 51.1427 22.5993 50.1532 22.5965C42.7114 22.5737 35.2697 22.5462 27.5181 22.5131C27.4214 22.5131 27.3257 22.5121 27.2261 22.5121C27.0479 22.5112 26.8688 22.5102 26.6906 22.5093C26.3475 22.5083 26.3475 22.5083 26.0053 22.5074C25.5939 22.5074 25.1835 22.5074 24.7731 22.5074C24.6091 22.5083 24.4451 22.5083 24.2811 22.5093C24.0015 22.5112 23.7219 22.5112 23.4422 22.5121C23.2963 22.5131 23.1503 22.5131 23.0043 22.514C21.6366 22.5216 21.6366 22.5216 20.9588 22.46C20.1503 22.3889 19.3408 22.3984 18.5304 22.4003C18.2555 22.4003 17.9806 22.4003 17.7058 22.3993C17.5285 22.3993 17.3513 22.3993 17.174 22.3993C17.0925 22.3993 17.0119 22.3993 16.9285 22.3993C16.4716 22.4012 16.0271 22.4296 15.5731 22.4856C15.3674 22.5093 15.1645 22.5197 14.9569 22.5197C14.8527 22.5197 14.8527 22.5197 14.7456 22.5197C14.6764 22.5197 14.6072 22.5197 14.5361 22.5187C14.464 22.5197 14.3911 22.5197 14.3171 22.5197C13.7892 22.5187 13.7892 22.5187 13.683 22.4126C13.5105 22.4211 13.3389 22.4363 13.1674 22.4543C11.7513 22.5841 11.7513 22.5841 11.4081 22.4126C11.2309 22.4344 11.0536 22.4571 10.8764 22.4818C10.4546 22.5292 10.0318 22.5225 9.60812 22.5235C9.46215 22.5235 9.46215 22.5235 9.31239 22.5244C9.1086 22.5244 8.90386 22.5244 8.69912 22.5244C8.38537 22.5254 8.07163 22.5263 7.75789 22.5282C7.55883 22.5292 7.35978 22.5292 7.16073 22.5292C7.06689 22.5301 6.97305 22.5301 6.87637 22.5311C6.78917 22.5311 6.70291 22.5301 6.61286 22.5301C6.49817 22.5301 6.49817 22.5301 6.38158 22.5301C6.19485 22.5074 6.19485 22.5074 6.00528 22.3178C5.76168 22.2562 5.76168 22.2562 5.53135 22.223C5.53135 22.2856 5.53135 22.3481 5.53135 22.4126C5.13988 22.5424 4.76831 22.5472 4.36452 22.46C4.03371 22.3984 3.71523 22.4097 3.37969 22.4183C3.16168 22.4126 3.16168 22.4126 2.87732 22.3178C2.68774 22.314 2.49817 22.3131 2.3086 22.3178C2.3086 22.3804 2.3086 22.4429 2.3086 22.5074C1.21476 22.5586 1.21476 22.5586 0.792009 22.223C0.707648 22.1841 0.623288 22.1443 0.537032 22.1045C0.24035 21.8799 0.194852 21.6268 0.128501 21.2751C0.102909 21.004 0.101013 20.7349 0.101961 20.4628C0.101013 20.3832 0.101013 20.3036 0.100065 20.2221C0.0981696 19.9576 0.0981698 19.6922 0.0981698 19.4277C0.0972219 19.2372 0.096274 19.0476 0.0953261 18.8571C0.0924825 18.3405 0.0915347 17.8249 0.0905868 17.3093C0.089639 16.986 0.088691 16.6638 0.0877432 16.3415C0.0858474 15.332 0.0839516 14.3225 0.0830037 13.3121C0.0820558 12.1481 0.0792124 10.9832 0.0735252 9.81826C0.0687858 8.91779 0.0668901 8.01637 0.0668901 7.1159C0.0668901 6.57751 0.0659422 6.04007 0.0621507 5.50168C0.0593071 4.99646 0.0593071 4.4903 0.0602549 3.98509C0.0602549 3.79931 0.0602551 3.61353 0.0583593 3.42869C0.0422456 1.74338 0.0422454 1.74338 0.510492 1.21353C1.1721 0.759498 1.76831 0.760446 2.55125 0.765185ZM8.84888 2.31779C8.84888 2.38035 8.84888 2.44291 8.84888 2.50736C8.75504 2.50736 8.6612 2.50736 8.56452 2.50736C8.56452 2.56992 8.56452 2.63248 8.56452 2.69694C8.50765 2.67514 8.45172 2.65334 8.3939 2.63154C7.75315 2.40879 7.24035 2.40215 6.574 2.50736C6.574 2.56992 6.574 2.63248 6.574 2.69694C6.47921 2.67324 6.47921 2.67324 6.38348 2.65049C6.03845 2.59173 5.70007 2.58793 5.35125 2.58888C5.24414 2.58888 5.24414 2.58888 5.13514 2.58888C4.98443 2.58888 4.83371 2.58888 4.683 2.58983C4.45457 2.58983 4.22518 2.58983 3.99675 2.58888C3.84983 2.58888 3.70291 2.58888 3.55599 2.58888C3.48869 2.58888 3.42044 2.58888 3.35125 2.58888C2.92471 2.59078 2.54746 2.63533 2.11902 2.69694C2.11902 8.60879 2.11902 14.5206 2.11902 20.6116C6.883 20.6903 6.883 20.6903 11.6479 20.7178C11.9152 20.7178 12.1835 20.7178 12.4517 20.7178C13.0167 20.7178 13.5825 20.7178 14.1475 20.7178C14.9882 20.7168 15.829 20.7168 16.6697 20.7168C18.0868 20.7168 19.5029 20.7168 20.92 20.7159C22.3171 20.7159 23.7143 20.7149 25.1114 20.7149C25.2432 20.7149 25.2432 20.7149 25.3768 20.7149C25.8233 20.7149 26.2688 20.7149 26.7143 20.7149C29.8508 20.7149 32.9863 20.714 36.1219 20.7131C39.1636 20.7121 42.2053 20.7121 45.247 20.7112C45.3882 20.7112 45.3882 20.7112 45.5323 20.7112C46.4783 20.7112 47.4242 20.7112 48.3702 20.7112C50.2972 20.7112 52.2233 20.7102 54.1494 20.7102C54.2821 20.7102 54.2821 20.7102 54.4176 20.7102C57.1247 20.7102 59.8309 20.7093 62.537 20.7083C62.6517 20.7083 62.6517 20.7083 62.7693 20.7083C65.8697 20.7074 68.9712 20.7074 72.0716 20.7064C72.0716 14.7633 72.0716 8.82016 72.0716 2.69694C55.2745 2.69694 38.4773 2.69694 21.1712 2.69694C21.1712 2.63438 21.1712 2.57182 21.1712 2.50736C21.2963 2.47609 21.4214 2.44481 21.5503 2.41258C21.1749 2.41258 20.7996 2.41258 20.4129 2.41258C20.4129 2.47514 20.4129 2.5377 20.4129 2.60215C20.3503 2.63343 20.2877 2.66471 20.2233 2.69694C20.2546 2.6031 20.2858 2.50926 20.3181 2.41258C20.2555 2.41258 20.193 2.41258 20.1285 2.41258C20.1285 2.50642 20.1285 2.60026 20.1285 2.69694C20.0034 2.69694 19.8783 2.69694 19.7494 2.69694C19.7494 2.6031 19.7494 2.50926 19.7494 2.41258C19.593 2.41258 19.4366 2.41258 19.2754 2.41258C19.2754 2.50642 19.2754 2.60026 19.2754 2.69694C19.1816 2.69694 19.0877 2.69694 18.9911 2.69694C18.9911 2.63438 18.9911 2.57182 18.9911 2.50736C18.9342 2.51116 18.8783 2.51495 18.8195 2.51874C18.5645 2.5358 18.3095 2.55097 18.0546 2.56613C17.9664 2.57277 17.8773 2.57845 17.7854 2.58509C17.701 2.58983 17.6157 2.59457 17.5285 2.59931C17.4498 2.605 17.3712 2.60973 17.2906 2.61447C17.0953 2.60215 17.0953 2.60215 16.9058 2.41258C16.8745 2.47514 16.8432 2.5377 16.811 2.60215C16.5655 2.60405 16.3209 2.60594 16.0764 2.60784C16.0072 2.60879 15.938 2.60973 15.8669 2.61068C15.5323 2.61163 15.2366 2.59741 14.9152 2.50736C14.9152 2.56992 14.9152 2.63248 14.9152 2.69694C14.8527 2.69694 14.7901 2.69694 14.7257 2.69694C14.7257 2.63438 14.7257 2.57182 14.7257 2.50736C14.6318 2.50736 14.538 2.50736 14.4413 2.50736C14.4413 2.56992 14.4413 2.63248 14.4413 2.69694C14.3683 2.67893 14.2963 2.66187 14.2223 2.64386C13.9588 2.58035 13.9588 2.58035 13.683 2.69694C13.6356 2.6031 13.6356 2.6031 13.5882 2.50736C13.5882 2.56992 13.5882 2.63248 13.5882 2.69694C13.1816 2.69694 12.7749 2.69694 12.356 2.69694C12.356 2.63438 12.356 2.57182 12.356 2.50736C12.1683 2.50736 11.9806 2.50736 11.7873 2.50736C11.7873 2.56992 11.7873 2.63248 11.7873 2.69694C11.6858 2.68082 11.5835 2.66566 11.4792 2.64954C11.1598 2.60689 10.8622 2.59646 10.5408 2.61163C10.047 2.62964 9.76357 2.55855 9.32281 2.31779C9.06215 2.29315 9.06215 2.29315 8.84888 2.31779Z" />
<path fill-rule="evenodd" clip-rule="evenodd" d="M16.4334 4.48633C16.5177 4.48633 16.6011 4.48633 16.6874 4.48728C16.7831 4.48728 16.8779 4.48728 16.9756 4.48728C17.0789 4.48728 17.1822 4.48822 17.2883 4.48822C17.4457 4.48822 17.4457 4.48822 17.6068 4.48917C17.9433 4.48917 18.2808 4.49107 18.6173 4.49202C18.8457 4.49202 19.0732 4.49296 19.3016 4.49296C19.8618 4.49391 20.421 4.49581 20.9812 4.4977C20.9974 4.6342 21.0125 4.77069 21.0277 4.90718C21.0362 4.98301 21.0457 5.05979 21.0542 5.13751C21.1367 5.93562 21.0561 6.73562 20.9812 7.53088C20.3869 7.53088 19.7926 7.53088 19.1803 7.53088C19.1803 8.37543 19.1803 9.21998 19.1803 10.0901C19.7433 10.0901 20.3064 10.0901 20.8865 10.0901C20.8865 11.0598 20.8865 12.0295 20.8865 13.0285C20.3234 13.0285 19.7604 13.0285 19.1803 13.0285C19.1803 13.9982 19.1803 14.9678 19.1803 15.9669C19.8372 15.9669 20.494 15.9669 21.1708 15.9669C21.2315 16.4503 21.277 16.8645 21.2713 17.3413C21.2713 17.4399 21.2703 17.5385 21.2694 17.6408C21.2684 17.7138 21.2665 17.7868 21.2656 17.8626C21.3168 17.4503 21.368 17.0389 21.4173 16.6266C21.4343 16.4873 21.4514 16.3489 21.4684 16.2096C21.5831 15.2892 21.6675 14.3697 21.731 13.4437C21.7983 12.4778 21.8883 11.5157 21.9945 10.5536C22.0021 10.4892 22.0087 10.4247 22.0163 10.3584C22.0599 9.96405 22.1045 9.56974 22.15 9.17543C22.2097 8.64367 22.2694 8.11192 22.3291 7.57922C22.349 7.39818 22.3699 7.21619 22.3907 7.0342C22.4817 6.22093 22.5443 5.40955 22.5926 4.59249C22.859 4.51666 23.095 4.48633 23.3718 4.48728C23.4495 4.48728 23.5272 4.48728 23.6078 4.48728C23.6902 4.48728 23.7737 4.48822 23.859 4.48822C23.9452 4.48822 24.0305 4.48917 24.1187 4.48917C24.3917 4.48917 24.6656 4.49107 24.9386 4.49202C25.1244 4.49202 25.3101 4.49296 25.495 4.49296C25.95 4.49391 26.404 4.49581 26.858 4.4977C26.9898 5.11382 27.0921 5.72709 27.1632 6.35268C27.1784 6.47875 27.1784 6.47875 27.1926 6.60766C27.2135 6.78491 27.2343 6.96121 27.2542 7.13846C27.2846 7.40197 27.3149 7.66453 27.3462 7.92709C27.4495 8.81808 27.5395 9.70813 27.6135 10.601C27.7073 11.7309 27.8485 12.8532 27.9955 13.9764C28.1471 15.1318 28.2912 16.2863 28.3926 17.4484C28.4002 17.5385 28.4087 17.6285 28.4163 17.7223C28.4523 18.1498 28.4789 18.5707 28.4694 19.0001C27.8571 19.111 27.2542 19.1091 26.6334 19.1072C26.5282 19.1072 26.4239 19.1072 26.3158 19.1081C26.2163 19.1081 26.1168 19.1072 26.0144 19.1072C25.8789 19.1072 25.8789 19.1072 25.7405 19.1072C25.531 19.0949 25.531 19.0949 25.4362 19.0001C25.3139 18.1527 25.331 17.2939 25.3414 16.4408C25.0599 16.4408 24.7784 16.4408 24.4883 16.4408C24.4258 17.2854 24.3632 18.1299 24.2988 19.0001C23.8552 19.074 23.4552 19.1081 23.0106 19.1072C22.9405 19.1072 22.8713 19.1072 22.7992 19.1072C22.5699 19.1081 22.3414 19.1081 22.112 19.1072C21.9528 19.1072 21.7926 19.1072 21.6324 19.1081C21.2988 19.1081 20.9642 19.1081 20.6305 19.1072C20.2021 19.1062 19.7737 19.1072 19.3462 19.1072C19.0163 19.1081 18.6865 19.1081 18.3566 19.1072C18.1993 19.1072 18.041 19.1072 17.8836 19.1081C17.6628 19.1081 17.4419 19.1081 17.222 19.1072C17.1566 19.1072 17.0912 19.1072 17.0248 19.1081C16.7158 19.1062 16.4447 19.0816 16.1471 19.0001C16.1452 17.1233 16.1433 15.2465 16.1424 13.3697C16.1414 12.4977 16.1414 11.6266 16.1405 10.7555C16.1395 9.99628 16.1386 9.23704 16.1386 8.4778C16.1386 8.07495 16.1376 7.67306 16.1376 7.27116C16.1367 6.89296 16.1367 6.51476 16.1367 6.13657C16.1367 5.99723 16.1367 5.85789 16.1357 5.71856C16.1357 5.52898 16.1357 5.34036 16.1357 5.15078C16.1357 5.04462 16.1357 4.93846 16.1357 4.82946C16.1519 4.50339 16.1519 4.50339 16.4334 4.48633ZM24.8675 9.23704C24.822 9.59818 24.7765 9.96026 24.731 10.3214C24.7187 10.4228 24.7054 10.5242 24.6931 10.6285C24.6561 10.9223 24.6192 11.2171 24.5831 11.5119C24.5737 11.5906 24.5632 11.6693 24.5528 11.7498C24.4969 12.2133 24.4779 12.6626 24.4827 13.129C24.4836 13.2532 24.4846 13.3773 24.4855 13.5062C24.4865 13.5982 24.4874 13.6911 24.4883 13.7868C24.7073 13.7868 24.9263 13.7868 25.1519 13.7868C25.1405 13.3062 25.1291 12.8257 25.1168 12.346C25.113 12.183 25.1083 12.02 25.1045 11.8569C25.0846 10.9802 25.0628 10.1091 24.9623 9.23704C24.931 9.23704 24.8997 9.23704 24.8675 9.23704ZM21.1708 18.3366C21.2656 18.7157 21.2656 18.7157 21.2656 18.7157L21.1708 18.3366Z" />
<path fill-rule="evenodd" clip-rule="evenodd" d="M3.4479 3.06359C3.52373 3.06359 3.59861 3.06264 3.67634 3.06264C3.79956 3.06264 3.79956 3.06264 3.92563 3.06264C4.01378 3.06264 4.10193 3.06264 4.19198 3.06264C4.48677 3.0617 4.7825 3.0617 5.07729 3.0617C5.28866 3.0617 5.50004 3.0617 5.71141 3.06075C6.28582 3.0598 6.86023 3.0598 7.43463 3.0598C7.91331 3.0598 8.39293 3.0598 8.8716 3.05885C9.937 3.05885 11.0024 3.0579 12.0678 3.0579C12.1323 3.0579 12.1958 3.0579 12.2621 3.0579C12.3256 3.0579 12.3901 3.0579 12.4555 3.0579C13.4934 3.0579 14.5313 3.05696 15.5692 3.05601C16.6346 3.05506 17.7 3.05411 18.7654 3.05411C19.3635 3.05411 19.9616 3.05411 20.5598 3.05317C21.1218 3.05222 21.6849 3.05222 22.247 3.05222C22.4536 3.05317 22.6602 3.05222 22.8669 3.05222C23.1484 3.05127 23.4299 3.05127 23.7114 3.05222C23.7939 3.05222 23.8763 3.05127 23.9607 3.05127C24.3692 3.05317 24.6849 3.07497 25.0574 3.26549C25.0574 3.20293 25.0574 3.14037 25.0574 3.07591C25.137 3.10719 25.2176 3.13847 25.3 3.1707C25.646 3.27117 25.9313 3.27971 26.2896 3.26549C26.3209 3.20293 26.3522 3.14037 26.3844 3.07591C30.6223 3.07212 34.8602 3.06928 39.0981 3.06738C39.1607 3.06738 39.2233 3.06738 39.2877 3.06738C40.6507 3.06738 42.0138 3.06644 43.3759 3.06644C44.0451 3.06549 44.7133 3.06549 45.3816 3.06549C45.4479 3.06549 45.5143 3.06549 45.5825 3.06549C47.7389 3.06454 49.8953 3.06264 52.0508 3.0617C54.3294 3.0598 56.6081 3.0579 58.8858 3.0579C60.2507 3.0579 61.6157 3.05696 62.9816 3.05506C63.9162 3.05411 64.8517 3.05411 65.7872 3.05411C66.3275 3.05411 66.8678 3.05411 67.4081 3.05317C67.9019 3.05222 68.3958 3.05222 68.8906 3.05317C69.0697 3.05317 69.2489 3.05317 69.4271 3.05222C69.6707 3.05127 69.9133 3.05222 70.1569 3.05222C70.2612 3.05127 70.2612 3.05127 70.3673 3.05127C70.8688 3.05411 71.3901 3.0816 71.7787 3.42568C71.9199 3.72615 71.918 3.96691 71.918 4.29866C71.919 4.39724 71.919 4.39724 71.9199 4.49771C71.9209 4.71857 71.9209 4.93847 71.9199 5.15933C71.9209 5.31762 71.9209 5.47497 71.9218 5.63326C71.9237 6.06264 71.9237 6.49203 71.9228 6.92141C71.9228 7.27971 71.9237 7.638 71.9237 7.99629C71.9256 8.84084 71.9247 9.68634 71.9237 10.5318C71.9228 11.4039 71.9247 12.2759 71.9266 13.148C71.9285 13.8968 71.9294 14.6456 71.9285 15.3944C71.9285 15.8408 71.9285 16.2882 71.9304 16.7356C71.9323 17.1565 71.9313 17.5764 71.9294 17.9972C71.9294 18.1517 71.9294 18.3053 71.9304 18.4598C71.9323 18.6712 71.9313 18.8816 71.9294 19.092C71.9294 19.2096 71.9294 19.328 71.9294 19.4494C71.8725 19.8171 71.7654 19.9735 71.5029 20.2323C71.2214 20.3262 71.0394 20.3385 70.7465 20.3385C70.5986 20.3394 70.5986 20.3394 70.4489 20.3394C70.3398 20.3394 70.2318 20.3394 70.1199 20.3385C70.0043 20.3394 69.8887 20.3394 69.7702 20.3394C69.4479 20.3394 69.1256 20.3394 68.8043 20.3394C68.4545 20.3385 68.1048 20.3394 67.755 20.3394C67.1417 20.3394 66.5285 20.3394 65.9152 20.3394C65.0024 20.3394 64.0906 20.3394 63.1787 20.3394C61.5493 20.3404 59.9209 20.3404 58.2915 20.3394C56.8669 20.3394 55.4413 20.3394 54.0157 20.3394C53.8744 20.3394 53.8744 20.3394 53.7294 20.3394C53.3465 20.3394 52.9626 20.3394 52.5797 20.3394C48.9816 20.3404 45.3844 20.3394 41.7863 20.3394C38.5872 20.3385 35.3891 20.3385 32.1901 20.3394C28.5986 20.3394 25.0081 20.3404 21.4166 20.3394C21.0346 20.3394 20.6517 20.3394 20.2688 20.3394C20.1749 20.3394 20.0811 20.3394 19.9834 20.3394C18.5588 20.3394 17.1342 20.3394 15.7095 20.3394C14.0896 20.3404 12.4707 20.3404 10.8507 20.3394C9.94364 20.3394 9.03653 20.3394 8.12942 20.3394C7.52468 20.3394 6.91899 20.3394 6.31425 20.3394C5.96923 20.3394 5.62326 20.3394 5.27823 20.3394C4.90762 20.3394 4.53605 20.3394 4.16544 20.3385C4.00241 20.3394 4.00241 20.3394 3.83653 20.3394C3.73795 20.3394 3.63937 20.3394 3.5389 20.3385C3.45359 20.3385 3.36828 20.3385 3.28108 20.3385C3.06686 20.3271 3.06686 20.3271 2.7825 20.2323C2.7825 20.1698 2.7825 20.1072 2.7825 20.0427C2.68866 20.0115 2.59482 19.9802 2.49814 19.948C2.35975 19.6721 2.39008 19.4304 2.39008 19.1224C2.38914 19.057 2.38914 18.9906 2.38914 18.9224C2.38819 18.6996 2.38819 18.4778 2.38819 18.2551C2.38724 18.0958 2.38724 17.9366 2.38629 17.7773C2.38534 17.3442 2.3844 16.9119 2.3844 16.4788C2.38345 16.2086 2.38345 15.9375 2.3825 15.6674C2.38155 14.8219 2.3806 13.9773 2.3806 13.1318C2.37966 12.1546 2.37871 11.1783 2.37586 10.201C2.37397 9.44748 2.37302 8.69298 2.37207 7.93847C2.37207 7.48729 2.37207 7.03705 2.37018 6.58587C2.36828 6.16217 2.36828 5.73753 2.36923 5.31383C2.36923 5.15838 2.36923 5.00198 2.36828 4.84653C2.36639 4.63421 2.36733 4.42189 2.36828 4.20956C2.36828 4.09013 2.36828 3.97165 2.36733 3.84937C2.4062 3.5252 2.45169 3.3925 2.68771 3.1707C2.94459 3.08824 3.17871 3.06359 3.4479 3.06359ZM8.00146 3.49582C7.02041 3.56975 6.04032 3.56027 5.05738 3.55554C4.87255 3.55554 4.68771 3.55459 4.50288 3.55459C4.05549 3.55364 3.60809 3.55174 3.16165 3.54985C3.02421 3.82378 3.05454 4.06075 3.05549 4.36691C3.05549 4.43136 3.05454 4.49677 3.05454 4.56407C3.05454 4.78397 3.05549 5.00293 3.05549 5.22283C3.05549 5.37923 3.05549 5.53658 3.05549 5.69298C3.05549 6.12046 3.05643 6.547 3.05738 6.97449C3.05738 7.41999 3.05738 7.86549 3.05738 8.31193C3.05833 9.15648 3.05833 10.001 3.05928 10.8456C3.06117 11.8067 3.06117 12.7679 3.06212 13.729C3.06307 15.7072 3.06402 17.6854 3.06686 19.6636C7.65928 19.6731 12.2517 19.6816 16.8441 19.6901C16.9133 19.6911 16.9825 19.6911 17.0536 19.6911C18.5598 19.6939 20.065 19.6968 21.5711 19.6996C22.3105 19.7015 23.0507 19.7025 23.7901 19.7044C23.9 19.7044 23.9 19.7044 24.0128 19.7044C26.138 19.7081 28.2621 19.7129 30.3872 19.7167C37.2432 19.7309 44.1 19.7442 63.1493 19.7669C63.7977 19.7669 64.446 19.7679 65.0944 19.7679C65.8593 19.7688 66.6233 19.7688 67.3882 19.7688C67.7692 19.7688 68.1493 19.7688 68.5304 19.7698C68.8735 19.7698 69.2157 19.7698 69.5588 19.7698C69.7408 19.7698 69.9218 19.7698 70.1038 19.7707C70.2631 19.7707 70.2631 19.7707 70.4261 19.7698C70.518 19.7698 70.61 19.7698 70.7048 19.7698C70.9474 19.7679 70.9474 19.7679 71.2185 19.6636C71.2185 14.4399 71.2185 9.2162 71.2185 3.83421C70.7616 3.65032 70.7617 3.65032 70.3086 3.61999C70.2233 3.61999 70.1379 3.61904 70.0507 3.61904C69.9579 3.61904 69.865 3.61999 69.7692 3.61999C69.6688 3.61999 69.5692 3.61904 69.4669 3.61904C69.1304 3.61809 68.7939 3.61809 68.4574 3.61904C68.2147 3.61809 67.9721 3.61809 67.7294 3.61715C67.2005 3.6162 66.6725 3.6162 66.1436 3.6162C65.3569 3.6162 64.5711 3.61525 63.7844 3.61335C62.4621 3.61146 61.1389 3.61051 59.8166 3.60956C58.5057 3.60956 57.1948 3.60767 55.8849 3.60672C55.8034 3.60577 55.7218 3.60577 55.6375 3.60577C55.2242 3.60577 54.8109 3.60482 54.3967 3.60482C51.465 3.60008 48.5332 3.59724 45.6015 3.59535C45.4242 3.5944 45.247 3.5944 45.0697 3.5944C44.9816 3.5944 44.8934 3.5944 44.8034 3.5944C44.3588 3.59345 43.9143 3.59345 43.4697 3.59345C43.3816 3.59345 43.2934 3.5925 43.2024 3.5925C41.155 3.59061 39.1086 3.58871 37.0621 3.58681C36.9304 3.58681 36.9304 3.58681 36.7958 3.58681C34.7948 3.58492 32.7939 3.58208 30.792 3.58018C30.7076 3.58018 30.6242 3.58018 30.537 3.58018C29.7806 3.57923 29.0242 3.57828 28.2678 3.57734C26.3806 3.57449 24.4925 3.5726 22.6052 3.57165C21.2896 3.5707 19.974 3.56881 18.6593 3.56786C17.8773 3.56691 17.0953 3.56596 16.3133 3.56596C15.7304 3.56596 15.1465 3.56501 14.5635 3.56407C14.3275 3.56312 14.0906 3.56312 13.8545 3.56312C13.5342 3.56312 13.2138 3.56312 12.8934 3.56217C12.8005 3.56217 12.7086 3.56217 12.6128 3.56312C12.1076 3.56122 11.6242 3.52236 11.1237 3.45506C10.9162 3.49013 10.9161 3.49013 10.7446 3.54985C10.4763 3.55838 10.2119 3.56312 9.94459 3.56122C9.8735 3.56217 9.80241 3.56217 9.72847 3.56312C9.65928 3.56217 9.59008 3.56217 9.51805 3.56217C9.42421 3.56217 9.42421 3.56217 9.32847 3.56217C9.13321 3.54985 9.13321 3.54985 8.91331 3.49866C8.59767 3.44463 8.31994 3.46928 8.00146 3.49582Z" />
<path fill-rule="evenodd" clip-rule="evenodd" d="M44.3372 4.48681C44.4851 4.48776 44.4851 4.48776 44.6368 4.48871C44.7429 4.48871 44.85 4.48871 44.96 4.48966C45.0718 4.48966 45.1837 4.4906 45.2993 4.49155C45.4121 4.4925 45.5249 4.4925 45.6405 4.4925C45.9202 4.4944 46.1998 4.49534 46.4785 4.49724C46.5922 4.90482 46.705 5.3124 46.8169 5.71904C46.8548 5.85648 46.8927 5.99487 46.9315 6.13136C47.2614 7.3162 47.541 8.50956 47.8055 9.71051C47.8064 9.64795 47.8064 9.58539 47.8074 9.52094C47.8131 8.87259 47.8216 8.22331 47.8301 7.57496C47.8339 7.33231 47.8368 7.0906 47.8387 6.84795C47.8415 6.50008 47.8462 6.15222 47.8519 5.80435C47.8529 5.69534 47.8529 5.58634 47.8538 5.47449C47.8557 5.37402 47.8576 5.27354 47.8595 5.17022C47.8605 5.08113 47.8614 4.99203 47.8624 4.90103C47.8747 4.82994 47.8879 4.7598 47.9003 4.68681C48.2169 4.47639 48.3183 4.47449 48.686 4.47544C48.832 4.47639 48.832 4.47639 48.9799 4.47639C49.1315 4.47828 49.1315 4.47828 49.287 4.48018C49.3884 4.48018 49.4908 4.48018 49.5951 4.48018C50.3515 4.48397 50.3515 4.48397 50.4595 4.59203C50.469 4.77876 50.4709 4.96454 50.4709 5.15032C50.4709 5.33231 50.4709 5.33231 50.4718 5.51809C50.4709 5.65459 50.4709 5.79013 50.4709 5.92567C50.4699 6.06786 50.4699 6.21004 50.4709 6.35127C50.4709 6.738 50.4699 7.12473 50.469 7.51146C50.469 7.91525 50.469 8.31809 50.468 8.72188C50.468 9.48681 50.4671 10.2517 50.4661 11.0157C50.4652 11.8868 50.4652 12.757 50.4642 13.6271C50.4633 15.4186 50.4614 17.2091 50.4595 18.9996C49.7325 19.1067 49.7325 19.1067 49.3685 19.1077C49.2576 19.1077 49.2576 19.1077 49.1448 19.1077C49.0709 19.1077 48.996 19.1067 48.9192 19.1067C48.8434 19.1067 48.7676 19.1077 48.6889 19.1077C48.3714 19.1067 48.1097 19.101 47.8055 18.9996C47.5363 18.3958 47.4121 17.7285 47.2965 17.0802C47.0965 16.0053 46.8282 14.9446 46.5732 13.8811C46.542 15.5702 46.5107 17.2593 46.4785 18.9996C45.6244 19.1067 45.6244 19.1067 45.2974 19.1077C45.2273 19.1077 45.1571 19.1077 45.0851 19.1077C45.0159 19.1077 44.9458 19.1067 44.8728 19.1067C44.8007 19.1067 44.7278 19.1077 44.6529 19.1077C44.1211 19.1067 44.1211 19.1067 44.014 18.9996C44.0045 18.8138 44.0026 18.628 44.0017 18.4423C44.0017 18.3209 44.0017 18.1996 44.0017 18.0745C44.0017 17.9389 44.0017 17.8034 44.0017 17.6679C44.0017 17.5266 44.0017 17.3844 44.0017 17.2423C44.0007 16.8565 44.0007 16.4707 44.0017 16.084C44.0017 15.6811 44.0017 15.2773 44.0017 14.8745C44.0007 14.1968 44.0017 13.52 44.0017 12.8423C44.0026 12.0584 44.0017 11.2735 44.0017 10.4897C44.0007 9.81762 44.0007 9.14558 44.0017 8.47354C44.0017 8.07165 44.0017 7.66975 44.0017 7.26786C44.0007 6.88966 44.0007 6.5124 44.0017 6.13421C44.0017 5.99487 44.0017 5.85648 44.0017 5.71714C44.0017 5.52852 44.0017 5.33895 44.0017 5.15032C44.0017 5.04416 44.0026 4.938 44.0026 4.82899C44.0178 4.51525 44.0244 4.50198 44.3372 4.48681Z" />
<path fill-rule="evenodd" clip-rule="evenodd" d="M56.1469 4.49775C56.2095 4.52903 56.2721 4.56031 56.3365 4.59254C56.3365 4.6551 56.3365 4.71765 56.3365 4.78211C56.3896 4.7878 56.4417 4.79348 56.4967 4.80012C57.0228 4.98495 57.2957 5.48827 57.5393 5.96126C57.5943 6.06457 57.6493 6.16789 57.7062 6.275C58.1555 7.34704 58.0711 8.6295 58.0683 9.77074C58.0683 9.93756 58.0683 10.1053 58.0683 10.2722C58.0683 10.621 58.0683 10.9688 58.0673 11.3177C58.0664 11.7603 58.0673 12.2039 58.0683 12.6466C58.0692 12.9916 58.0683 13.3366 58.0683 13.6807C58.0683 13.8447 58.0683 14.0077 58.0683 14.1707C58.0721 15.7167 58.0427 17.2674 57.019 18.5214C56.2768 19.2115 55.3839 19.4096 54.4066 19.3992C53.5915 19.3518 52.9488 19.0949 52.3555 18.5262C52.1839 18.2712 52.1839 18.2712 52.0711 18.0523C52.0256 18.0096 51.9811 17.9669 51.9346 17.9224C51.3687 17.3309 51.346 16.4523 51.3365 15.6826C51.3337 15.5679 51.3308 15.4541 51.328 15.3357C51.3194 14.9148 51.3157 14.493 51.3128 14.0712C51.3119 13.9831 51.3109 13.8949 51.3109 13.8039C51.2995 12.3982 51.3005 10.9935 51.3109 9.58875C51.3128 9.35747 51.3138 9.12713 51.3147 8.89585C51.3175 8.55557 51.3232 8.21529 51.3308 7.87405C51.3308 7.78495 51.3318 7.69491 51.3318 7.60296C51.363 6.67121 51.7488 5.78211 52.3394 5.06457C53.4067 4.09111 54.8465 3.98875 56.1469 4.49775ZM54.5356 6.86742C54.2891 7.23993 54.3033 7.64846 54.2872 8.07974C54.2844 8.166 54.2806 8.25225 54.2768 8.34135C54.2341 9.49965 54.237 10.6598 54.2389 11.82C54.2398 12.147 54.2389 12.4741 54.2389 12.8011C54.2379 13.1205 54.2379 13.4399 54.2389 13.7594C54.2389 13.8741 54.2379 13.9897 54.2379 14.1082C54.2389 14.4437 54.2436 14.7783 54.2512 15.1139C54.2521 15.1774 54.254 15.2409 54.255 15.3063C54.2597 15.5015 54.2673 15.6968 54.2758 15.8921C54.2796 16.0077 54.2844 16.1243 54.2891 16.2447C54.3185 16.5451 54.3185 16.5451 54.5403 16.7177C54.601 16.7518 54.6626 16.785 54.7251 16.82C55.0844 16.4608 55.0209 15.9252 55.0237 15.4428C55.0237 15.3641 55.0237 15.2854 55.0237 15.2039C55.0237 15.1196 55.0237 15.0352 55.0247 14.9489C55.0247 14.6712 55.0256 14.3935 55.0256 14.1148C55.0256 13.9214 55.0256 13.7281 55.0266 13.5347C55.0266 13.129 55.0275 12.7243 55.0275 12.3196C55.0275 11.8001 55.0285 11.2807 55.0303 10.7622C55.0313 10.3622 55.0313 9.96315 55.0313 9.56315C55.0313 9.37168 55.0313 9.18021 55.0322 8.98874C55.0332 8.72145 55.0332 8.45415 55.0322 8.18685C55.0332 8.10723 55.0332 8.02856 55.0341 7.94704C55.0322 7.5442 55.0066 7.23519 54.8199 6.86742C54.7261 6.86742 54.6322 6.86742 54.5356 6.86742Z" />
<path fill-rule="evenodd" clip-rule="evenodd" d="M33.3032 4.49755C33.3999 4.53262 33.3999 4.53262 33.4994 4.56769C34.0975 4.8075 34.4359 5.25963 34.725 5.82456C34.9468 6.48428 34.9402 7.11745 34.9326 7.8094C34.9326 7.97243 34.9326 7.97243 34.9326 8.13925C34.9279 8.93925 34.9279 8.93925 34.8198 9.04731C34.6558 9.05679 34.4909 9.05963 34.326 9.05963C34.2255 9.05963 34.125 9.06058 34.0217 9.06058C33.8624 9.05963 33.8624 9.05963 33.7004 9.05869C33.5951 9.05963 33.4899 9.05963 33.3819 9.06058C33.2814 9.06058 33.18 9.05963 33.0767 9.05963C32.9838 9.05963 32.8909 9.05963 32.7951 9.05963C32.5705 9.04826 32.3809 9.01698 32.1658 8.95252C32.1601 8.83309 32.1544 8.71271 32.1487 8.58949C32.1402 8.43214 32.1326 8.2748 32.1241 8.11745C32.1203 8.03783 32.1165 7.95916 32.1127 7.87764C32.1089 7.80181 32.1051 7.72598 32.1013 7.64731C32.0975 7.57717 32.0937 7.50703 32.0909 7.43499C32.0757 7.22646 32.0757 7.22646 31.9762 6.962C31.8824 6.93072 31.7885 6.89944 31.6918 6.86722C31.4084 7.48428 31.4046 8.2056 31.5677 8.86342C31.8094 9.41887 32.398 9.7857 32.8605 10.1535C33.7023 10.8246 34.8378 11.7762 34.9951 12.9004C35.0075 12.9866 35.0198 13.0739 35.0321 13.163C35.0444 13.2558 35.0568 13.3478 35.0681 13.4435C35.0871 13.5857 35.0871 13.5857 35.106 13.7307C35.271 15.071 35.4624 17.1184 34.6245 18.2833C33.8691 19.0606 33.0037 19.3743 31.9468 19.4151C30.9658 19.399 30.0994 19.0416 29.4056 18.3421C28.6236 17.3904 28.6435 15.9961 28.653 14.8293C28.6549 14.4852 28.6568 14.1411 28.6587 13.7866C29.597 13.7866 30.5354 13.7866 31.5023 13.7866C31.544 15.1013 31.544 15.1013 31.5563 15.5165C31.562 15.6776 31.562 15.6776 31.5667 15.8416C31.5705 15.9516 31.5743 16.0615 31.5771 16.1753C31.58 16.4359 31.58 16.4359 31.6918 16.6302C31.817 16.6302 31.9421 16.6302 32.071 16.6302C32.3174 16.2606 32.2918 15.9449 32.2899 15.5165C32.2918 15.4416 32.2928 15.3677 32.2947 15.2909C32.2956 14.6577 32.1677 14.2009 31.7478 13.707C31.6643 13.6284 31.5819 13.5487 31.4966 13.4663C31.3715 13.3449 31.3715 13.3449 31.2444 13.2217C31.0454 13.0265 31.0454 13.0265 30.8388 12.9336C30.8388 12.871 30.8388 12.8084 30.8388 12.744C30.7828 12.7184 30.7269 12.6919 30.6681 12.6653C29.8482 12.2293 29.1297 11.381 28.8188 10.5165C28.3212 8.83215 28.3715 6.87101 29.1762 5.30608C29.4331 4.88428 29.6757 4.73072 30.1278 4.53357C30.2188 4.49281 30.3098 4.45205 30.4037 4.41129C31.2928 4.03878 32.4302 4.0966 33.3032 4.49755Z" />
<path fill-rule="evenodd" clip-rule="evenodd" d="M4.87461 4.48178C4.94286 4.48178 5.01111 4.48083 5.0822 4.48083C5.22817 4.47988 5.37414 4.47988 5.52011 4.47988C5.73907 4.47988 5.95803 4.47799 6.17698 4.47609C7.25092 4.4723 8.29357 4.54244 9.32201 4.87704C9.32201 4.9396 9.32201 5.00216 9.32201 5.06661C9.41585 5.09789 9.50968 5.12917 9.60637 5.1614C9.71916 5.40405 9.71916 5.40405 9.79594 5.63533C9.8585 5.63533 9.92106 5.63533 9.98551 5.63533C10.323 6.37656 10.2955 7.1813 10.323 7.9813C10.3277 8.08652 10.3315 8.19268 10.3362 8.30168C10.3713 9.25998 10.394 10.2078 10.2936 11.1623C10.2879 11.2344 10.2822 11.3064 10.2756 11.3804C10.2111 12.0022 9.98077 12.3699 9.53528 12.8154C8.7457 13.3623 8.03006 13.2183 7.04713 13.2183C7.04713 15.1263 7.04713 17.0344 7.04713 19.0003C6.73622 19.1036 6.50589 19.1074 6.17888 19.1074C6.00731 19.1074 6.00731 19.1074 5.83291 19.1074C5.65376 19.1074 5.65376 19.1074 5.47177 19.1064C5.29167 19.1074 5.29167 19.1074 5.10779 19.1074C4.99404 19.1074 4.8803 19.1074 4.76276 19.1074C4.65755 19.1074 4.55329 19.1074 4.44523 19.1074C4.20352 19.095 4.20352 19.095 4.10874 19.0003C4.09926 18.8145 4.09736 18.6287 4.09641 18.442C4.09641 18.3216 4.09641 18.2003 4.09641 18.0751C4.09641 17.9396 4.09641 17.8041 4.09641 17.6685C4.09641 17.5263 4.09641 17.3851 4.09641 17.2429C4.09547 16.8562 4.09547 16.4704 4.09641 16.0846C4.09641 15.6808 4.09641 15.278 4.09641 14.8742C4.09547 14.1974 4.09641 13.5197 4.09641 12.8429C4.09736 12.0581 4.09736 11.2742 4.09641 10.4903C4.09641 9.81827 4.09547 9.14529 4.09641 8.47325C4.09641 8.07135 4.09641 7.66946 4.09641 7.26756C4.09547 6.89031 4.09547 6.51211 4.09641 6.13486C4.09641 5.99552 4.09641 5.85619 4.09641 5.71685C4.09641 5.52822 4.09641 5.3396 4.09641 5.15002C4.09736 5.04386 4.09736 4.9377 4.09736 4.8287C4.12106 4.35097 4.48883 4.48273 4.87461 4.48178ZM7.04713 7.24671C7.04713 8.34149 7.04713 9.43628 7.04713 10.5642C7.2348 10.5642 7.42248 10.5642 7.61585 10.5642C7.81016 10.0031 7.83386 9.496 7.82912 8.90547C7.83006 8.81922 7.83101 8.73296 7.83196 8.64386C7.83006 8.14055 7.78077 7.72159 7.61585 7.24671C7.42817 7.24671 7.24049 7.24671 7.04713 7.24671Z" />
<path fill-rule="evenodd" clip-rule="evenodd" d="M36.1489 4.48633C36.2333 4.48633 36.3167 4.48633 36.4029 4.48728C36.4987 4.48728 36.5934 4.48728 36.6911 4.48728C36.7944 4.48728 36.8977 4.48822 37.0039 4.48822C37.1612 4.48822 37.1612 4.48822 37.3224 4.48917C37.6589 4.48917 37.9963 4.49107 38.3328 4.49202C38.5612 4.49202 38.7887 4.49296 39.0171 4.49296C39.5773 4.49391 40.1366 4.49581 40.6968 4.4977C40.6968 5.49865 40.6968 6.4996 40.6968 7.53088C40.1025 7.53088 39.5081 7.53088 38.8958 7.53088C38.8958 8.37543 38.8958 9.21998 38.8958 10.0901C39.4532 10.0863 39.4532 10.0863 40.0105 10.0816C40.0797 10.0816 40.1489 10.0816 40.22 10.0806C40.2911 10.0806 40.3612 10.0797 40.4352 10.0797C40.602 10.0901 40.602 10.0901 40.6968 10.1849C40.7062 10.3868 40.7091 10.5896 40.7091 10.7925C40.71 10.9157 40.71 11.0389 40.71 11.1659C40.71 11.2304 40.7091 11.2949 40.7091 11.3612C40.7091 11.5584 40.7091 11.7555 40.71 11.9527C40.71 12.0759 40.71 12.1991 40.7091 12.3261C40.7091 12.4408 40.7091 12.5546 40.7091 12.6721C40.6968 12.9337 40.6968 12.9337 40.602 13.0285C40.475 13.037 40.347 13.0389 40.22 13.038C40.1157 13.037 40.1157 13.037 40.0105 13.037C39.9224 13.0361 39.8342 13.0351 39.7432 13.0342C39.3233 13.0314 39.3233 13.0314 38.8958 13.0285C38.9271 13.9982 38.9584 14.9678 38.9906 15.9669C39.5442 15.9631 39.5442 15.9631 40.0968 15.9584C40.165 15.9584 40.2342 15.9584 40.3053 15.9574C40.3754 15.9574 40.4465 15.9565 40.5186 15.9565C40.6968 15.9669 40.6968 15.9669 40.8863 16.0617C40.8863 17.0314 40.8863 18.001 40.8863 19.0001C39.9261 19.1072 39.9261 19.1072 39.5641 19.1072C39.4825 19.1072 39.401 19.1081 39.3176 19.1081C39.2333 19.1081 39.1489 19.1081 39.0617 19.1072C38.9726 19.1072 38.8835 19.1072 38.7925 19.1081C38.6058 19.1081 38.419 19.1072 38.2333 19.1072C37.9461 19.1072 37.6598 19.1072 37.3735 19.1081C37.1916 19.1081 37.0096 19.1081 36.8285 19.1072C36.6996 19.1081 36.6996 19.1081 36.5679 19.1081C35.9688 19.1062 35.9688 19.1062 35.8626 19.0001C35.8532 18.8143 35.8513 18.6285 35.8503 18.4427C35.8503 18.3214 35.8503 18.2001 35.8503 18.075C35.8503 17.9394 35.8503 17.8039 35.8503 17.6683C35.8503 17.5261 35.8503 17.3849 35.8503 17.2427C35.8494 16.8569 35.8494 16.4702 35.8503 16.0844C35.8503 15.6806 35.8503 15.2778 35.8503 14.875C35.8494 14.1972 35.8503 13.5195 35.8503 12.8427C35.8513 12.0579 35.8503 11.274 35.8503 10.4901C35.8494 9.81808 35.8494 9.14604 35.8503 8.47401C35.8503 8.07211 35.8503 7.67021 35.8503 7.26832C35.8494 6.89012 35.8494 6.51192 35.8503 6.13467C35.8503 5.99533 35.8503 5.856 35.8503 5.71761C35.8503 5.52803 35.8503 5.33941 35.8503 5.14984C35.8503 5.04462 35.8513 4.93846 35.8513 4.82851C35.8674 4.50339 35.8674 4.50339 36.1489 4.48633Z" />
<path fill-rule="evenodd" clip-rule="evenodd" d="M65.3416 4.4977C66.0013 4.49486 66.661 4.49391 67.3207 4.49296C67.5454 4.49202 67.77 4.49107 67.9946 4.49012C68.3169 4.48917 68.6392 4.48917 68.9605 4.48822C69.0619 4.48822 69.1634 4.48728 69.2676 4.48728C69.407 4.48728 69.407 4.48728 69.5491 4.48728C69.6316 4.48633 69.7131 4.48633 69.7984 4.48633C69.9861 4.4977 69.9861 4.4977 70.0809 4.59249C70.0894 4.80955 70.0913 5.02756 70.0904 5.24462C70.0904 5.31002 70.0894 5.37448 70.0894 5.44178C70.0894 5.65031 70.0885 5.85884 70.0866 6.06737C70.0866 6.2086 70.0856 6.34984 70.0856 6.49107C70.0847 6.83799 70.0828 7.18396 70.0809 7.53088C69.9463 7.54699 69.8117 7.56216 69.6771 7.57732C69.6022 7.58585 69.5273 7.59439 69.4496 7.60386C69.0022 7.64841 68.6221 7.63988 68.1852 7.53088C68.1852 8.37543 68.1852 9.21998 68.1852 10.0901C68.7482 10.0901 69.3112 10.0901 69.8913 10.0901C69.97 10.7081 70.0003 11.31 69.9975 11.9328C69.9984 12.0598 69.9984 12.0598 69.9994 12.1896C69.9994 12.2712 69.9984 12.3517 69.9984 12.4361C69.9984 12.5091 69.9984 12.5821 69.9984 12.6569C69.9861 12.8389 69.9861 12.8389 69.8913 13.0285C69.3283 13.0285 68.7653 13.0285 68.1852 13.0285C68.2164 13.9982 68.2477 14.9678 68.28 15.9669C68.7577 15.9631 68.7577 15.9631 69.2354 15.9584C69.6022 15.9565 69.9065 15.9887 70.2705 16.0617C70.2705 17.0314 70.2705 18.001 70.2705 19.0001C69.9264 19.0693 69.6743 19.1062 69.334 19.1053C69.2449 19.1053 69.1558 19.1053 69.0638 19.1053C68.969 19.1053 68.8733 19.1043 68.7757 19.1043C68.6288 19.1043 68.6288 19.1043 68.4781 19.1034C68.1653 19.1034 67.8525 19.1024 67.5397 19.1005C67.3273 19.1005 67.1141 19.0996 66.9018 19.0996C66.3823 19.0987 65.8619 19.0968 65.3416 19.0949C65.1747 18.7347 65.1283 18.4532 65.1283 18.0569C65.1273 17.9441 65.1264 17.8314 65.1264 17.7148C65.1264 17.5925 65.1273 17.4693 65.1273 17.3423C65.1273 17.2105 65.1264 17.0787 65.1264 16.947C65.1254 16.5906 65.1264 16.2332 65.1264 15.8768C65.1273 15.5034 65.1264 15.129 65.1264 14.7555C65.1254 14.1271 65.1264 13.4986 65.1273 12.8712C65.1283 12.146 65.1283 11.4209 65.1273 10.6958C65.1264 10.0721 65.1264 9.44841 65.1264 8.82566C65.1264 8.45315 65.1264 8.08159 65.1264 7.71002C65.1254 7.35931 65.1264 7.00955 65.1273 6.65979C65.1273 6.47116 65.1273 6.28159 65.1264 6.09296C65.1292 5.52519 65.1425 5.03135 65.3416 4.4977Z" />
<path fill-rule="evenodd" clip-rule="evenodd" d="M58.517 4.4977C59.2639 4.49581 60.0118 4.49391 60.7587 4.49296C61.1056 4.49202 61.4535 4.49202 61.8004 4.49012C62.135 4.48917 62.4696 4.48917 62.8052 4.48917C62.9947 4.48822 63.1843 4.48728 63.3748 4.48728C63.5483 4.48728 63.5483 4.48728 63.7255 4.48728C63.827 4.48633 63.9293 4.48633 64.0336 4.48633C64.299 4.4977 64.299 4.4977 64.6781 4.59249C64.6781 5.56216 64.6781 6.53183 64.6781 7.53088C64.1966 7.77164 63.6052 7.62566 63.0668 7.62566C63.0355 11.4105 63.0042 15.1953 62.972 19.0949C60.318 19.0949 60.318 19.0949 60.0336 19.0001C60.0336 15.2152 60.0336 11.4304 60.0336 7.53088C59.8459 7.57827 59.8459 7.57827 59.6544 7.62566C59.4943 7.6342 59.335 7.63799 59.1748 7.63704C59.0526 7.63799 59.0526 7.63799 58.9284 7.63799C58.7066 7.62566 58.7066 7.62566 58.4222 7.53088C58.3483 7.00386 58.3104 6.49296 58.3094 5.96121C58.3075 5.85884 58.3075 5.85884 58.3066 5.75552C58.3056 5.68822 58.3056 5.62093 58.3056 5.55173C58.3056 5.49296 58.3047 5.43325 58.3047 5.37258C58.3379 5.06927 58.4289 4.7887 58.517 4.4977Z" />
<path fill-rule="evenodd" clip-rule="evenodd" d="M11.0283 4.49756C11.9667 4.49756 12.9051 4.49756 13.8719 4.49756C13.9667 4.59235 13.9667 4.59235 13.9781 4.78287C13.9781 4.90988 13.9781 4.90988 13.9781 5.03879C13.9781 5.13547 13.9781 5.23216 13.9781 5.33168C13.9781 5.43879 13.9781 5.5459 13.9771 5.65585C13.9771 5.7677 13.9771 5.87955 13.9771 5.99519C13.9771 6.3023 13.9771 6.61035 13.9762 6.91746C13.9762 7.23879 13.9752 7.56012 13.9752 7.88144C13.9752 8.48998 13.9743 9.09851 13.9733 9.70704C13.9724 10.3999 13.9724 11.0928 13.9714 11.7857C13.9705 13.2113 13.9686 14.6359 13.9667 16.0615C14.0842 16.0464 14.2018 16.0312 14.3231 16.0151C14.7876 15.9544 15.2236 15.9118 15.6729 16.0615C15.6729 17.0312 15.6729 18.0009 15.6729 18.9999C15.1127 19.0625 14.5857 19.1089 14.0274 19.107C13.9563 19.107 13.8852 19.107 13.8113 19.108C13.6624 19.108 13.5136 19.107 13.3639 19.107C13.1364 19.1061 12.9089 19.107 12.6814 19.108C12.5354 19.108 12.3904 19.107 12.2444 19.107C12.1771 19.107 12.1098 19.108 12.0397 19.108C11.6823 19.1061 11.3838 19.071 11.0283 18.9999C11.0283 14.2141 11.0283 9.42836 11.0283 4.49756Z" />
<path fill-rule="evenodd" clip-rule="evenodd" d="M20.7911 2.50708C20.8536 2.50708 20.9162 2.50708 20.9806 2.50708C20.9806 2.56964 20.9806 2.6322 20.9806 2.69665C20.8868 2.66537 20.793 2.63409 20.6963 2.60187C20.7276 2.57059 20.7588 2.53931 20.7911 2.50708Z" />
</svg>
