<svg width="22.5" height="22.5" viewBox="0 0 15 15" fill="none"  xmlns="http://www.w3.org/2000/svg">
<path opacity="0.9" d="M10.3221 9.45835H9.68976L9.46564 9.24223C10.2772 8.30091 10.7232 7.09916 10.7224 5.85629C10.7224 4.82724 10.4172 3.8213 9.84549 2.96568C9.27378 2.11005 8.46119 1.44318 7.51047 1.04938C6.55975 0.655575 5.51361 0.552538 4.50433 0.753296C3.49505 0.954054 2.56797 1.44959 1.84032 2.17724C1.11267 2.90489 0.61714 3.83197 0.416382 4.84124C0.215624 5.85052 0.318661 6.89667 0.712461 7.84739C1.10626 8.7981 1.77314 9.6107 2.62876 10.1824C3.48439 10.7541 4.49033 11.0593 5.51938 11.0593C6.80812 11.0593 7.99279 10.587 8.90531 9.80255L9.12144 10.0267V10.659L13.1237 14.6533L14.3164 13.4606L10.3221 9.45835ZM5.51938 9.45835C3.52624 9.45835 1.91732 7.84943 1.91732 5.85629C1.91732 3.86316 3.52624 2.25424 5.51938 2.25424C7.51252 2.25424 9.12144 3.86316 9.12144 5.85629C9.12144 7.84943 7.51252 9.45835 5.51938 9.45835Z" fill="#2F6EB6"/>
</svg>
