<svg xmlns="http://www.w3.org/2000/svg" width="30.607" height="30.607" viewBox="0 0 30.607 30.607">
  <g id="Group_13108" data-name="Group 13108" transform="translate(-2.157 -2.05)">
    <path id="Path_320" data-name="Path 320" d="M23.944,6.221a12.535,12.535,0,0,1,1.037,16.55q.036.032.07.066L31.7,29.483A1.567,1.567,0,0,1,29.483,31.7l-6.646-6.646q-.034-.035-.066-.07A12.533,12.533,0,1,1,23.944,6.221ZM21.729,21.729a9.4,9.4,0,1,0-13.293,0A9.4,9.4,0,0,0,21.729,21.729Z" transform="translate(0.107 0)" fill="#fff" stroke="#fff" stroke-width="1" fill-rule="evenodd"/>
    <path id="Path_6224" data-name="Path 6224" d="M5.8,8.213a.506.506,0,0,0-.551-.106.455.455,0,0,0-.273.273.506.506,0,1,0,.93,0A.58.58,0,0,0,5.8,8.213Zm4.044,0a.529.529,0,0,0-.718,0,.58.58,0,0,0-.106.167.5.5,0,0,0,.106.551.58.58,0,0,0,.167.106.476.476,0,0,0,.384,0,.587.587,0,0,0,.167-.106.5.5,0,0,0,.106-.551.58.58,0,0,0-.106-.167Zm1.314,2.328a2.512,2.512,0,0,0,.9-2.435L11.3,4.062A2.528,2.528,0,0,0,8.815,2H6.1A2.528,2.528,0,0,0,3.621,4.062L2.863,8.106a2.512,2.512,0,0,0,.9,2.435l-.707.707a.505.505,0,1,0,.715.715l.945-.945a2.53,2.53,0,0,0,.628.082H9.573a2.531,2.531,0,0,0,.628-.082l.945.945a.505.505,0,1,0,.715-.715ZM4.614,4.248A1.518,1.518,0,0,1,6.1,3.011h2.71a1.518,1.518,0,0,1,1.49,1.237l.175.935a4.021,4.021,0,0,1-6.042,0ZM10.74,9.54a1.511,1.511,0,0,1-1.167.548H5.346a1.517,1.517,0,0,1-1.49-1.8l.359-1.917a5.032,5.032,0,0,0,6.489,0l.359,1.917A1.512,1.512,0,0,1,10.74,9.54Z" transform="translate(7.339 8.495)" fill="#fff"/>
  </g>
</svg>
