<svg width="24" height="32" viewBox="1 0 24 32" fill="currentColor" xmlns="http://www.w3.org/2000/svg">
<path fill="currentColor" stroke="currentColor" stroke-width="0.5" d="M3.39378 0.235016C3.2661 0.263079 3.1517 0.333618 3.06929 0.435108C2.98688 0.536598 2.94133 0.663037 2.94008 0.793766V7.25403C2.3478 7.89883 1.90974 8.37824 1.57785 8.7906C0.934166 9.59184 0.705078 10.3104 0.705078 11.2703C0.705078 12.5264 1.70412 13.5858 2.94008 13.645V30.9663C2.94008 31.2591 3.20604 31.525 3.49883 31.525H20.2613C20.4078 31.5195 20.5467 31.4588 20.6503 31.3552C20.7539 31.2516 20.8145 31.1127 20.8201 30.9663V13.645C22.056 13.5858 23.0551 12.5264 23.0551 11.2703V11.1653C23.0551 10.2936 22.9377 9.60078 22.322 8.7906C21.9923 8.35701 21.4906 7.84184 20.8201 7.14899V0.793766C20.8145 0.647342 20.7539 0.508413 20.6503 0.404802C20.5467 0.301191 20.4078 0.240547 20.2613 0.235016H3.39378ZM4.05758 1.35252H19.7026V5.99685C19.3249 5.61354 19.0634 5.33193 18.5851 4.8447C18.5233 4.7952 18.4517 4.75939 18.375 4.73966V4.70502H5.42093C5.39748 4.70354 5.37397 4.70354 5.35053 4.70502C5.242 4.73374 5.14465 4.79449 5.07115 4.87935C4.65544 5.35987 4.3973 5.62025 4.0587 5.99685V1.35252H4.05758ZM9.64508 2.47002V3.58752H14.1151V2.47002H9.64508ZM5.73383 5.82252H17.957C19.4154 7.30767 20.287 8.22291 20.8905 8.89564H2.9736C3.58152 8.21397 4.42971 7.31326 5.73383 5.82252ZM2.06731 10.0131H21.7632C21.9309 10.3462 21.9376 10.5853 21.9376 11.1653V11.2703C21.9376 11.9744 21.39 12.5275 20.715 12.5275C20.0412 12.5275 19.5282 11.9755 19.5282 11.2703C19.5282 11.1221 19.4694 10.98 19.3646 10.8752C19.2598 10.7704 19.1177 10.7116 18.9695 10.7116C18.8213 10.7116 18.6792 10.7704 18.5744 10.8752C18.4696 10.98 18.4107 11.1221 18.4107 11.2703C18.4107 11.9744 17.8632 12.5275 17.1882 12.5275C16.5132 12.5275 15.9657 11.9755 15.9657 11.2703C15.9657 11.1221 15.9068 10.98 15.802 10.8752C15.6972 10.7704 15.5551 10.7116 15.4069 10.7116C15.2587 10.7116 15.1166 10.7704 15.0118 10.8752C14.907 10.98 14.8482 11.1221 14.8482 11.2703C14.8482 11.9744 14.3352 12.5275 13.6614 12.5275C12.9864 12.5275 12.4388 11.9755 12.4388 11.2703C12.4388 11.1221 12.38 10.98 12.2752 10.8752C12.1704 10.7704 12.0283 10.7116 11.8801 10.7116C11.7319 10.7116 11.5898 10.7704 11.485 10.8752C11.3802 10.98 11.3213 11.1221 11.3213 11.2703C11.3213 11.9744 10.7738 12.5275 10.0988 12.5275C9.42493 12.5275 8.912 11.9755 8.912 11.2703C8.90395 11.2343 8.89235 11.1991 8.87736 11.1653C8.85798 11.0607 8.80913 10.9637 8.73655 10.8859C8.71429 10.8728 8.69113 10.8612 8.66727 10.8513C8.6265 10.8091 8.57936 10.7737 8.52758 10.7462C8.4827 10.7287 8.43575 10.7171 8.38789 10.7116C8.36445 10.7101 8.34093 10.7101 8.31749 10.7116C8.2818 10.7197 8.24699 10.7313 8.21356 10.7462C8.09638 10.7764 7.99216 10.8438 7.91659 10.9384C7.84102 11.0329 7.79817 11.1494 7.7945 11.2703C7.7945 11.9744 7.24692 12.5275 6.57195 12.5275C6.23447 12.5275 5.95398 12.3677 5.73383 12.1431C5.51368 11.9196 5.34941 11.6223 5.34941 11.2703C5.34941 11.1221 5.29054 10.98 5.18575 10.8752C5.08097 10.7704 4.93885 10.7116 4.79066 10.7116C4.64247 10.7116 4.50035 10.7704 4.39556 10.8752C4.29078 10.98 4.23191 11.1221 4.23191 11.2703C4.23191 11.6223 4.10228 11.9185 3.88325 12.1431C3.6631 12.3666 3.38261 12.5275 3.04512 12.5275C2.37015 12.5275 1.82258 11.9755 1.82258 11.2703C1.82258 10.6814 1.85163 10.3808 2.06731 10.0131ZM11.8801 12.5979C12.3036 13.1902 12.8858 13.645 13.6614 13.645C14.4213 13.645 14.9823 13.2058 15.4069 12.6326C15.7757 13.1332 16.2853 13.5143 16.9088 13.6104V25.3788H6.85133V13.6104C7.47489 13.5143 7.98559 13.1332 8.35325 12.6326C8.7779 13.2058 9.33777 13.645 10.0988 13.645C10.8754 13.645 11.4565 13.1913 11.8801 12.5979ZM4.79066 12.6314C4.85771 12.7242 4.851 12.8661 4.93035 12.9466C5.1572 13.1779 5.42875 13.3835 5.73383 13.5053V26.4963H18.0263V13.4349C18.3929 13.2539 18.7192 12.9723 18.9695 12.6326C19.1818 12.9186 19.4143 13.1846 19.7026 13.3656V30.4075H4.05758V13.4003C4.28778 13.2841 4.50681 13.1298 4.68673 12.9466C4.76272 12.8684 4.72584 12.7197 4.79066 12.6314ZM11.7057 27.055C11.4405 27.0969 11.1992 27.2329 11.026 27.4381C10.8528 27.6433 10.7593 27.904 10.7626 28.1725C10.7626 28.4689 10.8803 28.7531 11.0899 28.9627C11.2995 29.1723 11.5837 29.29 11.8801 29.29C12.1765 29.29 12.4607 29.1723 12.6703 28.9627C12.8798 28.7531 12.9976 28.4689 12.9976 28.1725C12.9976 27.8761 12.8798 27.5919 12.6703 27.3823C12.4607 27.1728 12.1765 27.055 11.8801 27.055C11.8221 27.0505 11.7638 27.0505 11.7057 27.055Z" />
</svg>
