
<svg width="28" height="39" viewBox="0 0 28 39" fill="currentColor" xmlns="http://www.w3.org/2000/svg">
<path d="M3.93632 0.929199C3.78451 0.962563 3.64851 1.04643 3.55053 1.16709C3.45256 1.28775 3.3984 1.43807 3.39691 1.59349V9.27403C2.69276 10.0406 2.17196 10.6106 1.77737 11.1008C1.01211 12.0534 0.739746 12.9077 0.739746 14.049C0.739746 15.5423 1.9275 16.8018 3.39691 16.8722V37.4652C3.39691 37.8133 3.71312 38.1295 4.0612 38.1295H23.99C24.164 38.123 24.3292 38.0509 24.4524 37.9277C24.5756 37.8045 24.6477 37.6393 24.6542 37.4652V16.8722C26.1237 16.8018 27.3114 15.5423 27.3114 14.049V13.9241C27.3114 12.8878 27.1719 12.0641 26.4399 11.1008C26.0479 10.5853 25.4514 9.97287 24.6542 9.14914V1.59349C24.6477 1.41941 24.5756 1.25424 24.4524 1.13106C24.3292 1.00787 24.164 0.935775 23.99 0.929199H3.93632ZM4.7255 2.25778H23.3257V7.77938C22.8766 7.32367 22.5657 6.98887 21.9971 6.40961C21.9236 6.35075 21.8385 6.30818 21.7473 6.28472V6.24353H6.34637C6.3185 6.24177 6.29054 6.24177 6.26267 6.24353C6.13364 6.27768 6.0179 6.34991 5.93052 6.45079C5.43629 7.02208 5.12939 7.33164 4.72682 7.77938V2.25778H4.7255ZM11.3684 3.58637V4.91495H16.6827V3.58637H11.3684ZM6.71837 7.57212H21.2504C22.9842 9.3378 24.0205 10.4259 24.7379 11.2257H3.43677C4.15952 10.4153 5.16791 9.34445 6.71837 7.57212ZM2.35929 12.5543H25.7756C25.9749 12.9502 25.9828 13.2345 25.9828 13.9241V14.049C25.9828 14.886 25.3318 15.5436 24.5294 15.5436C23.7282 15.5436 23.1184 14.8873 23.1184 14.049C23.1184 13.8728 23.0484 13.7038 22.9238 13.5792C22.7993 13.4547 22.6303 13.3847 22.4541 13.3847C22.2779 13.3847 22.109 13.4547 21.9844 13.5792C21.8598 13.7038 21.7898 13.8728 21.7898 14.049C21.7898 14.886 21.1388 15.5436 20.3363 15.5436C19.5339 15.5436 18.8829 14.8873 18.8829 14.049C18.8829 13.8728 18.8129 13.7038 18.6883 13.5792C18.5637 13.4547 18.3948 13.3847 18.2186 13.3847C18.0424 13.3847 17.8734 13.4547 17.7489 13.5792C17.6243 13.7038 17.5543 13.8728 17.5543 14.049C17.5543 14.886 16.9445 15.5436 16.1433 15.5436C15.3409 15.5436 14.6899 14.8873 14.6899 14.049C14.6899 13.8728 14.6199 13.7038 14.4953 13.5792C14.3707 13.4547 14.2018 13.3847 14.0256 13.3847C13.8494 13.3847 13.6804 13.4547 13.5559 13.5792C13.4313 13.7038 13.3613 13.8728 13.3613 14.049C13.3613 14.886 12.7103 15.5436 11.9078 15.5436C11.1067 15.5436 10.4969 14.8873 10.4969 14.049C10.4873 14.0061 10.4735 13.9642 10.4557 13.9241C10.4326 13.7997 10.3746 13.6844 10.2883 13.5919C10.2618 13.5763 10.2343 13.5625 10.2059 13.5507C10.1574 13.5007 10.1014 13.4585 10.0398 13.4259C9.98648 13.405 9.93066 13.3912 9.87376 13.3847C9.84588 13.3829 9.81793 13.3829 9.79006 13.3847C9.74762 13.3943 9.70623 13.4081 9.6665 13.4259C9.52718 13.4618 9.40328 13.5419 9.31343 13.6543C9.22358 13.7667 9.17265 13.9052 9.16828 14.049C9.16828 14.886 8.51727 15.5436 7.71481 15.5436C7.31358 15.5436 6.9801 15.3536 6.71837 15.0866C6.45664 14.8209 6.26134 14.4675 6.26134 14.049C6.26134 13.8728 6.19135 13.7038 6.06677 13.5792C5.94219 13.4547 5.77323 13.3847 5.59705 13.3847C5.42087 13.3847 5.2519 13.4547 5.12732 13.5792C5.00274 13.7038 4.93275 13.8728 4.93275 14.049C4.93275 14.4675 4.77864 14.8195 4.51824 15.0866C4.25651 15.3523 3.92303 15.5436 3.5218 15.5436C2.71933 15.5436 2.06833 14.8873 2.06833 14.049C2.06833 13.3488 2.10287 12.9914 2.35929 12.5543ZM14.0256 15.6273C14.5291 16.3315 15.2213 16.8722 16.1433 16.8722C17.0468 16.8722 17.7137 16.3501 18.2186 15.6685C18.657 16.2637 19.2629 16.7168 20.0042 16.831V30.8223H8.04695V16.831C8.7883 16.7168 9.39547 16.2637 9.83257 15.6685C10.3374 16.3501 11.0031 16.8722 11.9078 16.8722C12.8312 16.8722 13.522 16.3328 14.0256 15.6273ZM5.59705 15.6672C5.67676 15.7774 5.66879 15.9462 5.76312 16.0418C6.03282 16.3169 6.35567 16.5613 6.71837 16.7061V32.1509H21.3328V16.6224C21.7686 16.4072 22.1565 16.0724 22.4541 15.6685C22.7065 16.0086 22.9829 16.3248 23.3257 16.5401V36.8009H4.7255V16.5812C4.99918 16.4431 5.25959 16.2597 5.47349 16.0418C5.56383 15.9488 5.51999 15.7721 5.59705 15.6672ZM13.8183 32.8152C13.503 32.865 13.2161 33.0266 13.0102 33.2706C12.8043 33.5146 12.6931 33.8246 12.697 34.1438C12.697 34.4961 12.837 34.8341 13.0861 35.0832C13.3353 35.3324 13.6732 35.4724 14.0256 35.4724C14.3779 35.4724 14.7159 35.3324 14.965 35.0832C15.2142 34.8341 15.3542 34.4961 15.3542 34.1438C15.3542 33.7914 15.2142 33.4535 14.965 33.2043C14.7159 32.9552 14.3779 32.8152 14.0256 32.8152C13.9566 32.8098 13.8873 32.8098 13.8183 32.8152Z"/>
</svg>
