<svg xmlns="http://www.w3.org/2000/svg" width="18.5" height="18.5" viewBox="0 0 18.5 18.5">
  <path id="Path_6134" data-name="Path 6134" d="M10,3H4A1,1,0,0,0,3,4v6a1,1,0,0,0,1,1h6a1,1,0,0,0,1-1V4A1,1,0,0,0,10,3ZM9,9H5V5H9ZM20,3H14a1,1,0,0,0-1,1v6a1,1,0,0,0,1,1h6a1,1,0,0,0,1-1V4A1,1,0,0,0,20,3ZM19,9H15V5h4Zm-9,4H4a1,1,0,0,0-1,1v6a1,1,0,0,0,1,1h6a1,1,0,0,0,1-1V14A1,1,0,0,0,10,13ZM9,19H5V15H9Zm8-6a4,4,0,1,0,4,4A4,4,0,0,0,17,13Zm0,6a2,2,0,1,1,2-2A2,2,0,0,1,17,19Z" transform="translate(-2.75 -2.75)" fill="currentColor"/>
</svg>
