<svg width="95" height="55" viewBox="0 0 89 32" fill="#FFF" xmlns="http://www.w3.org/2000/svg">
<path d="M4.8418 16.7253L32.3315 16.7253" stroke="currentColor" stroke-width="0.458162" stroke-linecap="round" stroke-dasharray="2.75 2.75"/>
<path d="M3.46788 16.7249C3.46788 17.5276 2.8397 18.1549 2.09339 18.1549C1.34708 18.1549 0.718904 17.5276 0.718904 16.7249C0.718904 15.9221 1.34708 15.2948 2.09339 15.2948C2.8397 15.2948 3.46788 15.9221 3.46788 16.7249Z" stroke="currentColor" stroke-width="0.916324"/>
<path d="M83.6465 16.7261H56.1568" stroke="currentColor" stroke-width="0.458162" stroke-linecap="round" stroke-dasharray="2.75 2.75"/>
<path d="M85.0214 16.7261C85.0214 15.9233 85.6496 15.2961 86.3959 15.2961C87.1422 15.2961 87.7704 15.9233 87.7704 16.7261C87.7704 17.5288 87.1422 18.1561 86.3959 18.1561C85.6496 18.1561 85.0214 17.5288 85.0214 16.7261Z" stroke="currentColor" stroke-width="0.916324"/>
<g opacity="0.4">
<path d="M44.75 10.0232C43.6526 10.0222 42.1375 10.3451 41.5126 10.6161C40.8836 10.8835 40.4656 11.1526 40.3352 11.8224L39.8643 15.5555V20.697H40.6753V21.499C40.6747 22.4836 42.0704 22.4836 42.0685 21.499V20.697H47.3335V21.499C47.3345 22.4836 48.7302 22.4836 48.733 21.499V20.697H49.5375V15.5555L49.0666 11.8224C48.9393 11.1526 48.5213 10.8835 47.8961 10.6161C47.2674 10.3451 45.7526 10.0222 44.6584 10.0232" fill='currentColor'/>
<path d="M48.0351 19.0856C48.4033 19.0824 48.7032 18.7734 48.7022 18.3915C48.7032 18.0118 48.4033 17.7028 48.0351 17.7041C47.6637 17.7028 47.3638 18.0118 47.3613 18.3915C47.3638 18.7734 47.6637 19.0824 48.0351 19.0856Z" fill="#fff"/>
<path d="M41.3759 19.0869C41.0039 19.0836 40.7044 18.7747 40.7021 18.3927C40.7044 18.013 41.0039 17.704 41.3759 17.7053C41.7435 17.704 42.0434 18.013 42.043 18.3927C42.0434 18.7747 41.7435 19.0836 41.3759 19.0869Z" fill="#fff"/>
<path d="M44.6535 11.5728H42.7109C42.3216 11.5695 42.3216 10.964 42.7109 10.9666H46.6939C47.0861 10.964 47.0861 11.5695 46.6939 11.5728H44.6535Z" fill="#fff"/>
<path d="M44.6521 12.179H41.6565C41.242 12.1806 41.1337 12.3974 41.0807 12.7248L40.7144 15.4337C40.6835 15.6907 40.7563 15.9481 41.1069 15.9458H48.3015C48.6486 15.9481 48.7214 15.6907 48.6873 15.4337L48.321 12.7248C48.2713 12.3974 48.1629 12.1806 47.7522 12.179H44.6521Z" fill="#fff"/>
</g>
</svg>
