<svg xmlns="http://www.w3.org/2000/svg" width="30" height="30" viewBox="0 0 110 109.89" fill="currentColor">
  <path id="Path_54" data-name="Path 54" d="M45.449-48.079h-8.63a2.4,2.4,0,0,0-.346-.092c-1.168-.136-2.343-.227-3.505-.4a53.71,53.71,0,0,1-18.7-6.414A54.6,54.6,0,0,1-9.27-81.029a53.44,53.44,0,0,1-4.407-17.834c-.052-.73-.12-1.458-.18-2.187v-3.58c.027-.18.065-.359.078-.539.069-.991.113-1.984.2-2.973a50.254,50.254,0,0,1,2.41-11.681,54.361,54.361,0,0,1,28.29-32.561,52.61,52.61,0,0,1,20.039-5.4c.744-.051,1.488-.121,2.231-.182h3.489c.164.027.327.068.492.08,1.113.077,2.231.112,3.34.227a54.318,54.318,0,0,1,12.84,2.887,54.56,54.56,0,0,1,27.162,21.046A53.743,53.743,0,0,1,96-106.939a54.837,54.837,0,0,1-.411,11.805,53.174,53.174,0,0,1-4.672,15.605A54.6,54.6,0,0,1,65.7-53.747a53.185,53.185,0,0,1-18.078,5.4C46.9-48.268,46.173-48.17,45.449-48.079ZM.377-83.536A45.164,45.164,0,0,0,44.36-57.888,44.982,44.982,0,0,0,81.876-83.536Zm80.608-40.637a44.981,44.981,0,0,0-45.364-23.6,43.985,43.985,0,0,0-24.8,11.381,45.069,45.069,0,0,0-9.546,12.22ZM33.191-92.339l.056.11h.5q19.553,0,39.105,0c3.916,0,7.833-.029,11.75-.021.448,0,.6-.15.682-.566a50.549,50.549,0,0,0,1.009-8.134,46.782,46.782,0,0,0-1.5-13.9c-.137-.514-.363-.62-.84-.62q-12.369.009-24.739-.022a3.378,3.378,0,0,0-2.529,1Q45.247-103.645,33.742-92.866C33.557-92.692,33.375-92.515,33.191-92.339ZM46.04-115.455c-.268-.012-.415-.024-.562-.024q-23.612,0-47.223-.012a.535.535,0,0,0-.627.467,46.236,46.236,0,0,0-1.516,8.511A45.2,45.2,0,0,0-2.832-92.624c.071.31.2.407.525.406q11.633-.062,23.266-.116a1.294,1.294,0,0,0,.8-.323q10.061-9.4,20.1-18.821C43.227-112.765,44.582-114.069,46.04-115.455Z" transform="translate(13.857 157.969)" />
</svg>
