<svg width="60" height="60" viewBox="0 0 55 55" fill="none" xmlns="http://www.w3.org/2000/svg">
<path d="M24.6321 9.58507H10.8703C10.442 9.58507 10.0313 9.7552 9.72848 10.058C9.42566 10.3608 9.25553 10.7716 9.25553 11.1998V25.1942C9.25553 25.6224 9.42566 26.0332 9.72848 26.336C10.0313 26.6388 10.442 26.8089 10.8703 26.8089H24.6321C25.0604 26.8089 25.4711 26.6388 25.7739 26.336C26.0767 26.0332 26.2469 25.6224 26.2469 25.1942V11.1998C26.2469 10.7716 26.0767 10.3608 25.7739 10.058C25.4711 9.7552 25.0604 9.58507 24.6321 9.58507ZM23.0174 23.5795H12.485V12.8145H23.0174V23.5795ZM19.9042 16.044H15.5982V20.35H19.9042V16.044ZM2.68033 22.503C3.25133 22.503 3.79895 22.2761 4.20271 21.8724C4.60648 21.4686 4.83331 20.921 4.83331 20.35V7.43209C4.83388 6.86126 5.06089 6.31397 5.46453 5.91033C5.86817 5.50669 6.41546 5.27968 6.98629 5.27911H19.9042C20.4752 5.27911 21.0228 5.05228 21.4266 4.64852C21.8303 4.24475 22.0572 3.69713 22.0572 3.12613C22.0572 2.55512 21.8303 2.0075 21.4266 1.60374C21.0228 1.19998 20.4752 0.973145 19.9042 0.973145H6.98629C5.2738 0.974854 3.63193 1.6559 2.42101 2.86681C1.2101 4.07773 0.529054 5.7196 0.527344 7.43209V20.35C0.527344 20.921 0.754175 21.4686 1.15794 21.8724C1.5617 22.2761 2.10932 22.503 2.68033 22.503ZM24.6321 28.9619H10.8703C10.442 28.9619 10.0313 29.132 9.72848 29.4349C9.42566 29.7377 9.25553 30.1484 9.25553 30.5767V44.571C9.25553 44.9993 9.42566 45.41 9.72848 45.7128C10.0313 46.0156 10.442 46.1858 10.8703 46.1858H24.6321C25.0604 46.1858 25.4711 46.0156 25.7739 45.7128C26.0767 45.41 26.2469 44.9993 26.2469 44.571V30.5767C26.2469 30.1484 26.0767 29.7377 25.7739 29.4349C25.4711 29.132 25.0604 28.9619 24.6321 28.9619ZM23.0174 42.9563H12.485V32.1914H23.0174V42.9563ZM19.9042 35.4209H15.5982V39.7268H19.9042V35.4209ZM19.9042 50.4917H6.98629C6.41546 50.4912 5.86817 50.2641 5.46453 49.8605C5.06089 49.4569 4.83388 48.9096 4.83331 48.3388V35.4209C4.83331 34.8499 4.60648 34.3022 4.20271 33.8985C3.79895 33.4947 3.25133 33.2679 2.68033 33.2679C2.10932 33.2679 1.5617 33.4947 1.15794 33.8985C0.754175 34.3022 0.527344 34.8499 0.527344 35.4209V48.3388C0.529054 50.0512 1.2101 51.6931 2.42101 52.904C3.63193 54.1149 5.2738 54.796 6.98629 54.7977H19.9042C20.4752 54.7977 21.0228 54.5709 21.4266 54.1671C21.8303 53.7633 22.0572 53.2157 22.0572 52.6447C22.0572 52.0737 21.8303 51.5261 21.4266 51.1223C21.0228 50.7186 20.4752 50.4917 19.9042 50.4917ZM52.1989 33.2679C51.6279 33.2679 51.0803 33.4947 50.6765 33.8985C50.2728 34.3022 50.0459 34.8499 50.0459 35.4209V48.3388C50.0454 48.9096 49.8183 49.4569 49.4147 49.8605C49.0111 50.2641 48.4638 50.4912 47.893 50.4917H34.9751C34.4041 50.4917 33.8564 50.7186 33.4527 51.1223C33.0489 51.5261 32.8221 52.0737 32.8221 52.6447C32.8221 53.2157 33.0489 53.7633 33.4527 54.1671C33.8564 54.5709 34.4041 54.7977 34.9751 54.7977H47.893C49.6054 54.796 51.2473 54.1149 52.4582 52.904C53.6691 51.6931 54.3502 50.0512 54.3519 48.3388V35.4209C54.3519 34.8499 54.1251 34.3022 53.7213 33.8985C53.3175 33.4947 52.7699 33.2679 52.1989 33.2679ZM33.8986 40.8033H29.5926V45.1093H33.8986V40.8033ZM29.5926 34.3315H33.8986V30.0255H29.5926V34.3315ZM47.893 0.973145H34.9751C34.4041 0.973145 33.8564 1.19998 33.4527 1.60374C33.0489 2.0075 32.8221 2.55512 32.8221 3.12613C32.8221 3.69713 33.0489 4.24475 33.4527 4.64852C33.8564 5.05228 34.4041 5.27911 34.9751 5.27911H47.893C48.4638 5.27968 49.0111 5.50669 49.4147 5.91033C49.8183 6.31397 50.0454 6.86126 50.0459 7.43209V20.35C50.0459 20.921 50.2728 21.4686 50.6765 21.8724C51.0803 22.2761 51.6279 22.503 52.1989 22.503C52.7699 22.503 53.3175 22.2761 53.7213 21.8724C54.1251 21.4686 54.3519 20.921 54.3519 20.35V7.43209C54.3502 5.7196 53.6691 4.07773 52.4582 2.86681C51.2473 1.6559 49.6054 0.974854 47.893 0.973145ZM34.9751 20.35H39.281V16.044H34.9751V20.35ZM39.281 39.7268V35.4209H34.9751V39.7268H39.281ZM44.009 26.8089C44.4372 26.8089 44.8479 26.6388 45.1508 26.336C45.4536 26.0332 45.6237 25.6224 45.6237 25.1942V11.1998C45.6237 10.7716 45.4536 10.3608 45.1508 10.058C44.8479 9.7552 44.4372 9.58507 44.009 9.58507H30.2471C29.8189 9.58507 29.4081 9.7552 29.1053 10.058C28.8025 10.3608 28.6324 10.7716 28.6324 11.1998V25.1942C28.6324 25.6224 28.8025 26.0332 29.1053 26.336C29.4081 26.6388 29.8189 26.8089 30.2471 26.8089H44.009ZM31.8618 12.8145H42.3942V23.5795H31.8618V12.8145ZM44.6635 30.0255H40.3575V34.3315H44.6635V30.0255ZM40.3575 45.1093H44.6635V40.8033H40.3575V45.1093Z" fill="white"/>
</svg>
