<svg width="37" height="36" viewBox="0 0 37 36" fill="none" xmlns="http://www.w3.org/2000/svg">
<path d="M26.3329 35.7275C25.1756 35.725 24.0276 35.5192 22.9412 35.1196C18.0061 33.3108 13.5237 30.4464 9.80571 26.7258C6.09205 23.0008 3.23311 18.5099 1.42785 13.5654C0.857717 12.0224 0.683136 10.3607 0.920097 8.73262C1.15361 7.18405 1.74389 5.71124 2.64415 4.4309C3.54442 3.15057 4.72993 2.09789 6.10675 1.35629C7.55975 0.571578 9.18581 0.164073 10.8364 0.170985C11.09 0.171105 11.3359 0.258256 11.5332 0.417926C11.7304 0.577595 11.8671 0.800146 11.9205 1.04851L13.6621 9.18792C13.7007 9.36909 13.6935 9.55706 13.6412 9.73475C13.5889 9.91243 13.4931 10.0742 13.3625 10.2053L10.3871 13.1864C13.2029 18.7896 17.7421 23.3374 23.3347 26.1586L26.3101 23.1775C26.441 23.0467 26.6024 22.9507 26.7798 22.8983C26.9572 22.8458 27.1448 22.8387 27.3256 22.8774L35.4496 24.6223C35.6975 24.6758 35.9196 24.8127 36.079 25.0103C36.2383 25.208 36.3253 25.4543 36.3254 25.7084C36.3328 27.363 35.926 28.9931 35.1424 30.4496C34.4007 31.8266 33.3494 33.0119 32.0715 33.9116C30.7937 34.8113 29.3245 35.4008 27.78 35.6334C27.3059 35.7029 26.8274 35.7378 26.3482 35.7376L26.3329 35.7275ZM9.95042 2.44239C8.78569 2.57533 7.66607 2.97055 6.6754 3.59845C5.68474 4.22636 4.84869 5.07068 4.22988 6.0682C3.61106 7.06571 3.22551 8.19056 3.1021 9.35852C2.97869 10.5265 3.12061 11.7073 3.51723 12.8125C5.19576 17.4589 7.8736 21.6786 11.361 25.1726C14.8485 28.6667 19.0602 31.3496 23.6977 33.0313C24.8008 33.4287 25.9794 33.5709 27.1452 33.4472C28.3109 33.3236 29.4336 32.9373 30.4292 32.3173C31.4249 31.6973 32.2676 30.8597 32.8943 29.8671C33.521 28.8746 33.9155 27.7528 34.0482 26.5859L27.4475 25.1666L24.3349 28.2799C24.1734 28.4415 23.966 28.5492 23.7411 28.5883C23.5162 28.6275 23.2848 28.5962 23.0783 28.4987C16.4696 25.3818 11.1522 20.0543 8.04128 13.4331C7.94397 13.2263 7.91272 12.9943 7.95179 12.769C7.99087 12.5437 8.09836 12.3359 8.25961 12.1741L11.367 9.07346L9.95042 2.44239Z" fill="#1B1811"/>
</svg>
