<svg xmlns="http://www.w3.org/2000/svg" width="30" height="30" viewBox="0 0 23.187 15.458">
  <path id="Icon_awesome-ticket-alt" data-name="Icon awesome-ticket-alt" d="M5.153,8.364H18.034v7.729H5.153Zm16.1,3.864a1.932,1.932,0,0,0,1.932,1.932v3.864a1.932,1.932,0,0,1-1.932,1.932H1.932A1.932,1.932,0,0,1,0,18.026V14.161a1.932,1.932,0,0,0,1.932-1.932A1.932,1.932,0,0,0,0,10.3V6.432A1.932,1.932,0,0,1,1.932,4.5H21.255a1.932,1.932,0,0,1,1.932,1.932V10.3A1.932,1.932,0,0,0,21.255,12.229ZM19.322,8.042a.966.966,0,0,0-.966-.966H4.831a.966.966,0,0,0-.966.966v8.373a.966.966,0,0,0,.966.966H18.356a.966.966,0,0,0,.966-.966Z" transform="translate(0 -4.5)" fill="currentColor" opacity="0.5"/>
</svg>
