<svg width="34" height="19" viewBox="0 0 34 19" fill="none" xmlns="http://www.w3.org/2000/svg">
<path d="M28.5211 18.256H28.7711V18.006V12.6865V12.4365H28.5211H28.0801C27.2397 12.4365 26.5523 11.7491 26.5523 10.9087C26.5523 10.0683 27.2397 9.3809 28.0801 9.3809H28.5211H28.7711V9.1309V3.81134V3.56134H28.5211H0.999969H0.749969V3.81134V9.1309V9.3809H0.999969H1.44097C2.28137 9.3809 2.96875 10.0683 2.96875 10.9087C2.96875 11.7491 2.28137 12.4365 1.44097 12.4365H0.999969H0.749969V12.6865V18.006V18.256H0.999969H28.5211ZM27.3891 16.874H2.13197V13.7313C3.40086 13.4243 4.35075 12.2821 4.35075 10.9087C4.35075 9.5491 3.40153 8.39457 2.13197 8.08619V4.94334H27.3891V8.08609C26.1202 8.3931 25.1703 9.53531 25.1703 10.9087C25.1703 12.2683 26.1196 13.4228 27.3891 13.7312V16.874Z" fill="currentColor" stroke="currentColor" stroke-width="0.5"/>
<path d="M14.0627 15.3462C14.0627 15.7323 14.3676 16.0372 14.7537 16.0372C15.1399 16.0372 15.4447 15.7323 15.4447 15.3462V6.47109C15.4447 6.08496 15.1399 5.78009 14.7537 5.78009C14.3676 5.78009 14.0627 6.08496 14.0627 6.47109V15.3462Z" fill="currentColor" stroke="currentColor" stroke-width="0.5"/>
<path d="M28.0247 15.622L28.052 15.8675L28.2979 15.8431L33.0248 15.3746L33.2755 15.3497L33.2488 15.0992L32.6837 9.80724L32.6575 9.56184L32.4118 9.58487L31.9708 9.62622L31.9708 9.62617L31.9658 9.62674C31.5516 9.67407 31.1637 9.55692 30.8428 9.29544L30.8429 9.29539L30.8384 9.29191C30.5253 9.0484 30.334 8.68533 30.2856 8.26189C30.2383 7.84854 30.355 7.46133 30.6154 7.14078C30.8779 6.83142 31.2461 6.63003 31.6484 6.58196L32.0864 6.54091L32.3385 6.51727L32.3116 6.26546L31.7466 0.973458L31.7201 0.725202L31.4718 0.751378L4.54325 3.59032L4.29322 3.61667L4.32099 3.86655L4.41746 4.73476L4.44492 4.98193L4.69222 4.95577L30.5045 2.22575L30.8418 5.34596C30.3513 5.52625 29.9127 5.83386 29.5682 6.25759C29.0718 6.85967 28.8442 7.61527 28.9342 8.38603C29.0103 9.15536 29.388 9.84795 29.9876 10.3429C30.4004 10.6889 30.8963 10.9065 31.4231 10.974L31.76 14.0908L28.1501 14.4775L27.9006 14.5043L27.9283 14.7537L28.0247 15.622Z" fill="currentColor" stroke="currentColor" stroke-width="0.5"/>
</svg>
