<svg xmlns="http://www.w3.org/2000/svg" xmlns:xlink="http://www.w3.org/1999/xlink" width="18" height="18" viewBox="0 0 13 12">
  <defs>
    <clipPath id="clip-path">
      <rect id="Rectangle_2170" data-name="Rectangle 2170" width="13" height="12" transform="translate(-0.18)" fill="none"/>
    </clipPath>
  </defs>
  <g id="Group_13969" data-name="Group 13969" transform="translate(0.18)">
    <g id="Group_13968" data-name="Group 13968" transform="translate(0)" clip-path="url(#clip-path)">
      <path id="Path_8897" data-name="Path 8897" d="M15.4,11.5H11.383v.768h1.545a1.023,1.023,0,0,1,.9.548H11.383v.768H13.91a.952.952,0,0,1-.308.53.994.994,0,0,1-.675.25H11.77v.724l2.208,2.288h1.063l-2.159-2.244h.046a1.731,1.731,0,0,0,1.205-.462,1.777,1.777,0,0,0,.555-1.086H15.4v-.768h-.75a2.459,2.459,0,0,0-.157-.374,1.693,1.693,0,0,0-.1-.173H15.4Z" transform="translate(-7.859 -8.008)" fill="#ffffff"/>
      <path id="Path_8898" data-name="Path 8898" d="M5.465,14.931A5.287,5.287,0,0,1,3.332,14.5a5.491,5.491,0,0,1-2.9-2.9,5.474,5.474,0,0,1,0-4.266A5.5,5.5,0,0,1,1.609,5.6,5.647,5.647,0,0,1,3.347,4.433,5.287,5.287,0,0,1,5.48,4a5.345,5.345,0,0,1,.8.061,6.564,6.564,0,0,1,.827.182v.972a4.56,4.56,0,0,0-.8-.228,4.484,4.484,0,0,0-.82-.076A4.416,4.416,0,0,0,2.247,6.239,4.38,4.38,0,0,0,.911,9.465a4.392,4.392,0,0,0,1.328,3.226A4.392,4.392,0,0,0,5.465,14.02a4.392,4.392,0,0,0,3.226-1.328A4.392,4.392,0,0,0,10.02,9.465q0-.228-.023-.478t-.083-.569h.926q.046.258.068.524t.023.524A5.287,5.287,0,0,1,10.5,11.6a5.491,5.491,0,0,1-2.9,2.9,5.287,5.287,0,0,1-2.133.433" transform="translate(0.067 -2.785)" fill="#ffffff"/>
      <path id="Path_8899" data-name="Path 8899" d="M28.313,4.721v-1.9H26.4V1.913h1.913V0h.911V1.913h1.913v.911H29.224v1.9Z" transform="translate(-18.317)" fill="#ffffff"/>
    </g>
  </g>
</svg>
