<svg xmlns="http://www.w3.org/2000/svg" width="22.308" height="29.742" viewBox="0 0 22.308 29.742">
  <g id="location" transform="translate(-4)">
    <path id="Path_308" data-name="Path 308" d="M15.579,16.9A5.577,5.577,0,1,0,10,11.323,5.583,5.583,0,0,0,15.579,16.9Zm0-10.224a4.647,4.647,0,1,1-4.647,4.647A4.651,4.651,0,0,1,15.579,6.675Z" transform="translate(-0.424 -0.405)" fill="#fff" stroke="#fff" stroke-width="1" fill-rule="evenodd"/>
    <path id="Path_309" data-name="Path 309" d="M15.153,0A11.125,11.125,0,0,0,4,11.154c0,6.506,5.578,13.162,9.644,17.84a2.271,2.271,0,0,0,1.474.748h.072a2.274,2.274,0,0,0,1.474-.748c4.068-4.678,9.645-11.333,9.645-17.84A11.126,11.126,0,0,0,15.153,0Zm.109,27.774a1.129,1.129,0,0,1-.125.091.928.928,0,0,0-.12-.124C11.61,23.822,5.859,17.208,5.859,11.154a9.3,9.3,0,1,1,18.591,0C24.449,17.208,18.7,23.822,15.262,27.774Z" fill="#fff" fill-rule="evenodd"/>
  </g>
</svg>
