<svg id="Group_13130" data-name="Group 13130" xmlns="http://www.w3.org/2000/svg" width="24.914" height="24.914" viewBox="0 0 24.914 24.914">
  <path id="Path_6157" data-name="Path 6157" d="M0,0H24.914V24.914H0Z" fill="none"/>
  <path id="Path_6158" data-name="Path 6158" d="M22.686,8.152H19.571V6.076A2.076,2.076,0,0,0,17.5,4H11.267A2.076,2.076,0,0,0,9.19,6.076V8.152H6.076A2.076,2.076,0,0,0,4,10.229V21.648a2.076,2.076,0,0,0,2.076,2.076h16.61a2.076,2.076,0,0,0,2.076-2.076V10.229A2.076,2.076,0,0,0,22.686,8.152ZM11.267,6.076H17.5V8.152H11.267ZM22.686,21.648H6.076V19.571h16.61Zm0-5.19H6.076V10.229H9.19V12.3h2.076V10.229H17.5V12.3h2.076V10.229h3.114Z" transform="translate(-1.924 -1.924)" fill="#e6f0ff" stroke="#0d1d1e" stroke-width="0.6"/>
</svg>
