<svg width="32" height="31" viewBox="0 0 32 31" fill="red" xmlns="http://www.w3.org/2000/svg">
<rect x="0.442383" y="0.117981" width="30.8847" height="30.8847" rx="15.4424" />
<path d="M14.3273 18.6125C15.3695 18.5285 16.4164 18.5285 17.4585 18.6125C18.026 18.6456 18.5908 18.7165 19.1493 18.825C20.3579 19.0697 21.147 19.469 21.4852 20.113C21.7391 20.6156 21.7391 21.214 21.4852 21.7166C21.147 22.3606 20.3893 22.7856 19.1368 23.0046C18.5787 23.1171 18.0138 23.1903 17.446 23.2235C16.9199 23.2815 16.3939 23.2815 15.8616 23.2815H14.9035C14.7031 23.2557 14.509 23.2429 14.3211 23.2429C13.7533 23.2137 13.1882 23.1426 12.6303 23.0303C11.4216 22.7985 10.6326 22.3863 10.2944 21.7423C10.1639 21.4929 10.0951 21.2142 10.0939 20.9309C10.0913 20.6459 10.158 20.3647 10.2882 20.113C10.6201 19.469 11.4091 19.0504 12.6303 18.825C13.1907 18.715 13.7576 18.644 14.3273 18.6125ZM15.8867 8.80429C17.986 8.80429 19.6879 10.5545 19.6879 12.7134C19.6879 14.8723 17.986 16.6225 15.8867 16.6225C13.7873 16.6225 12.0854 14.8723 12.0854 12.7134C12.0854 10.5545 13.7873 8.80429 15.8867 8.80429Z" fill="currentColor"/>
<defs>
</defs>
</svg>
