<svg width="60" height="60" viewBox="0 0 20 9" fill="currentColor" xmlns="http://www.w3.org/2000/svg">
<path fill-rule="evenodd" clip-rule="evenodd" d="M8.08802 4.60437L7.08802 7.30492L6.98088 6.75547C6.73088 6.08239 6.18967 5.37635 5.56055 5.08789L6.47813 8.55767H7.56329L9.17593 4.59888H8.08802V4.60437Z" />
<path fill-rule="evenodd" clip-rule="evenodd" d="M8.94775 8.56591L9.58786 4.59888H10.6126L9.97248 8.56591H8.94775Z" />
<path fill-rule="evenodd" clip-rule="evenodd" d="M13.6867 4.69786C13.4834 4.61819 13.1647 4.53027 12.7691 4.53027C11.7553 4.53027 11.0438 5.06874 11.0383 5.83797C11.0328 6.40939 11.5466 6.72533 11.9339 6.91489C12.335 7.10994 12.4669 7.23357 12.4669 7.40665C12.4641 7.67313 12.1482 7.79401 11.8542 7.79401C11.4449 7.79401 11.2279 7.73357 10.89 7.58797L10.7581 7.52478L10.6152 8.41214C10.8542 8.52203 11.2966 8.61819 11.7581 8.62368C12.8323 8.62368 13.5328 8.09071 13.5411 7.26928C13.5466 6.81599 13.2718 6.47533 12.6812 6.19236C12.324 6.0083 12.1042 5.88742 12.107 5.7006C12.107 5.53577 12.2911 5.35994 12.6949 5.35994C13.0301 5.35445 13.2718 5.43137 13.4614 5.51379L13.552 5.56049L13.6867 4.69786Z" />
<path fill-rule="evenodd" clip-rule="evenodd" d="M16.3133 4.60449H15.522C15.2775 4.60449 15.0935 4.67317 14.9836 4.93416L13.4644 8.56878H14.5385C14.5385 8.56878 14.7144 8.07977 14.7556 7.97262C14.8737 7.97262 15.9177 7.97537 16.066 7.97537C16.099 8.11273 16.1896 8.56878 16.1896 8.56878H17.1429L16.3133 4.60449ZM15.0495 7.15944C15.1347 6.93142 15.4561 6.04955 15.4561 6.04955C15.4506 6.06054 15.5413 5.82152 15.5935 5.67043L15.6622 6.01109C15.6622 6.01109 15.86 6.95889 15.9012 7.15669C15.7418 7.15944 15.2501 7.15944 15.0495 7.15944Z" />
<path fill-rule="evenodd" clip-rule="evenodd" d="M6.15672 4.60156H4.50562L4.49463 4.67024C5.7776 4.99991 6.6265 5.80486 6.97815 6.75816L6.621 4.93398C6.56056 4.68398 6.37924 4.6098 6.15672 4.60156Z" />
<path fill-rule="evenodd" clip-rule="evenodd" d="M1.40659 3.64295H0.755495L0 0.247344L0.722527 0.126465L1.23901 2.78306L2.5522 0.162179H3.24451L1.40659 3.64295Z" />
<path fill-rule="evenodd" clip-rule="evenodd" d="M4.80513 2.53299H3.24744C3.20348 3.00552 3.42326 3.21156 3.79689 3.21156C4.10733 3.21156 4.38205 3.09618 4.67601 2.90936L4.67326 3.38189C4.3848 3.56321 4.04964 3.6786 3.65678 3.6786C2.97821 3.6786 2.53041 3.29123 2.66502 2.41761C2.7859 1.62915 3.3326 1.15112 3.96447 1.15112C4.69249 1.15112 4.93425 1.69783 4.82986 2.38739C4.82436 2.43684 4.80788 2.49728 4.80513 2.53299ZM3.88755 1.56871C3.64579 1.56871 3.42052 1.75827 3.31612 2.15662H4.28041C4.29689 1.78024 4.17876 1.56871 3.88755 1.56871Z" />
<path fill-rule="evenodd" clip-rule="evenodd" d="M5.81886 2.23635L5.60458 3.62646H5.00293L5.37656 1.20064H5.89029V1.6869C6.09359 1.40668 6.37106 1.17042 6.75293 1.14844L6.75568 1.74734C6.37106 1.77481 6.0304 1.97536 5.81886 2.23635Z" />
<path fill-rule="evenodd" clip-rule="evenodd" d="M6.74463 3.62629L7.11826 1.20046H7.7199L7.34902 3.62629H6.74463ZM7.48639 0.79387C7.28584 0.79387 7.14573 0.65376 7.17869 0.453211C7.21166 0.247167 7.39298 0.101562 7.59353 0.101562C7.78858 0.101562 7.92869 0.247167 7.89573 0.453211C7.86551 0.65376 7.68419 0.79387 7.48639 0.79387Z" />
<path fill-rule="evenodd" clip-rule="evenodd" d="M9.38988 0.538451C9.18383 0.538451 9.06021 0.62911 9.02724 0.846143L8.9723 1.20329H9.43383V1.69504H8.89537L8.59867 3.62636H7.99977L8.29647 1.6923H7.94482L8.02175 1.20054H8.37339L8.43658 0.782956C8.519 0.244495 8.89263 0.0439453 9.38988 0.0439453C9.49427 0.0439453 9.57395 0.0549342 9.63438 0.063176L9.63988 0.554934C9.57944 0.54944 9.49153 0.538451 9.38988 0.538451Z" />
<path fill-rule="evenodd" clip-rule="evenodd" d="M9.39551 3.62629L9.76913 1.20046H10.3708L9.9999 3.62629H9.39551ZM10.14 0.79387C9.93946 0.79387 9.79935 0.65376 9.82957 0.453211C9.86254 0.247167 10.0439 0.101562 10.2444 0.101562C10.4395 0.101562 10.5796 0.247167 10.5466 0.453211C10.5164 0.65376 10.3351 0.79387 10.14 0.79387Z" />
<path fill-rule="evenodd" clip-rule="evenodd" d="M12.7114 2.53299H11.1537C11.1125 3.00552 11.3295 3.21156 11.7031 3.21156C12.0136 3.21156 12.2883 3.09618 12.5823 2.90936L12.5795 3.38189C12.2911 3.56321 11.9559 3.6786 11.563 3.6786C10.8845 3.6786 10.4367 3.29123 10.5713 2.41761C10.6922 1.62915 11.2389 1.15112 11.8707 1.15112C12.5987 1.15112 12.8405 1.69783 12.7361 2.38739C12.7306 2.43684 12.7141 2.49728 12.7114 2.53299ZM11.7938 1.56871C11.552 1.56871 11.3268 1.75827 11.2224 2.15662H12.1867C12.2031 1.78024 12.085 1.56871 11.7938 1.56871Z" />
<path fill-rule="evenodd" clip-rule="evenodd" d="M14.4947 3.62637L14.4974 3.28846C14.2941 3.49451 14.0304 3.67582 13.6952 3.67582C13.187 3.67582 12.8381 3.29945 12.9645 2.48077C13.1046 1.57692 13.6623 1.17582 14.2255 1.17582C14.4562 1.17582 14.6376 1.21703 14.7749 1.26648L14.9562 0.0961538L15.5744 0L15.0167 3.62637H14.4947ZM14.698 1.76374C14.5579 1.69231 14.448 1.65934 14.2419 1.65934C13.926 1.65934 13.654 1.91484 13.5744 2.4478C13.5029 2.92033 13.6678 3.14011 13.9343 3.14011C14.154 3.14011 14.3463 3.00824 14.5387 2.80769L14.698 1.76374Z" />
<path fill-rule="evenodd" clip-rule="evenodd" d="M16.86 3.65107C16.5743 3.65107 16.3408 3.60436 16.1265 3.53019L16.5221 0.953265L16.9891 0.881836L16.8188 1.99722C16.9561 1.87634 17.1457 1.75271 17.3765 1.75271C17.7638 1.75271 18.0248 2.04118 17.9287 2.65931C17.8243 3.33513 17.4067 3.65107 16.86 3.65107ZM17.1979 2.15381C17.0468 2.15381 16.8929 2.25546 16.7583 2.39282L16.6292 3.22524C16.7199 3.25821 16.7803 3.27469 16.9094 3.27469C17.1979 3.27469 17.4012 3.09887 17.4644 2.68129C17.5193 2.32964 17.4012 2.15381 17.1979 2.15381Z" />
<path fill-rule="evenodd" clip-rule="evenodd" d="M19.0053 3.72814C18.7718 4.18144 18.541 4.32155 18.1866 4.32155C18.107 4.32155 18.063 4.31331 18.0218 4.30232L18.019 3.92594C18.0767 3.94243 18.1399 3.95341 18.2278 3.95341C18.3597 3.95341 18.4778 3.89298 18.5548 3.75836L18.6152 3.63748L18.2278 1.82704L18.7141 1.7666L18.9394 3.07429L19.5465 1.79133H19.9998L19.0053 3.72814Z" />
</svg>
