
<svg width="26" height="29" viewBox="0 0 26 29" fill="none" xmlns="http://www.w3.org/2000/svg">
<path d="M3.4899 28C3.01493 27.9687 2.57162 27.7508 2.25669 27.3938C1.94175 27.0369 1.78075 26.5699 1.8088 26.0947C1.8088 25.0715 2.38379 24.1456 3.09034 23.1029C3.13491 23.0365 3.19511 22.9822 3.26564 22.9446C3.33617 22.907 3.41486 22.8874 3.49478 22.8874C3.57469 22.8874 3.65338 22.907 3.72391 22.9446C3.79444 22.9822 3.85464 23.0365 3.89922 23.1029C4.61551 24.1749 5.17101 25.0861 5.17101 26.0947C5.19906 26.5699 5.03805 27.0369 4.72312 27.3938C4.40818 27.7508 3.96488 27.9687 3.4899 28Z" stroke="white" stroke-width="1.46183" stroke-miterlimit="10"/>
<path d="M17.743 3.80184H13.6499V7.31511H17.743V3.80184Z" stroke="white" stroke-width="1.46183" stroke-linecap="round" stroke-linejoin="round"/>
<path d="M17.8451 15.9643H13.557C13.0597 15.9652 12.5809 15.7759 12.2186 15.4353C11.8562 15.0947 11.6378 14.6285 11.6079 14.1321C11.6055 14.0932 11.6055 14.0541 11.6079 14.0152V9.26421C11.6053 9.22365 11.6053 9.18295 11.6079 9.14239C11.6378 8.64599 11.8562 8.17976 12.2186 7.83916C12.5809 7.49856 13.0597 7.30933 13.557 7.31023H17.8451C18.3424 7.30933 18.8212 7.49856 19.1835 7.83916C19.5459 8.17976 19.7643 8.64599 19.7942 9.14239C19.7942 9.18137 19.7942 9.22035 19.7942 9.25934V14.0152C19.7942 14.0541 19.7942 14.0931 19.7942 14.1321C19.7643 14.6285 19.5459 15.0947 19.1835 15.4353C18.8212 15.7759 18.3424 15.9652 17.8451 15.9643Z" stroke="white" stroke-width="1.46183" stroke-linecap="round" stroke-linejoin="round"/>
<path d="M19.7894 9.1424C19.7894 9.18138 19.7894 9.22036 19.7894 9.25934V14.0152C19.7894 14.0541 19.7894 14.0931 19.7894 14.1321H24.6622C24.7914 14.1321 24.9153 14.0808 25.0067 13.9894C25.0981 13.898 25.1494 13.7741 25.1494 13.6448V9.62967C25.1494 9.50044 25.0981 9.3765 25.0067 9.28511C24.9153 9.19373 24.7914 9.1424 24.6622 9.1424H19.7894ZM11.608 14.1272C11.6058 14.0899 11.6058 14.0525 11.608 14.0152V9.26421C11.6054 9.22365 11.6054 9.18296 11.608 9.1424H6.00433C5.34675 9.14239 4.6956 9.272 4.08813 9.52379C3.48066 9.77559 2.92877 10.1446 2.46401 10.6099C1.99925 11.0751 1.63074 11.6273 1.37954 12.235C1.12833 12.8427 0.999362 13.494 1 14.1516V19.6627C1 19.7919 1.05134 19.9159 1.14272 20.0073C1.2341 20.0986 1.35804 20.15 1.48728 20.15H5.49269C5.62193 20.15 5.74587 20.0986 5.83725 20.0073C5.92863 19.9159 5.97997 19.7919 5.97997 19.6627V15.477C5.97997 15.1138 6.12423 14.7656 6.38101 14.5088C6.6378 14.252 6.98607 14.1077 7.34922 14.1077H11.608V14.1272Z" stroke="white" stroke-width="1.46183" stroke-linecap="round" stroke-linejoin="round"/>
<path d="M10.0977 2.39361V2.40823C10.0977 3.1779 10.7216 3.80184 11.4913 3.80184L19.9114 3.80184C20.6811 3.80184 21.305 3.1779 21.305 2.40823V2.39361C21.305 1.62394 20.6811 1 19.9114 1L11.4913 1C10.7216 1 10.0977 1.62394 10.0977 2.39361Z" stroke="white" stroke-width="1.46183" stroke-linecap="round" stroke-linejoin="round"/>
</svg>
