<svg xmlns="http://www.w3.org/2000/svg" width="293.334" height="194.781" viewBox="0 0 293.334 194.781">
  <g id="undraw_page_not_found_re_e9o6" transform="translate(-0.005)">
    <path id="Path_8981" data-name="Path 8981" d="M472.126,304.1c-2.616-4.326-5.715-8.945-10.569-10.357-5.621-1.636-11.4,1.614-16.293,4.82a474.758,474.758,0,0,0-42.252,31.131l.015.168,31.529-2.174c7.593-.524,15.447-1.12,22.158-4.712,2.546-1.363,5.029-3.184,7.914-3.311,3.585-.158,6.711,2.346,9.167,4.962,14.531,15.473,18.735,39.135,35.037,52.729A517.352,517.352,0,0,0,472.126,304.1Z" transform="translate(-323.522 -249.35)" fill="#f2f2f2"/>
    <path id="Path_8982" data-name="Path 8982" d="M494.023,415.826c-1.607-2.029-2.263-2.5-3.848-4.552q-19.359-25.038-36.391-51.766-11.569-18.153-21.991-37-4.962-8.962-9.651-18.064-3.639-7.058-7.116-14.2c-.663-1.36-1.307-2.726-1.948-4.1-1.51-3.22-2.992-6.456-4.583-9.632-1.813-3.62-4.02-7.416-7.35-9.848a10.029,10.029,0,0,0-5.224-2.01c-2.711-.175-5.212.944-7.563,2.167a243.449,243.449,0,0,0-47.871,33.011A249.218,249.218,0,0,0,301.594,343c-.344.491-1.157.022-.81-.472q2.049-2.9,4.18-5.734a250.6,250.6,0,0,1,63.978-59.676q6.223-4.033,12.681-7.688c2.17-1.229,4.349-2.442,6.565-3.58a16,16,0,0,1,6.962-2.157c8.447-.131,12.821,9.435,15.826,15.873q1.416,3.039,2.867,6.059,5.482,11.466,11.386,22.722,3.644,6.95,7.447,13.819,11.836,21.389,25.161,41.912c11.768,18.124,23.442,34.134,36.847,51.082C495.055,415.633,494.395,416.3,494.023,415.826Z" transform="translate(-256.101 -229.841)" fill="#e4e4e4"/>
    <path id="Path_8983" data-name="Path 8983" d="M268.315,325.884c-.491-.547-.979-1.094-1.473-1.641-3.9-4.308-8.075-8.566-13.425-11.036a19.476,19.476,0,0,0-8.16-1.891,23.287,23.287,0,0,0-8.472,1.848c-1.276.51-2.523,1.088-3.752,1.7-1.4.707-2.783,1.46-4.155,2.22q-3.864,2.138-7.628,4.464-7.489,4.629-14.51,9.964-3.639,2.767-7.128,5.715-3.245,2.739-6.359,5.624c-.444.41-1.107-.253-.663-.663.547-.51,1.1-1.016,1.654-1.516q2.345-2.12,4.765-4.158,4.413-3.724,9.054-7.159,7.217-5.346,14.931-9.967,3.855-2.307,7.816-4.421c.8-.425,1.6-.841,2.42-1.235a38.576,38.576,0,0,1,5.753-2.342,20.464,20.464,0,0,1,8.688-.853,22.62,22.62,0,0,1,8.016,2.773c5.252,2.936,9.326,7.475,13.29,11.905C269.378,325.669,268.718,326.335,268.315,325.884Z" transform="translate(-184.764 -260.618)" fill="#e4e4e4"/>
    <path id="Path_8984" data-name="Path 8984" d="M729.378,466.725l12.586-4.6,6.249-2.286a63.9,63.9,0,0,1,6.169-2.125,9.733,9.733,0,0,1,5.584.071,12.87,12.87,0,0,1,4.355,2.7,35.349,35.349,0,0,1,3.572,3.815c1.36,1.635,2.7,3.287,4.047,4.934q8.335,10.194,16.562,20.476t16.342,20.652q8.136,10.395,16.16,20.877.983,1.284,1.964,2.569c.361.473,1.176.007.81-.473q-8.084-10.587-16.28-21.088-8.216-10.526-16.546-20.962T774.182,470.5q-2.1-2.577-4.213-5.149c-1.187-1.446-2.36-2.908-3.661-4.254-2.389-2.471-5.374-4.654-8.947-4.714a17.265,17.265,0,0,0-6.085,1.338c-2.1.761-4.2,1.537-6.3,2.305L732.3,464.662l-3.168,1.159c-.562.206-.319,1.112.249.9Z" transform="translate(-538.211 -356.815)" fill="#e4e4e4"/>
    <path id="Path_8985" data-name="Path 8985" d="M326.836,330.474a20.319,20.319,0,0,0-20.464,1.463,291.875,291.875,0,0,1,33.207,7.75C335.049,337.033,331.506,332.874,326.836,330.474Z" transform="translate(-259.839 -272.464)" fill="#f2f2f2"/>
    <path id="Path_8986" data-name="Path 8986" d="M303.809,338.784l-1.231,1c.417-.35.849-.679,1.294-.989Z" transform="translate(-257.338 -279.322)" fill="#f2f2f2"/>
    <path id="Path_8987" data-name="Path 8987" d="M819.643,479.7c-1.239-1.508-2.578-3.087-4.432-3.7l-1.73.068a196.245,196.245,0,0,0,52.27,59.756Z" transform="translate(-594.007 -369.741)" fill="#f2f2f2"/>
    <path id="Path_8988" data-name="Path 8988" d="M513.843,450.367a12.782,12.782,0,0,0,5.092,7.147c.962.655,2.1,1.283,2.429,2.4a2.857,2.857,0,0,1-.3,2.1,8.488,8.488,0,0,1-1.317,1.719l-.047.175a15.5,15.5,0,0,1-5.976-5.644,7.617,7.617,0,0,1,.116-7.893" transform="translate(-395.791 -352.851)" fill="#f2f2f2"/>
    <path id="Path_8989" data-name="Path 8989" d="M746.843,653.367a12.782,12.782,0,0,0,5.092,7.147c.962.655,2.1,1.283,2.429,2.4a2.857,2.857,0,0,1-.3,2.1,8.489,8.489,0,0,1-1.317,1.719l-.047.175a15.5,15.5,0,0,1-5.976-5.644,7.617,7.617,0,0,1,.116-7.893" transform="translate(-549.33 -486.621)" fill="#f2f2f2"/>
    <path id="Path_8990" data-name="Path 8990" d="M281.843,639.367a12.783,12.783,0,0,0,5.092,7.147c.962.655,2.1,1.283,2.429,2.4a2.857,2.857,0,0,1-.3,2.1,8.485,8.485,0,0,1-1.317,1.719l-.047.175a15.5,15.5,0,0,1-5.976-5.644,7.616,7.616,0,0,1,.116-7.893" transform="translate(-242.911 -477.395)" fill="#f2f2f2"/>
    <circle id="Ellipse_81" data-name="Ellipse 81" cx="17.393" cy="17.393" r="17.393" transform="translate(204.027)" fill="#5c98e9"/>
    <path id="Path_8991" data-name="Path 8991" d="M845.036,175.962c-8.429-1.139-18.053,3.417-20.237,11.637a7.365,7.365,0,0,0-14.014.719l.965.691a126.959,126.959,0,0,0,54.79-.248C860.676,182.6,853.465,177.1,845.036,175.962Z" transform="translate(-592.229 -171.914)" fill="#f0f0f0"/>
    <path id="Path_8992" data-name="Path 8992" d="M739.036,243.962c-8.429-1.139-18.053,3.417-20.237,11.637a7.365,7.365,0,0,0-14.014.719l.965.691a126.958,126.958,0,0,0,54.79-.248C754.676,250.6,747.465,245.1,739.036,243.962Z" transform="translate(-522.379 -216.723)" fill="#f0f0f0"/>
    <path id="Path_8993" data-name="Path 8993" d="M465.511,212.3a.335.335,0,0,1-.1-.016,481.547,481.547,0,0,0-220.439-16.638c-6.912,1.109-13.843,2.389-20.6,3.806-1.725.361-3.515.749-5.319,1.152-2.155.48-4.281.974-6.32,1.468q-1.321.313-2.59.63c-1.282.316-2.582.646-3.976,1.008-1.558.4-3.141.823-4.705,1.252l-.017.005h0c-1.767.483-3.526.979-5.226,1.475-.92.266-1.809.528-2.66.787-.1.026-.179.052-.265.078l-.183.056c-.106.032-.21.064-.315.094l-.007,0h0l-.277.086-.969.295c-8.371,2.58-12.972,4.416-13.018,4.434a.341.341,0,1,1-.254-.633c.046-.018,4.67-1.863,13.071-4.453l.972-.3.257-.08.027-.009c.1-.03.208-.061.314-.093l.183-.056c.091-.028.181-.055.273-.08.845-.257,1.737-.52,2.659-.787,1.7-.5,3.461-.993,5.229-1.476l.017,0h0c1.57-.431,3.159-.854,4.722-1.257,1.4-.363,2.7-.693,3.983-1.01q1.275-.317,2.6-.632c2.041-.495,4.172-.99,6.331-1.471,1.807-.4,3.6-.792,5.328-1.154,6.767-1.419,13.709-2.7,20.632-3.812a482.221,482.221,0,0,1,220.753,16.661.341.341,0,0,1-.1.666Z" transform="translate(-175.282 -180.675)" fill="#ccc"/>
    <path id="Path_8994" data-name="Path 8994" d="M307.429,514.725a2.3,2.3,0,0,0-.58-.911,2.2,2.2,0,0,0-.314-.242,2.621,2.621,0,0,0-3.066,0,1.978,1.978,0,0,0-.235.242q-.379.466-.778.911c-.436.5-.883.979-1.35,1.446-.133.13-.266.263-.4.392-.078.078-.157.153-.235.228-.3.286-.607.563-.917.835-.164.147-.327.29-.494.43-.249.208-.5.416-.75.617-.024.017-.048.034-.072.055-.007,0-.01.01-.017.014s-.007,0-.01.007a.061.061,0,0,0-.024.017c-.075.051-.126.085-.164.116.014-.007.027-.017.041-.024l-.188.143c-.6.44-1.207.863-1.831,1.258a33.84,33.84,0,0,1-4.849,2.575c-.113.044-.229.092-.345.136a29.318,29.318,0,0,1-13.931,2.053q-.726-.056-1.453-.154c-.559-.082-1.115-.181-1.668-.293a33.4,33.4,0,0,1-6.145-1.855,40.466,40.466,0,0,1-7.046-4.133c-.341-.242-.686-.484-1.03-.72.392-.962.778-1.923,1.153-2.892.188-.467.368-.934.546-1.405,1.395-3.625,2.7-7.285,3.959-10.957q1.9-5.581,3.591-11.227.174-.573.338-1.146.885-2.982,1.7-5.978c.051-.194.106-.385.154-.58q.235-.859.46-1.719a2.558,2.558,0,1,0-4.931-1.361c-.147.552-.293,1.1-.443,1.654q-1.079,4.005-2.271,7.984l-.348,1.146q-2.629,8.666-5.774,17.157-.379,1.028-.767,2.05c-.126.334-.252.668-.382,1-.249.658-.5,1.316-.761,1.975-.147.385-.3.771-.447,1.153-.1.242-.194.484-.29.723a14.254,14.254,0,0,0-3-.723l-.164-.02a9.337,9.337,0,0,0-2.391.02,8.155,8.155,0,0,0-5.879,3.635c-1.627,2.561-1.606,6.224.675,8.4,2.35,2.241,5.907,2.224,8.673.822a9.668,9.668,0,0,0,3.588-3.363,17.238,17.238,0,0,0,.934-1.586c.072.048.143.1.215.147.273.191.546.385.815.576a38.106,38.106,0,0,0,4.948,3.039,36.955,36.955,0,0,0,11.807,3.571c.092.01.181.024.273.034.454.058.911.1,1.368.14a35.394,35.394,0,0,0,18.955-3.874q.742-.384,1.47-.8,1.131-.655,2.21-1.391c.392-.266.774-.535,1.153-.818a34.46,34.46,0,0,0,4.607-4.075q.8-.844,1.538-1.743a2.749,2.749,0,0,0,.75-1.807A2.579,2.579,0,0,0,307.429,514.725Zm-56.472,8.124c.072-.051.143-.106.211-.16C251.148,522.739,251.049,522.8,250.957,522.848Zm1.095-1.1c-.078.089-.15.177-.228.266a7.972,7.972,0,0,1-.767.75c-.037.034-.078.068-.119.1h0a0,0,0,0,0,0,0,1.288,1.288,0,0,0-.143.075q-.22.133-.45.245a5.8,5.8,0,0,1-.924.256,5.724,5.724,0,0,1-.726.007h-.007a5.039,5.039,0,0,1-.495-.136c-.082-.041-.16-.089-.239-.136-.031-.027-.058-.055-.075-.072a.829.829,0,0,1-.092-.1v0h0c-.038-.068-.078-.136-.116-.2a.011.011,0,0,1,0-.007c-.027-.085-.051-.174-.072-.263a4.252,4.252,0,0,1,0-.467,4.588,4.588,0,0,1,.184-.641,3.774,3.774,0,0,1,.235-.43c.007-.014.041-.068.078-.13,0,0,0,0,0-.007.051-.058.1-.119.157-.174.092-.1.191-.191.29-.283a6.181,6.181,0,0,1,.6-.344,6.633,6.633,0,0,1,1-.269,8.507,8.507,0,0,1,1.5.014,10.328,10.328,0,0,1,1.4.344,12.6,12.6,0,0,1-.945,1.548C252.079,521.709,252.065,521.73,252.051,521.747Zm-3.792-1.122a.743.743,0,0,1-.106.133A.48.48,0,0,1,248.259,520.625Z" transform="translate(-217.737 -371.545)" fill="#3f3d56"/>
    <path id="Path_8995" data-name="Path 8995" d="M388.432,477.194q-.046,1.606-.092,3.213-.1,3.566-.2,7.134-.107,4.016-.225,8.028-.056,2.072-.116,4.144-.159,5.581-.314,11.159c-.01.385-.024.767-.034,1.153q-.077,2.768-.154,5.535-.087,3-.171,6.006-.061,2.251-.126,4.505-.46,16.334-.921,32.668a2.608,2.608,0,0,1-2.558,2.558,2.579,2.579,0,0,1-2.558-2.558q.256-9.187.518-18.375.23-8.308.467-16.615.077-2.737.153-5.477.118-4.123.232-8.246c.01-.385.024-.767.034-1.153.007-.338.017-.672.027-1.009q.225-8.006.45-16.015.092-3.151.177-6.306.1-3.6.2-7.189c.031-1.054.058-2.1.089-3.158a2.608,2.608,0,0,1,2.558-2.558A2.579,2.579,0,0,1,388.432,477.194Z" transform="translate(-308.992 -368.844)" fill="#3f3d56"/>
    <path id="Path_8996" data-name="Path 8996" d="M767.8,480.605a304.591,304.591,0,0,1-9.6,29.991c-1.026,2.71-2.075,5.415-3.2,8.087l.258-.611a18.614,18.614,0,0,1-1.906,3.619q-.078.109-.159.217.4-.508.151-.2c-.087.1-.172.205-.262.305a8.082,8.082,0,0,1-.767.751q-.1.088-.209.172l.32-.249c-.037.088-.3.2-.379.253a6.208,6.208,0,0,1-.82.416l.611-.258a6.515,6.515,0,0,1-1.443.4l.68-.091a5.806,5.806,0,0,1-1.466.016l.68.091a4.775,4.775,0,0,1-1.161-.313l.611.258a4.1,4.1,0,0,1-.573-.306c-.093-.06-.377-.276-.005.008s.05.025-.03-.053-.126-.137-.191-.2c-.3-.309.34.531.135.17a6.186,6.186,0,0,1-.3-.558l.258.611a4.057,4.057,0,0,1-.248-.9l.091.68a4.656,4.656,0,0,1,0-1.161l-.091.68a5.444,5.444,0,0,1,.339-1.255l-.258.611a5.71,5.71,0,0,1,.4-.784,2.3,2.3,0,0,1,.248-.365c.017.005-.433.516-.194.258.062-.068.121-.138.184-.205.1-.107.209-.2.316-.306.356-.339-.5.33-.088.061a6.482,6.482,0,0,1,.938-.511l-.611.258a6.923,6.923,0,0,1,1.7-.457l-.68.091a8.739,8.739,0,0,1,2.2.026l-.68-.091a11.332,11.332,0,0,1,2.691.757l-.611-.258a28.452,28.452,0,0,1,5.091,3.11,38.183,38.183,0,0,0,4.947,3.037,36.968,36.968,0,0,0,11.807,3.572,35.445,35.445,0,0,0,31.575-12.534,2.755,2.755,0,0,0,.749-1.809,2.558,2.558,0,0,0-4.366-1.809,32.6,32.6,0,0,1-2.765,2.976q-.688.653-1.413,1.265-.414.35-.839.686c-.134.106-.552.388.09-.067-.147.1-.288.218-.433.326a33.855,33.855,0,0,1-6.934,3.944l.611-.258a33.018,33.018,0,0,1-8.243,2.258l.68-.091a33.3,33.3,0,0,1-8.783-.013l.68.091a34.035,34.035,0,0,1-8.477-2.309l.611.258a39.57,39.57,0,0,1-7.413-4.294,29.635,29.635,0,0,0-3.79-2.385,14.6,14.6,0,0,0-4.924-1.5,8.49,8.49,0,0,0-8.269,3.656c-1.629,2.559-1.608,6.222.673,8.4,2.349,2.241,5.906,2.222,8.674.82,2.666-1.35,4.267-4.156,5.393-6.8,2.534-5.953,4.778-12.043,6.869-18.165q3.1-9.084,5.627-18.352.313-1.148.616-2.3a2.558,2.558,0,0,0-4.933-1.36Z" transform="translate(-548.049 -371.546)" fill="#3f3d56"/>
    <path id="Path_8997" data-name="Path 8997" d="M884.575,477.194l-.921,32.669-.916,32.5-.518,18.376a2.58,2.58,0,0,0,2.558,2.558,2.609,2.609,0,0,0,2.558-2.558l.921-32.669.916-32.5.518-18.376a2.58,2.58,0,0,0-2.558-2.558,2.609,2.609,0,0,0-2.558,2.558Z" transform="translate(-639.303 -368.844)" fill="#3f3d56"/>
    <path id="Path_8998" data-name="Path 8998" d="M552.206,572.989H553V536.825h18.528v-.792H553V520.773h14.308q-.315-.4-.648-.79H553V509.9c-.263-.112-.527-.22-.794-.322v10.4H536.637V507.07c-.267.012-.53.031-.794.053v12.86H523.423v-9.635c-.267.118-.529.242-.79.373v9.262H512.191v.79h10.441v15.259H512.191v.792h10.441v36.164h.79V536.825a12.419,12.419,0,0,1,12.421,12.423v23.741h.794V536.825h15.569Zm-28.784-36.956V520.773h12.421v15.259Zm13.215,0V520.773h.312a15.258,15.258,0,0,1,15.257,15.258Z" transform="translate(-395.467 -390.217)" opacity="0.2"/>
    <path id="Path_8999" data-name="Path 8999" d="M589.491,634.649a21.5,21.5,0,0,1-6.838,11.493c-.252.218-.5.43-.767.638q-.957.087-1.9.177c-.522.048-1.037.1-1.548.147l-.092.01-.065-.559-.259-2.264a12.831,12.831,0,0,1-1.125-11.063,27.494,27.494,0,0,1,4.133-6.7c2.213-2.94,4.365-5.845,4.444-9.43a20.647,20.647,0,0,1,2.694,4.546,5.6,5.6,0,0,0-1.746,1.286c-.14.153-.28.368-.184.553.082.157.286.194.464.215l1.282.133c.341.037.682.072,1.023.109a21.818,21.818,0,0,1,.836,4.154A20.867,20.867,0,0,1,589.491,634.649Z" transform="translate(-437.602 -462.72)" fill="#3f3d56"/>
    <path id="Path_9000" data-name="Path 9000" d="M605.263,642.3a12.6,12.6,0,0,0-4.1,5.886,5.669,5.669,0,0,0-2.445,1.562c-.14.154-.28.368-.184.552.082.157.287.194.464.215l1.282.133c-.914,2.742-1.753,5.579-3.369,7.9a12.615,12.615,0,0,1-4.1,3.721,13.139,13.139,0,0,1-1.371.679q-2.6.2-5.1.426-.957.087-1.9.177c-.522.048-1.037.1-1.548.147q-.005-.281,0-.563a21.589,21.589,0,0,1,5.2-13.594c.153-.177.31-.351.471-.525a21.075,21.075,0,0,1,5.733-4.331A21.369,21.369,0,0,1,605.263,642.3Z" transform="translate(-442.052 -479.309)" fill="#5c98e9"/>
    <path id="Path_9001" data-name="Path 9001" d="M571.383,645.135l-.392,1.16-.2.59c-.522.048-1.037.1-1.548.147l-.092.01-1.692.174c-.147-.17-.293-.344-.436-.522a21.155,21.155,0,0,1,2.752-29.708,12.365,12.365,0,0,0,.938,6.855c-.092.038-.181.075-.266.116a5.6,5.6,0,0,0-1.746,1.286c-.14.153-.28.368-.184.552.082.157.287.195.464.215l1.282.133c.341.037.682.072,1.023.109l.481.051c.024.051.044.1.068.15a41.435,41.435,0,0,1,2.609,6.422,14.915,14.915,0,0,1,.348,1.675A12.824,12.824,0,0,1,571.383,645.135Z" transform="translate(-428.408 -462.647)" fill="#5c98e9"/>
    <path id="Path_9002" data-name="Path 9002" d="M553.62,514.9a37.781,37.781,0,0,0-12.834-14.086,38.959,38.959,0,0,0-17.925-6.268q-1.259-.114-2.523-.134c-1-.015-15.983,4.308-21,7.838a38.979,38.979,0,0,0-12.05,13.48,34.956,34.956,0,0,0-4.135,17.609,38.728,38.728,0,0,0,5.014,17.555,37.675,37.675,0,0,0,12.429,13.214c5.231,3.337,10.485,12.187,16.661,12.5,6.222.315,13.319-8.033,18.994-10.568a35.614,35.614,0,0,0,14.23-11.6,37.6,37.6,0,0,0,6.684-16.693,38.614,38.614,0,0,0-1.637-18.421,38.13,38.13,0,0,0-1.9-4.428,2.575,2.575,0,0,0-3.5-.918,2.619,2.619,0,0,0-.918,3.5q.535,1.053.994,2.141l-.258-.611a34.5,34.5,0,0,1,2.345,8.709l-.091-.68a37.253,37.253,0,0,1-.023,9.782l.091-.68a37.427,37.427,0,0,1-2.576,9.438l.258-.611a35.526,35.526,0,0,1-2.275,4.467q-.656,1.087-1.392,2.122c-.215.3-.437.6-.661.9-.292.387.4-.506.1-.126l-.154.194q-.232.29-.471.576a31.928,31.928,0,0,1-3.471,3.541q-.466.407-.947.8c-.16.129-.318.263-.485.383.006,0,.539-.409.224-.174l-.3.222q-.992.735-2.037,1.4a35.3,35.3,0,0,1-5.032,2.63l.611-.258a37.251,37.251,0,0,1-9.411,2.575l.68-.091a36.884,36.884,0,0,1-9.75.017l.68.091a34.047,34.047,0,0,1-8.558-2.314l.611.258a31.939,31.939,0,0,1-4.575-2.384q-1.083-.682-2.109-1.448l-.292-.22c-.312-.236.224.174.229.177a6.555,6.555,0,0,1-.524-.418q-.5-.4-.976-.826a34.778,34.778,0,0,1-3.579-3.652q-.414-.489-.81-.993c-.114-.145-.323-.44.138.18-.061-.082-.124-.162-.185-.243q-.221-.292-.435-.589-.751-1.039-1.428-2.13a37.278,37.278,0,0,1-2.662-5.152l.258.611a36.351,36.351,0,0,1-2.5-9.152l.091.68a33.378,33.378,0,0,1-.017-8.743l-.091.68a32.287,32.287,0,0,1,2.249-8.171l-.258.611a34.638,34.638,0,0,1,2.454-4.725q.7-1.133,1.493-2.212.179-.245.362-.487c.111-.146.414-.509-.1.133.051-.063.1-.128.15-.191q.433-.548.887-1.079a36.641,36.641,0,0,1,3.712-3.759q.5-.441,1.021-.862.236-.192.474-.38l.192-.15c-.681.542-.189.148-.035.032q1.069-.8,2.195-1.521a35.347,35.347,0,0,1,5.247-2.765l-.611.258c2.646-1.111,14.371-3.734,16.5-3.448l-.68-.091a36.225,36.225,0,0,1,9.112,2.518l-.611-.258a37.617,37.617,0,0,1,4.3,2.159q1.038.608,2.035,1.283.472.319.934.653.231.167.459.337l.253.19c.354.266-.488-.385-.117-.091a37.8,37.8,0,0,1,3.536,3.156q.819.834,1.581,1.721.391.455.766.923c.124.155.547.717.029.029.127.168.255.335.38.5a33.4,33.4,0,0,1,2.862,4.617,2.576,2.576,0,0,0,3.5.918A2.618,2.618,0,0,0,553.62,514.9Z" transform="translate(-376.318 -381.874)" fill="#3f3d56"/>
    <path id="Path_9003" data-name="Path 9003" d="M542.873,587.253a1.289,1.289,0,0,1-.934-2.234l.088-.351-.035-.084c-1.187-2.83-8.759,5.059-9.087,7.718a10.24,10.24,0,0,0,.18,3.522,41.058,41.058,0,0,1-3.735-17.053,39.642,39.642,0,0,1,.246-4.421q.2-1.8.565-3.584a41.534,41.534,0,0,1,8.236-17.6c2.344.131,4.4-.226,4.6-4.77.035-.808.635-1.508.767-2.3-.224.029-.451.048-.675.062l-.213.011h-.026a1.277,1.277,0,0,1-1.049-2.081l.29-.357c.147-.183.3-.363.444-.547a.629.629,0,0,0,.048-.055c.169-.209.338-.415.506-.624a3.693,3.693,0,0,0-1.211-1.17,4.257,4.257,0,0,0-5.246,1.225,6.674,6.674,0,0,0-1.031,5.588,14.8,14.8,0,0,0,2.047,4.564c-.092.117-.187.231-.279.348A41.806,41.806,0,0,0,533,559.968c.347-2.707-3.892-12.485-5.531-14.555a3.567,3.567,0,0,0-6.353,1.751l-.01.092q.365.206.715.437a1.749,1.749,0,0,1-.705,3.182l-.036.006c-3.259,4.653,7.188,16.763,9.8,14.044a42.667,42.667,0,0,0-2.3,10.808,40.464,40.464,0,0,0,.03,6.534l-.011-.077c-.581-4.734-10.548-11.773-13.459-11.187-1.677.338-3.328.261-3.074,1.952l.012.081a11.748,11.748,0,0,1,1.317.635q.365.206.715.437a1.749,1.749,0,0,1-.7,3.182l-.036.005-.073.011c-1.483,5.1,9.517,13.341,16.205,10.72h0a42.652,42.652,0,0,0,2.865,8.365h10.236c.037-.114.07-.231.1-.345a11.629,11.629,0,0,1-2.832-.169c.759-.932,1.519-1.871,2.278-2.8a.647.647,0,0,0,.048-.055c.385-.477.774-.95,1.159-1.427h0a17.035,17.035,0,0,0-.5-4.34Zm-11.722-23.058.005-.007-.005.015Zm-2.267,20.439-.088-.2c0-.143,0-.286,0-.433,0-.04-.007-.081-.007-.121.033.253.062.506.1.759Z" transform="translate(-395.373 -412.488)" fill="#3f3d56"/>
    <circle id="Ellipse_82" data-name="Ellipse 82" cx="3.751" cy="3.751" r="3.751" transform="translate(28.735 145.963)" fill="#3f3d56"/>
    <circle id="Ellipse_83" data-name="Ellipse 83" cx="3.751" cy="3.751" r="3.751" transform="translate(73.752 186.887)" fill="#3f3d56"/>
    <circle id="Ellipse_84" data-name="Ellipse 84" cx="3.751" cy="3.751" r="3.751" transform="translate(244.61 186.887)" fill="#3f3d56"/>
    <circle id="Ellipse_85" data-name="Ellipse 85" cx="3.751" cy="3.751" r="3.751" transform="translate(253.818 139.142)" fill="#3f3d56"/>
    <circle id="Ellipse_86" data-name="Ellipse 86" cx="3.751" cy="3.751" r="3.751" transform="translate(242.905 104.357)" fill="#3f3d56"/>
    <path id="Path_9004" data-name="Path 9004" d="M419.753,576.193a3.734,3.734,0,1,1-.072-.737A3.734,3.734,0,0,1,419.753,576.193Z" transform="translate(-329.631 -433.3)" fill="#3f3d56"/>
    <circle id="Ellipse_87" data-name="Ellipse 87" cx="3.751" cy="3.751" r="3.751" transform="translate(161.398 115.27)" fill="#3f3d56"/>
    <path id="Path_9005" data-name="Path 9005" d="M530.753,506.193a3.734,3.734,0,1,1-.072-.737A3.734,3.734,0,0,1,530.753,506.193Z" transform="translate(-402.776 -387.172)" fill="#3f3d56"/>
    <path id="Path_9006" data-name="Path 9006" d="M388.753,474.193a3.734,3.734,0,1,1-.072-.737A3.734,3.734,0,0,1,388.753,474.193Z" transform="translate(-309.203 -366.085)" fill="#3f3d56"/>
    <circle id="Ellipse_88" data-name="Ellipse 88" cx="3.751" cy="3.751" r="3.751" transform="translate(200.617 147.327)" fill="#3f3d56"/>
    <circle id="Ellipse_89" data-name="Ellipse 89" cx="5.457" cy="5.457" r="5.457" transform="translate(139.912 109.813)" fill="#3f3d56"/>
    <path id="Path_9007" data-name="Path 9007" d="M462.868,733.7l-292.522.1a.406.406,0,0,1,0-.812l292.522-.1a.406.406,0,0,1,0,.812Z" transform="translate(-169.934 -539.021)" fill="#cacaca"/>
  </g>
</svg>
