<svg id="Group_13403" data-name="Group 13403" xmlns="http://www.w3.org/2000/svg" width="17.513" height="17.513" viewBox="0 0 17.513 17.513" fill="#FFF">
  <path id="Path_6263" data-name="Path 6263" d="M0,0H17.513V17.513H0Z" fill="none"/>
  <path id="Path_6264" data-name="Path 6264" d="M12.662,5.333a5.106,5.106,0,0,1,2.554,4.424v5.838H12.173a2.19,2.19,0,0,1-4.13,0H5V9.757A5.106,5.106,0,0,1,7.554,5.333a2.9,2.9,0,0,1-.274-.684H5V3.19H7.281a2.92,2.92,0,0,1,5.654,0h2.281V4.649H12.935a2.933,2.933,0,0,1-.272.684ZM11.6,6.427a2.921,2.921,0,0,1-2.987,0,3.649,3.649,0,0,0-2.155,3.33v4.378H7.919V11.216a2.189,2.189,0,0,1,4.378,0v2.919h1.459V9.757A3.649,3.649,0,0,0,11.6,6.427Zm-1.494,4.059a.73.73,0,0,0-.73.73v3.648a.73.73,0,1,0,1.459,0V11.216A.73.73,0,0,0,10.108,10.487Zm0-5.108A1.459,1.459,0,1,0,8.648,3.919,1.459,1.459,0,0,0,10.108,5.379Z" transform="translate(-1.352 -0.271)"/>
</svg>
