<svg xmlns="http://www.w3.org/2000/svg" width="60" height="40" viewBox="0 0 79.67 45.08" id="scooter"><g data-name="Layer 2"><g data-name="Layer 1"><circle cx="27" cy="33.58" r="7" fill="#6cffc0"></circle><circle cx="67" cy="33.58" r="7" fill="#6cffc0"></circle><path fill="none" stroke="#6cffc0" stroke-linecap="round" stroke-linejoin="round" stroke-width="3" d="M59.5 16.08h3"></path><circle cx="25" cy="36.58" r="7" fill="none" stroke="#4b4668" stroke-linecap="round" stroke-linejoin="round" stroke-width="3"></circle><circle cx="65" cy="36.58" r="7" fill="none" stroke="#4b4668" stroke-linecap="round" stroke-linejoin="round" stroke-width="3"></circle><path fill="none" stroke="#4b4668" stroke-linecap="round" stroke-linejoin="round" stroke-width="3" d="M42.75 43.58h35.42M6.4 43.58h29.37M1.5 43.58h.82"></path><g opacity=".2"><path fill="none" stroke="#4b4668" stroke-linecap="round" stroke-linejoin="round" stroke-width="3" d="M4.58 19.01v5M7.08 21.51h-5"></path></g><g opacity=".2"><path fill="none" stroke="#4b4668" stroke-linecap="round" stroke-linejoin="round" stroke-width="3" d="M35.35 1.5v5M37.85 4h-5"></path></g><circle cx="71" cy="11.58" r="2.5" fill="none" stroke="#6cffc0" stroke-linecap="round" stroke-linejoin="round" stroke-width="3" opacity=".5"></circle><path fill="none" stroke="#4b4668" stroke-linecap="round" stroke-linejoin="round" stroke-width="3" d="M64.86 36.09l-9-28H50.5M9.5 33.58h2"></path><path fill="none" stroke="#4b4668" stroke-linecap="round" stroke-linejoin="round" stroke-width="3" d="M12.5 35.58a12.5 12.5 0 0125 0h15A12.5 12.5 0 0165 23.08M32.5 25.58h15M51.5 25.58"></path><path fill="none" stroke="#4b4668" stroke-linecap="round" stroke-linejoin="round" stroke-width="3" d="M18.5 24v-7.17h13a6 6 0 016 6v2M7.5 31.08h5"></path></g></g></svg>