<svg id="Group_13951" data-name="Group 13951" xmlns="http://www.w3.org/2000/svg" xmlns:xlink="http://www.w3.org/1999/xlink" width="238.074" height="173.118" viewBox="0 0 238.074 173.118">
  <defs>
    <clipPath id="clip-path">
      <rect id="Rectangle_2148" data-name="Rectangle 2148" width="238.074" height="173.118" fill="none"/>
    </clipPath>
    <clipPath id="clip-path-3">
      <rect id="Rectangle_2146" data-name="Rectangle 2146" width="21.112" height="16.984" fill="none"/>
    </clipPath>
  </defs>
  <g id="Group_13956" data-name="Group 13956" clip-path="url(#clip-path)">
    <g id="Group_13955" data-name="Group 13955">
      <g id="Group_13954" data-name="Group 13954" clip-path="url(#clip-path)">
        <path id="Path_8537" data-name="Path 8537" d="M.4.563v172.18H8.252V8.211a.218.218,0,0,1,.2-.235H33.573a.218.218,0,0,1,.2.235V172.743H238.141V.563Z" transform="translate(-0.066 -0.094)" fill="#47abf6"/>
        <path id="Path_8538" data-name="Path 8538" d="M.643.111V172.727c0,.031-.144.057-.321.057S0,172.758,0,172.727V.111C0,.08.144.054.322.054S.643.08.643.111" transform="translate(0 -0.009)"/>
        <path id="Path_8539" data-name="Path 8539" d="M237.944,0H.4V.469H237.749v172.18H33.714v.234a.218.218,0,0,1-.2.235H237.944a.218.218,0,0,0,.2-.235V.234a.218.218,0,0,0-.2-.234" transform="translate(-0.066)"/>
        <path id="Path_8540" data-name="Path 8540" d="M9.785,207.388v-.234H.4v.468h9.62a.234.234,0,0,1-.234-.234" transform="translate(-0.066 -34.504)"/>
        <path id="Path_8541" data-name="Path 8541" d="M148.852,100.542c-.105-.523-.193-12.912-.216-24.09-.047-23.461.166-23.675.28-23.788l1.126-1.126a.235.235,0,1,1,.332.332l-1.085,1.085c-.14.826-.212,10.1-.183,23.814.025,12.129.122,23.2.206,23.682.108.542,1.168.913,1.787,1.068V51.7a.234.234,0,0,1,.141-.213V51H119.853v51.7h31.386v-.671c-.381-.075-2.186-.48-2.388-1.489M125.2,54.279q-.105.354-.229.8t-.248.931q-.124.488-.248.994t-.233.987q-.109.481-.2.909c-.058.285-.106.537-.146.758a.275.275,0,0,1-.1.165.393.393,0,0,1-.259-.015c-.12-.03-.239-.058-.356-.086a1.62,1.62,0,0,1-.357-.133.408.408,0,0,1-.188-.194.717.717,0,0,1-.029-.308q.015-.278.071-.747c.038-.314.085-.653.143-1.022s.123-.745.2-1.133.147-.748.222-1.084c-.1-.051-.183-.094-.248-.132a.413.413,0,0,1-.139-.117.187.187,0,0,1-.033-.131.614.614,0,0,1,.06-.183,5.593,5.593,0,0,1,.3-.537q.173-.274.323-.477a1.486,1.486,0,0,1,.132-.143.323.323,0,0,1,.267-.091,1.3,1.3,0,0,1,.2.038,2.573,2.573,0,0,1,.439.161,3.071,3.071,0,0,1,.432.252.742.742,0,0,1,.255.24.381.381,0,0,1-.023.3m5.044.69q-.413.534-.841,1.138t-.837,1.235q-.409.631-.78,1.258t-.665,1.189c-.04.084-.088.133-.143.142a.524.524,0,0,1-.255-.052,3.9,3.9,0,0,1-.345-.188,2,2,0,0,1-.315-.233.4.4,0,0,1-.147-.232.716.716,0,0,1,.048-.285c.14-.331.3-.674.488-1.033s.385-.718.6-1.083.441-.729.676-1.093.478-.717.728-1.061c-.135.01-.281.023-.436.041s-.308.036-.458.057l-.432.056c-.138.017-.254.032-.349.042a.764.764,0,0,1-.705-.2c-.036-.045-.077-.1-.124-.154s-.1-.118-.147-.18-.1-.128-.143-.193a1.9,1.9,0,0,1-.113-.179q-.12-.165-.083-.233a.277.277,0,0,1,.18-.105,5.554,5.554,0,0,1,.736-.15c.28-.041.573-.075.878-.105s.613-.055.923-.076.6-.034.863-.045a1.161,1.161,0,0,1,.387.056.683.683,0,0,1,.3.253,4.012,4.012,0,0,1,.3.379q.128.184.233.326a.634.634,0,0,1,.132.349.573.573,0,0,1-.154.363" transform="translate(-19.963 -8.495)" fill="#2b98f0"/>
        <path id="Path_8542" data-name="Path 8542" d="M158.54,66.717a.235.235,0,0,1,.235-.235h5.54V51h-6.8v.489a.234.234,0,0,1,.328.214V92.669a.229.229,0,0,1,.188-.1h5.418a.235.235,0,0,1,0,.469h-5.418a.228.228,0,0,1-.188-.1v8.874a.234.234,0,0,1-.235.234.24.24,0,0,1-.042,0l-.052-.01v.67h6.8V66.951h-5.54a.235.235,0,0,1-.235-.234m1.975,5.442a.235.235,0,0,1,.234-.235h.938a.235.235,0,0,1,.234.235v5.63a.234.234,0,0,1-.234.234h-.938a.234.234,0,0,1-.234-.234Zm.7,11.025c1.026,0,1.829,1.257,1.829,2.862s-.8,2.862-1.829,2.862-1.829-1.258-1.829-2.862.8-2.862,1.829-2.862" transform="translate(-26.236 -8.495)" fill="#2b98f0"/>
        <rect id="Rectangle_2130" data-name="Rectangle 2130" width="0.469" height="5.161" transform="translate(134.748 63.899)" fill="#2b98f0"/>
        <path id="Path_8543" data-name="Path 8543" d="M161.687,94.965c.738,0,1.361-1.1,1.361-2.393s-.623-2.393-1.361-2.393-1.36,1.1-1.36,2.393.623,2.393,1.36,2.393m-.234-3.331a.235.235,0,0,1,.469,0V93.7a.235.235,0,0,1-.469,0Z" transform="translate(-26.704 -15.02)" fill="#2b98f0"/>
        <path id="Path_8544" data-name="Path 8544" d="M119.524,103.076h38.658a.235.235,0,0,0,.235-.234V50.672a.235.235,0,0,0-.235-.235H119.524a.235.235,0,0,0-.234.235v52.17a.234.234,0,0,0,.234.234m38.752-36.453a.234.234,0,0,1-.234.234h-.094v35.75H119.759v-51.7h38.189V66.388h.094a.235.235,0,0,1,.234.235" transform="translate(-19.869 -8.401)"/>
        <path id="Path_8545" data-name="Path 8545" d="M158.094,101.344h5.417a.235.235,0,1,0,0-.469h-5.417a.23.23,0,0,0-.188.1v.268a.23.23,0,0,0,.188.1" transform="translate(-26.301 -16.802)"/>
        <path id="Path_8546" data-name="Path 8546" d="M164.614,69.577H158.98a.235.235,0,1,0,0,.469h5.634a.235.235,0,0,0,0-.469" transform="translate(-26.441 -11.589)"/>
        <path id="Path_8547" data-name="Path 8547" d="M161.349,82.205h.938a.234.234,0,0,0,.234-.234v-5.63a.235.235,0,0,0-.234-.235h-.938a.235.235,0,0,0-.234.235v5.63a.234.234,0,0,0,.234.234m.235-5.63h.469v5.161h-.469Z" transform="translate(-26.836 -12.676)"/>
        <path id="Path_8548" data-name="Path 8548" d="M161.593,95.34c1.026,0,1.829-1.258,1.829-2.862s-.8-2.862-1.829-2.862-1.829,1.257-1.829,2.862.8,2.862,1.829,2.862m0-5.255c.738,0,1.36,1.1,1.36,2.393s-.623,2.393-1.36,2.393-1.36-1.1-1.36-2.393.623-2.393,1.36-2.393" transform="translate(-26.611 -14.927)"/>
        <path id="Path_8549" data-name="Path 8549" d="M161.912,94.177a.234.234,0,0,0,.234-.234V91.878a.234.234,0,1,0-.468,0v2.064a.234.234,0,0,0,.234.234" transform="translate(-26.929 -15.264)"/>
        <path id="Path_8550" data-name="Path 8550" d="M156.849,51.8v49.815c-.618-.154-1.679-.525-1.787-1.068-.084-.486-.181-11.553-.206-23.682-.029-13.711.043-22.988.183-23.814l1.085-1.085a.235.235,0,0,0-.332-.332l-1.126,1.126c-.115.114-.328.327-.28,23.788.022,11.178.111,23.567.215,24.09.2,1.009,2.008,1.414,2.389,1.489l.052.01a.244.244,0,0,0,.042,0,.235.235,0,0,0,.235-.235V51.8a.234.234,0,0,0-.235-.234.221.221,0,0,0-.093.02.234.234,0,0,0-.141.214" transform="translate(-25.714 -8.589)"/>
        <path id="Path_8551" data-name="Path 8551" d="M125.517,54.195a3.113,3.113,0,0,0-.433-.252,2.572,2.572,0,0,0-.439-.161,1.177,1.177,0,0,0-.2-.038.338.338,0,0,0-.145.015.333.333,0,0,0-.121.075,1.483,1.483,0,0,0-.132.143c-.1.135-.208.294-.323.477a5.776,5.776,0,0,0-.3.537.613.613,0,0,0-.06.183.2.2,0,0,0,.034.132.418.418,0,0,0,.138.117c.066.038.148.081.248.131-.075.336-.148.7-.222,1.085s-.138.765-.2,1.133-.105.708-.143,1.021-.061.562-.072.747a.7.7,0,0,0,.03.308.409.409,0,0,0,.188.2,1.6,1.6,0,0,0,.357.132c.118.028.236.056.356.086a.4.4,0,0,0,.26.015.279.279,0,0,0,.1-.165q.06-.33.147-.758c.058-.286.123-.588.2-.908s.15-.649.233-.988.165-.669.248-.994.167-.635.248-.931.159-.56.229-.8a.385.385,0,0,0,.023-.3.75.75,0,0,0-.255-.24" transform="translate(-20.513 -8.951)" fill="#fff"/>
        <path id="Path_8552" data-name="Path 8552" d="M131.154,54.378a4.125,4.125,0,0,0-.3-.379.676.676,0,0,0-.3-.252,1.14,1.14,0,0,0-.387-.056q-.4.015-.863.045t-.923.075q-.459.045-.878.105a5.582,5.582,0,0,0-.736.15.277.277,0,0,0-.18.105q-.038.068.083.233a1.911,1.911,0,0,0,.113.181c.045.065.093.128.143.191s.1.123.147.18.089.109.124.154a.792.792,0,0,0,.353.2.8.8,0,0,0,.353,0c.1-.01.212-.023.349-.041l.432-.057q.225-.03.458-.056c.155-.018.3-.032.436-.042q-.376.518-.728,1.062t-.676,1.093q-.323.548-.6,1.084t-.488,1.033a.7.7,0,0,0-.049.285.41.41,0,0,0,.147.233,2.08,2.08,0,0,0,.315.233,3.915,3.915,0,0,0,.345.188.529.529,0,0,0,.256.053q.081-.015.143-.143.293-.564.664-1.19t.78-1.258q.41-.63.838-1.234t.84-1.138a.575.575,0,0,0,.154-.363.631.631,0,0,0-.132-.349q-.105-.143-.233-.327" transform="translate(-21.084 -8.943)" fill="#fff"/>
        <path id="Path_8553" data-name="Path 8553" d="M148.852,175.3c-.105-.523-.193-12.912-.216-24.09-.047-23.462.166-23.675.28-23.789l1.126-1.126a.235.235,0,0,1,.332.332l-1.084,1.085c-.14.826-.213,10.1-.183,23.814.026,12.13.122,23.2.206,23.683.108.542,1.168.913,1.788,1.067V126.459a.233.233,0,0,1,.14-.214v-.489H119.853v51.7h31.386v-.67c-.38-.075-2.186-.48-2.388-1.489m-21.633-45.329a1.958,1.958,0,0,1-.162.488,4.318,4.318,0,0,1-.282.5,5.356,5.356,0,0,1-.45.616q-.27.323-.589.645t-.672.623q-.353.3-.7.548a6.408,6.408,0,0,1,.638-.075q.33-.022.571-.03a.578.578,0,0,1,.285.049.6.6,0,0,1,.21.191,1.857,1.857,0,0,1,.169.255,1.591,1.591,0,0,1,.116.256c.04.09.044.15.012.18a.447.447,0,0,1-.222.068q-.27.015-.627.053t-.717.083c-.24.03-.471.063-.691.1s-.4.068-.548.1a1.993,1.993,0,0,1-.27.034.742.742,0,0,1-.177-.012.427.427,0,0,1-.124-.045.682.682,0,0,1-.105-.075q-.067-.045-.15-.113t-.165-.143c-.055-.05-.109-.1-.162-.154s-.1-.1-.139-.146a.677.677,0,0,1-.093-.12.463.463,0,0,1-.057-.139.248.248,0,0,1,.012-.139.335.335,0,0,1,.116-.135,10.569,10.569,0,0,0,.833-.687q.435-.394.848-.811t.773-.829q.36-.413.608-.754a3.255,3.255,0,0,0,.349-.574c.068-.155.069-.255,0-.3a.255.255,0,0,0-.233-.027,1.209,1.209,0,0,0-.315.154,3.439,3.439,0,0,0-.368.281c-.13.113-.258.229-.383.349a1.036,1.036,0,0,1-.315.158,1.421,1.421,0,0,1-.357.06,2.143,2.143,0,0,1-.371-.019,1.782,1.782,0,0,1-.353-.086.48.48,0,0,1-.161-.083.24.24,0,0,1-.083-.138.443.443,0,0,1,.019-.214,1.843,1.843,0,0,1,.135-.315,3.638,3.638,0,0,1,.886-1.01,2.6,2.6,0,0,1,1.148-.521,1.837,1.837,0,0,1,.694,0,2.309,2.309,0,0,1,.6.2,2.067,2.067,0,0,1,.48.331,2.13,2.13,0,0,1,.327.371,1.61,1.61,0,0,1,.2.518,1.354,1.354,0,0,1,0,.492m4.766-.244q-.413.533-.841,1.137t-.837,1.235q-.409.63-.781,1.258t-.664,1.189c-.04.085-.088.133-.143.143a.541.541,0,0,1-.255-.053,3.907,3.907,0,0,1-.345-.188,2.054,2.054,0,0,1-.315-.233.406.406,0,0,1-.147-.233.719.719,0,0,1,.048-.286q.21-.5.488-1.032t.6-1.084q.323-.549.676-1.093t.728-1.062c-.135.01-.281.023-.436.041s-.308.037-.458.057l-.432.056c-.138.018-.254.032-.349.042a.8.8,0,0,1-.353,0,.785.785,0,0,1-.353-.2c-.036-.045-.077-.1-.124-.154s-.1-.118-.147-.18-.1-.127-.143-.192a2.019,2.019,0,0,1-.113-.18q-.12-.165-.083-.233a.277.277,0,0,1,.18-.105,5.554,5.554,0,0,1,.736-.15c.28-.041.573-.075.878-.105s.613-.055.923-.076.6-.034.863-.045a1.138,1.138,0,0,1,.387.057.681.681,0,0,1,.3.252,4.018,4.018,0,0,1,.3.379q.128.184.233.326a.634.634,0,0,1,.132.349.577.577,0,0,1-.154.364" transform="translate(-19.963 -20.946)" fill="#2b98f0"/>
        <path id="Path_8554" data-name="Path 8554" d="M158.54,141.473a.235.235,0,0,1,.235-.235h5.54V125.756h-6.8v.489a.234.234,0,0,1,.328.214v40.965a.229.229,0,0,1,.188-.1h5.418a.235.235,0,0,1,0,.469h-5.418a.228.228,0,0,1-.188-.1v8.874a.234.234,0,0,1-.235.234.24.24,0,0,1-.042,0l-.052-.01v.67h6.8V141.707h-5.54a.235.235,0,0,1-.235-.234m1.975,5.442a.234.234,0,0,1,.234-.234h.938a.234.234,0,0,1,.234.234v5.63a.235.235,0,0,1-.234.235h-.938a.235.235,0,0,1-.234-.235Zm.7,11.026c1.026,0,1.829,1.257,1.829,2.862s-.8,2.862-1.829,2.862-1.829-1.258-1.829-2.862.8-2.862,1.829-2.862" transform="translate(-26.236 -20.946)" fill="#2b98f0"/>
        <rect id="Rectangle_2131" data-name="Rectangle 2131" width="0.469" height="5.161" transform="translate(134.748 126.203)" fill="#2b98f0"/>
        <path id="Path_8555" data-name="Path 8555" d="M161.687,169.721c.738,0,1.361-1.1,1.361-2.393s-.623-2.393-1.361-2.393-1.36,1.1-1.36,2.393.623,2.393,1.36,2.393m-.234-3.331a.235.235,0,1,1,.469,0v2.064a.235.235,0,0,1-.469,0Z" transform="translate(-26.704 -27.472)" fill="#2b98f0"/>
        <path id="Path_8556" data-name="Path 8556" d="M119.524,177.831h38.658a.234.234,0,0,0,.235-.234v-52.17a.235.235,0,0,0-.235-.235H119.524a.235.235,0,0,0-.234.235V177.6a.234.234,0,0,0,.234.234m38.752-36.453a.234.234,0,0,1-.234.234h-.094v35.75H119.759v-51.7h38.189v15.483h.094a.234.234,0,0,1,.234.234" transform="translate(-19.869 -20.852)"/>
        <path id="Path_8557" data-name="Path 8557" d="M158.094,176.1h5.417a.235.235,0,1,0,0-.469h-5.417a.23.23,0,0,0-.188.1V176a.23.23,0,0,0,.188.1" transform="translate(-26.301 -29.253)"/>
        <path id="Path_8558" data-name="Path 8558" d="M164.614,144.332H158.98a.235.235,0,1,0,0,.469h5.634a.235.235,0,0,0,0-.469" transform="translate(-26.441 -24.04)"/>
        <path id="Path_8559" data-name="Path 8559" d="M161.349,156.961h.938a.235.235,0,0,0,.234-.235V151.1a.234.234,0,0,0-.234-.234h-.938a.234.234,0,0,0-.234.234v5.63a.235.235,0,0,0,.234.235m.235-5.631h.469v5.161h-.469Z" transform="translate(-26.836 -25.128)"/>
        <path id="Path_8560" data-name="Path 8560" d="M161.593,170.1c1.026,0,1.829-1.258,1.829-2.862s-.8-2.862-1.829-2.862-1.829,1.257-1.829,2.862.8,2.862,1.829,2.862m0-5.255c.738,0,1.36,1.1,1.36,2.393s-.623,2.393-1.36,2.393-1.36-1.1-1.36-2.393.623-2.393,1.36-2.393" transform="translate(-26.611 -27.378)"/>
        <path id="Path_8561" data-name="Path 8561" d="M161.912,168.932a.235.235,0,0,0,.234-.235v-2.064a.234.234,0,1,0-.468,0V168.7a.234.234,0,0,0,.234.235" transform="translate(-26.929 -27.716)"/>
        <path id="Path_8562" data-name="Path 8562" d="M156.849,126.553v49.815c-.618-.154-1.679-.525-1.787-1.068-.084-.486-.181-11.553-.206-23.682-.029-13.711.043-22.988.183-23.814l1.085-1.085a.235.235,0,0,0-.332-.332l-1.126,1.126c-.115.114-.328.327-.28,23.788.022,11.179.111,23.567.215,24.09.2,1.009,2.008,1.414,2.389,1.489l.052.01a.244.244,0,0,0,.042,0,.234.234,0,0,0,.235-.235V126.553a.235.235,0,0,0-.469,0" transform="translate(-25.714 -21.04)"/>
        <path id="Path_8563" data-name="Path 8563" d="M127.468,129.412a2.132,2.132,0,0,0-.327-.372,2.09,2.09,0,0,0-.48-.33,2.3,2.3,0,0,0-.6-.2,1.853,1.853,0,0,0-.694,0,2.6,2.6,0,0,0-1.148.522,3.64,3.64,0,0,0-.886,1.01,1.842,1.842,0,0,0-.135.315.439.439,0,0,0-.018.213.238.238,0,0,0,.083.139.464.464,0,0,0,.161.083,1.738,1.738,0,0,0,.353.087,2.06,2.06,0,0,0,.371.018,1.414,1.414,0,0,0,.357-.06,1.048,1.048,0,0,0,.316-.158q.188-.18.383-.349a3.571,3.571,0,0,1,.368-.282,1.231,1.231,0,0,1,.315-.153.254.254,0,0,1,.233.026c.065.046.063.145,0,.3a3.206,3.206,0,0,1-.349.574q-.248.341-.608.754t-.773.829q-.413.416-.848.811t-.833.687a.332.332,0,0,0-.117.135.24.24,0,0,0-.011.139.435.435,0,0,0,.056.138.619.619,0,0,0,.094.12c.04.045.086.094.138.147s.107.1.162.154.11.1.165.143.105.083.15.113a.684.684,0,0,0,.105.075.427.427,0,0,0,.124.045.709.709,0,0,0,.177.011,1.958,1.958,0,0,0,.27-.033q.218-.045.548-.1t.69-.1q.36-.045.717-.083t.627-.053a.456.456,0,0,0,.222-.068c.033-.03.028-.09-.012-.18a1.527,1.527,0,0,0-.116-.256,1.805,1.805,0,0,0-.169-.255.6.6,0,0,0-.21-.192.578.578,0,0,0-.285-.048q-.241.008-.571.03a6.361,6.361,0,0,0-.638.075q.345-.248.7-.548t.672-.623q.32-.323.589-.646a5.2,5.2,0,0,0,.451-.615,4.435,4.435,0,0,0,.281-.5,1.952,1.952,0,0,0,.162-.488,1.355,1.355,0,0,0,0-.492,1.606,1.606,0,0,0-.2-.518" transform="translate(-20.415 -21.399)" fill="#fff"/>
        <path id="Path_8564" data-name="Path 8564" d="M133.243,129.133a4.126,4.126,0,0,0-.3-.379.676.676,0,0,0-.3-.252,1.14,1.14,0,0,0-.387-.056q-.4.015-.863.045t-.923.075q-.459.045-.878.105a5.584,5.584,0,0,0-.736.15.277.277,0,0,0-.18.105c-.025.045,0,.123.083.233a1.914,1.914,0,0,0,.113.181c.045.065.093.128.143.191l.147.181c.048.057.089.108.124.153a.791.791,0,0,0,.353.2.8.8,0,0,0,.353,0c.1-.01.212-.023.349-.041l.432-.057q.225-.03.458-.056c.155-.018.3-.032.436-.042q-.376.518-.728,1.062t-.676,1.093q-.323.548-.6,1.084t-.488,1.033a.716.716,0,0,0-.048.285.41.41,0,0,0,.147.233,2.081,2.081,0,0,0,.315.233,3.914,3.914,0,0,0,.345.188.528.528,0,0,0,.255.053c.055-.01.1-.058.143-.143q.293-.564.664-1.19t.78-1.258q.409-.63.838-1.234t.84-1.138a.574.574,0,0,0,.154-.363.634.634,0,0,0-.132-.349q-.105-.143-.233-.327" transform="translate(-21.432 -21.394)" fill="#fff"/>
        <path id="Path_8565" data-name="Path 8565" d="M151.239,37.029c-.38-.074-2.186-.479-2.388-1.489-.105-.524-.193-6.678-.216-12.078-.047-11.452.174-11.673.28-11.779l1.126-1.126a.235.235,0,0,1,.332.332l-1.094,1.094c-.135.538-.2,5.11-.173,11.736.025,5.831.122,11.312.205,11.73.108.542,1.168.913,1.787,1.068V10.723a.234.234,0,0,1,.141-.214V10.02H119.853V37.7h31.386Zm-23.9-23.04q-.413.533-.841,1.137t-.837,1.235q-.409.63-.781,1.258t-.664,1.189q-.06.128-.143.143a.528.528,0,0,1-.255-.053,3.9,3.9,0,0,1-.345-.188,2.1,2.1,0,0,1-.316-.233.408.408,0,0,1-.146-.233.722.722,0,0,1,.048-.286q.21-.5.488-1.032t.6-1.084q.323-.549.676-1.093t.728-1.062c-.136.01-.281.023-.436.041s-.308.037-.458.057l-.432.056c-.138.018-.254.032-.349.042a.8.8,0,0,1-.353,0,.792.792,0,0,1-.353-.2c-.035-.045-.076-.1-.123-.154s-.1-.118-.147-.18-.1-.127-.143-.192a2.019,2.019,0,0,1-.113-.18q-.12-.165-.083-.233a.277.277,0,0,1,.18-.105,5.554,5.554,0,0,1,.736-.15q.42-.06.878-.105c.305-.031.613-.055.923-.076s.6-.034.863-.045a1.138,1.138,0,0,1,.387.057.675.675,0,0,1,.3.252,3.9,3.9,0,0,1,.3.379q.128.184.233.326a.634.634,0,0,1,.132.349.581.581,0,0,1-.154.364" transform="translate(-19.963 -1.669)" fill="#2b98f0"/>
        <path id="Path_8566" data-name="Path 8566" d="M157.605,10.489a.235.235,0,0,1,.235.234V36.808a.235.235,0,0,1-.235.235.243.243,0,0,1-.042,0l-.052-.01V37.7h6.8V10.02h-6.8v.489a.234.234,0,0,1,.093-.02m2.91,5.113a.234.234,0,0,1,.234-.234h.938a.234.234,0,0,1,.234.234v5.631a.234.234,0,0,1-.234.234h-.938a.234.234,0,0,1-.234-.234Zm.7,11.026c1.026,0,1.829,1.257,1.829,2.862s-.8,2.862-1.829,2.862-1.829-1.258-1.829-2.862.8-2.862,1.829-2.862" transform="translate(-26.236 -1.669)" fill="#2b98f0"/>
        <path id="Path_8567" data-name="Path 8567" d="M161.687,35.3c.738,0,1.361-1.1,1.361-2.393s-.623-2.393-1.361-2.393-1.36,1.1-1.36,2.393.623,2.393,1.36,2.393m-.234-3.331a.235.235,0,0,1,.469,0v2.064a.235.235,0,0,1-.469,0Z" transform="translate(-26.704 -5.082)" fill="#2b98f0"/>
        <rect id="Rectangle_2132" data-name="Rectangle 2132" width="0.469" height="5.161" transform="translate(134.748 14.168)" fill="#2b98f0"/>
        <path id="Path_8568" data-name="Path 8568" d="M119.525,38.076h38.658a.235.235,0,0,0,.234-.235V9.692a.235.235,0,0,0-.234-.235H119.525a.235.235,0,0,0-.235.235V37.841a.235.235,0,0,0,.235.235m.234-28.149h38.189v27.68H119.759Z" transform="translate(-19.869 -1.575)"/>
        <path id="Path_8569" data-name="Path 8569" d="M161.349,22.536h.938a.234.234,0,0,0,.234-.234v-5.63a.235.235,0,0,0-.234-.235h-.938a.235.235,0,0,0-.234.235V22.3a.234.234,0,0,0,.234.234m.235-5.63h.469v5.161h-.469Z" transform="translate(-26.836 -2.738)"/>
        <path id="Path_8570" data-name="Path 8570" d="M161.593,35.671c1.026,0,1.829-1.258,1.829-2.862s-.8-2.862-1.829-2.862-1.829,1.257-1.829,2.862.8,2.862,1.829,2.862m0-5.255c.738,0,1.36,1.1,1.36,2.393s-.623,2.393-1.36,2.393-1.36-1.1-1.36-2.393.623-2.393,1.36-2.393" transform="translate(-26.611 -4.988)"/>
        <path id="Path_8571" data-name="Path 8571" d="M161.912,34.508a.235.235,0,0,0,.234-.235V32.209a.234.234,0,1,0-.468,0v2.064a.234.234,0,0,0,.234.235" transform="translate(-26.929 -5.326)"/>
        <path id="Path_8572" data-name="Path 8572" d="M157.084,37.137a.237.237,0,0,0,.15-.054.234.234,0,0,0,.085-.18V10.818a.235.235,0,0,0-.235-.235.238.238,0,0,0-.094.02.234.234,0,0,0-.14.215V36.611c-.618-.155-1.679-.526-1.788-1.068-.083-.418-.179-5.9-.205-11.73-.03-6.625.038-11.2.173-11.736l1.094-1.094a.235.235,0,0,0-.332-.332l-1.126,1.126c-.106.107-.327.327-.28,11.779.023,5.4.111,11.554.216,12.079.2,1.008,2.008,1.414,2.388,1.489l.053.009a.228.228,0,0,0,.042,0" transform="translate(-25.714 -1.763)"/>
        <path id="Path_8573" data-name="Path 8573" d="M127.668,13.4a4.127,4.127,0,0,0-.3-.379.676.676,0,0,0-.3-.252,1.14,1.14,0,0,0-.387-.056q-.4.015-.863.045t-.923.075q-.459.045-.878.105a5.554,5.554,0,0,0-.736.15.277.277,0,0,0-.18.105c-.025.045,0,.123.083.233a1.911,1.911,0,0,0,.113.181c.045.065.093.128.143.191s.1.123.147.18.089.109.124.154a.792.792,0,0,0,.353.2.8.8,0,0,0,.353,0c.1-.01.212-.023.349-.041l.432-.057q.225-.03.458-.056c.155-.018.3-.032.436-.042q-.376.518-.728,1.062t-.676,1.093q-.323.548-.6,1.084t-.488,1.033a.716.716,0,0,0-.048.285.406.406,0,0,0,.147.233,2.084,2.084,0,0,0,.315.233,3.9,3.9,0,0,0,.345.188.528.528,0,0,0,.255.053q.083-.015.143-.143.294-.564.665-1.19t.78-1.258q.41-.63.838-1.234t.84-1.138a.574.574,0,0,0,.154-.363.633.633,0,0,0-.132-.349q-.105-.143-.233-.327" transform="translate(-20.503 -2.117)" fill="#fff"/>
        <path id="Path_8574" data-name="Path 8574" d="M72.609,58.4a1.294,1.294,0,0,0-.267.192,1.5,1.5,0,0,0-.236.278,2.709,2.709,0,0,0-.158.8q0,.315.2.4a.469.469,0,0,0,.5-.075,1.618,1.618,0,0,0,.469-.616,1.779,1.779,0,0,0,.2-.66.357.357,0,0,0-.207-.391.477.477,0,0,0-.233-.018.82.82,0,0,0-.263.09" transform="translate(-11.984 -9.712)" fill="#2b98f0"/>
        <path id="Path_8575" data-name="Path 8575" d="M92.785,100.542c-.1-.523-.193-12.911-.216-24.09-.047-23.461.166-23.674.28-23.788l1.126-1.126a.235.235,0,1,1,.332.332l-1.084,1.085c-.14.826-.213,10.1-.183,23.814.026,12.129.122,23.2.206,23.682.109.543,1.169.913,1.788,1.068V51.7a.233.233,0,0,1,.141-.214V51H63.787v51.7H95.173v-.671c-.381-.074-2.187-.479-2.389-1.489M69.133,54.279q-.105.353-.228.8t-.248.931q-.124.488-.248.994t-.233.987q-.109.481-.2.908t-.147.758a.275.275,0,0,1-.1.165.393.393,0,0,1-.259-.015c-.12-.03-.239-.059-.357-.087a1.585,1.585,0,0,1-.357-.131.41.41,0,0,1-.188-.2.705.705,0,0,1-.03-.308c.01-.185.033-.434.072-.747s.085-.653.143-1.021.123-.745.2-1.133.147-.749.222-1.084c-.1-.05-.183-.094-.248-.132a.417.417,0,0,1-.138-.116.191.191,0,0,1-.034-.132.617.617,0,0,1,.06-.184,5.7,5.7,0,0,1,.3-.537c.115-.183.223-.341.323-.477a1.588,1.588,0,0,1,.132-.143.329.329,0,0,1,.12-.075.341.341,0,0,1,.146-.015,1.193,1.193,0,0,1,.2.038,2.551,2.551,0,0,1,.439.162,3.106,3.106,0,0,1,.432.252.742.742,0,0,1,.255.24.381.381,0,0,1-.023.3m4.241-.2a9.268,9.268,0,0,0-1,.949,8.447,8.447,0,0,0-.8,1.04,1.558,1.558,0,0,1,.406.022,2.091,2.091,0,0,1,.383.113,2.233,2.233,0,0,1,.484.248,1.345,1.345,0,0,1,.3.285.933.933,0,0,1,.158.323,1.421,1.421,0,0,1,.045.36,2.044,2.044,0,0,1-.075.7,2.935,2.935,0,0,1-.263.63,2.638,2.638,0,0,1-.379.518,2.212,2.212,0,0,1-.432.36,1.9,1.9,0,0,1-.308.143,1.384,1.384,0,0,1-.378.075,2.355,2.355,0,0,1-.484-.023,3.869,3.869,0,0,1-.608-.143,2.811,2.811,0,0,1-.563-.27,1.5,1.5,0,0,1-.379-.338,1.3,1.3,0,0,1-.218-.416,1.9,1.9,0,0,1-.079-.514,4.7,4.7,0,0,1,.075-.928,5.248,5.248,0,0,1,.357-1.174,7.082,7.082,0,0,1,.743-1.31,7.206,7.206,0,0,1,1.234-1.325c.06-.049.113-.091.158-.123a.523.523,0,0,1,.136-.072.424.424,0,0,1,.153-.018,1.687,1.687,0,0,1,.214.026c.08.015.169.037.267.064s.193.058.289.09.185.067.27.1.158.068.218.1a.483.483,0,0,1,.225.226q.038.113-.15.285" transform="translate(-10.624 -8.495)" fill="#2b98f0"/>
        <path id="Path_8576" data-name="Path 8576" d="M102.474,66.717a.235.235,0,0,1,.235-.235h5.54V51h-6.8v.489a.234.234,0,0,1,.328.214V92.669a.229.229,0,0,1,.188-.1h5.418a.235.235,0,0,1,0,.469h-5.418a.228.228,0,0,1-.188-.1v8.874a.234.234,0,0,1-.234.234.243.243,0,0,1-.043,0l-.052-.01v.67h6.8V66.951h-5.54a.235.235,0,0,1-.235-.234m1.975,5.442a.235.235,0,0,1,.234-.235h.938a.235.235,0,0,1,.234.235v5.63a.234.234,0,0,1-.234.234h-.938a.234.234,0,0,1-.234-.234Zm.7,11.025c1.026,0,1.829,1.257,1.829,2.862s-.8,2.862-1.829,2.862-1.829-1.258-1.829-2.862.8-2.862,1.829-2.862" transform="translate(-16.897 -8.495)" fill="#2b98f0"/>
        <rect id="Rectangle_2133" data-name="Rectangle 2133" width="0.469" height="5.161" transform="translate(88.02 63.899)" fill="#2b98f0"/>
        <path id="Path_8577" data-name="Path 8577" d="M105.62,94.965c.738,0,1.361-1.1,1.361-2.393s-.623-2.393-1.361-2.393-1.36,1.1-1.36,2.393.623,2.393,1.36,2.393m-.234-3.331a.235.235,0,0,1,.469,0V93.7a.235.235,0,0,1-.469,0Z" transform="translate(-17.366 -15.02)" fill="#2b98f0"/>
        <path id="Path_8578" data-name="Path 8578" d="M63.458,103.076h38.658a.235.235,0,0,0,.235-.234V50.672a.235.235,0,0,0-.235-.235H63.458a.235.235,0,0,0-.234.235v52.17a.234.234,0,0,0,.234.234m38.752-36.453a.234.234,0,0,1-.234.234h-.094v35.75H63.693v-51.7h38.189V66.388h.094a.235.235,0,0,1,.234.235" transform="translate(-10.531 -8.401)"/>
        <path id="Path_8579" data-name="Path 8579" d="M102.028,101.344h5.417a.235.235,0,1,0,0-.469h-5.417a.23.23,0,0,0-.188.1v.268a.23.23,0,0,0,.188.1" transform="translate(-16.963 -16.802)"/>
        <path id="Path_8580" data-name="Path 8580" d="M108.547,69.577h-5.634a.235.235,0,1,0,0,.469h5.634a.235.235,0,0,0,0-.469" transform="translate(-17.102 -11.589)"/>
        <path id="Path_8581" data-name="Path 8581" d="M105.283,82.205h.938a.234.234,0,0,0,.234-.234v-5.63a.235.235,0,0,0-.234-.235h-.938a.235.235,0,0,0-.235.235v5.63a.235.235,0,0,0,.235.234m.234-5.63h.469v5.161h-.469Z" transform="translate(-17.497 -12.676)"/>
        <path id="Path_8582" data-name="Path 8582" d="M105.527,95.34c1.026,0,1.829-1.258,1.829-2.862s-.8-2.862-1.829-2.862-1.829,1.257-1.829,2.862.8,2.862,1.829,2.862m0-5.255c.738,0,1.36,1.1,1.36,2.393s-.623,2.393-1.36,2.393-1.36-1.1-1.36-2.393.623-2.393,1.36-2.393" transform="translate(-17.272 -14.927)"/>
        <path id="Path_8583" data-name="Path 8583" d="M105.846,94.177a.234.234,0,0,0,.234-.234V91.878a.234.234,0,1,0-.468,0v2.064a.234.234,0,0,0,.234.234" transform="translate(-17.591 -15.264)"/>
        <path id="Path_8584" data-name="Path 8584" d="M100.783,51.8v49.815c-.618-.154-1.679-.525-1.787-1.068-.084-.486-.181-11.553-.206-23.682-.029-13.711.042-22.988.183-23.814l1.084-1.085a.235.235,0,0,0-.332-.332L98.6,52.758c-.115.114-.328.327-.28,23.788.022,11.178.111,23.567.216,24.09.2,1.009,2.007,1.414,2.388,1.489l.052.01a.245.245,0,0,0,.043,0,.235.235,0,0,0,.234-.235V51.8a.234.234,0,0,0-.234-.234.219.219,0,0,0-.094.02.234.234,0,0,0-.141.214" transform="translate(-16.375 -8.589)"/>
        <path id="Path_8585" data-name="Path 8585" d="M69.45,54.195a3.106,3.106,0,0,0-.432-.252,2.572,2.572,0,0,0-.439-.161,1.193,1.193,0,0,0-.2-.038.319.319,0,0,0-.267.09,1.6,1.6,0,0,0-.131.143q-.151.2-.323.477a5.6,5.6,0,0,0-.3.537.614.614,0,0,0-.06.183.191.191,0,0,0,.034.132.41.41,0,0,0,.138.117c.065.038.148.081.248.131-.075.336-.148.7-.221,1.085s-.138.765-.2,1.133-.106.708-.143,1.021-.062.562-.072.747a.7.7,0,0,0,.03.308.41.41,0,0,0,.188.2,1.631,1.631,0,0,0,.357.132c.118.028.237.056.357.086a.393.393,0,0,0,.259.015.275.275,0,0,0,.1-.165q.06-.33.146-.758t.2-.908q.109-.48.233-.988t.248-.994q.124-.488.248-.931t.229-.8a.381.381,0,0,0,.023-.3.742.742,0,0,0-.255-.24" transform="translate(-11.175 -8.951)" fill="#fff"/>
        <path id="Path_8586" data-name="Path 8586" d="M74.378,54.011c-.061-.03-.134-.063-.219-.1s-.174-.069-.269-.1-.193-.063-.289-.09-.186-.048-.266-.063a1.606,1.606,0,0,0-.215-.027.424.424,0,0,0-.153.018.5.5,0,0,0-.136.072c-.045.033-.1.074-.157.124a7.154,7.154,0,0,0-1.235,1.324,7.08,7.08,0,0,0-.743,1.31,5.2,5.2,0,0,0-.358,1.175,4.819,4.819,0,0,0-.075.927,1.931,1.931,0,0,0,.078.514,1.321,1.321,0,0,0,.218.417,1.5,1.5,0,0,0,.379.338,2.789,2.789,0,0,0,.563.27,3.883,3.883,0,0,0,.608.143,2.363,2.363,0,0,0,.485.023,1.4,1.4,0,0,0,.378-.075,1.892,1.892,0,0,0,.308-.143,2.165,2.165,0,0,0,.432-.36,2.526,2.526,0,0,0,.379-.518,2.937,2.937,0,0,0,.263-.63,2.04,2.04,0,0,0,.075-.7,1.384,1.384,0,0,0-.046-.36.92.92,0,0,0-.157-.323,1.36,1.36,0,0,0-.3-.286,2.233,2.233,0,0,0-.484-.248,2.119,2.119,0,0,0-.383-.113,1.554,1.554,0,0,0-.405-.023,8.272,8.272,0,0,1,.8-1.039,9.356,9.356,0,0,1,1-.95q.188-.173.15-.285a.479.479,0,0,0-.224-.225m-1.554,3.543a.355.355,0,0,1,.206.39,1.782,1.782,0,0,1-.2.661,1.628,1.628,0,0,1-.468.615.469.469,0,0,1-.5.075c-.13-.055-.194-.188-.194-.4a2.735,2.735,0,0,1,.157-.8,1.479,1.479,0,0,1,.238-.278,1.246,1.246,0,0,1,.267-.191.818.818,0,0,1,.262-.091.48.48,0,0,1,.233.019" transform="translate(-11.703 -8.933)" fill="#fff"/>
        <path id="Path_8587" data-name="Path 8587" d="M92.786,175.3c-.105-.523-.193-12.911-.216-24.09-.048-23.461.166-23.674.28-23.788l1.125-1.126a.235.235,0,0,1,.333.332l-1.085,1.085c-.14.826-.212,10.1-.183,23.814.025,12.129.122,23.2.206,23.682.108.543,1.168.913,1.787,1.068V126.459a.234.234,0,0,1,.141-.214v-.489H63.787v51.7H95.173v-.671c-.381-.074-2.186-.479-2.388-1.489M68.938,133.313q.33-.022.57-.03a.588.588,0,0,1,.285.048.606.606,0,0,1,.21.192,1.737,1.737,0,0,1,.169.255,1.538,1.538,0,0,1,.117.256c.04.09.043.15.011.18a.443.443,0,0,1-.221.068c-.181.01-.389.028-.627.053s-.477.053-.718.083-.47.063-.69.1-.4.068-.548.1a1.977,1.977,0,0,1-.27.034.746.746,0,0,1-.177-.012.422.422,0,0,1-.123-.045.682.682,0,0,1-.105-.075,1.794,1.794,0,0,1-.15-.113c-.055-.045-.11-.092-.166-.143s-.108-.1-.161-.154-.1-.1-.139-.147a.651.651,0,0,1-.094-.12.455.455,0,0,1-.056-.138.234.234,0,0,1,.012-.139.329.329,0,0,1,.116-.135,10.723,10.723,0,0,0,.833-.687q.435-.394.848-.811t.773-.829q.36-.413.608-.754a3.255,3.255,0,0,0,.349-.574c.068-.155.068-.255,0-.3a.25.25,0,0,0-.233-.027,1.208,1.208,0,0,0-.315.154,3.362,3.362,0,0,0-.368.281c-.13.113-.258.229-.383.349a1.034,1.034,0,0,1-.315.158,1.425,1.425,0,0,1-.357.06,2.071,2.071,0,0,1-.372-.018,1.731,1.731,0,0,1-.353-.087.461.461,0,0,1-.162-.083.239.239,0,0,1-.083-.138.442.442,0,0,1,.018-.214,1.858,1.858,0,0,1,.136-.315,3.636,3.636,0,0,1,.885-1.01,2.613,2.613,0,0,1,1.148-.522,1.858,1.858,0,0,1,.7,0,2.292,2.292,0,0,1,.6.2,2.183,2.183,0,0,1,.807.7,1.626,1.626,0,0,1,.2.518,1.35,1.35,0,0,1,0,.491,1.987,1.987,0,0,1-.162.488,4.448,4.448,0,0,1-.282.5,5.281,5.281,0,0,1-.45.615q-.27.324-.589.646c-.213.215-.437.423-.673.623s-.468.383-.7.548a6.349,6.349,0,0,1,.638-.075m6.177-4.474a9.27,9.27,0,0,0-1,.949,8.448,8.448,0,0,0-.8,1.04,1.558,1.558,0,0,1,.406.023,2.092,2.092,0,0,1,.383.113,2.232,2.232,0,0,1,.484.248,1.345,1.345,0,0,1,.3.285.933.933,0,0,1,.158.323,1.421,1.421,0,0,1,.045.36,2.044,2.044,0,0,1-.075.7,2.936,2.936,0,0,1-.263.63,2.613,2.613,0,0,1-.379.518,2.213,2.213,0,0,1-.432.36,1.926,1.926,0,0,1-.308.143,1.4,1.4,0,0,1-.379.075,2.354,2.354,0,0,1-.484-.023,3.868,3.868,0,0,1-.608-.143,2.81,2.81,0,0,1-.563-.27,1.5,1.5,0,0,1-.379-.338,1.293,1.293,0,0,1-.218-.417,1.89,1.89,0,0,1-.079-.513,4.7,4.7,0,0,1,.075-.928,5.247,5.247,0,0,1,.357-1.174,7.108,7.108,0,0,1,.743-1.31,7.206,7.206,0,0,1,1.234-1.325c.06-.05.113-.091.158-.123a.523.523,0,0,1,.136-.072.424.424,0,0,1,.153-.018,1.69,1.69,0,0,1,.214.026c.08.015.169.037.267.064s.193.058.289.09.185.067.27.1.158.067.218.1a.483.483,0,0,1,.225.226q.038.113-.15.285" transform="translate(-10.624 -20.946)" fill="#2b98f0"/>
        <path id="Path_8588" data-name="Path 8588" d="M74.7,133.16a1.293,1.293,0,0,0-.267.192,1.5,1.5,0,0,0-.236.278,2.714,2.714,0,0,0-.158.8q0,.315.2.4a.467.467,0,0,0,.5-.075,1.618,1.618,0,0,0,.469-.616,1.779,1.779,0,0,0,.2-.66.354.354,0,0,0-.207-.39.477.477,0,0,0-.233-.019.82.82,0,0,0-.263.09" transform="translate(-12.332 -22.163)" fill="#2b98f0"/>
        <path id="Path_8589" data-name="Path 8589" d="M102.474,141.473a.235.235,0,0,1,.235-.235h5.54V125.756h-6.8v.489a.234.234,0,0,1,.328.214v40.965a.229.229,0,0,1,.188-.1h5.418a.235.235,0,0,1,0,.469h-5.418a.228.228,0,0,1-.188-.1v8.874a.234.234,0,0,1-.234.234.243.243,0,0,1-.043,0l-.052-.01v.67h6.8V141.707h-5.54a.235.235,0,0,1-.235-.234m1.975,5.442a.234.234,0,0,1,.234-.234h.938a.234.234,0,0,1,.234.234v5.63a.235.235,0,0,1-.234.235h-.938a.235.235,0,0,1-.234-.235Zm.7,11.026c1.026,0,1.829,1.257,1.829,2.862s-.8,2.862-1.829,2.862-1.829-1.258-1.829-2.862.8-2.862,1.829-2.862" transform="translate(-16.897 -20.946)" fill="#2b98f0"/>
        <rect id="Rectangle_2134" data-name="Rectangle 2134" width="0.469" height="5.161" transform="translate(88.02 126.203)" fill="#2b98f0"/>
        <path id="Path_8590" data-name="Path 8590" d="M105.62,169.721c.738,0,1.361-1.1,1.361-2.393s-.623-2.393-1.361-2.393-1.36,1.1-1.36,2.393.623,2.393,1.36,2.393m-.234-3.331a.235.235,0,1,1,.469,0v2.064a.235.235,0,0,1-.469,0Z" transform="translate(-17.366 -27.472)" fill="#2b98f0"/>
        <path id="Path_8591" data-name="Path 8591" d="M63.458,177.831h38.658a.234.234,0,0,0,.235-.234v-52.17a.235.235,0,0,0-.235-.235H63.458a.235.235,0,0,0-.234.235V177.6a.234.234,0,0,0,.234.234m38.752-36.453a.234.234,0,0,1-.234.234h-.094v35.75H63.693v-51.7h38.189v15.483h.094a.234.234,0,0,1,.234.234" transform="translate(-10.531 -20.852)"/>
        <path id="Path_8592" data-name="Path 8592" d="M102.028,176.1h5.417a.235.235,0,1,0,0-.469h-5.417a.23.23,0,0,0-.188.1V176a.23.23,0,0,0,.188.1" transform="translate(-16.963 -29.253)"/>
        <path id="Path_8593" data-name="Path 8593" d="M108.547,144.332h-5.634a.235.235,0,1,0,0,.469h5.634a.235.235,0,0,0,0-.469" transform="translate(-17.102 -24.04)"/>
        <path id="Path_8594" data-name="Path 8594" d="M105.283,156.961h.938a.235.235,0,0,0,.234-.235V151.1a.234.234,0,0,0-.234-.234h-.938a.234.234,0,0,0-.235.234v5.63a.235.235,0,0,0,.235.235m.234-5.631h.469v5.161h-.469Z" transform="translate(-17.497 -25.128)"/>
        <path id="Path_8595" data-name="Path 8595" d="M105.527,170.1c1.026,0,1.829-1.258,1.829-2.862s-.8-2.862-1.829-2.862-1.829,1.257-1.829,2.862.8,2.862,1.829,2.862m0-5.255c.738,0,1.36,1.1,1.36,2.393s-.623,2.393-1.36,2.393-1.36-1.1-1.36-2.393.623-2.393,1.36-2.393" transform="translate(-17.272 -27.378)"/>
        <path id="Path_8596" data-name="Path 8596" d="M105.846,168.932a.235.235,0,0,0,.234-.235v-2.064a.234.234,0,1,0-.468,0V168.7a.234.234,0,0,0,.234.235" transform="translate(-17.591 -27.716)"/>
        <path id="Path_8597" data-name="Path 8597" d="M100.783,126.553v49.815c-.618-.154-1.679-.525-1.787-1.068-.084-.486-.181-11.553-.206-23.682-.029-13.711.042-22.988.183-23.814l1.084-1.085a.235.235,0,0,0-.332-.332L98.6,127.513c-.115.114-.328.327-.28,23.788.022,11.179.111,23.567.216,24.09.2,1.009,2.007,1.414,2.388,1.489l.052.01a.245.245,0,0,0,.043,0,.234.234,0,0,0,.234-.235V126.553a.235.235,0,0,0-.469,0" transform="translate(-16.375 -21.04)"/>
        <path id="Path_8598" data-name="Path 8598" d="M70.122,132.67q.319-.323.589-.646a5.28,5.28,0,0,0,.45-.615,4.319,4.319,0,0,0,.282-.5,1.952,1.952,0,0,0,.162-.488,1.354,1.354,0,0,0,0-.492,1.606,1.606,0,0,0-.2-.518,2.132,2.132,0,0,0-.327-.372,2.1,2.1,0,0,0-.481-.33,2.292,2.292,0,0,0-.6-.2,1.853,1.853,0,0,0-.694,0,2.6,2.6,0,0,0-1.148.522,3.625,3.625,0,0,0-.886,1.01,1.843,1.843,0,0,0-.135.315.441.441,0,0,0-.019.213.235.235,0,0,0,.083.139.457.457,0,0,0,.161.083,1.73,1.73,0,0,0,.353.087,2.069,2.069,0,0,0,.372.018,1.42,1.42,0,0,0,.357-.06,1.035,1.035,0,0,0,.315-.158c.125-.12.253-.237.383-.349a3.571,3.571,0,0,1,.368-.282,1.231,1.231,0,0,1,.315-.153.253.253,0,0,1,.233.026c.065.046.064.146,0,.3a3.256,3.256,0,0,1-.349.574q-.248.341-.608.754t-.773.829q-.413.416-.848.811a10.576,10.576,0,0,1-.833.687.329.329,0,0,0-.116.135.241.241,0,0,0-.012.139.437.437,0,0,0,.057.138.649.649,0,0,0,.093.12c.041.045.087.094.139.147s.107.1.162.154.11.1.165.143.105.083.15.113a.683.683,0,0,0,.105.075.419.419,0,0,0,.124.045.739.739,0,0,0,.176.012,2.148,2.148,0,0,0,.271-.034q.218-.045.548-.1t.691-.1q.36-.045.717-.083t.627-.053a.451.451,0,0,0,.222-.068c.033-.03.028-.09-.012-.18a1.6,1.6,0,0,0-.116-.256,1.881,1.881,0,0,0-.169-.255.6.6,0,0,0-.21-.192.58.58,0,0,0-.286-.048q-.24.008-.57.03a6.407,6.407,0,0,0-.638.075q.345-.248.7-.548t.672-.623" transform="translate(-11.077 -21.399)" fill="#fff"/>
        <path id="Path_8599" data-name="Path 8599" d="M76.467,128.767q-.09-.045-.218-.1c-.085-.035-.175-.069-.27-.1s-.192-.063-.289-.09-.186-.049-.266-.064a1.708,1.708,0,0,0-.214-.026.429.429,0,0,0-.154.018.506.506,0,0,0-.135.072c-.045.033-.1.073-.158.123a7.241,7.241,0,0,0-1.235,1.325,7.15,7.15,0,0,0-.743,1.31,5.247,5.247,0,0,0-.357,1.174,4.7,4.7,0,0,0-.075.928,1.9,1.9,0,0,0,.078.514,1.3,1.3,0,0,0,.218.417,1.514,1.514,0,0,0,.378.338,2.818,2.818,0,0,0,.563.27,3.86,3.86,0,0,0,.608.143,2.357,2.357,0,0,0,.484.023,1.4,1.4,0,0,0,.379-.075,1.97,1.97,0,0,0,.308-.143,2.21,2.21,0,0,0,.431-.36,2.613,2.613,0,0,0,.379-.518,2.936,2.936,0,0,0,.263-.63,2.042,2.042,0,0,0,.076-.7,1.421,1.421,0,0,0-.045-.36.939.939,0,0,0-.158-.323,1.342,1.342,0,0,0-.3-.286,2.232,2.232,0,0,0-.484-.248,2.12,2.12,0,0,0-.383-.113,1.552,1.552,0,0,0-.405-.023,8.512,8.512,0,0,1,.8-1.04,9.192,9.192,0,0,1,1-.949q.188-.173.15-.285a.481.481,0,0,0-.226-.225m-1.554,3.543a.355.355,0,0,1,.207.39,1.8,1.8,0,0,1-.2.661,1.629,1.629,0,0,1-.469.615.467.467,0,0,1-.5.075q-.2-.083-.2-.4a2.741,2.741,0,0,1,.158-.8,1.507,1.507,0,0,1,.237-.278,1.326,1.326,0,0,1,.267-.192.819.819,0,0,1,.263-.09.476.476,0,0,1,.233.019" transform="translate(-12.051 -21.384)" fill="#fff"/>
        <path id="Path_8600" data-name="Path 8600" d="M95.173,37.03c-.381-.074-2.186-.48-2.388-1.489-.105-.525-.194-6.678-.216-12.08-.047-11.451.174-11.671.28-11.777l1.126-1.126a.235.235,0,1,1,.332.332l-1.094,1.094c-.135.538-.2,5.11-.173,11.736.026,5.831.122,11.312.206,11.73.108.542,1.168.913,1.787,1.068V10.724a.236.236,0,0,1,.141-.215v-.488H63.787V37.7H95.173ZM70.47,13.1a9.274,9.274,0,0,0-1,.95,8.385,8.385,0,0,0-.8,1.04,1.558,1.558,0,0,1,.406.022,2.094,2.094,0,0,1,.383.113,2.232,2.232,0,0,1,.484.248,1.345,1.345,0,0,1,.3.285.933.933,0,0,1,.158.323,1.416,1.416,0,0,1,.045.36,2.044,2.044,0,0,1-.075.7,2.935,2.935,0,0,1-.263.63,2.638,2.638,0,0,1-.379.518,2.213,2.213,0,0,1-.432.36,2,2,0,0,1-.308.143,1.429,1.429,0,0,1-.379.075,2.415,2.415,0,0,1-.484-.023,3.964,3.964,0,0,1-.608-.143,2.856,2.856,0,0,1-.563-.27,1.5,1.5,0,0,1-.379-.338,1.3,1.3,0,0,1-.218-.416,1.9,1.9,0,0,1-.079-.515,4.693,4.693,0,0,1,.075-.927,5.247,5.247,0,0,1,.357-1.174,7.108,7.108,0,0,1,.743-1.31,7.206,7.206,0,0,1,1.234-1.325c.06-.05.113-.092.158-.124a.559.559,0,0,1,.135-.072.444.444,0,0,1,.153-.018,1.686,1.686,0,0,1,.214.026c.08.015.169.037.267.063s.193.058.289.09.185.068.27.1.158.068.218.1a.483.483,0,0,1,.225.226c.025.074-.025.17-.15.284" transform="translate(-10.624 -1.669)" fill="#2b98f0"/>
        <path id="Path_8601" data-name="Path 8601" d="M69.124,17.425a1.3,1.3,0,0,0-.267.192,1.5,1.5,0,0,0-.236.278,2.709,2.709,0,0,0-.158.8q0,.315.2.4a.469.469,0,0,0,.5-.075,1.618,1.618,0,0,0,.469-.616,1.779,1.779,0,0,0,.2-.66.356.356,0,0,0-.207-.391.477.477,0,0,0-.233-.018.82.82,0,0,0-.263.09" transform="translate(-11.403 -2.886)" fill="#2b98f0"/>
        <path id="Path_8602" data-name="Path 8602" d="M101.54,10.489a.234.234,0,0,1,.234.234V36.808a.235.235,0,0,1-.234.235.245.245,0,0,1-.043,0l-.052-.01V37.7h6.8V10.02h-6.8v.489a.232.232,0,0,1,.094-.02m2.909,5.113a.234.234,0,0,1,.234-.234h.938a.234.234,0,0,1,.234.234v5.631a.234.234,0,0,1-.234.234h-.938a.234.234,0,0,1-.234-.234Zm.7,11.026c1.026,0,1.829,1.257,1.829,2.862s-.8,2.862-1.829,2.862-1.829-1.258-1.829-2.862.8-2.862,1.829-2.862" transform="translate(-16.897 -1.669)" fill="#2b98f0"/>
        <path id="Path_8603" data-name="Path 8603" d="M105.62,35.3c.738,0,1.361-1.1,1.361-2.393s-.623-2.393-1.361-2.393-1.36,1.1-1.36,2.393.623,2.393,1.36,2.393m-.234-3.331a.235.235,0,0,1,.469,0v2.064a.235.235,0,0,1-.469,0Z" transform="translate(-17.366 -5.082)" fill="#2b98f0"/>
        <rect id="Rectangle_2135" data-name="Rectangle 2135" width="0.469" height="5.161" transform="translate(88.02 14.168)" fill="#2b98f0"/>
        <path id="Path_8604" data-name="Path 8604" d="M63.458,38.076h38.659a.235.235,0,0,0,.234-.235V9.692a.235.235,0,0,0-.234-.235H63.458a.235.235,0,0,0-.234.235V37.841a.235.235,0,0,0,.234.235m.235-28.149h38.189v27.68H63.693Z" transform="translate(-10.531 -1.575)"/>
        <path id="Path_8605" data-name="Path 8605" d="M105.283,22.536h.938a.234.234,0,0,0,.234-.234v-5.63a.235.235,0,0,0-.234-.235h-.938a.235.235,0,0,0-.235.235V22.3a.235.235,0,0,0,.235.234m.234-5.63h.469v5.161h-.469Z" transform="translate(-17.497 -2.738)"/>
        <path id="Path_8606" data-name="Path 8606" d="M105.527,35.671c1.026,0,1.829-1.258,1.829-2.862s-.8-2.862-1.829-2.862S103.7,31.2,103.7,32.809s.8,2.862,1.829,2.862m0-5.255c.738,0,1.36,1.1,1.36,2.393s-.623,2.393-1.36,2.393-1.36-1.1-1.36-2.393.623-2.393,1.36-2.393" transform="translate(-17.272 -4.988)"/>
        <path id="Path_8607" data-name="Path 8607" d="M105.846,34.508a.235.235,0,0,0,.234-.235V32.209a.234.234,0,1,0-.468,0v2.064a.234.234,0,0,0,.234.235" transform="translate(-17.591 -5.326)"/>
        <path id="Path_8608" data-name="Path 8608" d="M101.018,37.137a.234.234,0,0,0,.234-.234V10.818a.235.235,0,0,0-.234-.235.238.238,0,0,0-.094.02.235.235,0,0,0-.141.215V36.611c-.618-.155-1.679-.526-1.787-1.068-.083-.418-.18-5.9-.206-11.73-.029-6.625.038-11.2.173-11.736l1.094-1.094a.235.235,0,0,0-.332-.332L98.6,11.777c-.106.107-.327.327-.28,11.779.022,5.4.111,11.554.216,12.079.2,1.008,2.008,1.414,2.388,1.489l.053.009a.228.228,0,0,0,.042,0" transform="translate(-16.375 -1.763)"/>
        <path id="Path_8609" data-name="Path 8609" d="M70.892,13.031c-.061-.03-.133-.063-.218-.1s-.175-.069-.27-.1-.192-.063-.289-.09-.186-.048-.266-.063a1.58,1.58,0,0,0-.214-.027.429.429,0,0,0-.154.018.531.531,0,0,0-.135.072c-.045.033-.1.074-.158.124A7.076,7.076,0,0,0,67.21,15.5a5.24,5.24,0,0,0-.357,1.175,4.688,4.688,0,0,0-.075.927,1.9,1.9,0,0,0,.078.514,1.3,1.3,0,0,0,.218.417,1.513,1.513,0,0,0,.378.338,2.819,2.819,0,0,0,.563.27,3.861,3.861,0,0,0,.608.143,2.357,2.357,0,0,0,.484.023,1.4,1.4,0,0,0,.379-.075,1.892,1.892,0,0,0,.308-.143,2.188,2.188,0,0,0,.432-.36,2.589,2.589,0,0,0,.379-.518,2.935,2.935,0,0,0,.263-.63,2.042,2.042,0,0,0,.076-.7,1.384,1.384,0,0,0-.046-.36.922.922,0,0,0-.158-.323,1.36,1.36,0,0,0-.3-.286,2.232,2.232,0,0,0-.484-.248,2.081,2.081,0,0,0-.383-.113,1.551,1.551,0,0,0-.405-.023,8.359,8.359,0,0,1,.8-1.039,9.2,9.2,0,0,1,1-.95q.188-.173.15-.285a.482.482,0,0,0-.225-.225m-1.554,3.543a.355.355,0,0,1,.207.39,1.8,1.8,0,0,1-.2.661,1.629,1.629,0,0,1-.469.615.468.468,0,0,1-.5.076q-.2-.084-.2-.4a2.741,2.741,0,0,1,.158-.8,1.506,1.506,0,0,1,.237-.278,1.289,1.289,0,0,1,.267-.191.843.843,0,0,1,.263-.091.487.487,0,0,1,.233.019" transform="translate(-11.122 -2.107)" fill="#fff"/>
        <path id="Path_8610" data-name="Path 8610" d="M208.909,102.655v-51a.234.234,0,0,1,.234-.234v-.469H190.458a.235.235,0,0,1-.234-.235H189.2v51.936Z" transform="translate(-31.514 -8.448)" fill="#2b98f0"/>
        <path id="Path_8611" data-name="Path 8611" d="M187.337,75.318c-.331,0-.61.408-.61.892s.279.891.61.891.61-.408.61-.891-.279-.892-.61-.892" transform="translate(-31.102 -12.545)" fill="#2b98f0"/>
        <path id="Path_8612" data-name="Path 8612" d="M187.337,84.325c-.331,0-.61.408-.61.892s.279.891.61.891.61-.408.61-.891-.279-.892-.61-.892" transform="translate(-31.102 -14.045)" fill="#2b98f0"/>
        <path id="Path_8613" data-name="Path 8613" d="M187.337,80.047c-.331,0-.61.408-.61.892s.279.891.61.891.61-.408.61-.891-.279-.892-.61-.892" transform="translate(-31.102 -13.333)" fill="#2b98f0"/>
        <path id="Path_8614" data-name="Path 8614" d="M213.362,51.7v51h6.568V66.952H214.39a.235.235,0,0,1,0-.469h5.541V51h-6.8v.469a.234.234,0,0,1,.234.234m2.769,20.455a.234.234,0,0,1,.234-.234h.938a.234.234,0,0,1,.234.234v5.63a.235.235,0,0,1-.234.235h-.938a.234.234,0,0,1-.234-.235Zm.7,11.026c1.026,0,1.829,1.257,1.829,2.862s-.8,2.861-1.829,2.861S215,87.651,215,86.047s.8-2.862,1.829-2.862m-3.19,9.383h5.417a.235.235,0,1,1,0,.469h-5.417a.235.235,0,0,1,0-.469" transform="translate(-35.499 -8.495)" fill="#2b98f0"/>
        <rect id="Rectangle_2136" data-name="Rectangle 2136" width="0.469" height="5.161" transform="translate(181.1 63.899)" fill="#2b98f0"/>
        <path id="Path_8615" data-name="Path 8615" d="M217.3,94.965c.738,0,1.361-1.1,1.361-2.393s-.623-2.393-1.361-2.393-1.36,1.1-1.36,2.393.623,2.393,1.36,2.393m-.234-3.331a.235.235,0,0,1,.469,0V93.7a.235.235,0,0,1-.469,0Z" transform="translate(-35.968 -15.02)" fill="#2b98f0"/>
        <path id="Path_8616" data-name="Path 8616" d="M190.458,50.906h25.487V66.388h.094a.235.235,0,1,1,0,.469h-.094v35.749h-6.567v.141a.235.235,0,1,1-.469,0v-.141H189.2v.469h26.977a.234.234,0,0,0,.234-.234V50.672a.235.235,0,0,0-.234-.235H190.458a.235.235,0,0,0,0,.469" transform="translate(-31.514 -8.401)"/>
        <path id="Path_8617" data-name="Path 8617" d="M213.7,101.344h5.417a.235.235,0,1,0,0-.469H213.7a.235.235,0,0,0,0,.469" transform="translate(-35.555 -16.802)"/>
        <path id="Path_8618" data-name="Path 8618" d="M214.361,69.811a.234.234,0,0,0,.234.234h5.635a.235.235,0,0,0,0-.469H214.6a.235.235,0,0,0-.234.235" transform="translate(-35.704 -11.589)"/>
        <path id="Path_8619" data-name="Path 8619" d="M216.965,82.205h.938a.234.234,0,0,0,.234-.234v-5.63a.235.235,0,0,0-.234-.235h-.938a.235.235,0,0,0-.234.235v5.63a.234.234,0,0,0,.234.234m.235-5.63h.469v5.161H217.2Z" transform="translate(-36.099 -12.676)"/>
        <path id="Path_8620" data-name="Path 8620" d="M179.14,56.857a1.867,1.867,0,0,0-.188.445,2.672,2.672,0,0,0-.093.5,1.32,1.32,0,0,0,0,.237,1.053,1.053,0,0,0,.032.177.516.516,0,0,0,.049.128.265.265,0,0,0,.057.075c.053.043.108.025.166-.053a1,1,0,0,0,.134-.419,2.829,2.829,0,0,0,.027-.286,1.834,1.834,0,0,0-.009-.279,1.407,1.407,0,0,0-.057-.269,1.12,1.12,0,0,0-.118-.256" transform="translate(-29.79 -9.47)" fill="#2b98f0"/>
        <path id="Path_8621" data-name="Path 8621" d="M178.947,54.94a2.877,2.877,0,0,0,.336-.936,1.174,1.174,0,0,0-.168-.778,2.57,2.57,0,0,0-.193.483,2.473,2.473,0,0,0-.088.468,1.746,1.746,0,0,0,.01.42,1.154,1.154,0,0,0,.1.343" transform="translate(-29.786 -8.865)" fill="#2b98f0"/>
        <path id="Path_8622" data-name="Path 8622" d="M217.209,95.34c1.026,0,1.829-1.258,1.829-2.862s-.8-2.862-1.829-2.862-1.829,1.257-1.829,2.862.8,2.862,1.829,2.862m0-5.255c.738,0,1.36,1.1,1.36,2.393s-.623,2.393-1.36,2.393-1.36-1.1-1.36-2.393.623-2.393,1.36-2.393" transform="translate(-35.874 -14.927)"/>
        <path id="Path_8623" data-name="Path 8623" d="M217.528,94.177a.234.234,0,0,0,.234-.234V91.878a.234.234,0,1,0-.468,0v2.064a.234.234,0,0,0,.234.234" transform="translate(-36.193 -15.264)"/>
        <path id="Path_8624" data-name="Path 8624" d="M174.924,50.622a.348.348,0,0,1,.018-.04.348.348,0,0,0-.018.04" transform="translate(-29.136 -8.425)"/>
        <path id="Path_8625" data-name="Path 8625" d="M174.976,50.532a.256.256,0,0,1,.035-.032.251.251,0,0,0-.035.032" transform="translate(-29.144 -8.411)"/>
        <path id="Path_8626" data-name="Path 8626" d="M187.243,74.755a1.4,1.4,0,0,0,0,2.721,1.1,1.1,0,0,0,.985-.808,1.666,1.666,0,0,0,0-1.1,1.1,1.1,0,0,0-.985-.808m0,2.252c-.331,0-.61-.408-.61-.891s.279-.892.61-.892.61.408.61.892-.279.891-.61.891" transform="translate(-31.008 -12.451)"/>
        <path id="Path_8627" data-name="Path 8627" d="M187.243,79.484a1.4,1.4,0,0,0,0,2.721,1.1,1.1,0,0,0,.985-.808,1.666,1.666,0,0,0,0-1.1,1.1,1.1,0,0,0-.985-.808m0,2.252c-.331,0-.61-.408-.61-.892s.279-.891.61-.891.61.408.61.891-.279.892-.61.892" transform="translate(-31.008 -13.239)"/>
        <path id="Path_8628" data-name="Path 8628" d="M187.243,83.762a1.4,1.4,0,0,0,0,2.721,1.1,1.1,0,0,0,.985-.808,1.666,1.666,0,0,0,0-1.1,1.1,1.1,0,0,0-.985-.808m0,2.252c-.331,0-.61-.408-.61-.892s.279-.891.61-.891.61.408.61.891-.279.892-.61.892" transform="translate(-31.008 -13.952)"/>
        <path id="Path_8629" data-name="Path 8629" d="M213.081,103.17a.235.235,0,0,0,.235-.234V51.8a.235.235,0,1,0-.469,0v51.138a.234.234,0,0,0,.234.234" transform="translate(-35.452 -8.588)"/>
        <path id="Path_8630" data-name="Path 8630" d="M177.459,52.777a1,1,0,0,0-.023-.307.966.966,0,0,0-.124-.248,2.152,2.152,0,0,0-.194-.263,1.025,1.025,0,0,0-.188-.17.259.259,0,0,0-.08-.041.053.053,0,0,0-.055.013.174.174,0,0,0-.039.075c-.012.036-.023.083-.037.144q-.038.205-.077.483c-.027.186-.048.367-.063.544a1.36,1.36,0,0,0,0,.188.456.456,0,0,0,.027.134.465.465,0,0,0,.066.121c.03.039.067.085.111.138q.007.511.025,1.1t.041,1.155c.016.375.032.722.05,1.041s.033.573.048.762a1.871,1.871,0,0,0,.044.314.548.548,0,0,0,.093.2.65.65,0,0,0,.153.139c.048.029.1.06.148.093s.088.043.1.018a.45.45,0,0,0,.022-.167c-.007-.224-.014-.483-.022-.773s-.013-.6-.017-.925-.009-.662-.012-1.005,0-.681-.006-1.013,0-.647,0-.948,0-.57.007-.809" transform="translate(-29.411 -8.619)"/>
        <path id="Path_8631" data-name="Path 8631" d="M178.2,55.952a2.674,2.674,0,0,0-.075.429,2.966,2.966,0,0,0-.006.481,2.76,2.76,0,0,0,.2.882,1.359,1.359,0,0,0,.444.6.734.734,0,0,0,.291.143.413.413,0,0,0,.273-.029.6.6,0,0,0,.234-.225,1.5,1.5,0,0,0,.176-.461,4.466,4.466,0,0,0,.082-.563,2.707,2.707,0,0,0-.016-.573,2.645,2.645,0,0,0-.152-.593,2.881,2.881,0,0,0-.323-.607,4.58,4.58,0,0,0,.263-.5,2.1,2.1,0,0,0,.157-.553,2.726,2.726,0,0,0,.041-.553,3.148,3.148,0,0,0-.063-.548,3.372,3.372,0,0,0-.15-.521,3.724,3.724,0,0,0-.221-.477,1.493,1.493,0,0,0-.4-.491.26.26,0,0,0-.37.053,1.79,1.79,0,0,0-.343.585,3.511,3.511,0,0,0-.191.842,3.053,3.053,0,0,0,.052,1.048,2.808,2.808,0,0,0,.388.907q-.086.165-.161.342a2.652,2.652,0,0,0-.128.378m.983.857c0,.094-.013.19-.027.286a1.01,1.01,0,0,1-.134.42c-.058.077-.113.094-.166.052a.272.272,0,0,1-.057-.074.573.573,0,0,1-.05-.128,1.156,1.156,0,0,1-.031-.176,1.329,1.329,0,0,1,0-.238,2.683,2.683,0,0,1,.092-.5A1.9,1.9,0,0,1,179,56a1.109,1.109,0,0,1,.118.257,1.394,1.394,0,0,1,.057.269,1.823,1.823,0,0,1,.009.278m-.485-2.88a2.54,2.54,0,0,1,.088-.468,2.576,2.576,0,0,1,.194-.483,1.185,1.185,0,0,1,.168.778,2.9,2.9,0,0,1-.337.936,1.178,1.178,0,0,1-.1-.343,1.745,1.745,0,0,1-.01-.42" transform="translate(-29.653 -8.618)"/>
        <path id="Path_8632" data-name="Path 8632" d="M187.652,129.878a3.545,3.545,0,0,0-.623.481,1.787,1.787,0,0,0-.348.461.7.7,0,0,0-.083.413.551.551,0,0,0,.176.333,3.448,3.448,0,0,0,1.108-.93q.244-.4-.229-.758" transform="translate(-31.079 -21.633)" fill="#2b98f0"/>
        <path id="Path_8633" data-name="Path 8633" d="M186.776,133.445a2.734,2.734,0,0,0-.6.443,1.9,1.9,0,0,0-.367.5.543.543,0,0,0-.061.233.43.43,0,0,0,.034.173.342.342,0,0,0,.093.124.413.413,0,0,0,.128.071.605.605,0,0,0,.44-.056,1.149,1.149,0,0,0,.454-.417,1.566,1.566,0,0,0,.142-.282.683.683,0,0,0,.049-.274.574.574,0,0,0-.074-.263.828.828,0,0,0-.237-.248" transform="translate(-30.938 -22.227)" fill="#2b98f0"/>
        <path id="Path_8634" data-name="Path 8634" d="M204.468,175.3c-.105-.523-.193-12.912-.216-24.09-.047-23.462.166-23.674.28-23.789l1.126-1.125a.235.235,0,0,1,.332.332l-1.085,1.084c-.14.826-.212,10.1-.183,23.815.025,12.129.122,23.2.206,23.682.108.543,1.168.913,1.787,1.067V126.459a.235.235,0,0,1,.141-.215v-.489H175.469v51.7h31.386v-.67c-.381-.075-2.186-.48-2.388-1.489M180.62,133.313c.22-.016.41-.025.57-.031a.589.589,0,0,1,.286.049.6.6,0,0,1,.21.191,1.862,1.862,0,0,1,.168.256,1.565,1.565,0,0,1,.117.255c.04.09.043.15.012.18a.451.451,0,0,1-.222.068q-.27.015-.627.053c-.238.025-.477.053-.717.083s-.471.063-.691.1-.4.068-.548.1a2.1,2.1,0,0,1-.27.033.7.7,0,0,1-.176-.012.4.4,0,0,1-.124-.044.682.682,0,0,1-.1-.075c-.045-.03-.1-.068-.15-.113s-.11-.093-.165-.143-.109-.1-.162-.153-.1-.1-.139-.147a.678.678,0,0,1-.093-.12.442.442,0,0,1-.057-.139.238.238,0,0,1,.012-.138.329.329,0,0,1,.116-.135,10.584,10.584,0,0,0,.833-.688q.435-.394.848-.81t.773-.83q.36-.413.608-.754a3.226,3.226,0,0,0,.349-.574c.068-.155.069-.255,0-.3a.253.253,0,0,0-.233-.026,1.2,1.2,0,0,0-.315.153,3.455,3.455,0,0,0-.368.282q-.2.169-.383.349a1.034,1.034,0,0,1-.315.158,1.419,1.419,0,0,1-.357.06,2.071,2.071,0,0,1-.372-.019,1.731,1.731,0,0,1-.353-.086.468.468,0,0,1-.162-.083.241.241,0,0,1-.083-.139.444.444,0,0,1,.019-.214,1.843,1.843,0,0,1,.135-.315,3.622,3.622,0,0,1,.886-1.009,2.591,2.591,0,0,1,1.148-.522,1.855,1.855,0,0,1,.694,0,2.293,2.293,0,0,1,.6.2,2.188,2.188,0,0,1,.808.7,1.607,1.607,0,0,1,.2.518,1.355,1.355,0,0,1,0,.492,1.948,1.948,0,0,1-.162.488,4.379,4.379,0,0,1-.282.5,5.285,5.285,0,0,1-.45.616q-.27.323-.589.646t-.672.623q-.353.3-.7.548a6.142,6.142,0,0,1,.638-.075m7.041-3.307a1.375,1.375,0,0,1-.248.544,2.037,2.037,0,0,1-.548.548,8.495,8.495,0,0,1-.8.5,2.472,2.472,0,0,1,.672.585,1.14,1.14,0,0,1,.236.578,1.1,1.1,0,0,1-.108.563,2.747,2.747,0,0,1-.357.556,1.958,1.958,0,0,1-.571.458,2.327,2.327,0,0,1-.66.229,2.786,2.786,0,0,1-.709.038,3.219,3.219,0,0,1-.709-.131,1.943,1.943,0,0,1-.988-.575,1.149,1.149,0,0,1-.288-.859,1.255,1.255,0,0,1,.138-.473,1.87,1.87,0,0,1,.3-.424,3.143,3.143,0,0,1,.428-.375c.16-.118.328-.232.5-.342a1.841,1.841,0,0,1-.763-.878,1.22,1.22,0,0,1,.139-1.028,2.836,2.836,0,0,1,.709-.833,3.778,3.778,0,0,1,1.033-.586,1.55,1.55,0,0,1,.964-.064,2.551,2.551,0,0,1,.913.469,2.67,2.67,0,0,1,.443.462,1.542,1.542,0,0,1,.252.507,1.178,1.178,0,0,1,.018.537" transform="translate(-29.226 -20.946)" fill="#2b98f0"/>
        <path id="Path_8635" data-name="Path 8635" d="M214.156,141.473a.235.235,0,0,1,.235-.235h5.54V125.756h-6.8v.489a.234.234,0,0,1,.328.214v40.965a.23.23,0,0,1,.188-.1h5.418a.235.235,0,0,1,0,.469h-5.418a.229.229,0,0,1-.187-.1v8.874a.234.234,0,0,1-.234.234.243.243,0,0,1-.042,0l-.052-.01v.67h6.8V141.707h-5.54a.235.235,0,0,1-.235-.234m1.975,5.442a.234.234,0,0,1,.234-.234h.938a.234.234,0,0,1,.234.234v5.63a.235.235,0,0,1-.234.235h-.938a.235.235,0,0,1-.234-.235Zm.7,11.026c1.026,0,1.829,1.257,1.829,2.862s-.8,2.862-1.829,2.862S215,162.406,215,160.8s.8-2.862,1.829-2.862" transform="translate(-35.499 -20.946)" fill="#2b98f0"/>
        <rect id="Rectangle_2137" data-name="Rectangle 2137" width="0.469" height="5.161" transform="translate(181.1 126.203)" fill="#2b98f0"/>
        <path id="Path_8636" data-name="Path 8636" d="M217.3,169.721c.738,0,1.361-1.1,1.361-2.393s-.623-2.393-1.361-2.393-1.36,1.1-1.36,2.393.623,2.393,1.36,2.393m-.234-3.331a.235.235,0,1,1,.469,0v2.064a.235.235,0,0,1-.469,0Z" transform="translate(-35.968 -27.472)" fill="#2b98f0"/>
        <path id="Path_8637" data-name="Path 8637" d="M175.14,177.831H213.8a.234.234,0,0,0,.235-.234v-52.17a.235.235,0,0,0-.235-.235H175.14a.235.235,0,0,0-.234.235V177.6a.234.234,0,0,0,.234.234m38.752-36.453a.234.234,0,0,1-.234.234h-.094v35.75H175.375v-51.7h38.189v15.483h.094a.234.234,0,0,1,.234.234" transform="translate(-29.133 -20.852)"/>
        <path id="Path_8638" data-name="Path 8638" d="M213.71,176.1h5.417a.235.235,0,1,0,0-.469H213.71a.232.232,0,0,0-.188.1V176a.232.232,0,0,0,.188.1" transform="translate(-35.565 -29.253)"/>
        <path id="Path_8639" data-name="Path 8639" d="M220.23,144.332H214.6a.235.235,0,1,0,0,.469h5.634a.235.235,0,0,0,0-.469" transform="translate(-35.704 -24.04)"/>
        <path id="Path_8640" data-name="Path 8640" d="M216.965,156.961h.938a.235.235,0,0,0,.234-.235V151.1a.234.234,0,0,0-.234-.234h-.938a.234.234,0,0,0-.234.234v5.63a.235.235,0,0,0,.234.235m.235-5.631h.469v5.161H217.2Z" transform="translate(-36.099 -25.128)"/>
        <path id="Path_8641" data-name="Path 8641" d="M217.209,170.1c1.026,0,1.829-1.258,1.829-2.862s-.8-2.862-1.829-2.862-1.829,1.257-1.829,2.862.8,2.862,1.829,2.862m0-5.255c.738,0,1.36,1.1,1.36,2.393s-.623,2.393-1.36,2.393-1.36-1.1-1.36-2.393.623-2.393,1.36-2.393" transform="translate(-35.874 -27.378)"/>
        <path id="Path_8642" data-name="Path 8642" d="M217.528,168.932a.234.234,0,0,0,.234-.235v-2.064a.234.234,0,1,0-.468,0V168.7a.235.235,0,0,0,.234.235" transform="translate(-36.193 -27.716)"/>
        <path id="Path_8643" data-name="Path 8643" d="M212.465,126.553v49.815c-.618-.154-1.679-.525-1.787-1.068-.085-.486-.181-11.553-.207-23.682-.028-13.711.043-22.988.183-23.814l1.084-1.085a.235.235,0,0,0-.332-.332l-1.126,1.126c-.114.114-.327.327-.279,23.788.023,11.179.111,23.567.215,24.09.2,1.009,2.008,1.414,2.389,1.489l.052.01a.243.243,0,0,0,.042,0,.234.234,0,0,0,.235-.235V126.553a.235.235,0,0,0-.235-.234.231.231,0,0,0-.093.02.234.234,0,0,0-.141.214" transform="translate(-34.977 -21.04)"/>
        <path id="Path_8644" data-name="Path 8644" d="M181.8,132.67q.319-.323.589-.646a5.293,5.293,0,0,0,.451-.615,4.436,4.436,0,0,0,.281-.5,1.953,1.953,0,0,0,.162-.488,1.355,1.355,0,0,0,0-.492,1.607,1.607,0,0,0-.2-.518,2.133,2.133,0,0,0-.327-.372,2.09,2.09,0,0,0-.48-.33,2.308,2.308,0,0,0-.6-.2,1.853,1.853,0,0,0-.694,0,2.6,2.6,0,0,0-1.148.522,3.639,3.639,0,0,0-.886,1.01,1.843,1.843,0,0,0-.135.315.441.441,0,0,0-.019.213.239.239,0,0,0,.083.139.464.464,0,0,0,.161.083,1.725,1.725,0,0,0,.353.087,2.06,2.06,0,0,0,.371.018,1.42,1.42,0,0,0,.357-.06,1.035,1.035,0,0,0,.315-.158c.125-.12.253-.237.383-.349a3.571,3.571,0,0,1,.368-.282,1.23,1.23,0,0,1,.315-.153.255.255,0,0,1,.233.026c.065.046.063.146,0,.3a3.257,3.257,0,0,1-.349.574q-.248.341-.608.754t-.773.829q-.413.416-.848.811a10.573,10.573,0,0,1-.833.687.335.335,0,0,0-.116.135.248.248,0,0,0-.012.139.458.458,0,0,0,.057.138.62.62,0,0,0,.094.12c.04.045.086.094.138.147s.107.1.162.154.11.1.165.143.105.083.15.113a.683.683,0,0,0,.1.075.428.428,0,0,0,.124.045.743.743,0,0,0,.177.012,2.138,2.138,0,0,0,.27-.034q.218-.045.548-.1c.22-.035.451-.068.691-.1s.479-.058.717-.083.447-.043.627-.053a.447.447,0,0,0,.222-.068c.033-.03.028-.09-.012-.18a1.528,1.528,0,0,0-.116-.256,1.806,1.806,0,0,0-.169-.255.6.6,0,0,0-.21-.192.578.578,0,0,0-.285-.048q-.241.008-.571.03a6.407,6.407,0,0,0-.638.075q.346-.248.7-.548t.672-.623" transform="translate(-29.679 -21.399)" fill="#fff"/>
        <path id="Path_8645" data-name="Path 8645" d="M188.812,129.408a2.616,2.616,0,0,0-.443-.462,2.527,2.527,0,0,0-.912-.469,1.549,1.549,0,0,0-.964.063,3.778,3.778,0,0,0-1.033.586,2.829,2.829,0,0,0-.709.833,1.22,1.22,0,0,0-.139,1.028,1.839,1.839,0,0,0,.763.878c-.175.11-.343.224-.5.342a3.091,3.091,0,0,0-.428.376,1.865,1.865,0,0,0-.3.423,1.255,1.255,0,0,0-.138.473,1.149,1.149,0,0,0,.288.859,1.948,1.948,0,0,0,.988.574,3.219,3.219,0,0,0,.709.131,2.787,2.787,0,0,0,.709-.037,2.353,2.353,0,0,0,.66-.229,1.962,1.962,0,0,0,.571-.458,2.766,2.766,0,0,0,.357-.555,1.1,1.1,0,0,0,.108-.563,1.134,1.134,0,0,0-.236-.578,2.487,2.487,0,0,0-.672-.586,8.677,8.677,0,0,0,.8-.5,2.028,2.028,0,0,0,.548-.548,1.37,1.37,0,0,0,.248-.544,1.178,1.178,0,0,0-.018-.537,1.538,1.538,0,0,0-.252-.506m-2.064,3.986a1.572,1.572,0,0,1-.143.282,1.144,1.144,0,0,1-.454.417.6.6,0,0,1-.439.056.4.4,0,0,1-.128-.071.334.334,0,0,1-.094-.124.416.416,0,0,1-.033-.173.553.553,0,0,1,.06-.233,1.941,1.941,0,0,1,.368-.5,2.732,2.732,0,0,1,.6-.443.8.8,0,0,1,.236.248.566.566,0,0,1,.076.263.729.729,0,0,1-.049.274m.7-3a3.463,3.463,0,0,1-1.107.931.553.553,0,0,1-.177-.334.712.712,0,0,1,.083-.413,1.8,1.8,0,0,1,.349-.462,3.585,3.585,0,0,1,.623-.481q.474.361.229.758" transform="translate(-30.647 -21.391)" fill="#fff"/>
        <path id="Path_8646" data-name="Path 8646" d="M187.652,55.123a3.545,3.545,0,0,0-.623.481,1.787,1.787,0,0,0-.348.461.7.7,0,0,0-.083.413.551.551,0,0,0,.176.333,3.448,3.448,0,0,0,1.108-.93q.244-.4-.229-.758" transform="translate(-31.079 -9.181)" fill="#2b98f0"/>
        <path id="Path_8647" data-name="Path 8647" d="M186.776,58.69a2.735,2.735,0,0,0-.6.443,1.9,1.9,0,0,0-.367.5.543.543,0,0,0-.061.233.43.43,0,0,0,.034.173.342.342,0,0,0,.093.124.412.412,0,0,0,.128.071.605.605,0,0,0,.44-.056,1.149,1.149,0,0,0,.454-.417,1.565,1.565,0,0,0,.142-.282.683.683,0,0,0,.049-.274.574.574,0,0,0-.074-.263.828.828,0,0,0-.237-.248" transform="translate(-30.938 -9.776)" fill="#2b98f0"/>
        <path id="Path_8648" data-name="Path 8648" d="M214.156,66.717a.235.235,0,0,1,.235-.235h5.54V51h-6.8v.489a.234.234,0,0,1,.328.214V92.669a.23.23,0,0,1,.188-.1h5.418a.235.235,0,0,1,0,.469h-5.418a.229.229,0,0,1-.187-.1v8.874a.234.234,0,0,1-.234.234.243.243,0,0,1-.042,0l-.052-.01v.67h6.8V66.951h-5.54a.235.235,0,0,1-.235-.234m1.975,5.442a.235.235,0,0,1,.234-.235h.938a.235.235,0,0,1,.234.235v5.63a.234.234,0,0,1-.234.234h-.938a.234.234,0,0,1-.234-.234Zm.7,11.025c1.026,0,1.829,1.257,1.829,2.862s-.8,2.862-1.829,2.862S215,87.65,215,86.046s.8-2.862,1.829-2.862" transform="translate(-35.499 -8.495)" fill="#2b98f0"/>
        <rect id="Rectangle_2138" data-name="Rectangle 2138" width="0.469" height="5.161" transform="translate(181.1 63.899)" fill="#2b98f0"/>
        <path id="Path_8649" data-name="Path 8649" d="M217.3,94.965c.738,0,1.361-1.1,1.361-2.393s-.623-2.393-1.361-2.393-1.36,1.1-1.36,2.393.623,2.393,1.36,2.393m-.234-3.331a.235.235,0,0,1,.469,0V93.7a.235.235,0,0,1-.469,0Z" transform="translate(-35.968 -15.02)" fill="#2b98f0"/>
        <path id="Path_8650" data-name="Path 8650" d="M175.14,103.076H213.8a.235.235,0,0,0,.235-.234V50.672a.235.235,0,0,0-.235-.235H175.14a.235.235,0,0,0-.234.235v52.17a.234.234,0,0,0,.234.234m38.752-36.453a.234.234,0,0,1-.234.234h-.094v35.75H175.375v-51.7h38.189V66.389h.094a.234.234,0,0,1,.234.234" transform="translate(-29.133 -8.401)"/>
        <path id="Path_8651" data-name="Path 8651" d="M213.71,101.344h5.417a.235.235,0,1,0,0-.469H213.71a.232.232,0,0,0-.188.1v.268a.232.232,0,0,0,.188.1" transform="translate(-35.565 -16.802)"/>
        <path id="Path_8652" data-name="Path 8652" d="M220.23,69.577H214.6a.235.235,0,1,0,0,.469h5.634a.235.235,0,0,0,0-.469" transform="translate(-35.704 -11.589)"/>
        <path id="Path_8653" data-name="Path 8653" d="M216.965,82.205h.938a.234.234,0,0,0,.234-.234v-5.63a.234.234,0,0,0-.234-.234h-.938a.234.234,0,0,0-.234.234v5.63a.234.234,0,0,0,.234.234m.235-5.63h.469v5.161H217.2Z" transform="translate(-36.099 -12.677)"/>
        <path id="Path_8654" data-name="Path 8654" d="M217.209,95.34c1.026,0,1.829-1.258,1.829-2.862s-.8-2.862-1.829-2.862-1.829,1.257-1.829,2.862.8,2.862,1.829,2.862m0-5.255c.738,0,1.36,1.1,1.36,2.393s-.623,2.393-1.36,2.393-1.36-1.1-1.36-2.393.623-2.393,1.36-2.393" transform="translate(-35.874 -14.927)"/>
        <path id="Path_8655" data-name="Path 8655" d="M217.528,94.177a.234.234,0,0,0,.234-.234V91.878a.234.234,0,1,0-.468,0v2.064a.234.234,0,0,0,.234.234" transform="translate(-36.193 -15.264)"/>
        <path id="Path_8656" data-name="Path 8656" d="M212.465,51.8v49.815c-.618-.154-1.679-.525-1.787-1.068-.085-.486-.181-11.553-.207-23.682-.028-13.711.043-22.988.183-23.814l1.084-1.085a.235.235,0,1,0-.332-.332l-1.126,1.126c-.114.114-.327.327-.279,23.788.023,11.179.111,23.567.215,24.09.2,1.009,2.008,1.414,2.389,1.489l.052.01a.243.243,0,0,0,.042,0,.235.235,0,0,0,.235-.235V51.8a.235.235,0,0,0-.235-.234.231.231,0,0,0-.093.02.234.234,0,0,0-.141.214" transform="translate(-34.977 -8.589)"/>
        <path id="Path_8657" data-name="Path 8657" d="M181.8,57.915q.319-.323.589-.646a5.294,5.294,0,0,0,.451-.615,4.439,4.439,0,0,0,.281-.5,1.953,1.953,0,0,0,.162-.488,1.355,1.355,0,0,0,0-.492,1.607,1.607,0,0,0-.2-.518,2.133,2.133,0,0,0-.327-.372,2.091,2.091,0,0,0-.48-.33,2.309,2.309,0,0,0-.6-.2,1.853,1.853,0,0,0-.694,0,2.6,2.6,0,0,0-1.148.522,3.639,3.639,0,0,0-.886,1.01,1.843,1.843,0,0,0-.135.315.441.441,0,0,0-.019.213.239.239,0,0,0,.083.139.464.464,0,0,0,.161.083,1.726,1.726,0,0,0,.353.087,2.06,2.06,0,0,0,.371.018,1.42,1.42,0,0,0,.357-.06,1.035,1.035,0,0,0,.315-.158c.125-.12.253-.237.383-.349a3.571,3.571,0,0,1,.368-.282,1.23,1.23,0,0,1,.315-.153.255.255,0,0,1,.233.026c.065.046.063.146,0,.3a3.256,3.256,0,0,1-.349.574q-.248.341-.608.754t-.773.829q-.413.416-.848.811a10.569,10.569,0,0,1-.833.687.335.335,0,0,0-.116.135.248.248,0,0,0-.012.139.458.458,0,0,0,.057.138.619.619,0,0,0,.094.12c.04.045.086.094.138.147s.107.1.162.154.11.1.165.143.105.083.15.113a.683.683,0,0,0,.1.075.428.428,0,0,0,.124.045.742.742,0,0,0,.177.012,2.137,2.137,0,0,0,.27-.034q.218-.045.548-.1c.22-.035.451-.068.691-.1s.479-.058.717-.083.447-.043.627-.053a.447.447,0,0,0,.222-.068c.033-.03.028-.09-.012-.18a1.528,1.528,0,0,0-.116-.256,1.8,1.8,0,0,0-.169-.255.6.6,0,0,0-.21-.192.578.578,0,0,0-.285-.048q-.241.007-.571.03a6.4,6.4,0,0,0-.638.075q.346-.248.7-.548t.672-.623" transform="translate(-29.679 -8.948)"/>
        <path id="Path_8658" data-name="Path 8658" d="M188.812,54.653a2.616,2.616,0,0,0-.443-.462,2.528,2.528,0,0,0-.912-.469,1.549,1.549,0,0,0-.964.063,3.778,3.778,0,0,0-1.033.586,2.829,2.829,0,0,0-.709.833,1.22,1.22,0,0,0-.139,1.028,1.839,1.839,0,0,0,.763.878c-.175.11-.343.224-.5.342a3.092,3.092,0,0,0-.428.376,1.865,1.865,0,0,0-.3.423,1.255,1.255,0,0,0-.138.473,1.149,1.149,0,0,0,.288.859,1.948,1.948,0,0,0,.988.574,3.218,3.218,0,0,0,.709.131,2.787,2.787,0,0,0,.709-.037,2.353,2.353,0,0,0,.66-.229,1.961,1.961,0,0,0,.571-.458,2.766,2.766,0,0,0,.357-.555,1.1,1.1,0,0,0,.108-.563,1.134,1.134,0,0,0-.236-.578,2.487,2.487,0,0,0-.672-.586,8.674,8.674,0,0,0,.8-.5,2.027,2.027,0,0,0,.548-.548,1.37,1.37,0,0,0,.248-.544,1.178,1.178,0,0,0-.018-.537,1.538,1.538,0,0,0-.252-.506m-2.064,3.986a1.571,1.571,0,0,1-.143.282,1.144,1.144,0,0,1-.454.417.6.6,0,0,1-.439.056.4.4,0,0,1-.128-.071.335.335,0,0,1-.094-.124.416.416,0,0,1-.033-.173.553.553,0,0,1,.06-.233,1.94,1.94,0,0,1,.368-.5,2.733,2.733,0,0,1,.6-.443.8.8,0,0,1,.236.248.566.566,0,0,1,.076.263.729.729,0,0,1-.049.274m.7-3a3.463,3.463,0,0,1-1.107.931.552.552,0,0,1-.177-.334.712.712,0,0,1,.083-.413,1.8,1.8,0,0,1,.349-.462,3.584,3.584,0,0,1,.623-.481q.474.361.229.758" transform="translate(-30.647 -8.94)"/>
        <path id="Path_8659" data-name="Path 8659" d="M181.2,17.71a2.773,2.773,0,0,0-.6.443,1.927,1.927,0,0,0-.368.5.553.553,0,0,0-.06.233.417.417,0,0,0,.034.173.333.333,0,0,0,.093.124.4.4,0,0,0,.128.071.6.6,0,0,0,.439-.056,1.144,1.144,0,0,0,.454-.417,1.57,1.57,0,0,0,.143-.282.715.715,0,0,0,.049-.274.565.565,0,0,0-.075-.263.817.817,0,0,0-.237-.248" transform="translate(-30.01 -2.95)" fill="#2b98f0"/>
        <path id="Path_8660" data-name="Path 8660" d="M206.855,37.03c-.381-.075-2.186-.48-2.388-1.489-.105-.525-.193-6.678-.216-12.079-.047-11.452.174-11.672.28-11.779l1.126-1.126a.235.235,0,0,1,.332.332l-1.094,1.1c-.135.538-.2,5.11-.173,11.736.026,5.831.123,11.311.206,11.729.108.543,1.168.913,1.788,1.068V10.724a.234.234,0,0,1,.14-.215V10.02H175.469V37.7h31.386Zm-23.84-22.76a1.375,1.375,0,0,1-.248.544,2.036,2.036,0,0,1-.548.548,8.5,8.5,0,0,1-.8.5,2.472,2.472,0,0,1,.672.585,1.149,1.149,0,0,1,.237.578,1.1,1.1,0,0,1-.109.563,2.747,2.747,0,0,1-.357.556,1.958,1.958,0,0,1-.571.458,2.327,2.327,0,0,1-.66.229,2.787,2.787,0,0,1-.709.038,3.219,3.219,0,0,1-.709-.132,1.942,1.942,0,0,1-.988-.574,1.149,1.149,0,0,1-.288-.859,1.271,1.271,0,0,1,.138-.473,1.87,1.87,0,0,1,.3-.424,3.142,3.142,0,0,1,.428-.375c.16-.118.328-.232.5-.342a1.837,1.837,0,0,1-.762-.878,1.216,1.216,0,0,1,.138-1.028,2.839,2.839,0,0,1,.709-.833,3.8,3.8,0,0,1,1.033-.585,1.55,1.55,0,0,1,.964-.064,2.541,2.541,0,0,1,.912.469,2.645,2.645,0,0,1,.443.462,1.542,1.542,0,0,1,.252.507,1.178,1.178,0,0,1,.018.537" transform="translate(-29.226 -1.669)" fill="#2b98f0"/>
        <path id="Path_8661" data-name="Path 8661" d="M182.077,14.143a3.584,3.584,0,0,0-.623.48,1.8,1.8,0,0,0-.348.462.71.71,0,0,0-.083.413.555.555,0,0,0,.177.333,3.448,3.448,0,0,0,1.108-.93q.244-.4-.229-.758" transform="translate(-30.151 -2.356)" fill="#2b98f0"/>
        <path id="Path_8662" data-name="Path 8662" d="M213.222,10.489a.234.234,0,0,1,.234.234V36.808a.235.235,0,0,1-.234.235.244.244,0,0,1-.042,0l-.052-.01V37.7h6.8V10.02h-6.8v.489a.235.235,0,0,1,.094-.02m2.909,5.113a.234.234,0,0,1,.234-.234h.938a.234.234,0,0,1,.234.234v5.631a.234.234,0,0,1-.234.234h-.938a.234.234,0,0,1-.234-.234Zm.7,11.026c1.026,0,1.829,1.257,1.829,2.862s-.8,2.862-1.829,2.862S215,31.094,215,29.49s.8-2.862,1.829-2.862" transform="translate(-35.499 -1.669)" fill="#2b98f0"/>
        <path id="Path_8663" data-name="Path 8663" d="M217.3,35.3c.738,0,1.361-1.1,1.361-2.393s-.623-2.393-1.361-2.393-1.36,1.1-1.36,2.393.623,2.393,1.36,2.393m-.234-3.331a.235.235,0,0,1,.469,0v2.064a.235.235,0,0,1-.469,0Z" transform="translate(-35.968 -5.082)" fill="#2b98f0"/>
        <rect id="Rectangle_2139" data-name="Rectangle 2139" width="0.469" height="5.161" transform="translate(181.1 14.168)" fill="#2b98f0"/>
        <path id="Path_8664" data-name="Path 8664" d="M175.141,38.076H213.8a.235.235,0,0,0,.234-.235V9.692a.235.235,0,0,0-.234-.235H175.141a.235.235,0,0,0-.235.235V37.841a.235.235,0,0,0,.235.235m.234-28.149h38.189v27.68H175.375Z" transform="translate(-29.133 -1.575)"/>
        <path id="Path_8665" data-name="Path 8665" d="M216.965,22.536h.938a.234.234,0,0,0,.234-.234v-5.63a.235.235,0,0,0-.234-.235h-.938a.235.235,0,0,0-.234.235V22.3a.234.234,0,0,0,.234.234m.235-5.63h.469v5.161H217.2Z" transform="translate(-36.099 -2.738)"/>
        <path id="Path_8666" data-name="Path 8666" d="M217.209,35.671c1.026,0,1.829-1.258,1.829-2.862s-.8-2.862-1.829-2.862-1.829,1.257-1.829,2.862.8,2.862,1.829,2.862m0-5.255c.738,0,1.36,1.1,1.36,2.393s-.623,2.393-1.36,2.393-1.36-1.1-1.36-2.393.623-2.393,1.36-2.393" transform="translate(-35.874 -4.988)"/>
        <path id="Path_8667" data-name="Path 8667" d="M217.528,34.508a.234.234,0,0,0,.234-.235V32.209a.234.234,0,1,0-.468,0v2.064a.235.235,0,0,0,.234.235" transform="translate(-36.193 -5.326)"/>
        <path id="Path_8668" data-name="Path 8668" d="M212.7,37.137a.234.234,0,0,0,.234-.234V10.818a.235.235,0,0,0-.234-.235.238.238,0,0,0-.094.02.234.234,0,0,0-.14.215V36.611c-.619-.155-1.679-.526-1.788-1.068-.083-.418-.18-5.9-.206-11.73-.029-6.625.038-11.2.173-11.736l1.094-1.094a.235.235,0,0,0-.332-.332l-1.126,1.126c-.106.107-.327.327-.28,11.779.023,5.4.111,11.554.216,12.079.2,1.008,2.008,1.414,2.388,1.489l.053.009a.228.228,0,0,0,.042,0" transform="translate(-34.977 -1.763)"/>
        <path id="Path_8669" data-name="Path 8669" d="M183.237,13.673a2.645,2.645,0,0,0-.443-.462,2.541,2.541,0,0,0-.912-.469,1.549,1.549,0,0,0-.964.063,3.8,3.8,0,0,0-1.033.586,2.828,2.828,0,0,0-.709.833,1.216,1.216,0,0,0-.138,1.028,1.832,1.832,0,0,0,.762.878q-.264.165-.5.342a3.142,3.142,0,0,0-.428.375,1.888,1.888,0,0,0-.3.424,1.27,1.27,0,0,0-.138.473,1.149,1.149,0,0,0,.288.859,1.948,1.948,0,0,0,.988.574,3.219,3.219,0,0,0,.709.132,2.865,2.865,0,0,0,.709-.038,2.353,2.353,0,0,0,.66-.229,1.948,1.948,0,0,0,.571-.458,2.765,2.765,0,0,0,.357-.555,1.106,1.106,0,0,0,.109-.563,1.143,1.143,0,0,0-.237-.578,2.487,2.487,0,0,0-.672-.586,8.676,8.676,0,0,0,.8-.5,2.036,2.036,0,0,0,.548-.548,1.38,1.38,0,0,0,.248-.544,1.181,1.181,0,0,0-.018-.538,1.538,1.538,0,0,0-.252-.506m-2.064,3.985a1.57,1.57,0,0,1-.143.282,1.144,1.144,0,0,1-.454.417.6.6,0,0,1-.439.056.4.4,0,0,1-.128-.071.335.335,0,0,1-.094-.124.417.417,0,0,1-.033-.173.553.553,0,0,1,.06-.233,1.927,1.927,0,0,1,.368-.5,2.733,2.733,0,0,1,.6-.443.8.8,0,0,1,.236.248.576.576,0,0,1,.076.263.731.731,0,0,1-.049.274m.7-3a3.462,3.462,0,0,1-1.107.931.552.552,0,0,1-.177-.334.712.712,0,0,1,.083-.413,1.794,1.794,0,0,1,.349-.462,3.584,3.584,0,0,1,.623-.481q.474.36.229.758" transform="translate(-29.718 -2.114)" fill="#fff"/>
        <path id="Path_8670" data-name="Path 8670" d="M239.979,55.246a.328.328,0,0,0-.27.03,1.061,1.061,0,0,0-.285.233,2.136,2.136,0,0,0-.267.372,3.187,3.187,0,0,0-.214.447,2.909,2.909,0,0,0-.1.413,1.457,1.457,0,0,0-.019.368.674.674,0,0,0,.083.281.322.322,0,0,0,.2.154.57.57,0,0,0,.6-.18,6.145,6.145,0,0,0,.315-.758,3.819,3.819,0,0,0,.162-.642,1.2,1.2,0,0,0-.008-.469.34.34,0,0,0-.192-.248" transform="translate(-39.778 -9.199)" fill="#2b98f0"/>
        <path id="Path_8671" data-name="Path 8671" d="M259.408,100.542c-.1-.523-.193-12.912-.216-24.09-.047-23.462.166-23.675.28-23.788l1.126-1.126a.235.235,0,1,1,.332.332l-1.085,1.084c-.14.826-.212,10.1-.183,23.814.026,12.13.122,23.2.206,23.683.108.542,1.168.913,1.788,1.067V51.7a.234.234,0,0,1,.14-.215V51H230.409v51.7H261.8v-.671c-.38-.075-2.186-.48-2.388-1.489M235.755,54.279q-.105.353-.229.8t-.248.931c-.083.326-.165.657-.248,1s-.16.667-.233.987-.138.623-.2.908-.107.538-.147.758a.272.272,0,0,1-.1.165.4.4,0,0,1-.258-.015c-.121-.031-.239-.059-.357-.087a1.631,1.631,0,0,1-.357-.132.41.41,0,0,1-.188-.2.7.7,0,0,1-.03-.308q.015-.278.071-.747t.143-1.021c.057-.368.123-.746.2-1.133s.146-.749.221-1.085c-.1-.05-.183-.093-.248-.131a.41.41,0,0,1-.138-.117.185.185,0,0,1-.034-.131.618.618,0,0,1,.06-.184,5.6,5.6,0,0,1,.3-.537q.173-.274.323-.477a1.489,1.489,0,0,1,.131-.143.319.319,0,0,1,.267-.09,1.193,1.193,0,0,1,.2.038,2.573,2.573,0,0,1,.439.161,3.192,3.192,0,0,1,.432.252.742.742,0,0,1,.255.24.383.383,0,0,1-.023.3m4.5,2.06a6.176,6.176,0,0,1-.627,1.25,8.187,8.187,0,0,1-.934,1.186,5.709,5.709,0,0,1-1.141.938,1.214,1.214,0,0,1-.289.136.5.5,0,0,1-.327-.045c-.12-.051-.227-.094-.319-.132a1.912,1.912,0,0,1-.312-.169.939.939,0,0,1-.1-.086.225.225,0,0,1-.057-.087.123.123,0,0,1,.007-.093.316.316,0,0,1,.106-.109,8.02,8.02,0,0,0,1.351-1.344,2.02,2.02,0,0,0-.211-.034.911.911,0,0,1-.21-.048,2.042,2.042,0,0,1-.859-.466,1.4,1.4,0,0,1-.372-.72,2.387,2.387,0,0,1-.071-.815,3.084,3.084,0,0,1,.18-.822,3.347,3.347,0,0,1,.379-.739,2.38,2.38,0,0,1,.518-.559,2.545,2.545,0,0,1,.345-.2,1.647,1.647,0,0,1,.436-.135,1.927,1.927,0,0,1,.54-.007,2.718,2.718,0,0,1,.668.177,5.024,5.024,0,0,1,.638.33,2.121,2.121,0,0,1,.469.387,1.556,1.556,0,0,1,.293.473,1.866,1.866,0,0,1,.116.6,3.255,3.255,0,0,1-.218,1.138" transform="translate(-38.377 -8.495)" fill="#2b98f0"/>
        <path id="Path_8672" data-name="Path 8672" d="M269.1,66.717a.235.235,0,0,1,.235-.235h5.54V51h-6.8v.489a.231.231,0,0,1,.093-.02.235.235,0,0,1,.235.234V92.669a.23.23,0,0,1,.188-.1H274a.235.235,0,1,1,0,.469h-5.417a.229.229,0,0,1-.187-.1v8.874a.234.234,0,0,1-.235.234.241.241,0,0,1-.042,0l-.052-.01v.67h6.8V66.951h-5.54a.235.235,0,0,1-.235-.234m1.975,5.442a.235.235,0,0,1,.234-.235h.938a.235.235,0,0,1,.234.235v5.63a.234.234,0,0,1-.234.234h-.938a.234.234,0,0,1-.234-.234Zm.7,11.025c1.026,0,1.829,1.257,1.829,2.862s-.8,2.862-1.829,2.862-1.829-1.258-1.829-2.862.8-2.862,1.829-2.862" transform="translate(-44.65 -8.495)" fill="#2b98f0"/>
        <rect id="Rectangle_2140" data-name="Rectangle 2140" width="0.469" height="5.161" transform="translate(226.89 63.899)" fill="#2b98f0"/>
        <path id="Path_8673" data-name="Path 8673" d="M272.243,94.965c.738,0,1.361-1.1,1.361-2.393s-.623-2.393-1.361-2.393-1.36,1.1-1.36,2.393.623,2.393,1.36,2.393m-.234-3.331a.235.235,0,0,1,.469,0V93.7a.235.235,0,0,1-.469,0Z" transform="translate(-45.119 -15.02)" fill="#2b98f0"/>
        <path id="Path_8674" data-name="Path 8674" d="M230.081,103.076H268.74a.234.234,0,0,0,.234-.234V50.672a.235.235,0,0,0-.234-.235H230.081a.235.235,0,0,0-.234.235v52.17a.234.234,0,0,0,.234.234m38.752-36.453a.234.234,0,0,1-.234.234h-.094v35.75H230.316v-51.7h38.189V66.388h.094a.235.235,0,0,1,.234.235" transform="translate(-38.284 -8.401)"/>
        <path id="Path_8675" data-name="Path 8675" d="M268.651,101.344h5.417a.235.235,0,1,0,0-.469h-5.417a.23.23,0,0,0-.187.1v.268a.23.23,0,0,0,.188.1" transform="translate(-44.716 -16.802)"/>
        <path id="Path_8676" data-name="Path 8676" d="M275.17,69.577h-5.634a.235.235,0,1,0,0,.469h5.634a.235.235,0,0,0,0-.469" transform="translate(-44.855 -11.589)"/>
        <path id="Path_8677" data-name="Path 8677" d="M271.906,82.205h.938a.235.235,0,0,0,.235-.234v-5.63a.235.235,0,0,0-.235-.235h-.938a.235.235,0,0,0-.235.235v5.63a.235.235,0,0,0,.235.234m.234-5.63h.469v5.161h-.469Z" transform="translate(-45.25 -12.676)"/>
        <path id="Path_8678" data-name="Path 8678" d="M272.15,95.34c1.026,0,1.829-1.258,1.829-2.862s-.8-2.862-1.829-2.862-1.829,1.257-1.829,2.862.8,2.862,1.829,2.862m0-5.255c.738,0,1.36,1.1,1.36,2.393s-.623,2.393-1.36,2.393-1.36-1.1-1.36-2.393.623-2.393,1.36-2.393" transform="translate(-45.025 -14.927)"/>
        <path id="Path_8679" data-name="Path 8679" d="M272.469,94.177a.234.234,0,0,0,.234-.234V91.878a.234.234,0,1,0-.468,0v2.064a.234.234,0,0,0,.234.234" transform="translate(-45.344 -15.264)"/>
        <path id="Path_8680" data-name="Path 8680" d="M267.406,51.8v49.815c-.618-.154-1.679-.525-1.787-1.068-.084-.486-.181-11.553-.207-23.682-.028-13.711.043-22.988.183-23.814l1.084-1.085a.235.235,0,0,0-.332-.332l-1.126,1.126c-.114.114-.327.327-.279,23.788.022,11.178.111,23.567.215,24.09.2,1.009,2.008,1.414,2.389,1.489l.052.01a.244.244,0,0,0,.042,0,.235.235,0,0,0,.235-.235V51.8a.234.234,0,0,0-.235-.234.218.218,0,0,0-.093.02.234.234,0,0,0-.141.214" transform="translate(-44.128 -8.589)"/>
        <path id="Path_8681" data-name="Path 8681" d="M236.073,54.195a3.106,3.106,0,0,0-.432-.252,2.573,2.573,0,0,0-.439-.161,1.193,1.193,0,0,0-.2-.038.319.319,0,0,0-.267.09,1.489,1.489,0,0,0-.131.143c-.1.135-.208.294-.323.477a5.6,5.6,0,0,0-.3.537.614.614,0,0,0-.06.183.191.191,0,0,0,.034.132.41.41,0,0,0,.138.117c.065.038.148.081.248.131-.075.336-.148.7-.221,1.085s-.138.765-.2,1.133-.106.708-.143,1.021-.062.562-.072.747a.7.7,0,0,0,.03.308.41.41,0,0,0,.188.2,1.631,1.631,0,0,0,.357.132c.118.028.237.056.357.086a.393.393,0,0,0,.259.015.276.276,0,0,0,.1-.165c.04-.22.088-.473.147-.758s.123-.588.2-.908.15-.649.233-.988.165-.669.248-.994.166-.635.248-.931.159-.56.229-.8a.381.381,0,0,0,.023-.3.742.742,0,0,0-.255-.24" transform="translate(-38.928 -8.951)" fill="#fff"/>
        <path id="Path_8682" data-name="Path 8682" d="M241.153,54.576a2.141,2.141,0,0,0-.469-.387,5.025,5.025,0,0,0-.638-.33,2.727,2.727,0,0,0-.668-.177,1.927,1.927,0,0,0-.54.007,1.638,1.638,0,0,0-.436.135,2.546,2.546,0,0,0-.345.2,2.38,2.38,0,0,0-.518.559,3.347,3.347,0,0,0-.379.739,3.085,3.085,0,0,0-.181.822,2.386,2.386,0,0,0,.072.815,1.4,1.4,0,0,0,.372.72,2.042,2.042,0,0,0,.859.466.911.911,0,0,0,.21.048,2.04,2.04,0,0,1,.21.034,7.959,7.959,0,0,1-1.351,1.344.32.32,0,0,0-.105.109.123.123,0,0,0-.007.093.225.225,0,0,0,.057.087.939.939,0,0,0,.1.086,1.879,1.879,0,0,0,.312.169c.093.038.2.081.319.132a.5.5,0,0,0,.327.045,1.209,1.209,0,0,0,.288-.136,5.663,5.663,0,0,0,1.141-.938,8.193,8.193,0,0,0,.935-1.186,6.176,6.176,0,0,0,.627-1.25,3.255,3.255,0,0,0,.218-1.138,1.865,1.865,0,0,0-.117-.6,1.553,1.553,0,0,0-.293-.473M239.87,55.7a3.821,3.821,0,0,1-.162.642,6.2,6.2,0,0,1-.315.758.569.569,0,0,1-.6.18.324.324,0,0,1-.2-.154.675.675,0,0,1-.083-.282,1.453,1.453,0,0,1,.019-.368,2.911,2.911,0,0,1,.1-.413,3.188,3.188,0,0,1,.214-.447,2.181,2.181,0,0,1,.267-.372,1.061,1.061,0,0,1,.285-.233.328.328,0,0,1,.27-.03.34.34,0,0,1,.192.248,1.2,1.2,0,0,1,.008.469" transform="translate(-39.47 -8.939)" fill="#fff"/>
        <path id="Path_8683" data-name="Path 8683" d="M259.408,175.3c-.1-.523-.193-12.912-.215-24.09-.048-23.462.165-23.674.279-23.789l1.126-1.125a.235.235,0,1,1,.332.332l-1.084,1.084c-.14.826-.212,10.1-.183,23.815.026,12.129.122,23.2.207,23.682.108.543,1.168.913,1.787,1.067V126.459a.235.235,0,0,1,.141-.215v-.489H230.41v51.7H261.8v-.67c-.381-.075-2.187-.48-2.389-1.489m-17.414-44.2a6.177,6.177,0,0,1-.627,1.25,8.189,8.189,0,0,1-.934,1.186,5.744,5.744,0,0,1-1.141.938,1.208,1.208,0,0,1-.289.135.5.5,0,0,1-.327-.045l-.319-.132a1.913,1.913,0,0,1-.312-.169.94.94,0,0,1-.1-.086.226.226,0,0,1-.057-.087.125.125,0,0,1,.008-.094.322.322,0,0,1,.106-.108,8.021,8.021,0,0,0,1.351-1.344,2.019,2.019,0,0,0-.211-.034.911.911,0,0,1-.21-.048,2.042,2.042,0,0,1-.859-.466,1.4,1.4,0,0,1-.372-.72,2.386,2.386,0,0,1-.071-.815c0-.018,0-.034.006-.052-.008.018-.013.035-.021.052a4.378,4.378,0,0,1-.282.5,5.284,5.284,0,0,1-.45.616q-.271.323-.589.646c-.213.215-.437.423-.673.623s-.468.383-.7.548a6.126,6.126,0,0,1,.638-.075c.221-.016.41-.025.571-.031a.588.588,0,0,1,.285.049.6.6,0,0,1,.21.191,1.866,1.866,0,0,1,.169.256,1.565,1.565,0,0,1,.117.255c.04.09.043.15.011.18a.447.447,0,0,1-.222.068q-.27.015-.627.053c-.238.025-.476.053-.717.083s-.47.063-.69.1-.4.068-.548.1a2.1,2.1,0,0,1-.27.033.7.7,0,0,1-.177-.012.412.412,0,0,1-.124-.044.677.677,0,0,1-.1-.075,1.821,1.821,0,0,1-.151-.113q-.083-.068-.165-.143c-.055-.05-.108-.1-.161-.153s-.1-.1-.139-.147a.644.644,0,0,1-.094-.12.439.439,0,0,1-.056-.139.237.237,0,0,1,.011-.138.332.332,0,0,1,.117-.135q.4-.294.833-.688t.848-.81q.414-.418.773-.83t.608-.754a3.214,3.214,0,0,0,.348-.574q.1-.233,0-.3a.253.253,0,0,0-.233-.026,1.22,1.22,0,0,0-.316.153,3.457,3.457,0,0,0-.368.282q-.2.169-.383.349a1.034,1.034,0,0,1-.315.158,1.426,1.426,0,0,1-.357.06,2.071,2.071,0,0,1-.372-.019,1.731,1.731,0,0,1-.353-.086.461.461,0,0,1-.162-.083.241.241,0,0,1-.083-.139.442.442,0,0,1,.018-.214,1.843,1.843,0,0,1,.135-.315,3.649,3.649,0,0,1,.886-1.009,2.6,2.6,0,0,1,1.148-.522,1.855,1.855,0,0,1,.694,0,2.288,2.288,0,0,1,.6.2,2.194,2.194,0,0,1,.807.7,1.606,1.606,0,0,1,.2.518,1.349,1.349,0,0,1,.021.2c0-.013.008-.027.013-.041a3.384,3.384,0,0,1,.379-.739,2.38,2.38,0,0,1,.518-.559,2.547,2.547,0,0,1,.345-.2,1.647,1.647,0,0,1,.436-.135,1.928,1.928,0,0,1,.54-.008,2.718,2.718,0,0,1,.668.177,5.023,5.023,0,0,1,.638.33,2.121,2.121,0,0,1,.469.387,1.556,1.556,0,0,1,.293.473,1.866,1.866,0,0,1,.116.6,3.255,3.255,0,0,1-.218,1.138" transform="translate(-38.378 -20.946)" fill="#2b98f0"/>
        <path id="Path_8684" data-name="Path 8684" d="M242.068,130a.328.328,0,0,0-.27.03,1.061,1.061,0,0,0-.285.233,2.137,2.137,0,0,0-.267.372,3.187,3.187,0,0,0-.214.447,2.909,2.909,0,0,0-.1.413,1.419,1.419,0,0,0-.019.368.674.674,0,0,0,.083.281.322.322,0,0,0,.2.154.57.57,0,0,0,.6-.18,6.144,6.144,0,0,0,.315-.758,3.821,3.821,0,0,0,.162-.642,1.2,1.2,0,0,0-.008-.469.34.34,0,0,0-.192-.248" transform="translate(-40.126 -21.65)" fill="#2b98f0"/>
        <path id="Path_8685" data-name="Path 8685" d="M269.1,141.473a.235.235,0,0,1,.235-.235h5.54V125.756h-6.8v.489a.231.231,0,0,1,.093-.02.235.235,0,0,1,.235.234v40.965a.23.23,0,0,1,.188-.1H274a.235.235,0,1,1,0,.469h-5.417a.229.229,0,0,1-.187-.1v8.874a.234.234,0,0,1-.235.234.241.241,0,0,1-.042,0l-.052-.01v.67h6.8V141.707h-5.54a.235.235,0,0,1-.235-.234m1.975,5.442a.234.234,0,0,1,.234-.234h.938a.234.234,0,0,1,.234.234v5.63a.235.235,0,0,1-.234.235h-.938a.235.235,0,0,1-.234-.235Zm.7,11.026c1.026,0,1.829,1.257,1.829,2.862s-.8,2.862-1.829,2.862-1.829-1.258-1.829-2.862.8-2.862,1.829-2.862" transform="translate(-44.65 -20.946)" fill="#2b98f0"/>
        <rect id="Rectangle_2141" data-name="Rectangle 2141" width="0.469" height="5.161" transform="translate(226.89 126.203)" fill="#2b98f0"/>
        <path id="Path_8686" data-name="Path 8686" d="M272.243,169.721c.738,0,1.361-1.1,1.361-2.393s-.623-2.393-1.361-2.393-1.36,1.1-1.36,2.393.623,2.393,1.36,2.393m-.234-3.331a.235.235,0,1,1,.469,0v2.064a.235.235,0,0,1-.469,0Z" transform="translate(-45.119 -27.472)" fill="#2b98f0"/>
        <path id="Path_8687" data-name="Path 8687" d="M230.081,177.831H268.74a.234.234,0,0,0,.234-.234v-52.17a.235.235,0,0,0-.234-.235H230.081a.235.235,0,0,0-.234.235V177.6a.234.234,0,0,0,.234.234m38.752-36.453a.234.234,0,0,1-.234.234h-.094v35.75H230.316v-51.7h38.189v15.483h.094a.234.234,0,0,1,.234.234" transform="translate(-38.284 -20.852)"/>
        <path id="Path_8688" data-name="Path 8688" d="M268.651,176.1h5.417a.235.235,0,1,0,0-.469h-5.417a.23.23,0,0,0-.187.1V176a.23.23,0,0,0,.188.1" transform="translate(-44.716 -29.253)"/>
        <path id="Path_8689" data-name="Path 8689" d="M275.17,144.332h-5.634a.235.235,0,1,0,0,.469h5.634a.235.235,0,0,0,0-.469" transform="translate(-44.855 -24.04)"/>
        <path id="Path_8690" data-name="Path 8690" d="M271.906,156.961h.938a.235.235,0,0,0,.235-.235V151.1a.234.234,0,0,0-.235-.234h-.938a.234.234,0,0,0-.235.234v5.63a.235.235,0,0,0,.235.235m.234-5.631h.469v5.161h-.469Z" transform="translate(-45.25 -25.128)"/>
        <path id="Path_8691" data-name="Path 8691" d="M272.15,170.1c1.026,0,1.829-1.258,1.829-2.862s-.8-2.862-1.829-2.862-1.829,1.257-1.829,2.862.8,2.862,1.829,2.862m0-5.255c.738,0,1.36,1.1,1.36,2.393s-.623,2.393-1.36,2.393-1.36-1.1-1.36-2.393.623-2.393,1.36-2.393" transform="translate(-45.025 -27.378)"/>
        <path id="Path_8692" data-name="Path 8692" d="M272.469,168.932a.235.235,0,0,0,.234-.235v-2.064a.234.234,0,1,0-.468,0V168.7a.235.235,0,0,0,.234.235" transform="translate(-45.344 -27.716)"/>
        <path id="Path_8693" data-name="Path 8693" d="M267.406,126.553v49.815c-.618-.154-1.679-.525-1.787-1.068-.084-.486-.181-11.553-.207-23.682-.028-13.711.043-22.988.183-23.814l1.084-1.085a.235.235,0,0,0-.332-.332l-1.126,1.126c-.114.114-.327.327-.279,23.788.022,11.179.111,23.567.215,24.09.2,1.009,2.008,1.414,2.389,1.489l.052.01a.244.244,0,0,0,.042,0,.234.234,0,0,0,.235-.235V126.553a.235.235,0,0,0-.235-.234.231.231,0,0,0-.093.02.234.234,0,0,0-.141.214" transform="translate(-44.128 -21.04)"/>
        <path id="Path_8694" data-name="Path 8694" d="M238.227,129.93a1.606,1.606,0,0,0-.2-.518,2.195,2.195,0,0,0-.807-.7,2.31,2.31,0,0,0-.6-.2,1.855,1.855,0,0,0-.694,0,2.591,2.591,0,0,0-1.148.522,3.635,3.635,0,0,0-.886,1.009,1.843,1.843,0,0,0-.135.315.444.444,0,0,0-.019.214.238.238,0,0,0,.083.139.464.464,0,0,0,.161.083,1.726,1.726,0,0,0,.353.086,2.057,2.057,0,0,0,.371.019,1.419,1.419,0,0,0,.357-.06,1.034,1.034,0,0,0,.315-.158c.125-.12.253-.237.383-.349a3.46,3.46,0,0,1,.368-.282,1.2,1.2,0,0,1,.315-.153.253.253,0,0,1,.233.026c.066.045.064.145,0,.3a3.228,3.228,0,0,1-.349.574q-.248.343-.608.754t-.773.83q-.413.416-.848.81a10.587,10.587,0,0,1-.833.688.335.335,0,0,0-.116.135.238.238,0,0,0-.012.138.442.442,0,0,0,.057.139.677.677,0,0,0,.093.12c.041.045.087.094.139.147s.107.1.162.153.11.1.165.143.105.083.15.113a.746.746,0,0,0,.105.075.4.4,0,0,0,.124.044.7.7,0,0,0,.176.012,2.123,2.123,0,0,0,.271-.033q.218-.046.548-.1t.691-.1q.36-.045.717-.083t.627-.053a.447.447,0,0,0,.222-.068c.033-.03.028-.09-.012-.18a1.554,1.554,0,0,0-.116-.255,1.868,1.868,0,0,0-.169-.256.6.6,0,0,0-.21-.191.588.588,0,0,0-.285-.049c-.161.006-.351.015-.571.031a5.947,5.947,0,0,0-.638.075q.346-.249.7-.548t.672-.623q.319-.324.589-.646a5.283,5.283,0,0,0,.45-.616,4.321,4.321,0,0,0,.282-.5c.008-.017.013-.034.021-.052a3.067,3.067,0,0,1,.161-.729,1.464,1.464,0,0,0-.02-.2" transform="translate(-38.83 -21.399)" fill="#fff"/>
        <path id="Path_8695" data-name="Path 8695" d="M243.243,129.332a2.14,2.14,0,0,0-.469-.387,5.023,5.023,0,0,0-.638-.33,2.726,2.726,0,0,0-.668-.177,1.927,1.927,0,0,0-.54.008,1.637,1.637,0,0,0-.436.135,2.545,2.545,0,0,0-.345.2,2.383,2.383,0,0,0-.518.559,3.38,3.38,0,0,0-.378.739c0,.013-.009.027-.014.041a3.108,3.108,0,0,0-.161.729c0,.018,0,.034-.006.052a2.382,2.382,0,0,0,.072.814,1.4,1.4,0,0,0,.372.721,2.061,2.061,0,0,0,.859.466.911.911,0,0,0,.21.048,2.042,2.042,0,0,1,.21.034,7.989,7.989,0,0,1-1.351,1.344.326.326,0,0,0-.1.108.125.125,0,0,0-.008.094.226.226,0,0,0,.057.087.938.938,0,0,0,.1.086,1.878,1.878,0,0,0,.312.169l.319.131a.5.5,0,0,0,.327.045,1.172,1.172,0,0,0,.288-.135,5.663,5.663,0,0,0,1.141-.938,8.156,8.156,0,0,0,.935-1.187,6.15,6.15,0,0,0,.627-1.249,3.255,3.255,0,0,0,.218-1.138,1.861,1.861,0,0,0-.117-.6,1.553,1.553,0,0,0-.293-.473m-1.283,1.126a3.82,3.82,0,0,1-.162.642,6.2,6.2,0,0,1-.315.758.568.568,0,0,1-.6.18.324.324,0,0,1-.2-.154.678.678,0,0,1-.083-.282,1.453,1.453,0,0,1,.019-.368,2.909,2.909,0,0,1,.1-.413,3.185,3.185,0,0,1,.214-.447,2.181,2.181,0,0,1,.267-.372,1.061,1.061,0,0,1,.285-.233.328.328,0,0,1,.27-.03.34.34,0,0,1,.192.248,1.2,1.2,0,0,1,.008.469" transform="translate(-39.819 -21.391)" fill="#fff"/>
        <path id="Path_8696" data-name="Path 8696" d="M261.8,37.03c-.381-.075-2.186-.48-2.389-1.489-.105-.525-.193-6.678-.215-12.079-.047-11.452.173-11.672.279-11.779l1.126-1.126a.235.235,0,1,1,.332.332l-1.094,1.1c-.134.538-.2,5.11-.173,11.736.026,5.831.122,11.311.205,11.729.109.543,1.169.913,1.788,1.068V10.724a.235.235,0,0,1,.141-.215V10.02H230.41V37.7H261.8ZM237.348,15.359a6.176,6.176,0,0,1-.627,1.25,8.188,8.188,0,0,1-.934,1.186,5.71,5.71,0,0,1-1.141.938,1.213,1.213,0,0,1-.289.136.507.507,0,0,1-.327-.046l-.319-.131a1.874,1.874,0,0,1-.311-.169.879.879,0,0,1-.1-.086.226.226,0,0,1-.057-.087.129.129,0,0,1,.007-.094.322.322,0,0,1,.106-.108,8.02,8.02,0,0,0,1.351-1.344,2.02,2.02,0,0,0-.211-.034.911.911,0,0,1-.21-.048,2.043,2.043,0,0,1-.859-.466,1.4,1.4,0,0,1-.372-.72,2.388,2.388,0,0,1-.071-.815,3.077,3.077,0,0,1,.18-.822,3.382,3.382,0,0,1,.379-.739,2.38,2.38,0,0,1,.518-.559,2.46,2.46,0,0,1,.345-.2,1.647,1.647,0,0,1,.436-.135,1.927,1.927,0,0,1,.54-.008,2.718,2.718,0,0,1,.668.177,5.1,5.1,0,0,1,.638.33,2.136,2.136,0,0,1,.468.387,1.556,1.556,0,0,1,.293.473,1.866,1.866,0,0,1,.116.6,3.254,3.254,0,0,1-.218,1.138" transform="translate(-38.378 -1.669)" fill="#2b98f0"/>
        <path id="Path_8697" data-name="Path 8697" d="M236.493,14.266a.328.328,0,0,0-.27.03,1.076,1.076,0,0,0-.286.233,2.18,2.18,0,0,0-.266.372,3.19,3.19,0,0,0-.214.447,3.036,3.036,0,0,0-.1.413,1.494,1.494,0,0,0-.018.368.674.674,0,0,0,.083.281.322.322,0,0,0,.2.154.57.57,0,0,0,.6-.18,6.143,6.143,0,0,0,.315-.758,3.82,3.82,0,0,0,.162-.642,1.22,1.22,0,0,0-.007-.469.34.34,0,0,0-.192-.248" transform="translate(-39.197 -2.373)" fill="#2b98f0"/>
        <path id="Path_8698" data-name="Path 8698" d="M268.162,10.489a.235.235,0,0,1,.235.234V36.808a.235.235,0,0,1-.235.235.244.244,0,0,1-.042,0l-.052-.01V37.7h6.8V10.02h-6.8v.489a.231.231,0,0,1,.093-.02m2.91,5.113a.234.234,0,0,1,.234-.234h.938a.234.234,0,0,1,.234.234v5.631a.234.234,0,0,1-.234.234h-.938a.234.234,0,0,1-.234-.234Zm.7,11.026c1.026,0,1.829,1.257,1.829,2.862s-.8,2.862-1.829,2.862-1.829-1.258-1.829-2.862.8-2.862,1.829-2.862" transform="translate(-44.65 -1.669)" fill="#2b98f0"/>
        <path id="Path_8699" data-name="Path 8699" d="M272.243,35.3c.738,0,1.361-1.1,1.361-2.393s-.623-2.393-1.361-2.393-1.36,1.1-1.36,2.393.623,2.393,1.36,2.393m-.234-3.331a.235.235,0,0,1,.469,0v2.064a.235.235,0,0,1-.469,0Z" transform="translate(-45.119 -5.082)" fill="#2b98f0"/>
        <rect id="Rectangle_2142" data-name="Rectangle 2142" width="0.469" height="5.161" transform="translate(226.89 14.168)" fill="#2b98f0"/>
        <path id="Path_8700" data-name="Path 8700" d="M230.08,38.076h38.659a.235.235,0,0,0,.234-.235V9.692a.235.235,0,0,0-.234-.235H230.08a.235.235,0,0,0-.234.235V37.841a.235.235,0,0,0,.234.235m.236-28.149H268.5v27.68H230.316Z" transform="translate(-38.284 -1.575)"/>
        <path id="Path_8701" data-name="Path 8701" d="M271.906,22.536h.938a.235.235,0,0,0,.235-.234v-5.63a.235.235,0,0,0-.235-.235h-.938a.235.235,0,0,0-.235.235V22.3a.235.235,0,0,0,.235.234m.234-5.63h.469v5.161h-.469Z" transform="translate(-45.25 -2.738)"/>
        <path id="Path_8702" data-name="Path 8702" d="M272.15,35.671c1.026,0,1.829-1.258,1.829-2.862s-.8-2.862-1.829-2.862-1.829,1.257-1.829,2.862.8,2.862,1.829,2.862m0-5.255c.738,0,1.36,1.1,1.36,2.393s-.623,2.393-1.36,2.393-1.36-1.1-1.36-2.393.623-2.393,1.36-2.393" transform="translate(-45.025 -4.988)"/>
        <path id="Path_8703" data-name="Path 8703" d="M272.469,34.508a.235.235,0,0,0,.234-.235V32.209a.234.234,0,1,0-.468,0v2.064a.235.235,0,0,0,.234.235" transform="translate(-45.344 -5.326)"/>
        <path id="Path_8704" data-name="Path 8704" d="M267.641,37.137a.237.237,0,0,0,.15-.054.233.233,0,0,0,.084-.18V10.818a.235.235,0,0,0-.234-.235.238.238,0,0,0-.094.02.234.234,0,0,0-.14.215V36.611c-.619-.155-1.679-.526-1.788-1.068-.083-.418-.18-5.9-.205-11.73-.03-6.625.038-11.2.173-11.736l1.094-1.094a.235.235,0,1,0-.332-.332l-1.126,1.126c-.106.107-.327.327-.28,11.779.023,5.4.111,11.554.216,12.079.2,1.008,2.008,1.414,2.388,1.489l.053.009a.228.228,0,0,0,.042,0" transform="translate(-44.128 -1.763)"/>
        <path id="Path_8705" data-name="Path 8705" d="M237.668,13.6a2.165,2.165,0,0,0-.469-.387,5.024,5.024,0,0,0-.638-.33,2.727,2.727,0,0,0-.668-.177,1.927,1.927,0,0,0-.54.008,1.637,1.637,0,0,0-.436.135,2.545,2.545,0,0,0-.345.2,2.4,2.4,0,0,0-.518.559,3.379,3.379,0,0,0-.378.739,3.086,3.086,0,0,0-.181.822,2.386,2.386,0,0,0,.072.815,1.4,1.4,0,0,0,.372.72,2.043,2.043,0,0,0,.859.466.911.911,0,0,0,.21.048,2.04,2.04,0,0,1,.21.034,7.959,7.959,0,0,1-1.351,1.344.32.32,0,0,0-.105.109.123.123,0,0,0-.007.093.226.226,0,0,0,.057.087.941.941,0,0,0,.1.086,1.879,1.879,0,0,0,.312.169c.093.038.2.081.319.132a.5.5,0,0,0,.327.045,1.2,1.2,0,0,0,.288-.135,5.7,5.7,0,0,0,1.141-.938,8.194,8.194,0,0,0,.935-1.186,6.176,6.176,0,0,0,.627-1.25,3.254,3.254,0,0,0,.218-1.137,1.866,1.866,0,0,0-.117-.6,1.553,1.553,0,0,0-.293-.473m-1.283,1.126a3.82,3.82,0,0,1-.162.642,6.143,6.143,0,0,1-.315.758.568.568,0,0,1-.6.18.321.321,0,0,1-.2-.154.674.674,0,0,1-.083-.281,1.458,1.458,0,0,1,.019-.368,2.913,2.913,0,0,1,.1-.413,3.19,3.19,0,0,1,.214-.447,2.182,2.182,0,0,1,.267-.372,1.061,1.061,0,0,1,.285-.233.328.328,0,0,1,.27-.03.34.34,0,0,1,.192.248,1.2,1.2,0,0,1,.007.469" transform="translate(-38.89 -2.113)" fill="#fff"/>
        <path id="Path_8706" data-name="Path 8706" d="M12.224,174.318H41.781V10.02H12.224ZM16.164,24.8a.141.141,0,0,1,.141-.141H37.886a.141.141,0,0,1,.141.141V43.94a.141.141,0,0,1-.141.141H16.305a.141.141,0,0,1-.141-.141ZM38.081,96.2a.1.1,0,0,1-.1.1H16.4a.1.1,0,0,1-.1-.1V86.258a.1.1,0,0,1,.1-.1H37.981a.1.1,0,0,1,.1.1Zm1.729-16.8a.234.234,0,0,1-.234.234H14.428a.234.234,0,0,1-.234-.234V57.827a.234.234,0,0,1,.234-.234H39.576a.234.234,0,0,1,.234.234Z" transform="translate(-2.036 -1.669)" fill="#2b98f0"/>
        <path id="Path_8707" data-name="Path 8707" d="M42.156,174.459V9.692a.235.235,0,0,0-.234-.235H11.9a.235.235,0,0,0-.234.235V174.459a.234.234,0,0,0,.234.234H41.921a.234.234,0,0,0,.234-.234M12.13,9.926H41.687v164.3H12.13Z" transform="translate(-1.942 -1.575)"/>
        <rect id="Rectangle_2143" data-name="Rectangle 2143" width="21.299" height="18.86" transform="translate(14.41 23.27)" fill="#fff"/>
        <path id="Path_8708" data-name="Path 8708" d="M17.093,47.006H38.674a.141.141,0,0,0,.141-.141V27.724a.141.141,0,0,0-.141-.141H17.093a.141.141,0,0,0-.141.141V46.865a.141.141,0,0,0,.141.141m.141-19.142h21.3v18.86h-21.3Z" transform="translate(-2.824 -4.594)"/>
        <rect id="Rectangle_2144" data-name="Rectangle 2144" width="21.378" height="9.743" transform="translate(14.464 84.691)" fill="#fff"/>
        <path id="Path_8709" data-name="Path 8709" d="M38.795,101.372H17.214a.1.1,0,0,0-.1.1v9.946a.1.1,0,0,0,.1.1H38.795a.1.1,0,0,0,.1-.1v-9.946a.1.1,0,0,0-.1-.1m-.1,9.946H17.315v-9.743H38.693Z" transform="translate(-2.85 -16.885)"/>
        <path id="Path_8710" data-name="Path 8710" d="M15.151,88.775H39.827V67.663H15.151Zm1.408-19.282a.234.234,0,0,1,.233-.235H38.373a.235.235,0,0,1,.236.235V86.945a.235.235,0,0,1-.236.235H16.792a.234.234,0,0,1-.233-.235Z" transform="translate(-2.524 -11.27)" fill="#2b98f0"/>
        <path id="Path_8711" data-name="Path 8711" d="M39.97,67.1H14.822a.234.234,0,0,0-.234.234V88.915a.235.235,0,0,0,.234.235H39.97a.235.235,0,0,0,.234-.235V67.334a.234.234,0,0,0-.234-.234m-.235,21.581H15.057V67.569H39.734Z" transform="translate(-2.43 -11.176)"/>
        <rect id="Rectangle_2145" data-name="Rectangle 2145" width="21.112" height="16.984" transform="translate(14.504 58.457)" fill="#fff"/>
        <g id="Group_13953" data-name="Group 13953" transform="translate(14.504 58.457)" opacity="0.6">
          <g id="Group_13952" data-name="Group 13952">
            <g id="Group_13951-2" data-name="Group 13951" clip-path="url(#clip-path-3)">
              <path id="Path_8712" data-name="Path 8712" d="M38.514,70.139H17.4V87.123Z" transform="translate(-17.402 -70.139)" fill="#a3a3a3"/>
            </g>
          </g>
        </g>
        <path id="Path_8713" data-name="Path 8713" d="M17.074,87.5H38.655a.234.234,0,0,0,.234-.235V69.811a.234.234,0,0,0-.234-.234H17.074a.234.234,0,0,0-.234.234V87.263a.234.234,0,0,0,.234.235m.234-17.453H38.42V87.029H17.308Z" transform="translate(-2.805 -11.589)"/>
        <path id="Path_8714" data-name="Path 8714" d="M204.9,52.954c-.14.826-.212,10.1-.183,23.814.025,12.13.122,23.2.206,23.683.108.542,1.168.913,1.787,1.067V51.7a.235.235,0,0,1,.141-.215V51H175.469v51.7h31.386v-.67c-.381-.075-2.186-.48-2.388-1.489-.105-.523-.193-12.912-.216-24.09-.048-23.462.166-23.674.28-23.789l1.126-1.125a.234.234,0,1,1,.332.331Z" transform="translate(-29.226 -8.495)" fill="#2b98f0"/>
        <path id="Path_8715" data-name="Path 8715" d="M187.916,54.653a2.616,2.616,0,0,0-.443-.462,2.528,2.528,0,0,0-.912-.469,1.549,1.549,0,0,0-.964.063,3.778,3.778,0,0,0-1.033.586,2.828,2.828,0,0,0-.709.833,1.22,1.22,0,0,0-.139,1.028,1.839,1.839,0,0,0,.763.878c-.175.11-.343.224-.5.342a3.091,3.091,0,0,0-.428.376,1.865,1.865,0,0,0-.3.423,1.255,1.255,0,0,0-.138.473,1.149,1.149,0,0,0,.288.859,1.948,1.948,0,0,0,.988.574,3.218,3.218,0,0,0,.709.131,2.787,2.787,0,0,0,.709-.037,2.353,2.353,0,0,0,.66-.229,1.962,1.962,0,0,0,.571-.458,2.764,2.764,0,0,0,.357-.555,1.1,1.1,0,0,0,.108-.563,1.134,1.134,0,0,0-.236-.578,2.487,2.487,0,0,0-.672-.586,8.676,8.676,0,0,0,.8-.5,2.027,2.027,0,0,0,.548-.548,1.37,1.37,0,0,0,.248-.544,1.178,1.178,0,0,0-.018-.537,1.538,1.538,0,0,0-.252-.506m-2.064,3.986a1.57,1.57,0,0,1-.143.282,1.144,1.144,0,0,1-.454.417.6.6,0,0,1-.439.056.4.4,0,0,1-.128-.071.335.335,0,0,1-.094-.124.417.417,0,0,1-.033-.173.553.553,0,0,1,.06-.233,1.941,1.941,0,0,1,.368-.5,2.733,2.733,0,0,1,.6-.443.8.8,0,0,1,.236.248.566.566,0,0,1,.076.263.729.729,0,0,1-.049.274m.7-3a3.462,3.462,0,0,1-1.107.931.552.552,0,0,1-.177-.334.712.712,0,0,1,.083-.413,1.8,1.8,0,0,1,.349-.462,3.585,3.585,0,0,1,.623-.481q.474.361.229.758" transform="translate(-30.498 -8.94)" fill="#fff"/>
        <path id="Path_8716" data-name="Path 8716" d="M181.587,53.975a3.106,3.106,0,0,0-.432-.252,2.573,2.573,0,0,0-.439-.161,1.3,1.3,0,0,0-.2-.038.341.341,0,0,0-.146.016.33.33,0,0,0-.12.075,1.481,1.481,0,0,0-.132.143c-.1.135-.208.294-.323.477a5.6,5.6,0,0,0-.3.537.613.613,0,0,0-.06.183.191.191,0,0,0,.034.132.428.428,0,0,0,.138.117c.065.038.148.081.248.131-.075.336-.149.7-.222,1.085s-.138.765-.2,1.133-.105.708-.143,1.021-.062.562-.072.747a.7.7,0,0,0,.03.308.41.41,0,0,0,.188.2,1.631,1.631,0,0,0,.357.132c.118.028.237.056.357.086a.393.393,0,0,0,.259.015.275.275,0,0,0,.1-.165q.06-.33.147-.758t.2-.908q.109-.48.233-.988t.248-.994c.083-.325.166-.636.248-.931s.159-.56.229-.8a.382.382,0,0,0,.023-.3.742.742,0,0,0-.255-.24" transform="translate(-29.852 -8.915)" fill="#fff"/>
      </g>
    </g>
  </g>
</svg>
