<svg id="_8679573_bus_line_icon" data-name="8679573_bus_line_icon" xmlns="http://www.w3.org/2000/svg" width="18.686" height="18.686" viewBox="0 0 18.686 18.686" fill="#000">
  <path id="Path_6267" data-name="Path 6267" d="M0,0H18.686V18.686H0Z" fill="none"/>
  <path id="Path_6268" data-name="Path 6268" d="M13.679,16.236H5.893v.779a.779.779,0,0,1-.779.779H4.336a.779.779,0,0,1-.779-.779v-.779H2.779V10.007H2V6.893h.779V4.557A1.557,1.557,0,0,1,4.336,3h10.9a1.557,1.557,0,0,1,1.557,1.557V6.893h.779v3.114h-.779v6.229h-.779v.779a.779.779,0,0,1-.779.779h-.779a.779.779,0,0,1-.779-.779Zm1.557-6.229V4.557H4.336v5.45Zm0,1.557H4.336v3.114h10.9Zm-10.122.779H8.229V13.9H5.114Zm6.229,0h3.114V13.9H11.343Z" transform="translate(-0.443 -0.664)"/>
</svg>
