<svg width="50" height="50" viewBox="0 0 50 50" fill="none" xmlns="http://www.w3.org/2000/svg">
<rect width="50" height="50" rx="5" fill="#FFF"/>
<path d="M16.594 12C14.2145 11.998 10.9292 12.6775 9.57415 13.2478C8.21019 13.8106 7.30385 14.3769 7.02109 15.7866L6 23.6431V34.4639H7.75873V36.1516C7.75736 38.2239 10.7837 38.2239 10.7796 36.1516V34.4639H22.196V36.1516C22.1981 38.2239 25.2244 38.2239 25.2306 36.1516V34.4639H26.975V23.6431L25.9539 15.7866C25.678 14.3769 24.7716 13.8106 23.4159 13.2478C22.0526 12.6775 18.768 11.998 16.3953 12" fill="#7E9AC7"/>
<path d="M23.7148 31.0741C24.5133 31.0672 25.1635 30.417 25.1614 29.6131C25.1635 28.814 24.5133 28.1638 23.7148 28.1665C22.9096 28.1638 22.2594 28.814 22.2539 29.6131C22.2594 30.417 22.9096 31.0672 23.7148 31.0741Z" fill="#FFF"/>
<path d="M9.27637 31.0741C8.46975 31.0672 7.82021 30.417 7.81543 29.6131C7.82021 28.814 8.46975 28.1638 9.27637 28.1665C10.0734 28.1638 10.7237 28.814 10.723 29.6131C10.7237 30.417 10.0734 31.0672 9.27637 31.0741Z" fill="#FFF"/>
<path d="M16.3823 15.2605H12.1703C11.3261 15.2537 11.3261 13.9792 12.1703 13.9846H20.8068C21.6571 13.9792 21.6571 15.2537 20.8068 15.2605H16.3823Z" fill="#FFF"/>
<path d="M16.3832 16.5366H9.88781C8.98898 16.54 8.75402 16.9963 8.63928 17.6854L7.84495 23.3864C7.77801 23.9274 7.93579 24.469 8.69597 24.4642H24.2964C25.0491 24.469 25.2069 23.9274 25.1331 23.3864L24.3388 17.6854C24.2308 16.9963 23.9959 16.54 23.1053 16.5366H16.3832Z" fill="#FFF"/>
<path d="M37.6692 19.7271C38.5306 19.8694 39.3355 19.2737 39.4775 18.3978C39.6165 17.5216 39.0345 16.7032 38.1734 16.5577C37.3209 16.4225 36.51 17.0177 36.374 17.8941C36.2296 18.7631 36.811 19.5883 37.6692 19.7271Z" fill="#7E9AC7"/>
<path d="M36.7195 20.2102C37.0405 20.0428 37.4233 19.9457 37.8351 20.0119C38.3643 20.0936 38.776 20.4241 39.0131 20.8056L40.3537 23.7133L42.3852 25.2061C42.5568 25.3452 42.6549 25.5576 42.6128 25.7777C42.5544 26.1192 42.1978 26.3489 41.8158 26.2879C41.6982 26.2729 41.6051 26.2213 41.5026 26.1694L39.2871 24.542C39.2186 24.4847 39.1665 24.4152 39.1233 24.3433L38.6246 23.2537L37.6935 25.9682L40.2125 29.1053C40.2689 29.2001 40.3027 29.3089 40.318 29.4162L40.7759 32.9931C40.7635 33.0714 40.7715 33.121 40.7604 33.1827C40.6753 33.7047 40.1359 34.0419 39.5613 33.957C39.0831 33.8827 38.7549 33.5368 38.6748 33.1355L38.2416 29.7841L36.1783 27.4084L35.4868 29.5024C35.4603 29.6008 35.2951 29.8 35.2455 29.8802L32.8302 32.9478C32.5945 33.2255 32.219 33.3857 31.8126 33.3226C31.232 33.2372 30.8363 32.7472 30.927 32.2315C30.9513 32.0862 31.0332 31.9374 31.1025 31.837L33.3438 29.0031L35.549 22.5343L34.3957 23.2331L33.6262 25.5383C33.5228 25.8349 33.197 26.0563 32.8389 26.0026C32.4507 25.9437 32.1908 25.6202 32.2497 25.2733C32.2519 25.2463 32.26 25.2197 32.2687 25.1878L33.176 22.5014C33.2278 22.3886 33.3061 22.2885 33.4158 22.2159L36.7191 20.2097L36.7195 20.2102Z" fill="#7E9AC7"/>
</svg>
