<svg width="50" height="50" viewBox="0 0 50 50" fill="none" xmlns="http://www.w3.org/2000/svg">
<rect width="50" height="50" rx="5" fill="#7E9AC7"/>
<path d="M16.7153 12C14.3085 11.9979 10.9856 12.6853 9.61505 13.2621C8.23549 13.8314 7.31877 14.4041 7.03277 15.8299L6 23.7764V34.721H7.77886V36.428C7.77748 38.524 10.8385 38.524 10.8343 36.428V34.721H22.3814V36.428C22.3835 38.524 25.4445 38.524 25.4507 36.428V34.721H27.215V23.7764L26.1823 15.8299C25.9032 14.4041 24.9865 13.8314 23.6152 13.2621C22.2363 12.6853 18.9142 11.9979 16.5143 12" fill="white"/>
<path d="M24.1715 31C24.9953 30.993 25.6662 30.3221 25.6641 29.4926C25.6662 28.6681 24.9953 27.9972 24.1715 28C23.3406 27.9972 22.6697 28.6681 22.6641 29.4926C22.6697 30.3221 23.3406 30.993 24.1715 31Z" fill="#7E9AC7"/>
<path d="M9.17146 31C8.33919 30.993 7.669 30.3221 7.66406 29.4926C7.669 28.6681 8.33919 27.9972 9.17146 28C9.99387 27.9972 10.6648 28.6681 10.6641 29.4926C10.6648 30.3221 9.99387 30.993 9.17146 31Z" fill="#7E9AC7"/>
<path d="M16.5545 15H12.3031C11.451 14.9946 11.451 13.9957 12.3031 14H21.0204C21.8786 13.9957 21.8786 14.9946 21.0204 15H16.5545Z" fill="#7E9AC7"/>
<path d="M16.5527 17H9.80176C8.86756 17.0034 8.62336 17.4639 8.5041 18.1593L7.6785 23.9124C7.60894 24.4582 7.77292 25.0048 8.56302 25H24.7774C25.5597 25.0048 25.7237 24.4582 25.647 23.9124L24.8214 18.1593C24.7093 17.4639 24.4651 17.0034 23.5394 17H16.5527Z" fill="#7E9AC7"/>
<path d="M38.0792 19.8301C37.2201 19.8172 36.5484 19.08 36.5686 18.1828C36.5917 17.286 37.3021 16.5759 38.1614 16.5856C39.0106 16.604 39.6882 17.3418 39.6621 18.2383C39.6456 19.1289 38.9346 19.8458 38.0792 19.8301Z" fill="white"/>
<path d="M38.9112 20.4814C38.6307 20.2572 38.2777 20.092 37.8674 20.084C37.3406 20.0703 36.8828 20.3253 36.5848 20.6624L34.7646 23.3156L32.5304 24.4367C32.3393 24.5444 32.2062 24.7382 32.2073 24.9647C32.2024 25.315 32.5062 25.6076 32.8868 25.6154C33.0032 25.6215 33.1026 25.5869 33.2111 25.5537L35.6476 24.3316C35.7242 24.2869 35.787 24.227 35.8418 24.1632L36.5204 23.1684L36.9331 26.0367L33.9313 28.7067C33.8597 28.7909 33.8075 28.8931 33.7733 28.9972L32.6869 32.4746C32.6848 32.5547 32.6681 32.6026 32.6677 32.666C32.6562 33.2007 33.1174 33.6331 33.6887 33.6516C34.1648 33.6634 34.5446 33.3781 34.6943 32.9931L35.7163 29.7357L38.14 27.7417L38.4325 29.9495C38.4405 30.0523 38.5645 30.28 38.5981 30.3688L40.3833 33.8547C40.5615 34.1733 40.896 34.4001 41.3005 34.4103C41.8777 34.4294 42.3487 34.0127 42.3537 33.4833C42.3563 33.3343 42.3039 33.1715 42.2549 33.0592L40.596 29.8371L39.6257 23.0042L40.616 23.9064L40.9459 26.3384C40.9926 26.6521 41.2681 26.9309 41.6242 26.9417C42.0104 26.9528 42.3201 26.6774 42.3255 26.3216C42.3283 26.2943 42.3251 26.2665 42.3225 26.2331L41.9278 23.397C41.898 23.2755 41.8402 23.1618 41.7471 23.0699L38.9117 20.481L38.9112 20.4814Z" fill="white"/>
</svg>
