<svg width="99" height="99" viewBox="0 0 99 99" fill="none" xmlns="http://www.w3.org/2000/svg">
<path d="M98.7241 49.3137C98.7241 22.2193 76.7597 0.254883 49.6653 0.254883C22.5708 0.254883 0.606445 22.2193 0.606445 49.3137C0.606445 76.4081 22.5708 98.3725 49.6653 98.3725C76.7597 98.3725 98.7241 76.4081 98.7241 49.3137Z" fill="#fff"/>
<path d="M57.8281 69.4491C55.1035 69.0541 52.5136 68.0109 50.2757 66.4075C47.6821 64.6014 45.2996 62.5097 43.1731 60.1716C40.4915 57.437 37.9621 54.5573 35.5963 51.5454C33.7002 49.1352 32.2375 46.4137 31.2736 43.5025C30.6579 41.6087 30.4964 39.5967 30.8021 37.629C31.2328 35.3579 32.411 33.2961 34.149 31.7719C34.8509 31.1441 35.6132 30.5872 36.4248 30.1094C36.9081 29.8023 37.4708 29.6435 38.0433 29.6527C38.6159 29.6619 39.1732 29.8387 39.6463 30.1612C41.9137 31.5104 43.6515 33.5944 44.5713 36.0673C44.7289 36.4157 44.7903 36.7999 44.7491 37.18C44.7079 37.5601 44.5655 37.9222 44.3369 38.2286C43.7673 38.9972 43.1731 39.7467 42.598 40.518C42.0911 41.1994 41.5651 41.8808 41.1154 42.5867C40.8837 42.9136 40.761 43.3052 40.7644 43.7059C40.7678 44.1065 40.8973 44.4959 41.1344 44.8189C42.271 46.4133 43.3721 48.0567 44.6067 49.5748C46.843 52.3431 49.3192 54.9086 52.0064 57.2417C52.606 57.7568 53.2465 58.2119 53.8843 58.678C54.1563 58.8893 54.4832 59.018 54.8263 59.0489C55.1693 59.0799 55.514 59.0117 55.8194 58.8524C56.5035 58.5151 57.1694 58.1421 57.8145 57.735C58.7084 57.1653 59.586 56.5794 60.4609 56.0152C60.8222 55.7837 61.2405 55.6566 61.6696 55.6479C62.0986 55.6393 62.5217 55.7494 62.892 55.9661C65.1534 57.0873 66.9973 58.9016 68.155 61.1445C68.4801 61.7051 68.6269 62.3515 68.5758 62.9975C68.5247 63.6436 68.2781 64.2588 67.8688 64.7613C66.8887 66.1937 65.5819 67.3725 64.0565 68.2003C62.531 69.0282 60.8306 69.4815 59.0954 69.5227C58.67 69.5163 58.2452 69.4881 57.8226 69.4382L57.8281 69.4491Z" fill="black"/>
</svg>
