<svg xmlns="http://www.w3.org/2000/svg" fill="currentColor" width="23.007" height="24" viewBox="0 0 23.007 24">
  <path id="call-back" d="M33.611,11.822a11.4,11.4,0,0,1-2.348,6.965.75.75,0,1,1-1.193-.909,9.912,9.912,0,0,0,2.041-6.055A10.01,10.01,0,0,0,17.666,2.854l.7.115a.75.75,0,0,1-.121,1.49.735.735,0,0,1-.122-.01l-2.664-.437a.75.75,0,0,1-.58-1L15.832.481a.75.75,0,1,1,1.4.53l-.177.47A11.508,11.508,0,0,1,33.611,11.822ZM21.061,9.458a1.393,1.393,0,0,0,.211-1.7L20.209,5.972a1.393,1.393,0,0,0-1.777-.556L16.7,6.205a1.388,1.388,0,0,0-.8,1.442,11.614,11.614,0,0,0,3.4,6.667,11.617,11.617,0,0,0,6.667,3.4,1.417,1.417,0,0,0,.177.011,1.387,1.387,0,0,0,1.266-.816l.788-1.728a1.393,1.393,0,0,0-.555-1.777l-1.787-1.063a1.393,1.393,0,0,0-1.7.211c-.19.19-.344.338-.458.44a3.7,3.7,0,0,1-1.945-1.132,3.7,3.7,0,0,1-1.132-1.945c.1-.114.25-.268.44-.459Zm7.2,10.529-2.652-.444a.75.75,0,1,0-.248,1.479l.484.081A10.006,10.006,0,0,1,13.82,6.215a.75.75,0,1,0-1.241-.842A11.508,11.508,0,0,0,26.727,22.361l-.232.622a.75.75,0,1,0,1.405.525l.941-2.519a.75.75,0,0,0-.578-1Z" transform="translate(-10.604 0.004)"  fill-rule="evenodd"/>
</svg>
