<svg xmlns="http://www.w3.org/2000/svg" width="15.724" height="14.515" viewBox="0 0 15.724 14.515">
  <path id="Path_6258" data-name="Path 6258" d="M15.19,8.321s0,0-.009-.007a.724.724,0,0,1-.273-.25l-3.043-5.1c-.006-.011-.12-.219-.213-.362a.288.288,0,0,0-.23-.131H4.231s-.179.008-.373.344c-.174.3-2.605,4.51-3.147,5.454a.908.908,0,0,0-.7.924v4.311a.882.882,0,0,0,.824.936h.824v2.066a.425.425,0,0,0,.373.464h1.33a.428.428,0,0,0,.372-.464V14.442h8.3v2.083a.425.425,0,0,0,.369.464h1.313a.424.424,0,0,0,.368-.464V14.442h.828a.882.882,0,0,0,.824-.936V9.2A.926.926,0,0,0,15.19,8.321ZM4.413,3.51s.1-.194.563-.194H10.84a.591.591,0,0,1,.445.305l2.771,4.639H1.663Zm-1.3,9.265a1.423,1.423,0,1,1,1.423-1.423A1.424,1.424,0,0,1,3.114,12.775Zm9.549,0a1.423,1.423,0,1,1,1.424-1.423A1.424,1.424,0,0,1,12.662,12.775Z" transform="translate(-0.015 -2.474)" fill="#FFF"/>
</svg>
