<svg width="51" height="43" viewBox="0 0 51 43" fill="none" xmlns="http://www.w3.org/2000/svg">
<circle opacity="0.5" cx="21.2275" cy="21.2275" r="21.2275" fill="#FA99AB"/>
<mask id="mask0_1_15559" style="mask-type:alpha" maskUnits="userSpaceOnUse" x="0" y="0" width="43" height="43">
<circle cx="21.2275" cy="21.2275" r="21.2275" fill="#FFE4E4"/>
</mask>
<g mask="url(#mask0_1_15559)">
<path d="M19.9531 16.448C18.0532 16.6081 16.2319 17.1409 14.5171 18.0828C10.5193 20.2784 8.05248 23.6231 7.1539 28.1038C7.0388 28.6751 6.9819 29.2588 6.89819 29.8366C6.89819 30.4458 6.89819 31.0544 6.89819 31.6636C6.91716 31.7577 6.93939 31.8512 6.95509 31.9459C7.08196 32.7159 7.15456 33.4997 7.3416 34.2546C9.17733 41.6676 16.5563 46.3164 24.0908 44.8241C31.9262 43.2723 37.0123 35.4678 35.2753 27.6613C33.9104 21.5288 28.7668 17.0186 22.5631 16.4565C22.5631 16.4565 21.5965 16.3009 19.9531 16.448Z" fill="#FFEBEB"/>
<path d="M36.1505 27.7248C34.7003 21.2983 29.2353 16.5724 22.6439 15.9834C22.6439 15.2334 22.6446 14.4841 22.6439 13.7342C23.5423 13.7342 24.4401 13.7342 25.3385 13.7335C25.408 13.7335 25.4775 13.7335 25.5463 13.7246C26.1098 13.6492 26.5142 13.3568 26.7095 12.8301C26.9054 12.3013 26.795 11.8055 26.3892 11.4164C26.1988 11.2342 25.925 11.1363 25.6894 11C22.7314 11 19.7734 11 16.8154 11C16.5715 11.1445 16.286 11.2479 16.0928 11.4418C15.6856 11.85 15.5918 12.3602 15.8225 12.8924C16.0712 13.4657 16.5417 13.7328 17.1663 13.7335C18.0683 13.7342 18.9695 13.7342 19.8714 13.7342C19.8714 14.4807 19.8714 15.2273 19.8714 15.9745C17.8529 16.1423 15.9177 16.7005 14.0958 17.6875C9.84742 19.9881 7.22642 23.4928 6.27169 28.1878C6.15009 28.7871 6.08894 29.3981 6 30.0035C6 30.6419 6 31.2795 6 31.9179C6.02015 32.0165 6.04378 32.1144 6.06045 32.2138C6.19525 33.0206 6.27238 33.8418 6.47111 34.6329C8.42157 42.4004 16.2623 47.2715 24.2678 45.7086C32.5921 44.0826 37.996 35.9041 36.1505 27.7248ZM21.2583 43.2634C14.4057 43.2723 8.77039 37.7177 8.77456 30.9576C8.77873 24.2017 14.3577 18.6916 21.2292 18.6573C28.0679 18.6224 33.7081 24.1667 33.7303 30.946C33.7525 37.6958 28.1242 43.2545 21.2583 43.2634Z" fill="#325BC2"/>
<path d="M26.3723 24.7861C25.8595 24.6991 25.4461 24.8895 25.0917 25.2381C23.5067 26.7997 21.9218 28.3613 20.3382 29.9243C20.2569 30.0044 20.1784 30.0907 20.1158 30.1852C19.8122 30.6428 19.774 31.1215 20.038 31.6064C20.2958 32.0797 20.7183 32.2982 21.3985 32.3379C21.5597 32.2667 21.9016 32.2071 22.1059 32.0098C23.8291 30.3441 25.5559 28.6805 27.2193 26.9572C27.9503 26.2004 27.4222 24.9648 26.3723 24.7861Z" fill="#325BC2"/>
</g>
<g clip-path="url(#clip0_1_15559)">
<path d="M28 28.5561C28.1139 27.5115 28.6691 26.6543 29.181 25.7778C29.6141 25.0361 30.0428 24.2913 30.4732 23.5478C32.2805 20.4247 34.0905 17.303 35.8937 14.1776C36.5515 13.0377 37.4998 12.3203 38.8055 12.0664C40.2859 11.7782 42.0315 12.4538 42.8253 13.7326C43.6763 15.1027 44.4673 16.5105 45.2764 17.9062C46.9815 20.8468 48.6794 23.7915 50.384 26.7325C50.9351 27.6828 51.1386 28.6856 50.9045 29.7693C50.4984 31.6509 48.8347 32.9913 46.8469 32.9949C41.9415 33.003 37.0365 33.0035 32.131 32.9877C31.6754 32.9864 31.199 32.9082 30.7681 32.7607C29.3134 32.2613 28.4475 31.2136 28.0932 29.7311C28.0572 29.5801 28.0311 29.4268 28 29.2744C28 29.0349 28 28.7957 28 28.5561ZM39.4642 31.1461C41.8897 31.1461 44.3156 31.1448 46.7411 31.147C47.4309 31.1475 48.0387 30.9515 48.5191 30.4377C49.2373 29.6695 49.3417 28.6361 48.7933 27.6873C46.8424 24.312 44.8906 20.9372 42.9374 17.5632C42.4097 16.6521 41.9027 15.7275 41.339 14.8388C40.8712 14.1012 40.1481 13.7933 39.2782 13.8742C38.4782 13.9488 37.9149 14.3817 37.5178 15.069C35.606 18.3804 33.6871 21.6883 31.7722 24.9979C31.2076 25.9738 30.6227 26.9397 30.0945 27.9349C29.6997 28.6793 29.7794 29.4421 30.24 30.1469C30.7064 30.8603 31.3976 31.147 32.2319 31.1466C34.6429 31.1448 37.0536 31.1461 39.4642 31.1461Z" fill="#325BC2"/>
<path d="M39.4642 31.1458C37.0535 31.1458 34.6429 31.1445 32.2318 31.1467C31.3975 31.1472 30.7064 30.8604 30.24 30.147C29.7789 29.4422 29.6992 28.6794 30.0945 27.9351C30.6227 26.9394 31.2075 25.9739 31.7721 24.9981C33.687 21.688 35.606 18.3806 37.5178 15.0692C37.9144 14.3819 38.4777 13.949 39.2782 13.8744C40.1481 13.7935 40.8712 14.101 41.339 14.839C41.9027 15.7277 42.4097 16.6523 42.9374 17.5634C44.8906 20.9373 46.8428 24.3121 48.7933 27.6874C49.3417 28.6363 49.2377 29.6697 48.5191 30.4379C48.0387 30.9516 47.4304 31.1476 46.7411 31.1472C44.3156 31.1445 41.8901 31.1458 39.4642 31.1458ZM38.3287 27.9261C38.3232 28.5761 38.8545 29.1119 39.5038 29.111C40.1368 29.1101 40.6578 28.5909 40.66 27.9589C40.6618 27.2936 40.1679 26.7718 39.5254 26.761C38.8775 26.7498 38.3336 27.2797 38.3287 27.9261Z" fill="#FFEBEB"/>
<path d="M40.6716 18.9016C40.5806 20.4591 40.4897 22.0166 40.3992 23.5741C40.3866 23.7899 40.3965 24.0088 40.3618 24.2209C40.2907 24.656 39.9269 24.9509 39.4969 24.9491C39.0615 24.9473 38.6932 24.6601 38.6436 24.2155C38.5775 23.6231 38.5572 23.0253 38.5203 22.4292C38.4464 21.2448 38.3812 20.0595 38.3006 18.8755C38.2357 17.9212 39.0372 17.2173 39.8769 17.505C40.3325 17.661 40.6418 18.0633 40.6711 18.5433C40.6779 18.6625 40.6716 18.782 40.6716 18.9016Z" fill="#325BC2"/>
<circle cx="39.5" cy="27.5" r="1.5" fill="#325BC2"/>
</g>
<defs>
<clipPath id="clip0_1_15559">
<rect width="23" height="21" fill="white" transform="translate(28 12)"/>
</clipPath>
</defs>
</svg>
