<svg width="52" height="43" viewBox="0 0 52 43" fill="none" xmlns="http://www.w3.org/2000/svg">
<circle cx="21.5" cy="21.5" r="21.5" fill="#87E1FF"/>
<mask id="mask0_1_15576" style="mask-type:alpha" maskUnits="userSpaceOnUse" x="0" y="0" width="43" height="43">
<circle cx="21.3333" cy="21.6668" r="21.3333" fill="#9FB7FF"/>
</mask>
<g mask="url(#mask0_1_15576)">
<g clip-path="url(#clip0_1_15576)">
<path d="M25.7325 50.8015C25.5179 50.8015 25.3025 50.8015 25.0879 50.8015C24.6809 50.5416 24.2567 50.3054 23.8726 50.016C23.5116 49.7439 23.1936 49.4156 22.8555 49.1132C22.244 48.566 21.6317 48.0196 21.0043 47.458C20.1107 48.2586 19.2536 49.0534 18.3657 49.8115C17.9386 50.1765 17.4534 50.4739 16.994 50.8015C16.7549 50.8015 16.5166 50.8015 16.2776 50.8015C15.8584 50.5178 15.4169 50.2622 15.0257 49.944C14.4702 49.4919 13.9512 48.9937 13.4172 48.5156C13.0267 48.1665 12.6369 47.8166 12.2328 47.4544C11.4978 48.1067 10.785 48.7424 10.0672 49.3724C9.89705 49.5214 9.72406 49.6755 9.52882 49.7849C8.42413 50.404 6.99642 49.62 7.00001 48.0909C7.02369 37.6344 7.01221 27.1779 7.01508 16.7214C7.01508 16.5076 7.02154 16.2858 7.07466 16.0806C7.38044 14.9064 8.77011 14.4089 9.7255 15.1649C10.4928 15.7718 11.2049 16.45 11.9414 17.0965C12.0361 17.1793 12.1337 17.2592 12.2342 17.3441C12.3527 17.2405 12.4424 17.1634 12.5314 17.0842C13.4746 16.2383 14.4149 15.3888 15.3624 14.5472C16.1785 13.8222 17.0521 13.8229 17.8661 14.54C18.2788 14.9035 18.6851 15.2736 19.095 15.6408C19.7252 16.2052 20.3561 16.7689 20.9964 17.3413C21.1084 17.2477 21.201 17.175 21.2886 17.0965C22.2239 16.2592 23.1556 15.4183 24.093 14.5839C24.9709 13.802 25.8244 13.8092 26.7044 14.5983C27.4703 15.2844 28.234 15.9727 28.9992 16.6588C29.2547 16.8877 29.5131 17.113 29.7766 17.3456C29.8907 17.2477 29.9819 17.1714 30.0709 17.0929C30.7686 16.4745 31.4562 15.8438 32.1668 15.2405C32.9615 14.5652 34.0267 14.6883 34.6605 15.5076C34.9548 15.8884 35 16.3319 35 16.797C34.9964 27.1937 34.9971 37.5905 34.9964 47.9872C34.9964 48.1305 34.9935 48.2744 34.9835 48.4177C34.9304 49.183 34.3985 49.7907 33.6548 49.9548C33.0253 50.0938 32.5085 49.8806 32.0463 49.4681C31.2983 48.8 30.5475 48.1355 29.7888 47.4616C29.6983 47.5351 29.623 47.5912 29.5526 47.6539C28.6977 48.4192 27.8564 49.2017 26.9829 49.9447C26.601 50.2709 26.1517 50.5185 25.7325 50.8015ZM16.615 49.0729C16.7592 48.9469 16.8942 48.831 17.027 48.7129C17.9436 47.8914 18.8574 47.0657 19.7776 46.2478C20.555 45.5567 21.4486 45.5588 22.2289 46.2442C22.4801 46.4652 22.727 46.6913 22.9761 46.9145C23.7765 47.6308 24.5775 48.3472 25.3851 49.07C25.4848 48.9843 25.5667 48.9166 25.6456 48.8461C26.6161 47.9764 27.5794 47.0988 28.557 46.2377C29.3322 45.5545 30.1994 45.5567 30.981 46.2248C31.3442 46.5358 31.696 46.8598 32.0542 47.1765C32.4439 47.5214 32.8351 47.8648 33.2493 48.2298C33.2493 37.6596 33.2493 27.139 33.2493 16.5594C32.4532 17.2678 31.7182 17.9345 30.9696 18.5846C30.2065 19.2462 29.3401 19.2412 28.5742 18.5825C28.2211 18.2786 27.8794 17.9604 27.5327 17.6494C26.8235 17.0144 26.1136 16.3794 25.3901 15.7315C25.2365 15.8683 25.1022 15.9856 24.9694 16.1044C24.0614 16.9187 23.1556 17.7351 22.2454 18.5457C21.4529 19.2513 20.5578 19.2527 19.7675 18.5486C18.8301 17.7135 17.8984 16.8726 16.9638 16.0353C16.8504 15.9338 16.7334 15.8366 16.6135 15.7343C15.5677 16.6739 14.547 17.5947 13.5212 18.509C12.6714 19.2686 11.8143 19.2722 10.9601 18.5227C10.2954 17.9395 9.63793 17.347 8.9754 16.761C8.91079 16.7041 8.83543 16.6595 8.75144 16.599C8.75144 27.1505 8.75144 37.6653 8.75144 48.2363C8.89141 48.1197 8.98257 48.0469 9.06943 47.9699C9.72191 47.3904 10.3593 46.7921 11.0333 46.2392C11.291 46.0275 11.6176 45.8569 11.9399 45.777C12.5414 45.6272 13.0554 45.8713 13.5062 46.2802C14.5319 47.2104 15.5662 48.1319 16.615 49.0729Z" fill="#325BC2"/>
<path d="M16.6152 49.0714C15.5665 48.1304 14.5314 47.2089 13.5057 46.278C13.0549 45.8691 12.541 45.625 11.9395 45.7748C11.6172 45.8554 11.2906 46.026 11.0329 46.237C10.3589 46.7899 9.72144 47.3882 9.06896 47.9677C8.98211 48.0448 8.89095 48.1175 8.75098 48.2341C8.75098 37.6631 8.75098 27.1483 8.75098 16.5968C8.83496 16.6573 8.91033 16.7019 8.97493 16.7588C9.63746 17.3448 10.295 17.9374 10.9597 18.5205C11.8138 19.27 12.6709 19.2664 13.5201 18.509C14.5458 17.5939 15.5665 16.6731 16.6123 15.7343C16.7322 15.8373 16.8492 15.9338 16.9626 16.0353C17.8972 16.8726 18.8296 17.7135 19.7664 18.5486C20.5574 19.2527 21.4525 19.2513 22.2442 18.5457C23.1544 17.7343 24.0602 16.9179 24.9683 16.1044C25.1011 15.9856 25.2346 15.8675 25.3889 15.7314C26.1124 16.3794 26.8223 17.0137 27.5315 17.6494C27.879 17.9604 28.2199 18.2786 28.5731 18.5824C29.339 19.2405 30.2053 19.2462 30.9684 18.5846C31.7178 17.9345 32.4521 17.2678 33.2481 16.5594C33.2481 27.1383 33.2481 37.6595 33.2481 48.2298C32.8339 47.8648 32.4427 47.5214 32.053 47.1765C31.6948 46.8597 31.3431 46.535 30.9799 46.2247C30.1982 45.5566 29.3311 45.5545 28.5558 46.2377C27.5782 47.0987 26.6142 47.9764 25.6444 48.8461C25.5655 48.9166 25.4844 48.9843 25.3839 49.07C24.5763 48.3471 23.776 47.6308 22.9749 46.9144C22.7259 46.6913 22.4789 46.4645 22.2277 46.2442C21.4474 45.5588 20.5538 45.5566 19.7764 46.2478C18.8562 47.0656 17.9424 47.8914 17.0258 48.7129C16.8952 48.8295 16.7595 48.9454 16.6152 49.0714ZM21.0412 36.7121C18.4033 36.7121 15.7646 36.7107 13.1267 36.7143C12.9501 36.7143 12.7664 36.7265 12.5977 36.7754C12.2424 36.8777 12.0091 37.224 12.0184 37.5904C12.0277 37.9662 12.2653 38.2866 12.6328 38.3759C12.8152 38.4205 13.0097 38.4335 13.1985 38.4335C18.4033 38.4364 23.608 38.4364 28.8128 38.4335C29.0016 38.4335 29.1961 38.4205 29.3784 38.3759C29.7086 38.2945 29.9075 38.0713 29.9678 37.7315C30.074 37.1333 29.6806 36.7143 28.9915 36.7135C26.3414 36.7099 23.6913 36.7121 21.0412 36.7121ZM21.0053 31.54C18.3788 31.54 15.7524 31.5386 13.126 31.5429C12.9494 31.5429 12.7642 31.5544 12.597 31.6055C12.0722 31.7661 11.8583 32.3953 12.1555 32.8589C12.3773 33.2052 12.7168 33.2664 13.0901 33.2664C18.3666 33.265 23.6432 33.2657 28.9198 33.2628C29.0849 33.2628 29.2557 33.2456 29.4129 33.1988C29.7962 33.085 30.0252 32.7128 29.9807 32.3139C29.9247 31.8136 29.5708 31.5414 28.9557 31.5414C26.3055 31.5386 23.6554 31.54 21.0053 31.54ZM17.1004 28.0922C18.4959 28.0922 19.8913 28.0951 21.2867 28.0907C21.7855 28.0893 22.115 27.8647 22.2241 27.473C22.3964 26.856 21.9714 26.3701 21.2422 26.3686C19.5245 26.3643 17.8075 26.3672 16.0898 26.3672C15.064 26.3672 14.0383 26.3636 13.0126 26.3686C12.495 26.3708 12.1498 26.6077 12.0521 27.0058C11.9028 27.612 12.3019 28.0864 12.986 28.09C14.3577 28.0972 15.7287 28.0922 17.1004 28.0922Z" fill="#D9F3FF"/>
<path d="M21.0409 36.7121C23.691 36.7121 26.3411 36.7099 28.9912 36.7135C29.6796 36.7142 30.0737 37.1332 29.9674 37.7315C29.9071 38.0713 29.7083 38.2945 29.3781 38.3759C29.1958 38.4205 29.0013 38.4335 28.8125 38.4335C23.6077 38.4363 18.4029 38.4363 13.1982 38.4335C13.0094 38.4335 12.8149 38.4205 12.6325 38.3759C12.265 38.2866 12.0274 37.9662 12.0181 37.5904C12.0088 37.2247 12.242 36.8777 12.5974 36.7754C12.766 36.7272 12.9498 36.7149 13.1264 36.7142C15.7643 36.7106 18.4022 36.7121 21.0409 36.7121Z" fill="#325BC2"/>
<path d="M21.0053 31.5398C23.6554 31.5398 26.3055 31.5391 28.9557 31.5406C29.5701 31.5413 29.9247 31.8127 29.9807 32.3131C30.0252 32.7126 29.7962 33.0841 29.4129 33.1979C29.2557 33.2447 29.0849 33.2612 28.9198 33.2619C23.6432 33.2648 18.3667 33.2641 13.0901 33.2655C12.7168 33.2655 12.3766 33.2043 12.1555 32.8581C11.8591 32.3944 12.073 31.7652 12.597 31.6046C12.7642 31.5535 12.9494 31.542 13.126 31.542C15.7524 31.5384 18.3789 31.5398 21.0053 31.5398Z" fill="#325BC2"/>
<path d="M17.1 28.0924C15.7282 28.0924 14.3565 28.0975 12.9848 28.0903C12.3015 28.0867 11.9024 27.6122 12.0509 27.006C12.1486 26.6079 12.4945 26.3718 13.0114 26.3689C14.0371 26.3639 15.0628 26.3675 16.0886 26.3675C17.8063 26.3675 19.5233 26.3646 21.241 26.3689C21.9702 26.3711 22.3952 26.857 22.2229 27.4733C22.1138 27.8642 21.7843 28.0888 21.2855 28.091C19.8908 28.0953 18.4954 28.0924 17.1 28.0924Z" fill="#325BC2"/>
</g>
</g>
<circle cx="40.3333" cy="27.3333" r="10.5833" fill="#D9F3FF" stroke="#325BC2" stroke-width="1.5"/>
<g clip-path="url(#clip1_1_15576)">
<path d="M39.7708 22C40.4707 22.0035 41.0512 22.0971 41.5991 22.3562C42.9239 22.9829 43.3703 24.343 42.6722 25.6313C42.3665 26.1953 41.9262 26.6408 41.4323 27.0401C41.3029 27.1447 41.1745 27.2514 41.053 27.3646C40.7303 27.666 40.5665 28.0422 40.5478 28.4817C40.5421 28.6119 40.543 28.7421 40.5404 28.8728C40.5338 29.2321 40.3784 29.4293 40.0273 29.4903C39.8649 29.5186 39.695 29.5278 39.5313 29.5151C39.1041 29.4816 38.9259 29.2961 38.8885 28.8719C38.7883 27.7404 39.1428 26.8132 40.0831 26.1269C40.3784 25.9113 40.6488 25.6522 40.8936 25.3795C41.1305 25.1152 41.2102 24.7794 41.1231 24.4245C41.0203 24.0042 40.6458 23.7364 40.084 23.6802C39.4089 23.6127 38.8449 23.7795 38.4647 24.4036C38.2182 24.8082 37.9312 24.8835 37.5232 24.7258C37.1434 24.5778 36.9505 24.2516 37.0106 23.8248C37.0946 23.2264 37.4622 22.8188 37.9469 22.5061C38.5305 22.1289 39.1859 22.0017 39.7708 22Z" fill="#325BC2"/>
<path d="M40.8131 31.6698C40.811 32.2812 40.304 32.7912 39.6956 32.7947C39.0811 32.7977 38.5759 32.2782 38.5816 31.6489C38.5873 31.0304 39.0911 30.5331 39.7056 30.5396C40.318 30.5461 40.8153 31.0539 40.8131 31.6698Z" fill="#325BC2"/>
</g>
<defs>
<clipPath id="clip0_1_15576">
<rect width="28" height="36.8" fill="white" transform="translate(7 14)"/>
</clipPath>
<clipPath id="clip1_1_15576">
<rect width="6" height="10.7945" fill="white" transform="translate(37 22)"/>
</clipPath>
</defs>
</svg>
