<svg xmlns="http://www.w3.org/2000/svg" width="261.449" height="221.136" viewBox="0 0 261.449 221.136">
  <g id="undraw_active_support_re_b7sj" transform="translate(0.001 0)">
    <path id="Path_9270" data-name="Path 9270" d="M595.154,242.032c8.673-6.407,20.885-8.863,30.439-3.865a49.683,49.683,0,0,0-24.724,23.5c-1.995,4.059-3.79,8.781-7.905,10.657a11.106,11.106,0,0,1-8.234,0,32.984,32.984,0,0,1-7.336-4.128l-.7-.084C580.836,258.155,586.48,248.44,595.154,242.032Z" transform="translate(-455.32 -210.972)" fill="#f0f0f0"/>
    <path id="Path_9271" data-name="Path 9271" d="M625.741,241.969a42.466,42.466,0,0,0-24.6,8.812,18.288,18.288,0,0,0-4.007,4.1,10.488,10.488,0,0,0-1.729,5.242,21.71,21.71,0,0,1-.6,5.22,6.422,6.422,0,0,1-3.584,3.839,16.685,16.685,0,0,1-6.545,1.119c-2.467.061-5.03.086-7.273,1.247-.272.141-.474-.289-.2-.43,3.9-2.021,8.464-.7,12.566-1.905a6.5,6.5,0,0,0,4.439-3.612,16.841,16.841,0,0,0,.712-5.288,11.192,11.192,0,0,1,1.5-5.189,16.906,16.906,0,0,1,3.835-4.234,41.2,41.2,0,0,1,11.148-6.444,43.217,43.217,0,0,1,14.381-2.946c.3-.009.261.464-.042.473Z" transform="translate(-455.545 -214.56)" fill="#fff"/>
    <path id="Path_9272" data-name="Path 9272" d="M641.237,247.742a6.371,6.371,0,0,1,1.5-8.113c.238-.192.548.168.31.36a5.9,5.9,0,0,0-1.377,7.55c.154.264-.277.466-.43.2Z" transform="translate(-493.464 -213.409)" fill="#fff"/>
    <path id="Path_9273" data-name="Path 9273" d="M622.181,284.321a12.28,12.28,0,0,0,8.9-.9c.272-.14.475.29.2.43a12.773,12.773,0,0,1-9.268.915C621.726,284.685,621.888,284.238,622.181,284.321Z" transform="translate(-482.37 -239.654)" fill="#fff"/>
    <path id="Path_9274" data-name="Path 9274" d="M673.374,245.733a3.606,3.606,0,0,0,2.48,2.358c.3.08.133.526-.16.447a4.041,4.041,0,0,1-2.749-2.6.246.246,0,0,1,.113-.316A.239.239,0,0,1,673.374,245.733Z" transform="translate(-512.949 -217.017)" fill="#fff"/>
    <path id="Path_9275" data-name="Path 9275" d="M632.277,308.43c-.186-.044-.372-.089-.561-.131a47.5,47.5,0,0,0-7.62-1.136c-.2-.016-.4-.03-.6-.041a50.069,50.069,0,0,0-18.281,2.372,48.62,48.62,0,0,0-6.83,2.817c-3.041,1.534-6.216,3.439-9.49,3.867a8.341,8.341,0,0,1-1.029.082l-12.111-12.744c-.013-.043-.029-.083-.042-.126l-.507-.487c.109-.065.225-.13.334-.2.063-.038.13-.073.193-.111.043-.025.086-.049.124-.073l.04-.022c.038-.025.075-.043.11-.065q.963-.55,1.937-1.088s0,0,.008,0a71.5,71.5,0,0,1,15.595-6.52c.163-.044.329-.091.5-.129a46.4,46.4,0,0,1,7.453-1.334,41.016,41.016,0,0,1,4.147-.172,34.107,34.107,0,0,1,10.515,1.782c6.757,2.277,12.711,6.69,15.879,12.976C632.121,308.108,632.2,308.266,632.277,308.43Z" transform="translate(-454.429 -245.518)" fill="#f0f0f0"/>
    <path id="Path_9276" data-name="Path 9276" d="M632.529,319.18a42.466,42.466,0,0,0-24.944-7.773,18.287,18.287,0,0,0-5.665.857,10.489,10.489,0,0,0-4.537,3.145,21.712,21.712,0,0,1-3.623,3.806,6.422,6.422,0,0,1-5.173.907,16.685,16.685,0,0,1-5.9-3.047c-2.006-1.436-4.068-2.96-6.558-3.383-.3-.051-.2-.517.1-.465,4.333.736,7.181,4.535,11.18,6.045a6.5,6.5,0,0,0,5.72-.212,16.844,16.844,0,0,0,3.752-3.794,11.192,11.192,0,0,1,4.321-3.24,16.907,16.907,0,0,1,5.611-1.072,41.2,41.2,0,0,1,12.781,1.567,43.219,43.219,0,0,1,13.256,6.306c.249.176-.071.528-.318.353Z" transform="translate(-454.87 -256.144)" fill="#fff"/>
    <path id="Path_9277" data-name="Path 9277" d="M661.982,303.3a6.371,6.371,0,0,1,6.08-5.577c.306-.011.336.464.03.474a5.9,5.9,0,0,0-5.645,5.2c-.036.3-.5.205-.465-.1Z" transform="translate(-506.395 -248.232)" fill="#fff"/>
    <path id="Path_9278" data-name="Path 9278" d="M629.96,320.1a12.28,12.28,0,0,0,7.65,4.645c.3.052.2.518-.1.465a12.773,12.773,0,0,1-7.95-4.849c-.185-.244.213-.5.4-.261Z" transform="translate(-486.952 -261.577)" fill="#fff"/>
    <path id="Path_9279" data-name="Path 9279" d="M694.6,319.011a3.606,3.606,0,0,0,.561,3.376c.188.242-.21.5-.4.261a4.042,4.042,0,0,1-.629-3.733.246.246,0,0,1,.281-.184A.239.239,0,0,1,694.6,319.011Z" transform="translate(-525.527 -260.813)" fill="#fff"/>
    <path id="Path_9280" data-name="Path 9280" d="M489.833,214.938h-.939V189.226a14.881,14.881,0,0,0-14.881-14.881H419.54a14.881,14.881,0,0,0-14.881,14.881V330.281a14.881,14.881,0,0,0,14.881,14.881h54.473a14.881,14.881,0,0,0,14.881-14.881V233.239h.939Z" transform="translate(-352.288 -174.345)" fill="#3f3d56"/>
    <path id="Path_9281" data-name="Path 9281" d="M480.745,184h-7.111a5.28,5.28,0,0,1-4.888,7.274H437.539A5.28,5.28,0,0,1,432.651,184h-6.642A11.113,11.113,0,0,0,414.9,195.11V335.958a11.113,11.113,0,0,0,11.113,11.113h54.736a11.113,11.113,0,0,0,11.113-11.113h0V195.11A11.113,11.113,0,0,0,480.746,184Z" transform="translate(-358.419 -180.125)" fill="#fff"/>
    <path id="Path_9282" data-name="Path 9282" d="M467.639,386.123a30.689,30.689,0,1,1,30.271-25.674,30.656,30.656,0,0,1-30.271,25.674Zm0-60.167a29.156,29.156,0,0,0-13.388,3.211,29.5,29.5,0,1,0,13.388-3.211Z" transform="translate(-371.629 -264.422)" fill="#f0f0f0"/>
    <path id="Path_9283" data-name="Path 9283" d="M337.832,333.286a5.806,5.806,0,0,1,4.823,7.484l10.2,8.492-3.649,7.454-14.229-12.195a5.838,5.838,0,0,1,2.861-11.236Z" transform="translate(-308.312 -269.502)" fill="#ffb6b6"/>
    <path id="Path_9284" data-name="Path 9284" d="M442.371,382.39a30.565,30.565,0,0,0-1.767-7.61c-2.2-5.771-16.452-10.514-18.365-11.126l-.485-5.395-19.795-2.13-2.511,6.9-7.1,2.663a3.487,3.487,0,0,0-2.078,2.13h0l-6.37,1.841-6.285,1.817L355.78,356.093l-1.031.674-6.891,4.5-1.063.694,28.258,25.495,10.5-2.463,7.894-1.857.674,2.736-1.745,9.611a30.074,30.074,0,0,0,38.892,3.109l4.484-3.979a30.038,30.038,0,0,0,6.743-11.845Z" transform="translate(-317.634 -283.192)" fill="#5c98e9"/>
    <circle id="Ellipse_101" data-name="Ellipse 101" cx="14.252" cy="14.252" r="14.252" transform="translate(77.953 45.945) rotate(-18.319)" fill="#ffb6b6"/>
    <path id="Path_9285" data-name="Path 9285" d="M481.048,264.87a9.62,9.62,0,0,1,5.825-3.88,9.184,9.184,0,0,1,6.773,1.242,13.87,13.87,0,0,1,6.861-1.168,7.315,7.315,0,0,1,5.659,3.723,10.174,10.174,0,0,0,.818,1.588c.944,1.26,2.7,1.423,4.249,1.484l-2.351,1.371,2.343,1.092-3.189,1.217c2.474,2.175,3.073,6.046,2.136,9.291a18.518,18.518,0,0,1-5.191,7.873c-.443-1.652.044-3.444.369-5.154.343-1.807.4-3.921-.868-5.2a5.9,5.9,0,0,0-3.287-1.33,159.512,159.512,0,0,0-18-2.138,5.093,5.093,0,0,0-2.4.245c-1.469.653-2.059,2.446-2.485,4.036a32,32,0,0,1,.485-8.344A15.285,15.285,0,0,1,481.048,264.87Z" transform="translate(-396.343 -226.123)" fill="#2f2e41"/>
    <path id="Path_9286" data-name="Path 9286" d="M503.007,507.207H486.16a2.206,2.206,0,0,1,0-4.412h16.847a2.206,2.206,0,0,1,0,4.412Z" transform="translate(-399.777 -371.05)" fill="#5c98e9"/>
    <path id="Path_9287" data-name="Path 9287" d="M322.043,214.657H275.7a1.612,1.612,0,0,1,0-3.223h46.338a1.612,1.612,0,1,1,0,3.223Z" transform="translate(-274.094 -196.557)" fill="#5c98e9"/>
    <path id="Path_9288" data-name="Path 9288" d="M348.8,240.321H275.7a1.612,1.612,0,1,1,0-3.223H348.8a1.612,1.612,0,0,1,0,3.223Z" transform="translate(-274.094 -211.926)" fill="#5c98e9"/>
    <path id="Path_9289" data-name="Path 9289" d="M334.752,264.5H275.706a1.612,1.612,0,0,1,0-3.223h59.046a1.612,1.612,0,1,1,0,3.223Z" transform="translate(-274.094 -226.406)" fill="#cacaca"/>
    <path id="Path_9290" data-name="Path 9290" d="M309,288.587h-33.3a1.612,1.612,0,0,1,0-3.223H309a1.612,1.612,0,1,1,0,3.223Z" transform="translate(-274.094 -240.832)" fill="#cacaca"/>
    <path id="Path_9291" data-name="Path 9291" d="M327.394,312.673H275.7a1.612,1.612,0,1,1,0-3.223h51.689a1.612,1.612,0,0,1,0,3.223Z" transform="translate(-274.094 -255.257)" fill="#cacaca"/>
    <path id="Path_9292" data-name="Path 9292" d="M486.909,512.308h-4.153l-1.976-16.02h6.13Z" transform="translate(-287.934 -297.221)" fill="#9f616a"/>
    <path id="Path_9293" data-name="Path 9293" d="M750.552,712.105H734.7v-.2a6.172,6.172,0,0,1,6.171-6.172h0l2.9-2.2,5.4,2.2h1.384Z" transform="translate(-549.944 -491.271)" fill="#2f2e41"/>
    <path id="Path_9294" data-name="Path 9294" d="M759.237,474.353l-1.832-22.333-1.439-8.383,8.057-1.779,2.674,11.476-2.329,21.639a3.726,3.726,0,1,1-5.13-.62Z" transform="translate(-562.683 -334.555)" fill="#9f616a"/>
    <path id="Path_9295" data-name="Path 9295" d="M431.909,512.308h-4.153l-1.976-16.02h6.13Z" transform="translate(-254.996 -297.221)" fill="#9f616a"/>
    <path id="Path_9296" data-name="Path 9296" d="M693.6,534.724l-1.841,3.185s-2.023.553-1.362,7.147.69,45.666,3.89,50.474l.579,4.129,6.044.578.152-3.663,7.206-50.895s4.244,49.962,7.755,51.185l1.268,4.163,5.538,0-.327-4.905.357-61.915Z" transform="translate(-523.336 -389.863)" fill="#2f2e41"/>
    <path id="Path_9297" data-name="Path 9297" d="M693.347,451.179l-.127-.033c3.8-14.214,2.7-32.62.021-52.384v-.082l9.7-8.885h8.423l8.35,5.389a13.335,13.335,0,0,1,6.637,8.473l.008.041-3.308,11.546,2.492,33.39,0,.039-.014.036c-.806,2.045-2.967,1.754-5.47,1.416s-11.7,2.743-14.525,2.743A57.109,57.109,0,0,1,693.347,451.179Z" transform="translate(-525.104 -303.376)" fill="#e4e4e4"/>
    <path id="Path_9298" data-name="Path 9298" d="M753.441,412.1l3.619-1.574,4.768,5.845,3.864,18.731L752.455,433.1Z" transform="translate(-560.579 -315.79)" fill="#e4e4e4"/>
    <path id="Path_9299" data-name="Path 9299" d="M609.125,468.632l16.542-15.116,5.749-6.268,6.338,5.283-7.441,9.138-18.539,11.4a3.726,3.726,0,1,1-2.649-4.437Z" transform="translate(-471.922 -337.783)" fill="#9f616a"/>
    <path id="Path_9300" data-name="Path 9300" d="M656.5,432.583l4.582-5.95c.038-.085,3.839-8.58,7.134-12.27,3.38-3.786,6.041-1.85,6.067-1.829l.066.05.184,13.981-12.686,15.159Z" transform="translate(-503.111 -316.686)" fill="#e4e4e4"/>
    <circle id="Ellipse_102" data-name="Ellipse 102" cx="7.722" cy="7.722" r="7.722" transform="translate(172.353 83.198) rotate(-80.783)" fill="#9f616a"/>
    <path id="Path_9301" data-name="Path 9301" d="M706.5,347.445a22.461,22.461,0,0,0-.405-3.916c-.343-1.2-1.03-2.231-.686-2.231s.515-.858.515-.858.343-.172.515,0,.343-1.2.343-1.2.172-.515.343-.172.172.172.343-.343,1.03-.858,1.03-.858,3.26.172,3.775-.515,6.349-.172,7.55.686,6.521,3.947,5.663,6.521-3.328,8.5-3.947,9.094c-.979.94-1.656,1.278-6.287,2.2-.906.18-5.532-2.778-5.532-3.293s.558-2.147-.339-2.371c-1.355-.339-1.508,1.374-1.851.86A24.523,24.523,0,0,1,706.5,347.445Z" transform="translate(-532.35 -271.778)" fill="#2f2e41"/>
    <path id="Path_9302" data-name="Path 9302" d="M695.552,712.105H679.7v-.2a6.172,6.172,0,0,1,6.171-6.172h0l2.9-2.2,5.4,2.2h1.384Z" transform="translate(-517.005 -491.271)" fill="#2f2e41"/>
    <path id="Path_9303" data-name="Path 9303" d="M536.345,724.229H276.709a.478.478,0,1,1,0-.955H536.345a.478.478,0,1,1,0,.955Z" transform="translate(-275.374 -503.092)" fill="#cacaca"/>
  </g>
</svg>
