<svg width="150" height="150" viewBox="0 0 568 568" fill="none" xmlns="http://www.w3.org/2000/svg">
<path d="M567.84 283.755C567.839 339.841 551.207 394.668 520.047 441.301C488.887 487.935 444.598 524.281 392.782 545.744C340.965 567.207 283.947 572.822 228.939 561.88C173.931 550.938 123.402 523.929 83.7438 484.27C44.0852 444.611 17.0774 394.083 6.13578 339.075C-4.80586 284.066 0.810062 227.049 22.2734 175.232C43.7367 123.415 80.0834 79.1269 126.717 47.9673C173.351 16.8076 228.178 0.176209 284.264 0.176209C321.504 0.175851 358.379 7.51062 392.785 21.7617C427.19 36.0128 458.451 56.9011 484.784 83.234C511.117 109.567 532.005 140.829 546.255 175.234C560.506 209.64 567.841 246.515 567.84 283.755Z" fill="white"/>
<path d="M455.434 229.12L563.091 232.276C553.244 178.2 527.782 128.189 489.846 88.414H455.434V229.12Z" fill="#1139BC"/>
<path d="M161.029 356.537L3.13574 321.196C9.78921 371.528 29.8859 419.135 61.3113 459.01L131.872 484.057L161.029 356.537Z" fill="#FFD143"/>
<path d="M274.956 218.792C274.451 223.848 279.066 228.438 285.253 229.054C291.434 229.664 296.855 226.056 297.356 221.008L305.304 140.77C305.805 135.717 301.191 131.119 295.013 130.508C288.82 129.898 283.405 133.506 282.906 138.554L274.956 218.792Z" fill="#F6B968"/>
<path d="M275.278 219.053L275.243 135.38C275.515 132.668 285.196 129.477 287.646 128.021L280.099 220.336C279.536 222.402 279.129 224.508 278.881 226.635C277.688 225.78 276.731 224.635 276.101 223.309C275.471 221.983 275.188 220.518 275.278 219.053Z" fill="#EEAA59"/>
<path d="M253.771 231.446C253.477 236.513 258.266 240.928 264.474 241.288C270.677 241.647 275.954 237.826 276.248 232.76L281.427 151.055C281.721 145.985 276.464 142.775 270.252 142.412C264.046 142.053 258.778 145.868 258.478 150.938L253.771 231.446Z" fill="#F6B968"/>
<path d="M253.797 231.093L258.313 148.581C258.585 145.875 263.712 145.875 266.168 144.425L257.152 235.44C257.062 236.529 257.146 237.626 257.402 238.689C256.207 237.832 255.249 236.685 254.619 235.356C253.988 234.028 253.705 232.561 253.797 231.093Z" fill="#EEAA59"/>
<path d="M231.111 233.315C230.808 238.387 235.602 242.799 241.808 243.162C248.017 243.524 253.296 239.706 253.591 234.631L258.298 154.134C258.605 149.053 253.809 144.646 247.6 144.284C241.399 143.921 236.126 147.74 235.826 152.809L231.111 233.315Z" fill="#F6B968"/>
<path d="M497.585 210.083C498.377 209.352 499.326 208.813 500.36 208.51L500.758 201.857C500.767 201.525 500.842 201.197 500.98 200.895C501.118 200.592 501.315 200.32 501.56 200.095C501.805 199.87 502.093 199.696 502.406 199.585C502.72 199.473 503.052 199.425 503.384 199.445C503.717 199.464 504.041 199.55 504.34 199.697C504.638 199.845 504.904 200.05 505.121 200.302C505.338 200.554 505.502 200.847 505.604 201.164C505.706 201.481 505.743 201.815 505.713 202.146L505.315 208.78C506.215 209.169 507.024 209.742 507.689 210.462C508.651 211.499 509.284 212.798 509.508 214.195C509.732 215.592 509.536 217.023 508.946 218.309C508.356 219.595 507.398 220.677 506.193 221.418C504.988 222.159 503.59 222.526 502.176 222.473C500.763 222.419 499.397 221.948 498.251 221.118C497.105 220.288 496.231 219.137 495.74 217.81C495.248 216.484 495.161 215.041 495.49 213.665C495.818 212.289 496.548 211.042 497.585 210.08V210.083Z" fill="#E2E2E2"/>
<path d="M521.554 208.19L521.944 201.526C522.001 200.883 522.307 200.288 522.796 199.867C523.285 199.446 523.918 199.231 524.563 199.269C525.207 199.307 525.811 199.594 526.247 200.07C526.683 200.546 526.917 201.172 526.899 201.818L526.509 208.457C527.407 208.847 528.214 209.418 528.88 210.136C529.841 211.173 530.472 212.471 530.695 213.867C530.918 215.263 530.722 216.693 530.132 217.978C529.542 219.262 528.584 220.343 527.38 221.083C526.177 221.824 524.78 222.191 523.368 222.138C521.955 222.085 520.59 221.614 519.445 220.786C518.3 219.957 517.426 218.808 516.934 217.483C516.442 216.158 516.353 214.717 516.68 213.342C517.006 211.967 517.733 210.719 518.769 209.757C519.565 209.028 520.518 208.492 521.554 208.19Z" fill="#E2E2E2"/>
<path d="M543.029 207.772L543.419 201.113C543.428 200.781 543.504 200.454 543.642 200.152C543.78 199.849 543.978 199.578 544.223 199.353C544.468 199.128 544.756 198.955 545.069 198.844C545.382 198.733 545.715 198.685 546.046 198.705C546.378 198.724 546.703 198.81 547.001 198.958C547.299 199.105 547.564 199.311 547.781 199.563C547.998 199.814 548.163 200.107 548.264 200.424C548.366 200.74 548.403 201.074 548.373 201.405L547.986 208.039C549.076 208.513 550.03 209.251 550.761 210.187C551.493 211.123 551.98 212.227 552.177 213.398C552.374 214.57 552.276 215.772 551.891 216.896C551.507 218.02 550.847 219.03 549.973 219.835C549.284 220.474 548.476 220.97 547.595 221.297C546.714 221.623 545.777 221.773 544.838 221.737C543.899 221.701 542.976 221.481 542.123 221.089C541.269 220.696 540.501 220.14 539.862 219.451C539.223 218.761 538.726 217.953 538.4 217.072C538.074 216.191 537.924 215.254 537.96 214.315C537.995 213.376 538.216 212.454 538.608 211.6C539 210.746 539.557 209.978 540.246 209.339C541.041 208.61 541.993 208.074 543.029 207.772Z" fill="#E2E2E2"/>
<path d="M528.012 210.899C528.969 211.925 529.601 213.212 529.826 214.597C530.052 215.981 529.861 217.402 529.279 218.678C528.696 219.955 527.748 221.029 526.554 221.766C525.36 222.503 523.974 222.869 522.572 222.817C521.169 222.766 519.814 222.299 518.678 221.476C517.541 220.654 516.674 219.512 516.187 218.196C515.7 216.88 515.614 215.45 515.941 214.085C516.268 212.721 516.992 211.484 518.023 210.532C518.703 209.9 519.501 209.408 520.371 209.085C521.241 208.761 522.166 208.612 523.094 208.646C524.021 208.681 524.933 208.897 525.777 209.284C526.621 209.67 527.38 210.219 528.012 210.899Z" fill="white"/>
<path d="M549.314 210.643C550.272 211.668 550.904 212.955 551.13 214.34C551.356 215.726 551.165 217.147 550.582 218.423C550 219.7 549.051 220.775 547.856 221.512C546.662 222.248 545.276 222.614 543.873 222.562C542.471 222.51 541.115 222.042 539.979 221.219C538.842 220.396 537.976 219.253 537.489 217.937C537.003 216.621 536.918 215.19 537.246 213.825C537.574 212.46 538.299 211.224 539.331 210.272C540.707 209.003 542.529 208.33 544.399 208.399C546.27 208.468 548.037 209.275 549.314 210.643Z" fill="white"/>
<path d="M506.889 211.17C507.841 212.194 508.468 213.478 508.69 214.859C508.912 216.239 508.72 217.655 508.137 218.926C507.555 220.197 506.609 221.267 505.418 222.001C504.228 222.734 502.847 223.098 501.449 223.047C500.052 222.995 498.701 222.531 497.568 221.712C496.435 220.893 495.57 219.756 495.083 218.445C494.596 217.134 494.508 215.709 494.831 214.348C495.154 212.988 495.873 211.754 496.898 210.802C497.577 210.168 498.375 209.675 499.245 209.35C500.116 209.025 501.042 208.876 501.97 208.91C502.898 208.944 503.811 209.161 504.655 209.549C505.499 209.937 506.259 210.488 506.889 211.17Z" fill="white"/>
<path d="M306.996 105.181C300.728 107.396 227.101 147.093 225.06 157.709C223.321 166.728 223.97 222.78 224.444 238.198C224.444 238.686 224.444 240.13 224.444 240.13C224.829 243.186 226.317 245.996 228.627 248.033C230.937 250.07 233.911 251.194 236.991 251.194C240.07 251.194 243.044 250.07 245.354 248.033C247.665 245.996 249.152 243.186 249.537 240.13V175.741C249.934 174.233 250.648 172.827 251.631 171.617C255.912 167.943 291.714 151.16 308.866 150.015L330.223 126.224L307.759 105.02C307.501 105.053 307.246 105.107 306.996 105.181Z" fill="#FFCC90"/>
<path d="M232.957 241.436C231.747 241.978 230.439 242.267 229.114 242.284C229.114 242.284 229.114 242.284 229.098 242.284C229.081 242.284 229.084 242.284 229.076 242.284C227.733 242.28 226.405 242.013 225.165 241.499C224.922 236.279 224.511 228.471 225.873 225.435C226.026 224.93 226.336 224.488 226.759 224.174C227.183 223.86 227.696 223.69 228.223 223.69C228.223 223.69 228.242 223.69 228.247 223.69V223.704C228.789 223.704 229.318 223.866 229.766 224.17C230.214 224.475 230.561 224.907 230.76 225.41C232.42 228.397 232.717 236.214 232.957 241.436Z" fill="#FFE0BC"/>
<path d="M227.235 155.291C227.122 155.483 227.088 155.711 227.139 155.928C227.189 156.145 227.321 156.335 227.508 156.457L231.983 159.51C232.162 159.632 232.382 159.679 232.595 159.639C232.808 159.599 232.997 159.476 233.12 159.297C233.234 159.105 233.269 158.876 233.218 158.659C233.167 158.441 233.034 158.252 232.847 158.131L228.388 155.078C228.3 155.014 228.201 154.969 228.095 154.945C227.989 154.921 227.88 154.919 227.773 154.938C227.667 154.958 227.565 154.999 227.475 155.059C227.385 155.119 227.308 155.197 227.249 155.288L227.235 155.291Z" fill="#FFE0BC"/>
<path d="M225.429 158.151C225.315 158.343 225.279 158.571 225.326 158.789C225.373 159.007 225.5 159.199 225.682 159.328L230.152 162.378C230.241 162.439 230.341 162.482 230.446 162.504C230.551 162.527 230.66 162.528 230.766 162.508C230.872 162.488 230.973 162.448 231.063 162.389C231.153 162.33 231.231 162.254 231.291 162.165C231.404 161.973 231.438 161.746 231.388 161.529C231.337 161.312 231.205 161.123 231.019 161.001L226.554 157.944C226.468 157.88 226.369 157.835 226.264 157.811C226.16 157.787 226.051 157.785 225.946 157.805C225.84 157.824 225.74 157.865 225.65 157.924C225.561 157.984 225.485 158.061 225.426 158.151H225.429Z" fill="#FFE0BC"/>
<path d="M160.215 170.437L140.89 277.093L374.992 319.51L394.317 212.854L160.215 170.437Z" fill="#C1E4EA"/>
<path d="M366.505 309.664L152.282 270.853L168.692 180.285L382.915 219.099L366.505 309.664ZM161.897 264.189L359.841 300.054L373.308 225.757L175.356 189.889L161.897 264.189Z" fill="#2A7B6D"/>
<path d="M213.851 235.235C213.359 237.939 212.076 240.437 210.165 242.412C208.254 244.387 205.8 245.751 203.114 246.332C200.428 246.913 197.63 246.685 195.073 245.676C192.517 244.667 190.317 242.923 188.751 240.664C187.186 238.405 186.325 235.732 186.278 232.985C186.231 230.237 186.999 227.536 188.487 225.225C189.974 222.914 192.113 221.095 194.633 219.999C197.153 218.903 199.942 218.579 202.647 219.068C204.445 219.392 206.161 220.068 207.697 221.057C209.233 222.045 210.56 223.327 211.601 224.829C212.641 226.33 213.376 228.022 213.762 229.808C214.148 231.594 214.178 233.438 213.851 235.235Z" fill="#2A7B6D"/>
<path d="M348.725 259.676C348.232 262.379 346.949 264.876 345.038 266.85C343.126 268.825 340.673 270.188 337.987 270.769C335.301 271.349 332.503 271.121 329.947 270.112C327.391 269.103 325.192 267.359 323.626 265.101C322.061 262.842 321.2 260.171 321.152 257.423C321.105 254.676 321.873 251.976 323.359 249.664C324.845 247.353 326.983 245.534 329.503 244.437C332.022 243.341 334.811 243.015 337.515 243.503C339.314 243.827 341.031 244.503 342.569 245.491C344.106 246.48 345.433 247.762 346.474 249.264C347.516 250.766 348.25 252.459 348.637 254.246C349.023 256.032 349.053 257.878 348.725 259.676Z" fill="#2A7B6D"/>
<path d="M299.545 250.758C298.402 257.075 295.411 262.911 290.952 267.528C286.492 272.145 280.763 275.336 274.49 276.697C268.216 278.058 261.68 277.529 255.708 275.176C249.736 272.823 244.595 268.751 240.936 263.477C237.278 258.202 235.265 251.961 235.153 245.543C235.042 239.125 236.835 232.817 240.308 227.418C243.781 222.02 248.776 217.772 254.663 215.212C260.55 212.652 267.064 211.895 273.381 213.037C277.576 213.796 281.58 215.373 285.165 217.679C288.751 219.985 291.847 222.975 294.276 226.478C296.706 229.981 298.422 233.928 299.326 238.094C300.23 242.26 300.304 246.563 299.545 250.758Z" fill="#2A7B6D"/>
<path d="M307.768 105.018L308.877 150.011C311.589 149.523 314.386 150.074 316.71 151.556C328.206 161.967 326.955 170.484 318.678 183.79C313.848 191.561 307.304 199.225 299.474 213.85C282.208 246.139 293.958 247.373 299.978 251.189C310.801 258.079 328.847 217.938 343.777 206.902C363.973 191.978 390.772 173.447 390.772 173.447H455.429V105.182C455.429 105.182 320.531 103.08 307.768 105.018Z" fill="#FFCC90"/>
<path d="M307.779 244.978C305.419 243.85 303.183 242.48 301.107 240.889C301.088 240.889 301.088 240.873 301.075 240.865C301.061 240.857 301.053 240.865 301.047 240.838C298.972 239.246 297.07 237.442 295.37 235.455C298.545 231.301 303.22 225.03 307.452 224.463C308.338 224.382 309.232 224.482 310.078 224.757C310.924 225.032 311.705 225.476 312.374 226.063H312.388C312.402 226.063 312.402 226.063 312.41 226.085C312.418 226.106 312.434 226.104 312.448 226.104C313.189 226.598 313.821 227.239 314.307 227.986C314.792 228.732 315.12 229.57 315.272 230.448C315.819 234.689 310.96 240.83 307.779 244.978Z" fill="#FFE0BC"/>
<path d="M320.035 200.546C319.795 200.928 320.228 201.636 321.024 202.157L330.144 208.058C330.931 208.567 331.779 208.671 332.011 208.303C332.264 207.924 331.814 207.213 331.018 206.692L321.918 200.791C321.128 200.274 320.283 200.17 320.035 200.549V200.546Z" fill="#FFE0BC"/>
<path d="M318.202 203.391C317.951 203.775 318.398 204.495 319.175 205.004L328.286 210.905C329.082 211.415 329.921 211.526 330.167 211.156C330.409 210.771 329.965 210.049 329.175 209.534L320.066 203.631C319.276 203.124 318.431 203.015 318.202 203.391Z" fill="#FFE0BC"/>
<path d="M455.434 92.2041H420.019V200.136H455.434V92.2041Z" fill="#F2EBEC"/>
<path d="M309.868 408.593C308.584 410.71 306.512 412.23 304.107 412.82C301.703 413.41 299.162 413.021 297.044 411.739C294.926 410.453 293.405 408.379 292.816 405.972C292.228 403.565 292.619 401.023 293.905 398.904L312.31 368.572C312.945 367.524 313.781 366.61 314.77 365.885C315.759 365.159 316.88 364.635 318.072 364.343C319.263 364.051 320.499 363.996 321.712 364.182C322.924 364.368 324.087 364.791 325.136 365.427C327.249 366.711 328.767 368.781 329.355 371.183C329.944 373.584 329.556 376.121 328.276 378.237L309.868 408.593Z" fill="#F6B968"/>
<path d="M271.643 427.164C266.892 429.178 249.395 431.958 247.386 427.199L243.251 422.795C241.237 418.052 234.745 402.678 238.983 405.624C260.539 420.579 297.055 396.153 297.055 396.153C298.185 395.676 299.397 395.426 300.622 395.418C301.848 395.409 303.064 395.642 304.199 396.104C305.335 396.565 306.369 397.246 307.241 398.107C308.114 398.968 308.808 399.992 309.285 401.122C310.247 403.4 310.266 405.968 309.335 408.259C308.405 410.551 306.603 412.38 304.324 413.343L271.643 427.164Z" fill="#F6B968"/>
<path d="M282.05 418.884L312.799 401.877C313.809 401.326 314.704 400.586 315.435 399.697C316.41 398.882 317.198 397.866 317.743 396.718L328.55 369.338C329.291 367.792 313.287 394.24 313.287 394.24L265.97 423.346C271.53 422.708 276.956 421.203 282.05 418.884Z" fill="#EEAA59"/>
<path d="M332.844 405.055C331.819 407.31 329.94 409.064 327.621 409.933C325.302 410.802 322.733 410.714 320.479 409.689C318.224 408.663 316.47 406.784 315.601 404.464C314.732 402.145 314.82 399.575 315.845 397.321L330.528 365.015C331.554 362.763 333.432 361.01 335.749 360.141C338.066 359.273 340.634 359.359 342.888 360.382C345.142 361.409 346.896 363.288 347.764 365.607C348.633 367.926 348.546 370.496 347.521 372.75L332.844 405.055Z" fill="#F6B968"/>
<path d="M297.077 428.02C292.596 430.58 275.545 435.412 273.002 430.934L268.369 427.045C265.815 422.564 270.304 421.395 274.779 418.827L318.638 394.214C319.703 393.604 320.877 393.211 322.094 393.057C323.311 392.902 324.546 392.989 325.729 393.312C326.913 393.635 328.02 394.189 328.99 394.941C329.959 395.692 330.77 396.628 331.377 397.694C331.985 398.759 332.378 399.933 332.533 401.149C332.687 402.366 332.6 403.601 332.278 404.784C331.955 405.967 331.402 407.075 330.65 408.044C329.899 409.013 328.964 409.825 327.899 410.433L297.077 428.02Z" fill="#F6B968"/>
<path d="M297.347 419.881L328.099 402.885C329.105 402.327 330 401.588 330.737 400.704C331.706 399.875 332.492 398.855 333.046 397.706L347.807 366.696C348.511 365.221 348.776 363.574 348.57 361.953L328.581 395.237L281.242 424.353C286.812 423.717 292.247 422.207 297.347 419.881Z" fill="#EEAA59"/>
<path d="M349.003 405.231C347.976 407.484 346.097 409.237 343.779 410.106C341.461 410.974 338.892 410.888 336.638 409.865C334.385 408.839 332.631 406.96 331.763 404.642C330.894 402.324 330.981 399.756 332.004 397.502L346.689 365.199C347.196 364.082 347.918 363.076 348.814 362.239C349.711 361.401 350.763 360.749 351.911 360.318C353.06 359.888 354.282 359.688 355.508 359.731C356.734 359.773 357.939 360.057 359.055 360.566C361.309 361.592 363.064 363.471 363.933 365.791C364.802 368.11 364.714 370.68 363.688 372.934L349.003 405.231Z" fill="#F6B968"/>
<path d="M313.242 428.195C308.758 430.755 291.71 435.59 289.159 431.106L284.526 427.212C281.969 422.736 286.461 421.556 290.936 419.008L334.795 394.386C335.859 393.778 337.033 393.386 338.249 393.232C339.465 393.078 340.699 393.165 341.881 393.488C343.063 393.812 344.17 394.365 345.138 395.117C346.106 395.869 346.917 396.804 347.523 397.869C348.132 398.933 348.525 400.107 348.68 401.323C348.835 402.539 348.749 403.774 348.427 404.957C348.104 406.14 347.552 407.247 346.801 408.216C346.05 409.186 345.115 409.997 344.051 410.605L313.242 428.195Z" fill="#F6B968"/>
<path d="M340.256 430.88C335.35 434.93 327.468 433.48 322.65 427.642C321.568 426.448 320.741 425.046 320.217 423.522C319.693 421.999 319.483 420.384 319.601 418.777C319.719 417.17 320.162 415.604 320.903 414.173C321.644 412.742 322.667 411.476 323.912 410.453L364.827 379.06C370.94 375.005 379.217 372.203 383.36 377.589C388.746 384.55 382.572 392.015 375.639 398.531L340.256 430.88Z" fill="#FFCC90"/>
<path d="M323.913 410.447C318.639 413.093 270.643 422.251 264.922 413.717C257.408 402.543 260.245 395.642 269.997 386.163C275.685 380.627 282.807 375.533 292.458 364.855C313.752 341.279 304.671 337.071 299.849 333.299C291.073 326.444 268.593 355.264 253.696 361.442C233.568 369.777 207.12 379.788 207.12 379.788L161.035 368.918L148.598 426.456C148.598 426.456 257.656 455.346 263.404 454.801C268.582 454.305 325.273 441.362 340.105 431.005L325.204 409.245C324.854 409.724 324.416 410.132 323.913 410.447Z" fill="#FFCC90"/>
<path d="M160.248 359.977L137.872 457.803L169.967 465.144L192.343 367.318L160.248 359.977Z" fill="#F2EBEC"/>
<path d="M114.454 456.712C113.942 455.849 113.241 455.112 112.404 454.559L113.854 448.538C113.929 448.242 113.945 447.934 113.901 447.633C113.856 447.331 113.752 447.04 113.595 446.779C113.437 446.517 113.23 446.29 112.984 446.109C112.738 445.928 112.459 445.798 112.162 445.726C111.865 445.654 111.557 445.641 111.256 445.689C110.955 445.737 110.666 445.844 110.406 446.004C110.146 446.164 109.92 446.374 109.742 446.622C109.564 446.87 109.437 447.151 109.368 447.448L107.918 453.444C106.823 453.573 105.777 453.972 104.874 454.605C103.972 455.239 103.241 456.087 102.748 457.073C102.255 458.059 102.015 459.153 102.05 460.255C102.084 461.357 102.393 462.433 102.947 463.387C103.846 464.886 105.299 465.97 106.992 466.406C108.685 466.842 110.482 466.594 111.993 465.716C113.505 464.838 114.61 463.4 115.07 461.714C115.53 460.027 115.308 458.228 114.451 456.704L114.454 456.712Z" fill="#A83A48"/>
<path d="M93.6561 448.522L95.117 442.496C95.2524 441.904 95.1491 441.282 94.8295 440.765C94.5098 440.248 93.9995 439.878 93.409 439.735C92.8185 439.591 92.1954 439.686 91.6744 439.999C91.1534 440.312 90.7765 440.817 90.6254 441.406L89.1754 447.402C88.272 447.5 87.3997 447.789 86.6162 448.249C85.3488 448.971 84.3512 450.086 83.7748 451.425C83.1984 452.765 83.0746 454.256 83.4222 455.672C83.7698 457.088 84.5699 458.352 85.701 459.273C86.8321 460.193 88.2325 460.719 89.6898 460.772C91.1471 460.824 92.5818 460.4 93.7762 459.563C94.9706 458.727 95.8594 457.523 96.308 456.136C96.7566 454.748 96.7403 453.252 96.2618 451.875C95.7832 450.497 94.8684 449.313 93.6561 448.503V448.522Z" fill="#A83A48"/>
<path d="M74.6634 442.325L76.1243 436.305C76.1981 436.01 76.2129 435.703 76.1678 435.402C76.1226 435.101 76.0184 434.813 75.8612 434.552C75.704 434.292 75.4968 434.065 75.2517 433.885C75.0065 433.706 74.7282 433.576 74.4327 433.504C74.1372 433.432 73.8304 433.419 73.53 433.467C73.2296 433.514 72.9415 433.62 72.6822 433.779C72.423 433.938 72.1978 434.146 72.0195 434.393C71.8412 434.639 71.7135 434.918 71.6436 435.214L70.1882 441.21C69.2819 441.31 68.4065 441.598 67.618 442.055C66.4799 442.716 65.5632 443.699 64.9839 444.881C64.4047 446.062 64.1888 447.389 64.3637 448.693C64.5386 449.998 65.0963 451.221 65.9664 452.208C66.8364 453.195 67.9797 453.902 69.2517 454.24C70.5236 454.577 71.8671 454.53 73.1121 454.104C74.3571 453.677 75.4478 452.892 76.2462 451.846C77.0446 450.8 77.5148 449.54 77.5974 448.227C77.68 446.914 77.3713 445.605 76.7102 444.467C76.2035 443.604 75.5027 442.871 74.6634 442.325Z" fill="#A83A48"/>
<path d="M87.166 449.188C86.0432 449.843 85.1398 450.816 84.57 451.984C84.0002 453.153 83.7896 454.464 83.9648 455.752C84.1399 457.04 84.6931 458.247 85.5542 459.221C86.4153 460.195 87.5459 460.891 88.8028 461.223C90.0598 461.554 91.3868 461.505 92.6161 461.083C93.8453 460.66 94.9217 459.882 95.7092 458.848C96.4966 457.814 96.9597 456.569 97.04 455.272C97.1203 453.974 96.8141 452.682 96.1602 451.559C95.7253 450.813 95.1477 450.159 94.4604 449.636C93.7731 449.113 92.9894 448.731 92.1542 448.51C91.319 448.29 90.4486 448.237 89.5928 448.353C88.7369 448.469 87.9123 448.753 87.166 449.188Z" fill="#702730"/>
<path d="M68.2983 443.172C67.1748 443.825 66.2701 444.797 65.6986 445.964C65.1271 447.131 64.9143 448.442 65.0873 449.73C65.2602 451.018 65.811 452.226 66.6702 453.201C67.5293 454.176 68.6582 454.875 69.9142 455.208C71.1703 455.542 72.4971 455.496 73.727 455.076C74.9569 454.656 76.0347 453.881 76.8243 452.849C77.6138 451.817 78.0797 450.573 78.163 449.277C78.2464 447.98 77.9434 446.687 77.2925 445.562C76.859 444.815 76.2824 444.16 75.5958 443.635C74.9091 443.11 74.1258 442.726 73.2906 442.504C72.4553 442.282 71.5846 442.227 70.728 442.341C69.8714 442.456 69.0458 442.738 68.2983 443.172Z" fill="#702730"/>
<path d="M105.873 455.153C104.749 455.806 103.843 456.778 103.271 457.946C102.699 459.114 102.486 460.425 102.658 461.714C102.831 463.003 103.382 464.211 104.242 465.187C105.101 466.163 106.231 466.862 107.488 467.196C108.744 467.53 110.072 467.484 111.302 467.064C112.533 466.643 113.611 465.868 114.401 464.834C115.191 463.801 115.657 462.557 115.74 461.26C115.823 459.962 115.519 458.669 114.867 457.543C114.435 456.795 113.859 456.139 113.172 455.613C112.486 455.088 111.702 454.703 110.867 454.481C110.031 454.259 109.16 454.204 108.303 454.319C107.446 454.435 106.62 454.718 105.873 455.153Z" fill="#702730"/>
<path d="M300.853 345.209C299.699 343.543 298.376 342.002 296.904 340.609C296.904 340.609 296.89 340.609 296.885 340.59C296.879 340.571 296.885 340.59 296.852 340.568C295.382 339.178 293.768 337.948 292.039 336.899C289.253 339.837 285.045 344.185 285.124 347.488C285.171 348.176 285.357 348.847 285.673 349.461C285.989 350.074 286.428 350.616 286.961 351.053C286.961 351.069 286.961 351.069 286.975 351.077L286.999 351.105C287.468 351.612 288.035 352.018 288.666 352.299C289.296 352.58 289.977 352.73 290.668 352.74C293.966 352.625 298.076 348.158 300.853 345.209Z" fill="#FFE0BC"/>
<path d="M382.443 389.312C381.838 388.191 381.051 387.178 380.115 386.314C380.115 386.314 380.115 386.314 380.115 386.295C380.115 386.275 380.102 386.295 380.091 386.295C379.142 385.43 378.058 384.726 376.883 384.209C374.078 387.126 369.843 391.459 369.29 394.136C369.17 394.595 369.183 395.079 369.328 395.531C369.472 395.984 369.743 396.385 370.107 396.69C370.107 396.709 370.107 396.689 370.121 396.709C370.135 396.728 370.121 396.709 370.121 396.725C370.467 397.063 370.899 397.3 371.37 397.409C371.841 397.519 372.333 397.497 372.792 397.346C375.485 396.643 379.639 392.242 382.443 389.312Z" fill="#FFE0BC"/>
<path d="M266.861 361.097C267.18 360.825 267.905 361.114 268.497 361.762L275.267 369.255C275.853 369.903 276.068 370.658 275.763 370.942C275.455 371.214 274.724 370.925 274.128 370.268L267.36 362.787C266.769 362.144 266.543 361.378 266.856 361.1L266.861 361.097Z" fill="#FFE0BC"/>
<path d="M269.204 358.995C269.522 358.722 270.25 358.995 270.839 359.643L277.609 367.136C278.192 367.787 278.427 368.542 278.108 368.823C277.794 369.095 277.064 368.801 276.472 368.15L269.713 360.657C269.122 360.017 268.896 359.256 269.209 358.992L269.204 358.995Z" fill="#FFE0BC"/>
<path d="M331.079 423.332C331.43 423.114 332.008 423.378 332.365 423.918L336.47 430.225C336.821 430.77 336.821 431.399 336.47 431.617C336.115 431.852 335.54 431.574 335.183 431.031L331.079 424.735C330.719 424.19 330.727 423.561 331.079 423.334V423.332Z" fill="#FFE0BC"/>
<path d="M333.745 421.659C334.102 421.435 334.68 421.694 335.034 422.237L339.136 428.552C339.493 429.097 339.493 429.726 339.136 429.947C338.781 430.17 338.204 429.909 337.849 429.361L333.745 423.062C333.39 422.517 333.39 421.89 333.745 421.672V421.659Z" fill="#FFE0BC"/>
</svg>
