<svg xmlns="http://www.w3.org/2000/svg" width="25.939" height="25" viewBox="0 0 25.939 25">
  <g id="Group_13678" data-name="Group 13678" transform="translate(2954 -3314)">
    <g id="offer" transform="translate(-2954 3314)">
      <path id="Path_6351" data-name="Path 6351" d="M32.008,18.707a2.126,2.126,0,0,1-.582-1.792l.085-.6a3.349,3.349,0,0,0-2.749-3.785l-.6-.107a2.131,2.131,0,0,1-1.524-1.106l-.286-.536A3.348,3.348,0,0,0,21.9,9.333l-.549.265a2.13,2.13,0,0,1-1.883,0l-.546-.268a3.35,3.35,0,0,0-4.449,1.445l-.286.536a2.129,2.129,0,0,1-1.524,1.106l-.6.107a3.349,3.349,0,0,0-2.749,3.785l.085.6A2.126,2.126,0,0,1,8.819,18.7L8.4,19.14a3.347,3.347,0,0,0,0,4.678l.424.439A2.126,2.126,0,0,1,9.4,26.049l-.085.6a3.349,3.349,0,0,0,2.749,3.785l.6.107a2.131,2.131,0,0,1,1.524,1.106l.286.536a3.348,3.348,0,0,0,4.449,1.445l.546-.262a2.13,2.13,0,0,1,1.883,0l.546.268a3.35,3.35,0,0,0,4.449-1.445l.286-.536a2.129,2.129,0,0,1,1.524-1.106l.6-.107a3.349,3.349,0,0,0,2.749-3.785l-.085-.6a2.126,2.126,0,0,1,.582-1.792l.424-.436a3.347,3.347,0,0,0,0-4.678Zm-.454,4.27-.424.436a3.347,3.347,0,0,0-.914,2.81l.085.6a2.135,2.135,0,0,1-1.752,2.414l-.6.107a3.333,3.333,0,0,0-2.389,1.737l-.286.536a2.137,2.137,0,0,1-2.837.923l-.546-.268a3.338,3.338,0,0,0-2.956,0l-.546.268a2.135,2.135,0,0,1-2.837-.923l-.286-.536a3.344,3.344,0,0,0-2.389-1.737l-.6-.107a2.135,2.135,0,0,1-1.752-2.414l.085-.6a3.335,3.335,0,0,0-.914-2.81l-.424-.439a2.134,2.134,0,0,1,0-2.984l.424-.436a3.347,3.347,0,0,0,.914-2.81l-.085-.6a2.135,2.135,0,0,1,1.752-2.414l.6-.107a3.333,3.333,0,0,0,2.389-1.737l.286-.536A2.135,2.135,0,0,1,17.441,10.2a2.165,2.165,0,0,1,.948.219l.546.268a3.338,3.338,0,0,0,2.956,0l.546-.268a2.135,2.135,0,0,1,2.837.923l.286.536a3.344,3.344,0,0,0,2.389,1.737l.6.107A2.135,2.135,0,0,1,30.3,16.141l-.085.6a3.335,3.335,0,0,0,.914,2.81l.424.439A2.134,2.134,0,0,1,31.554,22.977Z" transform="translate(-7.442 -8.984)" fill="#0D1D1E"/>
      <path id="Path_6352" data-name="Path 6352" d="M43.878,33.692a.641.641,0,0,0-.906,0l-9.28,9.28a.639.639,0,1,0,.9.906l9.28-9.28A.639.639,0,0,0,43.878,33.692Z" transform="translate(-25.815 -26.285)" fill="#0D1D1E"/>
      <path id="Path_6353" data-name="Path 6353" d="M36.091,33.157a2.721,2.721,0,1,0-1.924-.8A2.709,2.709,0,0,0,36.091,33.157Zm-1.018-3.739a1.437,1.437,0,1,1-.423,1.018A1.435,1.435,0,0,1,35.073,29.418Z" transform="translate(-25.568 -22.083)" fill="#0D1D1E"/>
      <path id="Path_6354" data-name="Path 6354" d="M50.432,56.087a2.721,2.721,0,1,0,4.645,1.924,2.721,2.721,0,0,0-4.645-1.924Zm2.942,2.942a1.437,1.437,0,1,1,.423-1.018A1.443,1.443,0,0,1,53.374,59.029Z" transform="translate(-36.94 -41.364)" fill="#0D1D1E"/>
    </g>
  </g>
</svg>
