<?xml version="1.0" standalone="no"?>
<!DOCTYPE svg PUBLIC "-//W3C//DTD SVG 20010904//EN"
 "http://www.w3.org/TR/2001/REC-SVG-20010904/DTD/svg10.dtd">
<svg version="1.0" xmlns="http://www.w3.org/2000/svg"
 width="26" height="26" viewBox="0 0 86.000000 86.000000"
 preserveAspectRatio="xMidYMid meet">

<g transform="translate(0.000000,86.000000) scale(0.100000,-0.100000)"
fill="currentColor" stroke="none">
<path d="M340 849 c-114 -22 -241 -122 -294 -230 -80 -166 -48 -359 83 -490
131 -131 324 -163 490 -83 72 35 160 123 195 195 155 319 -123 677 -474 608z
m262 -46 c86 -41 155 -109 199 -198 32 -66 34 -75 34 -175 0 -97 -2 -110 -32
-172 -41 -86 -109 -155 -198 -199 -66 -32 -75 -34 -175 -34 -97 0 -110 2 -172
32 -86 41 -155 109 -199 198 -32 66 -34 75 -34 175 0 94 3 111 28 164 37 79
85 136 148 177 86 55 141 70 244 66 76 -2 100 -8 157 -34z"/>
<path d="M366 628 c-55 -15 -119 -81 -136 -141 -30 -109 36 -226 143 -257 39
-10 59 -11 104 0 158 35 214 230 100 344 -61 60 -125 76 -211 54z m149 -51
c112 -63 112 -231 0 -294 -81 -46 -187 -18 -232 62 -85 150 82 317 232 232z"/>
<path d="M381 543 c-102 -53 -101 -175 2 -226 65 -33 145 7 168 83 10 32 9 44
-7 76 -35 71 -103 98 -163 67z"/>
</g>
</svg>
