
<svg width="26" height="31" viewBox="0 0 20 22" fill="currentColor" xmlns="http://www.w3.org/2000/svg">
<path fill-rule="evenodd" clip-rule="evenodd" d="M9.98067 1.40167e-05L9.97739 0.00165511C9.97465 0.00162776 9.97192 0.00162776 9.96918 0.00165511C9.92097 0.00510707 9.87375 0.0170513 9.8297 0.0369369L0.346284 4.0927C0.248908 4.10807 0.160323 4.15799 0.096739 4.23333C0.0331552 4.30866 -0.00117506 4.40438 3.07155e-05 4.50295V16.8122C-0.000449437 16.8707 0.0115802 16.9286 0.0353127 16.982C0.0358493 16.9837 0.0363962 16.9853 0.0369536 16.987C0.0405571 16.9945 0.0443878 17.0018 0.0484406 17.0091C0.0923238 17.0975 0.166608 17.1671 0.25767 17.2052L9.74847 21.2626C9.8185 21.313 9.90262 21.3399 9.98887 21.3397C10.0852 21.3454 10.1805 21.317 10.258 21.2593L19.7431 17.2052C19.8098 17.1781 19.8682 17.1338 19.9124 17.0769C19.9567 17.02 19.9851 16.9525 19.9949 16.8811C19.9962 16.8738 19.9973 16.8664 19.9982 16.859C19.9989 16.8524 19.9995 16.8458 19.9999 16.8393C20 16.8324 20 16.8256 19.9999 16.8188C19.9999 16.8166 19.9999 16.8144 19.9999 16.8122V4.50295C20.0009 4.40562 19.9673 4.31107 19.9051 4.23622C19.8429 4.16137 19.7561 4.11108 19.6602 4.09434L10.1792 0.0410393C10.1762 0.0396355 10.1732 0.038268 10.1702 0.0369369C10.1485 0.0276263 10.1259 0.020214 10.1029 0.014783C10.0991 0.0136333 10.0953 0.0125393 10.0914 0.0115011C10.0819 0.00896995 10.0724 0.00678061 10.0627 0.00493709C10.0589 0.00433596 10.0551 0.00378882 10.0512 0.003296C10.0411 0.00237408 10.031 0.00182682 10.0209 0.00165511C10.0075 0.00045081 9.99409 -9.69293e-05 9.98067 1.40167e-05ZM9.99954 0.857443L12.0098 1.71651L3.48718 5.36202C3.47885 5.36558 3.47064 5.36941 3.46257 5.37351L1.45151 4.5128L10.0012 0.857443H9.99954ZM13.0543 2.16369L15.4937 3.20655L6.81269 6.92016C6.73232 6.95451 6.66502 7.01363 6.62059 7.0889C6.57617 7.16417 6.55694 7.25166 6.56572 7.33862C6.56425 7.35444 6.56371 7.37033 6.56408 7.38621V11.7759L5.67465 10.441C5.61922 10.3579 5.53538 10.2979 5.43885 10.2722C5.34232 10.2465 5.23974 10.2569 5.15035 10.3015L4.10256 10.825V5.99217L13.0543 2.16369ZM16.5365 3.65209L18.5492 4.5128L9.99954 8.16815L7.9893 7.30908L16.5127 3.66357C16.521 3.66002 16.5293 3.65619 16.5373 3.65209H16.5365ZM0.820537 5.13474L3.28206 6.18745V11.4887C3.28213 11.5586 3.30003 11.6273 3.33407 11.6883C3.36811 11.7492 3.41716 11.8005 3.47657 11.8373C3.53598 11.874 3.60378 11.895 3.67356 11.8981C3.74333 11.9013 3.81277 11.8867 3.87528 11.8555L5.19219 11.1966L6.61085 13.3234L6.61249 13.3267C6.65761 13.411 6.73074 13.4768 6.81926 13.5129L6.8209 13.5146C6.83274 13.5192 6.84478 13.5233 6.857 13.5269C6.88159 13.5347 6.90687 13.5402 6.93249 13.5433C6.94858 13.5448 6.96474 13.5453 6.9809 13.5449C6.99681 13.5448 7.0127 13.5437 7.02849 13.5416C7.03979 13.5399 7.05101 13.5377 7.06213 13.5351C7.0704 13.5332 7.07861 13.531 7.08674 13.5285C7.09364 13.5265 7.10048 13.5243 7.10726 13.522C7.13049 13.5144 7.15301 13.5048 7.17454 13.4932L7.17618 13.4916C7.24823 13.4518 7.30664 13.3912 7.34381 13.3177C7.38098 13.2443 7.39519 13.1613 7.38459 13.0797V7.94334L9.59011 8.88692V20.3043L0.820537 16.5529V5.13474ZM19.1794 5.13638V16.5529L10.4098 20.3043V8.8861L19.1794 5.13638Z" />
</svg>
