<?xml version="1.0" standalone="no"?>
<!DOCTYPE svg PUBLIC "-//W3C//DTD SVG 20010904//EN"
 "http://www.w3.org/TR/2001/REC-SVG-20010904/DTD/svg10.dtd">
<svg version="1.0" xmlns="http://www.w3.org/2000/svg"
 width="26" height="26" viewBox="0 0 129.000000 129.000000"
 preserveAspectRatio="xMidYMid meet">

<g transform="translate(0.000000,129.000000) scale(0.100000,-0.100000)"
fill="currentColor" stroke="none">
<path d="M522 1275 c-246 -45 -460 -259 -507 -508 -18 -96 -18 -139 0 -241 44
-250 257 -464 508 -511 96 -18 139 -18 241 0 250 44 464 257 511 508 18 96 18
139 0 241 -44 250 -257 464 -508 511 -94 18 -147 18 -245 0z m267 -30 c173
-41 327 -166 405 -328 51 -107 66 -168 66 -275 -1 -234 -133 -445 -343 -546
-107 -51 -168 -66 -275 -66 -234 1 -445 133 -546 343 -51 107 -66 168 -66 275
1 229 132 442 334 543 46 23 108 47 138 54 73 18 210 18 287 0z"/>
</g>
</svg>
