
<svg width="28" height="22" viewBox="0 0 28 22" fill="none" xmlns="http://www.w3.org/2000/svg">
<path d="M7.26914 14.1938H11.3385C11.6983 14.1938 12.0433 14.049 12.2977 13.7912C12.5521 13.5335 12.695 13.1838 12.695 12.8193C12.695 12.4547 12.5521 12.1051 12.2977 11.8473C12.0433 11.5895 11.6983 11.4447 11.3385 11.4447H7.26914C6.90938 11.4447 6.56436 11.5895 6.30998 11.8473C6.05559 12.1051 5.91268 12.4547 5.91268 12.8193C5.91268 13.1838 6.05559 13.5335 6.30998 13.7912C6.56436 14.049 6.90938 14.1938 7.26914 14.1938ZM23.5467 0.448318H4.55621C3.47694 0.448318 2.44187 0.882774 1.67871 1.65611C0.915555 2.42944 0.486816 3.47831 0.486816 4.57197V16.9429C0.486816 18.0366 0.915555 19.0855 1.67871 19.8588C2.44187 20.6321 3.47694 21.0666 4.55621 21.0666H23.5467C24.626 21.0666 25.6611 20.6321 26.4242 19.8588C27.1874 19.0855 27.6161 18.0366 27.6161 16.9429V4.57197C27.6161 3.47831 27.1874 2.42944 26.4242 1.65611C25.6611 0.882774 24.626 0.448318 23.5467 0.448318ZM24.9032 16.9429C24.9032 17.3075 24.7603 17.6571 24.5059 17.9149C24.2515 18.1727 23.9065 18.3175 23.5467 18.3175H4.55621C4.19645 18.3175 3.85143 18.1727 3.59705 17.9149C3.34266 17.6571 3.19975 17.3075 3.19975 16.9429V8.69563H24.9032V16.9429ZM24.9032 5.94652H3.19975V4.57197C3.19975 4.20742 3.34266 3.8578 3.59705 3.60002C3.85143 3.34224 4.19645 3.19742 4.55621 3.19742H23.5467C23.9065 3.19742 24.2515 3.34224 24.5059 3.60002C24.7603 3.8578 24.9032 4.20742 24.9032 4.57197V5.94652Z" fill="white"/>
</svg>
