<svg xmlns="http://www.w3.org/2000/svg" fill="currentColor" width="29.022" height="24" viewBox="0 0 29.022 24">
  <g id="customer-service" transform="translate(-5.232 -12.114)">
    <path id="path2" d="M20.117,12.12A11.418,11.418,0,0,0,8.769,20.344a1.854,1.854,0,0,0-.736.068,3.763,3.763,0,0,0-2.255,1.969,6.661,6.661,0,0,0-.462,3.742A5.7,5.7,0,0,0,6.838,29.35a2.563,2.563,0,0,0,2.379.764c1.222-.261,1.828-.456,1.657-1.595L10.046,23a9.711,9.711,0,0,1,19.393.013l-.579,3.862a9.7,9.7,0,0,1-8.2,6.335H18.186a1.148,1.148,0,0,0-1.15,1.149v.606a1.148,1.148,0,0,0,1.15,1.15H21.3a1.146,1.146,0,0,0,1.148-1.15v-.317a11.461,11.461,0,0,0,6.825-4.8l1,.265a2.48,2.48,0,0,0,2.379-.764,5.7,5.7,0,0,0,1.522-3.226,6.706,6.706,0,0,0-.462-3.742,3.252,3.252,0,0,0-1.977-1.895,4.231,4.231,0,0,0-1.02-.143,11.417,11.417,0,0,0-10.6-8.224Z"  fill-rule="evenodd"/>
    <path id="path4" d="M35.265,28.2a1.492,1.492,0,1,1-1.494,1.492A1.493,1.493,0,0,1,35.265,28.2Zm-4.017,0a1.492,1.492,0,1,1-1.492,1.492A1.491,1.491,0,0,1,31.248,28.2Zm-4.016,0a1.492,1.492,0,1,1-1.492,1.492A1.492,1.492,0,0,1,27.232,28.2Zm4.016-6.408a7.937,7.937,0,0,0-5.757,13.362l-.471,2.113c-.155.7.327,1.163.952.815l2.064-1.151a8.04,8.04,0,0,0,3.212.661,7.9,7.9,0,0,0,0-15.8Z" transform="translate(-11.505 -6.144)"  fill-rule="evenodd"/>
  </g>
</svg>
