<svg id="Group_13402" data-name="Group 13402" xmlns="http://www.w3.org/2000/svg" width="17.229" height="17.229" viewBox="0 0 17.229 17.229">
  <path id="Path_6261" data-name="Path 6261" d="M0,0H17.229V17.229H0Z" fill="none"/>
  <path id="Path_6262" data-name="Path 6262" d="M11.486,4.984a1.292,1.292,0,1,0-1.292-1.292,1.294,1.294,0,0,0,1.292,1.292Zm2.154,5.169a3.589,3.589,0,1,0,3.589,3.589A3.591,3.591,0,0,0,13.639,10.153Zm0,6.1a2.512,2.512,0,1,1,2.512-2.512A2.511,2.511,0,0,1,13.639,16.255ZM10.624,8.717h3.015V7.425h-2.3L9.953,5.081a1.218,1.218,0,0,0-1.052-.6,1.2,1.2,0,0,0-.861.359L5.384,7.493a1.219,1.219,0,0,0,.251,1.92l2.4,1.457V14.46H9.332V9.808l-1.615-1.2L9.382,6.937l1.242,1.78ZM3.589,10.153a3.589,3.589,0,1,0,3.589,3.589A3.591,3.591,0,0,0,3.589,10.153Zm0,6.1A2.512,2.512,0,1,1,6.1,13.742,2.511,2.511,0,0,1,3.589,16.255Z" transform="translate(0 -1.539)" fill="#FFF"/>
</svg>
