<svg xmlns="http://www.w3.org/2000/svg" width="14.196" height="17.887" viewBox="0 0 14.196 17.887">
  <g id="Group_13393" data-name="Group 13393" transform="translate(-6.664 -0.075)">
    <g id="Group_13380" data-name="Group 13380" transform="translate(10.832 3.517)">
      <path id="Path_6245" data-name="Path 6245" d="M31.4,23.98a.793.793,0,0,1-.671-.426l-1.873-3.423H24.042l-.06,0h-.087a1.048,1.048,0,0,1-1.043-.977l-.305-4.656a1.049,1.049,0,0,1,.977-1.113l.274-.017.071,0a1.047,1.047,0,0,1,1.044.975l.1,1.548H28.1a.454.454,0,0,1,0,.893h-3.03l.106,1.6h3.642a.859.859,0,0,1,.277.046l.02.006.02,0a.786.786,0,0,1,.547.409l2.227,4.071a.731.731,0,0,1-.221,1A.586.586,0,0,1,31.4,23.98Z" transform="translate(-22.263 -13.082)" fill="currentColor"/>
      <path id="Path_6246" data-name="Path 6246" d="M23.148,12.922a.766.766,0,0,1,.764.712l.082,1.286.033.525h3.351c.033,0,.093.063.093.167s-.06.166-.093.166h-3.33l.04.6.069,1.037.035.523h3.9a.594.594,0,0,1,.188.031l.04.013.041.007a.514.514,0,0,1,.349.268l2.226,4.07a.453.453,0,0,1-.109.619.3.3,0,0,1-.15.038.509.509,0,0,1-.425-.281l-1.793-3.278-.159-.291H23.332l-.026,0h-.132a.768.768,0,0,1-.764-.715l-.3-4.656a.768.768,0,0,1,.714-.816l.276-.017h.052m0-.56c-.029,0-.058,0-.088,0l-.275.017a1.328,1.328,0,0,0-1.239,1.411l.305,4.656a1.327,1.327,0,0,0,1.323,1.239h.087a.481.481,0,0,0,.077,0h4.631l1.793,3.278a1.068,1.068,0,0,0,.916.572.862.862,0,0,0,.421-.108,1.007,1.007,0,0,0,.332-1.376l-2.227-4.072a1.07,1.07,0,0,0-.744-.55,1.146,1.146,0,0,0-.366-.06H24.716l-.069-1.037h2.731a.731.731,0,0,0,0-1.453H24.553L24.471,13.6a1.324,1.324,0,0,0-1.323-1.237Z" transform="translate(-21.544 -12.362)" fill="currentColor"/>
    </g>
    <g id="Group_13381" data-name="Group 13381" transform="translate(10.689 0.075)">
      <path id="Path_6247" data-name="Path 6247" d="M23.293,3.6a1.261,1.261,0,1,1,1.261-1.261A1.262,1.262,0,0,1,23.293,3.6Z" transform="translate(-21.752 -0.796)" fill="currentColor"/>
      <path id="Path_6248" data-name="Path 6248" d="M22.573.635a.981.981,0,1,1-.981.981.982.982,0,0,1,.981-.981m0-.56a1.541,1.541,0,1,0,1.541,1.541A1.541,1.541,0,0,0,22.573.075Z" transform="translate(-21.032 -0.075)" fill="currentColor"/>
    </g>
    <path id="Path_6249" data-name="Path 6249" d="M9,24.7a6.006,6.006,0,0,0,2.782,10.7,6.01,6.01,0,0,0,6.154-3.072c.134-.3.282-.515,0-.784a.428.428,0,0,0-.645.148,5.01,5.01,0,0,1-2.23,2.3,4.921,4.921,0,0,1-3.924.39,5.183,5.183,0,0,1-3.6-5.308A5.247,5.247,0,0,1,9.784,25.21c.322-.3.309-.5.161-.672a.435.435,0,0,0-.591-.081A4.075,4.075,0,0,0,9,24.7Z" transform="translate(0 -17.494)" fill="currentColor"/>
  </g>
</svg>
