<?xml version="1.0" encoding="UTF-8"?>
<svg version="1.1" xmlns="http://www.w3.org/2000/svg" width="642" height="388">
<path d="M0 0 C3.45277337 0.77743535 5.74590966 1.96954503 8.69140625 3.96484375 C9.62138428 4.5902002 10.5513623 5.21555664 11.50952148 5.85986328 C12.51700439 6.5454834 13.5244873 7.23110352 14.5625 7.9375 C16.18999018 9.03400009 17.81748852 10.13048823 19.44538879 11.22637939 C21.15646592 12.37921774 22.8659089 13.53445007 24.57519531 14.68994141 C30.0116488 18.36136505 35.47640849 21.99037957 40.9375 25.625 C43.19169391 27.12717279 45.44545018 28.63000165 47.69921875 30.1328125 C48.87938661 30.91960823 50.05956258 31.70639181 51.23974609 32.49316406 C76.32006836 49.21337891 76.32006836 49.21337891 78.30239868 50.53497314 C79.61230548 51.4082172 80.92226244 52.28138602 82.23226929 53.15447998 C85.35743504 55.23746747 88.4818514 57.32155493 91.60424805 59.40869141 C101.21957572 65.83306465 110.87621863 72.19377757 120.537323 78.54904175 C141.77072515 92.51979239 162.93614427 106.59052078 184.0715332 120.70898438 C191.93328305 125.95989695 199.80079741 131.202169 207.66764832 136.44543457 C211.25778572 138.83834278 214.84764296 141.23167121 218.4375 143.625 C219.2430835 144.16205566 220.04866699 144.69911133 220.87866211 145.25244141 C234.31640625 154.2109375 234.31640625 154.2109375 236.04405212 155.36274719 C239.11572718 157.41059212 242.18752157 159.45825767 245.25952148 161.50561523 C252.17013494 166.11155652 259.0791272 170.71990716 265.98547363 175.33224487 C269.73019519 177.83290888 273.47554483 180.33263132 277.22094727 182.83227539 C279.04984628 184.05320165 280.8784672 185.2745446 282.70678711 186.49633789 C293.07795053 193.42668611 303.47488764 200.30527052 314 207 C314.76256104 206.5138623 315.52512207 206.02772461 316.31079102 205.52685547 C321.33116592 202.32639496 326.35663258 199.14034647 331.44140625 196.04296875 C333.17076447 194.95884646 333.17076447 194.95884646 335 193 C336.50364551 191.99463858 338.02825916 191.02052214 339.5625 190.0625 C344.54104817 186.92640667 349.49671024 183.75778448 354.4375 180.5625 C355.10402588 180.13267822 355.77055176 179.70285645 356.45727539 179.26000977 C362.67978846 175.23560633 368.83861054 171.11714128 375 167 C377.43709079 165.37438599 379.87480847 163.74971298 382.3125 162.125 C383.5859485 161.27605817 384.85938591 160.4270997 386.1328125 159.578125 C393.8671875 154.421875 393.8671875 154.421875 395.78529358 153.1431427 C397.04786292 152.30142643 398.31042604 151.45970085 399.57298279 150.6179657 C402.47437251 148.68365018 405.37587321 146.74950186 408.27758789 144.81567383 C412.83190806 141.78030545 417.38523427 138.74351318 421.93359375 135.69921875 C422.68447266 135.19712891 423.43535156 134.69503906 424.20898438 134.17773438 C425.72258128 133.16557448 427.23558171 132.15252215 428.74804688 131.13867188 C431.79011045 129.10622454 434.80967488 127.11079373 437.97265625 125.26953125 C440.13756746 124.15879116 440.13756746 124.15879116 441 122 C442.70703125 121.0703125 442.70703125 121.0703125 444.8125 120.125 C448.21910455 118.50049818 450.36954479 116.72116056 453 114 C454.64991582 113.29289322 456.31562256 112.62056011 458 112 C458.66 111.34 459.32 110.68 460 110 C461.62865802 108.91135558 463.27774617 107.85312041 464.9375 106.8125 C465.91460937 106.19632812 466.89171875 105.58015625 467.8984375 104.9453125 C469.96614583 103.6484375 472.03385417 102.3515625 474.1015625 101.0546875 C475.07867187 100.43851562 476.05578125 99.82234375 477.0625 99.1875 C477.96097656 98.62417969 478.85945313 98.06085938 479.78515625 97.48046875 C482.07794816 96.05199829 482.07794816 96.05199829 484 94 C486.53292022 92.42548203 489.10926966 90.93647113 491.6875 89.4375 C494.07946274 88.07202367 494.07946274 88.07202367 496 86 C497.33333333 85.33333333 498.66666667 84.66666667 500 84 C500.66 83.34 501.32 82.68 502 82 C504.53292022 80.42548203 507.10926966 78.93647113 509.6875 77.4375 C512.07946274 76.07202367 512.07946274 76.07202367 514 74 C515.33333333 73.33333333 516.66666667 72.66666667 518 72 C518.66 71.34 519.32 70.68 520 70 C521.33333333 69.33333333 522.66666667 68.66666667 524 68 C524.66 67.34 525.32 66.68 526 66 C528.53292022 64.42548203 531.10926966 62.93647113 533.6875 61.4375 C536.07946274 60.07202367 536.07946274 60.07202367 538 58 C539.75366788 56.82806413 541.52729099 55.68580472 543.3125 54.5625 C544.25738281 53.96566406 545.20226562 53.36882812 546.17578125 52.75390625 C548.01285037 51.61304313 549.86400416 50.4944525 551.73046875 49.40234375 C554.08661734 48.0666141 554.08661734 48.0666141 556 46 C557.33333333 45.33333333 558.66666667 44.66666667 560 44 C560.66 43.34 561.32 42.68 562 42 C563.50364551 40.99463858 565.02825916 40.02052214 566.5625 39.0625 C578.86155846 31.31328931 591.02541182 23.36285078 603.10009766 15.26904297 C605.12896203 13.91385959 607.16348009 12.56748889 609.19921875 11.22265625 C609.88741699 10.76705322 610.57561523 10.3114502 611.28466797 9.84204102 C612.60674866 8.96707382 613.92993977 8.09378145 615.25439453 7.22241211 C617.69471844 5.60426311 619.923661 4.076339 622 2 C623.98356483 1.28591666 625.98315437 0.61382258 628 0 C628.53902543 18.12365491 628.94367611 36.24521226 629.19167995 54.3751688 C629.30993763 62.79508526 629.47088012 71.21000375 629.73510742 79.62670898 C629.96551027 86.96951596 630.11298814 94.30870481 630.16403538 101.6550259 C630.19385975 105.54172106 630.26298895 109.41807554 630.43179131 113.30142403 C631.41939731 136.90230384 631.41939731 136.90230384 625.66496658 143.79822922 C620.10820945 148.57203159 613.99117421 151.97124819 607.30273533 154.90870571 C604.87432412 155.9015685 604.87432412 155.9015685 603 158 C600.46707978 159.57451797 597.89073034 161.06352887 595.3125 162.5625 C592.92053726 163.92797633 592.92053726 163.92797633 591 166 C589.24718185 167.0583053 587.45591759 168.0239091 585.65625 169 C583.82445698 170.0156448 583.82445698 170.0156448 582 172 C580.18274789 173.08977619 578.34633047 174.14774947 576.5 175.1875 C566.67392306 180.80410611 566.67392306 180.80410611 558 188 C556.6828154 188.7579489 555.34651982 189.48298159 554 190.1875 C550.83998068 191.91117632 547.8774381 193.72885313 544.9609375 195.8359375 C537.27028289 201.27226366 529.36348508 206.38563389 521.49188232 211.55453491 C516.60128981 214.76667058 511.71465191 217.98480902 506.828125 221.203125 C505.84037079 221.85363327 504.85261658 222.50414154 503.83493042 223.17436218 C494.78904314 229.13425884 485.7560179 235.11331613 476.73797607 241.11526489 C475.16761861 242.16012149 473.59669888 243.20413353 472.02520752 244.24728394 C469.85639183 245.68726959 467.68960679 247.13025624 465.5234375 248.57421875 C464.88597595 248.99680969 464.2485144 249.41940063 463.59173584 249.85479736 C461.20453834 251.45043342 459.03604629 252.96395371 457 255 C455.32637595 255.96347588 453.65125774 256.92452959 451.96582031 257.8671875 C448.67232454 259.76507876 445.53068183 261.88338414 442.375 264 C441.73304688 264.42539062 441.09109375 264.85078125 440.4296875 265.2890625 C436.8090238 267.70778457 433.38962093 270.26152708 430 273 C428.67432801 273.68177416 427.34246312 274.35191436 426 275 C425.34 275.66 424.68 276.32 424 277 C422.6828154 277.7579489 421.34651982 278.48298159 420 279.1875 C414.71016571 282.07363359 409.88490247 285.48316762 405 289 C403.16977829 290.31683554 401.33652581 291.62947083 399.5 292.9375 C398.6853125 293.52402344 397.870625 294.11054688 397.03125 294.71484375 C395 296 395 296 393 296 C393 296.66 393 297.32 393 298 C391.7934375 298.433125 391.7934375 298.433125 390.5625 298.875 C387.8673532 299.73262568 387.8673532 299.73262568 387 302 C385.18161795 302.89203648 383.36172072 303.78109025 381.53515625 304.65625 C375.7574783 307.71868639 369.63824497 311.36175503 365 316 C363.30883677 317.13028923 361.59748802 318.23054722 359.875 319.3125 C358.89402344 319.93125 357.91304688 320.55 356.90234375 321.1875 C355.12665201 322.29641113 353.34857136 323.40152263 351.56640625 324.5 C350.86386719 324.933125 350.16132813 325.36625 349.4375 325.8125 C348.81746094 326.19019531 348.19742187 326.56789063 347.55859375 326.95703125 C345.82923553 328.04115354 345.82923553 328.04115354 344 330 C342.66666667 330.66666667 341.33333333 331.33333333 340 332 C339.34 332.66 338.68 333.32 338 334 C336.66666667 334.66666667 335.33333333 335.33333333 334 336 C333.34 336.66 332.68 337.32 332 338 C330.66666667 338.66666667 329.33333333 339.33333333 328 340 C327.34 340.66 326.68 341.32 326 342 C323.5981453 343.9369796 321.9647762 345.01174127 319 346 C318.34 346.66 317.68 347.32 317 348 C313.34149422 348.79625053 311.21240142 347.70774231 308.18334961 345.7980957 C306.66501237 344.76903302 305.15524025 343.72726594 303.65234375 342.67578125 C302.82416138 342.11061798 301.995979 341.54545471 301.1427002 340.96316528 C299.34440335 339.7343901 297.5496435 338.50042629 295.75802612 337.26193237 C290.93770502 333.93032345 286.09174264 330.63629853 281.25 327.3359375 C280.24682236 326.65049362 279.24364471 325.96504974 278.21006775 325.25883484 C267.36785581 317.86039043 256.41037832 310.64012754 245.4375 303.4375 C241.9151736 301.12398856 238.39308376 298.81011725 234.87109375 296.49609375 C234.04281067 295.95210434 233.21452759 295.40811493 232.36114502 294.84764099 C224.54260262 289.70850569 216.7564821 284.5212873 208.9780426 279.32171631 C205.75800021 277.17010313 202.53516263 275.02268567 199.3125 272.875 C198.07420544 272.04949913 196.83592254 271.22398077 195.59765625 270.3984375 C194.9958252 269.9972168 194.39399414 269.59599609 193.77392578 269.18261719 C170.7890625 253.859375 170.7890625 253.859375 169.10105896 252.7338562 C166.1914154 250.79385283 163.28133262 248.85451455 160.37036133 246.91650391 C154.79058107 243.20073398 149.21697584 239.47664942 143.66015625 235.7265625 C142.69029785 235.07397461 141.72043945 234.42138672 140.72119141 233.74902344 C138.90192444 232.52426522 137.08508055 231.29589798 135.27099609 230.06347656 C134.46871582 229.52432617 133.66643555 228.98517578 132.83984375 228.4296875 C132.14238037 227.95772949 131.44491699 227.48577148 130.72631836 226.99951172 C129.04399471 225.83297987 129.04399471 225.83297987 127 226 C126.22209106 225.1944165 126.22209106 225.1944165 125.4284668 224.37255859 C122.01742751 221.04004831 118.13385054 218.63105697 114.14453125 216.0390625 C113.26248016 215.46032883 112.38042908 214.88159515 111.47164917 214.2853241 C109.57469355 213.04138091 107.67632872 211.79958456 105.77670288 210.5597229 C101.78430908 207.95390406 97.798603 205.33794217 93.81263733 202.7223053 C91.79273701 201.39687728 89.77250235 200.07195864 87.75193787 198.74754333 C78.70117578 192.81287464 69.68667033 186.82502909 60.6875 180.8125 C59.39884694 179.95198187 58.11019142 179.09146743 56.8215332 178.23095703 C54.40956393 176.61998655 51.99800256 175.00840759 49.58666992 173.39648438 C43.93861725 169.62157349 38.28497291 165.85504386 32.63192749 162.08761597 C30.42763777 160.61854292 28.22357581 159.14912833 26.01953125 157.6796875 C24.96463501 156.97646362 24.96463501 156.97646362 23.88842773 156.2590332 C22.44122584 155.29417521 20.99413126 154.32915625 19.54711914 153.36401367 C16.10923035 151.07122646 12.67036766 148.779987 9.2265625 146.49609375 C7.59847656 145.41521484 7.59847656 145.41521484 5.9375 144.3125 C4.99777344 143.68988281 4.05804687 143.06726563 3.08984375 142.42578125 C1 141 1 141 0 140 C-0.09641497 138.19039129 -0.12187398 136.37697872 -0.12025452 134.56480408 C-0.12162918 133.38544785 -0.12300385 132.20609161 -0.12442017 130.99099731 C-0.12082489 129.6854892 -0.11722961 128.37998108 -0.11352539 127.03491211 C-0.11324352 125.65547182 -0.11340125 124.27603139 -0.1139679 122.89659119 C-0.11425588 119.14055882 -0.10835905 115.38455811 -0.10139394 111.62853312 C-0.09516051 107.70739955 -0.09455661 103.78626533 -0.09336853 99.86512756 C-0.09025518 92.43488389 -0.08204175 85.00465486 -0.07201904 77.57441765 C-0.06085801 69.11748362 -0.05534748 60.6605489 -0.05032361 52.20360935 C-0.03985914 34.80239775 -0.02225963 17.40120042 0 0 Z " fill="#050505" transform="translate(7,31)"/>
<path d="M0 0 C0 0.66 0 1.32 0 2 C-0.99 2 -1.98 2 -3 2 C-3.433125 2.928125 -3.433125 2.928125 -3.875 3.875 C-5 6 -5 6 -7 8 C-7 7.34 -7 6.68 -7 6 C-7.66 5.67 -8.32 5.34 -9 5 C-7.87926138 4.16094435 -6.75325453 3.32892169 -5.625 2.5 C-4.99851562 2.0359375 -4.37203125 1.571875 -3.7265625 1.09375 C-2 0 -2 0 0 0 Z " fill="#797979" transform="translate(423,172)"/>
<path d="M0 0 C-0.75 1.9375 -0.75 1.9375 -2 4 C-4 4.8125 -4 4.8125 -6 5 C-6.66 4.67 -7.32 4.34 -8 4 C-2.25 0 -2.25 0 0 0 Z " fill="#787878" transform="translate(372,206)"/>
<path d="" fill="#FFFFFF" transform="translate(0,0)"/>
<path d="" fill="#FFFFFF" transform="translate(0,0)"/>
<path d="" fill="#FFFFFF" transform="translate(0,0)"/>
<path d="" fill="#FFFFFF" transform="translate(0,0)"/>
<path d="" fill="#FFFFFF" transform="translate(0,0)"/>
<path d="" fill="#FFFFFF" transform="translate(0,0)"/>
<path d="" fill="#FFFFFF" transform="translate(0,0)"/>
<path d="" fill="#FFFFFF" transform="translate(0,0)"/>
<path d="" fill="#FFFFFF" transform="translate(0,0)"/>
<path d="" fill="#FFFFFF" transform="translate(0,0)"/>
<path d="" fill="#FFFFFF" transform="translate(0,0)"/>
<path d="" fill="#FFFFFF" transform="translate(0,0)"/>
<path d="" fill="#FFFFFF" transform="translate(0,0)"/>
<path d="" fill="#FFFFFF" transform="translate(0,0)"/>
<path d="" fill="#FFFFFF" transform="translate(0,0)"/>
<path d="" fill="#FFFFFF" transform="translate(0,0)"/>
<path d="" fill="#FFFFFF" transform="translate(0,0)"/>
<path d="" fill="#FFFFFF" transform="translate(0,0)"/>
<path d="" fill="#FFFFFF" transform="translate(0,0)"/>
<path d="" fill="#FFFFFF" transform="translate(0,0)"/>
<path d="" fill="#FFFFFF" transform="translate(0,0)"/>
<path d="" fill="#FFFFFF" transform="translate(0,0)"/>
<path d="" fill="#FFFFFF" transform="translate(0,0)"/>
<path d="" fill="#FFFFFF" transform="translate(0,0)"/>
<path d="" fill="#FFFFFF" transform="translate(0,0)"/>
<path d="" fill="#FFFFFF" transform="translate(0,0)"/>
<path d="" fill="#FFFFFF" transform="translate(0,0)"/>
<path d="" fill="#FFFFFF" transform="translate(0,0)"/>
<path d="" fill="#FFFFFF" transform="translate(0,0)"/>
<path d="" fill="#FFFFFF" transform="translate(0,0)"/>
<path d="" fill="#FFFFFF" transform="translate(0,0)"/>
<path d="" fill="#FFFFFF" transform="translate(0,0)"/>
<path d="" fill="#FFFFFF" transform="translate(0,0)"/>
<path d="" fill="#FFFFFF" transform="translate(0,0)"/>
<path d="" fill="#FFFFFF" transform="translate(0,0)"/>
<path d="" fill="#FFFFFF" transform="translate(0,0)"/>
<path d="" fill="#FFFFFF" transform="translate(0,0)"/>
<path d="" fill="#FFFFFF" transform="translate(0,0)"/>
<path d="" fill="#FFFFFF" transform="translate(0,0)"/>
<path d="" fill="#FFFFFF" transform="translate(0,0)"/>
<path d="" fill="#FFFFFF" transform="translate(0,0)"/>
<path d="" fill="#FFFFFF" transform="translate(0,0)"/>
<path d="" fill="#FFFFFF" transform="translate(0,0)"/>
<path d="" fill="#FFFFFF" transform="translate(0,0)"/>
<path d="" fill="#FFFFFF" transform="translate(0,0)"/>
<path d="" fill="#FFFFFF" transform="translate(0,0)"/>
<path d="" fill="#FFFFFF" transform="translate(0,0)"/>
<path d="" fill="#FFFFFF" transform="translate(0,0)"/>
<path d="" fill="#FFFFFF" transform="translate(0,0)"/>
</svg>
