
<svg width="32" height="32" viewBox="0 0 32 32" fill="none" xmlns="http://www.w3.org/2000/svg">
<path d="M19.5582 4.36805C19.4417 4.36805 19.3299 4.41435 19.2475 4.49677C19.1651 4.57918 19.1188 4.69096 19.1188 4.80751C19.1188 4.92406 19.1651 5.03583 19.2475 5.11825C19.3299 5.20066 19.4417 5.24696 19.5582 5.24696C21.4664 5.24696 23.2964 6.00499 24.6457 7.35428C25.995 8.70357 26.753 10.5336 26.753 12.4418C26.753 12.5583 26.7993 12.6701 26.8817 12.7525C26.9642 12.8349 27.0759 12.8812 27.1925 12.8812C27.309 12.8812 27.4208 12.8349 27.5032 12.7525C27.5856 12.6701 27.6319 12.5583 27.6319 12.4418C27.6319 10.3005 26.7813 8.24692 25.2672 6.73281C23.7531 5.21869 21.6995 4.36806 19.5582 4.36805ZM30.1287 8.06332C29.2626 5.97272 27.7962 4.18585 25.9146 2.92861C24.0331 1.67137 21.8211 1.00022 19.5582 1C19.4417 1 19.3299 1.0463 19.2475 1.12871C19.1651 1.21113 19.1188 1.3229 19.1188 1.43945C19.1188 1.556 19.1651 1.66778 19.2475 1.75019C19.3299 1.83261 19.4417 1.87891 19.5582 1.87891C22.3597 1.87891 25.0464 2.99178 27.0273 4.9727C29.0082 6.95362 30.1211 9.64033 30.1211 12.4418C30.1211 12.5583 30.1674 12.6701 30.2498 12.7525C30.3322 12.8349 30.444 12.8812 30.5605 12.8812C30.6771 12.8812 30.7889 12.8349 30.8713 12.7525C30.9537 12.6701 31 12.5583 31 12.4418C31.0014 10.9391 30.7053 9.451 30.1287 8.06332ZM8.4707 26.459C8.38378 26.459 8.29882 26.4848 8.22655 26.533C8.15428 26.5813 8.09795 26.65 8.06469 26.7303C8.03143 26.8106 8.02273 26.8989 8.03969 26.9842C8.05664 27.0694 8.0985 27.1477 8.15996 27.2092C8.22141 27.2706 8.29972 27.3125 8.38496 27.3294C8.47021 27.3464 8.55857 27.3377 8.63887 27.3044C8.71917 27.2712 8.7878 27.2149 8.83609 27.1426C8.88438 27.0703 8.91015 26.9854 8.91015 26.8984C8.91015 26.7819 8.86385 26.6701 8.78144 26.5877C8.69902 26.5053 8.58725 26.459 8.4707 26.459ZM17.5098 15.0201L18.7986 13.8071C19.1077 13.9715 19.4653 14.0198 19.8069 13.9433C20.1485 13.8669 20.4514 13.6706 20.6608 13.3901C20.8702 13.1096 20.9723 12.7634 20.9486 12.4142C20.9248 12.065 20.7768 11.7358 20.5313 11.4862C20.2859 11.2367 19.9592 11.0832 19.6104 11.0537C19.2616 11.0242 18.9137 11.1205 18.6298 11.3253C18.3459 11.53 18.1447 11.8296 18.0626 12.1699C17.9804 12.5102 18.0229 12.8686 18.1821 13.1803L16.888 14.3984L10.1469 7.65729C10.0478 7.55884 9.92973 7.48147 9.7999 7.42983C9.67006 7.37819 9.53112 7.35334 9.39143 7.35679C9.2527 7.36087 9.11624 7.39309 8.99033 7.4515C8.86443 7.50991 8.75171 7.5933 8.65901 7.6966C4.88212 11.9256 4.89767 18.2859 8.58191 22.5001L7.15326 24.9747C6.45863 25.2337 5.85548 25.6912 5.41884 26.2904L3.91209 28.3633H3.40474C2.99638 28.3619 2.59581 28.475 2.24844 28.6896C1.90107 28.9043 1.6208 29.212 1.43942 29.5779L1.0464 30.364C1.0129 30.431 0.997078 30.5055 1.00044 30.5803C1.00381 30.6551 1.02625 30.7279 1.06563 30.7916C1.10501 30.8553 1.16002 30.9079 1.22545 30.9444C1.29087 30.9809 1.36454 31 1.43944 31H15.5019C15.5769 31 15.6505 30.9809 15.7159 30.9444C15.7814 30.9079 15.8364 30.8553 15.8758 30.7916C15.9151 30.7279 15.9376 30.6551 15.9409 30.5803C15.9443 30.5055 15.9285 30.431 15.895 30.364L15.5019 29.5779C15.3206 29.212 15.0403 28.9043 14.6929 28.6896C14.3456 28.475 13.945 28.3619 13.5367 28.3633H13.0293L11.6235 26.4292L12.2837 25.2856C14.2661 26.2081 16.4751 26.5301 18.6383 26.2117C20.8015 25.8934 22.8241 24.9487 24.4566 23.4943C24.5603 23.4012 24.6439 23.288 24.7024 23.1615C24.7608 23.0351 24.7929 22.898 24.7966 22.7588C24.8002 22.6195 24.7755 22.4809 24.7238 22.3516C24.6721 22.2222 24.5946 22.1047 24.496 22.0063L17.5098 15.0201ZM19.072 12.0994C19.1819 11.9895 19.3309 11.9278 19.4863 11.9278C19.6417 11.9278 19.7907 11.9895 19.9006 12.0994C20.0105 12.2092 20.0722 12.3583 20.0722 12.5137C20.0722 12.6691 20.0105 12.8181 19.9006 12.928C19.8462 12.9824 19.7816 13.0256 19.7105 13.055C19.6394 13.0845 19.5633 13.0996 19.4863 13.0996C19.4094 13.0996 19.3332 13.0845 19.2621 13.055C19.191 13.0256 19.1264 12.9824 19.072 12.928C19.0176 12.8736 18.9744 12.809 18.945 12.7379C18.9155 12.6668 18.9004 12.5906 18.9004 12.5137C18.9004 12.4367 18.9156 12.3605 18.945 12.2895C18.9744 12.2184 19.0176 12.1538 19.072 12.0994ZM9.2129 23.165C9.89909 23.8332 10.6683 24.4104 11.5016 24.8824L11.0155 25.7244C10.3198 25.0898 9.41241 24.7373 8.4707 24.7358C8.41484 24.7358 8.35919 24.7375 8.30364 24.7399L9.2129 23.165ZM12.8058 29.2422L12.8062 29.2422H13.5367C13.7817 29.2414 14.022 29.3092 14.2304 29.438C14.4389 29.5668 14.607 29.7514 14.7159 29.9709L14.7909 30.1211H2.15049L2.22554 29.971C2.33437 29.7515 2.50253 29.5668 2.71095 29.438C2.91938 29.3092 3.15972 29.2414 3.40474 29.2422H12.8053L12.8058 29.2422ZM11.9427 28.3633H4.99866L6.12978 26.8071C6.39824 26.4378 6.75028 26.1372 7.15713 25.93C7.56398 25.7227 8.01409 25.6147 8.47068 25.6147C8.92727 25.6147 9.37738 25.7227 9.78423 25.93C10.1911 26.1372 10.5431 26.4378 10.8116 26.8071L11.9427 28.3633ZM23.8712 22.8387C19.8 26.4747 13.5843 26.2963 9.72062 22.4326C5.85692 18.5689 5.67857 12.3533 9.31453 8.28208C9.3273 8.26765 9.34294 8.25604 9.36044 8.248C9.37795 8.23995 9.39694 8.23565 9.41621 8.23536C9.41753 8.23533 9.41887 8.2353 9.4203 8.2353C9.43984 8.23521 9.4592 8.239 9.47725 8.24646C9.49531 8.25392 9.5117 8.2649 9.52547 8.27876L23.8745 22.6278C23.8888 22.6421 23.9001 22.6591 23.9076 22.6779C23.915 22.6967 23.9185 22.7168 23.9179 22.7371C23.9176 22.7563 23.9133 22.7753 23.9053 22.7928C23.8972 22.8103 23.8856 22.8259 23.8712 22.8387ZM22.2641 9.73585C22.9793 10.4552 23.3821 11.4274 23.385 12.4418C23.385 12.5583 23.4313 12.6701 23.5137 12.7525C23.5961 12.8349 23.7079 12.8812 23.8244 12.8812C23.941 12.8812 24.0527 12.8349 24.1351 12.7525C24.2176 12.6701 24.2639 12.5583 24.2639 12.4418C24.2639 11.8238 24.1422 11.2119 23.9057 10.641C23.6692 10.0701 23.3226 9.55134 22.8856 9.11438C22.4487 8.67742 21.9299 8.3308 21.359 8.09433C20.7881 7.85785 20.1762 7.73613 19.5582 7.73614C19.4417 7.73614 19.3299 7.78244 19.2475 7.86485C19.1651 7.94726 19.1188 8.05904 19.1188 8.17559C19.1188 8.29214 19.1651 8.40392 19.2475 8.48633C19.3299 8.56875 19.4417 8.61504 19.5582 8.61504C20.5726 8.61794 21.5448 9.02067 22.2641 9.73585Z" fill="white" stroke="white"/>
</svg>
