
<svg width="14" height="24" viewBox="0 0 14 24" fill="none" xmlns="http://www.w3.org/2000/svg">
<path fill-rule="evenodd" clip-rule="evenodd" d="M4.81252 0.361542C4.63865 0.361631 4.46937 0.417394 4.32949 0.520665C4.18961 0.623935 4.08647 0.769286 4.03518 0.935426L0.779585 11.5165C0.742032 11.6382 0.733567 11.7671 0.754883 11.8927C0.7762 12.0183 0.826696 12.1371 0.902311 12.2397C0.977925 12.3422 1.07655 12.4255 1.19025 12.483C1.30394 12.5404 1.42953 12.5704 1.55692 12.5705H3.93504L3.1879 22.2757C3.17462 22.4539 3.22038 22.6316 3.31812 22.7812C3.41585 22.9309 3.56013 23.0442 3.72868 23.1037C3.89723 23.1632 4.08068 23.1656 4.25071 23.1105C4.42073 23.0553 4.56789 22.9458 4.66945 22.7987L13.6223 9.77579C13.7063 9.65356 13.7553 9.51072 13.764 9.36268C13.7727 9.21464 13.7408 9.06704 13.6718 8.93581C13.6027 8.80457 13.4991 8.69469 13.3722 8.61803C13.2453 8.54138 13.0998 8.50085 12.9515 8.50084H10.1982L13.6796 1.53951C13.7416 1.41541 13.7709 1.27751 13.7646 1.13891C13.7584 1.0003 13.7168 0.865597 13.6439 0.747577C13.5709 0.629556 13.4691 0.532141 13.3479 0.464578C13.2267 0.397014 13.0903 0.361546 12.9515 0.361542H4.81252Z" fill="white"/>
</svg>
