<svg xmlns="http://www.w3.org/2000/svg" width="329.109" height="150.839" viewBox="0 0 329.109 150.839">
  <g id="_10173310_8509_Converted_" data-name="10173310_8509 [Converted]" transform="translate(-334.7 -352.016)">
    <path id="Path_9102" data-name="Path 9102" d="M674.239,502.646l-319.586-.078s-.457-17.957.784-38.174c0-.078.013-.157.013-.235s.013-.157.013-.235c.98-15.761,2.993-32.829,7.044-43.807l.078-.235a1.743,1.743,0,0,1,.091-.235c.366-1.019.771-2.039,1.2-3.071a1.843,1.843,0,0,1,.1-.235,1.865,1.865,0,0,1,.1-.235,80.892,80.892,0,0,1,9.083-15.826c1.006-1.372,2.026-2.705,3.058-3.973.915-1.124,1.843-2.209,2.8-3.267,47.479-52.772,124.311-5.149,149.8-21.956,49.845-32.868,121.7-21.76,135.472,21.956.34,1.072.64,2.156.9,3.267a55.441,55.441,0,0,1,.967,19.8c-.013.078-.013.157-.026.235h0a1.435,1.435,0,0,0-.026.235h0a76.741,76.741,0,0,1-3.2,13.945c-5.214,16.009,1.451,25.04,8.129,33.4h0a2.873,2.873,0,0,1,.183.235h0l.2.235h0C679.375,474.365,687.059,483.539,674.239,502.646Z" transform="translate(-17.273 0)" fill="#afcdfb" opacity="0.4"/>
    <g id="Group_14033" data-name="Group 14033" transform="translate(465.389 416.091)">
      <g id="Group_14031" data-name="Group 14031" transform="translate(0.235 0.235)">
        <path id="Path_9103" data-name="Path 9103" d="M1391.245,891.932h-51.073a3.676,3.676,0,0,1-3.672-3.672V847.772a3.676,3.676,0,0,1,3.672-3.672h51.073a3.675,3.675,0,0,1,3.672,3.672v40.5A3.664,3.664,0,0,1,1391.245,891.932Z" transform="translate(-1336.5 -844.1)" fill="#afcdfb"/>
      </g>
      <g id="Group_14032" data-name="Group 14032" transform="translate(0)">
        <path id="Path_9104" data-name="Path 9104" d="M1389.681,842.3h-51.073a3.91,3.91,0,0,0-3.908,3.908v40.5a3.91,3.91,0,0,0,3.908,3.908h51.073a3.754,3.754,0,0,0,1.869-.484,3.9,3.9,0,0,0,2.039-3.424v-40.5A3.91,3.91,0,0,0,1389.681,842.3Zm3.437,44.408a3.427,3.427,0,0,1-1.712,2.967h0a3.409,3.409,0,0,1-.706.314h0a3.83,3.83,0,0,1-.954.157h-51.139a3.427,3.427,0,0,1-3.424-3.424V846.208a3.427,3.427,0,0,1,3.424-3.424h51.073a3.427,3.427,0,0,1,3.424,3.424v40.5Z" transform="translate(-1334.7 -842.3)" fill="#588edd"/>
      </g>
    </g>
    <g id="Group_14041" data-name="Group 14041" transform="translate(373.136 405.361)">
      <path id="Path_9105" data-name="Path 9105" d="M689.688,762.814v91.168a2.621,2.621,0,0,1-2.614,2.614h-55.66a2.621,2.621,0,0,1-2.614-2.614V762.814a2.621,2.621,0,0,1,2.614-2.614h55.66A2.621,2.621,0,0,1,689.688,762.814Z" transform="translate(-628.8 -760.2)" fill="#afcdfb"/>
      <path id="Path_9106" data-name="Path 9106" d="M901.719,844.054H881.227a2.923,2.923,0,0,1-2.927-2.927v-64.3a2.923,2.923,0,0,1,2.927-2.927h20.492a2.923,2.923,0,0,1,2.927,2.927v64.3A2.923,2.923,0,0,1,901.719,844.054Z" transform="translate(-845.693 -772.109)" fill="#cfe3ff"/>
      <g id="Group_14034" data-name="Group 14034" transform="translate(30.673 0)">
        <rect id="Rectangle_2178" data-name="Rectangle 2178" width="0.248" height="96.396" fill="#7fabef"/>
      </g>
      <g id="Group_14035" data-name="Group 14035" transform="translate(32.607 37.939)" opacity="0.5">
        <path id="Path_9107" data-name="Path 9107" d="M904.5,1068.809,878.3,1051.9l.078-1.4,26.386,17.042Z" transform="translate(-878.3 -1050.5)" fill="#ee9849"/>
      </g>
      <g id="Group_14036" data-name="Group 14036" transform="translate(32.528 45.493)" opacity="0.5">
        <path id="Path_9108" data-name="Path 9108" d="M903.8,1126.322l-26.1-16.859.405-1.163,26.347,17Z" transform="translate(-877.7 -1108.3)" fill="#ee9849"/>
      </g>
      <path id="Path_9109" data-name="Path 9109" d="M652.227,844.054h20.492a2.923,2.923,0,0,0,2.927-2.927v-64.3a2.923,2.923,0,0,0-2.927-2.927H652.227a2.923,2.923,0,0,0-2.927,2.927v64.3A2.923,2.923,0,0,0,652.227,844.054Z" transform="translate(-646.621 -772.109)" fill="#cfe3ff"/>
      <g id="Group_14037" data-name="Group 14037" transform="translate(2.562 37.939)" opacity="0.5">
        <path id="Path_9110" data-name="Path 9110" d="M648.661,1068.809l26.2-16.911-.079-1.4L648.4,1067.542Z" transform="translate(-648.4 -1050.5)" fill="#ee9849"/>
      </g>
      <g id="Group_14038" data-name="Group 14038" transform="translate(2.339 45.493)" opacity="0.5">
        <path id="Path_9111" data-name="Path 9111" d="M647.366,1126.322l26.1-16.859-.405-1.163-26.36,17Z" transform="translate(-646.7 -1108.3)" fill="#ee9849"/>
      </g>
      <g id="Group_14039" data-name="Group 14039" transform="translate(32.319 1.516)">
        <path id="Path_9112" data-name="Path 9112" d="M899.807,842.529H879.315a3.213,3.213,0,0,1-3.215-3.215v-64.3a3.213,3.213,0,0,1,3.215-3.215h20.492a3.212,3.212,0,0,1,3.215,3.215v64.3A3.221,3.221,0,0,1,899.807,842.529Zm-20.492-70.154a2.65,2.65,0,0,0-2.64,2.64v64.3a2.649,2.649,0,0,0,2.64,2.64h20.492a2.649,2.649,0,0,0,2.64-2.64v-64.3a2.649,2.649,0,0,0-2.64-2.64Z" transform="translate(-876.1 -771.8)" fill="#7fabef"/>
      </g>
      <g id="Group_14040" data-name="Group 14040" transform="translate(2.392 1.516)">
        <path id="Path_9113" data-name="Path 9113" d="M670.807,842.529H650.315a3.212,3.212,0,0,1-3.215-3.215v-64.3a3.213,3.213,0,0,1,3.215-3.215h20.492a3.212,3.212,0,0,1,3.215,3.215v64.3A3.229,3.229,0,0,1,670.807,842.529Zm-20.492-70.154a2.65,2.65,0,0,0-2.64,2.64v64.3a2.65,2.65,0,0,0,2.64,2.64h20.492a2.649,2.649,0,0,0,2.64-2.64v-64.3a2.65,2.65,0,0,0-2.64-2.64Z" transform="translate(-647.1 -771.8)" fill="#7fabef"/>
      </g>
    </g>
    <g id="Group_14049" data-name="Group 14049" transform="translate(568.777 405.361)">
      <path id="Path_9114" data-name="Path 9114" d="M2186.688,762.814v91.168a2.622,2.622,0,0,1-2.614,2.614h-55.661a2.622,2.622,0,0,1-2.614-2.614V762.814a2.622,2.622,0,0,1,2.614-2.614h55.661A2.622,2.622,0,0,1,2186.688,762.814Z" transform="translate(-2125.8 -760.2)" fill="#afcdfb"/>
      <path id="Path_9115" data-name="Path 9115" d="M2398.719,844.054h-20.492a2.923,2.923,0,0,1-2.927-2.927v-64.3a2.923,2.923,0,0,1,2.927-2.927h20.492a2.922,2.922,0,0,1,2.927,2.927v64.3A2.922,2.922,0,0,1,2398.719,844.054Z" transform="translate(-2342.693 -772.109)" fill="#cfe3ff"/>
      <g id="Group_14042" data-name="Group 14042" transform="translate(30.673 0)">
        <rect id="Rectangle_2179" data-name="Rectangle 2179" width="0.248" height="96.396" fill="#7fabef"/>
      </g>
      <g id="Group_14043" data-name="Group 14043" transform="translate(32.607 37.939)" opacity="0.5">
        <path id="Path_9116" data-name="Path 9116" d="M2401.5,1068.809l-26.2-16.911.078-1.4,26.386,17.042Z" transform="translate(-2375.3 -1050.5)" fill="#ee9849"/>
      </g>
      <g id="Group_14044" data-name="Group 14044" transform="translate(32.515 45.493)" opacity="0.5">
        <path id="Path_9117" data-name="Path 9117" d="M2400.712,1126.322l-26.111-16.859.418-1.163,26.347,17Z" transform="translate(-2374.6 -1108.3)" fill="#ee9849"/>
      </g>
      <path id="Path_9118" data-name="Path 9118" d="M2149.127,844.054h20.492a2.923,2.923,0,0,0,2.927-2.927v-64.3a2.923,2.923,0,0,0-2.927-2.927h-20.492a2.922,2.922,0,0,0-2.927,2.927v64.3A2.931,2.931,0,0,0,2149.127,844.054Z" transform="translate(-2143.534 -772.109)" fill="#cfe3ff"/>
      <g id="Group_14045" data-name="Group 14045" transform="translate(2.561 37.939)" opacity="0.5">
        <path id="Path_9119" data-name="Path 9119" d="M2145.661,1068.809l26.2-16.911-.079-1.4-26.386,17.042Z" transform="translate(-2145.4 -1050.5)" fill="#ee9849"/>
      </g>
      <g id="Group_14046" data-name="Group 14046" transform="translate(2.339 45.493)" opacity="0.5">
        <path id="Path_9120" data-name="Path 9120" d="M2144.367,1126.322l26.1-16.859-.4-1.163-26.36,17Z" transform="translate(-2143.7 -1108.3)" fill="#ee9849"/>
      </g>
      <g id="Group_14047" data-name="Group 14047" transform="translate(32.319 1.516)">
        <path id="Path_9121" data-name="Path 9121" d="M2396.807,842.529h-20.492a3.213,3.213,0,0,1-3.215-3.215v-64.3a3.213,3.213,0,0,1,3.215-3.215h20.492a3.213,3.213,0,0,1,3.215,3.215v64.3A3.221,3.221,0,0,1,2396.807,842.529Zm-20.492-70.154a2.649,2.649,0,0,0-2.64,2.64v64.3a2.649,2.649,0,0,0,2.64,2.64h20.492a2.649,2.649,0,0,0,2.64-2.64v-64.3a2.649,2.649,0,0,0-2.64-2.64Z" transform="translate(-2373.099 -771.8)" fill="#7fabef"/>
      </g>
      <g id="Group_14048" data-name="Group 14048" transform="translate(2.392 1.516)">
        <path id="Path_9122" data-name="Path 9122" d="M2167.807,842.529h-20.492a3.213,3.213,0,0,1-3.215-3.215v-64.3a3.213,3.213,0,0,1,3.215-3.215h20.492a3.213,3.213,0,0,1,3.215,3.215v64.3A3.23,3.23,0,0,1,2167.807,842.529ZM2147.3,772.375a2.649,2.649,0,0,0-2.64,2.64v64.3a2.649,2.649,0,0,0,2.64,2.64h20.492a2.65,2.65,0,0,0,2.64-2.64v-64.3a2.65,2.65,0,0,0-2.64-2.64Z" transform="translate(-2144.1 -771.8)" fill="#7fabef"/>
      </g>
    </g>
    <g id="Group_14052" data-name="Group 14052" transform="translate(449.628 441.993)">
      <path id="Path_9123" data-name="Path 9123" d="M1448.481,1360.4s-.653,10.076.327,14.323a13.962,13.962,0,0,0,4.339.235l.366-10.3Z" transform="translate(-1417.665 -1318.593)" fill="#2c3a64"/>
      <path id="Path_9124" data-name="Path 9124" d="M1499.613,1450.82a11.323,11.323,0,0,0,2.039,2.052,21.442,21.442,0,0,0,2.941,1.176,2.113,2.113,0,0,1,1.79,1.555h-10.115a4.287,4.287,0,0,1,0-2.274c.366-.993-.967-4.13-.967-4.13Z" transform="translate(-1458.55 -1395.787)" fill="#2c3a64"/>
      <path id="Path_9125" data-name="Path 9125" d="M1452.56,1445.234s1.281,2.013,1.843,2.248a20.786,20.786,0,0,0,2.94,1.176,2.113,2.113,0,0,1,1.79,1.555h-10.115a4.289,4.289,0,0,1,0-2.274,28.531,28.531,0,0,0,.418-4.94Z" transform="translate(-1418.176 -1390.398)" fill="#2c3a64"/>
      <g id="Group_14050" data-name="Group 14050" transform="translate(0 0)">
        <path id="Path_9126" data-name="Path 9126" d="M1231.053,1110.411c-2.3,1.438-6.953-.118-6.953-.118a6.39,6.39,0,0,0,1.124-3.96,7.812,7.812,0,0,0-.314-1.934l1.9.863,2.026.928a16.681,16.681,0,0,1,.3,1.777c.039.287.065.627.1.98A3.053,3.053,0,0,1,1231.053,1110.411Z" transform="translate(-1222.793 -1096.049)" fill="#ffb07b"/>
        <path id="Path_9127" data-name="Path 9127" d="M1234.621,1107.955a4.362,4.362,0,0,1-4.221-3.555l1.9.862,2.026.928A15.07,15.07,0,0,1,1234.621,1107.955Z" transform="translate(-1228.27 -1096.049)" fill="#ea8e50"/>
        <path id="Path_9128" data-name="Path 9128" d="M1234.471,1074.9s-4.326.052-4.313-2.64-.536-4.509,2.222-4.653,3.293.889,3.515,1.79S1235.6,1074.824,1234.471,1074.9Z" transform="translate(-1228.029 -1064.056)" fill="#ffb07b"/>
        <path id="Path_9129" data-name="Path 9129" d="M1223.42,1044.421a6.009,6.009,0,0,0,.5-1.425s-.706.627-2-.444-3.633-2.339-5.437-1.294c-.118.065-.222.144-.34.222a4.942,4.942,0,0,1,.444-.98,3.215,3.215,0,0,0-1.058,1.516h0l-.065.065a3.66,3.66,0,0,0-1.294.654,1.139,1.139,0,0,1,.823-.091c-.849,1.2-1.189,2.731-.575,3.7.9,1.4,1.163,1.006,1.843,2.731,0,0,.641-.183.6-.627s-.627-1.477.157-1.542.64.523,1.019.366.052-1.621,1.764-1.581S1223.028,1045.178,1223.42,1044.421Z" transform="translate(-1214.102 -1040.5)" fill="#233862"/>
      </g>
      <path id="Path_9130" data-name="Path 9130" d="M1251.448,1303.715l10.808-1.215s13.5-.013,16.519,1.621c3.751,2.026,9.619,20.126,9.619,20.126a3.952,3.952,0,0,1-3.842.627c-1.4-.379-7.959-10.638-8.952-14.349-.523-1.934-17.787,2.039-21.119.64S1251.448,1303.715,1251.448,1303.715Z" transform="translate(-1246.56 -1268.259)" fill="#1c468a"/>
      <path id="Path_9131" data-name="Path 9131" d="M1234.93,1159.125a.32.32,0,0,1-.222.144c-.627.131-2.038.719-3.594,1.137a12.82,12.82,0,0,1-1.817.366,12.572,12.572,0,0,1-2.208.1,21.225,21.225,0,0,1-3.189-.392c-.248-.052-.836-.209-.875-.458-.052-.275-.118-.68-.2-1.189a65.223,65.223,0,0,0-1.777-8.26c-.144-.483-.274-.98-.392-1.464-.039-.144-.078-.3-.1-.444a30.944,30.944,0,0,1-.588-3.2c-.444-3.385-.17-6.273,1.02-7.685a6.09,6.09,0,0,1,2.235.34,3.732,3.732,0,0,0,2.522-.275l.954.51a8.011,8.011,0,0,1,3.372,3.372,45.693,45.693,0,0,1,2.431,7.149c.366,1.307.719,2.64,1.019,3.908l.013.039c.039.118.065.262.1.392C1234.433,1156.472,1234.982,1159.06,1234.93,1159.125Z" transform="translate(-1219.025 -1125.028)" fill="#fff"/>
      <g id="Group_14051" data-name="Group 14051" transform="translate(19.329 18.675)">
        <path id="Path_9132" data-name="Path 9132" d="M1366.143,1195.2l-4.143,5.175,4.5.34,3.542-4.809Z" transform="translate(-1362 -1193.658)" fill="#b64c41"/>
        <path id="Path_9133" data-name="Path 9133" d="M1401.8,1183.4l1.1,2.248-3.1-.562Z" transform="translate(-1394.86 -1183.4)" fill="#aa413e"/>
        <path id="Path_9134" data-name="Path 9134" d="M1400.958,1185.386l-1.15-1.986-1.908,1.647Z" transform="translate(-1393.208 -1183.4)" fill="#fff"/>
        <path id="Path_9135" data-name="Path 9135" d="M1396.1,1193.874l.078-.274,3.215.653.131.235Z" transform="translate(-1391.643 -1192.267)" fill="#b2cbfd"/>
        <path id="Path_9136" data-name="Path 9136" d="M1395.309,1193.6l-.209.248.157.026Z" transform="translate(-1390.774 -1192.267)" fill="#739cf3"/>
      </g>
      <path id="Path_9137" data-name="Path 9137" d="M1250.169,1165.069l-.405,2.169s-7.724,6.378-10.311,6.168c-1.268-.1-3.463-3.881-5.358-7.671h0c-1.96-3.908-3.594-7.854-3.594-7.854.091-2.9,6.338-2.169,7.161-1.333.432.444,1.477,3.307,2.379,6.051h0c.81,2.47,1.516,4.835,1.581,5.28C1241.752,1168.82,1250.169,1165.069,1250.169,1165.069Z" transform="translate(-1228.357 -1140.735)" fill="#ffb07b"/>
      <path id="Path_9138" data-name="Path 9138" d="M1365.439,1214.271s.575-1.137,1.307-1.15,2.222-.876,2.6-.693-1.241,3.568-2.2,3.568a23.617,23.617,0,0,0-4.051,1.059Z" transform="translate(-1343.628 -1189.937)" fill="#ffb07b"/>
      <path id="Path_9139" data-name="Path 9139" d="M1239.94,1162.6a11.75,11.75,0,0,1-5.946,3.137h0c-1.96-3.907-3.594-7.854-3.594-7.854.091-2.9,6.339-2.169,7.162-1.333.431.444,1.477,3.306,2.379,6.051Z" transform="translate(-1228.27 -1140.735)" fill="#fff"/>
    </g>
    <g id="Group_14055" data-name="Group 14055" transform="translate(445.071 456.844)">
      <g id="Group_14054" data-name="Group 14054" transform="translate(0 0)">
        <rect id="Rectangle_2180" data-name="Rectangle 2180" width="12.755" height="16.48" transform="translate(15.221 28.996)" fill="#c4dafc"/>
        <g id="Group_14053" data-name="Group 14053">
          <path id="Path_9140" data-name="Path 9140" d="M1211.062,1183.126h-16.728a8.5,8.5,0,0,1-8.05-5.776l-6.94-20.427a2.112,2.112,0,1,1,4-1.359l6.94,20.427a4.292,4.292,0,0,0,4.064,2.914h16.728a2.1,2.1,0,0,1,2.1,2.1A2.134,2.134,0,0,1,1211.062,1183.126Z" transform="translate(-1179.23 -1154.13)" fill="#f99746"/>
        </g>
        <path id="Path_9141" data-name="Path 9141" d="M1243.865,1268.045H1221.4V1265h19.42a3.048,3.048,0,0,1,3.045,3.045Z" transform="translate(-1215.889 -1250.51)" fill="#f99746"/>
      </g>
      <path id="Path_9142" data-name="Path 9142" d="M1287.389,1483.022H1266.4a2.22,2.22,0,0,1,2.222-2.222h16.545a2.22,2.22,0,0,1,2.222,2.222Z" transform="translate(-1255.008 -1438.108)" fill="#c4dafc"/>
    </g>
    <path id="Path_9143" data-name="Path 9143" d="M807.963,669.067H520.2c.915-1.124,1.843-2.209,2.784-3.267H807.062C807.4,666.872,807.7,667.956,807.963,669.067Z" transform="translate(-161.257 -272.776)" fill="#f99746"/>
    <g id="Group_14062" data-name="Group 14062" transform="translate(530.11 392.552)">
      <g id="Group_14059" data-name="Group 14059" transform="translate(3.478 0)">
        <g id="Group_14056" data-name="Group 14056" transform="translate(1.588 3.896)">
          <path id="Path_9144" data-name="Path 9144" d="M1869.066,700.456a.377.377,0,0,1-.366-.379v-7.7a.368.368,0,0,1,.366-.379.377.377,0,0,1,.366.379v7.7A.368.368,0,0,1,1869.066,700.456Z" transform="translate(-1868.7 -692)" fill="#163560"/>
        </g>
        <g id="Group_14057" data-name="Group 14057" transform="translate(0 10.614)">
          <path id="Path_9145" data-name="Path 9145" d="M1858.54,753.96h-.039a1.739,1.739,0,0,1-1.516-.823c-.6-.967-.588-2.758.065-5.345a32.438,32.438,0,0,1,1.111-3.516l.34-.876.34.876a30.3,30.3,0,0,1,1.111,3.568c.653,2.614.667,4.417.052,5.358A1.642,1.642,0,0,1,1858.54,753.96Zm-.039-8.455c-.732,2.143-1.751,5.855-.9,7.2a.983.983,0,0,0,.915.47.927.927,0,0,0,.889-.431C1860.265,751.463,1859.245,747.673,1858.5,745.5Z" transform="translate(-1856.547 -743.4)" fill="#163560"/>
        </g>
        <g id="Group_14058" data-name="Group 14058" transform="translate(1.608)">
          <path id="Path_9146" data-name="Path 9146" d="M1869.272,666.644a.365.365,0,0,1-.118-.013.382.382,0,0,1-.287-.471,4.305,4.305,0,0,0,.026-3.424.361.361,0,0,1,.183-.51.459.459,0,0,1,.575.157,4.926,4.926,0,0,1,.026,3.986A.413.413,0,0,1,1869.272,666.644Z" transform="translate(-1868.847 -662.186)" fill="#163560"/>
        </g>
      </g>
      <g id="Group_14061" data-name="Group 14061" transform="translate(0 18.858)">
        <g id="Group_14060" data-name="Group 14060" transform="translate(13.847 18.913)">
          <path id="Path_9147" data-name="Path 9147" d="M1980.265,1155.538s-1.111,1.411-1.072,1.921a1.989,1.989,0,0,0,1.385,1.4c.614.1,1.085-1.137.941-2.457C1981.376,1155.054,1980.265,1155.538,1980.265,1155.538Z" transform="translate(-1973.532 -1128.76)" fill="#ef8535"/>
          <path id="Path_9148" data-name="Path 9148" d="M1940.749,951.2s7.266,13.4,6.953,14.7-3.084,2.509-4.274,2.209c-1.15-.288-7.671-9.867-7.541-10.272C1936.044,957.434,1940.749,951.2,1940.749,951.2Z" transform="translate(-1935.885 -951.2)" fill="#ef8535"/>
          <path id="Path_9149" data-name="Path 9149" d="M1985.324,1072.168a97.919,97.919,0,0,0,3.045-12.35l-4.692-.418s-1.647,10.782-.8,12.964C1982.881,1072.364,1984.75,1073.789,1985.324,1072.168Z" transform="translate(-1976.527 -1045.26)" fill="#ef8535"/>
        </g>
        <path id="Path_9150" data-name="Path 9150" d="M1859.6,810.786a9.254,9.254,0,0,1-.235-3.019,2.473,2.473,0,0,1,2.13-1.268c.693.144.614,1.986-.157,3.685S1859.6,810.786,1859.6,810.786Z" transform="translate(-1855.444 -806.485)" fill="#ffb27d"/>
        <path id="Path_9151" data-name="Path 9151" d="M1896.7,1463.136s-.222,3.5-.889,3.555c-.091.013-3.437.013-3.437.013l-4.273-.026a1.375,1.375,0,0,1,1.28-1.241c1.255-.209,3.346-1.1,4.091-2.744C1894.255,1460.94,1896.7,1463.136,1896.7,1463.136Z" transform="translate(-1880.498 -1376.344)" fill="#163560"/>
        <path id="Path_9152" data-name="Path 9152" d="M1969.5,1463.136s-.222,3.5-.889,3.555c-.091.013-3.437.013-3.437.013l-4.274-.026a1.376,1.376,0,0,1,1.281-1.241c1.255-.222,3.346-1.1,4.091-2.744C1967.068,1460.94,1969.5,1463.136,1969.5,1463.136Z" transform="translate(-1943.784 -1376.344)" fill="#163560"/>
        <path id="Path_9153" data-name="Path 9153" d="M1917.7,1146.758a141.835,141.835,0,0,0,5.293,19.839c4.169,12.69,4.744,18.192,4.744,18.192l4.469-.131s.039-13.866-1.882-20.257-.418-23-.418-23Z" transform="translate(-1906.23 -1097.63)" fill="#163560"/>
        <path id="Path_9154" data-name="Path 9154" d="M1900.978,1144.4a173.209,173.209,0,0,0,1.712,23.994c1.869,13.226,1.229,18.845,1.229,18.845l4.469.144s2.666-13.226,1.908-19.852,3.659-22.714,3.659-22.714Z" transform="translate(-1891.691 -1100.238)" fill="#1c468a"/>
        <path id="Path_9155" data-name="Path 9155" d="M1932.849,916.119l-2.1,1.555-3.045-.64c.039-.274.249-1.425.432-2.47a.889.889,0,0,0,.026-.183c.157-.889.288-1.647.288-1.647l2.836-1.411,1.059-.523c0,.013-.078.98-.092,1.124A9.238,9.238,0,0,0,1932.849,916.119Z" transform="translate(-1914.923 -897.167)" fill="#ffb27d"/>
        <path id="Path_9156" data-name="Path 9156" d="M1920.271,938.205a29.3,29.3,0,0,1,4.587-1.085c.444.144.706,1.006.706,1.006l-6.665,1.5A3.188,3.188,0,0,1,1920.271,938.205Z" transform="translate(-1907.272 -920.038)" fill="#ef8535"/>
        <path id="Path_9157" data-name="Path 9157" d="M1910.558,971.882c-.693,3.15-12.18,3.529-15.147.666-.34-.327-.353-1.843-.222-3.881.17-2.8.614-6.587.875-9.671.118-1.307.183-2.483.2-3.411a25.224,25.224,0,0,1,.484-4.378,8.827,8.827,0,0,1,1.255-2.888,17.645,17.645,0,0,1,2.444-3.019s3.372-1.137,4.417-.836C1909.931,945.966,1911.251,968.732,1910.558,971.882Z" transform="translate(-1886.594 -926.387)" fill="#f99746"/>
        <path id="Path_9158" data-name="Path 9158" d="M1934.921,915.436c-.627,1.189-2.954,2.222-3.921,2.6a.875.875,0,0,0,.026-.183c.157-.889.287-1.647.287-1.647l2.836-1.411C1934.79,914.782,1935.182,914.952,1934.921,915.436Z" transform="translate(-1917.792 -900.64)" fill="#fca56b"/>
        <path id="Path_9159" data-name="Path 9159" d="M1918.642,868.225s5.123,1.594,6.077-1.607,2.248-5.162-.993-6.325-4.234-.118-4.81.876S1917.335,867.728,1918.642,868.225Z" transform="translate(-1906.492 -852.814)" fill="#ffb27d"/>
        <path id="Path_9160" data-name="Path 9160" d="M1923.383,849.212s.327,3.738,1.1,3.568,1.477-.288,1.359.849-1.189,2.431,1.2,2.627,5.8-5.933,5.149-7.1C1930.3,845.8,1920.652,845.121,1923.383,849.212Z" transform="translate(-1910.75 -841.172)" fill="#163560"/>
        <path id="Path_9161" data-name="Path 9161" d="M1907.876,978.064s-1.294,5.672-5.476,6.913c.118-1.307.183-2.483.2-3.411a25.249,25.249,0,0,1,.483-4.378,8.832,8.832,0,0,1,1.255-2.888A20,20,0,0,1,1907.876,978.064Z" transform="translate(-1892.929 -952.368)" fill="#ef8535"/>
        <path id="Path_9162" data-name="Path 9162" d="M1846.266,841.351a5.48,5.48,0,0,0-3.123-1.516c-1.8-.248-8.181-2.836-8.416-3.659-.17-.614,1.464-10.86,1.477-10.638a2.158,2.158,0,0,0-2.5-.457s-4.443,11.984-3.686,13.592c1.163,2.457,15.369,9.932,15.147,10.782C1844.724,851.14,1846.266,841.351,1846.266,841.351Z" transform="translate(-1829.934 -822.439)" fill="#f99746"/>
      </g>
    </g>
    <g id="Group_14066" data-name="Group 14066" transform="translate(493.245 392.631)">
      <g id="Group_14063" data-name="Group 14063" transform="translate(1.588 3.896)">
        <path id="Path_9163" data-name="Path 9163" d="M1560.366,701.055a.377.377,0,0,1-.366-.379v-7.7a.368.368,0,0,1,.366-.379.377.377,0,0,1,.366.379v7.7A.377.377,0,0,1,1560.366,701.055Z" transform="translate(-1560 -692.6)" fill="#163560"/>
      </g>
      <g id="Group_14064" data-name="Group 14064" transform="translate(0 10.627)">
        <path id="Path_9164" data-name="Path 9164" d="M1549.84,754.66h-.039a1.74,1.74,0,0,1-1.516-.823c-.6-.967-.588-2.758.065-5.345a32.505,32.505,0,0,1,1.111-3.516l.34-.876.34.876a30.3,30.3,0,0,1,1.111,3.568c.653,2.614.667,4.417.052,5.358A1.641,1.641,0,0,1,1549.84,754.66Zm-.039-8.456c-.732,2.143-1.751,5.855-.9,7.2a.983.983,0,0,0,.915.471.927.927,0,0,0,.889-.431C1551.552,752.15,1550.546,748.373,1549.8,746.2Z" transform="translate(-1547.846 -744.1)" fill="#163560"/>
      </g>
      <g id="Group_14065" data-name="Group 14065" transform="translate(1.595 0)">
        <path id="Path_9165" data-name="Path 9165" d="M1560.472,667.244a.361.361,0,0,1-.118-.013.382.382,0,0,1-.288-.47,4.3,4.3,0,0,0,.026-3.424.361.361,0,0,1,.183-.51.459.459,0,0,1,.575.157,4.928,4.928,0,0,1,.026,3.986A.391.391,0,0,1,1560.472,667.244Z" transform="translate(-1560.047 -662.786)" fill="#163560"/>
      </g>
    </g>
    <g id="Group_14070" data-name="Group 14070" transform="translate(566.339 392.62)">
      <g id="Group_14067" data-name="Group 14067" transform="translate(1.588 4.939)">
        <path id="Path_9166" data-name="Path 9166" d="M2119.666,711.229a.437.437,0,0,1-.366-.484v-9.762c0-.261.157-.483.366-.483a.437.437,0,0,1,.366.483v9.776C2120.019,711.02,2119.862,711.229,2119.666,711.229Z" transform="translate(-2119.3 -700.5)" fill="#163560"/>
      </g>
      <g id="Group_14068" data-name="Group 14068" transform="translate(0 13.486)">
        <path id="Path_9167" data-name="Path 9167" d="M2109.14,779.3h-.039a1.682,1.682,0,0,1-1.516-1.045c-.6-1.215-.588-3.5.065-6.783.47-2.365,1.084-4.378,1.111-4.456l.34-1.111.34,1.111c.026.091.653,2.13,1.111,4.522.654,3.32.667,5.607.052,6.8A1.616,1.616,0,0,1,2109.14,779.3Zm-.039-10.729c-.732,2.705-1.751,7.436-.9,9.135a.96.96,0,0,0,.915.6.881.881,0,0,0,.889-.536C2110.852,776.107,2109.832,771.324,2109.1,768.566Z" transform="translate(-2107.146 -765.9)" fill="#163560"/>
      </g>
      <g id="Group_14069" data-name="Group 14069" transform="translate(1.595 0)">
        <path id="Path_9168" data-name="Path 9168" d="M2119.772,668.379a.193.193,0,0,1-.117-.026.5.5,0,0,1-.288-.6,6.823,6.823,0,0,0,.026-4.352.505.505,0,0,1,.183-.64.408.408,0,0,1,.575.209,7.764,7.764,0,0,1,.026,5.058A.406.406,0,0,1,2119.772,668.379Z" transform="translate(-2119.347 -662.708)" fill="#163560"/>
      </g>
    </g>
    <g id="Group_14074" data-name="Group 14074" transform="translate(487.455 392.631)">
      <g id="Group_14071" data-name="Group 14071" transform="translate(1.588 3.896)">
        <path id="Path_9169" data-name="Path 9169" d="M1516.066,701.055a.377.377,0,0,1-.366-.379v-7.7a.366.366,0,1,1,.732,0v7.7A.377.377,0,0,1,1516.066,701.055Z" transform="translate(-1515.7 -692.6)" fill="#163560"/>
      </g>
      <g id="Group_14072" data-name="Group 14072" transform="translate(0 10.627)">
        <path id="Path_9170" data-name="Path 9170" d="M1505.54,754.66h-.039a1.74,1.74,0,0,1-1.516-.823c-.6-.967-.588-2.758.066-5.345a32.52,32.52,0,0,1,1.111-3.516l.34-.876.34.876a30.3,30.3,0,0,1,1.111,3.568c.653,2.614.666,4.417.052,5.358A1.642,1.642,0,0,1,1505.54,754.66Zm-.039-8.456c-.732,2.143-1.751,5.855-.9,7.2a.984.984,0,0,0,.915.471.927.927,0,0,0,.889-.431C1507.252,752.15,1506.246,748.373,1505.5,746.2Z" transform="translate(-1503.547 -744.1)" fill="#163560"/>
      </g>
      <g id="Group_14073" data-name="Group 14073" transform="translate(1.608 0)">
        <path id="Path_9171" data-name="Path 9171" d="M1516.272,667.244a.364.364,0,0,1-.118-.013.381.381,0,0,1-.287-.47,4.3,4.3,0,0,0,.026-3.424.36.36,0,0,1,.183-.51.459.459,0,0,1,.575.157,4.927,4.927,0,0,1,.026,3.986A.413.413,0,0,1,1516.272,667.244Z" transform="translate(-1515.847 -662.786)" fill="#163560"/>
      </g>
    </g>
    <g id="Group_14078" data-name="Group 14078" transform="translate(460.925 392.631)">
      <g id="Group_14075" data-name="Group 14075" transform="translate(1.601 3.896)">
        <path id="Path_9172" data-name="Path 9172" d="M1313.166,701.055a.377.377,0,0,1-.366-.379v-7.7a.368.368,0,0,1,.366-.379.377.377,0,0,1,.366.379v7.7A.386.386,0,0,1,1313.166,701.055Z" transform="translate(-1312.8 -692.6)" fill="#163560"/>
      </g>
      <g id="Group_14076" data-name="Group 14076" transform="translate(0 10.627)">
        <path id="Path_9173" data-name="Path 9173" d="M1302.54,754.66h-.039a1.74,1.74,0,0,1-1.516-.823c-.6-.967-.588-2.758.065-5.345a32.49,32.49,0,0,1,1.111-3.516l.34-.876.34.876a31.838,31.838,0,0,1,1.124,3.568c.653,2.614.667,4.417.052,5.358A1.679,1.679,0,0,1,1302.54,754.66Zm-.026-8.456c-.732,2.143-1.751,5.855-.9,7.2a.983.983,0,0,0,.915.471.927.927,0,0,0,.889-.431C1304.265,752.15,1303.246,748.373,1302.514,746.2Z" transform="translate(-1300.547 -744.1)" fill="#163560"/>
      </g>
      <g id="Group_14077" data-name="Group 14077" transform="translate(1.608 0)">
        <path id="Path_9174" data-name="Path 9174" d="M1313.272,667.244a.363.363,0,0,1-.118-.013.381.381,0,0,1-.287-.47,4.3,4.3,0,0,0,.026-3.424.361.361,0,0,1,.183-.51.459.459,0,0,1,.575.157,4.926,4.926,0,0,1,.026,3.986A.413.413,0,0,1,1313.272,667.244Z" transform="translate(-1312.847 -662.786)" fill="#163560"/>
      </g>
    </g>
    <g id="Group_14081" data-name="Group 14081" transform="translate(566.927 416.947)">
      <path id="Path_9175" data-name="Path 9175" d="M2204.3,897.691s4.077-4.9,6.247-1.764c0,0,1.607.667,2.2,3.411.6,2.8-1.268,4.927-2.235,4.4-.614-.34-1.085.745-1.085.745Z" transform="translate(-2192.192 -888.862)" fill="#233862"/>
      <path id="Path_9176" data-name="Path 9176" d="M2124.4,894.818a3.562,3.562,0,0,0-1.555-1.412c-1.294-.758-6.365-4.848-6.691-6.208s-1.8-8.3-1.8-8.3H2113.1s.392,9.018.719,10,6.769,9.436,8.521,9.841Z" transform="translate(-2112.911 -874.973)" fill="#ffb27d"/>
      <path id="Path_9177" data-name="Path 9177" d="M2247.254,1006.53c-.117.274-.6.523-1.32.693a12.043,12.043,0,0,1-6.234-.274c-2.091-.771-3.62-11.866-4.261-17.538-.222-1.986-.34-3.307-.34-3.307s1.2-1.882,5.868-1.255,5.136,2.2,5.554,5.031C2246.94,992.69,2247.62,1005.628,2247.254,1006.53Z" transform="translate(-2218.967 -966.964)" fill="#466aa5"/>
      <path id="Path_9178" data-name="Path 9178" d="M2248.194,1015.927a12.044,12.044,0,0,1-6.234-.274c-2.091-.771-3.62-11.867-4.26-17.539.549-1.96.993-3.241.993-3.241s5.855-.706,6.992,1.059C2246.7,997.5,2247.946,1012.725,2248.194,1015.927Z" transform="translate(-2221.227 -975.668)" fill="#2b478b"/>
      <path id="Path_9179" data-name="Path 9179" d="M2248.6,888.148s.549-2.2,3.777-1.516c0,0-1.542-.2-1.973.405a2.52,2.52,0,0,1,1.987-.091c.771.471.889,2.052.784,2.522s-.967,1.908-1.516,1.908a2.654,2.654,0,0,1-1.229-.5Z" transform="translate(-2230.702 -881.581)" fill="#233862"/>
      <path id="Path_9180" data-name="Path 9180" d="M2198.448,989.368c-1.607-3.594-2.365-4.613-2.392-5.75-.026-.889.418-1.856,1.281-4.234a9.957,9.957,0,0,0,.431-1.712c.679-4.561-1.96-9.5-3.607-9.841-.458-.118-1.228-1.764-1.216-4.43l-.209.039-3.45.68s.078,1.085.078,2.117c0,.849-.052,1.66-.248,1.764-.249.026-.392.039-.392.039s-2.875,4-3.123,7.724,2.3,5.332-.013,12.768C2183.2,996.138,2199.324,991.354,2198.448,989.368Z" transform="translate(-2175.715 -948.429)" fill="#ffb27d"/>
      <path id="Path_9181" data-name="Path 9181" d="M2215.4,964.579s.079,1.085.079,2.117c1.934-.052,2.954-1.817,3.372-2.8Z" transform="translate(-2201.841 -948.864)" fill="#fca56b"/>
      <path id="Path_9182" data-name="Path 9182" d="M2204.689,913.8a9.867,9.867,0,0,0,1.254-2.967c.17-.98-.327-4.6-3.96-4.077a4.979,4.979,0,0,0-2.052.771c-.784.536-1.934,1.686-.653,4.848l.327,1.072Z" transform="translate(-2187.327 -899.146)" fill="#233862"/>
      <path id="Path_9183" data-name="Path 9183" d="M2200.239,925.18s4.574.078,4.574-2.771.6-4.757-2.326-4.927-3.489.915-3.724,1.869S2199.05,925.088,2200.239,925.18Z" transform="translate(-2187.333 -908.497)" fill="#ffb27d"/>
      <path id="Path_9184" data-name="Path 9184" d="M2211.7,913.239s1.254,3.346,3.175,3.842a3.754,3.754,0,0,0,2.758-.026,5.438,5.438,0,0,1-1.778-3.215S2212.641,911.644,2211.7,913.239Z" transform="translate(-2198.625 -904.319)" fill="#233862"/>
      <path id="Path_9185" data-name="Path 9185" d="M2198.67,915.588a3.952,3.952,0,0,0-1.163,1.477c-.222.732-.327,2.222-.771,2.169,0,0-.941-2.274.117-3.555C2197.978,914.307,2198.67,915.588,2198.67,915.588Z" transform="translate(-2185.282 -906.394)" fill="#233862"/>
      <path id="Path_9186" data-name="Path 9186" d="M2192.934,1202.961a45.119,45.119,0,0,1-2.888,8.089l-1.5-.1a41.886,41.886,0,0,0,.693-8.272,34.744,34.744,0,0,0-1.751-11c-4.509-12.886-3.777-22.269-3.777-22.269l8.482.993.392.052c.039,3.895.131,9.188.222,13.33.078,3.725.144,6.508.144,6.508C2194.581,1193.786,2193.993,1198.739,2192.934,1202.961Z" transform="translate(-2174.252 -1127.507)" fill="#b24646"/>
      <path id="Path_9187" data-name="Path 9187" d="M2261.468,1022.219l-1.372.418s-4.535-7.515-4.94-9.475c-.131-.64-.458-1.908-.849-3.333-.8-2.953-1.817-6.574-1.817-6.574l-.34-1.464L2251,996.8a15.294,15.294,0,0,1,3.5.771,1.566,1.566,0,0,1,.863.64c.954,2.091,1.9,7.345,2.562,11.108.366,2.091.653,3.712.8,4.064C2259.129,1014.325,2260.4,1019.618,2261.468,1022.219Z" transform="translate(-2232.789 -977.464)" fill="#ffb27d"/>
      <path id="Path_9188" data-name="Path 9188" d="M2225.211,1190.233a20.8,20.8,0,0,1-2.64,8.573l-.719.523s-.679-3.672-1.163-8.037c-.458-4.143-1.085-8.534-1.8-9.88-2.836-5.319-3.685-25.38-3.685-25.38l8.6-.431c.863,1.451,1.241,3.842,1.333,6.548.222,6.848-1.385,15.774-1.621,17.068h0a.542.542,0,0,0,.052.287A19.7,19.7,0,0,1,2225.211,1190.233Z" transform="translate(-2201.667 -1115.511)" fill="#ce544e"/>
      <path id="Path_9189" data-name="Path 9189" d="M2212.8,913.986s.889,3.5,3.319,4.626c0,0-2.431-2.156-2.627-4.457C2213.27,911.842,2212.8,913.986,2212.8,913.986Z" transform="translate(-2199.581 -904.687)" fill="#233862"/>
      <path id="Path_9190" data-name="Path 9190" d="M2157.183,1497.7h0l-.483.013c.039,0,.078-.013.131-.013Z" transform="translate(-2150.812 -1412.903)" fill="#283250"/>
      <path id="Path_9191" data-name="Path 9191" d="M2321.781,1189.6a3.6,3.6,0,0,0,.849,1.255c.431.274,1.059.941.941,1.464s-.235,1.346-.784,1.346-1.83-2.431-1.987-2.888-.3-.549-.3-.549Z" transform="translate(-2293.206 -1145.068)" fill="#ffb27d"/>
      <path id="Path_9192" data-name="Path 9192" d="M2113.2,853.3a5.573,5.573,0,0,1,.1-1.895c.222-.458.405-1.346.026-1.738s-.9-1.032-1.372-.745-.288,3.019-.183,3.5a11.85,11.85,0,0,1,.17,1.215Z" transform="translate(-2111.65 -848.849)" fill="#ffb27d"/>
      <path id="Path_9193" data-name="Path 9193" d="M2188.931,1021.786a2.162,2.162,0,0,1-.052.693c-.183.575-.811.837-2.326.68-.928-.091-1.346-1.66-1.529-2.979-.562,1.895-1.333,2.967-2.352,3.189-1.477.327-8.913,1.228-9.4-2.3-.535-3.881,1.072-10.769,1.15-14.48a19.079,19.079,0,0,1-.274-3.437c.065-2.64.836-4.13,1.437-4.718a2.058,2.058,0,0,1,1.02-.327c.353-.065.823-.131,1.5-.222l.275-.026c-.131.222-1.8,2.771-1.673,3.424.144.68,6.1.065,6.521-.314s1.059-3.267,1.059-3.267a8.376,8.376,0,0,1,3.15.98l-.013.013a.807.807,0,0,1,.274.288c1.1,2.1,2.209,7.4,2.98,11.187a5.47,5.47,0,0,1-4.025.588C2187.324,1015.121,2188.839,1019.8,2188.931,1021.786Z" transform="translate(-2165.126 -978.247)" fill="#f9ddbf"/>
      <path id="Path_9194" data-name="Path 9194" d="M2184.749,999.077l-.013.013c-.209.327-3.372,5.384-3.672,8.691a19.02,19.02,0,0,1-.275-3.437,23.737,23.737,0,0,1,3.228-5.2C2184.083,999.051,2184.749,999.077,2184.749,999.077Z" transform="translate(-2171.752 -979.441)" fill="#466aa5"/>
      <path id="Path_9195" data-name="Path 9195" d="M2261.722,1420.6a20.8,20.8,0,0,1-2.64,8.573l-.731.667s-.667-3.816-1.15-8.181A7.731,7.731,0,0,0,2261.722,1420.6Z" transform="translate(-2238.178 -1345.879)" fill="#ffb27d"/>
      <path id="Path_9196" data-name="Path 9196" d="M2225.391,1424.287a45.084,45.084,0,0,1-2.888,8.09l-1.5-.1a41.91,41.91,0,0,0,.693-8.273A7.062,7.062,0,0,0,2225.391,1424.287Z" transform="translate(-2206.709 -1348.834)" fill="#ffb27d"/>
      <g id="Group_14079" data-name="Group 14079" transform="translate(9.882 81.321)">
        <path id="Path_9197" data-name="Path 9197" d="M2194.053,1474.576h-.967c-.327-.052-.562-.144-.889-.183a.962.962,0,0,0-.784.183l-.013.013h-4.091c-.1-.144,0-.484.091-.732a.6.6,0,0,1,.379-.353,4.5,4.5,0,0,0,2.078-.941c.444-.392,2.131-1.464,2.131-1.464H2192c.039,0,.209.052.98.706.392.34,1.071-.471,1.071-.471a.9.9,0,0,1,.222.3,1.033,1.033,0,0,1,.091.627,3.98,3.98,0,0,0,.287,1.516c.092.274.17.484.17.484S2194.876,1474.472,2194.053,1474.576Z" transform="translate(-2187.266 -1471.1)" fill="#ed8435"/>
        <path id="Path_9198" data-name="Path 9198" d="M2225.774,1471.623a3.2,3.2,0,0,1-1.032.523c-.432.052-1.242-1.046-1.242-1.046h.013c.039,0,.209.052.98.706.392.34,1.072-.471,1.072-.471A.829.829,0,0,1,2225.774,1471.623Z" transform="translate(-2218.765 -1471.1)" fill="#f99746"/>
        <path id="Path_9199" data-name="Path 9199" d="M2194.053,1492.4h-.967c-.327-.052-.562-.144-.889-.183a.964.964,0,0,0-.784.183l-.013.013h-4.091c-.1-.144,0-.483.091-.732.131-.1.157.484.222.575a17.98,17.98,0,0,0,3.529-.1,1.915,1.915,0,0,1,1.542-.183,3.709,3.709,0,0,0,1.947-.366c.091.275.17.484.17.484S2194.876,1492.293,2194.053,1492.4Z" transform="translate(-2187.266 -1488.921)" fill="#f99746"/>
      </g>
      <g id="Group_14080" data-name="Group 14080" transform="translate(15.031 81.321)">
        <path id="Path_9200" data-name="Path 9200" d="M2233.44,1474.576h-.967c-.327-.052-.562-.144-.889-.183a.96.96,0,0,0-.784.183l-.013.013h-4.078c-.1-.144,0-.484.092-.732a.6.6,0,0,1,.379-.353,4.507,4.507,0,0,0,2.078-.941c.445-.392,2.13-1.464,2.13-1.464h.013c.039,0,.209.052.98.706.393.34,1.072-.471,1.072-.471a.9.9,0,0,1,.222.3,1.035,1.035,0,0,1,.092.627,3.97,3.97,0,0,0,.287,1.516c.092.274.17.484.17.484S2234.263,1474.472,2233.44,1474.576Z" transform="translate(-2226.666 -1471.1)" fill="#ffa35f"/>
        <path id="Path_9201" data-name="Path 9201" d="M2265.074,1471.623a3.21,3.21,0,0,1-1.033.523c-.431.052-1.241-1.046-1.241-1.046h.013c.039,0,.209.052.98.706.393.34,1.072-.471,1.072-.471A.828.828,0,0,1,2265.074,1471.623Z" transform="translate(-2258.078 -1471.1)" fill="#f99746"/>
        <path id="Path_9202" data-name="Path 9202" d="M2233.44,1492.4h-.967c-.327-.052-.562-.144-.889-.183a.962.962,0,0,0-.784.183l-.013.013h-4.078c-.1-.144,0-.483.092-.732.131-.1.157.484.222.575a17.983,17.983,0,0,0,3.529-.1,1.914,1.914,0,0,1,1.542-.183,3.707,3.707,0,0,0,1.947-.366c.092.275.17.484.17.484S2234.263,1492.293,2233.44,1492.4Z" transform="translate(-2226.666 -1488.921)" fill="#f99746"/>
      </g>
      <path id="Path_9203" data-name="Path 9203" d="M2254.988,1081.491a8.96,8.96,0,0,1-3.907-3.28c-4.169-5.384-.353-11.71.157-11.827s1.477,4.091,1.477,4.091C2253.38,1074.827,2254.9,1079.505,2254.988,1081.491Z" transform="translate(-2231.183 -1037.953)" fill="#eac3a2"/>
      <path id="Path_9204" data-name="Path 9204" d="M2245.922,994.8a11.825,11.825,0,0,0-4.509,8.913,6.853,6.853,0,0,0,5.136,7.279l-.353-1.908a5.341,5.341,0,0,1-3.267-6.417,14.066,14.066,0,0,1,4.613-7.436Z" transform="translate(-2224.444 -975.726)" fill="#466aa5"/>
      <path id="Path_9205" data-name="Path 9205" d="M2162.034,979.245s-.98-.275-4.64-3.045c0,0-.3,1.189-.64,2.17a3.784,3.784,0,0,1-1.255,1.856s2.927,2.862,3.319,4.221A14.4,14.4,0,0,1,2162.034,979.245Z" transform="translate(-2149.77 -959.557)" fill="#f9ddbf"/>
    </g>
    <g id="Group_14083" data-name="Group 14083" transform="translate(408.255 423.73)">
      <path id="Path_9206" data-name="Path 9206" d="M944.158,917.789c-.287-.549,6.234-2.535,6.338,2.9,0,0,12.219-.3,6.378-7.109-2.013-2.352-1.817-4.3-1.751-6.116s-1.255-7.083-5.776-6.561a3.364,3.364,0,0,0-2.666.287C943.321,902.943,935.794,919.789,944.158,917.789Z" transform="translate(-934.751 -900.754)" fill="#163560"/>
      <path id="Path_9207" data-name="Path 9207" d="M1122.2,1068.083s.8-1.215,1.438-1.228,1.829-.353,1.738-.118-.836.261-.9.405,1.1.353,1.425.379,1.111,0,1.1.17a3.777,3.777,0,0,1-2.392.758,6.755,6.755,0,0,0-2.2.287Z" transform="translate(-1092.837 -1044.971)" fill="#ffb27d"/>
      <path id="Path_9208" data-name="Path 9208" d="M1034.3,1016.358a12.338,12.338,0,0,0,1.215,1.843,7.112,7.112,0,0,0,4.234,2.823,4.586,4.586,0,0,0,2.509-.405h0a11.411,11.411,0,0,0,3.895-3.254,1.819,1.819,0,0,0-.248-1.791s-4.483,1.006-4.914.8-2.914-7.4-3.516-8.3-2.614-1.372-2.614-1.372Z" transform="translate(-1016.425 -992.854)" fill="#f9ddbf"/>
      <path id="Path_9209" data-name="Path 9209" d="M1042.63,1078.95a7.11,7.11,0,0,0,4.234,2.823,4.586,4.586,0,0,0,2.509-.4c-.092.013-2.3.287-3.189-1.294-.9-1.607-1.882-4.182-3.215-3.32C1042.382,1077.107,1042.408,1078.022,1042.63,1078.95Z" transform="translate(-1023.54 -1053.603)" fill="#eac3a2"/>
      <path id="Path_9210" data-name="Path 9210" d="M898.656,1447.1s-1.372,1.255-1.1,2.13,1.5,1.477,1.673,2.562.836,1.673,1.438,1.673h2.862s.444-.758-.627-.993-1.477-1.5-1.4-2.692a20.642,20.642,0,0,0-.1-2.757l-2.274-.523Z" transform="translate(-897.522 -1375.177)" fill="#233862"/>
      <path id="Path_9211" data-name="Path 9211" d="M993.618,1455.1s-.5,5.293.1,5.58l7.685-.013s0-.889-1.242-1.085-3.411-.915-3.777-2.536C996.036,1455.453,993.618,1455.1,993.618,1455.1Z" transform="translate(-980.892 -1382.653)" fill="#233862"/>
      <path id="Path_9212" data-name="Path 9212" d="M952.675,994.4c1.581-3.555,2.549-4.561,2.366-5.672-.144-.823.418-15.278.418-15.278.183-.052.562-.1.771-.157a1.923,1.923,0,0,0,1.411-1.228,9.845,9.845,0,0,0,.484-3.267l.209.039,3.411.68s-.078,1.072-.078,2.078v.026a1.976,1.976,0,0,0,1.412,1.9c.431.131.81.235.81.235a30.963,30.963,0,0,1,1.49,7.24c.235,3.672-2.274,5.267.013,12.6C967.73,1001.08,951.812,996.362,952.675,994.4Z" transform="translate(-945.438 -959.907)" fill="#ffb27d"/>
      <path id="Path_9213" data-name="Path 9213" d="M999.511,969.78s-.078,1.072-.078,2.078c-1.908-.052-2.914-1.79-3.333-2.757Z" transform="translate(-983.217 -960.168)" fill="#e8945b"/>
      <path id="Path_9214" data-name="Path 9214" d="M996.692,930.974s-4.509.078-4.522-2.731-.588-4.692,2.287-4.862,3.437.9,3.672,1.843S997.868,930.882,996.692,930.974Z" transform="translate(-979.758 -920.408)" fill="#ffb27d"/>
      <path id="Path_9215" data-name="Path 9215" d="M986.855,919.112s-1.242,3.293-3.136,3.79a3.736,3.736,0,0,1-2.718-.026,5.349,5.349,0,0,0,1.751-3.176C982.764,919.713,985.927,917.543,986.855,919.112Z" transform="translate(-970.091 -916.218)" fill="#163560"/>
      <path id="Path_9216" data-name="Path 9216" d="M1023.5,921.378a2.8,2.8,0,0,1,1.294,1.006,4.613,4.613,0,0,1,.614,2.575s.928-2.235-.118-3.516C1024.18,920.11,1023.5,921.378,1023.5,921.378Z" transform="translate(-1007.036 -918.209)" fill="#163560"/>
      <path id="Path_9217" data-name="Path 9217" d="M949.252,1010.878a29.894,29.894,0,0,0,0,3.555c.078,1.281,1.372,3.006,1.555,3.437.457,1.072.98,1.241.98,1.241l4.038.993,1.425.353,4.483-1.333s2.039-5.685,1.215-8.9a24.983,24.983,0,0,0-2.065-5.423s-3.659,3.581-8.4-.3Z" transform="translate(-942.446 -990.942)" fill="#f9ddbf"/>
      <path id="Path_9218" data-name="Path 9218" d="M958.7,1075.894a12.676,12.676,0,0,0,.379,2.9c.457,1.072.98,1.241.98,1.241l4.038.993,1.751-.51s-5.855-.889-5.2-5.92Z" transform="translate(-950.705 -1051.88)" fill="#f2ccaa"/>
      <path id="Path_9219" data-name="Path 9219" d="M993.536,1122.9s2.222,6.9,2.365,9.253-4.234,33.378-4.417,34.463c-.17,1.02-1.437,1.673-1.437,1.673a1.93,1.93,0,0,1-1.411.1,3.5,3.5,0,0,1-1.516-.719s-1.725-22.125-.653-30.032a124.862,124.862,0,0,0,1.085-14.742Z" transform="translate(-974.537 -1093.868)" fill="#ed7d2b"/>
      <path id="Path_9220" data-name="Path 9220" d="M917.8,1121.3s-3.385,4.535-3.7,7.606-.5,13.84-1.163,16.833-3.137,8.743-3.137,18.074a1.893,1.893,0,0,0,1.046.823,8.259,8.259,0,0,0,.928.261,1.457,1.457,0,0,0,1.62-.771c1.673-3.359,6.979-14.193,7.253-16.441.2-1.594,1.869-12.128,5.528-18.309.876-1.49-.536-7.384-.536-7.384Z" transform="translate(-908.195 -1092.477)" fill="#f99746"/>
      <path id="Path_9221" data-name="Path 9221" d="M977.616,1114.7a4.642,4.642,0,0,1-2.653.745c-2.117.039-7.345-.536-7.345-.536a4.244,4.244,0,0,0-.222,1.333s6.391,1.607,10.089.235A2.32,2.32,0,0,0,977.616,1114.7Z" transform="translate(-958.264 -1086.74)" fill="#233862"/>
      <g id="Group_14082" data-name="Group 14082" transform="translate(16.242 28.352)">
        <path id="Path_9222" data-name="Path 9222" d="M1021.8,1118.785a.973.973,0,1,1,.967,1.085A1.028,1.028,0,0,1,1021.8,1118.785Zm.314,0a.651.651,0,1,0,.64-.771A.712.712,0,0,0,1022.114,1118.785Z" transform="translate(-1021.8 -1117.7)" fill="#fff"/>
      </g>
      <rect id="Rectangle_2181" data-name="Rectangle 2181" width="8.678" height="11.88" transform="translate(9.016 34.912) rotate(-138.953)" fill="#b5453c"/>
      <path id="Path_9223" data-name="Path 9223" d="M977.444,1124.4s2.4.274,2.392.849-.6,1.738-.889,1.791-1.947-1.582-1.947-1.582Z" transform="translate(-966.613 -1095.172)" fill="#ffb27d"/>
      <path id="Path_9224" data-name="Path 9224" d="M921.185,1004.3a5.455,5.455,0,0,0-4.43,3.215c-1.228,2.98-3.555,8-3.555,8.835s1.307,3.437,8.286,4.94c0,0,.719-.758.68-1.359,0,0-4.365-3.751-4.352-4.182.026-.823.719-1.921,4.548-5.75C923.394,1008.952,921.185,1004.3,921.185,1004.3Z" transform="translate(-911.151 -990.768)" fill="#f9ddbf"/>
    </g>
    <rect id="Rectangle_2182" data-name="Rectangle 2182" width="2.797" height="109.504" transform="translate(439.264 393.024)" fill="#f99746"/>
    <path id="Path_9225" data-name="Path 9225" d="M1128.3,1485.282h-6.1a1.883,1.883,0,0,1,1.882-1.882h2.326a1.885,1.885,0,0,1,1.9,1.882Z" transform="translate(-684.583 -983.524)" fill="#f99746"/>
    <g id="Group_14084" data-name="Group 14084" transform="translate(633.768 393.024)">
      <rect id="Rectangle_2183" data-name="Rectangle 2183" width="2.797" height="109.504" transform="translate(1.647)" fill="#f99746"/>
      <path id="Path_9226" data-name="Path 9226" d="M2629.2,1485.282h-6.1a1.882,1.882,0,0,1,1.882-1.882h2.326a1.885,1.885,0,0,1,1.895,1.882Z" transform="translate(-2623.1 -1376.549)" fill="#f99746"/>
      <path id="Path_9227" data-name="Path 9227" d="M2623.1,689.7h6.1a1.882,1.882,0,0,1-1.882,1.882H2625a1.877,1.877,0,0,1-1.895-1.882Z" transform="translate(-2623.1 -686.577)" fill="#f99746"/>
    </g>
    <g id="Group_14085" data-name="Group 14085" transform="translate(557.015 393.024)">
      <rect id="Rectangle_2184" data-name="Rectangle 2184" width="2.797" height="109.504" transform="translate(1.66)" fill="#f99746"/>
      <path id="Path_9228" data-name="Path 9228" d="M2041.9,1485.282h-6.1a1.883,1.883,0,0,1,1.882-1.882h2.326a1.877,1.877,0,0,1,1.895,1.882Z" transform="translate(-2035.8 -1376.549)" fill="#f99746"/>
      <path id="Path_9229" data-name="Path 9229" d="M2035.8,689.7h6.1a1.882,1.882,0,0,1-1.882,1.882H2037.7a1.877,1.877,0,0,1-1.9-1.882Z" transform="translate(-2035.8 -686.577)" fill="#f99746"/>
    </g>
    <path id="Path_9230" data-name="Path 9230" d="M1122.2,689.7h6.1a1.882,1.882,0,0,1-1.882,1.882h-2.326a1.877,1.877,0,0,1-1.895-1.882Z" transform="translate(-684.583 -293.552)" fill="#f99746"/>
    <g id="Group_14086" data-name="Group 14086" transform="translate(363.922 393.024)">
      <rect id="Rectangle_2185" data-name="Rectangle 2185" width="2.797" height="109.504" transform="translate(1.66)" fill="#f99746"/>
      <path id="Path_9231" data-name="Path 9231" d="M564.4,1485.282h-6.1a1.882,1.882,0,0,1,1.882-1.882h2.326a1.877,1.877,0,0,1,1.9,1.882Z" transform="translate(-558.3 -1376.549)" fill="#f99746"/>
      <path id="Path_9232" data-name="Path 9232" d="M558.4,689.7h6.09a1.882,1.882,0,0,1-1.882,1.882h-2.326A1.866,1.866,0,0,1,558.4,689.7Z" transform="translate(-558.387 -686.577)" fill="#f99746"/>
    </g>
    <g id="Group_14090" data-name="Group 14090" transform="translate(500.958 440.699)">
      <g id="Group_14089" data-name="Group 14089" transform="translate(0 0)">
        <path id="Path_9233" data-name="Path 9233" d="M1686.5,1115.7s2.953.836,3.685,1.816.915,12.063,1.4,12.546c1.019,1.019,1.738,3.045,2.522,4.835,0,0,.2.327-.627.327s-3.607-2.718-3.855-3.868S1686.5,1115.7,1686.5,1115.7Z" transform="translate(-1676.093 -1104.578)" fill="#f7aa74"/>
        <path id="Path_9234" data-name="Path 9234" d="M1645.1,1072s.667,1.15.444,1.686,1.085,1.49,1.607,1.215S1645.1,1072,1645.1,1072Z" transform="translate(-1640.104 -1066.589)" fill="#d86c23"/>
        <path id="Path_9235" data-name="Path 9235" d="M1821.393,1453.325c.078.758,1.059.732,2.156.536s.823.131,2.365.091,2.065-.627,2.13-.876c.065-.222-.693-.366-1.5-.549-.1-.026-.209-.052-.3-.065a4.9,4.9,0,0,1-2.326-1.542,35.229,35.229,0,0,1-1.425-3.62l-2.091.17a21.563,21.563,0,0,1,1.464,3.45c.092.536-.379,1.137-.444,1.621A5.129,5.129,0,0,0,1821.393,1453.325Z" transform="translate(-1792.494 -1392.842)" fill="#f7aa74"/>
        <path id="Path_9236" data-name="Path 9236" d="M1829.926,1488.546c1.1-.183.823.131,2.365.091s2.065-.627,2.13-.875c.065-.222-.693-.366-1.5-.549l-.013.013a4.05,4.05,0,0,1-2.261.536c-1.045-.079-2.117-.51-2.849-.562a3.217,3.217,0,0,0-.052.8C1827.848,1488.768,1828.828,1488.729,1829.926,1488.546Z" transform="translate(-1798.871 -1427.527)" fill="#163560"/>
        <path id="Path_9237" data-name="Path 9237" d="M1671.233,1286.522l-1.777.314s-2.431-3.594-4.522-7.005a27.468,27.468,0,0,1-2.875-5.541c-.484-2.352-.431-4.457-1.385-4.5-.483-.013-3.764.484-7.135.536-3.306.052-6.7-.314-7.645-2.026-1.895-3.45,1.072-9,1.072-9s14.376,2.169,17.016,3.894l.013.013c.915.628,2.065,3.607,3.163,7.24C1669.26,1277.309,1671.233,1286.522,1671.233,1286.522Z" transform="translate(-1640.243 -1229.411)" fill="#f7aa74"/>
        <path id="Path_9238" data-name="Path 9238" d="M1716.491,1295.479l-2.235,9.4a27.478,27.478,0,0,1-2.875-5.541c-.484-2.352-.431-4.457-1.385-4.5-.484-.013-3.764.484-7.136.536a5.09,5.09,0,0,1-.68-4c1.215-3.228,7.031-3.516,11.135-3.137C1714.23,1288.879,1715.38,1291.858,1716.491,1295.479Z" transform="translate(-1689.565 -1254.455)" fill="#e89258"/>
        <path id="Path_9239" data-name="Path 9239" d="M1763.732,1456.889c.078.758,1.059.732,2.156.535s.823.131,2.365.092,2.065-.627,2.13-.876c.065-.222-.693-.366-1.5-.549-.1-.026-.209-.052-.3-.065a4.9,4.9,0,0,1-2.326-1.542,12.842,12.842,0,0,1-.288-2.993l-1.986-.091s.2,1.477.248,3.071a10.137,10.137,0,0,1-.444,1.62A2.7,2.7,0,0,0,1763.732,1456.889Z" transform="translate(-1743.223 -1396.406)" fill="#f7aa74"/>
        <path id="Path_9240" data-name="Path 9240" d="M1765.726,1488.546c1.1-.183.823.131,2.365.091s2.065-.627,2.13-.875c.065-.222-.693-.366-1.5-.549l-.013.013a4.047,4.047,0,0,1-2.26.536c-1.046-.079-2.117-.51-2.849-.562a3.217,3.217,0,0,0-.052.8C1763.648,1488.768,1764.615,1488.729,1765.726,1488.546Z" transform="translate(-1743.061 -1427.527)" fill="#163560"/>
        <path id="Path_9241" data-name="Path 9241" d="M1628.949,1276.655s13.814-.98,16.454.745.235,23.341.235,23.341l-1.895.484s-2.13-9.187-2.679-11.514c-.967-4.078.588-6.129-.366-6.169s-12.886,1.96-14.781-1.49a7.5,7.5,0,0,1,.2-6.953Z" transform="translate(-1622.737 -1243.146)" fill="#f7aa74"/>
        <path id="Path_9242" data-name="Path 9242" d="M1655.374,1097.036a4.373,4.373,0,0,0,2.574-.549c-.2-.078-.274-.862-.3-1.686v-.157c-.026-.941.013-1.882.013-1.882l-3.411-.536-.2-.026a1.268,1.268,0,0,0,.013.222c.052,2.391-.483,2.967-.693,3.345C1653.06,1096.291,1654.315,1096.8,1655.374,1097.036Z" transform="translate(-1647.254 -1084.149)" fill="#f7aa74"/>
        <path id="Path_9243" data-name="Path 9243" d="M1658.861,1092.409a4.087,4.087,0,0,0,3.594,2.13c-.026-.941.013-1.777.013-1.777l-3.411-.536-.2-.026A1.116,1.116,0,0,0,1658.861,1092.409Z" transform="translate(-1652.062 -1084.149)" fill="#e89258"/>
        <path id="Path_9244" data-name="Path 9244" d="M1645.714,1042.266a9.563,9.563,0,0,1-1.477-2.731c-.261-.915-.118-4.443,3.411-4.274a4.778,4.778,0,0,1,2.039.549c.81.432,2.013,1.438,1.085,4.587l-.222,1.058Z" transform="translate(-1639.28 -1034.646)" fill="#d86c23"/>
        <path id="Path_9245" data-name="Path 9245" d="M1657.349,1052.177s-4.378.5-4.64-2.235-1.02-4.509,1.764-4.94,3.424.549,3.738,1.438S1658.485,1051.98,1657.349,1052.177Z" transform="translate(-1646.458 -1043.028)" fill="#f7aa74"/>
        <path id="Path_9246" data-name="Path 9246" d="M1641.265,1124.714a53.01,53.01,0,0,0-.98,9.906c.052,1.268.222,1.542.17,1.594-.771.667-1.66.366-4.117.667a6.78,6.78,0,0,0-1.908.51,2.066,2.066,0,0,1-1.006.157c-1.712-.144-3.424-2.117-3.424-2.182v-.013l.039-.118c0-.013.013-.026.013-.052.2-.6.628-1.66.928-2.81a6.785,6.785,0,0,0,.235-3.071c-.065-.274-.34-1.83-.562-3.659-.275-2.378-.431-5.228.144-6.325a37.1,37.1,0,0,1,2.627-4.731c3.686,2.2,3.96.144,3.96.144S1642.154,1119.356,1641.265,1124.714Z" transform="translate(-1626.977 -1103.608)" fill="#1c468a"/>
        <path id="Path_9247" data-name="Path 9247" d="M1646.21,1034.047s3.751-1.268,3.907-.026c0,0,.81-2.326-.823-3.006s-4.561-.68-6.195,1.124Z" transform="translate(-1638.365 -1030.597)" fill="#d86c23"/>
        <path id="Path_9248" data-name="Path 9248" d="M1645.865,1044.308s-.287,2.078-1.9,2.091-1.228-4-1.228-4Z" transform="translate(-1638.019 -1040.858)" fill="#d86c23"/>
        <path id="Path_9249" data-name="Path 9249" d="M1646.674,1259.134s-1.137.118-1.947.17-5.711,3.489-5.711,3.489-2.208.026-7.083-.013c-5.528-.039-6.756.013-6.756.013-2.13-1.738-2.13-4.47-1.973-6.012.039-.366.431-1.79.836-3.162v-.013l.039-.118c0-.013.013-.026.013-.052.431-1.464.863-2.836.863-2.836a.588.588,0,0,0,.065.026c.34.1,1.934.549,3.8,1.045s4,.993,5.5,1.216h0c2.026.3,5.371,1.019,7.776,1.608a22.615,22.615,0,0,1,2.81.81C1645.759,1255.71,1646.674,1259.134,1646.674,1259.134Z" transform="translate(-1621.016 -1221.848)" fill="#1c468a"/>
        <path id="Path_9250" data-name="Path 9250" d="M1639.015,1217.4s-2.208.026-7.083-.013c-5.528-.039-6.756.013-6.756.013-2.13-1.738-2.13-4.469-1.973-6.012.039-.366.431-1.79.836-3.163v-.013l.039-.118c0-.013.013-.026.013-.052.431-1.464.863-2.836.863-2.836a.572.572,0,0,0,.065.026,6.79,6.79,0,0,0,.235-3.071c-.065-.275-.34-1.83-.562-3.659l1.15-.1s3.084,5.136,2.98,7.867v.026a13.533,13.533,0,0,1-1.359,4.143c-.823,1.843-1.581,3.555-.889,4.313C1627.789,1216.082,1636.389,1214.958,1639.015,1217.4Z" transform="translate(-1621.016 -1176.47)" fill="#163560"/>
        <path id="Path_9251" data-name="Path 9251" d="M1617.079,1114.6s-3.346.706-4.26,2.065c-1.725,2.549-1.947,13.37-1.254,14.559s3.79,3.071,9.24,4.993a1.506,1.506,0,0,0,.366-1.346s-6.182-5.306-6.286-5.567,1.124-6.182.98-6.77S1617.079,1114.6,1617.079,1114.6Z" transform="translate(-1610.633 -1103.622)" fill="#f7aa74"/>
        <path id="Path_9252" data-name="Path 9252" d="M1615.412,1118s-2.47.667-2.953,2.091-1.359,5.672-1.359,5.672.418,2.548,4.992,2.784l1.241-8.246Z" transform="translate(-1610.547 -1106.577)" fill="#1c468a"/>
        <path id="Path_9253" data-name="Path 9253" d="M1613.422,1031.745s-.81-1.2-3.163,0-3.463,6.43-3.385,7.907c.131,2.457.562,4.078,2.993,3.777s1.79,6.025,2.026,7.658,2.3,2.509,2.3,2.509a2.108,2.108,0,0,1,1.268-1.686c1.241-.6,2.078-3.359,1.32-4.835s-1.8-4.966-3.476-4.966c-1.189,0-1.738-4.417-.732-6.979A12.3,12.3,0,0,0,1613.422,1031.745Z" transform="translate(-1606.87 -1031.131)" fill="#d86c23"/>
        <path id="Path_9254" data-name="Path 9254" d="M1686.5,1115.7s3.11.993,3.685,1.816,1.673,6.156,1.673,6.156a4.2,4.2,0,0,1-2.5,1.346C1687.924,1125.149,1686.5,1115.7,1686.5,1115.7Z" transform="translate(-1676.093 -1104.578)" fill="#1c468a"/>
        <path id="Path_9255" data-name="Path 9255" d="M1709.045,1250.979l3.607-.379a18.531,18.531,0,0,1,1.006,3.45,1.341,1.341,0,0,1-1.163,1.046c-.732.2-4.2.784-4.2.784Z" transform="translate(-1695.044 -1221.848)" fill="#739af0"/>
        <path id="Path_9256" data-name="Path 9256" d="M1687.768,1252.6s-1.621,3.516-1.451,4.274c.118.523,1.725.81,2.849.732a.908.908,0,0,0,.862-.954l-.117-3.96Z" transform="translate(-1675.923 -1223.586)" fill="#4a75cb"/>
        <path id="Path_9257" data-name="Path 9257" d="M1697.5,1249.3a12.881,12.881,0,0,1,5.763-.274l-3.607.379Z" transform="translate(-1685.656 -1220.285)" fill="#4a75cb"/>
        <g id="Group_14087" data-name="Group 14087" transform="translate(13.034 26.957)">
          <path id="Path_9258" data-name="Path 9258" d="M1706.691,1239.063a5.664,5.664,0,0,1-.091-.941c.013-.863.353-1.137.627-1.215a1.141,1.141,0,0,1,.941.144,2.513,2.513,0,0,1,.941,1.751l-.327.052a2.153,2.153,0,0,0-.8-1.516.787.787,0,0,0-.68-.1c-.536.144-.405,1.359-.314,1.777Z" transform="translate(-1706.6 -1236.863)" fill="#4a75cb"/>
        </g>
        <g id="Group_14088" data-name="Group 14088" transform="translate(14.55 26.957)">
          <path id="Path_9259" data-name="Path 9259" d="M1718.292,1239.063a5.664,5.664,0,0,1-.091-.941c.013-.863.353-1.137.627-1.215a1.141,1.141,0,0,1,.941.144,2.511,2.511,0,0,1,.941,1.751l-.327.052a2.152,2.152,0,0,0-.8-1.516.786.786,0,0,0-.679-.1c-.536.144-.405,1.359-.314,1.777Z" transform="translate(-1718.2 -1236.863)" fill="#739af0"/>
        </g>
        <path id="Path_9260" data-name="Path 9260" d="M1683.8,1266.6a4.335,4.335,0,0,0,1.542.679c.575.039,1.268-.052,1.738.549s.823,1.059.784,1.333-1.006.183-1.529,0-1.176-.013-1.66-.366a2.66,2.66,0,0,0-.784-.431Z" transform="translate(-1673.746 -1235.757)" fill="#f7aa74"/>
        <path id="Path_9261" data-name="Path 9261" d="M1741.192,1262.8s-.967,1.294-.64,1.673.954.562,1.254.274a1.763,1.763,0,0,0,.379-1.464C1742,1263,1741.192,1262.8,1741.192,1262.8Z" transform="translate(-1723.022 -1232.454)" fill="#f7aa74"/>
      </g>
    </g>
    <g id="Group_14093" data-name="Group 14093" transform="translate(486.616 456.844)">
      <g id="Group_14092" data-name="Group 14092" transform="translate(0 0)">
        <rect id="Rectangle_2186" data-name="Rectangle 2186" width="12.755" height="16.48" transform="translate(15.234 28.996)" fill="#c4dafc"/>
        <g id="Group_14091" data-name="Group 14091">
          <path id="Path_9262" data-name="Path 9262" d="M1528.962,1183.126h-16.728a8.5,8.5,0,0,1-8.05-5.776l-6.94-20.427a2.112,2.112,0,1,1,4-1.359l6.94,20.427a4.292,4.292,0,0,0,4.065,2.914h16.728a2.1,2.1,0,0,1,2.1,2.1A2.125,2.125,0,0,1,1528.962,1183.126Z" transform="translate(-1497.13 -1154.13)" fill="#f99746"/>
        </g>
        <path id="Path_9263" data-name="Path 9263" d="M1561.865,1268.045H1539.4V1265h19.42a3.056,3.056,0,0,1,3.045,3.045Z" transform="translate(-1533.876 -1250.51)" fill="#f99746"/>
      </g>
      <path id="Path_9264" data-name="Path 9264" d="M1605.389,1483.022H1584.4a2.22,2.22,0,0,1,2.222-2.222h16.545a2.22,2.22,0,0,1,2.222,2.222Z" transform="translate(-1572.995 -1438.108)" fill="#c4dafc"/>
    </g>
    <path id="Path_9265" data-name="Path 9265" d="M798,709.4H780.147a1.657,1.657,0,0,1-1.647-1.647v-1.908a1.657,1.657,0,0,1,1.647-1.647H798a1.657,1.657,0,0,1,1.647,1.647v1.908A1.64,1.64,0,0,1,798,709.4Z" transform="translate(-385.8 -306.157)" fill="#cfe3ff"/>
    <path id="Path_9266" data-name="Path 9266" d="M2297.3,709.4h-17.852a1.657,1.657,0,0,1-1.647-1.647v-1.908a1.657,1.657,0,0,1,1.647-1.647H2297.3a1.657,1.657,0,0,1,1.647,1.647v1.908A1.64,1.64,0,0,1,2297.3,709.4Z" transform="translate(-1689.158 -306.157)" fill="#cfe3ff"/>
    <path id="Path_9267" data-name="Path 9267" d="M658.259,1498.9H335.249a.552.552,0,0,1-.549-.549h0a.552.552,0,0,1,.549-.549h323a.552.552,0,0,1,.549.549h0A.533.533,0,0,1,658.259,1498.9Z" transform="translate(0 -996.043)" fill="#2e3552"/>
  </g>
</svg>
