
<svg width="26" height="36" viewBox="0 0 26 36" fill="none" xmlns="http://www.w3.org/2000/svg">
<mask id="path-1-outside-1_1442_993" maskUnits="userSpaceOnUse" x="0" y="0" width="26" height="36" fill="black">
<rect fill="white" width="26" height="36"/>
<path d="M25.3292 31.3824C25.3034 31.3833 25.2789 31.3942 25.261 31.4128C25.243 31.4314 25.233 31.4562 25.233 31.482C25.233 31.5079 25.243 31.5327 25.261 31.5513C25.2789 31.5698 25.3034 31.5807 25.3292 31.5816C25.355 31.5807 25.3795 31.5698 25.3975 31.5513C25.4154 31.5327 25.4254 31.5079 25.4254 31.482C25.4254 31.4562 25.4154 31.4314 25.3975 31.4128C25.3795 31.3942 25.355 31.3833 25.3292 31.3824ZM11.5454 16.2789C11.2161 16.1582 10.8724 16.0814 10.523 16.0505L10.5217 16.0505C10.4172 16.0411 10.3125 16.0651 10.2224 16.1188C10.1323 16.1726 10.0615 16.2534 10.02 16.3498C9.97857 16.4462 9.96862 16.5532 9.99157 16.6555C10.0145 16.7579 10.0692 16.8504 10.1479 16.9199C10.1637 16.949 10.188 16.9974 10.225 17.0774C10.2341 17.0971 10.2414 17.1126 10.2461 17.1222C10.3957 17.4287 10.4624 17.769 10.4394 18.1093C10.428 18.2678 10.3944 18.4239 10.3394 18.573C10.3303 18.5477 10.321 18.5223 10.3114 18.4969C10.1918 18.1948 10.0511 17.9014 9.8904 17.6189C9.64824 17.1849 9.34279 16.7893 8.98409 16.4453C8.90761 16.371 8.80928 16.3232 8.70358 16.3089C8.59788 16.2946 8.49039 16.3146 8.39693 16.366C8.30348 16.4174 8.22899 16.4975 8.18443 16.5944C8.13988 16.6913 8.12761 16.8 8.14944 16.9044C8.27706 17.515 8.25249 18.0797 8.07639 18.5828C7.91264 19.0507 7.67036 19.3187 7.38985 19.6289C7.09556 19.9544 6.76201 20.3233 6.52819 20.9317C6.50546 20.9908 5.97765 22.3961 6.53944 23.7712C6.93052 24.7287 7.74267 25.5126 8.76765 25.922C9.23544 26.1093 9.73307 26.2111 10.2368 26.2224C10.3479 26.2409 10.4604 26.2503 10.573 26.2506C10.7148 26.2509 10.8562 26.235 10.9945 26.2032C11.102 26.1784 11.207 26.1436 11.3081 26.0992C11.5032 26.0483 11.6936 25.9813 11.8775 25.8987C13.4397 25.1956 14.6024 23.5493 14.7707 21.8023C14.997 19.4554 13.5802 17.0292 11.5454 16.2789ZM11.636 23.7981C11.615 24.1089 11.452 24.8873 10.9622 25.1581C10.7562 25.2045 10.5458 25.2283 10.3346 25.2289C10.145 25.1851 9.96685 25.1016 9.81186 24.9839C9.58353 24.8131 9.42944 24.5898 9.41936 24.4151C9.41427 24.327 9.44491 24.0809 9.83842 23.7011C9.97043 23.5753 10.1232 23.4733 10.2901 23.3996C10.485 23.3026 10.7276 23.1818 10.9281 22.8939C11.0334 22.7416 11.109 22.5707 11.1508 22.3902C11.4923 22.8114 11.6694 23.3054 11.636 23.7981ZM13.7792 21.7068C13.6908 22.6248 13.2409 23.5291 12.5887 24.1946C12.6083 24.0857 12.622 23.9758 12.6298 23.8654C12.7094 22.69 12.0274 21.5364 10.8499 20.8548C10.7643 20.8053 10.6659 20.7823 10.5672 20.7889C10.4686 20.7955 10.3741 20.8313 10.2958 20.8918C10.2176 20.9522 10.1591 21.0346 10.1279 21.1284C10.0966 21.2222 10.094 21.3232 10.1203 21.4186C10.2009 21.7099 10.2646 22.1036 10.1106 22.3247C10.0582 22.4 10.0053 22.4287 9.8462 22.5079C9.58819 22.6268 9.35177 22.7879 9.14663 22.9844C8.51435 23.5947 8.40517 24.1305 8.42495 24.4726C8.42796 24.5202 8.43349 24.5676 8.44153 24.6146C8.00752 24.3072 7.66808 23.8847 7.46154 23.3946C7.05046 22.3882 7.45392 21.2998 7.45797 21.2891C7.62525 20.8538 7.85855 20.5957 8.12872 20.297C8.43698 19.956 8.78636 19.5696 9.01657 18.9119C9.0786 18.7345 9.12695 18.5525 9.16119 18.3677C9.24321 18.5239 9.31617 18.6847 9.3797 18.8492C9.42638 18.9712 9.46434 19.0963 9.49332 19.2237C9.50077 19.2672 9.50549 19.3111 9.50746 19.3552C9.51227 19.4526 9.52516 19.5493 9.54598 19.6445C9.64494 20.0623 9.95845 20.1425 10.0522 20.1572C10.4841 20.2244 10.788 19.8265 11.0281 19.4281C11.2611 19.0499 11.3999 18.6213 11.4331 18.1783C11.4541 17.8751 11.4278 17.5704 11.3549 17.2753C12.8778 17.9351 13.9552 19.8815 13.7792 21.7068ZM16.1075 8.66929V3.98828H16.5059C16.9021 3.98828 17.2822 3.83086 17.5624 3.55066C17.8426 3.27045 18 2.89041 18 2.49414C18 2.09787 17.8426 1.71783 17.5624 1.43762C17.2822 1.15742 16.9021 1 16.5059 1H4.55273C4.15646 1 3.77642 1.15742 3.49622 1.43762C3.21601 1.71783 3.05859 2.09787 3.05859 2.49414C3.05859 2.89041 3.21601 3.27045 3.49622 3.55066C3.77642 3.83086 4.15646 3.98828 4.55273 3.98828H4.95114V8.66929C3.86272 8.80046 2.85995 9.32547 2.13206 10.1452C1.40416 10.965 1.00148 12.0228 1 13.1191V27.2637C1.00024 27.9937 1.17883 28.7126 1.52025 29.3578C1.86167 30.0031 2.35557 30.5551 2.95898 30.966V32.5098C2.95973 33.17 3.22233 33.803 3.68918 34.2698C4.15603 34.7367 4.789 34.9993 5.44922 35H15.6094C16.2696 34.9993 16.9026 34.7367 17.3694 34.2698C17.8363 33.803 18.0989 33.17 18.0996 32.5098V30.966C18.703 30.5551 19.1969 30.0031 19.5383 29.3578C19.8798 28.7126 20.0584 27.9937 20.0586 27.2637V13.1191C20.0571 12.0228 19.6544 10.965 18.9265 10.1452C18.1986 9.32547 17.1959 8.80046 16.1075 8.66929ZM4.55273 2.99219C4.42064 2.99219 4.29396 2.93971 4.20056 2.84631C4.10716 2.75291 4.05469 2.62623 4.05469 2.49414C4.05469 2.36205 4.10716 2.23537 4.20056 2.14197C4.29396 2.04857 4.42064 1.99609 4.55273 1.99609H16.5059C16.6379 1.99609 16.7646 2.04857 16.858 2.14197C16.9514 2.23537 17.0039 2.36205 17.0039 2.49414C17.0039 2.62623 16.9514 2.75291 16.858 2.84631C16.7646 2.93971 16.6379 2.99219 16.5059 2.99219H4.55273ZM15.1114 3.98828V8.63672H13.916V3.98828H15.1114ZM11.7789 6.24094H9.27974C9.14765 6.24094 9.02097 6.29341 8.92757 6.38681C8.83416 6.48021 8.78169 6.60689 8.78169 6.73899C8.78169 6.87108 8.83416 6.99776 8.92757 7.09116C9.02097 7.18456 9.14765 7.23703 9.27974 7.23703H10.0312V8.63672H8.1387V3.98828H12.9199V8.63672H11.0273V7.23703H11.7789C11.9109 7.23703 12.0376 7.18456 12.131 7.09116C12.2244 6.99776 12.2769 6.87108 12.2769 6.73899C12.2769 6.60689 12.2244 6.48021 12.131 6.38681C12.0376 6.29341 11.9109 6.24094 11.7789 6.24094ZM7.14261 3.98828V8.63672H5.94723V3.98828H7.14261ZM17.1035 32.5098C17.1031 32.9059 16.9455 33.2857 16.6654 33.5658C16.3853 33.8459 16.0055 34.0035 15.6094 34.0039H5.44922C5.05308 34.0035 4.6733 33.8459 4.39319 33.5658C4.11308 33.2857 3.95552 32.9059 3.95508 32.5098V31.4778C4.44463 31.6557 4.96155 31.7465 5.48242 31.7461H15.5762C16.097 31.7465 16.614 31.6557 17.1035 31.4778V32.5098ZM19.0625 27.2637C19.0615 28.188 18.6938 29.0741 18.0402 29.7277C17.3866 30.3813 16.5005 30.749 15.5762 30.75H5.48242C4.55811 30.749 3.67195 30.3813 3.01837 29.7277C2.36478 29.0741 1.99714 28.188 1.99609 27.2637V13.1191C1.99714 12.1948 2.36478 11.3087 3.01837 10.6551C3.67195 10.0015 4.55811 9.63385 5.48242 9.63281H15.5762C16.5005 9.63385 17.3866 10.0015 18.0402 10.6551C18.6938 11.3087 19.0615 12.1948 19.0625 13.1191V27.2637Z"/>
</mask>
<path d="M25.3292 31.3824C25.3034 31.3833 25.2789 31.3942 25.261 31.4128C25.243 31.4314 25.233 31.4562 25.233 31.482C25.233 31.5079 25.243 31.5327 25.261 31.5513C25.2789 31.5698 25.3034 31.5807 25.3292 31.5816C25.355 31.5807 25.3795 31.5698 25.3975 31.5513C25.4154 31.5327 25.4254 31.5079 25.4254 31.482C25.4254 31.4562 25.4154 31.4314 25.3975 31.4128C25.3795 31.3942 25.355 31.3833 25.3292 31.3824ZM11.5454 16.2789C11.2161 16.1582 10.8724 16.0814 10.523 16.0505L10.5217 16.0505C10.4172 16.0411 10.3125 16.0651 10.2224 16.1188C10.1323 16.1726 10.0615 16.2534 10.02 16.3498C9.97857 16.4462 9.96862 16.5532 9.99157 16.6555C10.0145 16.7579 10.0692 16.8504 10.1479 16.9199C10.1637 16.949 10.188 16.9974 10.225 17.0774C10.2341 17.0971 10.2414 17.1126 10.2461 17.1222C10.3957 17.4287 10.4624 17.769 10.4394 18.1093C10.428 18.2678 10.3944 18.4239 10.3394 18.573C10.3303 18.5477 10.321 18.5223 10.3114 18.4969C10.1918 18.1948 10.0511 17.9014 9.8904 17.6189C9.64824 17.1849 9.34279 16.7893 8.98409 16.4453C8.90761 16.371 8.80928 16.3232 8.70358 16.3089C8.59788 16.2946 8.49039 16.3146 8.39693 16.366C8.30348 16.4174 8.22899 16.4975 8.18443 16.5944C8.13988 16.6913 8.12761 16.8 8.14944 16.9044C8.27706 17.515 8.25249 18.0797 8.07639 18.5828C7.91264 19.0507 7.67036 19.3187 7.38985 19.6289C7.09556 19.9544 6.76201 20.3233 6.52819 20.9317C6.50546 20.9908 5.97765 22.3961 6.53944 23.7712C6.93052 24.7287 7.74267 25.5126 8.76765 25.922C9.23544 26.1093 9.73307 26.2111 10.2368 26.2224C10.3479 26.2409 10.4604 26.2503 10.573 26.2506C10.7148 26.2509 10.8562 26.235 10.9945 26.2032C11.102 26.1784 11.207 26.1436 11.3081 26.0992C11.5032 26.0483 11.6936 25.9813 11.8775 25.8987C13.4397 25.1956 14.6024 23.5493 14.7707 21.8023C14.997 19.4554 13.5802 17.0292 11.5454 16.2789ZM11.636 23.7981C11.615 24.1089 11.452 24.8873 10.9622 25.1581C10.7562 25.2045 10.5458 25.2283 10.3346 25.2289C10.145 25.1851 9.96685 25.1016 9.81186 24.9839C9.58353 24.8131 9.42944 24.5898 9.41936 24.4151C9.41427 24.327 9.44491 24.0809 9.83842 23.7011C9.97043 23.5753 10.1232 23.4733 10.2901 23.3996C10.485 23.3026 10.7276 23.1818 10.9281 22.8939C11.0334 22.7416 11.109 22.5707 11.1508 22.3902C11.4923 22.8114 11.6694 23.3054 11.636 23.7981ZM13.7792 21.7068C13.6908 22.6248 13.2409 23.5291 12.5887 24.1946C12.6083 24.0857 12.622 23.9758 12.6298 23.8654C12.7094 22.69 12.0274 21.5364 10.8499 20.8548C10.7643 20.8053 10.6659 20.7823 10.5672 20.7889C10.4686 20.7955 10.3741 20.8313 10.2958 20.8918C10.2176 20.9522 10.1591 21.0346 10.1279 21.1284C10.0966 21.2222 10.094 21.3232 10.1203 21.4186C10.2009 21.7099 10.2646 22.1036 10.1106 22.3247C10.0582 22.4 10.0053 22.4287 9.8462 22.5079C9.58819 22.6268 9.35177 22.7879 9.14663 22.9844C8.51435 23.5947 8.40517 24.1305 8.42495 24.4726C8.42796 24.5202 8.43349 24.5676 8.44153 24.6146C8.00752 24.3072 7.66808 23.8847 7.46154 23.3946C7.05046 22.3882 7.45392 21.2998 7.45797 21.2891C7.62525 20.8538 7.85855 20.5957 8.12872 20.297C8.43698 19.956 8.78636 19.5696 9.01657 18.9119C9.0786 18.7345 9.12695 18.5525 9.16119 18.3677C9.24321 18.5239 9.31617 18.6847 9.3797 18.8492C9.42638 18.9712 9.46434 19.0963 9.49332 19.2237C9.50077 19.2672 9.50549 19.3111 9.50746 19.3552C9.51227 19.4526 9.52516 19.5493 9.54598 19.6445C9.64494 20.0623 9.95845 20.1425 10.0522 20.1572C10.4841 20.2244 10.788 19.8265 11.0281 19.4281C11.2611 19.0499 11.3999 18.6213 11.4331 18.1783C11.4541 17.8751 11.4278 17.5704 11.3549 17.2753C12.8778 17.9351 13.9552 19.8815 13.7792 21.7068ZM16.1075 8.66929V3.98828H16.5059C16.9021 3.98828 17.2822 3.83086 17.5624 3.55066C17.8426 3.27045 18 2.89041 18 2.49414C18 2.09787 17.8426 1.71783 17.5624 1.43762C17.2822 1.15742 16.9021 1 16.5059 1H4.55273C4.15646 1 3.77642 1.15742 3.49622 1.43762C3.21601 1.71783 3.05859 2.09787 3.05859 2.49414C3.05859 2.89041 3.21601 3.27045 3.49622 3.55066C3.77642 3.83086 4.15646 3.98828 4.55273 3.98828H4.95114V8.66929C3.86272 8.80046 2.85995 9.32547 2.13206 10.1452C1.40416 10.965 1.00148 12.0228 1 13.1191V27.2637C1.00024 27.9937 1.17883 28.7126 1.52025 29.3578C1.86167 30.0031 2.35557 30.5551 2.95898 30.966V32.5098C2.95973 33.17 3.22233 33.803 3.68918 34.2698C4.15603 34.7367 4.789 34.9993 5.44922 35H15.6094C16.2696 34.9993 16.9026 34.7367 17.3694 34.2698C17.8363 33.803 18.0989 33.17 18.0996 32.5098V30.966C18.703 30.5551 19.1969 30.0031 19.5383 29.3578C19.8798 28.7126 20.0584 27.9937 20.0586 27.2637V13.1191C20.0571 12.0228 19.6544 10.965 18.9265 10.1452C18.1986 9.32547 17.1959 8.80046 16.1075 8.66929ZM4.55273 2.99219C4.42064 2.99219 4.29396 2.93971 4.20056 2.84631C4.10716 2.75291 4.05469 2.62623 4.05469 2.49414C4.05469 2.36205 4.10716 2.23537 4.20056 2.14197C4.29396 2.04857 4.42064 1.99609 4.55273 1.99609H16.5059C16.6379 1.99609 16.7646 2.04857 16.858 2.14197C16.9514 2.23537 17.0039 2.36205 17.0039 2.49414C17.0039 2.62623 16.9514 2.75291 16.858 2.84631C16.7646 2.93971 16.6379 2.99219 16.5059 2.99219H4.55273ZM15.1114 3.98828V8.63672H13.916V3.98828H15.1114ZM11.7789 6.24094H9.27974C9.14765 6.24094 9.02097 6.29341 8.92757 6.38681C8.83416 6.48021 8.78169 6.60689 8.78169 6.73899C8.78169 6.87108 8.83416 6.99776 8.92757 7.09116C9.02097 7.18456 9.14765 7.23703 9.27974 7.23703H10.0312V8.63672H8.1387V3.98828H12.9199V8.63672H11.0273V7.23703H11.7789C11.9109 7.23703 12.0376 7.18456 12.131 7.09116C12.2244 6.99776 12.2769 6.87108 12.2769 6.73899C12.2769 6.60689 12.2244 6.48021 12.131 6.38681C12.0376 6.29341 11.9109 6.24094 11.7789 6.24094ZM7.14261 3.98828V8.63672H5.94723V3.98828H7.14261ZM17.1035 32.5098C17.1031 32.9059 16.9455 33.2857 16.6654 33.5658C16.3853 33.8459 16.0055 34.0035 15.6094 34.0039H5.44922C5.05308 34.0035 4.6733 33.8459 4.39319 33.5658C4.11308 33.2857 3.95552 32.9059 3.95508 32.5098V31.4778C4.44463 31.6557 4.96155 31.7465 5.48242 31.7461H15.5762C16.097 31.7465 16.614 31.6557 17.1035 31.4778V32.5098ZM19.0625 27.2637C19.0615 28.188 18.6938 29.0741 18.0402 29.7277C17.3866 30.3813 16.5005 30.749 15.5762 30.75H5.48242C4.55811 30.749 3.67195 30.3813 3.01837 29.7277C2.36478 29.0741 1.99714 28.188 1.99609 27.2637V13.1191C1.99714 12.1948 2.36478 11.3087 3.01837 10.6551C3.67195 10.0015 4.55811 9.63385 5.48242 9.63281H15.5762C16.5005 9.63385 17.3866 10.0015 18.0402 10.6551C18.6938 11.3087 19.0615 12.1948 19.0625 13.1191V27.2637Z" fill="white"/>
<path d="M25.3292 31.3824C25.3034 31.3833 25.2789 31.3942 25.261 31.4128C25.243 31.4314 25.233 31.4562 25.233 31.482C25.233 31.5079 25.243 31.5327 25.261 31.5513C25.2789 31.5698 25.3034 31.5807 25.3292 31.5816C25.355 31.5807 25.3795 31.5698 25.3975 31.5513C25.4154 31.5327 25.4254 31.5079 25.4254 31.482C25.4254 31.4562 25.4154 31.4314 25.3975 31.4128C25.3795 31.3942 25.355 31.3833 25.3292 31.3824ZM11.5454 16.2789C11.2161 16.1582 10.8724 16.0814 10.523 16.0505L10.5217 16.0505C10.4172 16.0411 10.3125 16.0651 10.2224 16.1188C10.1323 16.1726 10.0615 16.2534 10.02 16.3498C9.97857 16.4462 9.96862 16.5532 9.99157 16.6555C10.0145 16.7579 10.0692 16.8504 10.1479 16.9199C10.1637 16.949 10.188 16.9974 10.225 17.0774C10.2341 17.0971 10.2414 17.1126 10.2461 17.1222C10.3957 17.4287 10.4624 17.769 10.4394 18.1093C10.428 18.2678 10.3944 18.4239 10.3394 18.573C10.3303 18.5477 10.321 18.5223 10.3114 18.4969C10.1918 18.1948 10.0511 17.9014 9.8904 17.6189C9.64824 17.1849 9.34279 16.7893 8.98409 16.4453C8.90761 16.371 8.80928 16.3232 8.70358 16.3089C8.59788 16.2946 8.49039 16.3146 8.39693 16.366C8.30348 16.4174 8.22899 16.4975 8.18443 16.5944C8.13988 16.6913 8.12761 16.8 8.14944 16.9044C8.27706 17.515 8.25249 18.0797 8.07639 18.5828C7.91264 19.0507 7.67036 19.3187 7.38985 19.6289C7.09556 19.9544 6.76201 20.3233 6.52819 20.9317C6.50546 20.9908 5.97765 22.3961 6.53944 23.7712C6.93052 24.7287 7.74267 25.5126 8.76765 25.922C9.23544 26.1093 9.73307 26.2111 10.2368 26.2224C10.3479 26.2409 10.4604 26.2503 10.573 26.2506C10.7148 26.2509 10.8562 26.235 10.9945 26.2032C11.102 26.1784 11.207 26.1436 11.3081 26.0992C11.5032 26.0483 11.6936 25.9813 11.8775 25.8987C13.4397 25.1956 14.6024 23.5493 14.7707 21.8023C14.997 19.4554 13.5802 17.0292 11.5454 16.2789ZM11.636 23.7981C11.615 24.1089 11.452 24.8873 10.9622 25.1581C10.7562 25.2045 10.5458 25.2283 10.3346 25.2289C10.145 25.1851 9.96685 25.1016 9.81186 24.9839C9.58353 24.8131 9.42944 24.5898 9.41936 24.4151C9.41427 24.327 9.44491 24.0809 9.83842 23.7011C9.97043 23.5753 10.1232 23.4733 10.2901 23.3996C10.485 23.3026 10.7276 23.1818 10.9281 22.8939C11.0334 22.7416 11.109 22.5707 11.1508 22.3902C11.4923 22.8114 11.6694 23.3054 11.636 23.7981ZM13.7792 21.7068C13.6908 22.6248 13.2409 23.5291 12.5887 24.1946C12.6083 24.0857 12.622 23.9758 12.6298 23.8654C12.7094 22.69 12.0274 21.5364 10.8499 20.8548C10.7643 20.8053 10.6659 20.7823 10.5672 20.7889C10.4686 20.7955 10.3741 20.8313 10.2958 20.8918C10.2176 20.9522 10.1591 21.0346 10.1279 21.1284C10.0966 21.2222 10.094 21.3232 10.1203 21.4186C10.2009 21.7099 10.2646 22.1036 10.1106 22.3247C10.0582 22.4 10.0053 22.4287 9.8462 22.5079C9.58819 22.6268 9.35177 22.7879 9.14663 22.9844C8.51435 23.5947 8.40517 24.1305 8.42495 24.4726C8.42796 24.5202 8.43349 24.5676 8.44153 24.6146C8.00752 24.3072 7.66808 23.8847 7.46154 23.3946C7.05046 22.3882 7.45392 21.2998 7.45797 21.2891C7.62525 20.8538 7.85855 20.5957 8.12872 20.297C8.43698 19.956 8.78636 19.5696 9.01657 18.9119C9.0786 18.7345 9.12695 18.5525 9.16119 18.3677C9.24321 18.5239 9.31617 18.6847 9.3797 18.8492C9.42638 18.9712 9.46434 19.0963 9.49332 19.2237C9.50077 19.2672 9.50549 19.3111 9.50746 19.3552C9.51227 19.4526 9.52516 19.5493 9.54598 19.6445C9.64494 20.0623 9.95845 20.1425 10.0522 20.1572C10.4841 20.2244 10.788 19.8265 11.0281 19.4281C11.2611 19.0499 11.3999 18.6213 11.4331 18.1783C11.4541 17.8751 11.4278 17.5704 11.3549 17.2753C12.8778 17.9351 13.9552 19.8815 13.7792 21.7068ZM16.1075 8.66929V3.98828H16.5059C16.9021 3.98828 17.2822 3.83086 17.5624 3.55066C17.8426 3.27045 18 2.89041 18 2.49414C18 2.09787 17.8426 1.71783 17.5624 1.43762C17.2822 1.15742 16.9021 1 16.5059 1H4.55273C4.15646 1 3.77642 1.15742 3.49622 1.43762C3.21601 1.71783 3.05859 2.09787 3.05859 2.49414C3.05859 2.89041 3.21601 3.27045 3.49622 3.55066C3.77642 3.83086 4.15646 3.98828 4.55273 3.98828H4.95114V8.66929C3.86272 8.80046 2.85995 9.32547 2.13206 10.1452C1.40416 10.965 1.00148 12.0228 1 13.1191V27.2637C1.00024 27.9937 1.17883 28.7126 1.52025 29.3578C1.86167 30.0031 2.35557 30.5551 2.95898 30.966V32.5098C2.95973 33.17 3.22233 33.803 3.68918 34.2698C4.15603 34.7367 4.789 34.9993 5.44922 35H15.6094C16.2696 34.9993 16.9026 34.7367 17.3694 34.2698C17.8363 33.803 18.0989 33.17 18.0996 32.5098V30.966C18.703 30.5551 19.1969 30.0031 19.5383 29.3578C19.8798 28.7126 20.0584 27.9937 20.0586 27.2637V13.1191C20.0571 12.0228 19.6544 10.965 18.9265 10.1452C18.1986 9.32547 17.1959 8.80046 16.1075 8.66929ZM4.55273 2.99219C4.42064 2.99219 4.29396 2.93971 4.20056 2.84631C4.10716 2.75291 4.05469 2.62623 4.05469 2.49414C4.05469 2.36205 4.10716 2.23537 4.20056 2.14197C4.29396 2.04857 4.42064 1.99609 4.55273 1.99609H16.5059C16.6379 1.99609 16.7646 2.04857 16.858 2.14197C16.9514 2.23537 17.0039 2.36205 17.0039 2.49414C17.0039 2.62623 16.9514 2.75291 16.858 2.84631C16.7646 2.93971 16.6379 2.99219 16.5059 2.99219H4.55273ZM15.1114 3.98828V8.63672H13.916V3.98828H15.1114ZM11.7789 6.24094H9.27974C9.14765 6.24094 9.02097 6.29341 8.92757 6.38681C8.83416 6.48021 8.78169 6.60689 8.78169 6.73899C8.78169 6.87108 8.83416 6.99776 8.92757 7.09116C9.02097 7.18456 9.14765 7.23703 9.27974 7.23703H10.0312V8.63672H8.1387V3.98828H12.9199V8.63672H11.0273V7.23703H11.7789C11.9109 7.23703 12.0376 7.18456 12.131 7.09116C12.2244 6.99776 12.2769 6.87108 12.2769 6.73899C12.2769 6.60689 12.2244 6.48021 12.131 6.38681C12.0376 6.29341 11.9109 6.24094 11.7789 6.24094ZM7.14261 3.98828V8.63672H5.94723V3.98828H7.14261ZM17.1035 32.5098C17.1031 32.9059 16.9455 33.2857 16.6654 33.5658C16.3853 33.8459 16.0055 34.0035 15.6094 34.0039H5.44922C5.05308 34.0035 4.6733 33.8459 4.39319 33.5658C4.11308 33.2857 3.95552 32.9059 3.95508 32.5098V31.4778C4.44463 31.6557 4.96155 31.7465 5.48242 31.7461H15.5762C16.097 31.7465 16.614 31.6557 17.1035 31.4778V32.5098ZM19.0625 27.2637C19.0615 28.188 18.6938 29.0741 18.0402 29.7277C17.3866 30.3813 16.5005 30.749 15.5762 30.75H5.48242C4.55811 30.749 3.67195 30.3813 3.01837 29.7277C2.36478 29.0741 1.99714 28.188 1.99609 27.2637V13.1191C1.99714 12.1948 2.36478 11.3087 3.01837 10.6551C3.67195 10.0015 4.55811 9.63385 5.48242 9.63281H15.5762C16.5005 9.63385 17.3866 10.0015 18.0402 10.6551C18.6938 11.3087 19.0615 12.1948 19.0625 13.1191V27.2637Z" stroke="white" stroke-width="0.2" mask="url(#path-1-outside-1_1442_993)"/>
</svg>
