
<svg width="22" height="22" viewBox="0 0 22 22" fill="white" xmlns="http://www.w3.org/2000/svg">
<path d="M22 3.6465V19.0722L11 21.0723L0 19.0731V3.64192C0 2.82425 0.36025 2.05425 0.988167 1.53083C1.61608 1.0065 2.43833 0.78925 3.24225 0.936833L3.66667 1.01383V2.87742L2.91408 2.74083C2.54283 2.67392 2.28525 2.83617 2.16242 2.93883C2.03958 3.0415 1.83333 3.26883 1.83333 3.64283V3.64742V17.5432L10.0833 19.0428V14.6667H11.9167V19.0428L20.1667 17.5432V3.64192C20.1667 3.26883 19.9604 3.04058 19.8376 2.93792C19.7148 2.83617 19.4553 2.67392 19.0859 2.73992L18.3333 2.8765V1.01383L18.7577 0.936833C19.5626 0.791083 20.3839 1.00742 21.0118 1.53083C21.6398 2.05517 22 2.82425 22 3.64192V3.6465ZM11.9167 2.75H10.0833V4.58333H11.9167V2.75ZM11.9167 5.5H10.0833V8.25H11.9167V5.5ZM5.5 8.25V2.75C5.5 1.23383 6.73383 0 8.25 0H13.75C15.2662 0 16.5 1.23383 16.5 2.75V8.25C16.5 9.76617 15.2662 11 13.75 11H13.3989L11.9442 12.4401C11.6783 12.7004 11.3318 12.8306 10.9862 12.8306C10.637 12.8306 10.2887 12.6977 10.0247 12.4346L8.59833 11H8.25092C6.73475 11 5.5 9.76617 5.5 8.25ZM7.33333 8.25C7.33333 8.75508 7.74492 9.16667 8.25 9.16667H9.36008L10.989 10.8057L12.6454 9.16667H13.7509C14.256 9.16667 14.6676 8.75508 14.6676 8.25V2.75C14.6676 2.24492 14.256 1.83333 13.7509 1.83333H8.25092C7.74583 1.83333 7.33425 2.24492 7.33425 2.75V8.25H7.33333Z" />
</svg>
