<svg id="Group_13822" data-name="Group 13822" xmlns="http://www.w3.org/2000/svg" xmlns:xlink="http://www.w3.org/1999/xlink" width="237.77" height="172.897" viewBox="0 0 237.77 172.897">
  <defs>
    <clipPath id="clip-path">
      <rect id="Rectangle_1955" data-name="Rectangle 1955" width="237.77" height="172.897" fill="none"/>
    </clipPath>
    <clipPath id="clip-path-3">
      <rect id="Rectangle_1953" data-name="Rectangle 1953" width="21.085" height="16.962" fill="none"/>
    </clipPath>
  </defs>
  <g id="Group_13821" data-name="Group 13821" transform="translate(0 0)" clip-path="url(#clip-path)">
    <g id="Group_13820" data-name="Group 13820">
      <g id="Group_13819" data-name="Group 13819" clip-path="url(#clip-path)">
        <path id="Path_6477" data-name="Path 6477" d="M.4.563v171.96H8.242V8.2a.218.218,0,0,1,.2-.235H33.531a.218.218,0,0,1,.2.235V172.523h204.11V.563Z" transform="translate(-0.067 -0.094)" fill="#4aae51"/>
        <path id="Path_6478" data-name="Path 6478" d="M.642.111v172.4c0,.031-.144.057-.32.057S0,172.537,0,172.507V.111C0,.08.144.054.321.054s.32.026.32.057" transform="translate(0 -0.009)"/>
        <path id="Path_6479" data-name="Path 6479" d="M237.641,0H.4V.469H237.445v171.96H33.671v.234a.218.218,0,0,1-.2.235H237.641a.218.218,0,0,0,.2-.235V.234a.217.217,0,0,0-.2-.234" transform="translate(-0.067)"/>
        <path id="Path_6480" data-name="Path 6480" d="M9.773,207.388v-.234H.4v.468h9.608a.234.234,0,0,1-.234-.234" transform="translate(-0.067 -34.725)"/>
        <path id="Path_6481" data-name="Path 6481" d="M148.815,100.479c-.1-.523-.193-12.9-.216-24.059-.047-23.431.166-23.644.28-23.758L150,51.538a.234.234,0,1,1,.331.331l-1.084,1.084c-.14.825-.211,10.089-.182,23.783.025,12.114.122,23.166.206,23.652.108.541,1.167.911,1.785,1.066V51.7a.233.233,0,0,1,.141-.213V51H119.853v51.635H151.2v-.67c-.38-.075-2.183-.479-2.385-1.487m-23.622-46.2q-.1.353-.229.795t-.247.93q-.124.487-.247.993t-.233.986q-.109.481-.195.908c-.057.285-.106.536-.146.757a.274.274,0,0,1-.1.165.392.392,0,0,1-.259-.015c-.12-.03-.239-.058-.355-.086a1.617,1.617,0,0,1-.356-.132.407.407,0,0,1-.188-.194.717.717,0,0,1-.029-.307q.015-.277.071-.746c.037-.314.085-.653.142-1.02s.122-.744.195-1.132.147-.747.221-1.083c-.1-.051-.182-.094-.247-.132a.412.412,0,0,1-.139-.117.187.187,0,0,1-.033-.131.613.613,0,0,1,.06-.183,5.585,5.585,0,0,1,.3-.536q.172-.273.322-.476a1.482,1.482,0,0,1,.132-.142.323.323,0,0,1,.266-.091,1.3,1.3,0,0,1,.195.038,2.569,2.569,0,0,1,.439.161,3.067,3.067,0,0,1,.431.251.741.741,0,0,1,.255.24.381.381,0,0,1-.022.3m5.038.689q-.412.533-.84,1.136t-.836,1.234q-.408.631-.779,1.256t-.664,1.188c-.04.084-.087.132-.142.142a.524.524,0,0,1-.255-.052,3.9,3.9,0,0,1-.345-.187,2,2,0,0,1-.315-.233.4.4,0,0,1-.146-.231.715.715,0,0,1,.048-.285c.14-.33.3-.673.488-1.032s.385-.718.6-1.082.44-.728.675-1.092.477-.716.728-1.06c-.135.01-.281.023-.435.041s-.307.036-.457.057l-.431.056c-.137.017-.254.032-.349.042a.763.763,0,0,1-.7-.2c-.036-.045-.077-.1-.124-.154s-.1-.117-.146-.18-.1-.127-.142-.192a1.9,1.9,0,0,1-.112-.179q-.12-.165-.082-.232a.277.277,0,0,1,.18-.1,5.547,5.547,0,0,1,.735-.15c.28-.041.572-.075.877-.1s.613-.055.922-.076.6-.034.862-.045a1.16,1.16,0,0,1,.386.056.683.683,0,0,1,.3.252,4.01,4.01,0,0,1,.3.379q.127.184.232.325a.633.633,0,0,1,.132.349.572.572,0,0,1-.154.363" transform="translate(-20.091 -8.549)" fill="#4aae51"/>
        <path id="Path_6482" data-name="Path 6482" d="M158.538,66.7a.234.234,0,0,1,.235-.235h5.533V51h-6.794v.489a.233.233,0,0,1,.328.214V92.615a.229.229,0,0,1,.187-.1h5.411a.234.234,0,0,1,0,.469h-5.411a.228.228,0,0,1-.187-.1v8.863a.234.234,0,0,1-.235.234.24.24,0,0,1-.042,0l-.052-.01v.669h6.794v-35.7h-5.533a.234.234,0,0,1-.235-.234m1.973,5.435a.234.234,0,0,1,.234-.235h.937a.234.234,0,0,1,.234.235v5.623a.234.234,0,0,1-.234.234h-.937a.234.234,0,0,1-.234-.234Zm.7,11.011c1.025,0,1.827,1.255,1.827,2.858s-.8,2.858-1.827,2.858S159.387,87.6,159.387,86s.8-2.858,1.827-2.858" transform="translate(-26.403 -8.549)" fill="#b0eeb2"/>
        <rect id="Rectangle_1937" data-name="Rectangle 1937" width="0.469" height="5.154" transform="translate(134.576 63.817)" fill="#38783d"/>
        <path id="Path_6483" data-name="Path 6483" d="M161.685,94.958c.737,0,1.359-1.095,1.359-2.39s-.623-2.39-1.359-2.39-1.358,1.095-1.358,2.39.623,2.39,1.358,2.39m-.234-3.327a.234.234,0,0,1,.469,0v2.062a.234.234,0,0,1-.469,0Z" transform="translate(-26.875 -15.116)" fill="#38783d"/>
        <path id="Path_6484" data-name="Path 6484" d="M119.524,103.009h38.609a.234.234,0,0,0,.235-.234v-52.1a.234.234,0,0,0-.235-.235H119.524a.234.234,0,0,0-.234.235v52.1a.234.234,0,0,0,.234.234m38.7-36.406a.234.234,0,0,1-.234.234H157.9v35.7h-38.14V50.906H157.9V66.368h.094a.234.234,0,0,1,.234.235" transform="translate(-19.996 -8.455)"/>
        <path id="Path_6485" data-name="Path 6485" d="M158.093,101.344h5.41a.234.234,0,1,0,0-.469h-5.41a.23.23,0,0,0-.187.1v.267a.23.23,0,0,0,.187.1" transform="translate(-26.469 -16.909)"/>
        <path id="Path_6486" data-name="Path 6486" d="M164.607,69.577H158.98a.234.234,0,1,0,0,.469h5.627a.234.234,0,0,0,0-.469" transform="translate(-26.61 -11.663)"/>
        <path id="Path_6487" data-name="Path 6487" d="M161.349,82.2h.937a.234.234,0,0,0,.234-.234V76.341a.234.234,0,0,0-.234-.235h-.937a.234.234,0,0,0-.234.235v5.623a.234.234,0,0,0,.234.234m.235-5.623h.469v5.154h-.469Z" transform="translate(-27.007 -12.757)"/>
        <path id="Path_6488" data-name="Path 6488" d="M161.591,95.333c1.025,0,1.827-1.256,1.827-2.858s-.8-2.858-1.827-2.858-1.827,1.255-1.827,2.858.8,2.858,1.827,2.858m0-5.248c.737,0,1.358,1.095,1.358,2.39s-.622,2.39-1.358,2.39-1.358-1.095-1.358-2.39.622-2.39,1.358-2.39" transform="translate(-26.781 -15.022)"/>
        <path id="Path_6489" data-name="Path 6489" d="M161.912,94.173a.234.234,0,0,0,.234-.234V91.878a.234.234,0,1,0-.468,0v2.062a.234.234,0,0,0,.234.234" transform="translate(-27.102 -15.362)"/>
        <path id="Path_6490" data-name="Path 6490" d="M156.846,51.8v49.751c-.618-.154-1.676-.524-1.785-1.066-.084-.485-.181-11.538-.206-23.652-.029-13.693.042-22.959.182-23.783l1.084-1.084a.234.234,0,0,0-.331-.331l-1.124,1.125c-.115.114-.327.326-.28,23.758.022,11.164.111,23.537.215,24.059.2,1.008,2.005,1.413,2.386,1.487l.052.01a.242.242,0,0,0,.042,0,.235.235,0,0,0,.235-.235V51.8a.234.234,0,0,0-.235-.234.221.221,0,0,0-.093.02.234.234,0,0,0-.141.214" transform="translate(-25.878 -8.643)"/>
        <path id="Path_6491" data-name="Path 6491" d="M125.514,54.194a3.109,3.109,0,0,0-.432-.251,2.568,2.568,0,0,0-.439-.161,1.175,1.175,0,0,0-.195-.037.337.337,0,0,0-.145.015.332.332,0,0,0-.121.075,1.483,1.483,0,0,0-.132.142c-.1.135-.208.294-.323.476a5.775,5.775,0,0,0-.3.536.614.614,0,0,0-.06.183.2.2,0,0,0,.034.132.418.418,0,0,0,.138.117c.066.037.148.081.248.131-.075.335-.148.7-.221,1.084s-.137.764-.195,1.132-.1.707-.142,1.02-.061.561-.072.746a.7.7,0,0,0,.03.307.408.408,0,0,0,.188.195,1.6,1.6,0,0,0,.356.132c.117.027.236.056.355.086a.4.4,0,0,0,.26.015.279.279,0,0,0,.1-.165q.06-.33.147-.757c.057-.285.123-.588.195-.907s.15-.648.232-.986.165-.668.247-.993.166-.634.248-.93.159-.559.229-.795a.385.385,0,0,0,.022-.3.749.749,0,0,0-.255-.24" transform="translate(-20.644 -9.009)"/>
        <path id="Path_6492" data-name="Path 6492" d="M131.148,54.377a4.119,4.119,0,0,0-.3-.379.675.675,0,0,0-.3-.251,1.138,1.138,0,0,0-.386-.056q-.4.015-.862.045t-.921.075q-.458.045-.877.1a5.577,5.577,0,0,0-.735.15.277.277,0,0,0-.18.1q-.037.067.082.232a1.907,1.907,0,0,0,.112.181c.045.065.092.128.142.191s.1.122.146.18.089.109.124.154a.79.79,0,0,0,.352.2.8.8,0,0,0,.352,0c.095-.01.211-.023.349-.041l.431-.057q.225-.03.457-.056c.155-.017.3-.032.435-.042q-.376.517-.727,1.06t-.675,1.091q-.322.547-.6,1.083t-.487,1.031a.7.7,0,0,0-.049.285.41.41,0,0,0,.146.232,2.076,2.076,0,0,0,.315.232,3.911,3.911,0,0,0,.345.188.528.528,0,0,0,.256.052q.081-.015.142-.142.292-.563.663-1.189t.779-1.256q.41-.629.837-1.233t.839-1.136a.574.574,0,0,0,.154-.363.63.63,0,0,0-.132-.349q-.1-.142-.232-.326" transform="translate(-21.218 -9)"/>
        <path id="Path_6493" data-name="Path 6493" d="M148.815,175.235c-.1-.523-.193-12.9-.216-24.059-.047-23.432.166-23.644.28-23.758L150,126.293a.234.234,0,1,1,.331.331l-1.083,1.084c-.14.825-.212,10.09-.183,23.783.026,12.114.122,23.167.206,23.653.108.541,1.167.911,1.785,1.065V126.458a.233.233,0,0,1,.14-.214v-.489H119.853v51.635H151.2v-.669c-.38-.075-2.183-.479-2.385-1.487M127.21,129.964a1.956,1.956,0,0,1-.161.487,4.314,4.314,0,0,1-.281.5,5.354,5.354,0,0,1-.449.615q-.27.322-.588.644t-.671.623q-.352.3-.7.547A6.4,6.4,0,0,1,125,133.3q.33-.022.57-.03a.578.578,0,0,1,.285.049.594.594,0,0,1,.21.191,1.854,1.854,0,0,1,.169.255,1.584,1.584,0,0,1,.116.256c.04.09.044.15.012.18a.447.447,0,0,1-.221.067q-.27.015-.626.052t-.716.082c-.24.03-.47.062-.69.1s-.4.067-.547.1a1.984,1.984,0,0,1-.27.034.742.742,0,0,1-.176-.012.427.427,0,0,1-.124-.045.681.681,0,0,1-.1-.075q-.067-.045-.15-.112t-.165-.142c-.055-.05-.109-.1-.161-.154s-.1-.1-.139-.146a.678.678,0,0,1-.093-.12.463.463,0,0,1-.057-.139.248.248,0,0,1,.012-.139.336.336,0,0,1,.116-.135,10.552,10.552,0,0,0,.832-.686q.435-.393.847-.81t.772-.828q.36-.412.607-.753a3.252,3.252,0,0,0,.349-.573c.067-.155.069-.255,0-.3a.254.254,0,0,0-.233-.027,1.205,1.205,0,0,0-.315.154,3.435,3.435,0,0,0-.367.28c-.13.113-.258.229-.383.349a1.035,1.035,0,0,1-.315.158,1.418,1.418,0,0,1-.356.06,2.137,2.137,0,0,1-.37-.019,1.779,1.779,0,0,1-.353-.086.479.479,0,0,1-.161-.083.24.24,0,0,1-.083-.138.443.443,0,0,1,.019-.214,1.841,1.841,0,0,1,.135-.315,3.633,3.633,0,0,1,.885-1.009,2.6,2.6,0,0,1,1.147-.52,1.835,1.835,0,0,1,.693,0,2.305,2.305,0,0,1,.6.2,2.064,2.064,0,0,1,.479.33,2.128,2.128,0,0,1,.326.37,1.607,1.607,0,0,1,.2.518,1.353,1.353,0,0,1,0,.491m4.76-.244q-.412.532-.84,1.135t-.836,1.234q-.408.629-.78,1.256t-.663,1.188c-.04.085-.087.132-.142.143a.54.54,0,0,1-.255-.053,3.9,3.9,0,0,1-.345-.187,2.052,2.052,0,0,1-.315-.232.405.405,0,0,1-.146-.232.719.719,0,0,1,.048-.286q.21-.494.488-1.03t.6-1.083q.322-.548.675-1.091t.728-1.06c-.135.01-.281.023-.435.041s-.307.037-.457.057l-.431.056c-.137.017-.254.032-.349.042a.8.8,0,0,1-.352,0,.784.784,0,0,1-.352-.2c-.036-.045-.077-.1-.124-.154s-.1-.117-.146-.18-.1-.127-.142-.191a2.017,2.017,0,0,1-.112-.18q-.12-.165-.082-.232a.276.276,0,0,1,.18-.1,5.544,5.544,0,0,1,.735-.15c.28-.041.572-.075.876-.1s.613-.055.922-.076.6-.034.862-.045a1.137,1.137,0,0,1,.386.057.68.68,0,0,1,.3.251,4.023,4.023,0,0,1,.3.379q.127.184.232.325a.633.633,0,0,1,.132.349.576.576,0,0,1-.154.364" transform="translate(-20.091 -21.08)" fill="#4aae51"/>
        <path id="Path_6494" data-name="Path 6494" d="M158.538,141.453a.234.234,0,0,1,.235-.235h5.533V125.756h-6.794v.489a.233.233,0,0,1,.328.214v40.913a.229.229,0,0,1,.187-.1h5.411a.234.234,0,0,1,0,.469h-5.411a.228.228,0,0,1-.187-.1V176.5a.234.234,0,0,1-.235.234.244.244,0,0,1-.042,0l-.052-.01v.669h6.794v-35.7h-5.533a.234.234,0,0,1-.235-.234m1.973,5.435a.234.234,0,0,1,.234-.234h.937a.234.234,0,0,1,.234.234v5.623a.234.234,0,0,1-.234.235h-.937a.234.234,0,0,1-.234-.235Zm.7,11.011c1.025,0,1.827,1.255,1.827,2.858s-.8,2.858-1.827,2.858-1.827-1.256-1.827-2.858.8-2.858,1.827-2.858" transform="translate(-26.403 -21.08)" fill="#b0eeb2"/>
        <rect id="Rectangle_1938" data-name="Rectangle 1938" width="0.469" height="5.154" transform="translate(134.576 126.041)" fill="#38783d"/>
        <path id="Path_6495" data-name="Path 6495" d="M161.685,169.714c.737,0,1.359-1.095,1.359-2.39s-.623-2.39-1.359-2.39-1.358,1.095-1.358,2.39.623,2.39,1.358,2.39m-.234-3.327a.234.234,0,1,1,.469,0v2.062a.234.234,0,0,1-.469,0Z" transform="translate(-26.875 -27.648)" fill="#38783d"/>
        <path id="Path_6496" data-name="Path 6496" d="M119.524,177.764h38.609a.234.234,0,0,0,.235-.234v-52.1a.234.234,0,0,0-.235-.235H119.524a.234.234,0,0,0-.234.235v52.1a.234.234,0,0,0,.234.234m38.7-36.406a.234.234,0,0,1-.234.234H157.9v35.7h-38.14V125.661H157.9v15.463h.094a.234.234,0,0,1,.234.234" transform="translate(-19.996 -20.986)"/>
        <path id="Path_6497" data-name="Path 6497" d="M158.093,176.1h5.41a.234.234,0,1,0,0-.469h-5.41a.23.23,0,0,0-.187.1V176a.23.23,0,0,0,.187.1" transform="translate(-26.469 -29.44)"/>
        <path id="Path_6498" data-name="Path 6498" d="M164.607,144.332H158.98a.234.234,0,1,0,0,.469h5.627a.234.234,0,0,0,0-.469" transform="translate(-26.61 -24.194)"/>
        <path id="Path_6499" data-name="Path 6499" d="M161.349,156.953h.937a.235.235,0,0,0,.234-.235V151.1a.234.234,0,0,0-.234-.234h-.937a.234.234,0,0,0-.234.234v5.623a.235.235,0,0,0,.234.235m.235-5.624h.469v5.154h-.469Z" transform="translate(-27.007 -25.289)"/>
        <path id="Path_6500" data-name="Path 6500" d="M161.591,170.089c1.025,0,1.827-1.256,1.827-2.858s-.8-2.858-1.827-2.858-1.827,1.255-1.827,2.858.8,2.858,1.827,2.858m0-5.248c.737,0,1.358,1.095,1.358,2.39s-.622,2.39-1.358,2.39-1.358-1.095-1.358-2.39.622-2.39,1.358-2.39" transform="translate(-26.781 -27.553)"/>
        <path id="Path_6501" data-name="Path 6501" d="M161.912,168.928a.234.234,0,0,0,.234-.235v-2.061a.234.234,0,1,0-.468,0v2.061a.234.234,0,0,0,.234.235" transform="translate(-27.102 -27.893)"/>
        <path id="Path_6502" data-name="Path 6502" d="M156.846,126.553V176.3c-.618-.154-1.676-.524-1.785-1.066-.084-.485-.181-11.538-.206-23.652-.029-13.693.042-22.959.182-23.783l1.084-1.084a.234.234,0,0,0-.331-.331l-1.124,1.125c-.115.114-.327.326-.28,23.758.022,11.165.111,23.537.215,24.059.2,1.008,2.005,1.413,2.386,1.487l.052.01a.241.241,0,0,0,.042,0,.234.234,0,0,0,.235-.235V126.553a.234.234,0,0,0-.469,0" transform="translate(-25.878 -21.174)"/>
        <path id="Path_6503" data-name="Path 6503" d="M127.462,129.411a2.13,2.13,0,0,0-.326-.371,2.088,2.088,0,0,0-.479-.33,2.294,2.294,0,0,0-.6-.2,1.85,1.85,0,0,0-.693,0,2.6,2.6,0,0,0-1.147.521,3.635,3.635,0,0,0-.885,1.009,1.839,1.839,0,0,0-.135.315.438.438,0,0,0-.018.213.238.238,0,0,0,.082.139.463.463,0,0,0,.161.082,1.734,1.734,0,0,0,.353.087,2.056,2.056,0,0,0,.37.018,1.411,1.411,0,0,0,.356-.06,1.047,1.047,0,0,0,.315-.157q.187-.18.382-.349a3.566,3.566,0,0,1,.367-.281,1.228,1.228,0,0,1,.315-.153.254.254,0,0,1,.233.026c.065.046.063.145,0,.3a3.2,3.2,0,0,1-.349.574q-.247.341-.607.753t-.772.828q-.412.416-.847.81t-.832.686a.332.332,0,0,0-.117.135.24.24,0,0,0-.011.139.435.435,0,0,0,.056.138.619.619,0,0,0,.094.12c.04.045.086.094.138.146s.107.1.161.154.11.1.165.142.1.082.15.112a.684.684,0,0,0,.1.075.428.428,0,0,0,.124.045.707.707,0,0,0,.176.011,1.954,1.954,0,0,0,.27-.033q.217-.045.548-.1t.689-.1q.36-.045.716-.082t.626-.052a.456.456,0,0,0,.221-.067c.032-.03.028-.09-.012-.18a1.525,1.525,0,0,0-.116-.256,1.8,1.8,0,0,0-.169-.255.6.6,0,0,0-.21-.191.578.578,0,0,0-.285-.048q-.241.007-.57.03a6.341,6.341,0,0,0-.637.075q.345-.247.7-.548t.671-.622q.32-.322.588-.645a5.2,5.2,0,0,0,.45-.614,4.439,4.439,0,0,0,.281-.5,1.95,1.95,0,0,0,.161-.488,1.352,1.352,0,0,0,0-.491,1.6,1.6,0,0,0-.2-.517" transform="translate(-20.546 -21.536)"/>
        <path id="Path_6504" data-name="Path 6504" d="M133.237,129.132a4.121,4.121,0,0,0-.3-.379.676.676,0,0,0-.3-.251,1.139,1.139,0,0,0-.386-.056q-.4.015-.862.045t-.921.075q-.458.045-.877.1a5.575,5.575,0,0,0-.735.15.276.276,0,0,0-.18.1c-.025.045,0,.123.082.232a1.9,1.9,0,0,0,.112.181c.045.065.092.128.142.191l.147.181c.047.057.089.108.124.153a.758.758,0,0,0,.7.2c.095-.01.211-.023.349-.041l.431-.057q.225-.03.457-.056c.155-.017.3-.032.435-.042q-.376.517-.727,1.06t-.675,1.091q-.322.547-.6,1.083t-.488,1.031a.715.715,0,0,0-.048.285.41.41,0,0,0,.146.232,2.079,2.079,0,0,0,.315.232,3.908,3.908,0,0,0,.345.188.527.527,0,0,0,.255.052c.055-.01.1-.057.143-.142q.292-.563.663-1.189t.779-1.256q.408-.629.837-1.233t.839-1.136a.574.574,0,0,0,.154-.363.633.633,0,0,0-.132-.349q-.1-.142-.232-.326" transform="translate(-21.569 -21.531)"/>
        <path id="Path_6505" data-name="Path 6505" d="M151.2,36.995c-.38-.074-2.183-.479-2.385-1.487-.1-.524-.193-6.67-.216-12.063-.047-11.438.174-11.658.28-11.764L150,10.557a.234.234,0,1,1,.331.331l-1.093,1.093c-.135.538-.2,5.1-.172,11.721.025,5.823.122,11.3.2,11.715.108.541,1.167.912,1.785,1.066V10.723a.234.234,0,0,1,.141-.214V10.02H119.853V37.665H151.2Zm-23.87-23.011q-.412.532-.84,1.135t-.836,1.234q-.408.629-.78,1.256T124.21,18.8q-.06.127-.142.142a.527.527,0,0,1-.255-.052,3.9,3.9,0,0,1-.345-.187,2.1,2.1,0,0,1-.315-.232.408.408,0,0,1-.146-.232.721.721,0,0,1,.048-.286q.21-.494.488-1.03t.6-1.083q.322-.548.675-1.091t.727-1.06c-.136.01-.281.023-.435.041s-.307.037-.457.057l-.431.056c-.137.017-.254.032-.349.042a.765.765,0,0,1-.705-.2c-.035-.045-.076-.1-.123-.154s-.1-.117-.146-.18-.1-.127-.142-.191a2.018,2.018,0,0,1-.112-.18q-.12-.165-.082-.232a.277.277,0,0,1,.18-.1,5.547,5.547,0,0,1,.735-.15q.419-.06.876-.1c.3-.031.613-.055.922-.076s.6-.034.862-.045a1.137,1.137,0,0,1,.386.057.674.674,0,0,1,.3.251,3.9,3.9,0,0,1,.3.379q.127.184.232.325a.633.633,0,0,1,.132.349.58.58,0,0,1-.154.364" transform="translate(-20.091 -1.68)" fill="#4aae51"/>
        <path id="Path_6506" data-name="Path 6506" d="M157.605,10.489a.234.234,0,0,1,.235.234V36.774a.235.235,0,0,1-.235.235.243.243,0,0,1-.042,0l-.052-.01v.67h6.794V10.02h-6.794v.489a.234.234,0,0,1,.093-.02m2.906,5.107a.234.234,0,0,1,.234-.234h.937a.234.234,0,0,1,.234.234v5.624a.234.234,0,0,1-.234.234h-.937a.234.234,0,0,1-.234-.234Zm.7,11.011c1.025,0,1.827,1.255,1.827,2.858s-.8,2.858-1.827,2.858-1.827-1.256-1.827-2.858.8-2.858,1.827-2.858" transform="translate(-26.403 -1.68)" fill="#b0eeb2"/>
        <path id="Path_6507" data-name="Path 6507" d="M161.685,35.289c.737,0,1.359-1.095,1.359-2.39s-.623-2.39-1.359-2.39-1.358,1.095-1.358,2.39.623,2.39,1.358,2.39m-.234-3.327a.234.234,0,0,1,.469,0v2.062a.234.234,0,0,1-.469,0Z" transform="translate(-26.875 -5.114)" fill="#38783d"/>
        <rect id="Rectangle_1939" data-name="Rectangle 1939" width="0.469" height="5.154" transform="translate(134.576 14.15)" fill="#38783d"/>
        <path id="Path_6508" data-name="Path 6508" d="M119.525,38.039h38.609a.234.234,0,0,0,.234-.235V9.692a.234.234,0,0,0-.234-.235H119.525a.234.234,0,0,0-.235.235V37.8a.234.234,0,0,0,.235.235m.234-28.113H157.9V37.57h-38.14Z" transform="translate(-19.996 -1.585)"/>
        <path id="Path_6509" data-name="Path 6509" d="M161.349,22.528h.937a.234.234,0,0,0,.234-.234V16.672a.234.234,0,0,0-.234-.235h-.937a.234.234,0,0,0-.234.235v5.623a.234.234,0,0,0,.234.234m.235-5.623h.469V22.06h-.469Z" transform="translate(-27.007 -2.755)"/>
        <path id="Path_6510" data-name="Path 6510" d="M161.591,35.664c1.025,0,1.827-1.256,1.827-2.858s-.8-2.858-1.827-2.858-1.827,1.255-1.827,2.858.8,2.858,1.827,2.858m0-5.248c.737,0,1.358,1.095,1.358,2.39s-.622,2.39-1.358,2.39-1.358-1.095-1.358-2.39.622-2.39,1.358-2.39" transform="translate(-26.781 -5.02)"/>
        <path id="Path_6511" data-name="Path 6511" d="M161.912,34.5a.234.234,0,0,0,.234-.235V32.209a.234.234,0,1,0-.468,0V34.27a.234.234,0,0,0,.234.235" transform="translate(-27.102 -5.36)"/>
        <path id="Path_6512" data-name="Path 6512" d="M157.08,37.1a.236.236,0,0,0,.15-.054.234.234,0,0,0,.085-.18V10.818a.234.234,0,0,0-.235-.235.238.238,0,0,0-.094.02.234.234,0,0,0-.14.215v25.76c-.618-.155-1.677-.525-1.785-1.067-.083-.417-.179-5.891-.2-11.715-.03-6.617.038-11.183.172-11.721l1.093-1.093a.234.234,0,1,0-.331-.331l-1.125,1.125c-.106.107-.326.326-.28,11.764.022,5.394.111,11.539.216,12.064.2,1.007,2.005,1.412,2.385,1.487l.052.009a.227.227,0,0,0,.042,0" transform="translate(-25.878 -1.774)"/>
        <path id="Path_6513" data-name="Path 6513" d="M127.662,13.4a4.13,4.13,0,0,0-.3-.379.676.676,0,0,0-.3-.251,1.138,1.138,0,0,0-.386-.056q-.4.015-.862.045t-.921.075q-.458.045-.877.1a5.546,5.546,0,0,0-.735.15.277.277,0,0,0-.18.1c-.025.045,0,.123.082.232a1.9,1.9,0,0,0,.112.181c.045.065.092.128.142.191s.1.123.147.18.089.109.124.154a.79.79,0,0,0,.352.2.8.8,0,0,0,.352,0c.095-.01.211-.023.349-.041l.431-.057q.225-.03.457-.056c.155-.017.3-.032.435-.042q-.376.517-.728,1.06t-.675,1.091q-.322.547-.6,1.083T123.6,18.4a.715.715,0,0,0-.048.285.405.405,0,0,0,.147.232,2.082,2.082,0,0,0,.315.233,3.9,3.9,0,0,0,.345.187.527.527,0,0,0,.255.052q.082-.015.142-.142.293-.563.664-1.189T126.2,16.8q.41-.629.837-1.233t.839-1.136a.574.574,0,0,0,.154-.363.633.633,0,0,0-.132-.349q-.1-.142-.232-.326" transform="translate(-20.634 -2.131)"/>
        <path id="Path_6514" data-name="Path 6514" d="M72.608,58.4a1.294,1.294,0,0,0-.266.191,1.5,1.5,0,0,0-.236.277,2.706,2.706,0,0,0-.158.8q0,.315.195.4a.468.468,0,0,0,.5-.075,1.616,1.616,0,0,0,.469-.615,1.777,1.777,0,0,0,.2-.659.356.356,0,0,0-.206-.39.476.476,0,0,0-.232-.018.818.818,0,0,0-.262.09" transform="translate(-12.06 -9.774)" fill="#4aae51"/>
        <path id="Path_6515" data-name="Path 6515" d="M92.748,100.479c-.1-.522-.193-12.894-.216-24.059-.047-23.431.166-23.644.28-23.758l1.125-1.125a.234.234,0,1,1,.331.331l-1.083,1.084c-.14.825-.212,10.09-.183,23.783.026,12.114.122,23.167.206,23.652.109.542,1.168.912,1.785,1.066V51.7a.232.232,0,0,1,.141-.214V51H63.787v51.635H95.133v-.67c-.38-.074-2.184-.479-2.386-1.487m-23.622-46.2q-.1.352-.228.795T68.65,56q-.124.487-.247.993t-.232.986q-.109.481-.195.907t-.147.757a.275.275,0,0,1-.1.165.393.393,0,0,1-.259-.015c-.12-.03-.239-.059-.356-.087a1.583,1.583,0,0,1-.356-.131.41.41,0,0,1-.187-.195.7.7,0,0,1-.03-.308c.01-.185.033-.434.072-.746s.085-.652.142-1.02.122-.744.195-1.132.146-.748.221-1.083c-.1-.05-.183-.094-.248-.132a.417.417,0,0,1-.138-.116.191.191,0,0,1-.034-.132.617.617,0,0,1,.06-.184,5.694,5.694,0,0,1,.3-.536c.115-.182.223-.34.323-.476a1.584,1.584,0,0,1,.132-.142.329.329,0,0,1,.12-.075.341.341,0,0,1,.146-.015,1.192,1.192,0,0,1,.195.037,2.546,2.546,0,0,1,.439.161,3.1,3.1,0,0,1,.431.251.741.741,0,0,1,.255.24.381.381,0,0,1-.022.3m4.236-.195a9.254,9.254,0,0,0-1,.948,8.436,8.436,0,0,0-.8,1.039,1.556,1.556,0,0,1,.405.022,2.089,2.089,0,0,1,.382.112,2.23,2.23,0,0,1,.484.247,1.343,1.343,0,0,1,.3.285.932.932,0,0,1,.157.323,1.419,1.419,0,0,1,.045.36,2.041,2.041,0,0,1-.075.7,2.932,2.932,0,0,1-.262.629,2.635,2.635,0,0,1-.379.518,2.209,2.209,0,0,1-.431.36,1.9,1.9,0,0,1-.308.142,1.382,1.382,0,0,1-.378.075,2.353,2.353,0,0,1-.484-.022,3.864,3.864,0,0,1-.608-.142,2.807,2.807,0,0,1-.562-.27,1.5,1.5,0,0,1-.379-.338,1.3,1.3,0,0,1-.217-.415,1.894,1.894,0,0,1-.079-.514,4.692,4.692,0,0,1,.075-.926,5.242,5.242,0,0,1,.356-1.173,7.073,7.073,0,0,1,.742-1.308A7.2,7.2,0,0,1,71.585,53.4c.06-.049.112-.091.157-.123a.523.523,0,0,1,.136-.072.424.424,0,0,1,.153-.018,1.683,1.683,0,0,1,.214.026c.08.015.169.037.266.064s.193.057.289.09.185.067.27.1.157.068.217.1a.482.482,0,0,1,.225.226q.037.112-.15.285" transform="translate(-10.692 -8.549)" fill="#4aae51"/>
        <path id="Path_6516" data-name="Path 6516" d="M102.472,66.7a.234.234,0,0,1,.235-.235h5.533V51h-6.794v.489a.233.233,0,0,1,.328.214V92.615a.229.229,0,0,1,.187-.1h5.411a.234.234,0,0,1,0,.469h-5.411a.228.228,0,0,1-.187-.1v8.863a.234.234,0,0,1-.234.234.243.243,0,0,1-.042,0l-.052-.01v.669h6.794v-35.7h-5.533a.234.234,0,0,1-.235-.234m1.973,5.435a.234.234,0,0,1,.234-.235h.937a.234.234,0,0,1,.234.235v5.623a.234.234,0,0,1-.234.234h-.937a.234.234,0,0,1-.234-.234Zm.7,11.011c1.025,0,1.827,1.255,1.827,2.858s-.8,2.858-1.827,2.858S103.32,87.6,103.32,86s.8-2.858,1.827-2.858" transform="translate(-17.005 -8.549)" fill="#b0eeb2"/>
        <rect id="Rectangle_1940" data-name="Rectangle 1940" width="0.469" height="5.154" transform="translate(87.908 63.817)" fill="#38783d"/>
        <path id="Path_6517" data-name="Path 6517" d="M105.618,94.958c.737,0,1.359-1.095,1.359-2.39s-.623-2.39-1.359-2.39-1.358,1.095-1.358,2.39.623,2.39,1.358,2.39m-.234-3.327a.234.234,0,0,1,.469,0v2.062a.234.234,0,0,1-.469,0Z" transform="translate(-17.477 -15.116)" fill="#38783d"/>
        <path id="Path_6518" data-name="Path 6518" d="M63.458,103.009h38.609a.234.234,0,0,0,.235-.234v-52.1a.234.234,0,0,0-.235-.235H63.458a.234.234,0,0,0-.234.235v52.1a.234.234,0,0,0,.234.234m38.7-36.406a.234.234,0,0,1-.234.234h-.094v35.7H63.693V50.906h38.14V66.368h.094a.234.234,0,0,1,.234.235" transform="translate(-10.598 -8.455)"/>
        <path id="Path_6519" data-name="Path 6519" d="M102.027,101.344h5.41a.234.234,0,1,0,0-.469h-5.41a.23.23,0,0,0-.187.1v.267a.23.23,0,0,0,.187.1" transform="translate(-17.071 -16.909)"/>
        <path id="Path_6520" data-name="Path 6520" d="M108.54,69.577h-5.627a.234.234,0,1,0,0,.469h5.627a.234.234,0,0,0,0-.469" transform="translate(-17.212 -11.663)"/>
        <path id="Path_6521" data-name="Path 6521" d="M105.283,82.2h.937a.234.234,0,0,0,.234-.234V76.341a.234.234,0,0,0-.234-.235h-.937a.234.234,0,0,0-.235.235v5.623a.234.234,0,0,0,.235.234m.234-5.623h.469v5.154h-.469Z" transform="translate(-17.609 -12.757)"/>
        <path id="Path_6522" data-name="Path 6522" d="M105.525,95.333c1.025,0,1.827-1.256,1.827-2.858s-.8-2.858-1.827-2.858-1.827,1.255-1.827,2.858.8,2.858,1.827,2.858m0-5.248c.737,0,1.358,1.095,1.358,2.39s-.622,2.39-1.358,2.39-1.358-1.095-1.358-2.39.622-2.39,1.358-2.39" transform="translate(-17.383 -15.022)"/>
        <path id="Path_6523" data-name="Path 6523" d="M105.846,94.173a.234.234,0,0,0,.234-.234V91.878a.234.234,0,1,0-.468,0v2.062a.234.234,0,0,0,.234.234" transform="translate(-17.703 -15.362)"/>
        <path id="Path_6524" data-name="Path 6524" d="M100.78,51.8v49.751c-.618-.154-1.676-.524-1.785-1.066-.084-.485-.181-11.538-.206-23.652-.029-13.693.042-22.959.182-23.783l1.083-1.084a.234.234,0,0,0-.331-.331L98.6,52.757c-.115.114-.327.326-.28,23.758.022,11.164.111,23.537.216,24.059.2,1.008,2,1.413,2.385,1.487l.052.01a.244.244,0,0,0,.042,0,.235.235,0,0,0,.234-.235V51.8a.234.234,0,0,0-.234-.234.219.219,0,0,0-.094.02.234.234,0,0,0-.141.214" transform="translate(-16.48 -8.643)"/>
        <path id="Path_6525" data-name="Path 6525" d="M69.447,54.194a3.1,3.1,0,0,0-.431-.251,2.569,2.569,0,0,0-.439-.161,1.19,1.19,0,0,0-.195-.037.319.319,0,0,0-.266.09,1.607,1.607,0,0,0-.131.142q-.151.2-.323.476a5.588,5.588,0,0,0-.3.536.613.613,0,0,0-.06.183.191.191,0,0,0,.034.132.409.409,0,0,0,.138.117c.065.037.147.081.247.131-.075.335-.148.7-.221,1.084s-.138.764-.195,1.132-.106.707-.142,1.02-.062.561-.072.746a.7.7,0,0,0,.03.307.41.41,0,0,0,.187.195,1.629,1.629,0,0,0,.356.132c.117.027.236.056.356.086a.393.393,0,0,0,.259.015.275.275,0,0,0,.1-.165q.06-.33.146-.757t.2-.907q.109-.479.232-.986t.247-.993q.124-.487.247-.93t.229-.795a.381.381,0,0,0,.022-.3.741.741,0,0,0-.255-.24" transform="translate(-11.246 -9.009)"/>
        <path id="Path_6526" data-name="Path 6526" d="M74.373,54.011c-.061-.03-.134-.062-.219-.1s-.174-.069-.269-.1-.192-.062-.289-.09-.186-.048-.266-.063a1.606,1.606,0,0,0-.215-.027.424.424,0,0,0-.153.018.5.5,0,0,0-.136.072c-.045.032-.1.074-.156.124a7.145,7.145,0,0,0-1.234,1.323,7.072,7.072,0,0,0-.742,1.308,5.2,5.2,0,0,0-.357,1.174,4.812,4.812,0,0,0-.075.926,1.928,1.928,0,0,0,.078.514,1.319,1.319,0,0,0,.218.416,1.5,1.5,0,0,0,.379.337,2.785,2.785,0,0,0,.562.27,3.876,3.876,0,0,0,.607.142,2.36,2.36,0,0,0,.484.022,1.4,1.4,0,0,0,.378-.075,1.889,1.889,0,0,0,.307-.142,2.162,2.162,0,0,0,.431-.36,2.523,2.523,0,0,0,.379-.518,2.932,2.932,0,0,0,.263-.629,2.037,2.037,0,0,0,.075-.7,1.382,1.382,0,0,0-.046-.36.919.919,0,0,0-.156-.322,1.358,1.358,0,0,0-.3-.286,2.23,2.23,0,0,0-.484-.247,2.117,2.117,0,0,0-.383-.112,1.551,1.551,0,0,0-.4-.022,8.263,8.263,0,0,1,.8-1.038,9.347,9.347,0,0,1,1-.949q.187-.172.15-.285a.479.479,0,0,0-.224-.225m-1.552,3.538a.355.355,0,0,1,.206.39,1.78,1.78,0,0,1-.2.66,1.626,1.626,0,0,1-.468.614.468.468,0,0,1-.5.075c-.13-.055-.194-.187-.194-.4a2.732,2.732,0,0,1,.156-.8,1.477,1.477,0,0,1,.237-.277,1.244,1.244,0,0,1,.266-.191.817.817,0,0,1,.261-.091.479.479,0,0,1,.233.019" transform="translate(-11.778 -8.99)"/>
        <path id="Path_6527" data-name="Path 6527" d="M92.749,175.234c-.1-.522-.193-12.894-.216-24.059-.047-23.431.166-23.644.28-23.758l1.124-1.125a.235.235,0,1,1,.332.331l-1.084,1.084c-.14.825-.211,10.09-.182,23.783.025,12.114.122,23.167.206,23.652.108.542,1.167.912,1.785,1.066V126.458a.234.234,0,0,1,.141-.214v-.489H63.787v51.635H95.133v-.67c-.38-.074-2.183-.479-2.385-1.487M68.932,133.3q.33-.022.569-.03a.588.588,0,0,1,.285.048.6.6,0,0,1,.21.191,1.735,1.735,0,0,1,.169.255,1.537,1.537,0,0,1,.117.256c.04.09.043.15.011.18a.443.443,0,0,1-.221.067c-.181.01-.389.027-.626.052s-.476.052-.717.082-.469.062-.689.1-.4.067-.548.1a1.968,1.968,0,0,1-.27.034.745.745,0,0,1-.176-.012.421.421,0,0,1-.123-.045.681.681,0,0,1-.1-.075,1.793,1.793,0,0,1-.15-.112c-.055-.045-.11-.092-.166-.142s-.108-.1-.161-.154-.1-.1-.139-.146a.653.653,0,0,1-.094-.12.455.455,0,0,1-.056-.138.234.234,0,0,1,.012-.139.329.329,0,0,1,.116-.135,10.713,10.713,0,0,0,.832-.686q.434-.393.847-.81t.772-.828q.36-.412.608-.753a3.251,3.251,0,0,0,.349-.573q.1-.232,0-.3a.25.25,0,0,0-.232-.027,1.206,1.206,0,0,0-.315.154,3.357,3.357,0,0,0-.368.28c-.13.113-.257.229-.382.349a1.033,1.033,0,0,1-.315.157,1.423,1.423,0,0,1-.356.06,2.067,2.067,0,0,1-.371-.018,1.728,1.728,0,0,1-.352-.087.46.46,0,0,1-.161-.082.238.238,0,0,1-.082-.138.441.441,0,0,1,.018-.214,1.853,1.853,0,0,1,.136-.315,3.63,3.63,0,0,1,.884-1.009,2.61,2.61,0,0,1,1.147-.521,1.856,1.856,0,0,1,.694,0,2.289,2.289,0,0,1,.6.2,2.18,2.18,0,0,1,.806.7,1.623,1.623,0,0,1,.2.518,1.349,1.349,0,0,1,0,.49,1.984,1.984,0,0,1-.161.488,4.441,4.441,0,0,1-.281.5,5.275,5.275,0,0,1-.449.614q-.27.323-.588.645c-.213.215-.436.423-.672.623s-.467.382-.7.547a6.338,6.338,0,0,1,.638-.075m6.17-4.468a9.256,9.256,0,0,0-1,.948,8.434,8.434,0,0,0-.8,1.039,1.556,1.556,0,0,1,.405.022,2.092,2.092,0,0,1,.382.112,2.23,2.23,0,0,1,.484.247,1.343,1.343,0,0,1,.3.285.932.932,0,0,1,.157.323,1.419,1.419,0,0,1,.045.36,2.041,2.041,0,0,1-.075.7,2.931,2.931,0,0,1-.262.629,2.61,2.61,0,0,1-.379.518,2.21,2.21,0,0,1-.431.36,1.927,1.927,0,0,1-.307.142,1.4,1.4,0,0,1-.379.075,2.345,2.345,0,0,1-.484-.022,3.861,3.861,0,0,1-.608-.142,2.8,2.8,0,0,1-.562-.27,1.5,1.5,0,0,1-.379-.338A1.291,1.291,0,0,1,71,133.4a1.888,1.888,0,0,1-.079-.513,4.693,4.693,0,0,1,.075-.926,5.241,5.241,0,0,1,.356-1.173,7.1,7.1,0,0,1,.742-1.309,7.2,7.2,0,0,1,1.233-1.323c.06-.05.112-.091.157-.123a.522.522,0,0,1,.136-.072.424.424,0,0,1,.153-.018,1.68,1.68,0,0,1,.214.026c.08.015.169.037.266.064s.193.057.289.09.185.067.27.1.157.067.217.1a.482.482,0,0,1,.225.226q.037.112-.15.285" transform="translate(-10.692 -21.08)" fill="#4aae51"/>
        <path id="Path_6528" data-name="Path 6528" d="M74.7,133.16a1.292,1.292,0,0,0-.266.191,1.5,1.5,0,0,0-.236.277,2.711,2.711,0,0,0-.158.8q0,.315.2.4a.467.467,0,0,0,.5-.075,1.616,1.616,0,0,0,.469-.615,1.776,1.776,0,0,0,.2-.659.354.354,0,0,0-.206-.39.476.476,0,0,0-.232-.019.819.819,0,0,0-.262.09" transform="translate(-12.411 -22.305)" fill="#4aae51"/>
        <path id="Path_6529" data-name="Path 6529" d="M102.472,141.453a.234.234,0,0,1,.235-.235h5.533V125.756h-6.794v.489a.233.233,0,0,1,.328.214v40.913a.229.229,0,0,1,.187-.1h5.411a.234.234,0,0,1,0,.469h-5.411a.228.228,0,0,1-.187-.1V176.5a.234.234,0,0,1-.234.234.247.247,0,0,1-.042,0l-.052-.01v.669h6.794v-35.7h-5.533a.234.234,0,0,1-.235-.234m1.973,5.435a.234.234,0,0,1,.234-.234h.937a.234.234,0,0,1,.234.234v5.623a.234.234,0,0,1-.234.235h-.937a.234.234,0,0,1-.234-.235Zm.7,11.011c1.025,0,1.827,1.255,1.827,2.858s-.8,2.858-1.827,2.858-1.827-1.256-1.827-2.858.8-2.858,1.827-2.858" transform="translate(-17.005 -21.08)" fill="#b0eeb2"/>
        <rect id="Rectangle_1941" data-name="Rectangle 1941" width="0.469" height="5.154" transform="translate(87.908 126.041)" fill="#38783d"/>
        <path id="Path_6530" data-name="Path 6530" d="M105.618,169.714c.737,0,1.359-1.095,1.359-2.39s-.623-2.39-1.359-2.39-1.358,1.095-1.358,2.39.623,2.39,1.358,2.39m-.234-3.327a.234.234,0,1,1,.469,0v2.062a.234.234,0,0,1-.469,0Z" transform="translate(-17.477 -27.648)" fill="#38783d"/>
        <path id="Path_6531" data-name="Path 6531" d="M63.458,177.764h38.609a.234.234,0,0,0,.235-.234v-52.1a.234.234,0,0,0-.235-.235H63.458a.234.234,0,0,0-.234.235v52.1a.234.234,0,0,0,.234.234m38.7-36.406a.234.234,0,0,1-.234.234h-.094v35.7H63.693V125.661h38.14v15.463h.094a.234.234,0,0,1,.234.234" transform="translate(-10.598 -20.986)"/>
        <path id="Path_6532" data-name="Path 6532" d="M102.027,176.1h5.41a.234.234,0,1,0,0-.469h-5.41a.23.23,0,0,0-.187.1V176a.23.23,0,0,0,.187.1" transform="translate(-17.071 -29.44)"/>
        <path id="Path_6533" data-name="Path 6533" d="M108.54,144.332h-5.627a.234.234,0,1,0,0,.469h5.627a.234.234,0,0,0,0-.469" transform="translate(-17.212 -24.194)"/>
        <path id="Path_6534" data-name="Path 6534" d="M105.283,156.953h.937a.235.235,0,0,0,.234-.235V151.1a.234.234,0,0,0-.234-.234h-.937a.234.234,0,0,0-.235.234v5.623a.235.235,0,0,0,.235.235m.234-5.624h.469v5.154h-.469Z" transform="translate(-17.609 -25.289)"/>
        <path id="Path_6535" data-name="Path 6535" d="M105.525,170.089c1.025,0,1.827-1.256,1.827-2.858s-.8-2.858-1.827-2.858-1.827,1.255-1.827,2.858.8,2.858,1.827,2.858m0-5.248c.737,0,1.358,1.095,1.358,2.39s-.622,2.39-1.358,2.39-1.358-1.095-1.358-2.39.622-2.39,1.358-2.39" transform="translate(-17.383 -27.553)"/>
        <path id="Path_6536" data-name="Path 6536" d="M105.846,168.928a.234.234,0,0,0,.234-.235v-2.061a.234.234,0,1,0-.468,0v2.061a.234.234,0,0,0,.234.235" transform="translate(-17.703 -27.893)"/>
        <path id="Path_6537" data-name="Path 6537" d="M100.78,126.553V176.3c-.618-.154-1.676-.524-1.785-1.066-.084-.485-.181-11.538-.206-23.652-.029-13.693.042-22.959.182-23.783l1.083-1.084a.234.234,0,0,0-.331-.331L98.6,127.512c-.115.114-.327.326-.28,23.758.022,11.165.111,23.537.216,24.059.2,1.008,2,1.413,2.385,1.487l.052.01a.242.242,0,0,0,.042,0,.234.234,0,0,0,.234-.235V126.553a.234.234,0,0,0-.469,0" transform="translate(-16.48 -21.174)"/>
        <path id="Path_6538" data-name="Path 6538" d="M70.117,132.665q.318-.322.588-.645a5.279,5.279,0,0,0,.449-.614,4.321,4.321,0,0,0,.281-.5,1.951,1.951,0,0,0,.161-.488,1.352,1.352,0,0,0,0-.491,1.6,1.6,0,0,0-.2-.517,2.129,2.129,0,0,0-.326-.371,2.093,2.093,0,0,0-.48-.33,2.288,2.288,0,0,0-.6-.2,1.85,1.85,0,0,0-.693,0,2.6,2.6,0,0,0-1.147.521,3.621,3.621,0,0,0-.885,1.009,1.841,1.841,0,0,0-.135.315.44.44,0,0,0-.019.213.235.235,0,0,0,.083.139.456.456,0,0,0,.161.082,1.726,1.726,0,0,0,.352.087,2.065,2.065,0,0,0,.371.018,1.418,1.418,0,0,0,.356-.06,1.033,1.033,0,0,0,.315-.157c.125-.12.253-.236.383-.349a3.568,3.568,0,0,1,.367-.281,1.228,1.228,0,0,1,.315-.153.253.253,0,0,1,.232.026c.065.046.064.146,0,.3a3.252,3.252,0,0,1-.349.574q-.247.341-.608.753t-.772.828q-.412.416-.847.81a10.547,10.547,0,0,1-.832.686.328.328,0,0,0-.116.135.24.24,0,0,0-.012.139.437.437,0,0,0,.057.138.648.648,0,0,0,.093.12c.041.045.087.094.139.146s.107.1.161.154.11.1.165.142.1.082.15.112a.685.685,0,0,0,.1.075.419.419,0,0,0,.124.045.737.737,0,0,0,.176.012,2.144,2.144,0,0,0,.271-.034q.217-.045.547-.1t.69-.1q.36-.045.716-.082t.626-.052a.45.45,0,0,0,.221-.067c.032-.03.028-.09-.012-.18a1.6,1.6,0,0,0-.116-.256,1.876,1.876,0,0,0-.169-.255.6.6,0,0,0-.21-.191.579.579,0,0,0-.286-.048q-.24.007-.569.03a6.388,6.388,0,0,0-.638.075q.345-.247.7-.548t.671-.622" transform="translate(-11.147 -21.536)"/>
        <path id="Path_6539" data-name="Path 6539" d="M76.461,128.767q-.09-.045-.217-.1c-.085-.035-.175-.069-.27-.1s-.191-.062-.289-.09-.186-.049-.266-.064a1.7,1.7,0,0,0-.214-.026.428.428,0,0,0-.154.018.506.506,0,0,0-.135.072c-.045.032-.1.073-.157.123a7.231,7.231,0,0,0-1.234,1.323,7.141,7.141,0,0,0-.742,1.308,5.241,5.241,0,0,0-.356,1.173,4.691,4.691,0,0,0-.075.926,1.9,1.9,0,0,0,.078.514,1.3,1.3,0,0,0,.218.416,1.511,1.511,0,0,0,.378.337,2.814,2.814,0,0,0,.563.27,3.857,3.857,0,0,0,.607.142,2.353,2.353,0,0,0,.484.022,1.4,1.4,0,0,0,.379-.075,1.966,1.966,0,0,0,.308-.142,2.207,2.207,0,0,0,.43-.36,2.608,2.608,0,0,0,.379-.518,2.931,2.931,0,0,0,.262-.629,2.04,2.04,0,0,0,.076-.7,1.419,1.419,0,0,0-.045-.36.938.938,0,0,0-.158-.322,1.34,1.34,0,0,0-.3-.285,2.229,2.229,0,0,0-.484-.247,2.117,2.117,0,0,0-.383-.112,1.55,1.55,0,0,0-.4-.022,8.505,8.505,0,0,1,.8-1.039,9.184,9.184,0,0,1,1-.948q.187-.172.15-.285a.48.48,0,0,0-.226-.225m-1.552,3.538a.354.354,0,0,1,.206.39,1.8,1.8,0,0,1-.2.66,1.627,1.627,0,0,1-.469.614.467.467,0,0,1-.5.075q-.195-.082-.195-.4a2.737,2.737,0,0,1,.157-.8,1.5,1.5,0,0,1,.236-.277,1.323,1.323,0,0,1,.266-.191.819.819,0,0,1,.262-.09.476.476,0,0,1,.232.019" transform="translate(-12.128 -21.521)"/>
        <path id="Path_6540" data-name="Path 6540" d="M95.133,37c-.38-.074-2.183-.479-2.385-1.487-.1-.524-.194-6.67-.216-12.064-.047-11.436.174-11.657.28-11.762l1.125-1.125a.234.234,0,0,1,.331.331l-1.093,1.093c-.135.538-.2,5.1-.173,11.721.026,5.823.122,11.3.206,11.715.108.541,1.167.912,1.785,1.066V10.724a.236.236,0,0,1,.141-.215v-.488H63.787V37.665H95.133ZM70.461,13.1a9.261,9.261,0,0,0-1,.949,8.376,8.376,0,0,0-.8,1.039,1.556,1.556,0,0,1,.405.022,2.092,2.092,0,0,1,.382.113,2.23,2.23,0,0,1,.484.247,1.343,1.343,0,0,1,.3.285.931.931,0,0,1,.157.323,1.414,1.414,0,0,1,.045.36,2.042,2.042,0,0,1-.075.7,2.933,2.933,0,0,1-.262.629,2.634,2.634,0,0,1-.379.518,2.209,2.209,0,0,1-.431.36,2,2,0,0,1-.307.142,1.427,1.427,0,0,1-.379.075,2.412,2.412,0,0,1-.484-.022,3.96,3.96,0,0,1-.608-.142,2.853,2.853,0,0,1-.562-.27,1.5,1.5,0,0,1-.379-.338,1.3,1.3,0,0,1-.217-.415,1.9,1.9,0,0,1-.079-.514,4.687,4.687,0,0,1,.075-.926,5.239,5.239,0,0,1,.356-1.173,7.1,7.1,0,0,1,.742-1.308,7.2,7.2,0,0,1,1.233-1.323c.06-.05.112-.092.158-.124a.559.559,0,0,1,.135-.072.443.443,0,0,1,.153-.017,1.684,1.684,0,0,1,.214.026c.08.015.169.037.266.063s.193.057.289.09.185.067.27.1.157.068.217.1a.482.482,0,0,1,.225.226c.025.074-.025.17-.15.284" transform="translate(-10.692 -1.68)" fill="#4aae51"/>
        <path id="Path_6541" data-name="Path 6541" d="M69.123,17.425a1.293,1.293,0,0,0-.266.191,1.5,1.5,0,0,0-.236.277,2.705,2.705,0,0,0-.158.8q0,.315.195.4a.468.468,0,0,0,.5-.075,1.616,1.616,0,0,0,.469-.615,1.777,1.777,0,0,0,.2-.659.356.356,0,0,0-.206-.39.476.476,0,0,0-.232-.018.819.819,0,0,0-.262.09" transform="translate(-11.476 -2.905)" fill="#4aae51"/>
        <path id="Path_6542" data-name="Path 6542" d="M101.54,10.489a.234.234,0,0,1,.234.234V36.774a.235.235,0,0,1-.234.235.244.244,0,0,1-.042,0l-.052-.01v.67h6.794V10.02h-6.794v.489a.232.232,0,0,1,.094-.02m2.9,5.107a.234.234,0,0,1,.234-.234h.937a.234.234,0,0,1,.234.234v5.624a.234.234,0,0,1-.234.234h-.937a.234.234,0,0,1-.234-.234Zm.7,11.011c1.025,0,1.827,1.255,1.827,2.858s-.8,2.858-1.827,2.858-1.827-1.256-1.827-2.858.8-2.858,1.827-2.858" transform="translate(-17.005 -1.68)" fill="#b0eeb2"/>
        <path id="Path_6543" data-name="Path 6543" d="M105.618,35.289c.737,0,1.359-1.095,1.359-2.39s-.623-2.39-1.359-2.39S104.26,31.6,104.26,32.9s.623,2.39,1.358,2.39m-.234-3.327a.234.234,0,0,1,.469,0v2.062a.234.234,0,0,1-.469,0Z" transform="translate(-17.477 -5.114)" fill="#38783d"/>
        <rect id="Rectangle_1942" data-name="Rectangle 1942" width="0.469" height="5.154" transform="translate(87.908 14.15)" fill="#38783d"/>
        <path id="Path_6544" data-name="Path 6544" d="M63.458,38.039h38.61a.234.234,0,0,0,.234-.235V9.692a.234.234,0,0,0-.234-.235H63.458a.234.234,0,0,0-.234.235V37.8a.234.234,0,0,0,.234.235m.235-28.113h38.14V37.57H63.693Z" transform="translate(-10.598 -1.585)"/>
        <path id="Path_6545" data-name="Path 6545" d="M105.283,22.528h.937a.234.234,0,0,0,.234-.234V16.672a.234.234,0,0,0-.234-.235h-.937a.234.234,0,0,0-.235.235v5.623a.234.234,0,0,0,.235.234m.234-5.623h.469V22.06h-.469Z" transform="translate(-17.609 -2.755)"/>
        <path id="Path_6546" data-name="Path 6546" d="M105.525,35.664c1.025,0,1.827-1.256,1.827-2.858s-.8-2.858-1.827-2.858S103.7,31.2,103.7,32.805s.8,2.858,1.827,2.858m0-5.248c.737,0,1.358,1.095,1.358,2.39s-.622,2.39-1.358,2.39-1.358-1.095-1.358-2.39.622-2.39,1.358-2.39" transform="translate(-17.383 -5.02)"/>
        <path id="Path_6547" data-name="Path 6547" d="M105.846,34.5a.234.234,0,0,0,.234-.235V32.209a.234.234,0,1,0-.468,0V34.27a.234.234,0,0,0,.234.235" transform="translate(-17.703 -5.36)"/>
        <path id="Path_6548" data-name="Path 6548" d="M101.014,37.1a.234.234,0,0,0,.234-.234V10.818a.234.234,0,0,0-.234-.235.238.238,0,0,0-.094.02.235.235,0,0,0-.141.215v25.76c-.618-.155-1.676-.525-1.785-1.067-.083-.417-.18-5.891-.206-11.715-.029-6.617.038-11.183.173-11.721l1.093-1.093a.234.234,0,1,0-.331-.331L98.6,11.776c-.106.107-.326.326-.28,11.764.022,5.394.111,11.539.216,12.064.2,1.007,2.005,1.412,2.385,1.487l.052.009a.227.227,0,0,0,.042,0" transform="translate(-16.48 -1.774)"/>
        <path id="Path_6549" data-name="Path 6549" d="M70.887,13.031c-.061-.03-.133-.062-.218-.1s-.175-.069-.27-.1-.191-.062-.289-.09-.186-.048-.266-.063a1.579,1.579,0,0,0-.214-.027.428.428,0,0,0-.154.018.53.53,0,0,0-.135.072c-.045.032-.1.074-.157.124A7.067,7.067,0,0,0,67.21,15.5a5.234,5.234,0,0,0-.356,1.174,4.682,4.682,0,0,0-.075.926,1.9,1.9,0,0,0,.078.514,1.3,1.3,0,0,0,.218.416,1.512,1.512,0,0,0,.378.337,2.815,2.815,0,0,0,.563.27,3.855,3.855,0,0,0,.607.142,2.355,2.355,0,0,0,.484.022,1.4,1.4,0,0,0,.379-.075,1.89,1.89,0,0,0,.307-.142,2.186,2.186,0,0,0,.431-.36A2.586,2.586,0,0,0,70.6,18.2a2.931,2.931,0,0,0,.262-.629,2.039,2.039,0,0,0,.076-.7,1.382,1.382,0,0,0-.046-.36.921.921,0,0,0-.157-.322,1.359,1.359,0,0,0-.3-.286,2.23,2.23,0,0,0-.484-.247,2.078,2.078,0,0,0-.383-.112,1.549,1.549,0,0,0-.4-.022,8.348,8.348,0,0,1,.8-1.038,9.185,9.185,0,0,1,1-.949q.187-.172.15-.285a.481.481,0,0,0-.225-.225m-1.552,3.538a.354.354,0,0,1,.206.39,1.8,1.8,0,0,1-.2.66,1.627,1.627,0,0,1-.469.614.467.467,0,0,1-.5.076q-.195-.084-.195-.4a2.737,2.737,0,0,1,.157-.8,1.5,1.5,0,0,1,.236-.277,1.287,1.287,0,0,1,.266-.191.842.842,0,0,1,.262-.091.486.486,0,0,1,.232.019" transform="translate(-11.194 -2.121)"/>
        <path id="Path_6550" data-name="Path 6550" d="M208.884,102.588V51.656a.234.234,0,0,1,.234-.234v-.469H190.457a.234.234,0,0,1-.234-.235h-1.018v51.869Z" transform="translate(-31.716 -8.502)" fill="#38783d"/>
        <path id="Path_6551" data-name="Path 6551" d="M187.336,75.318c-.33,0-.609.408-.609.891s.279.89.609.89.609-.408.609-.89-.279-.891-.609-.891" transform="translate(-31.3 -12.625)" fill="#b0eeb2"/>
        <path id="Path_6552" data-name="Path 6552" d="M187.336,84.325c-.33,0-.609.408-.609.891s.279.89.609.89.609-.408.609-.89-.279-.891-.609-.891" transform="translate(-31.3 -14.135)" fill="#b0eeb2"/>
        <path id="Path_6553" data-name="Path 6553" d="M187.336,80.047c-.33,0-.609.408-.609.891s.279.89.609.89.609-.408.609-.89-.279-.891-.609-.891" transform="translate(-31.3 -13.418)" fill="#b0eeb2"/>
        <path id="Path_6554" data-name="Path 6554" d="M213.362,51.7v50.932h6.56v-35.7h-5.534a.234.234,0,0,1,0-.469h5.534V51h-6.794v.469a.234.234,0,0,1,.234.234m2.765,20.429a.234.234,0,0,1,.234-.234h.937a.234.234,0,0,1,.234.234v5.623a.234.234,0,0,1-.234.235h-.937a.234.234,0,0,1-.234-.235Zm.7,11.011c1.025,0,1.827,1.255,1.827,2.858s-.8,2.858-1.827,2.858S215,87.6,215,86s.8-2.858,1.827-2.858m-3.186,9.371h5.41a.234.234,0,1,1,0,.469h-5.41a.234.234,0,0,1,0-.469" transform="translate(-35.726 -8.549)" fill="#b0eeb2"/>
        <rect id="Rectangle_1943" data-name="Rectangle 1943" width="0.469" height="5.154" transform="translate(180.869 63.817)" fill="#38783d"/>
        <path id="Path_6555" data-name="Path 6555" d="M217.3,94.958c.737,0,1.359-1.095,1.359-2.39s-.623-2.39-1.359-2.39-1.358,1.095-1.358,2.39.623,2.39,1.358,2.39m-.234-3.327a.234.234,0,0,1,.469,0v2.062a.234.234,0,0,1-.469,0Z" transform="translate(-36.198 -15.116)" fill="#38783d"/>
        <path id="Path_6556" data-name="Path 6556" d="M190.457,50.906h25.455V66.368h.094a.234.234,0,1,1,0,.469h-.094v35.7h-6.559v.141a.234.234,0,1,1-.469,0v-.141H189.2v.469h26.942a.234.234,0,0,0,.234-.234v-52.1a.234.234,0,0,0-.234-.235H190.457a.234.234,0,0,0,0,.469" transform="translate(-31.716 -8.455)"/>
        <path id="Path_6557" data-name="Path 6557" d="M213.7,101.344h5.41a.234.234,0,1,0,0-.469H213.7a.234.234,0,0,0,0,.469" transform="translate(-35.783 -16.909)"/>
        <path id="Path_6558" data-name="Path 6558" d="M214.361,69.811a.234.234,0,0,0,.234.234h5.628a.234.234,0,0,0,0-.469h-5.628a.234.234,0,0,0-.234.235" transform="translate(-35.933 -11.663)"/>
        <path id="Path_6559" data-name="Path 6559" d="M216.965,82.2h.937a.234.234,0,0,0,.234-.234V76.341a.234.234,0,0,0-.234-.235h-.937a.234.234,0,0,0-.234.235v5.623a.234.234,0,0,0,.234.234m.235-5.623h.469v5.154H217.2Z" transform="translate(-36.33 -12.757)"/>
        <path id="Path_6560" data-name="Path 6560" d="M180.736,46.929l-5.267,3.161v51.845l5.876,3.918a.234.234,0,0,1,.065.325l.457.3c-.056-1.112-.112-3.532-.175-8.884-.062-5.307-.117-12.783-.155-21.049-.033-7.207-.1-26.687,0-30.372l-.721.436a.234.234,0,0,1-.082.317m-3.061,6.459a3.047,3.047,0,0,1-.052-1.047,3.464,3.464,0,0,1,.191-.841,1.783,1.783,0,0,1,.342-.583.259.259,0,0,1,.37-.053,1.492,1.492,0,0,1,.4.49,3.6,3.6,0,0,1,.22.476,3.3,3.3,0,0,1,.151.52,3.155,3.155,0,0,1,.062.548,2.723,2.723,0,0,1-.041.552,2.1,2.1,0,0,1-.156.552,4.567,4.567,0,0,1-.262.494,2.9,2.9,0,0,1,.322.606,2.642,2.642,0,0,1,.151.593,2.7,2.7,0,0,1,.016.573,4.49,4.49,0,0,1-.082.563,1.5,1.5,0,0,1-.176.459.59.59,0,0,1-.234.225.413.413,0,0,1-.272.03.744.744,0,0,1-.29-.143,1.365,1.365,0,0,1-.444-.6,2.756,2.756,0,0,1-.2-.881,2.963,2.963,0,0,1,.006-.48,2.674,2.674,0,0,1,.074-.429,2.859,2.859,0,0,1,.128-.377c.051-.118.1-.232.161-.342a2.8,2.8,0,0,1-.388-.906m-.41.208c0,.331,0,.668.006,1.011s.006.678.011,1,.011.633.018.924.014.548.021.772a.415.415,0,0,1-.023.166c-.014.025-.048.019-.1-.018s-.1-.063-.148-.092a.665.665,0,0,1-.152-.139.575.575,0,0,1-.093-.2,1.973,1.973,0,0,1-.043-.314q-.022-.283-.049-.761t-.049-1.04q-.024-.562-.041-1.154t-.026-1.1q-.066-.079-.11-.137a.441.441,0,0,1-.066-.121.455.455,0,0,1-.027-.134,1.354,1.354,0,0,1,0-.187q.022-.266.062-.544t.077-.482c.013-.061.026-.108.037-.144a.183.183,0,0,1,.039-.075.054.054,0,0,1,.056-.013.278.278,0,0,1,.08.041,1.015,1.015,0,0,1,.187.17,2.149,2.149,0,0,1,.195.262.965.965,0,0,1,.124.248,1,1,0,0,1,.022.306q0,.358-.007.808c0,.3,0,.616,0,.946" transform="translate(-29.413 -7.74)" fill="#4aae51"/>
        <path id="Path_6561" data-name="Path 6561" d="M184.74,107.238V44.962c-.657.1-1.318.325-1.413.543-.08.708-.088,14.959-.017,30.662.082,17.809.227,29.8.374,30.809a2.347,2.347,0,0,0,1.056.261" transform="translate(-30.72 -7.537)" fill="#4aae51"/>
        <path id="Path_6562" data-name="Path 6562" d="M179.139,56.857a1.865,1.865,0,0,0-.188.444,2.666,2.666,0,0,0-.092.5,1.318,1.318,0,0,0,0,.236,1.051,1.051,0,0,0,.032.176.518.518,0,0,0,.049.127.265.265,0,0,0,.057.075c.053.042.108.025.166-.052a1,1,0,0,0,.134-.419,2.834,2.834,0,0,0,.027-.285,1.833,1.833,0,0,0-.009-.279,1.4,1.4,0,0,0-.057-.269,1.117,1.117,0,0,0-.117-.256" transform="translate(-29.981 -9.531)" fill="#4aae51"/>
        <path id="Path_6563" data-name="Path 6563" d="M178.947,54.937a2.874,2.874,0,0,0,.335-.935,1.172,1.172,0,0,0-.167-.777,2.566,2.566,0,0,0-.193.482,2.464,2.464,0,0,0-.088.467,1.745,1.745,0,0,0,.01.42,1.152,1.152,0,0,0,.1.343" transform="translate(-29.976 -8.922)" fill="#4aae51"/>
        <path id="Path_6564" data-name="Path 6564" d="M217.207,95.333c1.025,0,1.827-1.256,1.827-2.858s-.8-2.858-1.827-2.858-1.827,1.255-1.827,2.858.8,2.858,1.827,2.858m0-5.248c.737,0,1.358,1.095,1.358,2.39s-.622,2.39-1.358,2.39-1.358-1.095-1.358-2.39.622-2.39,1.358-2.39" transform="translate(-36.103 -15.022)"/>
        <path id="Path_6565" data-name="Path 6565" d="M217.528,94.173a.234.234,0,0,0,.234-.234V91.878a.234.234,0,1,0-.468,0v2.062a.234.234,0,0,0,.234.234" transform="translate(-36.424 -15.362)"/>
        <path id="Path_6566" data-name="Path 6566" d="M174.924,50.622a.352.352,0,0,1,.018-.04.352.352,0,0,0-.018.04" transform="translate(-29.322 -8.479)"/>
        <path id="Path_6567" data-name="Path 6567" d="M174.976,50.532a.257.257,0,0,1,.035-.032.253.253,0,0,0-.035.032" transform="translate(-29.331 -8.465)"/>
        <path id="Path_6568" data-name="Path 6568" d="M187.242,74.755a1.4,1.4,0,0,0,0,2.718,1.1,1.1,0,0,0,.984-.807,1.664,1.664,0,0,0,0-1.1,1.1,1.1,0,0,0-.984-.807m0,2.249c-.33,0-.609-.408-.609-.89s.279-.891.609-.891.609.408.609.891-.279.89-.609.89" transform="translate(-31.206 -12.531)"/>
        <path id="Path_6569" data-name="Path 6569" d="M187.242,79.484a1.4,1.4,0,0,0,0,2.718,1.1,1.1,0,0,0,.984-.807,1.664,1.664,0,0,0,0-1.1,1.1,1.1,0,0,0-.984-.807m0,2.249c-.33,0-.609-.408-.609-.891s.279-.89.609-.89.609.408.609.89-.279.891-.609.891" transform="translate(-31.206 -13.324)"/>
        <path id="Path_6570" data-name="Path 6570" d="M187.242,83.762a1.4,1.4,0,0,0,0,2.718,1.1,1.1,0,0,0,.984-.807,1.664,1.664,0,0,0,0-1.1,1.1,1.1,0,0,0-.984-.807m0,2.249c-.33,0-.609-.408-.609-.891s.279-.89.609-.89.609.408.609.89-.279.891-.609.891" transform="translate(-31.206 -14.041)"/>
        <path id="Path_6571" data-name="Path 6571" d="M213.081,103.1a.234.234,0,0,0,.235-.234V51.8a.234.234,0,1,0-.469,0V102.87a.234.234,0,0,0,.234.234" transform="translate(-35.679 -8.643)"/>
        <path id="Path_6572" data-name="Path 6572" d="M177.458,52.776a1,1,0,0,0-.022-.306.963.963,0,0,0-.124-.248,2.148,2.148,0,0,0-.194-.262,1.023,1.023,0,0,0-.188-.17.258.258,0,0,0-.08-.041.052.052,0,0,0-.055.013.173.173,0,0,0-.039.075c-.012.036-.023.083-.037.144q-.037.2-.077.482c-.027.186-.048.366-.062.544a1.346,1.346,0,0,0,0,.187.454.454,0,0,0,.027.134.464.464,0,0,0,.066.121c.03.039.067.085.111.137q.007.511.025,1.1t.041,1.154c.016.375.032.721.05,1.04s.033.572.048.761a1.869,1.869,0,0,0,.044.314.546.546,0,0,0,.093.2.649.649,0,0,0,.152.139c.048.029.1.06.148.092s.088.043.1.018a.45.45,0,0,0,.022-.166c-.007-.224-.014-.482-.022-.772s-.013-.6-.017-.924-.009-.661-.012-1,0-.68-.006-1.011,0-.646,0-.946,0-.569.007-.808" transform="translate(-29.599 -8.674)"/>
        <path id="Path_6573" data-name="Path 6573" d="M178.2,55.946a2.67,2.67,0,0,0-.075.429,2.967,2.967,0,0,0-.006.48,2.757,2.757,0,0,0,.2.881,1.357,1.357,0,0,0,.444.6.733.733,0,0,0,.29.143.412.412,0,0,0,.272-.029.6.6,0,0,0,.234-.225,1.5,1.5,0,0,0,.176-.46,4.455,4.455,0,0,0,.082-.562,2.7,2.7,0,0,0-.016-.573,2.639,2.639,0,0,0-.151-.593,2.877,2.877,0,0,0-.322-.606,4.573,4.573,0,0,0,.262-.494,2.1,2.1,0,0,0,.156-.552,2.723,2.723,0,0,0,.041-.552,3.147,3.147,0,0,0-.062-.548,3.369,3.369,0,0,0-.15-.52,3.72,3.72,0,0,0-.221-.476,1.492,1.492,0,0,0-.4-.49.259.259,0,0,0-.37.052,1.789,1.789,0,0,0-.342.584,3.507,3.507,0,0,0-.191.841,3.049,3.049,0,0,0,.052,1.047,2.8,2.8,0,0,0,.388.906q-.086.165-.161.341a2.648,2.648,0,0,0-.128.378m.981.856c0,.094-.013.19-.027.286a1.009,1.009,0,0,1-.134.42c-.057.077-.112.094-.166.052a.271.271,0,0,1-.057-.074.574.574,0,0,1-.05-.128,1.156,1.156,0,0,1-.031-.176,1.324,1.324,0,0,1,0-.237,2.68,2.68,0,0,1,.092-.5A1.9,1.9,0,0,1,179,56a1.107,1.107,0,0,1,.117.256,1.39,1.39,0,0,1,.057.269,1.82,1.82,0,0,1,.009.278m-.484-2.877a2.537,2.537,0,0,1,.088-.467,2.572,2.572,0,0,1,.194-.482,1.183,1.183,0,0,1,.167.777,2.9,2.9,0,0,1-.336.935,1.177,1.177,0,0,1-.1-.343,1.743,1.743,0,0,1-.01-.42" transform="translate(-29.843 -8.673)"/>
        <path id="Path_6574" data-name="Path 6574" d="M187.651,129.878a3.538,3.538,0,0,0-.623.48,1.785,1.785,0,0,0-.348.46.7.7,0,0,0-.082.413.551.551,0,0,0,.176.333,3.443,3.443,0,0,0,1.106-.929q.243-.4-.229-.757" transform="translate(-31.278 -21.771)" fill="#4aae51"/>
        <path id="Path_6575" data-name="Path 6575" d="M186.775,133.445a2.731,2.731,0,0,0-.6.443,1.9,1.9,0,0,0-.366.494.542.542,0,0,0-.061.232.43.43,0,0,0,.034.172.342.342,0,0,0,.093.124.412.412,0,0,0,.127.071.6.6,0,0,0,.439-.056,1.149,1.149,0,0,0,.454-.416,1.565,1.565,0,0,0,.141-.281.683.683,0,0,0,.049-.274.573.573,0,0,0-.074-.262.827.827,0,0,0-.236-.247" transform="translate(-31.136 -22.369)" fill="#4aae51"/>
        <path id="Path_6576" data-name="Path 6576" d="M204.431,175.234c-.1-.522-.193-12.9-.216-24.059-.047-23.432.166-23.644.28-23.758l1.125-1.124a.234.234,0,1,1,.331.331l-1.084,1.083c-.14.825-.211,10.091-.182,23.784.025,12.114.122,23.166.206,23.652.108.542,1.167.912,1.785,1.065v-49.75a.235.235,0,0,1,.141-.215v-.489H175.469V177.39h31.346v-.669c-.38-.075-2.183-.479-2.385-1.487M180.614,133.3c.22-.016.41-.025.569-.031a.589.589,0,0,1,.286.049.6.6,0,0,1,.21.191,1.857,1.857,0,0,1,.168.256,1.564,1.564,0,0,1,.117.255c.04.09.043.15.012.18a.45.45,0,0,1-.221.067q-.27.015-.626.052c-.238.025-.476.052-.716.082s-.47.062-.69.1-.4.067-.548.1a2.1,2.1,0,0,1-.27.033.7.7,0,0,1-.176-.012.4.4,0,0,1-.124-.044.682.682,0,0,1-.1-.075c-.045-.03-.095-.068-.15-.113s-.11-.092-.165-.142-.109-.1-.162-.153-.1-.1-.139-.146a.679.679,0,0,1-.093-.12.442.442,0,0,1-.057-.139.238.238,0,0,1,.012-.138.329.329,0,0,1,.116-.135,10.565,10.565,0,0,0,.832-.687q.435-.393.847-.809t.772-.829q.36-.412.607-.753a3.221,3.221,0,0,0,.349-.574c.067-.155.069-.255,0-.3a.253.253,0,0,0-.232-.026,1.2,1.2,0,0,0-.315.153,3.449,3.449,0,0,0-.367.281q-.2.169-.383.349a1.034,1.034,0,0,1-.315.157,1.419,1.419,0,0,1-.356.06,2.068,2.068,0,0,1-.371-.019,1.726,1.726,0,0,1-.352-.086.467.467,0,0,1-.161-.082.241.241,0,0,1-.082-.139.443.443,0,0,1,.019-.214,1.839,1.839,0,0,1,.135-.315,3.617,3.617,0,0,1,.885-1.008,2.588,2.588,0,0,1,1.147-.521,1.853,1.853,0,0,1,.693,0,2.291,2.291,0,0,1,.6.2,2.186,2.186,0,0,1,.807.7,1.6,1.6,0,0,1,.2.517,1.353,1.353,0,0,1,0,.491,1.946,1.946,0,0,1-.161.487,4.372,4.372,0,0,1-.281.5,5.278,5.278,0,0,1-.449.615q-.27.322-.589.645t-.671.622q-.352.3-.7.548a6.134,6.134,0,0,1,.638-.075m7.032-3.3a1.374,1.374,0,0,1-.247.544,2.034,2.034,0,0,1-.548.547,8.491,8.491,0,0,1-.8.5,2.469,2.469,0,0,1,.671.584,1.138,1.138,0,0,1,.236.578,1.094,1.094,0,0,1-.108.562,2.742,2.742,0,0,1-.356.555,1.956,1.956,0,0,1-.57.457,2.325,2.325,0,0,1-.659.229,2.783,2.783,0,0,1-.708.037,3.215,3.215,0,0,1-.708-.131,1.941,1.941,0,0,1-.986-.574,1.148,1.148,0,0,1-.288-.858,1.254,1.254,0,0,1,.138-.472,1.867,1.867,0,0,1,.3-.424,3.141,3.141,0,0,1,.427-.375c.16-.117.328-.231.5-.341a1.838,1.838,0,0,1-.762-.877,1.219,1.219,0,0,1,.139-1.027,2.833,2.833,0,0,1,.708-.832,3.775,3.775,0,0,1,1.031-.585,1.548,1.548,0,0,1,.963-.064,2.548,2.548,0,0,1,.911.469,2.666,2.666,0,0,1,.442.461,1.54,1.54,0,0,1,.251.506,1.176,1.176,0,0,1,.018.536" transform="translate(-29.413 -21.08)" fill="#4aae51"/>
        <path id="Path_6577" data-name="Path 6577" d="M214.154,141.453a.234.234,0,0,1,.235-.235h5.533V125.756h-6.794v.489a.233.233,0,0,1,.328.214v40.913a.23.23,0,0,1,.187-.1h5.411a.234.234,0,0,1,0,.469h-5.411a.229.229,0,0,1-.187-.1V176.5a.234.234,0,0,1-.234.234.247.247,0,0,1-.042,0l-.052-.01v.669h6.794v-35.7h-5.533a.234.234,0,0,1-.235-.234m1.973,5.435a.234.234,0,0,1,.234-.234h.937a.234.234,0,0,1,.234.234v5.623a.234.234,0,0,1-.234.235h-.937a.234.234,0,0,1-.234-.235Zm.7,11.011c1.025,0,1.827,1.255,1.827,2.858s-.8,2.858-1.827,2.858S215,162.36,215,160.757s.8-2.858,1.827-2.858" transform="translate(-35.726 -21.08)" fill="#b0eeb2"/>
        <rect id="Rectangle_1944" data-name="Rectangle 1944" width="0.469" height="5.154" transform="translate(180.869 126.041)" fill="#38783d"/>
        <path id="Path_6578" data-name="Path 6578" d="M217.3,169.714c.737,0,1.359-1.095,1.359-2.39s-.623-2.39-1.359-2.39-1.358,1.095-1.358,2.39.623,2.39,1.358,2.39m-.234-3.327a.234.234,0,1,1,.469,0v2.062a.234.234,0,0,1-.469,0Z" transform="translate(-36.198 -27.648)" fill="#38783d"/>
        <path id="Path_6579" data-name="Path 6579" d="M175.14,177.764h38.609a.234.234,0,0,0,.235-.234v-52.1a.234.234,0,0,0-.235-.235H175.14a.234.234,0,0,0-.234.235v52.1a.234.234,0,0,0,.234.234m38.7-36.406a.234.234,0,0,1-.234.234h-.094v35.7h-38.14V125.661h38.14v15.463h.094a.234.234,0,0,1,.234.234" transform="translate(-29.319 -20.986)"/>
        <path id="Path_6580" data-name="Path 6580" d="M213.709,176.1h5.41a.234.234,0,1,0,0-.469h-5.41a.231.231,0,0,0-.187.1V176a.231.231,0,0,0,.187.1" transform="translate(-35.792 -29.44)"/>
        <path id="Path_6581" data-name="Path 6581" d="M220.223,144.332H214.6a.234.234,0,1,0,0,.469h5.627a.234.234,0,0,0,0-.469" transform="translate(-35.933 -24.194)"/>
        <path id="Path_6582" data-name="Path 6582" d="M216.965,156.953h.937a.235.235,0,0,0,.234-.235V151.1a.234.234,0,0,0-.234-.234h-.937a.234.234,0,0,0-.234.234v5.623a.235.235,0,0,0,.234.235m.235-5.624h.469v5.154H217.2Z" transform="translate(-36.33 -25.289)"/>
        <path id="Path_6583" data-name="Path 6583" d="M217.207,170.089c1.025,0,1.827-1.256,1.827-2.858s-.8-2.858-1.827-2.858-1.827,1.255-1.827,2.858.8,2.858,1.827,2.858m0-5.248c.737,0,1.358,1.095,1.358,2.39s-.622,2.39-1.358,2.39-1.358-1.095-1.358-2.39.622-2.39,1.358-2.39" transform="translate(-36.103 -27.553)"/>
        <path id="Path_6584" data-name="Path 6584" d="M217.528,168.928a.234.234,0,0,0,.234-.235v-2.061a.234.234,0,1,0-.468,0v2.061a.234.234,0,0,0,.234.235" transform="translate(-36.424 -27.893)"/>
        <path id="Path_6585" data-name="Path 6585" d="M212.462,126.553V176.3c-.618-.154-1.676-.524-1.785-1.066-.085-.485-.181-11.538-.206-23.652-.028-13.693.043-22.959.183-23.783l1.083-1.084a.234.234,0,0,0-.331-.331l-1.125,1.125c-.114.114-.326.326-.279,23.758.022,11.165.111,23.537.215,24.059.2,1.008,2.005,1.413,2.386,1.487l.052.01a.242.242,0,0,0,.042,0,.234.234,0,0,0,.235-.235V126.553a.234.234,0,0,0-.235-.234.231.231,0,0,0-.093.02.234.234,0,0,0-.141.214" transform="translate(-35.201 -21.174)"/>
        <path id="Path_6586" data-name="Path 6586" d="M181.8,132.665q.318-.322.589-.645a5.3,5.3,0,0,0,.45-.614,4.429,4.429,0,0,0,.281-.5,1.95,1.95,0,0,0,.161-.488,1.353,1.353,0,0,0,0-.491,1.6,1.6,0,0,0-.2-.517,2.129,2.129,0,0,0-.326-.371,2.088,2.088,0,0,0-.479-.33,2.3,2.3,0,0,0-.6-.2,1.85,1.85,0,0,0-.693,0,2.6,2.6,0,0,0-1.147.521,3.633,3.633,0,0,0-.885,1.009,1.838,1.838,0,0,0-.135.315.44.44,0,0,0-.019.213.239.239,0,0,0,.083.139.463.463,0,0,0,.161.082,1.722,1.722,0,0,0,.353.087,2.056,2.056,0,0,0,.37.018,1.418,1.418,0,0,0,.356-.06,1.033,1.033,0,0,0,.315-.157c.125-.12.253-.236.383-.349a3.567,3.567,0,0,1,.367-.281,1.227,1.227,0,0,1,.315-.153.254.254,0,0,1,.233.026q.1.069,0,.3a3.251,3.251,0,0,1-.349.574q-.247.341-.607.753t-.772.828q-.412.416-.847.81a10.544,10.544,0,0,1-.832.686.335.335,0,0,0-.116.135.247.247,0,0,0-.012.139.456.456,0,0,0,.057.138.615.615,0,0,0,.094.12c.04.045.086.094.138.146s.107.1.161.154.11.1.165.142.1.082.15.112a.681.681,0,0,0,.1.075.428.428,0,0,0,.124.045.741.741,0,0,0,.176.012,2.134,2.134,0,0,0,.27-.034q.217-.045.547-.1c.22-.035.45-.067.69-.1s.479-.057.716-.082.446-.042.626-.052a.447.447,0,0,0,.221-.067c.032-.03.028-.09-.012-.18a1.526,1.526,0,0,0-.116-.256,1.8,1.8,0,0,0-.169-.255.6.6,0,0,0-.21-.191.578.578,0,0,0-.285-.048q-.241.007-.57.03a6.386,6.386,0,0,0-.638.075q.346-.247.7-.548t.671-.622" transform="translate(-29.869 -21.536)"/>
        <path id="Path_6587" data-name="Path 6587" d="M188.805,129.407a2.61,2.61,0,0,0-.443-.461,2.524,2.524,0,0,0-.911-.469,1.547,1.547,0,0,0-.963.063,3.772,3.772,0,0,0-1.031.585,2.824,2.824,0,0,0-.708.832,1.218,1.218,0,0,0-.139,1.027,1.837,1.837,0,0,0,.762.876c-.175.11-.343.224-.5.341a3.087,3.087,0,0,0-.427.375,1.862,1.862,0,0,0-.3.423,1.254,1.254,0,0,0-.138.473,1.148,1.148,0,0,0,.288.858,1.945,1.945,0,0,0,.986.574,3.212,3.212,0,0,0,.708.131,2.781,2.781,0,0,0,.708-.037,2.349,2.349,0,0,0,.659-.229,1.959,1.959,0,0,0,.57-.458,2.762,2.762,0,0,0,.356-.554,1.1,1.1,0,0,0,.108-.563,1.133,1.133,0,0,0-.236-.577,2.484,2.484,0,0,0-.671-.585,8.67,8.67,0,0,0,.8-.494,2.025,2.025,0,0,0,.548-.548,1.368,1.368,0,0,0,.247-.544,1.177,1.177,0,0,0-.018-.536,1.537,1.537,0,0,0-.251-.505m-2.062,3.98a1.571,1.571,0,0,1-.142.281,1.143,1.143,0,0,1-.454.416.6.6,0,0,1-.439.056.4.4,0,0,1-.127-.071.334.334,0,0,1-.094-.124.416.416,0,0,1-.033-.172.552.552,0,0,1,.06-.232,1.937,1.937,0,0,1,.367-.5,2.728,2.728,0,0,1,.6-.442.8.8,0,0,1,.236.247.565.565,0,0,1,.076.262.728.728,0,0,1-.049.274m.7-2.995a3.458,3.458,0,0,1-1.105.93.552.552,0,0,1-.176-.334.712.712,0,0,1,.082-.412,1.792,1.792,0,0,1,.349-.461,3.579,3.579,0,0,1,.622-.48q.473.361.229.757" transform="translate(-30.843 -21.528)"/>
        <path id="Path_6588" data-name="Path 6588" d="M187.651,55.123a3.538,3.538,0,0,0-.623.48,1.784,1.784,0,0,0-.348.46.7.7,0,0,0-.082.413.551.551,0,0,0,.176.333,3.443,3.443,0,0,0,1.106-.929q.243-.4-.229-.757" transform="translate(-31.278 -9.24)" fill="#4aae51"/>
        <path id="Path_6589" data-name="Path 6589" d="M186.775,58.69a2.732,2.732,0,0,0-.6.443,1.9,1.9,0,0,0-.366.494.542.542,0,0,0-.061.232.429.429,0,0,0,.034.172.342.342,0,0,0,.093.124.412.412,0,0,0,.127.071.6.6,0,0,0,.439-.056,1.148,1.148,0,0,0,.454-.416,1.566,1.566,0,0,0,.141-.281.683.683,0,0,0,.049-.274.573.573,0,0,0-.074-.262.827.827,0,0,0-.236-.247" transform="translate(-31.136 -9.838)" fill="#4aae51"/>
        <path id="Path_6590" data-name="Path 6590" d="M214.154,66.7a.234.234,0,0,1,.235-.235h5.533V51h-6.794v.489a.233.233,0,0,1,.328.214V92.615a.23.23,0,0,1,.187-.1h5.411a.234.234,0,0,1,0,.469h-5.411a.229.229,0,0,1-.187-.1v8.863a.234.234,0,0,1-.234.234.243.243,0,0,1-.042,0l-.052-.01v.669h6.794v-35.7h-5.533a.234.234,0,0,1-.235-.234m1.973,5.435a.234.234,0,0,1,.234-.235h.937a.234.234,0,0,1,.234.235v5.623a.234.234,0,0,1-.234.234h-.937a.234.234,0,0,1-.234-.234Zm.7,11.011c1.025,0,1.827,1.255,1.827,2.858s-.8,2.858-1.827,2.858S215,87.6,215,86s.8-2.858,1.827-2.858" transform="translate(-35.726 -8.549)" fill="#b0eeb2"/>
        <rect id="Rectangle_1945" data-name="Rectangle 1945" width="0.469" height="5.154" transform="translate(180.869 63.817)" fill="#38783d"/>
        <path id="Path_6591" data-name="Path 6591" d="M217.3,94.958c.737,0,1.359-1.095,1.359-2.39s-.623-2.39-1.359-2.39-1.358,1.095-1.358,2.39.623,2.39,1.358,2.39m-.234-3.327a.234.234,0,0,1,.469,0v2.062a.234.234,0,0,1-.469,0Z" transform="translate(-36.198 -15.116)" fill="#38783d"/>
        <path id="Path_6592" data-name="Path 6592" d="M175.14,103.009h38.609a.234.234,0,0,0,.235-.234v-52.1a.234.234,0,0,0-.235-.235H175.14a.234.234,0,0,0-.234.235v52.1a.234.234,0,0,0,.234.234m38.7-36.406a.234.234,0,0,1-.234.234h-.094v35.7h-38.14V50.906h38.14V66.369h.094a.234.234,0,0,1,.234.234" transform="translate(-29.319 -8.455)"/>
        <path id="Path_6593" data-name="Path 6593" d="M213.709,101.344h5.41a.234.234,0,1,0,0-.469h-5.41a.231.231,0,0,0-.187.1v.267a.231.231,0,0,0,.187.1" transform="translate(-35.792 -16.909)"/>
        <path id="Path_6594" data-name="Path 6594" d="M220.223,69.577H214.6a.234.234,0,1,0,0,.469h5.627a.234.234,0,0,0,0-.469" transform="translate(-35.933 -11.663)"/>
        <path id="Path_6595" data-name="Path 6595" d="M216.965,82.2h.937a.234.234,0,0,0,.234-.234V76.341a.234.234,0,0,0-.234-.234h-.937a.234.234,0,0,0-.234.234v5.623a.234.234,0,0,0,.234.234m.235-5.623h.469v5.154H217.2Z" transform="translate(-36.33 -12.758)"/>
        <path id="Path_6596" data-name="Path 6596" d="M217.207,95.333c1.025,0,1.827-1.256,1.827-2.858s-.8-2.858-1.827-2.858-1.827,1.255-1.827,2.858.8,2.858,1.827,2.858m0-5.248c.737,0,1.358,1.095,1.358,2.39s-.622,2.39-1.358,2.39-1.358-1.095-1.358-2.39.622-2.39,1.358-2.39" transform="translate(-36.103 -15.022)"/>
        <path id="Path_6597" data-name="Path 6597" d="M217.528,94.173a.234.234,0,0,0,.234-.234V91.878a.234.234,0,1,0-.468,0v2.062a.234.234,0,0,0,.234.234" transform="translate(-36.424 -15.362)"/>
        <path id="Path_6598" data-name="Path 6598" d="M212.462,51.8v49.751c-.618-.154-1.676-.524-1.785-1.066-.085-.485-.181-11.538-.206-23.652-.028-13.693.043-22.959.183-23.783l1.083-1.084a.234.234,0,0,0-.331-.331l-1.125,1.125c-.114.114-.326.326-.279,23.758.022,11.165.111,23.537.215,24.059.2,1.008,2.005,1.413,2.386,1.487l.052.01a.243.243,0,0,0,.042,0,.235.235,0,0,0,.235-.235V51.8a.234.234,0,0,0-.235-.234.231.231,0,0,0-.093.02.234.234,0,0,0-.141.214" transform="translate(-35.201 -8.643)"/>
        <path id="Path_6599" data-name="Path 6599" d="M181.8,57.91q.318-.322.589-.645a5.292,5.292,0,0,0,.45-.614,4.427,4.427,0,0,0,.281-.5,1.95,1.95,0,0,0,.161-.488,1.353,1.353,0,0,0,0-.491,1.6,1.6,0,0,0-.2-.517,2.13,2.13,0,0,0-.326-.371,2.089,2.089,0,0,0-.479-.33,2.307,2.307,0,0,0-.6-.2,1.851,1.851,0,0,0-.693,0,2.6,2.6,0,0,0-1.147.521,3.633,3.633,0,0,0-.885,1.009,1.838,1.838,0,0,0-.135.315.44.44,0,0,0-.019.213.239.239,0,0,0,.083.139.463.463,0,0,0,.161.082,1.725,1.725,0,0,0,.353.087,2.058,2.058,0,0,0,.37.018,1.419,1.419,0,0,0,.356-.06,1.034,1.034,0,0,0,.315-.157c.125-.12.253-.236.383-.349a3.565,3.565,0,0,1,.367-.281,1.228,1.228,0,0,1,.315-.153.254.254,0,0,1,.233.026c.065.046.063.146,0,.3a3.251,3.251,0,0,1-.349.574q-.247.341-.607.753t-.772.828q-.412.416-.847.81a10.555,10.555,0,0,1-.832.686.335.335,0,0,0-.116.135.247.247,0,0,0-.012.139.456.456,0,0,0,.057.138.615.615,0,0,0,.094.12c.04.045.086.094.138.146s.107.1.161.154.11.1.165.142.1.082.15.112a.68.68,0,0,0,.1.075.427.427,0,0,0,.124.045.742.742,0,0,0,.176.012,2.136,2.136,0,0,0,.27-.034q.217-.045.547-.1c.22-.035.45-.067.69-.1s.479-.057.716-.082.446-.042.626-.052a.446.446,0,0,0,.221-.067c.032-.03.028-.09-.012-.18a1.526,1.526,0,0,0-.116-.256,1.8,1.8,0,0,0-.169-.255.6.6,0,0,0-.21-.191.578.578,0,0,0-.285-.048q-.241.007-.57.03a6.391,6.391,0,0,0-.638.075q.346-.247.7-.548t.671-.622" transform="translate(-29.869 -9.005)"/>
        <path id="Path_6600" data-name="Path 6600" d="M188.805,54.652a2.611,2.611,0,0,0-.443-.461,2.525,2.525,0,0,0-.911-.469,1.548,1.548,0,0,0-.963.063,3.773,3.773,0,0,0-1.031.585,2.824,2.824,0,0,0-.708.832,1.218,1.218,0,0,0-.139,1.027,1.837,1.837,0,0,0,.762.876c-.175.11-.343.224-.5.341a3.089,3.089,0,0,0-.427.375,1.862,1.862,0,0,0-.3.423,1.254,1.254,0,0,0-.138.473,1.148,1.148,0,0,0,.288.858,1.945,1.945,0,0,0,.986.574,3.213,3.213,0,0,0,.708.131,2.782,2.782,0,0,0,.708-.037,2.35,2.35,0,0,0,.659-.229,1.959,1.959,0,0,0,.57-.458,2.761,2.761,0,0,0,.356-.554,1.1,1.1,0,0,0,.108-.563,1.133,1.133,0,0,0-.236-.577,2.484,2.484,0,0,0-.671-.585,8.665,8.665,0,0,0,.8-.494,2.024,2.024,0,0,0,.548-.548,1.368,1.368,0,0,0,.247-.544,1.177,1.177,0,0,0-.018-.536,1.536,1.536,0,0,0-.251-.505m-2.062,3.98a1.571,1.571,0,0,1-.142.281,1.143,1.143,0,0,1-.454.416.6.6,0,0,1-.439.056.4.4,0,0,1-.127-.071.334.334,0,0,1-.094-.124.416.416,0,0,1-.033-.172.552.552,0,0,1,.06-.232,1.938,1.938,0,0,1,.367-.5,2.729,2.729,0,0,1,.6-.442.8.8,0,0,1,.236.247.565.565,0,0,1,.076.262.729.729,0,0,1-.049.274m.7-2.995a3.458,3.458,0,0,1-1.105.93.552.552,0,0,1-.176-.334.712.712,0,0,1,.082-.412,1.792,1.792,0,0,1,.349-.461,3.579,3.579,0,0,1,.622-.48q.473.361.229.757" transform="translate(-30.843 -8.997)"/>
        <path id="Path_6601" data-name="Path 6601" d="M181.2,17.71a2.77,2.77,0,0,0-.6.442,1.924,1.924,0,0,0-.367.5.552.552,0,0,0-.06.232.417.417,0,0,0,.034.172.333.333,0,0,0,.093.124.4.4,0,0,0,.127.071.6.6,0,0,0,.439-.056,1.143,1.143,0,0,0,.454-.416,1.57,1.57,0,0,0,.142-.281.714.714,0,0,0,.049-.274.564.564,0,0,0-.075-.262.816.816,0,0,0-.236-.247" transform="translate(-30.202 -2.969)" fill="#4aae51"/>
        <path id="Path_6602" data-name="Path 6602" d="M206.815,37c-.38-.075-2.183-.479-2.385-1.487-.1-.524-.193-6.67-.216-12.064-.047-11.438.174-11.657.28-11.764l1.125-1.125a.234.234,0,1,1,.331.331l-1.093,1.094c-.135.537-.2,5.1-.173,11.721.026,5.823.122,11.3.206,11.714.108.542,1.167.912,1.785,1.067V10.723a.234.234,0,0,1,.14-.215V10.02H175.469V37.665h31.346Zm-23.81-22.73a1.373,1.373,0,0,1-.247.544,2.033,2.033,0,0,1-.548.547,8.485,8.485,0,0,1-.8.5,2.469,2.469,0,0,1,.671.584,1.147,1.147,0,0,1,.236.578,1.1,1.1,0,0,1-.109.562,2.742,2.742,0,0,1-.356.555,1.955,1.955,0,0,1-.57.457,2.324,2.324,0,0,1-.659.229,2.783,2.783,0,0,1-.708.037,3.215,3.215,0,0,1-.708-.132,1.94,1.94,0,0,1-.986-.574,1.148,1.148,0,0,1-.288-.858,1.269,1.269,0,0,1,.138-.472,1.866,1.866,0,0,1,.3-.424,3.136,3.136,0,0,1,.427-.375c.16-.118.327-.231.5-.341a1.835,1.835,0,0,1-.761-.877,1.215,1.215,0,0,1,.138-1.027,2.836,2.836,0,0,1,.708-.832,3.793,3.793,0,0,1,1.031-.584,1.548,1.548,0,0,1,.963-.064,2.538,2.538,0,0,1,.911.469,2.641,2.641,0,0,1,.443.461,1.541,1.541,0,0,1,.251.506,1.177,1.177,0,0,1,.018.536" transform="translate(-29.413 -1.68)" fill="#4aae51"/>
        <path id="Path_6603" data-name="Path 6603" d="M182.076,14.143a3.581,3.581,0,0,0-.623.479,1.8,1.8,0,0,0-.348.461.709.709,0,0,0-.083.413.554.554,0,0,0,.176.333A3.443,3.443,0,0,0,182.3,14.9q.243-.4-.229-.757" transform="translate(-30.343 -2.371)" fill="#4aae51"/>
        <path id="Path_6604" data-name="Path 6604" d="M213.222,10.489a.234.234,0,0,1,.234.234V36.774a.235.235,0,0,1-.234.235.244.244,0,0,1-.042,0l-.052-.01v.67h6.794V10.02h-6.794v.489a.235.235,0,0,1,.094-.02m2.9,5.107a.234.234,0,0,1,.234-.234h.937a.234.234,0,0,1,.234.234v5.624a.234.234,0,0,1-.234.234h-.937a.234.234,0,0,1-.234-.234Zm.7,11.011c1.025,0,1.827,1.255,1.827,2.858s-.8,2.858-1.827,2.858S215,31.067,215,29.465s.8-2.858,1.827-2.858" transform="translate(-35.726 -1.68)" fill="#b0eeb2"/>
        <path id="Path_6605" data-name="Path 6605" d="M217.3,35.289c.737,0,1.359-1.095,1.359-2.39s-.623-2.39-1.359-2.39-1.358,1.095-1.358,2.39.623,2.39,1.358,2.39m-.234-3.327a.234.234,0,0,1,.469,0v2.062a.234.234,0,0,1-.469,0Z" transform="translate(-36.198 -5.114)" fill="#38783d"/>
        <rect id="Rectangle_1946" data-name="Rectangle 1946" width="0.469" height="5.154" transform="translate(180.869 14.15)" fill="#38783d"/>
        <path id="Path_6606" data-name="Path 6606" d="M175.141,38.039H213.75a.234.234,0,0,0,.234-.235V9.692a.234.234,0,0,0-.234-.235H175.141a.234.234,0,0,0-.235.235V37.8a.234.234,0,0,0,.235.235m.234-28.113h38.14V37.57h-38.14Z" transform="translate(-29.319 -1.585)"/>
        <path id="Path_6607" data-name="Path 6607" d="M216.965,22.528h.937a.234.234,0,0,0,.234-.234V16.672a.234.234,0,0,0-.234-.235h-.937a.234.234,0,0,0-.234.235v5.623a.234.234,0,0,0,.234.234m.235-5.623h.469V22.06H217.2Z" transform="translate(-36.33 -2.755)"/>
        <path id="Path_6608" data-name="Path 6608" d="M217.207,35.664c1.025,0,1.827-1.256,1.827-2.858s-.8-2.858-1.827-2.858-1.827,1.255-1.827,2.858.8,2.858,1.827,2.858m0-5.248c.737,0,1.358,1.095,1.358,2.39s-.622,2.39-1.358,2.39-1.358-1.095-1.358-2.39.622-2.39,1.358-2.39" transform="translate(-36.103 -5.02)"/>
        <path id="Path_6609" data-name="Path 6609" d="M217.528,34.5a.234.234,0,0,0,.234-.235V32.209a.234.234,0,1,0-.468,0V34.27a.234.234,0,0,0,.234.235" transform="translate(-36.424 -5.36)"/>
        <path id="Path_6610" data-name="Path 6610" d="M212.7,37.1a.233.233,0,0,0,.234-.234V10.818a.234.234,0,0,0-.234-.235.238.238,0,0,0-.094.02.234.234,0,0,0-.14.215v25.76c-.618-.155-1.677-.525-1.785-1.067-.083-.417-.18-5.891-.206-11.715-.029-6.617.038-11.183.173-11.721l1.093-1.093a.234.234,0,1,0-.331-.331l-1.125,1.125c-.106.107-.326.326-.28,11.764.022,5.394.111,11.539.216,12.064.2,1.007,2.005,1.412,2.385,1.487l.052.009a.227.227,0,0,0,.042,0" transform="translate(-35.201 -1.774)"/>
        <path id="Path_6611" data-name="Path 6611" d="M183.23,13.672a2.641,2.641,0,0,0-.443-.461,2.538,2.538,0,0,0-.911-.469,1.547,1.547,0,0,0-.963.063,3.8,3.8,0,0,0-1.031.585,2.825,2.825,0,0,0-.708.832,1.215,1.215,0,0,0-.138,1.027,1.83,1.83,0,0,0,.761.876q-.263.165-.5.341a3.138,3.138,0,0,0-.427.375,1.886,1.886,0,0,0-.3.424,1.269,1.269,0,0,0-.138.473,1.148,1.148,0,0,0,.288.858,1.945,1.945,0,0,0,.986.574,3.215,3.215,0,0,0,.708.132,2.861,2.861,0,0,0,.708-.037,2.35,2.35,0,0,0,.659-.229,1.946,1.946,0,0,0,.57-.458,2.763,2.763,0,0,0,.356-.554,1.1,1.1,0,0,0,.109-.563,1.142,1.142,0,0,0-.236-.577,2.484,2.484,0,0,0-.671-.585,8.669,8.669,0,0,0,.8-.494,2.035,2.035,0,0,0,.548-.547,1.377,1.377,0,0,0,.247-.544,1.179,1.179,0,0,0-.018-.537,1.537,1.537,0,0,0-.251-.505m-2.062,3.98a1.568,1.568,0,0,1-.142.281,1.142,1.142,0,0,1-.454.416.6.6,0,0,1-.439.056.4.4,0,0,1-.127-.071.335.335,0,0,1-.094-.124.416.416,0,0,1-.033-.172.552.552,0,0,1,.06-.232,1.923,1.923,0,0,1,.367-.5,2.73,2.73,0,0,1,.6-.442.8.8,0,0,1,.236.247.576.576,0,0,1,.076.262.731.731,0,0,1-.049.274m.7-2.995a3.458,3.458,0,0,1-1.105.93.552.552,0,0,1-.176-.334.712.712,0,0,1,.082-.412,1.792,1.792,0,0,1,.349-.461,3.578,3.578,0,0,1,.622-.48q.473.36.229.757" transform="translate(-29.908 -2.128)"/>
        <path id="Path_6612" data-name="Path 6612" d="M239.978,55.246a.327.327,0,0,0-.27.03,1.06,1.06,0,0,0-.285.232,2.135,2.135,0,0,0-.266.371,3.178,3.178,0,0,0-.214.446,2.9,2.9,0,0,0-.1.412,1.45,1.45,0,0,0-.019.368.673.673,0,0,0,.082.281.321.321,0,0,0,.195.154.569.569,0,0,0,.6-.18,6.129,6.129,0,0,0,.315-.757,3.812,3.812,0,0,0,.162-.641,1.2,1.2,0,0,0-.007-.469.339.339,0,0,0-.191-.247" transform="translate(-40.032 -9.258)" fill="#4aae51"/>
        <path id="Path_6613" data-name="Path 6613" d="M259.371,100.479c-.1-.522-.193-12.9-.216-24.059-.047-23.432.166-23.644.28-23.758l1.125-1.125a.234.234,0,1,1,.331.331l-1.084,1.083c-.14.825-.211,10.09-.182,23.783.026,12.114.121,23.167.206,23.653.108.541,1.167.912,1.785,1.065V51.7a.234.234,0,0,1,.14-.215V51H230.409v51.635h31.346v-.67c-.38-.075-2.183-.479-2.385-1.487m-23.622-46.2c-.07.235-.146.5-.229.794s-.165.605-.247.93-.165.656-.247.994-.16.666-.232.986-.137.623-.195.907-.107.537-.146.757a.272.272,0,0,1-.1.165.4.4,0,0,1-.258-.015c-.121-.031-.239-.059-.356-.087a1.63,1.63,0,0,1-.356-.132.41.41,0,0,1-.187-.195.7.7,0,0,1-.03-.307q.015-.277.071-.746t.143-1.02c.057-.368.122-.745.195-1.132s.146-.748.221-1.084c-.1-.05-.182-.093-.247-.131a.41.41,0,0,1-.138-.117.185.185,0,0,1-.034-.131.618.618,0,0,1,.06-.184,5.594,5.594,0,0,1,.3-.536q.172-.273.323-.476a1.494,1.494,0,0,1,.131-.142.319.319,0,0,1,.266-.09,1.193,1.193,0,0,1,.195.037,2.569,2.569,0,0,1,.439.161,3.188,3.188,0,0,1,.431.251.742.742,0,0,1,.255.24.383.383,0,0,1-.022.3m4.491,2.058a6.17,6.17,0,0,1-.626,1.249,8.177,8.177,0,0,1-.933,1.184,5.7,5.7,0,0,1-1.139.936,1.212,1.212,0,0,1-.289.136.5.5,0,0,1-.326-.045c-.12-.051-.226-.094-.319-.132a1.911,1.911,0,0,1-.311-.169.939.939,0,0,1-.1-.086.226.226,0,0,1-.057-.087.123.123,0,0,1,.008-.093.315.315,0,0,1,.106-.109,8.009,8.009,0,0,0,1.349-1.342,2.019,2.019,0,0,0-.211-.034.911.911,0,0,1-.21-.048,2.04,2.04,0,0,1-.858-.465,1.4,1.4,0,0,1-.371-.719,2.384,2.384,0,0,1-.071-.814,3.08,3.08,0,0,1,.18-.821,3.343,3.343,0,0,1,.379-.738,2.378,2.378,0,0,1,.517-.559,2.546,2.546,0,0,1,.345-.2,1.645,1.645,0,0,1,.435-.135,1.925,1.925,0,0,1,.539-.007,2.715,2.715,0,0,1,.668.176,5.016,5.016,0,0,1,.637.33,2.118,2.118,0,0,1,.469.386,1.556,1.556,0,0,1,.293.472,1.863,1.863,0,0,1,.116.6,3.249,3.249,0,0,1-.217,1.136" transform="translate(-38.623 -8.549)" fill="#4aae51"/>
        <path id="Path_6614" data-name="Path 6614" d="M269.1,66.7a.234.234,0,0,1,.235-.235h5.533V51h-6.794v.489a.231.231,0,0,1,.093-.02.234.234,0,0,1,.235.234V92.615a.23.23,0,0,1,.187-.1h5.41a.234.234,0,1,1,0,.469h-5.41a.229.229,0,0,1-.187-.1v8.863a.234.234,0,0,1-.235.234.239.239,0,0,1-.042,0l-.052-.01v.669h6.794v-35.7H269.33a.234.234,0,0,1-.235-.234m1.973,5.435a.234.234,0,0,1,.234-.235h.937a.234.234,0,0,1,.234.235v5.623a.234.234,0,0,1-.234.234H271.3a.234.234,0,0,1-.234-.234Zm.7,11.011c1.025,0,1.827,1.255,1.827,2.858s-.8,2.858-1.827,2.858S269.944,87.6,269.944,86s.8-2.858,1.827-2.858" transform="translate(-44.936 -8.549)" fill="#b0eeb2"/>
        <rect id="Rectangle_1947" data-name="Rectangle 1947" width="0.469" height="5.154" transform="translate(226.6 63.817)" fill="#38783d"/>
        <path id="Path_6615" data-name="Path 6615" d="M272.241,94.958c.737,0,1.359-1.095,1.359-2.39s-.623-2.39-1.359-2.39-1.358,1.095-1.358,2.39.623,2.39,1.358,2.39m-.234-3.327a.234.234,0,0,1,.469,0v2.062a.234.234,0,0,1-.469,0Z" transform="translate(-45.407 -15.116)" fill="#38783d"/>
        <path id="Path_6616" data-name="Path 6616" d="M230.081,103.009h38.61a.234.234,0,0,0,.234-.234v-52.1a.234.234,0,0,0-.234-.235h-38.61a.234.234,0,0,0-.234.235v52.1a.234.234,0,0,0,.234.234m38.7-36.406a.234.234,0,0,1-.234.234h-.094v35.7h-38.14V50.906h38.14V66.368h.094a.234.234,0,0,1,.234.235" transform="translate(-38.529 -8.455)"/>
        <path id="Path_6617" data-name="Path 6617" d="M268.65,101.344h5.41a.234.234,0,1,0,0-.469h-5.41a.23.23,0,0,0-.187.1v.267a.23.23,0,0,0,.187.1" transform="translate(-45.002 -16.909)"/>
        <path id="Path_6618" data-name="Path 6618" d="M275.163,69.577h-5.627a.234.234,0,1,0,0,.469h5.627a.234.234,0,0,0,0-.469" transform="translate(-45.142 -11.663)"/>
        <path id="Path_6619" data-name="Path 6619" d="M271.906,82.2h.936a.234.234,0,0,0,.235-.234V76.341a.234.234,0,0,0-.235-.235h-.936a.234.234,0,0,0-.235.235v5.623a.234.234,0,0,0,.235.234m.234-5.623h.469v5.154h-.469Z" transform="translate(-45.539 -12.757)"/>
        <path id="Path_6620" data-name="Path 6620" d="M272.148,95.333c1.025,0,1.827-1.256,1.827-2.858s-.8-2.858-1.827-2.858-1.827,1.255-1.827,2.858.8,2.858,1.827,2.858m0-5.248c.737,0,1.358,1.095,1.358,2.39s-.622,2.39-1.358,2.39-1.358-1.095-1.358-2.39.622-2.39,1.358-2.39" transform="translate(-45.313 -15.022)"/>
        <path id="Path_6621" data-name="Path 6621" d="M272.469,94.173a.234.234,0,0,0,.234-.234V91.878a.234.234,0,1,0-.468,0v2.062a.234.234,0,0,0,.234.234" transform="translate(-45.634 -15.362)"/>
        <path id="Path_6622" data-name="Path 6622" d="M267.4,51.8v49.751c-.618-.154-1.676-.524-1.785-1.066-.084-.485-.181-11.538-.206-23.652-.028-13.693.043-22.959.183-23.783l1.083-1.084a.234.234,0,0,0-.331-.331l-1.125,1.125c-.114.114-.326.326-.279,23.758.022,11.164.111,23.537.215,24.059.2,1.008,2.005,1.413,2.386,1.487l.052.01a.242.242,0,0,0,.042,0,.235.235,0,0,0,.235-.235V51.8a.234.234,0,0,0-.235-.234.218.218,0,0,0-.093.02.234.234,0,0,0-.141.214" transform="translate(-44.411 -8.643)"/>
        <path id="Path_6623" data-name="Path 6623" d="M236.07,54.194a3.1,3.1,0,0,0-.431-.251,2.567,2.567,0,0,0-.439-.161,1.192,1.192,0,0,0-.195-.037.319.319,0,0,0-.266.09,1.49,1.49,0,0,0-.131.142c-.1.135-.208.294-.323.476a5.594,5.594,0,0,0-.3.536.613.613,0,0,0-.06.183.191.191,0,0,0,.034.132.409.409,0,0,0,.138.117c.065.037.147.081.247.131-.075.335-.148.7-.221,1.084s-.138.764-.195,1.132-.106.707-.142,1.02-.062.561-.072.746a.7.7,0,0,0,.03.307.41.41,0,0,0,.187.195,1.629,1.629,0,0,0,.356.132c.117.027.236.056.356.086a.393.393,0,0,0,.259.015.275.275,0,0,0,.1-.165c.04-.22.088-.472.147-.757s.122-.588.195-.907.15-.648.232-.986.165-.668.247-.993.166-.634.247-.93.159-.559.229-.795a.381.381,0,0,0,.022-.3.742.742,0,0,0-.255-.24" transform="translate(-39.177 -9.009)"/>
        <path id="Path_6624" data-name="Path 6624" d="M241.148,54.575a2.138,2.138,0,0,0-.469-.386,5.011,5.011,0,0,0-.637-.33,2.723,2.723,0,0,0-.668-.176,1.925,1.925,0,0,0-.539.007,1.635,1.635,0,0,0-.435.135,2.543,2.543,0,0,0-.345.2,2.376,2.376,0,0,0-.517.559,3.344,3.344,0,0,0-.379.738,3.081,3.081,0,0,0-.181.821,2.384,2.384,0,0,0,.072.814,1.4,1.4,0,0,0,.371.719,2.04,2.04,0,0,0,.858.465.91.91,0,0,0,.21.048,2.037,2.037,0,0,1,.21.034,7.949,7.949,0,0,1-1.349,1.342.319.319,0,0,0-.1.109.122.122,0,0,0-.007.093.225.225,0,0,0,.057.087.933.933,0,0,0,.1.086,1.873,1.873,0,0,0,.311.169c.092.037.2.081.319.132a.5.5,0,0,0,.326.045,1.208,1.208,0,0,0,.288-.136,5.658,5.658,0,0,0,1.14-.936,8.18,8.18,0,0,0,.934-1.184,6.164,6.164,0,0,0,.626-1.249,3.251,3.251,0,0,0,.217-1.136,1.862,1.862,0,0,0-.117-.6,1.551,1.551,0,0,0-.292-.472M239.866,55.7a3.813,3.813,0,0,1-.162.641,6.183,6.183,0,0,1-.315.757.568.568,0,0,1-.6.18.323.323,0,0,1-.2-.154.673.673,0,0,1-.082-.281,1.452,1.452,0,0,1,.019-.367,2.906,2.906,0,0,1,.1-.412,3.19,3.19,0,0,1,.214-.446,2.179,2.179,0,0,1,.266-.371,1.059,1.059,0,0,1,.285-.232.327.327,0,0,1,.27-.03.339.339,0,0,1,.191.247,1.2,1.2,0,0,1,.008.469" transform="translate(-39.723 -8.996)"/>
        <path id="Path_6625" data-name="Path 6625" d="M259.371,175.234c-.1-.522-.193-12.9-.215-24.059-.047-23.432.165-23.644.279-23.758l1.125-1.124a.234.234,0,1,1,.331.331l-1.083,1.083c-.14.825-.211,10.091-.183,23.784.026,12.114.122,23.166.206,23.652.108.542,1.167.912,1.785,1.065v-49.75a.235.235,0,0,1,.141-.215v-.489H230.41V177.39h31.346v-.669c-.38-.075-2.184-.479-2.386-1.487m-17.392-44.147a6.17,6.17,0,0,1-.626,1.249,8.183,8.183,0,0,1-.933,1.184,5.738,5.738,0,0,1-1.14.937,1.207,1.207,0,0,1-.289.135.5.5,0,0,1-.326-.045l-.319-.132a1.909,1.909,0,0,1-.311-.169.936.936,0,0,1-.1-.086.225.225,0,0,1-.057-.087.125.125,0,0,1,.007-.094.322.322,0,0,1,.106-.108,8.009,8.009,0,0,0,1.349-1.342,2.023,2.023,0,0,0-.211-.034.91.91,0,0,1-.21-.048,2.041,2.041,0,0,1-.858-.465,1.4,1.4,0,0,1-.371-.719,2.383,2.383,0,0,1-.071-.814c0-.017,0-.034.006-.052-.008.017-.013.035-.021.052a4.377,4.377,0,0,1-.281.5,5.276,5.276,0,0,1-.449.615q-.271.322-.588.645c-.213.215-.436.422-.672.622s-.467.382-.7.548a6.12,6.12,0,0,1,.637-.075c.221-.016.41-.025.57-.031a.587.587,0,0,1,.285.049.6.6,0,0,1,.21.191,1.861,1.861,0,0,1,.169.256,1.569,1.569,0,0,1,.116.255c.04.09.043.15.011.18a.447.447,0,0,1-.221.067q-.27.015-.626.052c-.237.025-.475.052-.716.082s-.469.062-.689.1-.4.067-.548.1a2.1,2.1,0,0,1-.27.033.7.7,0,0,1-.176-.012.413.413,0,0,1-.124-.044.676.676,0,0,1-.1-.075,1.818,1.818,0,0,1-.151-.113q-.082-.067-.165-.142c-.055-.05-.108-.1-.161-.153s-.1-.1-.139-.146a.649.649,0,0,1-.094-.12.439.439,0,0,1-.056-.139.237.237,0,0,1,.011-.138.331.331,0,0,1,.117-.135q.4-.293.832-.687t.846-.809q.413-.417.772-.829t.608-.753a3.207,3.207,0,0,0,.348-.574c.067-.155.069-.255,0-.3a.253.253,0,0,0-.232-.026,1.219,1.219,0,0,0-.316.153,3.454,3.454,0,0,0-.367.281q-.195.169-.382.349a1.034,1.034,0,0,1-.315.157,1.426,1.426,0,0,1-.356.06,2.068,2.068,0,0,1-.371-.019,1.728,1.728,0,0,1-.352-.086.46.46,0,0,1-.161-.082.241.241,0,0,1-.082-.139.442.442,0,0,1,.018-.214,1.842,1.842,0,0,1,.135-.315,3.643,3.643,0,0,1,.885-1.008,2.592,2.592,0,0,1,1.147-.521,1.853,1.853,0,0,1,.693,0,2.287,2.287,0,0,1,.6.2,2.191,2.191,0,0,1,.806.7,1.6,1.6,0,0,1,.2.517,1.329,1.329,0,0,1,.021.2c0-.013.008-.027.013-.041a3.378,3.378,0,0,1,.379-.738,2.376,2.376,0,0,1,.517-.559,2.538,2.538,0,0,1,.345-.2,1.644,1.644,0,0,1,.435-.135,1.924,1.924,0,0,1,.539-.008,2.715,2.715,0,0,1,.668.176,5.019,5.019,0,0,1,.637.33,2.119,2.119,0,0,1,.469.386,1.554,1.554,0,0,1,.293.472,1.864,1.864,0,0,1,.116.6,3.251,3.251,0,0,1-.217,1.136" transform="translate(-38.623 -21.08)" fill="#4aae51"/>
        <path id="Path_6626" data-name="Path 6626" d="M242.067,130a.327.327,0,0,0-.27.03,1.058,1.058,0,0,0-.285.232,2.135,2.135,0,0,0-.266.371,3.2,3.2,0,0,0-.214.446,2.9,2.9,0,0,0-.1.412,1.418,1.418,0,0,0-.019.368.674.674,0,0,0,.082.28.321.321,0,0,0,.195.154.57.57,0,0,0,.6-.18,6.138,6.138,0,0,0,.315-.757,3.816,3.816,0,0,0,.161-.641,1.2,1.2,0,0,0-.007-.469.339.339,0,0,0-.191-.247" transform="translate(-40.383 -21.789)" fill="#4aae51"/>
        <path id="Path_6627" data-name="Path 6627" d="M269.1,141.453a.234.234,0,0,1,.235-.235h5.533V125.756h-6.794v.489a.231.231,0,0,1,.093-.02.234.234,0,0,1,.235.234v40.913a.23.23,0,0,1,.187-.1h5.41a.234.234,0,1,1,0,.469h-5.41a.229.229,0,0,1-.187-.1V176.5a.234.234,0,0,1-.235.234.244.244,0,0,1-.042,0l-.052-.01v.669h6.794v-35.7H269.33a.234.234,0,0,1-.235-.234m1.973,5.435a.234.234,0,0,1,.234-.234h.937a.234.234,0,0,1,.234.234v5.623a.234.234,0,0,1-.234.235H271.3a.234.234,0,0,1-.234-.235Zm.7,11.011c1.025,0,1.827,1.255,1.827,2.858s-.8,2.858-1.827,2.858-1.827-1.256-1.827-2.858.8-2.858,1.827-2.858" transform="translate(-44.936 -21.08)" fill="#b0eeb2"/>
        <rect id="Rectangle_1948" data-name="Rectangle 1948" width="0.469" height="5.154" transform="translate(226.6 126.041)" fill="#38783d"/>
        <path id="Path_6628" data-name="Path 6628" d="M272.241,169.714c.737,0,1.359-1.095,1.359-2.39s-.623-2.39-1.359-2.39-1.358,1.095-1.358,2.39.623,2.39,1.358,2.39m-.234-3.327a.234.234,0,1,1,.469,0v2.062a.234.234,0,0,1-.469,0Z" transform="translate(-45.407 -27.648)" fill="#38783d"/>
        <path id="Path_6629" data-name="Path 6629" d="M230.081,177.764h38.61a.234.234,0,0,0,.234-.234v-52.1a.234.234,0,0,0-.234-.235h-38.61a.234.234,0,0,0-.234.235v52.1a.234.234,0,0,0,.234.234m38.7-36.406a.234.234,0,0,1-.234.234h-.094v35.7h-38.14V125.661h38.14v15.463h.094a.234.234,0,0,1,.234.234" transform="translate(-38.529 -20.986)"/>
        <path id="Path_6630" data-name="Path 6630" d="M268.65,176.1h5.41a.234.234,0,1,0,0-.469h-5.41a.23.23,0,0,0-.187.1V176a.23.23,0,0,0,.187.1" transform="translate(-45.002 -29.44)"/>
        <path id="Path_6631" data-name="Path 6631" d="M275.163,144.332h-5.627a.234.234,0,1,0,0,.469h5.627a.234.234,0,0,0,0-.469" transform="translate(-45.142 -24.194)"/>
        <path id="Path_6632" data-name="Path 6632" d="M271.906,156.953h.936a.235.235,0,0,0,.235-.235V151.1a.234.234,0,0,0-.235-.234h-.936a.234.234,0,0,0-.235.234v5.623a.235.235,0,0,0,.235.235m.234-5.624h.469v5.154h-.469Z" transform="translate(-45.539 -25.289)"/>
        <path id="Path_6633" data-name="Path 6633" d="M272.148,170.089c1.025,0,1.827-1.256,1.827-2.858s-.8-2.858-1.827-2.858-1.827,1.255-1.827,2.858.8,2.858,1.827,2.858m0-5.248c.737,0,1.358,1.095,1.358,2.39s-.622,2.39-1.358,2.39-1.358-1.095-1.358-2.39.622-2.39,1.358-2.39" transform="translate(-45.313 -27.553)"/>
        <path id="Path_6634" data-name="Path 6634" d="M272.469,168.928a.234.234,0,0,0,.234-.235v-2.061a.234.234,0,1,0-.468,0v2.061a.234.234,0,0,0,.234.235" transform="translate(-45.634 -27.893)"/>
        <path id="Path_6635" data-name="Path 6635" d="M267.4,126.553V176.3c-.618-.154-1.676-.524-1.785-1.066-.084-.485-.181-11.538-.206-23.652-.028-13.693.043-22.959.183-23.783l1.083-1.084a.234.234,0,0,0-.331-.331l-1.125,1.125c-.114.114-.326.326-.279,23.758.022,11.165.111,23.537.215,24.059.2,1.008,2.005,1.413,2.386,1.487l.052.01a.24.24,0,0,0,.042,0,.234.234,0,0,0,.235-.235V126.553a.234.234,0,0,0-.235-.234.236.236,0,0,0-.234.234" transform="translate(-44.411 -21.174)"/>
        <path id="Path_6636" data-name="Path 6636" d="M238.221,129.928a1.605,1.605,0,0,0-.2-.517,2.192,2.192,0,0,0-.806-.7,2.306,2.306,0,0,0-.6-.2,1.852,1.852,0,0,0-.693,0,2.587,2.587,0,0,0-1.147.521,3.631,3.631,0,0,0-.885,1.008,1.843,1.843,0,0,0-.135.315.444.444,0,0,0-.019.214.237.237,0,0,0,.083.139.465.465,0,0,0,.161.082,1.724,1.724,0,0,0,.353.086,2.056,2.056,0,0,0,.37.019,1.421,1.421,0,0,0,.356-.06,1.033,1.033,0,0,0,.315-.157c.125-.12.253-.236.383-.349a3.453,3.453,0,0,1,.367-.281,1.2,1.2,0,0,1,.315-.153.252.252,0,0,1,.232.026c.066.045.064.145,0,.3a3.221,3.221,0,0,1-.349.573q-.247.342-.607.753t-.772.829q-.412.416-.847.809a10.576,10.576,0,0,1-.832.687.335.335,0,0,0-.116.135.238.238,0,0,0-.012.138.441.441,0,0,0,.057.139.675.675,0,0,0,.093.12c.041.045.087.094.139.147s.107.1.161.153.11.1.165.142.1.083.15.113a.744.744,0,0,0,.1.075.4.4,0,0,0,.124.044.7.7,0,0,0,.176.012,2.117,2.117,0,0,0,.271-.033q.217-.046.547-.1t.69-.1q.36-.045.716-.082t.626-.052a.447.447,0,0,0,.221-.067c.032-.03.028-.09-.012-.18a1.558,1.558,0,0,0-.116-.255,1.861,1.861,0,0,0-.169-.256.6.6,0,0,0-.21-.191.587.587,0,0,0-.285-.049c-.161.006-.35.015-.57.031a5.941,5.941,0,0,0-.638.075q.346-.248.7-.548t.671-.622q.318-.323.588-.645a5.272,5.272,0,0,0,.449-.615,4.315,4.315,0,0,0,.281-.5c.008-.017.013-.034.021-.052a3.06,3.06,0,0,1,.161-.728,1.467,1.467,0,0,0-.02-.2" transform="translate(-39.078 -21.536)"/>
        <path id="Path_6637" data-name="Path 6637" d="M243.238,129.331a2.137,2.137,0,0,0-.469-.386,5.021,5.021,0,0,0-.637-.33,2.726,2.726,0,0,0-.668-.176,1.925,1.925,0,0,0-.539.008,1.634,1.634,0,0,0-.435.135,2.54,2.54,0,0,0-.345.2,2.38,2.38,0,0,0-.518.559,3.376,3.376,0,0,0-.378.738c0,.013-.009.027-.014.041a3.105,3.105,0,0,0-.161.728c0,.018,0,.034-.006.052a2.377,2.377,0,0,0,.072.813,1.4,1.4,0,0,0,.371.72,2.058,2.058,0,0,0,.858.465.907.907,0,0,0,.21.048,2.047,2.047,0,0,1,.21.034,7.977,7.977,0,0,1-1.349,1.342.326.326,0,0,0-.1.108.125.125,0,0,0-.007.094.225.225,0,0,0,.057.087.936.936,0,0,0,.1.086,1.874,1.874,0,0,0,.311.169l.319.131a.5.5,0,0,0,.326.045,1.171,1.171,0,0,0,.288-.135,5.655,5.655,0,0,0,1.14-.936,8.146,8.146,0,0,0,.934-1.185,6.143,6.143,0,0,0,.626-1.248,3.251,3.251,0,0,0,.217-1.136,1.859,1.859,0,0,0-.117-.6,1.552,1.552,0,0,0-.292-.472m-1.282,1.125a3.812,3.812,0,0,1-.161.641,6.185,6.185,0,0,1-.315.757.568.568,0,0,1-.6.18.323.323,0,0,1-.2-.154.678.678,0,0,1-.082-.281,1.451,1.451,0,0,1,.019-.367,2.908,2.908,0,0,1,.1-.412,3.188,3.188,0,0,1,.214-.446A2.177,2.177,0,0,1,241.2,130a1.059,1.059,0,0,1,.285-.232.327.327,0,0,1,.27-.03.339.339,0,0,1,.191.247,1.2,1.2,0,0,1,.008.469" transform="translate(-40.073 -21.527)"/>
        <path id="Path_6638" data-name="Path 6638" d="M261.756,37c-.38-.075-2.183-.479-2.386-1.487-.1-.524-.193-6.67-.215-12.064-.047-11.438.173-11.657.279-11.764l1.125-1.125a.234.234,0,1,1,.331.331L259.8,11.982c-.134.537-.2,5.1-.172,11.721.026,5.823.122,11.3.2,11.714.109.542,1.168.912,1.785,1.067V10.723a.235.235,0,0,1,.141-.215V10.02H230.41V37.665h31.346ZM237.339,15.352a6.169,6.169,0,0,1-.626,1.249,8.176,8.176,0,0,1-.933,1.184,5.7,5.7,0,0,1-1.139.936,1.212,1.212,0,0,1-.289.136.507.507,0,0,1-.326-.046l-.319-.131a1.871,1.871,0,0,1-.31-.169.877.877,0,0,1-.1-.086.225.225,0,0,1-.057-.087.129.129,0,0,1,.007-.094.322.322,0,0,1,.106-.108A8.008,8.008,0,0,0,234.7,16.8a2.017,2.017,0,0,0-.211-.034.91.91,0,0,1-.21-.048,2.04,2.04,0,0,1-.858-.465,1.4,1.4,0,0,1-.371-.719,2.387,2.387,0,0,1-.071-.814,3.073,3.073,0,0,1,.18-.821,3.377,3.377,0,0,1,.379-.738,2.377,2.377,0,0,1,.517-.559,2.458,2.458,0,0,1,.345-.2,1.645,1.645,0,0,1,.435-.135,1.925,1.925,0,0,1,.539-.007,2.714,2.714,0,0,1,.668.176,5.086,5.086,0,0,1,.638.33,2.134,2.134,0,0,1,.468.386,1.555,1.555,0,0,1,.293.472,1.862,1.862,0,0,1,.116.6,3.25,3.25,0,0,1-.217,1.136" transform="translate(-38.623 -1.68)" fill="#4aae51"/>
        <path id="Path_6639" data-name="Path 6639" d="M236.492,14.266a.327.327,0,0,0-.27.03,1.076,1.076,0,0,0-.286.232,2.173,2.173,0,0,0-.266.371,3.19,3.19,0,0,0-.214.446,3.037,3.037,0,0,0-.1.412,1.491,1.491,0,0,0-.018.368.673.673,0,0,0,.082.281.321.321,0,0,0,.195.154.57.57,0,0,0,.6-.18,6.142,6.142,0,0,0,.315-.757,3.816,3.816,0,0,0,.161-.641,1.217,1.217,0,0,0-.007-.469.339.339,0,0,0-.191-.247" transform="translate(-39.448 -2.388)" fill="#4aae51"/>
        <path id="Path_6640" data-name="Path 6640" d="M268.162,10.489a.234.234,0,0,1,.235.234V36.774a.235.235,0,0,1-.235.235.242.242,0,0,1-.042,0l-.052-.01v.67h6.794V10.02h-6.794v.489a.231.231,0,0,1,.093-.02m2.906,5.107a.234.234,0,0,1,.234-.234h.937a.234.234,0,0,1,.234.234v5.624a.234.234,0,0,1-.234.234H271.3a.234.234,0,0,1-.234-.234Zm.7,11.011c1.025,0,1.827,1.255,1.827,2.858s-.8,2.858-1.827,2.858-1.827-1.256-1.827-2.858.8-2.858,1.827-2.858" transform="translate(-44.936 -1.68)" fill="#b0eeb2"/>
        <path id="Path_6641" data-name="Path 6641" d="M272.241,35.289c.737,0,1.359-1.095,1.359-2.39s-.623-2.39-1.359-2.39-1.358,1.095-1.358,2.39.623,2.39,1.358,2.39m-.234-3.327a.234.234,0,0,1,.469,0v2.062a.234.234,0,0,1-.469,0Z" transform="translate(-45.407 -5.114)" fill="#38783d"/>
        <rect id="Rectangle_1949" data-name="Rectangle 1949" width="0.469" height="5.154" transform="translate(226.6 14.15)" fill="#38783d"/>
        <path id="Path_6642" data-name="Path 6642" d="M230.08,38.039h38.61a.234.234,0,0,0,.234-.235V9.692a.234.234,0,0,0-.234-.235H230.08a.234.234,0,0,0-.234.235V37.8a.234.234,0,0,0,.234.235m.236-28.113h38.139V37.57H230.315Z" transform="translate(-38.528 -1.585)"/>
        <path id="Path_6643" data-name="Path 6643" d="M271.906,22.528h.936a.234.234,0,0,0,.235-.234V16.672a.234.234,0,0,0-.235-.235h-.936a.234.234,0,0,0-.235.235v5.623a.234.234,0,0,0,.235.234m.234-5.623h.469V22.06h-.469Z" transform="translate(-45.539 -2.755)"/>
        <path id="Path_6644" data-name="Path 6644" d="M272.148,35.664c1.025,0,1.827-1.256,1.827-2.858s-.8-2.858-1.827-2.858-1.827,1.255-1.827,2.858.8,2.858,1.827,2.858m0-5.248c.737,0,1.358,1.095,1.358,2.39s-.622,2.39-1.358,2.39-1.358-1.095-1.358-2.39.622-2.39,1.358-2.39" transform="translate(-45.313 -5.02)"/>
        <path id="Path_6645" data-name="Path 6645" d="M272.469,34.5a.234.234,0,0,0,.234-.235V32.209a.234.234,0,1,0-.468,0V34.27a.234.234,0,0,0,.234.235" transform="translate(-45.634 -5.36)"/>
        <path id="Path_6646" data-name="Path 6646" d="M267.637,37.1a.237.237,0,0,0,.15-.054.233.233,0,0,0,.084-.18V10.818a.234.234,0,0,0-.234-.235.238.238,0,0,0-.094.02.234.234,0,0,0-.14.215v25.76c-.618-.155-1.677-.525-1.785-1.067-.083-.417-.18-5.891-.2-11.715-.03-6.617.038-11.183.172-11.721l1.093-1.093a.234.234,0,1,0-.331-.331l-1.125,1.125c-.106.107-.326.326-.28,11.764.022,5.394.111,11.539.216,12.064.2,1.007,2.005,1.412,2.385,1.487l.052.009a.227.227,0,0,0,.042,0" transform="translate(-44.41 -1.774)"/>
        <path id="Path_6647" data-name="Path 6647" d="M237.663,13.6a2.164,2.164,0,0,0-.469-.386,5.019,5.019,0,0,0-.637-.33,2.723,2.723,0,0,0-.668-.176,1.925,1.925,0,0,0-.539.007,1.635,1.635,0,0,0-.435.135,2.542,2.542,0,0,0-.345.2,2.4,2.4,0,0,0-.518.559,3.374,3.374,0,0,0-.378.738,3.08,3.08,0,0,0-.181.821,2.382,2.382,0,0,0,.072.814,1.4,1.4,0,0,0,.371.719,2.04,2.04,0,0,0,.858.465.909.909,0,0,0,.21.048,2.039,2.039,0,0,1,.21.034,7.951,7.951,0,0,1-1.349,1.342.319.319,0,0,0-.1.109.122.122,0,0,0-.007.093.225.225,0,0,0,.057.087.938.938,0,0,0,.1.086,1.879,1.879,0,0,0,.311.169c.092.037.2.081.319.132a.5.5,0,0,0,.326.045,1.2,1.2,0,0,0,.288-.135,5.688,5.688,0,0,0,1.14-.937,8.182,8.182,0,0,0,.934-1.184,6.169,6.169,0,0,0,.626-1.249,3.249,3.249,0,0,0,.217-1.135,1.863,1.863,0,0,0-.117-.6,1.553,1.553,0,0,0-.292-.472m-1.282,1.125a3.817,3.817,0,0,1-.161.641,6.136,6.136,0,0,1-.315.757.568.568,0,0,1-.6.18.321.321,0,0,1-.2-.154.673.673,0,0,1-.082-.281,1.457,1.457,0,0,1,.019-.368,2.911,2.911,0,0,1,.1-.412,3.188,3.188,0,0,1,.214-.446,2.178,2.178,0,0,1,.266-.371,1.06,1.06,0,0,1,.285-.232.327.327,0,0,1,.27-.03.339.339,0,0,1,.191.247,1.2,1.2,0,0,1,.007.469" transform="translate(-39.139 -2.127)"/>
        <path id="Path_6648" data-name="Path 6648" d="M12.224,174.108H41.743V10.02H12.224ZM16.159,24.78a.14.14,0,0,1,.141-.141H37.854a.14.14,0,0,1,.141.141V43.9a.141.141,0,0,1-.141.141H16.3a.141.141,0,0,1-.141-.141ZM38.048,96.093a.1.1,0,0,1-.1.1H16.394a.1.1,0,0,1-.1-.1V86.16a.1.1,0,0,1,.1-.1H37.948a.1.1,0,0,1,.1.1Zm1.726-16.774a.234.234,0,0,1-.234.234H14.426a.234.234,0,0,1-.234-.234V57.766a.234.234,0,0,1,.234-.234H39.541a.234.234,0,0,1,.234.234Z" transform="translate(-2.049 -1.68)" fill="#b0eeb2"/>
        <path id="Path_6649" data-name="Path 6649" d="M42.117,174.249V9.692a.234.234,0,0,0-.234-.235H11.895a.234.234,0,0,0-.234.235V174.249a.234.234,0,0,0,.234.234H41.883a.234.234,0,0,0,.234-.234M12.13,9.926H41.649V174.014H12.13Z" transform="translate(-1.955 -1.585)"/>
        <rect id="Rectangle_1950" data-name="Rectangle 1950" width="21.272" height="18.836" transform="translate(14.392 23.241)" fill="#fff"/>
        <path id="Path_6650" data-name="Path 6650" d="M17.093,46.981H38.646a.141.141,0,0,0,.141-.141V27.724a.141.141,0,0,0-.141-.141H17.093a.141.141,0,0,0-.141.141V46.841a.141.141,0,0,0,.141.141m.141-19.117H38.505V46.7H17.233Z" transform="translate(-2.842 -4.624)"/>
        <rect id="Rectangle_1951" data-name="Rectangle 1951" width="21.35" height="9.73" transform="translate(14.446 84.582)" fill="#fff"/>
        <path id="Path_6651" data-name="Path 6651" d="M38.767,101.372H17.214a.1.1,0,0,0-.1.1v9.934a.1.1,0,0,0,.1.1H38.767a.1.1,0,0,0,.1-.1v-9.934a.1.1,0,0,0-.1-.1m-.1,9.934H17.315v-9.73h21.35Z" transform="translate(-2.868 -16.993)"/>
        <path id="Path_6652" data-name="Path 6652" d="M15.151,88.748H39.8V67.663H15.151ZM16.557,69.49a.234.234,0,0,1,.233-.235H38.343a.235.235,0,0,1,.236.235V86.92a.235.235,0,0,1-.236.235H16.79a.234.234,0,0,1-.233-.235Z" transform="translate(-2.54 -11.342)" fill="#38783d"/>
        <path id="Path_6653" data-name="Path 6653" d="M39.937,67.1H14.822a.234.234,0,0,0-.234.234V88.887a.234.234,0,0,0,.234.235H39.937a.234.234,0,0,0,.234-.235V67.334a.234.234,0,0,0-.234-.234M39.7,88.653H15.057V67.569H39.7Z" transform="translate(-2.445 -11.248)"/>
        <rect id="Rectangle_1952" data-name="Rectangle 1952" width="21.085" height="16.962" transform="translate(14.486 58.382)" fill="#efefef"/>
        <g id="Group_13818" data-name="Group 13818" transform="translate(14.485 58.382)" opacity="0.6">
          <g id="Group_13817" data-name="Group 13817">
            <g id="Group_13816" data-name="Group 13816" clip-path="url(#clip-path-3)">
              <path id="Path_6654" data-name="Path 6654" d="M38.487,70.139H17.4V87.1Z" transform="translate(-17.402 -70.139)" fill="#a3a3a3"/>
            </g>
          </g>
        </g>
        <path id="Path_6655" data-name="Path 6655" d="M17.074,87.476H38.627a.234.234,0,0,0,.234-.235V69.811a.234.234,0,0,0-.234-.234H17.074a.234.234,0,0,0-.234.234v17.43a.234.234,0,0,0,.234.235m.234-17.431H38.393V87.007H17.308Z" transform="translate(-2.823 -11.663)"/>
        <path id="Path_6656" data-name="Path 6656" d="M204.867,52.952c-.14.825-.211,10.091-.182,23.783.025,12.114.122,23.167.206,23.653.108.541,1.167.912,1.785,1.065V51.7a.235.235,0,0,1,.141-.215V51H175.469v51.635h31.346v-.669c-.38-.075-2.183-.479-2.385-1.487-.1-.523-.193-12.9-.216-24.059-.047-23.432.166-23.644.28-23.758l1.125-1.124a.234.234,0,1,1,.331.33Z" transform="translate(-29.413 -8.549)" fill="#4aae51"/>
        <path id="Path_6657" data-name="Path 6657" d="M187.91,54.652a2.612,2.612,0,0,0-.443-.461,2.525,2.525,0,0,0-.911-.469,1.548,1.548,0,0,0-.963.063,3.773,3.773,0,0,0-1.031.585,2.825,2.825,0,0,0-.708.832,1.218,1.218,0,0,0-.139,1.027,1.837,1.837,0,0,0,.762.876c-.175.11-.343.224-.5.341a3.087,3.087,0,0,0-.427.375,1.86,1.86,0,0,0-.3.423,1.253,1.253,0,0,0-.138.473,1.148,1.148,0,0,0,.288.858,1.945,1.945,0,0,0,.986.574,3.213,3.213,0,0,0,.708.131,2.782,2.782,0,0,0,.708-.037,2.35,2.35,0,0,0,.659-.229,1.96,1.96,0,0,0,.57-.458,2.764,2.764,0,0,0,.356-.554,1.1,1.1,0,0,0,.108-.563,1.133,1.133,0,0,0-.236-.577,2.484,2.484,0,0,0-.671-.585,8.649,8.649,0,0,0,.8-.494,2.024,2.024,0,0,0,.548-.548,1.368,1.368,0,0,0,.247-.544,1.176,1.176,0,0,0-.018-.536,1.536,1.536,0,0,0-.251-.505m-2.062,3.98a1.571,1.571,0,0,1-.142.281,1.143,1.143,0,0,1-.454.416.6.6,0,0,1-.439.056.4.4,0,0,1-.127-.071.334.334,0,0,1-.094-.124.416.416,0,0,1-.033-.172.552.552,0,0,1,.06-.232,1.938,1.938,0,0,1,.367-.5,2.73,2.73,0,0,1,.6-.442.8.8,0,0,1,.236.247.566.566,0,0,1,.076.262.729.729,0,0,1-.049.274m.7-2.995a3.457,3.457,0,0,1-1.105.93.552.552,0,0,1-.176-.334.711.711,0,0,1,.082-.412,1.792,1.792,0,0,1,.349-.461,3.58,3.58,0,0,1,.622-.48q.473.361.229.757" transform="translate(-30.693 -8.997)"/>
        <path id="Path_6658" data-name="Path 6658" d="M181.584,53.974a3.1,3.1,0,0,0-.431-.251,2.571,2.571,0,0,0-.439-.161,1.3,1.3,0,0,0-.195-.038.341.341,0,0,0-.146.016.328.328,0,0,0-.12.075,1.478,1.478,0,0,0-.132.142c-.1.135-.208.294-.323.476a5.58,5.58,0,0,0-.3.536.613.613,0,0,0-.06.183.191.191,0,0,0,.034.132.428.428,0,0,0,.138.117c.065.037.147.081.248.131-.075.335-.149.7-.221,1.084s-.137.764-.195,1.132-.1.707-.142,1.02-.062.561-.072.746a.7.7,0,0,0,.03.307.41.41,0,0,0,.187.195,1.627,1.627,0,0,0,.356.132c.117.027.236.056.356.086a.393.393,0,0,0,.259.015.275.275,0,0,0,.1-.165q.06-.33.147-.757t.195-.907q.109-.479.232-.986t.247-.993c.082-.325.166-.635.247-.93s.159-.559.229-.795a.381.381,0,0,0,.022-.3.742.742,0,0,0-.255-.24" transform="translate(-30.043 -8.972)"/>
      </g>
    </g>
  </g>
</svg>
