
<svg width="26" height="34" viewBox="0 0 26 34" fill="none" xmlns="http://www.w3.org/2000/svg">
<path d="M7.09091 24.2273V25.4091C7.09091 25.5691 7.03243 25.7076 6.91548 25.8246C6.79853 25.9415 6.66004 26 6.5 26H5.31818C5.15814 26 5.01965 25.9415 4.9027 25.8246C4.78575 25.7076 4.72727 25.5691 4.72727 25.4091V24.2273C4.72727 24.0672 4.78575 23.9287 4.9027 23.8118C5.01965 23.6948 5.15814 23.6364 5.31818 23.6364H6.5C6.66004 23.6364 6.79853 23.6948 6.91548 23.8118C7.03243 23.9287 7.09091 24.0672 7.09091 24.2273ZM7.09091 19.5V20.6818C7.09091 20.8419 7.03243 20.9803 6.91548 21.0973C6.79853 21.2143 6.66004 21.2727 6.5 21.2727H5.31818C5.15814 21.2727 5.01965 21.2143 4.9027 21.0973C4.78575 20.9803 4.72727 20.8419 4.72727 20.6818V19.5C4.72727 19.34 4.78575 19.2015 4.9027 19.0845C5.01965 18.9676 5.15814 18.9091 5.31818 18.9091H6.5C6.66004 18.9091 6.79853 18.9676 6.91548 19.0845C7.03243 19.2015 7.09091 19.34 7.09091 19.5ZM11.8182 19.5V20.6818C11.8182 20.8419 11.7597 20.9803 11.6428 21.0973C11.5258 21.2143 11.3873 21.2727 11.2273 21.2727H10.0455C9.88542 21.2727 9.74692 21.2143 9.62997 21.0973C9.51302 20.9803 9.45455 20.8419 9.45455 20.6818V19.5C9.45455 19.34 9.51302 19.2015 9.62997 19.0845C9.74692 18.9676 9.88542 18.9091 10.0455 18.9091H11.2273C11.3873 18.9091 11.5258 18.9676 11.6428 19.0845C11.7597 19.2015 11.8182 19.34 11.8182 19.5ZM7.09091 14.7727V15.9545C7.09091 16.1146 7.03243 16.2531 6.91548 16.37C6.79853 16.487 6.66004 16.5455 6.5 16.5455H5.31818C5.15814 16.5455 5.01965 16.487 4.9027 16.37C4.78575 16.2531 4.72727 16.1146 4.72727 15.9545V14.7727C4.72727 14.6127 4.78575 14.4742 4.9027 14.3572C5.01965 14.2403 5.15814 14.1818 5.31818 14.1818H6.5C6.66004 14.1818 6.79853 14.2403 6.91548 14.3572C7.03243 14.4742 7.09091 14.6127 7.09091 14.7727ZM21.2727 24.2273V25.4091C21.2727 25.5691 21.2143 25.7076 21.0973 25.8246C20.9803 25.9415 20.8419 26 20.6818 26H19.5C19.34 26 19.2015 25.9415 19.0845 25.8246C18.9676 25.7076 18.9091 25.5691 18.9091 25.4091V24.2273C18.9091 24.0672 18.9676 23.9287 19.0845 23.8118C19.2015 23.6948 19.34 23.6364 19.5 23.6364H20.6818C20.8419 23.6364 20.9803 23.6948 21.0973 23.8118C21.2143 23.9287 21.2727 24.0672 21.2727 24.2273ZM16.5455 19.5V20.6818C16.5455 20.8419 16.487 20.9803 16.37 21.0973C16.2531 21.2143 16.1146 21.2727 15.9545 21.2727H14.7727C14.6127 21.2727 14.4742 21.2143 14.3572 21.0973C14.2403 20.9803 14.1818 20.8419 14.1818 20.6818V19.5C14.1818 19.34 14.2403 19.2015 14.3572 19.0845C14.4742 18.9676 14.6127 18.9091 14.7727 18.9091H15.9545C16.1146 18.9091 16.2531 18.9676 16.37 19.0845C16.487 19.2015 16.5455 19.34 16.5455 19.5ZM11.8182 14.7727V15.9545C11.8182 16.1146 11.7597 16.2531 11.6428 16.37C11.5258 16.487 11.3873 16.5455 11.2273 16.5455H10.0455C9.88542 16.5455 9.74692 16.487 9.62997 16.37C9.51302 16.2531 9.45455 16.1146 9.45455 15.9545V14.7727C9.45455 14.6127 9.51302 14.4742 9.62997 14.3572C9.74692 14.2403 9.88542 14.1818 10.0455 14.1818H11.2273C11.3873 14.1818 11.5258 14.2403 11.6428 14.3572C11.7597 14.4742 11.8182 14.6127 11.8182 14.7727ZM21.2727 19.5V20.6818C21.2727 20.8419 21.2143 20.9803 21.0973 21.0973C20.9803 21.2143 20.8419 21.2727 20.6818 21.2727H19.5C19.34 21.2727 19.2015 21.2143 19.0845 21.0973C18.9676 20.9803 18.9091 20.8419 18.9091 20.6818V19.5C18.9091 19.34 18.9676 19.2015 19.0845 19.0845C19.2015 18.9676 19.34 18.9091 19.5 18.9091H20.6818C20.8419 18.9091 20.9803 18.9676 21.0973 19.0845C21.2143 19.2015 21.2727 19.34 21.2727 19.5ZM16.5455 14.7727V15.9545C16.5455 16.1146 16.487 16.2531 16.37 16.37C16.2531 16.487 16.1146 16.5455 15.9545 16.5455H14.7727C14.6127 16.5455 14.4742 16.487 14.3572 16.37C14.2403 16.2531 14.1818 16.1146 14.1818 15.9545V14.7727C14.1818 14.6127 14.2403 14.4742 14.3572 14.3572C14.4742 14.2403 14.6127 14.1818 14.7727 14.1818H15.9545C16.1146 14.1818 16.2531 14.2403 16.37 14.3572C16.487 14.4742 16.5455 14.6127 16.5455 14.7727ZM21.2727 14.7727V15.9545C21.2727 16.1146 21.2143 16.2531 21.0973 16.37C20.9803 16.487 20.8419 16.5455 20.6818 16.5455H19.5C19.34 16.5455 19.2015 16.487 19.0845 16.37C18.9676 16.2531 18.9091 16.1146 18.9091 15.9545V14.7727C18.9091 14.6127 18.9676 14.4742 19.0845 14.3572C19.2015 14.2403 19.34 14.1818 19.5 14.1818H20.6818C20.8419 14.1818 20.9803 14.2403 21.0973 14.3572C21.2143 14.4742 21.2727 14.6127 21.2727 14.7727ZM16.5455 30.7273H23.6364V9.45455H18.9091V10.0455C18.9091 10.5379 18.7367 10.9564 18.392 11.3011C18.0473 11.6458 17.6288 11.8182 17.1364 11.8182H8.86364C8.37121 11.8182 7.95265 11.6458 7.60795 11.3011C7.26326 10.9564 7.09091 10.5379 7.09091 10.0455V9.45455H2.36364V30.7273H9.45455V26.5909C9.45455 26.4309 9.51302 26.2924 9.62997 26.1754C9.74692 26.0585 9.88542 26 10.0455 26H15.9545C16.1146 26 16.2531 26.0585 16.37 26.1754C16.487 26.2924 16.5455 26.4309 16.5455 26.5909V30.7273ZM16.5455 8.86364V2.95455C16.5455 2.79451 16.487 2.65601 16.37 2.53906C16.2531 2.42211 16.1146 2.36364 15.9545 2.36364H14.7727C14.6127 2.36364 14.4742 2.42211 14.3572 2.53906C14.2403 2.65601 14.1818 2.79451 14.1818 2.95455V4.72727H11.8182V2.95455C11.8182 2.79451 11.7597 2.65601 11.6428 2.53906C11.5258 2.42211 11.3873 2.36364 11.2273 2.36364H10.0455C9.88542 2.36364 9.74692 2.42211 9.62997 2.53906C9.51302 2.65601 9.45455 2.79451 9.45455 2.95455V8.86364C9.45455 9.02367 9.51302 9.16217 9.62997 9.27912C9.74692 9.39607 9.88542 9.45455 10.0455 9.45455H11.2273C11.3873 9.45455 11.5258 9.39607 11.6428 9.27912C11.7597 9.16217 11.8182 9.02367 11.8182 8.86364V7.09091H14.1818V8.86364C14.1818 9.02367 14.2403 9.16217 14.3572 9.27912C14.4742 9.39607 14.6127 9.45455 14.7727 9.45455H15.9545C16.1146 9.45455 16.2531 9.39607 16.37 9.27912C16.487 9.16217 16.5455 9.02367 16.5455 8.86364ZM26 8.27273V31.9091C26 32.2292 25.883 32.5062 25.6491 32.7401C25.4152 32.974 25.1383 33.0909 24.8182 33.0909H1.18182C0.861742 33.0909 0.584754 32.974 0.350852 32.7401C0.116951 32.5062 0 32.2292 0 31.9091V8.27273C0 7.95265 0.116951 7.67566 0.350852 7.44176C0.584754 7.20786 0.861742 7.09091 1.18182 7.09091H7.09091V1.77273C7.09091 1.2803 7.26326 0.861742 7.60795 0.517045C7.95265 0.172348 8.37121 0 8.86364 0H17.1364C17.6288 0 18.0473 0.172348 18.392 0.517045C18.7367 0.861742 18.9091 1.2803 18.9091 1.77273V7.09091H24.8182C25.1383 7.09091 25.4152 7.20786 25.6491 7.44176C25.883 7.67566 26 7.95265 26 8.27273Z" fill="white"/>
</svg>
