
<svg width="33" height="25" viewBox="0 0 33 25" fill="none" xmlns="http://www.w3.org/2000/svg">
<path d="M31.5458 23.8327H29.8536V11.075L23.0274 6.52143L19.703 8.225V5.02321L11.1375 0L2.98571 5.03214V23.8327H0.597024C0.267262 23.8327 0 24.094 0 24.4167C0 24.7387 0.267262 25 0.597024 25H2.98571H14.231H14.828H29.8542H31.5464C31.8756 25 32.1429 24.7387 32.1429 24.4167C32.1429 24.094 31.8756 23.8327 31.5458 23.8327ZM4.17917 8.94226L10.5482 5.72798V7.94107L4.17917 11.1756V8.94226ZM28.6595 16.8714L23.5845 15.375V12.3696L28.6595 14.8107V16.8714ZM14.231 11.0304V12.6893L11.7429 11.6667V9.15476L14.831 10.7226L14.231 11.0304ZM10.5488 11.7488L4.17976 14.3655V12.4905L10.5488 9.25595V11.7488ZM10.5488 13.0149V15.6274L4.17976 17.6339V15.6321L10.5488 13.0149ZM11.7429 12.9333L14.231 13.956V16.4619L11.7429 15.6345V12.9333ZM15.425 15.1994L22.3905 12.3268V15.3869L15.425 17.6292V15.1994ZM22.3905 11.0601L15.425 13.9327V11.7369L22.3905 8.16667V11.0601ZM16.119 10.0625L11.7423 7.83988V5.77202L17.8601 9.16964L16.119 10.0625ZM4.17917 18.8595L10.5482 16.853V19.3863L4.17917 20.9012V18.8595ZM11.7429 16.8667L14.231 17.694V20.2762L11.7429 19.4304V16.8667ZM15.425 18.8571L22.3905 16.6155V19.6536L15.425 20.9405V18.8571ZM23.5845 16.594L28.6595 18.0905V20.4149L23.5845 19.6375V16.594ZM28.6595 13.5095L23.5845 11.069V8.30595L28.6595 11.6917V13.5095ZM18.5095 8.1875L11.7429 4.42976V1.71488L18.5095 5.68333V8.1875ZM10.5488 1.74405V4.41429L4.17976 7.62798V5.675L10.5488 1.74405ZM4.17917 22.103L10.5482 20.5881V23.8333H4.17917V22.103ZM11.7429 23.8327V20.6661L14.231 21.5119V23.8321L11.7429 23.8327ZM15.425 22.128L22.3905 20.8411V23.8327H15.425V22.128ZM23.5845 23.8327V20.819L28.6595 21.5964V23.8327H23.5845Z" fill="white"/>
</svg>
