<svg xmlns="http://www.w3.org/2000/svg" width="13.325" height="16.793" viewBox="0 0 13.325 16.793" fill="#FFF">
  <g id="Group_13396" data-name="Group 13396" transform="translate(-33 -1039)">
    <g id="Group_13394" data-name="Group 13394" transform="translate(-54.727 995.069)">
      <path id="Path_6255" data-name="Path 6255" d="M87.727,58.66v2.064h1.811V43.932h-1.1a.712.712,0,0,0-.712.712Z" transform="translate(0 -0.001)"/>
      <path id="Path_6256" data-name="Path 6256" d="M378.53,46.505V60.724h1.811V44.643a.712.712,0,0,0-.712-.712h-1.1Z" transform="translate(-279.289)"/>
      <path id="Path_6257" data-name="Path 6257" d="M145.037,46.506h8.787V43.932h-8.787Zm5.781-1.861a.574.574,0,1,1-.573.574A.573.573,0,0,1,150.818,44.646Zm-2.776,0a.574.574,0,1,1-.574.574A.574.574,0,0,1,148.042,44.646Z" transform="translate(-55.041 -0.001)"/>
    </g>
    <g id="Group_13395" data-name="Group 13395" transform="translate(-51.413 1000.512)">
      <path id="Path_6255-2" data-name="Path 6255" d="M87.727,53.886v1.4h.906V43.932h-.55c-.2,0-.356.215-.356.481Z" transform="translate(0 -0.001)"/>
      <path id="Path_6256-2" data-name="Path 6256" d="M378.53,45.671v9.61h.906V44.412c0-.266-.159-.481-.356-.481h-.55Z" transform="translate(-285.046)"/>
      <path id="Path_6257-2" data-name="Path 6257" d="M145.037,45.219h4.393V43.932h-4.393Zm2.891-.93a.287.287,0,1,1-.287.287A.287.287,0,0,1,147.928,44.289Zm-1.388,0a.287.287,0,1,1-.287.287A.287.287,0,0,1,146.54,44.289Z" transform="translate(-56.175 -0.001)"/>
    </g>
  </g>
</svg>
