
<svg width="18" height="22" viewBox="0 0 18 22" fill="white" xmlns="http://www.w3.org/2000/svg">
<path d="M5.79167 8.70825C5.79167 9.21333 5.909 9.69183 6.118 10.1172C5.66884 10.6928 5.38925 11.4069 5.35167 12.1852C4.48909 11.2795 3.95834 10.0548 3.95834 8.70917C3.95834 5.58242 6.82017 3.11108 10.0624 3.77658C11.9709 4.16892 13.5173 5.70617 13.9243 7.61192C14.0472 8.18758 14.0701 8.75133 14.0078 9.29033C13.9546 9.74683 13.554 10.0842 13.0938 10.0842H13.0526C12.5099 10.0842 12.1286 9.60108 12.1882 9.06208C12.2285 8.7 12.2074 8.31958 12.1148 7.93183C11.8417 6.78325 10.9048 5.85283 9.75442 5.58792C7.65892 5.10667 5.79075 6.69433 5.79075 8.70917L5.79167 8.70825ZM2.22584 7.52117C2.477 6.06092 3.19109 4.72992 4.29842 3.69133C5.7 2.37775 7.53517 1.72875 9.45926 1.84792C13.0828 2.08258 15.9163 5.257 15.8741 9.0575C15.8567 10.6488 14.5238 11.9157 12.9334 11.9157H10.7279C10.5043 11.1558 9.80942 10.5966 8.97709 10.5966C7.96417 10.5966 7.14375 11.417 7.14375 12.4299C7.14375 13.4428 7.96417 14.2633 8.97709 14.2633C9.47026 14.2633 9.91667 14.0662 10.2458 13.749H12.9334C15.5175 13.749 17.6708 11.6911 17.7074 9.10792C17.7753 4.322 14.1801 0.316167 9.57751 0.0191672C7.1355 -0.139416 4.81909 0.690167 3.04534 2.35483C1.67125 3.64275 0.757337 5.34775 0.428254 7.182C0.328337 7.73933 0.769254 8.25083 1.33484 8.25083C1.7675 8.25083 2.15342 7.94925 2.22584 7.52208V7.52117ZM9 15.5833C5.61292 15.5833 2.68234 17.6843 1.70792 20.8101C1.55667 21.2932 1.82709 21.8074 2.31017 21.9587C2.79234 22.1044 3.30659 21.8386 3.45784 21.3564C4.18109 19.0373 6.459 17.4166 8.99909 17.4166C11.5392 17.4166 13.818 19.0373 14.5403 21.3564C14.6632 21.7488 15.0243 21.9999 15.4158 21.9999C15.5065 21.9999 15.5973 21.9862 15.6889 21.9587C16.172 21.8074 16.4415 21.2932 16.2912 20.8101C15.3168 17.6843 12.3862 15.5833 8.99909 15.5833H9Z" />
</svg>
