<svg xmlns="http://www.w3.org/2000/svg" width="12.277" height="16.368" viewBox="0 0 12.277 16.368">
  <g id="location" transform="translate(-4)">
    <path id="Path_308" data-name="Path 308" d="M13.071,11.884A3.069,3.069,0,1,0,10,8.815,3.072,3.072,0,0,0,13.071,11.884Zm0-5.626a2.557,2.557,0,1,1-2.557,2.557A2.56,2.56,0,0,1,13.071,6.257Z" transform="translate(-2.932 -2.807)" fill="#c0282c" stroke="#c0282c" stroke-width="0.5" fill-rule="evenodd"/>
    <path id="Path_309" data-name="Path 309" d="M10.138,0A6.123,6.123,0,0,0,4,6.138c0,3.58,3.069,7.243,5.307,9.818a1.25,1.25,0,0,0,.811.412h.039a1.252,1.252,0,0,0,.811-.412c2.239-2.574,5.308-6.237,5.308-9.818A6.123,6.123,0,0,0,10.138,0Zm.06,15.285a.621.621,0,0,1-.069.05.511.511,0,0,0-.066-.068c-1.875-2.157-5.04-5.8-5.04-9.129a5.115,5.115,0,1,1,10.231,0C15.254,9.47,12.089,13.11,10.2,15.285Z" fill="#c0282c" fill-rule="evenodd"/>
  </g>
</svg>
