
<svg width="25" height="27" viewBox="0 0 25 27" fill="none" xmlns="http://www.w3.org/2000/svg">
<path d="M5.36936 0.0688469C3.43527 -0.312735 1.53012 0.929817 1.14165 2.85564C-0.380549 10.3702 -0.380549 16.627 1.14165 24.1443C1.4819 25.8318 2.98343 27 4.66129 27C4.89548 27 5.13242 26.978 5.37073 26.9311C7.31584 26.5468 8.57905 24.6747 8.18921 22.7489C6.84196 16.0925 6.84196 10.9047 8.18921 4.24834C8.57768 2.32528 7.31446 0.453184 5.36936 0.0688469ZM22.035 2.47956H10.2376C10.3475 3.13695 10.3396 3.80863 10.2142 4.46324C8.92482 10.9653 8.92482 16.0319 10.2142 22.5367C10.3492 23.2117 10.3382 23.8771 10.2376 24.5204H22.035C23.5503 24.5204 24.7901 23.2806 24.7901 21.7653V5.23467C24.7901 3.71936 23.5517 2.47956 22.035 2.47956ZM15.1472 19.699C14.599 19.6988 14.0733 19.4808 13.6858 19.0931C13.2983 18.7053 13.0807 18.1795 13.0809 17.6313C13.0811 17.0831 13.299 16.5574 13.6868 16.1699C14.0746 15.7824 14.6004 15.5648 15.1486 15.5649C15.6968 15.5651 16.2225 15.7831 16.61 16.1708C16.9975 16.5586 17.2151 17.0844 17.2149 17.6326C17.2148 18.1808 16.9968 18.7065 16.609 19.094C16.2213 19.4816 15.6954 19.6992 15.1472 19.699ZM22.035 12.1224H12.3921V6.61222H22.035V12.1224Z" fill="white"/>
</svg>
