<?xml version="1.0" encoding="UTF-8"?>
<svg version="1.1" xmlns="http://www.w3.org/2000/svg" width="512" height="512">
<path d="M0 0 C1.39812093 -0.01564648 1.39812093 -0.01564648 2.82448673 -0.03160906 C3.84509913 -0.02268617 4.86571154 -0.01376328 5.91725159 -0.00457001 C7.00407195 -0.01080997 8.09089231 -0.01704993 9.21064663 -0.02347898 C12.8651012 -0.03947813 16.51889517 -0.02677712 20.1733551 -0.01421356 C22.78811534 -0.01963157 25.40287253 -0.02675242 28.0176239 -0.0354538 C34.38994977 -0.05325485 40.76208734 -0.04939207 47.13442063 -0.03780323 C52.31260618 -0.02877538 57.4907389 -0.02754209 62.66893005 -0.0318985 C63.40547929 -0.03251143 64.14202853 -0.03312436 64.90089744 -0.03375587 C66.3971104 -0.03503475 67.89332334 -0.0363316 69.38953626 -0.03764623 C83.42467677 -0.04905667 97.45971283 -0.03593109 111.49483621 -0.01444477 C123.54169951 0.00342666 135.58840865 0.00032268 147.63526917 -0.01811981 C161.61964616 -0.03951837 175.60393157 -0.04795799 189.58832264 -0.03567076 C191.0790793 -0.03439654 192.56983597 -0.03313906 194.06059265 -0.0318985 C194.79410318 -0.0312814 195.52761371 -0.03066429 196.28335184 -0.03002849 C201.45625246 -0.02657254 206.62909506 -0.0324092 211.80198669 -0.04181671 C218.76233967 -0.05419649 225.72239605 -0.04540227 232.68272018 -0.02223969 C235.24177947 -0.01693709 237.80086321 -0.01849266 240.35991287 -0.02729034 C243.84436742 -0.03816769 247.32787731 -0.0245756 250.81227112 -0.00457001 C252.34318972 -0.01795434 252.34318972 -0.01795434 253.90503597 -0.03160906 C254.83711659 -0.02117807 255.76919722 -0.01074708 256.72952271 0 C257.5338804 0.00064941 258.33823809 0.00129882 259.16697025 0.00196791 C262.28243594 0.71271975 263.45823713 1.97202381 265.36476135 4.50336456 C265.86155534 7.05200791 265.86155534 7.05200791 265.85695267 9.99311447 C265.86491686 11.11576525 265.87288105 12.23841603 265.88108659 13.39508653 C265.86943522 14.62853862 265.85778386 15.8619907 265.84577942 17.13282013 C265.84919712 18.44297458 265.85261482 19.75312904 265.85613608 21.10298514 C265.86509294 24.74262783 265.84906317 28.38180093 265.82902384 32.02138376 C265.81177322 35.94500379 265.81759384 39.86859668 265.82063293 43.79224396 C265.82273182 50.59121999 265.81016646 57.39004265 265.78768158 64.1889801 C265.75519331 74.01911367 265.74475782 83.84917296 265.73972961 93.6793544 C265.73097197 109.62756912 265.70434368 125.57570207 265.66651917 141.52387238 C265.62981121 157.01735779 265.6014935 172.51082101 265.58448792 188.00434113 C265.58343702 188.95912882 265.58238613 189.91391651 265.58130339 190.89763716 C265.57608329 195.68745728 265.57102845 200.47727756 265.56605577 205.26709795 C265.52457913 245.01257741 265.45411794 284.7579656 265.36476135 324.50336456 C266.03531555 324.49289093 266.70586975 324.4824173 267.39674377 324.47162628 C270.44854452 324.42993285 273.50028519 324.40399604 276.55226135 324.37836456 C277.60735901 324.36160675 278.66245667 324.34484894 279.74952698 324.32758331 C280.77110901 324.321138 281.79269104 324.31469269 282.8452301 324.30805206 C283.78262024 324.29757843 284.72001038 324.2871048 285.68580627 324.27631378 C288.64492187 324.52710914 290.72773483 325.14404925 293.36476135 326.50336456 C295.85313101 330.23591904 295.90702687 332.08777391 295.36476135 336.50336456 C292.8689985 339.02076545 291.1761098 340.35271186 287.66446203 341.00476122 C286.68125606 341.00541063 285.6980501 341.00606004 284.68505001 341.00672913 C282.975662 341.02237561 282.975662 341.02237561 281.23174089 341.03833818 C279.98447538 341.0294153 278.73720987 341.02049241 277.45214844 341.01129913 C276.11011693 341.01590855 274.76809046 341.02226175 273.42607456 341.03020811 C269.73944491 341.0469191 266.05322899 341.03864733 262.36659777 341.02626324 C258.39040157 341.01722229 254.4142771 341.03117764 250.43809509 341.04218292 C242.64951479 341.05998251 234.86108856 341.05612193 227.07250219 341.04453236 C220.74398092 341.03550461 214.41550287 341.03427118 208.08697701 341.03862762 C206.73673691 341.03954702 206.73673691 341.03954702 205.35921924 341.04048499 C203.53066482 341.04176387 201.70211042 341.04306073 199.87355603 341.04437536 C182.72192268 341.0557852 165.57037481 341.04266078 148.41875548 341.02117389 C133.69474133 341.0032995 118.97085331 341.00640904 104.24684143 341.02484894 C87.15569785 341.04624328 70.06462919 341.05468974 52.97347409 341.04239988 C51.15189271 341.04112566 49.33031133 341.03986818 47.50872993 341.03862762 C46.16428286 341.03770197 46.16428286 341.03770197 44.79267524 341.03675762 C38.46960863 341.03330063 32.14658946 341.0391405 25.8235302 341.04854584 C18.12096576 341.05975112 10.41856442 341.05675674 2.71601873 341.03542286 C-1.21564523 341.02489298 -5.14703702 341.02082336 -9.07869911 341.03401947 C-12.6755053 341.04590935 -16.27178616 341.039438 -19.86854445 341.01810926 C-21.7910173 341.01150055 -23.7135264 341.02460971 -25.63596159 341.03833818 C-26.77294585 341.0279072 -27.90993012 341.01747621 -29.08136845 341.00672913 C-30.55593387 341.00575501 -30.55593387 341.00575501 -32.06028849 341.00476122 C-35.36219263 340.36181142 -36.55619414 339.09090479 -38.63523865 336.50336456 C-39.34406168 333.59551575 -38.97495654 331.56082556 -38.63523865 328.50336456 C-37.21450876 326.30123324 -36.33211579 325.72390139 -33.86473083 324.94306183 C-31.26483064 324.43031323 -28.8635675 324.39098496 -26.21336365 324.40570831 C-25.18855896 324.40893097 -24.16375427 324.41215363 -23.1078949 324.41547394 C-21.51268005 324.4280423 -21.51268005 324.4280423 -19.88523865 324.44086456 C-18.80629333 324.44537628 -17.72734802 324.449888 -16.6157074 324.45453644 C-13.95549482 324.46630729 -11.295395 324.48275057 -8.63523865 324.50336456 C-8.63675753 323.82777315 -8.63827641 323.15218174 -8.63984132 322.45611787 C-8.72929797 282.44053398 -8.79795669 242.42496297 -8.83949997 202.40929939 C-8.84450296 197.60764647 -8.84968024 192.80599375 -8.85496521 188.00434113 C-8.85601445 187.04839364 -8.85706369 186.09244615 -8.85814473 185.10753056 C-8.87556357 169.61640399 -8.90710938 154.12533661 -8.94384983 138.63424519 C-8.98121814 122.74625522 -9.00346579 106.85829631 -9.01159263 90.9702642 C-9.01708894 81.16159965 -9.03446628 71.35310242 -9.06690452 61.54448935 C-9.08800171 54.82398649 -9.09444961 48.10357048 -9.08924416 41.38303688 C-9.08667487 37.5020158 -9.09069216 33.62128767 -9.11206055 29.7403183 C-9.13503205 25.53762545 -9.12722008 21.33556113 -9.11625671 17.13282013 C-9.12790808 15.89936804 -9.13955945 14.66591595 -9.15156388 13.39508653 C-9.14359969 12.27243575 -9.1356355 11.14978497 -9.12742996 9.99311447 C-9.12894884 9.02254931 -9.13046772 8.05198414 -9.13203263 7.05200791 C-8.13424472 1.93317473 -4.99671171 0.00403416 0 0 Z M13.36476135 25.50336456 C13.26771399 27.09848876 13.24104515 28.69793269 13.24171352 30.2960062 C13.23972248 31.33953253 13.23773143 32.38305885 13.23568004 33.45820719 C13.23859289 34.61868789 13.24150573 35.77916859 13.24450684 36.97481537 C13.24365241 38.19665195 13.24279799 39.41848853 13.24191767 40.67735046 C13.24054944 44.08418287 13.24369708 47.49095854 13.24869573 50.89778411 C13.25299679 54.56583081 13.25155405 58.23387562 13.25079346 61.90192413 C13.250268 68.26217887 13.25341704 74.62242339 13.2590313 80.98267555 C13.26714339 90.17863801 13.26976122 99.37459551 13.27101929 108.57056116 C13.27321026 123.48883893 13.27987159 138.40711124 13.2893219 153.32538605 C13.29849483 167.82082848 13.30557625 182.31626943 13.30982971 196.81171417 C13.31009244 197.70456313 13.31035516 198.59741208 13.31062584 199.51731706 C13.31193084 203.99628373 13.31319456 208.4752504 13.31443775 212.95421708 C13.32481179 250.13727013 13.34250545 287.32031683 13.36476135 324.50336456 C17.65476135 324.50336456 21.94476135 324.50336456 26.36476135 324.50336456 C26.36476135 229.13336456 26.36476135 133.76336456 26.36476135 35.50336456 C57.71476135 35.50336456 89.06476135 35.50336456 121.36476135 35.50336456 C121.36476135 130.87336456 121.36476135 226.24336456 121.36476135 324.50336456 C125.98476135 324.50336456 130.60476135 324.50336456 135.36476135 324.50336456 C135.36476135 229.13336456 135.36476135 133.76336456 135.36476135 35.50336456 C166.71476135 35.50336456 198.06476135 35.50336456 230.36476135 35.50336456 C230.36476135 130.87336456 230.36476135 226.24336456 230.36476135 324.50336456 C234.65476135 324.50336456 238.94476135 324.50336456 243.36476135 324.50336456 C243.43314927 286.46360966 243.48626458 248.42386567 243.51795734 210.38406174 C243.52170961 205.89656687 243.52559257 201.40907213 243.52955627 196.92157745 C243.53034321 196.02817057 243.53113014 195.13476368 243.53194091 194.21428386 C243.54500689 179.73450564 243.56866727 165.25476303 243.59621974 150.77500596 C243.62424083 135.92550074 243.64093062 121.07601422 243.64702684 106.22648364 C243.65115014 97.05813761 243.66418895 87.88989221 243.68851075 78.72157715 C243.70432729 72.44074054 243.70917101 66.15995621 243.70526548 59.87910112 C243.70333754 56.25140802 243.70636278 52.62389119 243.72237778 48.99622917 C243.73958847 45.06919474 243.73375194 41.14239256 243.7255249 37.2153244 C243.73426343 36.06066939 243.74300195 34.90601437 243.75200528 33.71636981 C243.74603213 32.66886138 243.74005899 31.62135296 243.73390484 30.54210186 C243.735044 29.63494999 243.73618316 28.72779812 243.73735684 27.7931568 C243.28606078 25.01970881 242.58996678 24.171276 240.36476135 22.50336456 C236.48288084 21.20940439 232.80733116 21.35872973 228.76152039 21.36292267 C227.87227053 21.35995155 226.98302067 21.35698042 226.06682384 21.35391927 C223.07514384 21.34521985 220.0835038 21.34372298 217.09181213 21.34223175 C214.9517254 21.33760451 212.8116395 21.33257997 210.67155457 21.32718658 C204.84926844 21.31405271 199.02699385 21.30761585 193.20469522 21.30317593 C189.56951014 21.30024717 185.93432823 21.29614276 182.29914474 21.29167175 C170.93218186 21.27799505 159.5652262 21.26832889 148.19825566 21.26446986 C135.0640126 21.25998668 121.92987349 21.24242739 108.79566205 21.21346927 C98.65123153 21.19187699 88.50683031 21.18176692 78.36237705 21.18042874 C72.29968644 21.17937908 66.23709351 21.17343679 60.17442703 21.15560913 C54.47321067 21.1391706 48.77216587 21.13695243 43.0709343 21.14574814 C40.9767028 21.14652074 38.88246223 21.14214655 36.78825378 21.13228989 C33.93261957 21.11963605 31.07759904 21.12541143 28.2219696 21.13587189 C27.39035344 21.12781548 26.55873728 21.11975908 25.70192063 21.11145854 C20.66901753 21.15467245 17.09774727 21.77037865 13.36476135 25.50336456 Z " fill="#ffffff" transform="translate(108.63523864746094,114.49663543701172)"/>
<path d="M0 0 C1.20214142 -0.00861557 2.40428284 -0.01723114 3.64285278 -0.02610779 C6.9322476 -0.04490014 10.22100659 -0.04566963 13.51042557 -0.03678632 C16.2590113 -0.03166966 19.00750703 -0.03897433 21.75608349 -0.04625839 C28.24078963 -0.06324759 34.72526039 -0.05970109 41.20996094 -0.04296875 C47.89543726 -0.02604125 54.58026094 -0.04189201 61.26566601 -0.07419163 C67.01106942 -0.10089602 72.75626978 -0.10816154 78.50172901 -0.09967655 C81.93089602 -0.09475051 85.35967023 -0.09694484 88.78878784 -0.11746407 C92.61228255 -0.13485039 96.43437468 -0.12041386 100.2578125 -0.09765625 C101.95830246 -0.11519455 101.95830246 -0.11519455 103.69314575 -0.13308716 C111.34730428 -0.04022505 111.34730428 -0.04022505 115.27226257 2.84057617 C116.78628052 5.0365038 117.92975091 6.72842069 118.70629883 9.25048828 C118.92614944 9.93792618 119.14600006 10.62536407 119.37251282 11.33363342 C119.58731796 12.06086105 119.80212311 12.78808868 120.0234375 13.53735352 C120.26051926 14.29765366 120.49760101 15.0579538 120.74186707 15.84129333 C121.23720577 17.44011169 121.72507196 19.04126241 122.20581055 20.64453125 C122.94161236 23.09663413 123.70012751 25.54078401 124.46289062 27.98461914 C124.94274349 29.54345292 125.42130419 31.10268517 125.8984375 32.66235352 C126.23582695 33.75623131 126.23582695 33.75623131 126.58003235 34.87220764 C127.59610323 38.27895686 128.12890625 40.94204024 128.12890625 44.53344727 C76.64890625 44.53344727 25.16890625 44.53344727 -27.87109375 44.53344727 C-27.13632644 39.39007611 -26.21346624 34.71007108 -24.76171875 29.77172852 C-24.55303162 29.05865036 -24.34434448 28.3455722 -24.1293335 27.61088562 C-23.68842052 26.11505381 -23.24455048 24.62009072 -22.79785156 23.12597656 C-22.12118918 20.84626877 -21.46884913 18.56042035 -20.81640625 16.27368164 C-20.38299738 14.81425485 -19.94815033 13.35525423 -19.51171875 11.89672852 C-19.32192444 11.21749832 -19.13213013 10.53826813 -18.93658447 9.8384552 C-15.82433849 -0.25785122 -9.25421572 -0.05327161 0 0 Z " fill="#ffffff" transform="translate(186.87109375,56.466552734375)"/>
<path d="M0 0 C0.93099014 -0.00938095 1.86198029 -0.0187619 2.82118225 -0.02842712 C3.81919357 -0.01719315 4.8172049 -0.00595917 5.84545898 0.00561523 C6.87589828 0.00416 7.90633759 0.00270477 8.96800232 0.00120544 C11.14422435 0.00286414 13.32045814 0.01442208 15.49658203 0.03515625 C18.83278028 0.06413279 22.16739196 0.0557598 25.50366211 0.04272461 C27.61760214 0.04896131 29.73153715 0.05735171 31.84545898 0.06811523 C32.84549454 0.0651796 33.84553009 0.06224396 34.87586975 0.05921936 C35.80370773 0.07190353 36.73154572 0.08458771 37.6875 0.09765625 C38.91183495 0.10576073 38.91183495 0.10576073 40.16090393 0.11402893 C42.83410452 0.60329887 43.58645906 1.40819853 45.27905273 3.50170898 C45.58591233 6.56744384 45.70929442 9.43149503 45.69897461 12.49951172 C45.70744415 13.42011383 45.7159137 14.34071594 45.72463989 15.28921509 C45.74807479 18.33805078 45.7490305 21.38638372 45.74780273 24.43530273 C45.75490039 26.55135807 45.7625988 28.66741147 45.77087402 30.78346252 C45.78433377 35.22125598 45.78588087 39.6588715 45.7800293 44.09667969 C45.7741319 49.78787044 45.80471993 55.47820851 45.84514618 61.16923428 C45.87097685 65.54011141 45.87390479 69.91078199 45.87025452 74.28172493 C45.87195011 76.38012905 45.88163465 78.47854226 45.8993988 80.57687187 C45.92149676 83.51000142 45.91193318 86.44138891 45.89428711 89.37451172 C45.90755035 90.24373764 45.9208136 91.11296356 45.93447876 92.00852966 C45.87666408 96.13752648 45.84466494 97.86522689 43.02355957 101.03981018 C40.28945354 102.49616885 38.80636811 103.00641956 35.75170898 103.01928711 C34.88731201 103.03189575 34.02291504 103.04450439 33.13232422 103.05749512 C32.21136963 103.04939819 31.29041504 103.04130127 30.34155273 103.03295898 C29.38385986 103.03678589 28.42616699 103.04061279 27.43945312 103.04455566 C25.41885321 103.04727219 23.39821798 103.03992921 21.37768555 103.02319336 C18.28932098 103.00178018 15.20328266 103.02300399 12.11499023 103.04858398 C10.14883928 103.04594066 8.18268977 103.04081559 6.21655273 103.03295898 C5.29559814 103.04105591 4.37464355 103.04915283 3.42578125 103.05749512 C2.56138428 103.04488647 1.6969873 103.03227783 0.80639648 103.01928711 C0.05092529 103.01610474 -0.7045459 103.01292236 -1.48291016 103.00964355 C-4.88482816 102.23755995 -6.39302947 101.11321588 -8.72094727 98.50170898 C-9.45678902 95.49770286 -9.39401134 92.56242957 -9.35205078 89.48217773 C-9.35920609 88.57118317 -9.36636139 87.6601886 -9.37373352 86.72158813 C-9.39064224 83.71028496 -9.37120508 80.70046597 -9.34985352 77.68920898 C-9.35068201 75.59700395 -9.35314066 73.50479899 -9.35716248 71.41259766 C-9.36002197 67.02771411 -9.34530412 62.64334094 -9.31787109 58.25854492 C-9.28378838 52.63581362 -9.28980526 47.01399508 -9.30853367 41.39122009 C-9.31909845 37.07092675 -9.31017051 32.75084608 -9.29514885 28.43057251 C-9.28996277 26.3573164 -9.29045399 24.28403812 -9.2966938 22.21078491 C-9.30213961 19.31378363 -9.281791 16.41809229 -9.25439453 13.52124023 C-9.26092041 12.6629361 -9.26744629 11.80463196 -9.27416992 10.9203186 C-9.21370942 7.16353709 -9.14734539 5.12289455 -6.98266602 1.96934509 C-4.39836409 0.29238379 -3.05843229 0.00062203 0 0 Z M12.90405273 21.68920898 C11.99796156 22.93806492 11.12957705 24.21436647 10.27905273 25.50170898 C9.22717773 27.02731445 9.22717773 27.02731445 8.15405273 28.58374023 C7.40090741 29.7209864 6.65093604 30.86034049 5.90405273 32.00170898 C5.19506836 33.08452148 4.48608398 34.16733398 3.75561523 35.28295898 C2.05472902 38.99071095 2.09810197 40.64837199 3.27905273 44.50170898 C4.85600905 46.58026979 4.85600905 46.58026979 7.27905273 47.50170898 C10.33795415 47.74221705 10.33795415 47.74221705 13.27905273 46.50170898 C15.54230519 43.52407856 15.54230519 43.52407856 17.27905273 40.50170898 C17.93905273 40.50170898 18.59905273 40.50170898 19.27905273 40.50170898 C19.73280273 41.28545898 20.18655273 42.06920898 20.65405273 42.87670898 C22.38925781 45.67973257 23.15561819 46.58305177 26.27905273 47.50170898 C29.41127271 47.34891777 30.8147935 46.91954229 33.15405273 44.81420898 C34.741297 41.55154021 34.19447004 40.01691143 33.27905273 36.50170898 C31.82052816 33.60583427 30.10509251 30.90748419 28.34155273 28.18920898 C27.88586914 27.4615332 27.43018555 26.73385742 26.96069336 25.98413086 C24.7148698 22.11883761 24.7148698 22.11883761 21.27905273 19.50170898 C17.3436227 18.88953098 15.8809145 18.94736262 12.90405273 21.68920898 Z M4.46655273 56.68920898 C2.9496231 59.00452264 2.57944774 60.7501514 2.27905273 63.50170898 C3.05803062 65.75422019 3.05803062 65.75422019 4.44702148 67.85717773 C4.92848633 68.64415039 5.40995117 69.43112305 5.90600586 70.24194336 C6.42098633 71.04954102 6.9359668 71.85713867 7.46655273 72.68920898 C8.21001953 73.91800781 8.21001953 73.91800781 8.96850586 75.17163086 C12.12784066 80.43542215 12.12784066 80.43542215 17.27905273 83.50170898 C20.5852102 83.37925871 21.84524748 82.96492477 24.12280273 80.53295898 C25.86574131 77.86922267 27.59871615 75.2055233 29.27905273 72.50170898 C29.80499023 71.69217773 30.33092773 70.88264648 30.87280273 70.04858398 C33.06211021 66.47271511 34.27905273 64.32052167 34.27905273 60.06420898 C33.44204575 57.19620375 33.44204575 57.19620375 30.27905273 55.50170898 C27.36464574 54.83449362 27.36464574 54.83449362 24.27905273 55.50170898 C22.12604605 57.32952195 20.89713102 59.1221821 19.27905273 61.50170898 C19.27905273 62.16170898 19.27905273 62.82170898 19.27905273 63.50170898 C18.61905273 63.50170898 17.95905273 63.50170898 17.27905273 63.50170898 C17.01092773 62.73858398 16.74280273 61.97545898 16.46655273 61.18920898 C14.98152332 57.82564235 14.98152332 57.82564235 12.27905273 55.50170898 C9.12578848 55.10755095 7.16829706 54.91910063 4.46655273 56.68920898 Z " fill="#ffffff" transform="translate(396.720947265625,250.498291015625)"/>
</svg>
