
<svg width="28" height="25" viewBox="0 0 28 25" fill="none" xmlns="http://www.w3.org/2000/svg">
<path fill-rule="evenodd" clip-rule="evenodd" d="M4.16667 23.6042C4.54861 23.6042 4.86111 23.9167 4.86111 24.2986C4.86111 24.6805 4.54861 24.993 4.16667 24.993C3.78472 24.993 3.47222 24.6805 3.47222 24.2986C3.47222 23.9167 3.78472 23.6042 4.16667 23.6042ZM9.72222 23.6042H6.25C5.86805 23.6042 5.55555 23.9167 5.55555 24.2986C5.55555 24.6805 5.86805 24.993 6.25 24.993H9.72222C10.1042 24.993 10.4167 24.6805 10.4167 24.2986C10.4167 23.9167 10.1042 23.6042 9.72222 23.6042ZM10.8403 4.875C9.83333 5.35416 8.89583 6.05555 8.0625 6.90972C7.44444 7.54166 6.88194 8.25694 6.39583 9.02777H2.77778C2.39583 9.02777 2.08333 9.34027 2.08333 9.72222C2.08333 10.1042 2.39583 10.4167 2.77778 10.4167H5.61111C4.83333 11.9792 4.34028 13.6736 4.20139 15.2778H2.77778C2.39583 15.2778 2.08333 15.5903 2.08333 15.9722C2.08333 16.3542 2.39583 16.6667 2.77778 16.6667H4.18055C4.45139 21.6875 8.65277 23.6111 13.8889 23.6111C15.3819 23.6111 16.7986 23.4514 18.0486 23.1111C18.5691 23.7056 19.2109 24.1818 19.9308 24.5076C20.6507 24.8334 21.432 25.0013 22.2222 25C25.2917 25 27.7778 22.5139 27.7778 19.4444C27.7778 16.7847 25.9028 14.5556 23.3958 14.0139C22.8472 11.1806 21.2708 8.25 19.118 6.34722C18.4375 5.75 17.7083 5.25 16.9305 4.88194L18.0069 1.97917C18.1042 1.71528 18.0347 1.40972 17.8194 1.22222C17.8194 1.22222 16.5139 0 13.8819 0C11.25 0 9.94444 1.22222 9.94444 1.22222C9.72916 1.40972 9.65972 1.71528 9.75694 1.97917L10.8333 4.88194L10.8403 4.875ZM22.2222 15.2708C24.5208 15.2708 26.3889 17.1389 26.3889 19.4375C26.3889 21.7361 24.5208 23.6042 22.2222 23.6042C19.9236 23.6042 18.0555 21.7361 18.0555 19.4375C18.0555 17.1389 19.9236 15.2708 22.2222 15.2708ZM21.9514 13.8889C21.3958 11.4653 20.0347 9.00694 18.2014 7.38194C16.9444 6.27083 15.4722 5.54861 13.8889 5.54861C12.0764 5.54861 10.4167 6.48611 9.05555 7.875C6.9375 10.0417 5.55555 13.3125 5.55555 16.1389C5.55555 20.6944 9.33333 22.2153 13.8889 22.2153C15.0764 22.2153 16.2014 22.1111 17.2292 21.8819C16.8567 21.121 16.6642 20.2847 16.6667 19.4375C16.6667 18.011 17.2155 16.6392 18.1993 15.6063C19.1832 14.5734 20.5266 13.9584 21.9514 13.8889ZM3.47222 20.1319H0.694444C0.3125 20.1319 0 20.4444 0 20.8264C0 21.2083 0.3125 21.5208 0.694444 21.5208H3.47222C3.85417 21.5208 4.16667 21.2083 4.16667 20.8264C4.16667 20.4444 3.85417 20.1319 3.47222 20.1319ZM21.5278 17.3542V19.4375C21.5278 19.8194 21.8403 20.1319 22.2222 20.1319H24.3055C24.6875 20.1319 25 19.8194 25 19.4375C25 19.0555 24.6875 18.743 24.3055 18.743H22.9167V17.3542C22.9167 16.9722 22.6042 16.6597 22.2222 16.6597C21.8403 16.6597 21.5278 16.9722 21.5278 17.3542ZM0.694444 15.2708C1.07639 15.2708 1.38889 15.5833 1.38889 15.9653C1.38889 16.3472 1.07639 16.6597 0.694444 16.6597C0.3125 16.6597 0 16.3472 0 15.9653C0 15.5833 0.3125 15.2708 0.694444 15.2708ZM15.6319 4.38889C15.8681 3.75694 16.5208 1.99305 16.5208 1.99305C16.0625 1.73611 15.1806 1.375 13.8889 1.375C12.5972 1.375 11.7153 1.73611 11.2569 1.99305L12.1458 4.38889C12.7153 4.23611 13.2986 4.15972 13.8889 4.15972C14.4792 4.15972 15.0694 4.24305 15.6319 4.38889ZM2.77778 2.07639C3.15972 2.07639 3.47222 2.38889 3.47222 2.77083C3.47222 3.15278 3.15972 3.46528 2.77778 3.46528C2.39583 3.46528 2.08333 3.15278 2.08333 2.77083C2.08333 2.38889 2.39583 2.07639 2.77778 2.07639ZM8.33333 2.07639H4.86111C4.47917 2.07639 4.16667 2.38889 4.16667 2.77083C4.16667 3.15278 4.47917 3.46528 4.86111 3.46528H8.33333C8.71527 3.46528 9.02777 3.15278 9.02777 2.77083C9.02777 2.38889 8.71527 2.07639 8.33333 2.07639Z" fill="white"/>
<path d="M16.6612 12.8575L16.2956 13.6904H12.0801L12.4425 12.8575H16.6612ZM13.7237 17.7788L11.9434 15.102L12.0546 14.3962H13.1546C13.4174 14.3962 13.6442 14.3528 13.8349 14.2659C14.0278 14.1768 14.1825 14.0529 14.2991 13.8939C14.4178 13.7328 14.4951 13.5442 14.5311 13.328C14.5884 13.0038 14.5386 12.7431 14.3817 12.546C14.2249 12.3489 13.9367 12.2503 13.517 12.2503H12.3217L12.7286 11.268H13.676C14.2101 11.268 14.6392 11.3506 14.9635 11.5159C15.2878 11.6791 15.5114 11.9101 15.6343 12.209C15.7593 12.5078 15.788 12.8575 15.7201 13.2581C15.6608 13.612 15.5442 13.9278 15.3704 14.2055C15.1966 14.481 14.955 14.7088 14.6456 14.889C14.3383 15.067 13.9525 15.1878 13.4884 15.2514L13.4598 15.2577L15.0621 17.7216L15.0493 17.7788H13.7237ZM16.9314 11.268L16.5562 12.1136L13.1419 12.1009L13.5107 11.268H16.9314Z" fill="white"/>
</svg>
