
<svg width="30" height="30" viewBox="0 0 32 32" fill="currentColor" xmlns="http://www.w3.org/2000/svg">
<g clip-path="url(#clip0_1684_3641)">
<path  d="M22.6667 10.6667V9.33333C22.6667 4.18667 18.48 0 13.3333 0C8.18667 0 4 4.18667 4 9.33333V10.6667H0V28C0 30.2053 1.79467 32 4 32H16.968C14.7453 30.044 13.3333 27.1867 13.3333 24H12V18.6667H14.7827C16.6307 15.4853 20.064 13.3333 24 13.3333C24.9227 13.3333 25.812 13.4627 26.6667 13.684V10.6667H22.6667ZM20 10.6667H6.66667V9.33333C6.66667 5.65733 9.65733 2.66667 13.3333 2.66667C17.0093 2.66667 20 5.65733 20 9.33333V10.6667ZM24 16C19.5813 16 16 19.5813 16 24C16 28.4187 19.5813 32 24 32C28.4187 32 32 28.4187 32 24C32 19.5813 28.4187 16 24 16ZM24.8253 27.2187C24.3213 27.7227 23.652 28 22.94 28H22.9373C22.2253 28 21.556 27.7213 21.0533 27.2173L18.3707 24.5347L20.256 22.6493L22.94 25.3333L27.76 20.5133L29.6453 22.3987L24.8253 27.2187Z" />
</g>
<defs>
<clipPath id="clip0_1684_3641">
<rect width="32" height="32" />
</clipPath>
</defs>
</svg>
