<svg xmlns="http://www.w3.org/2000/svg" width="30.607" height="30.607" viewBox="0 0 30.607 30.607">
  <g id="Group_13108" data-name="Group 13108" transform="translate(-2.05 -2.05)">
    <path id="Path_319" data-name="Path 319" d="M7.665,11.554l2.4-2.014,2.014,2.4,4.8-4.028,2.014,2.4-7.2,6.042Z" transform="translate(2.898 3.038)" fill="#fff" stroke-width="1"/>
    <path id="Path_320" data-name="Path 320" d="M23.944,6.221a12.535,12.535,0,0,1,1.037,16.55q.036.032.07.066L31.7,29.483A1.567,1.567,0,0,1,29.483,31.7l-6.646-6.646q-.034-.035-.066-.07A12.533,12.533,0,1,1,23.944,6.221ZM21.729,21.729a9.4,9.4,0,1,0-13.293,0A9.4,9.4,0,0,0,21.729,21.729Z" transform="translate(0 0)" fill="#fff" stroke-width="1" fill-rule="evenodd"/>
  </g>
</svg>
