<svg xmlns="http://www.w3.org/2000/svg" width="28" height="28" viewBox="0 0 28 28">
  <g id="Group_13144" data-name="Group 13144" transform="translate(-0.35 -0.268)">
    <path id="Path_6165" data-name="Path 6165" d="M27.092,25H2v1.792H3.792v1.792H5.585V26.792h4.481v1.792h1.792V26.792h4.481v1.792H18.13V26.792h4.481v1.792H24.4V26.792h2.688Z" transform="translate(-0.238 -2.625)" fill="currentColor"/>
    <path id="Path_6166" data-name="Path 6166" d="M7.377,15.377H2V13.585H7.377V11.792H2V10H7.377a1.794,1.794,0,0,1,1.792,1.792v1.792a1.794,1.794,0,0,1-1.792,1.792Z" transform="translate(-0.238 -1.067)" />
    <path id="Path_6167" data-name="Path 6167" d="M25.792,13.168,18.1,6.12A8.045,8.045,0,0,0,12.653,4H2V5.792h8.961V9.377a1.794,1.794,0,0,0,1.792,1.792h8.205l3.622,3.32a2.215,2.215,0,0,1-1.5,3.849H2V20.13H23.083a4.008,4.008,0,0,0,2.709-6.963ZM12.754,9.377V5.8a6.253,6.253,0,0,1,4.138,1.644L19,9.377Z" transform="translate(-0.238 -0.444)" />
    <rect id="_Transparent_Rectangle_" data-name="&lt;Transparent Rectangle&gt;" width="28" height="28" transform="translate(0.35 0.268)" fill="none"/>
  </g>
</svg>
