
<svg width="25" height="29" viewBox="0 0 25 29" fill="none" xmlns="http://www.w3.org/2000/svg">
<path d="M20.5 9C18.0186 9 16 6.98138 16 4.5C16 2.01863 18.0186 0 20.5 0C22.9814 0 25 2.01863 25 4.5C25 6.98138 22.9814 9 20.5 9ZM20.5 0.75C18.4323 0.75 16.75 2.43225 16.75 4.5C16.75 6.56775 18.4323 8.25 20.5 8.25C22.5677 8.25 24.25 6.56775 24.25 4.5C24.25 2.43225 22.5677 0.75 20.5 0.75ZM21.4375 6.12375C21.6171 6.02025 21.6786 5.79075 21.5747 5.6115L20.875 4.3995V2.25C20.875 2.043 20.7074 1.875 20.5 1.875C20.2926 1.875 20.125 2.043 20.125 2.25V4.5C20.125 4.566 20.1423 4.6305 20.1753 4.6875L20.9253 5.9865C20.995 6.10687 21.1206 6.174 21.2504 6.174C21.3141 6.174 21.3786 6.15788 21.4375 6.12375Z" fill="white"/>
<path d="M11.729 10.5833C11.729 10.8264 11.6324 11.0596 11.4605 11.2315C11.2886 11.4034 11.0554 11.5 10.8123 11.5H7.14563C6.90251 11.5 6.66936 11.4034 6.49745 11.2315C6.32554 11.0596 6.22896 10.8264 6.22896 10.5833C6.22896 10.3402 6.32554 10.1071 6.49745 9.93515C6.66936 9.76324 6.90251 9.66667 7.14563 9.66667H10.8123C11.0554 9.66667 11.2886 9.76324 11.4605 9.93515C11.6324 10.1071 11.729 10.3402 11.729 10.5833ZM17.229 11.2433V20.8289C17.2286 21.9807 16.7947 23.0901 16.0135 23.9364L17.1593 26.7359C17.2049 26.8474 17.228 26.9667 17.2275 27.0872C17.2269 27.2076 17.2026 27.3267 17.156 27.4378C17.1094 27.5488 17.0414 27.6496 16.9558 27.7343C16.8703 27.8191 16.7689 27.8861 16.6574 27.9317C16.5459 27.9773 16.4266 28.0004 16.3062 27.9999C16.1858 27.9993 16.0666 27.975 15.9556 27.9284C15.8445 27.8818 15.7438 27.8138 15.659 27.7283C15.5743 27.6427 15.5072 27.5413 15.4616 27.4298L14.479 25.0163C12.7573 25.8141 10.876 26.2076 8.97896 26.1667C7.08192 26.2073 5.20069 25.8138 3.47896 25.0163L2.49538 27.4298C2.45096 27.5429 2.38452 27.6459 2.29993 27.733C2.21534 27.8202 2.11428 27.8896 2.00262 27.9374C1.89096 27.9851 1.77093 28.0102 1.6495 28.0111C1.52807 28.0121 1.40766 27.9889 1.29526 27.9429C1.18286 27.897 1.08072 27.8291 0.99476 27.7434C0.908802 27.6576 0.840743 27.5556 0.794537 27.4433C0.748331 27.331 0.724899 27.2106 0.725601 27.0892C0.726304 26.9678 0.751127 26.8477 0.798629 26.7359L1.94355 23.9364C1.16266 23.09 0.72904 21.9806 0.728962 20.8289V11.2433C0.72596 10.2712 1.03328 9.32338 1.6062 8.53795C2.17912 7.75251 2.98774 7.1704 3.91438 6.87633C5.54777 6.32674 7.25587 6.03118 8.97896 6C10.7022 6.03093 12.4103 6.32681 14.0435 6.87725C14.9703 7.1709 15.779 7.75277 16.352 8.5381C16.925 9.32344 17.2322 10.2712 17.229 11.2433ZM15.3956 16.7589C13.972 18.8929 11.7748 20.6667 8.97896 20.6667C6.18313 20.6667 3.98588 18.8929 2.5623 16.7589V20.8289C2.55795 21.3149 2.6843 21.7931 2.92813 22.2135C3.17196 22.634 3.52431 22.9811 3.9483 23.2187C5.50494 24.0069 7.23507 24.3902 8.97896 24.3333C10.7226 24.3905 12.4525 24.0071 14.0087 23.2187C14.4329 22.9813 14.7855 22.6342 15.0295 22.2138C15.2735 21.7933 15.4 21.315 15.3956 20.8289V16.7589ZM15.3956 11.5V11.2433C15.3976 10.6603 15.2136 10.0918 14.8701 9.62059C14.5267 9.1494 14.0419 8.80009 13.4862 8.6235C12.033 8.13115 10.5129 7.86466 8.97896 7.83333C7.44507 7.86488 5.92505 8.13105 4.47171 8.62258C3.91604 8.79947 3.43127 9.14899 3.08788 9.62031C2.74448 10.0916 2.56037 10.6602 2.5623 11.2433V11.5C2.5623 13.7394 4.98688 18.8333 8.97896 18.8333C12.971 18.8333 15.3956 13.7394 15.3956 11.5ZM8.97896 21.5833C8.79766 21.5833 8.62043 21.6371 8.46969 21.7378C8.31894 21.8385 8.20145 21.9817 8.13207 22.1492C8.06269 22.3167 8.04454 22.501 8.07991 22.6788C8.11528 22.8566 8.20258 23.02 8.33078 23.1482C8.45898 23.2764 8.62231 23.3637 8.80013 23.3991C8.97795 23.4344 9.16226 23.4163 9.32976 23.3469C9.49725 23.2775 9.64042 23.16 9.74114 23.0093C9.84187 22.8585 9.89563 22.6813 9.89563 22.5C9.89563 22.2569 9.79905 22.0237 9.62714 21.8518C9.45523 21.6799 9.22208 21.5833 8.97896 21.5833Z" fill="white"/>
</svg>
