<svg id="SvgjsSvg1042" width="100" height="100" xmlns="http://www.w3.org/2000/svg" version="1.1" xmlns:xlink="http://www.w3.org/1999/xlink" xmlns:svgjs="http://svgjs.com/svgjs"><defs id="SvgjsDefs1043"></defs><g id="SvgjsG1044"><svg xmlns="http://www.w3.org/2000/svg" enable-background="new 0 0 98 98" viewBox="0 0 98 98"><path fill="#30302f" d="M73.8286,92.3225c-1.0713,5.3354-6.2185,4.6551-9.6882,4.6056c-1.8315-0.0261-3.663-0.0492-5.4946-0.0691
		c-5.9254-0.0645-11.8512-0.0967-17.7769-0.0966c-2.9568,0.0001-5.9345,0.1204-8.8892,0.0247
		c-2.3744-0.0769-4.5141-0.0157-6.3607-1.8101c-2.7792-2.7005-2.0434-7.3437-2.0576-10.8503
		c-0.0183-4.5221-0.0367-0.4554-0.055-4.9775c-0.0482-11.9002-0.0965-23.8004-0.1447-35.7006
		c-0.0482-11.9002-0.0965-23.8004-0.1447-35.7006c-0.007-1.7278,0.6859-3.1742,1.8915-4.412
		c2.3772-2.4408,5.2895-2.3647,8.3922-2.2977c3.5496,0.0767,7.0996,0.1315,10.6499,0.1645
		c7.1005,0.066,14.2018,0.0446,21.3018-0.0641c1.5133-0.0232,2.8765-0.1485,4.3243,0.4133
		c1.3513,0.5244,2.5564,1.4379,3.3925,2.6252c3.6628,5.2009-0.1996,4.2847,0.834,72.3518
		C74.0827,81.7682,74.6531,88.2163,73.8286,92.3225z" class="color30302F svgShape"></path><path fill="#00c6ff" d="M71.83,71.883c0.3339,13.6233,0.5371,15.7002-0.0631,18.7139c-0.7501,3.6003-4.1396,2.9144-7.5963,2.9144
		c-1.8307-0.0316-3.672-0.0526-5.5027-0.0737c-5.9655-0.0631-11.9521-0.0947-17.8019-0.0947
		c-12.7469,0-15.5782,1.7625-15.2348-8.5748c0.021-0.6839,0.0421-1.3362,0.0315-1.9675L25.3261,7.7455
		c-0.0105-1.0943,0.3998-2.0306,1.2942-2.9459c2.3008-2.3365,6.0936-1.5452,6.8388-1.6624
		c2.6303,0.0631,5.2501,0.1052,7.8804,0.1368c0.0737,0.3051,0.1788,0.6102,0.3051,0.8943c0.3787,0.8207,1.0206,1.5677,1.8728,1.8518
		c0.7049,0.2314,1.4729,0.1368,2.2094,0.0737c1.5466-0.1262,3.1038-0.1368,4.6398-0.0105c1.1784,0.0947,2.4199,0.2525,3.4721-0.263
		c0.8312-0.4103,1.4203-1.1784,1.7886-2.0201c0.0631-0.1473,0.1263-0.3052,0.1789-0.4629c3.23-0.0105,6.4705-0.0526,9.6796-0.0947
		c1.4936,0.0109,4.1008-0.4843,5.9655,2.1464C74.5395,9.7793,70.8495,10.7777,71.83,71.883z" class="colorF26F36 svgShape"></path><path fill="#fff" d="M73.5785,3.8892c-2.6005-3.6902-6.0144-3.0732-8.1338-3.251c-2.9412,0.045-5.8962,0.0663-8.8506,0.0816
		c-0.0556-0.0364-0.1188-0.0628-0.1885-0.0748c-0.1305-0.0238-0.259,0.0094-0.3627,0.0798
		C48.8897,0.7573,41.9638,0.72,33.4633,0.5376c-3.3696-0.0717-6.252-0.0776-8.7129,2.4492c-1.3564,1.3926-2.04,2.9951-2.0332,4.7627
		c0.3071,73.665,0.2793,73.4426,0.3184,73.9287c0.3688,4.3334-1.224,10.2963,2.2344,13.6572
		c1.8662,1.8125,3.9873,1.873,6.2344,1.9375c29.2377,0.1744,34.5662,0.209,35.1455,0.209c3.0977,0,6.7686-0.5752,7.6689-5.0605
		c0.626-3.1191,0.4648-7.499,0.3086-11.7344c-0.3862-10.6525-0.5777-39.754,0.4463-63.9512
		C75.4535,7.7739,75.5024,6.6226,73.5785,3.8892z M71.2777,90.4956c-0.4482,2.1475-1.9219,2.5674-4.3164,2.5674
		c-38.9323,0-38.2959,0.0283-39.6182-1.3398c-1.6962-1.7513-1.1397-6.4228-1.1807-8.9248L25.8266,7.7407
		c-0.0194-1.9231,1.7044-4.1416,5.7686-4.1416c0.3841,0,1.9085,0.0671,1.8525,0.0381c2.5068,0.0605,5.0049,0.1016,7.5117,0.1318
		c0.4761,1.4992,1.4499,2.4088,2.4014,2.7256c0.7829,0.2582,1.5949,0.1697,2.4072,0.0967
		c5.8552-0.4699,8.6035,1.3384,10.3184-2.5937c0.0234-0.0527,0.0459-0.1064,0.0674-0.1611
		c3.1182-0.0127,6.2441-0.0537,9.3818-0.0938c1.9379,0,3.9252-0.2984,5.5068,1.9346c1.3711,1.9482,1.3057,3.252,0.9473,10.4922
		C70.046,55.3855,72.2462,85.6356,71.2777,90.4956z M55.7009,1.7281c-0.0975,0.5062-0.2049,0.9927-0.3685,1.4501
		c-0.0488,0.1445-0.1064,0.2891-0.1631,0.4219c-1.4381,3.2878-3.7702,1.5298-9.4854,1.9951
		c-0.4648,0.0316-1.3982,0.1508-2.0088-0.0498c-0.9593-0.3203-1.5948-1.3444-1.8574-2.416
		c-0.1431-0.4762-0.2277-0.9802-0.3002-1.4672C42.9187,1.6794,47.0366,1.7639,55.7009,1.7281z M74.0746,16.6929
		c-1.026,24.2113-0.8372,53.3894-0.4463,64.0313c0.1543,4.1777,0.3125,8.4971-0.29,11.5c-0.751,3.7422-3.6582,4.2578-6.6885,4.2578
		c-0.8288,0-6.0947-0.0358-35.1172-0.209c-2.1348-0.0605-3.9795-0.1133-5.5654-1.6543c-2.1436-2.084-2.0371-5.5391-1.9434-8.5879
		c0.0205-0.6582,0.04-1.2998,0.0371-1.9063c-0.0088-2.2813-0.0176-2.3955-0.0283-2.5264
		c-0.0345-0.4144-0.0113-0.9279-0.3154-73.8525c-0.0059-1.5176,0.5664-2.8467,1.75-4.0615c2.2062-2.265,4.8627-2.2133,8.0225-2.1455
		c2.3372,0.0501,4.6747,0.0764,7.0122,0.108c0.0532,0.3664,0.1207,0.7433,0.2012,1.1183c-2.4135-0.0303-4.825-0.0689-7.3218-0.1218
		c-0.2025,0.0298-0.9404-0.0439-1.7861-0.0439c-4.6883,0-6.7915,2.7364-6.7686,5.1484l0.3359,75.0615
		c0.0447,2.6916-0.5839,7.4945,1.4619,9.6094c1.6713,1.7278,0.406,1.6445,40.3369,1.6445c2.3867,0,4.6787-0.4072,5.2959-3.3682
		c1.0318-5.1787-1.2476-34.6078,0.7314-74.4756c0.373-7.5313,0.4404-8.8887-1.1289-11.1191
		c-1.598-2.2533-3.6751-2.5304-6.3808-2.3574c-2.9871,0.0391-6.0024,0.0744-9.0113,0.0883c0.0966-0.3633,0.183-0.7337,0.2526-1.1122
		c2.9172-0.0154,5.8352-0.0361,8.7402-0.0805c1.6039-0.0604,2.8515-0.1186,4.1357,0.3799c1.2793,0.4971,2.4033,1.3652,3.1641,2.4473
		C74.4897,6.9204,74.4496,7.8452,74.0746,16.6929z" class="color3F4040 svgShape"></path><path fill="#00c6ff" d="M34.4608 30.5491c-.1449 0-.2625-.1171-.263-.262-.0046-1.2669-.0329-2.5296-.0616-3.7924-.0221-.9751-.0437-1.9512-.055-2.9283-.4264.5055-.9879.8918-1.6219 1.1035-.1361.0452-.2867-.0288-.3329-.1664-.0457-.1377.0288-.2867.1664-.3329.7773-.2589 1.4528-.8549 1.8073-1.5946.0529-.1099.1736-.1695.2954-.1428.1192.0277.2045.1336.205.2558.0046 1.2679.0329 2.5306.0616 3.7944.0283 1.2658.057 2.5317.0616 3.8016.0005.1449-.1166.263-.262.2641C34.4613 30.5491 34.4613 30.5491 34.4608 30.5491zM41.5292 30.2758c-.001 0-.0026 0-.0041 0l-3.9039-.0596c-.1423-.0021-.2569-.1171-.2589-.2589-.0103-.7295.4834-1.2761.7788-1.5371.7959-.7062 2.2056-1.1413 2.8856-2.5625.3442-.7151.355-1.534.0283-2.1351-.5925-1.0883-2.0856-1.2753-2.8055.0801-.2553.4798-.3483 1.0388-.4007 1.4713-.0175.1449-.1521.2466-.2923.2291-.1444-.0175-.2471-.148-.2296-.2928.0575-.4778.1618-1.0973.4582-1.6542.9127-1.7203 2.9417-1.5397 3.7323-.0843.4058.747.3997 1.7487-.0164 2.6139-.7617 1.5905-2.2742 2.073-3.011 2.729-.3021.2661-.5019.5764-.5728.8795l3.6162.0555c.1449.0021.261.1212.2589.2671C41.7902 30.1607 41.6726 30.2758 41.5292 30.2758zM60.0133 25.1724h-.0005c-.2872-.0041-.5733-.0082-.8595-.0134-.0283 0-.0514-.0236-.0514-.0514-.0026-.1572.1048-.2774.169-.3339.1134-.1004.9312-.5047.6427-1.0408-.1715-.3118-.6342-.3015-.7156.3432-.0036.0267-.0262.0462-.0524.0462-.0021 0-.0041 0-.0067 0-.0288-.0041-.0493-.0298-.0457-.0586.1397-1.107 1.2802-.5775.9088.1901-.1781.3737-.4619.4245-.6612.598-.0694.0616-.1141.1336-.1289.2034.2671.0041.5343.0082.8019.0123.0293 0 .0524.0236.0519.0534C60.0658 25.1498 60.0421 25.1724 60.0133 25.1724zM61.1343 25.1724h-.0005c-.2872-.0041-.5733-.0082-.86-.0134-.0283 0-.0514-.0236-.0514-.0514-.0026-.1572.1053-.2764.1695-.3339.1392-.1232.9265-.5163.6422-1.0408-.0791-.1438-.2548-.225-.3951-.1849-.092.0267-.1767.1007-.2317.2034-.0565.1069-.0771.2302-.0884.3247-.0041.0288-.0334.0452-.0586.0462-.0293-.0041-.0493-.0298-.0462-.0586.0128-.1038.0354-.2394.1002-.3617.0688-.1284.1762-.2209.2959-.2548.1901-.0555.413.0473.5163.2353.3915.7241-.7236 1.0412-.7942 1.3727.2677.0041.5348.0082.8024.0123.0293 0 .0524.0236.0519.0534C61.1867 25.1498 61.1631 25.1724 61.1343 25.1724zM43.2813 28.2019c-.0454-.2706.2134-.5428.4872-.5247.2738.0181.4925.3053.4515.5765-.0411.2713-.3197.4785-.593.4548-.128-.0111-.2558-.0702-.3292-.1756-.0733-.1055-.0805-.2594.0003-.3593L43.2813 28.2019zM43.2813 24.3937c-.0454-.2706.2134-.5428.4872-.5247.2738.0181.4925.3053.4515.5765s-.3197.4785-.593.4548c-.128-.0111-.2558-.0702-.3292-.1756-.0733-.1055-.0805-.2594.0003-.3593L43.2813 24.3937zM47.0955 30.7556c-1.067-.4254-1.5206-1.6768-1.666-2.1957-.5252-1.8755-.195-3.8662.4906-5.0305l0 0c.4809-.8179 1.1456-1.1939 1.9095-1.1251.3884.0421.7783.2332 1.1282.5528 1.7452 1.5901 1.3697 5.5643.411 6.9364C48.869 30.6067 47.9334 31.0871 47.0955 30.7556zM46.3732 23.7966c-.6034 1.0252-.9278 2.8704-.4372 4.6215.1243.4428.5055 1.5104 1.3547 1.8484.6031.2425 1.2848-.1572 1.647-.675.7873-1.1272 1.2381-4.8139-.3344-6.246-.186-.1695-.4809-.3802-.8297-.4172C47.2188 22.8688 46.7472 23.1596 46.3732 23.7966L46.3732 23.7966zM53.3364 30.8635c-.1891 0-.3797-.0339-.5666-.1079-2.1287-.8486-2.4355-5.0863-1.1754-7.2262l0 0c.4814-.8179 1.141-1.1939 1.9095-1.1251.3879.0421.7778.2332 1.1282.5528 1.2313 1.1208 1.3255 2.9272 1.1472 4.5568C55.6019 29.1284 54.9732 30.8635 53.3364 30.8635zM52.0474 23.7966c-1.1039 1.8756-.86 5.7624.9175 6.47.6016.2394 1.2833-.1572 1.6465-.675.429-.6144.5666-1.4241.6447-2.1351.1599-1.4571.105-3.1227-.9787-4.1109-.1865-.1695-.4819-.3802-.8297-.4172C52.8961 22.8688 52.4219 23.1596 52.0474 23.7966L52.0474 23.7966zM57.4955 30.5573c0 0-.0005 0-.001 0-.1454-.001-.2625-.1192-.262-.2641l.0313-7.4327c.0005-.1449.1182-.262.263-.262 0 0 .0005 0 .001 0 .1454.001.2625.1192.262.2641l-.0313 7.4327C57.7581 30.4402 57.6404 30.5573 57.4955 30.5573zM62.1952 25.1107c-.0015 0-.0031 0-.0046 0-.0288-.0021-.0503-.0277-.0478-.0565.0432-.5096.0694-1.0254.0781-1.533 0-.0236.017-.0442.0401-.0503.0236-.0082.0473.0051.0586.0267.1053.1952.226.3997.3432.598.1022.1736.2075.3524.3031.525.2024-.3103.4413-.6997.5985-1.086.0087-.0236.0308-.036.0565-.0329.0236.0041.0421.0226.0447.0473l.0123.1202c.0457.4356.0889.8477.0298 1.2813-.0041.0288-.0241.0462-.0591.0452-.0288-.0041-.0488-.0308-.0447-.0596.0534-.3956.0195-.7778-.0226-1.1785-.169.3637-.392.7172-.5759.9946-.0103.0164-.0262.0298-.0462.0236-.0185-.001-.0349-.0113-.0437-.0277-.1053-.1952-.226-.3997-.3432-.598-.0837-.1428-.1695-.2877-.2507-.4315-.0113.4469-.0365.898-.074 1.3439C62.2455 25.0902 62.2224 25.1107 62.1952 25.1107zM64.714 25.0039c-.0257 0-.0478-.0185-.0519-.0442l-.0062-.039c-.0015-.0103 0-.0205.0036-.0288-.0036-.1778.0077-.3565.0339-.5333.0708-.4794-.2747-.4358-.4767-.2507-.0496.0496-.123-.0287-.0719-.076.2452-.2294.5201-.1892.6252-.0113.0637.1069.0452.2322.0288.3432-.0293.2014-.0396.3945-.0324.5857.001.0277-.0195.0514-.0473.0545C64.7176 25.0039 64.7155 25.0039 64.714 25.0039z" class="colorFFF svgShape"></path><path fill="#00c6ff" d="M64.3847 25.12c-.6135 0-.2538-1.0062.3452-.8189.0277.0092.0432.038.0344.0658-.0087.0277-.0339.0401-.0663.0349-.4639-.1462-.758.6504-.2872.6113.092-.0103.1808-.0781.2271-.1726.0134-.0257.0442-.038.0704-.0236.0262.0123.037.0442.0241.0709-.0627.1274-.1808.2147-.3088.2302C64.4104 25.119 64.3975 25.12 64.3847 25.12zM65.3017 24.9248c-.0015 0-.0031 0-.0051 0-.0288-.0031-.0498-.0288-.0473-.0575.0252-.262.0319-.5579.019-.8559-.0015-.0288.0211-.0534.0503-.0545.0005 0 .0015 0 .0015 0 .0288 0 .0519.0216.0529.0503.0134.3031.0067.6042-.019.8703C65.3515 24.9042 65.3284 24.9248 65.3017 24.9248z" class="colorFFF svgShape"></path><path fill="#00c6ff" d="M65.3274 24.4408c-.0031 0-.0067 0-.0103-.001-.0283-.0051-.0468-.0329-.0411-.0616.0205-.1069.0822-.2055.1685-.2723.0863-.0668.1962-.1017.3067-.0914.0288.0021.0503.0277.0483.0565-.0021.0277-.0252.0483-.0524.0483-.0077 0-.0185-.001-.0283-.001-.075 0-.1505.0257-.2106.0719-.0663.0503-.113.1264-.1295.2086C65.3742 24.4234 65.3521 24.4408 65.3274 24.4408zM59.1708 29.7333c-.0277 0-.0509-.0216-.0524-.0493-.0231-.4336-.0421-.896.0046-1.3696.0026-.0257.0231-.0452.0488-.0473l.9093-.0575c.0015 0 .0026 0 .0036 0 .0277 0 .0509.0216.0524.0493.0021.0288-.02.0534-.0488.0555l-.8646.0545c-.0406.4511-.0226.8939-.0005 1.309.0015.0288-.0205.0545-.0498.0555C59.1734 29.7333 59.1719 29.7333 59.1708 29.7333z" class="colorFFF svgShape"></path><path fill="#00c6ff" d="M59.2186 28.9196c-.0272 0-.0503-.0205-.0524-.0483-.0026-.0288.0195-.0545.0483-.0565.1957-.0154.3735-.0339.543-.0575.0329-.0031.055.0164.0591.0452.0041.0288-.0159.0555-.0447.0596-.1716.0226-.3514.0421-.5492.0575C59.2212 28.9196 59.2201 28.9196 59.2186 28.9196zM60.2019 29.6922c-.0021 0-.0041 0-.0062 0-.0288-.0031-.0493-.0298-.0462-.0586.0334-.2918.0426-.5887.0277-.8816-.0015-.0298.0205-.0545.0498-.0555 0 0 .0015 0 .0026 0 .0277 0 .0509.0216.0524.0493.0154.299.0062.6021-.0277.9001C60.2512 29.6727 60.2281 29.6922 60.2019 29.6922z" class="colorFFF svgShape"></path><path fill="#00c6ff" d="M60.2368 29.2751c-.0057 0-.0118-.001-.018-.0031-.0272-.0092-.0411-.0401-.0313-.0668.0411-.1161.093-.26.2111-.3493.1079-.0812.2466-.0956.3411-.0986.0005 0 .0015 0 .0021 0 .0283 0 .0514.0216.0524.0503.001.0288-.0216.0534-.0503.0545-.1279.0051-.2178.0298-.2815.0781-.0935.0699-.1392.1973-.1762.3C60.2784 29.2617 60.2584 29.2751 60.2368 29.2751zM61.1487 29.6922c-.0021 0-.0041 0-.0056 0-.0293-.0031-.0498-.0298-.0467-.0586.0334-.2949.0457-.6329.036-.9761-.001-.0288.0221-.0524.0509-.0534h.0015c.0283 0 .0519.0226.0524.0514.0103.3473-.0026.6894-.036.9905C61.198 29.6727 61.1754 29.6922 61.1487 29.6922z" class="colorFFF svgShape"></path><path fill="none" d="M61.0997,28.3805c0.002-0.0412,0.0347-0.0788,0.0751-0.0866s0.0848,0.0152,0.1018,0.0527
		c0.0197,0.0435,0.0017,0.0979-0.0347,0.1288c-0.0364,0.0309-0.0869,0.041-0.1345,0.0371
		c-0.0208-0.0392-0.0192-0.0894,0.0041-0.1271"></path><path fill="#00c6ff" d="M47.5019 89.3816c-.0432 0-.0853-.0216-.1105-.0606-.0396-.0606-.0216-.1418.039-.1819l1.4667-.9412c.0354-.0216.0796-.0257.1176-.0123.5574.2127 1.0367.4809 1.4251.7983.0565.0462.0647.1284.0185.1849-.0452.0565-.13.0647-.1849.0185-.3519-.2877-.786-.5343-1.2905-.7316l-1.4097.9052C47.5512 89.3744 47.5266 89.3816 47.5019 89.3816zM47.5019 90.5797c-.0432 0-.0858-.0216-.1105-.0606-.0396-.0606-.0216-.1428.0396-.1819l1.4662-.9412c.0354-.0226.0796-.0257.1176-.0123.56.2147 1.0398.4829 1.4251.7983.0565.0462.0647.1284.0185.1849-.0452.0565-.13.0658-.1849.0185-.3498-.2856-.7834-.5322-1.2905-.7316l-1.4102.9052C47.5507 90.5725 47.5266 90.5797 47.5019 90.5797zM29.9252 88.2112c-.2868-.4065-.7249-.256-.7551.2408-.0281.4616.2498.8857.5627 1.2262 1.6855 1.8344 2.5737.4614 1.8719.1852-.3499-.1377-1.0464.3336-1.5436-.4885C29.936 89.1682 30.273 88.7041 29.9252 88.2112zM67.9958 89.4711c-.0315.1684-.1683.3052-.3262.3472-.1368.0211-.263 0-.3682-.0947-.1052-.0841-.1578-.1998-.1578-.3262.0105-.0736.0421-.1367.1158-.1894.0947-.0631.2314-.0947.3472-.0947.0631 0 .1263.0105.1789.0315.0526.0105.1472.0526.1894.1473C68.0063 89.3554 68.0063 89.4186 67.9958 89.4711z" class="colorFFF svgShape"></path><path fill="#00c6ff" d="M68.9848,88.7242c-0.0105-0.1263-0.021-0.2736-0.1157-0.3472c-0.0842-0.0631-0.1788-0.0526-0.2736-0.0526
		c-0.1578,0-0.3262,0.0105-0.4839,0.0105c-0.0105-0.0947-0.0211-0.1894-0.0211-0.2946c-0.2736,0-0.5366,0-0.8102,0.0105
		c-0.0526,0.0105-0.1052,0.0105-0.1578,0.0421c-0.0527,0.0421-0.0631,0.1158-0.0737,0.1789c0,0.0315-0.0105,0.0736-0.0211,0.1052
		c-0.0631,0-0.1263,0.0105-0.1999,0.0105c-0.1894,0-0.3893,0.021-0.5471,0.1368c-0.3156,0-0.1367,1.2836-0.1262,1.4309
		c0.0105,0.1368,0.0211,0.2946,0.1158,0.3893c0.0947,0.1052,0.263,0.1263,0.4103,0.1368c0.4209,0.0315,0.8522,0.0631,1.2731,0.0526
		c0.2104,0,0.4103-0.0211,0.6208-0.0421c0.1157-0.0211,0.3577-0.0105,0.4208-0.1263c0.0211-0.0421,0.0211-0.0842,0.0211-0.1263
		C69.0059,89.7342,68.9953,89.2292,68.9848,88.7242z M68.2062,89.5133c-0.0526,0.242-0.242,0.4524-0.4945,0.505
		c-0.0421,0.0105-0.0947,0.0211-0.1368,0.0211c-0.1473,0-0.2946-0.0527-0.4103-0.1473c-0.1473-0.1262-0.2314-0.3051-0.2314-0.505
		c0.0105-0.1368,0.0841-0.263,0.2104-0.3472c0.2104-0.1473,0.5261-0.1578,0.705-0.0947c0.1472,0.0421,0.263,0.1368,0.3156,0.242
		C68.2062,89.2818,68.2273,89.3975,68.2062,89.5133z" class="colorFFF svgShape"></path></svg></g></svg>