
<svg width="19" height="27" viewBox="0 0 19 27" fill="white" xmlns="http://www.w3.org/2000/svg">
<path d="M10.2549 18.8006L10.0595 18.6444C9.98693 18.5951 9.90811 18.5557 9.82513 18.5272L9.59073 18.423C9.37954 18.3789 9.16069 18.3879 8.95385 18.4492C8.74701 18.5106 8.55866 18.6224 8.40572 18.7746C8.2907 18.9012 8.1982 19.0465 8.13226 19.2043C8.03371 19.4416 8.00755 19.7027 8.05707 19.9548C8.10658 20.2069 8.22956 20.4387 8.41054 20.6211C8.59151 20.8035 8.82238 20.9282 9.07409 20.9797C9.32581 21.0311 9.58711 21.0069 9.82513 20.9102C9.98073 20.8347 10.1253 20.7383 10.2549 20.6237C10.4355 20.4406 10.5579 20.2081 10.6066 19.9555C10.6553 19.7028 10.628 19.4415 10.5283 19.2043C10.4634 19.0537 10.3706 18.9168 10.2549 18.8006ZM14.5391 0.192108H4.12146C3.08536 0.192108 2.0917 0.603697 1.35907 1.33633C0.626433 2.06896 0.214844 3.06263 0.214844 4.09873V22.3296C0.214844 23.3657 0.626433 24.3594 1.35907 25.092C2.0917 25.8246 3.08536 26.2362 4.12146 26.2362H14.5391C15.5752 26.2362 16.5689 25.8246 17.3015 25.092C18.0341 24.3594 18.4457 23.3657 18.4457 22.3296V4.09873C18.4457 3.06263 18.0341 2.06896 17.3015 1.33633C16.5689 0.603697 15.5752 0.192108 14.5391 0.192108ZM15.8413 22.3296C15.8413 22.675 15.7041 23.0062 15.4599 23.2504C15.2157 23.4946 14.8845 23.6318 14.5391 23.6318H4.12146C3.7761 23.6318 3.44488 23.4946 3.20066 23.2504C2.95645 23.0062 2.81926 22.675 2.81926 22.3296V4.09873C2.81926 3.75336 2.95645 3.42214 3.20066 3.17793C3.44488 2.93372 3.7761 2.79652 4.12146 2.79652H14.5391C14.8845 2.79652 15.2157 2.93372 15.4599 3.17793C15.7041 3.42214 15.8413 3.75336 15.8413 4.09873V22.3296Z" />
</svg>
