<svg width="47" height="51" viewBox="0 0 47 51" fill="none" xmlns="http://www.w3.org/2000/svg">
<path d="M28.8676 41.6122L26.1446 44.3424L28.8676 47.0727C29.6911 47.8983 29.6911 49.2328 28.8676 50.0584C28.457 50.4702 27.9178 50.6771 27.3787 50.6771C26.8396 50.6771 26.3004 50.4702 25.8897 50.0584L23.1667 47.3282L20.4436 50.0584C20.0329 50.4702 19.4938 50.6771 18.9546 50.6771C18.4155 50.6771 17.8764 50.4702 17.4657 50.0584C16.6422 49.2328 16.6422 47.8983 17.4657 47.0727L20.1888 44.3424L17.4657 41.6122C16.6422 40.7866 16.6422 39.4521 17.4657 38.6265C18.2891 37.8009 19.6201 37.8009 20.4436 38.6265L23.1667 41.3567L25.8897 38.6265C26.7132 37.8009 28.0442 37.8009 28.8676 38.6265C29.6911 39.4521 29.6911 40.7866 28.8676 41.6122ZM42.9927 44.3424L45.7157 41.6122C46.5392 40.7866 46.5392 39.4521 45.7157 38.6265C44.8923 37.8009 43.5613 37.8009 42.7378 38.6265L40.0148 41.3567L37.2917 38.6265C36.4682 37.8009 35.1372 37.8009 34.3138 38.6265C33.4903 39.4521 33.4903 40.7866 34.3138 41.6122L37.0369 44.3424L34.3138 47.0727C33.4903 47.8983 33.4903 49.2328 34.3138 50.0584C34.7245 50.4702 35.2636 50.6771 35.8027 50.6771C36.3419 50.6771 36.881 50.4702 37.2917 50.0584L40.0148 47.3282L42.7378 50.0584C43.1485 50.4702 43.6877 50.6771 44.2268 50.6771C44.7659 50.6771 45.3051 50.4702 45.7157 50.0584C46.5392 49.2328 46.5392 47.8983 45.7157 47.0727L42.9927 44.3424ZM12.0195 38.6265C11.1961 37.8009 9.86509 37.8009 9.04164 38.6265L6.31856 41.3567L3.59549 38.6265C2.77204 37.8009 1.44104 37.8009 0.617588 38.6265C-0.205863 39.4521 -0.205863 40.7866 0.617588 41.6122L3.34066 44.3424L0.617588 47.0727C-0.205863 47.8983 -0.205863 49.2328 0.617588 50.0584C1.02826 50.4702 1.5674 50.6771 2.10654 50.6771C2.64568 50.6771 3.18482 50.4702 3.59549 50.0584L6.31856 47.3282L9.04164 50.0584C9.45231 50.4702 9.99145 50.6771 10.5306 50.6771C11.0697 50.6771 11.6089 50.4702 12.0195 50.0584C12.843 49.2328 12.843 47.8983 12.0195 47.0727L9.29647 44.3424L12.0195 41.6122C12.843 40.7866 12.843 39.4521 12.0195 38.6265ZM35.8027 23.227C35.8027 27.8851 32.0246 31.6732 27.3787 31.6732H18.9546C14.3088 31.6732 10.5306 27.8851 10.5306 23.227V19.0039C10.5306 15.8915 12.2365 13.1972 14.7426 11.7317V8.44618C14.7426 3.78811 18.5208 0 23.1667 0C27.8125 0 31.5907 3.78811 31.5907 8.44618V11.7317C34.0969 13.1972 35.8027 15.8915 35.8027 19.0039V23.227ZM18.9546 10.5577H27.3787V8.44618C27.3787 6.11715 25.4896 4.22309 23.1667 4.22309C20.8437 4.22309 18.9546 6.11715 18.9546 8.44618V10.5577ZM31.5907 19.0039C31.5907 16.6749 29.7016 14.7808 27.3787 14.7808H18.9546C16.6317 14.7808 14.7426 16.6749 14.7426 19.0039V23.227C14.7426 25.556 16.6317 27.4501 18.9546 27.4501H27.3787C29.7016 27.4501 31.5907 25.556 31.5907 23.227V19.0039ZM23.1667 17.9481C21.4229 17.9481 20.0076 19.3671 20.0076 21.1155C20.0076 22.8638 21.4229 24.2828 23.1667 24.2828C24.9104 24.2828 26.3257 22.8638 26.3257 21.1155C26.3257 19.3671 24.9104 17.9481 23.1667 17.9481Z" fill="#FFCD02"/>
</svg>
