
<svg width="31" height="29" viewBox="0 0 31 29" fill="none" xmlns="http://www.w3.org/2000/svg">
<path d="M28.8617 27.0235H1.77391C1.64286 27.0235 1.51718 26.9714 1.42451 26.8788C1.33184 26.7861 1.27979 26.6604 1.27979 26.5294V14.0133C1.27979 13.8822 1.33184 13.7566 1.42451 13.6639C1.51718 13.5712 1.64286 13.5192 1.77391 13.5192H28.8617C28.9927 13.5192 29.1184 13.5712 29.211 13.6639C29.3037 13.7566 29.3558 13.8822 29.3558 14.0133V26.5294C29.3558 26.6604 29.3037 26.7861 29.211 26.8788C29.1184 26.9714 28.9927 27.0235 28.8617 27.0235ZM2.26803 26.0353H28.3675V14.5074H2.26803V26.0353Z" fill="white"/>
<path d="M11.5526 16.222H1.77391C1.64286 16.222 1.51718 16.17 1.42451 16.0773C1.33184 15.9846 1.27979 15.859 1.27979 15.7279C1.27979 15.5969 1.33184 15.4712 1.42451 15.3785C1.51718 15.2859 1.64286 15.2338 1.77391 15.2338H11.5526C11.6836 15.2338 11.8093 15.2859 11.902 15.3785C11.9946 15.4712 12.0467 15.5969 12.0467 15.7279C12.0467 15.859 11.9946 15.9846 11.902 16.0773C11.8093 16.17 11.6836 16.222 11.5526 16.222ZM28.8617 16.222H13.5044C13.3733 16.222 13.2476 16.17 13.155 16.0773C13.0623 15.9846 13.0102 15.859 13.0102 15.7279C13.0102 15.5969 13.0623 15.4712 13.155 15.3785C13.2476 15.2859 13.3733 15.2338 13.5044 15.2338H28.8617C28.9927 15.2338 29.1184 15.2859 29.211 15.3785C29.3037 15.4712 29.3558 15.5969 29.3558 15.7279C29.3558 15.859 29.3037 15.9846 29.211 16.0773C29.1184 16.17 28.9927 16.222 28.8617 16.222Z" fill="white"/>
<path d="M6.61129 17.6945H6.04305C5.912 17.6945 5.78632 17.6424 5.69365 17.5498C5.60098 17.4571 5.54892 17.3314 5.54892 17.2004C5.54892 17.0693 5.60098 16.9436 5.69365 16.851C5.78632 16.7583 5.912 16.7062 6.04305 16.7062H6.11716V16.2121H3.74044V16.7062H4.2988C4.42985 16.7062 4.55553 16.7583 4.64819 16.851C4.74086 16.9436 4.79292 17.0693 4.79292 17.2004C4.79292 17.3314 4.74086 17.4571 4.64819 17.5498C4.55553 17.6424 4.42985 17.6945 4.2988 17.6945H3.24632C3.11527 17.6945 2.98959 17.6424 2.89692 17.5498C2.80426 17.4571 2.7522 17.3314 2.7522 17.2004V15.718C2.7522 15.5869 2.80426 15.4613 2.89692 15.3686C2.98959 15.2759 3.11527 15.2239 3.24632 15.2239H6.61129C6.74234 15.2239 6.86802 15.2759 6.96068 15.3686C7.05335 15.4613 7.10541 15.5869 7.10541 15.718V17.2004C7.10541 17.3314 7.05335 17.4571 6.96068 17.5498C6.86802 17.6424 6.74234 17.6945 6.61129 17.6945ZM6.61129 27.0235H3.24632C3.11527 27.0235 2.98959 26.9714 2.89692 26.8788C2.80426 26.7861 2.7522 26.6604 2.7522 26.5294V25.047C2.7522 24.916 2.80426 24.7903 2.89692 24.6976C2.98959 24.605 3.11527 24.5529 3.24632 24.5529H6.61129C6.74234 24.5529 6.86802 24.605 6.96068 24.6976C7.05335 24.7903 7.10541 24.916 7.10541 25.047V26.5294C7.10541 26.6604 7.05335 26.7861 6.96068 26.8788C6.86802 26.9714 6.74234 27.0235 6.61129 27.0235ZM3.74044 26.0353H6.11716V25.5411H3.74044V26.0353Z" fill="white"/>
<path d="M3.81468 25.551C3.68363 25.551 3.55795 25.499 3.46528 25.4063C3.37262 25.3136 3.32056 25.1879 3.32056 25.0569V17.2004C3.32056 17.0693 3.37262 16.9436 3.46528 16.851C3.55795 16.7583 3.68363 16.7062 3.81468 16.7062C3.94573 16.7062 4.07141 16.7583 4.16408 16.851C4.25674 16.9436 4.3088 17.0693 4.3088 17.2004V25.0569C4.3088 25.1879 4.25674 25.3136 4.16408 25.4063C4.07141 25.499 3.94573 25.551 3.81468 25.551ZM6.04317 25.551C5.91212 25.551 5.78644 25.499 5.69377 25.4063C5.6011 25.3136 5.54904 25.1879 5.54904 25.0569V17.2004C5.54904 17.0693 5.6011 16.9436 5.69377 16.851C5.78644 16.7583 5.91212 16.7062 6.04317 16.7062C6.17422 16.7062 6.2999 16.7583 6.39256 16.851C6.48523 16.9436 6.53729 17.0693 6.53729 17.2004V25.0569C6.53729 25.1879 6.48523 25.3136 6.39256 25.4063C6.2999 25.499 6.17422 25.551 6.04317 25.551ZM11.5526 17.6945H8.18765C8.0566 17.6945 7.93092 17.6424 7.83826 17.5498C7.74559 17.4571 7.69353 17.3314 7.69353 17.2004V15.718C7.69353 15.5869 7.74559 15.4613 7.83826 15.3686C7.93092 15.2759 8.0566 15.2239 8.18765 15.2239H11.5526C11.6837 15.2239 11.8094 15.2759 11.902 15.3686C11.9947 15.4613 12.0467 15.5869 12.0467 15.718V17.2004C12.0467 17.3314 11.9947 17.4571 11.902 17.5498C11.8094 17.6424 11.6837 17.6945 11.5526 17.6945ZM8.68178 16.7062H11.0585V16.2121H8.68178V16.7062ZM11.5526 27.0235H8.18765C8.0566 27.0235 7.93092 26.9714 7.83826 26.8788C7.74559 26.7861 7.69353 26.6604 7.69353 26.5294V25.047C7.69353 24.916 7.74559 24.7903 7.83826 24.6976C7.93092 24.605 8.0566 24.5529 8.18765 24.5529H11.5526C11.6837 24.5529 11.8094 24.605 11.902 24.6976C11.9947 24.7903 12.0467 24.916 12.0467 25.047V26.5294C12.0467 26.6604 11.9947 26.7861 11.902 26.8788C11.8094 26.9714 11.6837 27.0235 11.5526 27.0235ZM8.68178 26.0353H11.0585V25.5411H8.68178V26.0353Z" fill="white"/>
<path d="M8.75608 25.551C8.62504 25.551 8.49935 25.499 8.40669 25.4063C8.31402 25.3136 8.26196 25.1879 8.26196 25.0569V17.2004C8.26196 17.0693 8.31402 16.9436 8.40669 16.851C8.49935 16.7583 8.62504 16.7062 8.75608 16.7062C8.88713 16.7062 9.01282 16.7583 9.10548 16.851C9.19815 16.9436 9.25021 17.0693 9.25021 17.2004V25.0569C9.25021 25.1879 9.19815 25.3136 9.10548 25.4063C9.01282 25.499 8.88713 25.551 8.75608 25.551ZM10.9846 25.551C10.8535 25.551 10.7278 25.499 10.6352 25.4063C10.5425 25.3136 10.4905 25.1879 10.4905 25.0569V17.2004C10.4905 17.0693 10.5425 16.9436 10.6352 16.851C10.7278 16.7583 10.8535 16.7062 10.9846 16.7062C11.1156 16.7062 11.2413 16.7583 11.334 16.851C11.4266 16.9436 11.4787 17.0693 11.4787 17.2004V25.0569C11.4787 25.1879 11.4266 25.3136 11.334 25.4063C11.2413 25.499 11.1156 25.551 10.9846 25.551ZM27.3894 17.6945H24.0244C23.8934 17.6945 23.7677 17.6424 23.675 17.5498C23.5824 17.4571 23.5303 17.3314 23.5303 17.2004V15.718C23.5303 15.5869 23.5824 15.4613 23.675 15.3686C23.7677 15.2759 23.8934 15.2239 24.0244 15.2239H27.3894C27.5205 15.2239 27.6461 15.2759 27.7388 15.3686C27.8315 15.4613 27.8835 15.5869 27.8835 15.718V17.2004C27.8835 17.3314 27.8315 17.4571 27.7388 17.5498C27.6461 17.6424 27.5205 17.6945 27.3894 17.6945ZM24.5186 16.7062H26.8953V16.2121H24.5186V16.7062ZM27.3894 27.0235H24.0244C23.8934 27.0235 23.7677 26.9714 23.675 26.8788C23.5824 26.7861 23.5303 26.6604 23.5303 26.5294V25.047C23.5303 24.916 23.5824 24.7903 23.675 24.6976C23.7677 24.605 23.8934 24.5529 24.0244 24.5529H27.3894C27.5205 24.5529 27.6461 24.605 27.7388 24.6976C27.8315 24.7903 27.8835 24.916 27.8835 25.047V26.5294C27.8835 26.6604 27.8315 26.7861 27.7388 26.8788C27.6461 26.9714 27.5205 27.0235 27.3894 27.0235ZM24.5186 26.0353H26.8953V25.5411H24.5186V26.0353Z" fill="white"/>
<path d="M26.8209 25.551C26.6899 25.551 26.5642 25.499 26.4715 25.4063C26.3789 25.3136 26.3268 25.1879 26.3268 25.0569V17.2004C26.3268 17.0693 26.3789 16.9436 26.4715 16.851C26.5642 16.7583 26.6899 16.7062 26.8209 16.7062C26.952 16.7062 27.0777 16.7583 27.1703 16.851C27.263 16.9436 27.3151 17.0693 27.3151 17.2004V25.0569C27.3151 25.1879 27.263 25.3136 27.1703 25.4063C27.0777 25.499 26.952 25.551 26.8209 25.551ZM24.5924 25.551C24.4614 25.551 24.3357 25.499 24.243 25.4063C24.1504 25.3136 24.0983 25.1879 24.0983 25.0569V17.2004C24.0983 17.0693 24.1504 16.9436 24.243 16.851C24.3357 16.7583 24.4614 16.7062 24.5924 16.7062C24.7235 16.7062 24.8492 16.7583 24.9418 16.851C25.0345 16.9436 25.0866 17.0693 25.0866 17.2004V25.0569C25.0866 25.1879 25.0345 25.3136 24.9418 25.4063C24.8492 25.499 24.7235 25.551 24.5924 25.551ZM22.448 17.6945H19.083C18.9519 17.6945 18.8263 17.6424 18.7336 17.5498C18.6409 17.4571 18.5889 17.3314 18.5889 17.2004V15.718C18.5889 15.5869 18.6409 15.4613 18.7336 15.3686C18.8263 15.2759 18.9519 15.2239 19.083 15.2239H22.448C22.579 15.2239 22.7047 15.2759 22.7974 15.3686C22.89 15.4613 22.9421 15.5869 22.9421 15.718V17.2004C22.9421 17.3314 22.89 17.4571 22.7974 17.5498C22.7047 17.6424 22.579 17.6945 22.448 17.6945ZM19.5771 16.7062H21.9538V16.2121H19.5771V16.7062ZM22.448 27.0235H19.083C18.9519 27.0235 18.8263 26.9714 18.7336 26.8788C18.6409 26.7861 18.5889 26.6604 18.5889 26.5294V25.047C18.5889 24.916 18.6409 24.7903 18.7336 24.6976C18.8263 24.605 18.9519 24.5529 19.083 24.5529H19.6512C19.7823 24.5529 19.908 24.605 20.0006 24.6976C20.0933 24.7903 20.1454 24.916 20.1454 25.047C20.1454 25.1781 20.0933 25.3037 20.0006 25.3964C19.908 25.4891 19.7823 25.5411 19.6512 25.5411H19.5771V26.0353H21.9538V25.5411H21.2472C21.1162 25.5411 20.9905 25.4891 20.8978 25.3964C20.8052 25.3037 20.7531 25.1781 20.7531 25.047C20.7531 24.916 20.8052 24.7903 20.8978 24.6976C20.9905 24.605 21.1162 24.5529 21.2472 24.5529H22.4331C22.5642 24.5529 22.6899 24.605 22.7825 24.6976C22.8752 24.7903 22.9273 24.916 22.9273 25.047V26.5294C22.9273 26.6579 22.8773 26.7814 22.7878 26.8736C22.6983 26.9659 22.5764 27.0196 22.448 27.0235Z" fill="white"/>
<path d="M21.88 25.551C21.7489 25.551 21.6233 25.499 21.5306 25.4063C21.4379 25.3136 21.3859 25.1879 21.3859 25.0569V17.2004C21.3859 17.0693 21.4379 16.9436 21.5306 16.851C21.6233 16.7583 21.7489 16.7062 21.88 16.7062C22.011 16.7062 22.1367 16.7583 22.2294 16.851C22.3221 16.9436 22.3741 17.0693 22.3741 17.2004V25.0569C22.3741 25.1879 22.3221 25.3136 22.2294 25.4063C22.1367 25.499 22.011 25.551 21.88 25.551ZM19.6515 25.551C19.5205 25.551 19.3948 25.499 19.3021 25.4063C19.2094 25.3136 19.1574 25.1879 19.1574 25.0569V17.2004C19.1574 17.0693 19.2094 16.9436 19.3021 16.851C19.3948 16.7583 19.5205 16.7062 19.6515 16.7062C19.7825 16.7062 19.9082 16.7583 20.0009 16.851C20.0936 16.9436 20.1456 17.0693 20.1456 17.2004V25.0569C20.1456 25.1879 20.0936 25.3136 20.0009 25.4063C19.9082 25.499 19.7825 25.551 19.6515 25.551ZM12.9463 27.0235C12.8152 27.0235 12.6895 26.9714 12.5969 26.8788C12.5042 26.7861 12.4521 26.6604 12.4521 26.5294V21.1286C12.4521 18.7766 14.9969 17.5364 15.1056 17.482C15.2236 17.426 15.3589 17.419 15.4821 17.4625C15.6052 17.506 15.7062 17.5965 15.7628 17.7142C15.7913 17.7729 15.8079 17.8367 15.8116 17.9018C15.8154 17.9669 15.8062 18.0321 15.7846 18.0937C15.763 18.1552 15.7294 18.2119 15.6858 18.2604C15.6422 18.3089 15.5894 18.3484 15.5305 18.3764C15.5305 18.3764 13.4404 19.4041 13.4404 21.1286V26.5294C13.4404 26.6604 13.3883 26.7861 13.2957 26.8788C13.203 26.9714 13.0773 27.0235 12.9463 27.0235Z" fill="white"/>
<path d="M17.6895 25.5411C17.5584 25.5411 17.4328 25.4891 17.3401 25.3964C17.2474 25.3038 17.1954 25.1781 17.1954 25.047V21.1286C17.1954 19.4042 15.125 18.3863 15.1052 18.3714C15.0421 18.3466 14.9847 18.3091 14.9367 18.2611C14.8887 18.2132 14.8511 18.1558 14.8262 18.0927C14.8013 18.0296 14.7897 17.962 14.7921 17.8942C14.7944 17.8263 14.8108 17.7597 14.84 17.6985C14.8693 17.6373 14.9108 17.5827 14.9621 17.5383C15.0134 17.4938 15.0732 17.4604 15.138 17.44C15.2027 17.4197 15.271 17.413 15.3385 17.4202C15.4059 17.4274 15.4712 17.4485 15.5302 17.482C15.6389 17.5364 18.1836 18.7766 18.1836 21.1286V25.047C18.1836 25.1781 18.1316 25.3038 18.0389 25.3964C17.9462 25.4891 17.8205 25.5411 17.6895 25.5411ZM21.6474 14.5074H8.98802C8.85697 14.5074 8.73129 14.4554 8.63862 14.3627C8.54596 14.27 8.4939 14.1443 8.4939 14.0133V11.7799C8.4939 11.6488 8.54596 11.5231 8.63862 11.4305C8.73129 11.3378 8.85697 11.2857 8.98802 11.2857C9.11907 11.2857 9.24475 11.3378 9.33741 11.4305C9.43008 11.5231 9.48214 11.6488 9.48214 11.7799V13.5192H21.1533V11.7799C21.1533 11.6488 21.2054 11.5231 21.298 11.4305C21.3907 11.3378 21.5164 11.2857 21.6474 11.2857C21.7785 11.2857 21.9041 11.3378 21.9968 11.4305C22.0895 11.5231 22.1415 11.6488 22.1415 11.7799V14.0133C22.1415 14.1443 22.0895 14.27 21.9968 14.3627C21.9041 14.4554 21.7785 14.5074 21.6474 14.5074Z" fill="white"/>
<path d="M22.4083 12.274H21.6474C21.5163 12.274 21.3906 12.2219 21.298 12.1293C21.2053 12.0366 21.1533 11.9109 21.1533 11.7799C21.1533 11.6488 21.2053 11.5231 21.298 11.4305C21.3906 11.3378 21.5163 11.2857 21.6474 11.2857H21.9142V10.4655H8.72115V11.2857H20.1452C20.2763 11.2857 20.402 11.3378 20.4946 11.4305C20.5873 11.5231 20.6394 11.6488 20.6394 11.7799C20.6394 11.9109 20.5873 12.0366 20.4946 12.1293C20.402 12.2219 20.2763 12.274 20.1452 12.274H8.22703C8.09598 12.274 7.9703 12.2219 7.87764 12.1293C7.78497 12.0366 7.73291 11.9109 7.73291 11.7799V9.97139C7.73291 9.84034 7.78497 9.71466 7.87764 9.62199C7.9703 9.52932 8.09598 9.47726 8.22703 9.47726H22.4083C22.5394 9.47726 22.6651 9.52932 22.7577 9.62199C22.8504 9.71466 22.9024 9.84034 22.9024 9.97139V11.7799C22.9024 11.9109 22.8504 12.0366 22.7577 12.1293C22.6651 12.2219 22.5394 12.274 22.4083 12.274Z" fill="white"/>
<path d="M21.079 10.4655C20.948 10.4655 20.8223 10.4134 20.7297 10.3208C20.637 10.2281 20.5849 10.1024 20.5849 9.97135C20.5626 8.79766 20.0923 7.67692 19.2706 6.83862C18.7499 6.33178 18.1298 5.93837 17.4494 5.68323C16.769 5.42809 16.0432 5.31676 15.3176 5.35626C14.5961 5.32021 13.8749 5.43324 13.1991 5.68828C12.5232 5.94332 11.9071 6.33492 11.3893 6.83862C10.562 7.66932 10.083 8.78456 10.0503 9.95653C10.0503 10.0876 9.9982 10.2133 9.90553 10.3059C9.81286 10.3986 9.68718 10.4507 9.55613 10.4507C9.42508 10.4507 9.2994 10.3986 9.20674 10.3059C9.11407 10.2133 9.06201 10.0876 9.06201 9.95653C9.08522 8.51673 9.66625 7.14211 10.6827 6.12215C11.2958 5.52985 12.0226 5.06812 12.8193 4.76491C13.616 4.4617 14.4659 4.32331 15.3176 4.35813C16.171 4.32656 17.022 4.46885 17.8188 4.77634C18.6155 5.08383 19.3415 5.55012 19.9525 6.14685C20.9689 7.16682 21.55 8.54143 21.5732 9.98124C21.5706 10.1106 21.5174 10.2337 21.425 10.3243C21.3326 10.4148 21.2084 10.4655 21.079 10.4655Z" fill="white"/>
<path d="M15.3179 5.3464C15.1868 5.3464 15.0611 5.29434 14.9685 5.20168C14.8758 5.10901 14.8237 4.98333 14.8237 4.85228V0.508953C14.8237 0.377904 14.8758 0.252222 14.9685 0.159556C15.0611 0.0668906 15.1868 0.0148315 15.3179 0.0148315C15.4489 0.0148315 15.5746 0.0668906 15.6672 0.159556C15.7599 0.252222 15.812 0.377904 15.812 0.508953V4.85228C15.812 4.98333 15.7599 5.10901 15.6672 5.20168C15.5746 5.29434 15.4489 5.3464 15.3179 5.3464Z" fill="white"/>
<path d="M19.6512 3.45885H15.3178C15.1867 3.45885 15.061 3.40679 14.9684 3.31413C14.8757 3.22146 14.8236 3.09578 14.8236 2.96473V0.494122C14.8236 0.363072 14.8757 0.237391 14.9684 0.144725C15.061 0.0520591 15.1867 0 15.3178 0H19.6512C19.7444 0.000263648 19.8355 0.0268439 19.9142 0.0766763C19.9929 0.126509 20.0559 0.197564 20.0959 0.281649C20.1365 0.365648 20.1524 0.459413 20.142 0.552101C20.1315 0.644788 20.0949 0.732613 20.0366 0.805418L19.2954 1.71954L20.0366 2.64849C20.0949 2.7213 20.1315 2.80912 20.142 2.90181C20.1524 2.9945 20.1365 3.08826 20.0959 3.17226C20.0566 3.25727 19.9939 3.32935 19.9152 3.38009C19.8364 3.43083 19.7449 3.45815 19.6512 3.45885ZM15.8119 2.47061H18.6185L18.2825 2.04566C18.2123 1.95803 18.1741 1.8491 18.1741 1.73684C18.1741 1.62457 18.2123 1.51565 18.2825 1.42801L18.6234 1.00307H15.8119V2.47061ZM30.1414 27.0235H0.494122C0.363072 27.0235 0.237391 26.9715 0.144725 26.8788C0.0520591 26.7861 0 26.6604 0 26.5294C0 26.3983 0.0520591 26.2727 0.144725 26.18C0.237391 26.0873 0.363072 26.0353 0.494122 26.0353H30.1414C30.2725 26.0353 30.3981 26.0873 30.4908 26.18C30.5835 26.2727 30.6355 26.3983 30.6355 26.5294C30.6355 26.6604 30.5835 26.7861 30.4908 26.8788C30.3981 26.9715 30.2725 27.0235 30.1414 27.0235ZM22.7296 29H2.47061C2.33956 29 2.21388 28.9479 2.12121 28.8553C2.02855 28.7626 1.97649 28.6369 1.97649 28.5059C1.97649 28.3748 2.02855 28.2491 2.12121 28.1565C2.21388 28.0638 2.33956 28.0118 2.47061 28.0118H22.7296C22.8606 28.0118 22.9863 28.0638 23.079 28.1565C23.1717 28.2491 23.2237 28.3748 23.2237 28.5059C23.2237 28.6369 23.1717 28.7626 23.079 28.8553C22.9863 28.9479 22.8606 29 22.7296 29ZM26.6826 29H24.7357C24.6047 29 24.479 28.9479 24.3863 28.8553C24.2937 28.7626 24.2416 28.6369 24.2416 28.5059C24.2416 28.3748 24.2937 28.2491 24.3863 28.1565C24.479 28.0638 24.6047 28.0118 24.7357 28.0118H26.6826C26.8136 28.0118 26.9393 28.0638 27.032 28.1565C27.1246 28.2491 27.1767 28.3748 27.1767 28.5059C27.1767 28.6369 27.1246 28.7626 27.032 28.8553C26.9393 28.9479 26.8136 29 26.6826 29Z" fill="white"/>
</svg>
