<svg xmlns="http://www.w3.org/2000/svg" width="27.014" height="24.738" viewBox="0 0 27.014 24.738">
  <g id="Navigator" transform="translate(-29.86 -48.907)">
    <path id="Path_6220" data-name="Path 6220" d="M317.04,50.427a5.193,5.193,0,0,0-7.9,6.69l3.394,4.752a1.021,1.021,0,0,0,1.662,0l3.394-4.752A5.176,5.176,0,0,0,317.04,50.427ZM313.368,55.8a1.7,1.7,0,1,1,1.7-1.7,1.7,1.7,0,0,1-1.7,1.7Z" transform="translate(-261.693)" fill="#fff"/>
    <path id="Path_6221" data-name="Path 6221" d="M87.406,130.458a1.021,1.021,0,0,0-1.021,1.021v2.178a3.61,3.61,0,1,1-7.22,0v-9.262a5.652,5.652,0,0,0-11.3,0v4.815a1.021,1.021,0,0,0,2.042,0v-4.815a3.61,3.61,0,0,1,7.22,0v9.262a5.652,5.652,0,1,0,11.3,0v-2.178a1.021,1.021,0,0,0-1.021-1.021Z" transform="translate(-35.73 -65.664)" fill="#fff"/>
    <path id="Path_6222" data-name="Path 6222" d="M33.151,352.9a3.291,3.291,0,1,0,3.291,3.291A3.291,3.291,0,0,0,33.151,352.9Z" transform="translate(0 -285.838)" fill="#fff"/>
  </g>
</svg>
