<svg viewBox="0 0 26 26" height="38" width="38" xml:space="preserve" xmlns="http://www.w3.org/2000/svg"><g fill="#1d4e8e" class="fill-1d1d1b"><path d="M24.994 7.736c0-.01.006-.02.006-.03 0-.037-.016-.068-.02-.103-.008-.052-.013-.103-.031-.152-.017-.047-.043-.085-.068-.127-.024-.04-.047-.081-.08-.117-.035-.04-.077-.068-.12-.1-.028-.02-.048-.048-.08-.065L13.35 1.087c-.022-.011-.046-.01-.068-.02a.732.732 0 0 0-.143-.042.724.724 0 0 0-.14-.015.72.72 0 0 0-.14.015.725.725 0 0 0-.144.042c-.022.01-.045.009-.067.02L1.4 7.042c-.032.017-.052.045-.08.066-.043.031-.085.06-.12.099-.033.036-.056.076-.08.117-.025.042-.05.08-.068.127-.018.05-.023.1-.03.152-.005.035-.021.066-.021.102 0 .011.006.02.006.031.002.05.018.097.03.147.012.048.02.097.042.142.005.01.004.02.009.03.01.019.029.026.04.042.053.084.12.154.2.211.027.019.05.038.08.053a.731.731 0 0 0 .343.094h22.5c.126 0 .24-.039.343-.094.03-.015.053-.034.08-.053a.734.734 0 0 0 .2-.21c.011-.017.03-.024.04-.042.005-.01.004-.021.01-.031.02-.045.029-.094.041-.142.012-.05.028-.097.03-.147zM13 2.6l8.23 4.356H4.77L13 2.6zM10.305 19.46c0 .414.336.75.75.75h3.89a.746.746 0 0 0 .264-1.447V10.7a.746.746 0 0 0-.264-1.447h-3.89a.746.746 0 0 0-.264 1.447v8.063a.746.746 0 0 0-.486.697zm1.986-.75v-7.957h1.418v7.957h-1.418zM3.82 19.46c0 .414.336.75.75.75h3.89a.746.746 0 0 0 .264-1.447V10.7a.746.746 0 0 0-.263-1.447H4.57a.746.746 0 0 0-.264 1.447v8.063a.746.746 0 0 0-.487.697zm1.987-.75v-7.957h1.418v7.957H5.807zM16.79 19.46c0 .414.335.75.75.75h3.89a.746.746 0 0 0 .264-1.447V10.7a.746.746 0 0 0-.264-1.447h-3.89a.746.746 0 0 0-.264 1.447v8.063a.746.746 0 0 0-.487.697zm1.985-.75v-7.957h1.418v7.957h-1.418zM1.983 21.847c0 .414.336.75.75.75h20.534a.75.75 0 0 0 0-1.5H2.733a.75.75 0 0 0-.75.75zM24.077 23.5H1.923a.75.75 0 0 0 0 1.5h22.154a.75.75 0 0 0 0-1.5z"></path></g></svg>