<svg xmlns="http://www.w3.org/2000/svg" width="214.525" height="201.771" viewBox="0 0 214.525 201.771">
  <g id="undraw_blog_post_re_fy5x" transform="translate(0 0)">
    <path id="Path_9030" data-name="Path 9030" d="M773.186,578.635a8.833,8.833,0,1,1,8.833-8.833A8.833,8.833,0,0,1,773.186,578.635Z" transform="translate(-601.257 -422.386)" fill="#ccc"/>
    <path id="Path_9031" data-name="Path 9031" d="M785.846,577.056h-3.737V572.81a.34.34,0,0,0-.679,0v4.246h-3.737a.34.34,0,0,0,0,.68h3.737v4.246a.34.34,0,0,0,.679,0v-4.246h3.737a.34.34,0,0,0,0-.68Z" transform="translate(-609.841 -429.979)" fill="#fff"/>
    <path id="Path_9032" data-name="Path 9032" d="M595.082,552.662H591.2l-1.847-14.98h5.732Z" transform="translate(-389.14 -355.023)" fill="#ffb8b8"/>
    <path id="Path_9033" data-name="Path 9033" d="M577.456,578.511h7.49v4.716H572.74A4.716,4.716,0,0,1,577.456,578.511Z" transform="translate(-378.171 -381.982)" fill="#2f2e41"/>
    <path id="Path_9034" data-name="Path 9034" d="M549.582,552.662H545.7l-1.847-14.98h5.732Z" transform="translate(-359.097 -355.023)" fill="#ffb8b8"/>
    <path id="Path_9035" data-name="Path 9035" d="M531.956,578.511h7.49v4.716H527.24A4.716,4.716,0,0,1,531.956,578.511Z" transform="translate(-348.128 -381.982)" fill="#2f2e41"/>
    <path id="Path_9036" data-name="Path 9036" d="M897.683,555.511a3.186,3.186,0,0,1,.671-4.838l-1.2-7.179,4.185-1.8,1.556,10.162a3.2,3.2,0,0,1-5.209,3.65Z" transform="translate(-688.749 -409.661)" fill="#ffb8b8"/>
    <path id="Path_9037" data-name="Path 9037" d="M792.729,544.721a3.186,3.186,0,0,0,.137-4.883l2.372-6.882-3.831-2.462-3.214,9.766a3.2,3.2,0,0,0,4.535,4.461Z" transform="translate(-616.557 -402.264)" fill="#ffb8b8"/>
    <circle id="Ellipse_94" data-name="Ellipse 94" cx="8.344" cy="8.344" r="8.344" transform="translate(187.719 75.071)" fill="#ffb8b8"/>
    <path id="Path_9038" data-name="Path 9038" d="M794.388,478.551a1.53,1.53,0,0,1-.423-.06l-2.432-.7a1.531,1.531,0,0,1-1.049-1.886l5.019-17.72,7-17.181a4.463,4.463,0,0,1,3.795-2.923,3.888,3.888,0,0,1,3.661,2.132h0a5.306,5.306,0,0,1,.121,4.678l-7.955,17.4L795.8,477.6a1.528,1.528,0,0,1-1.412.946Z" transform="translate(-618.473 -341.242)" fill="#3f3d56"/>
    <path id="Path_9039" data-name="Path 9039" d="M847.5,381.4l-4.636.082a3.082,3.082,0,0,1-3.022-3.937,7.184,7.184,0,0,0,.223-1.024,5.176,5.176,0,0,0,.031-1.139,1.682,1.682,0,0,0-3.246-.478h0c-.78.011-2.44-.243-3.22-.232-1.655-4.243,1.952-9.8,5.834-11.88a7.632,7.632,0,0,1,10.613,4.468c2.106.038,3.816,2.115,4.088,4.452A9.077,9.077,0,0,1,852,378.282C850.53,380.074,848.6,381.38,847.5,381.4Z" transform="translate(-646.726 -290.987)" fill="#2f2e41"/>
    <path id="Path_9040" data-name="Path 9040" d="M824.111,615.64a1.534,1.534,0,0,1-1.516-1.362l-1.72-57.831,21.67,1.542.017.139c4.9,40.991,3.223,55.181,3.205,55.319a1.528,1.528,0,0,1-1.724,1.428l-4.789.115a1.528,1.528,0,0,1-1.355-1.459l-4.475-41.887a.478.478,0,0,0-.5-.359.5.5,0,0,0-.489.4l-1.729,42.024a1.522,1.522,0,0,1-1.373,1.587l-5.073.337a1.521,1.521,0,0,1-.152.008Z" transform="translate(-638.578 -419.399)" fill="#2f2e41"/>
    <path id="Path_9041" data-name="Path 9041" d="M831.116,480.389c-.13,0-.259,0-.389-.006-6.231-.188-11.106-4.9-12.451-6.342a1.521,1.521,0,0,1-.367-1.392l3.595-15.207-.954-13.221a13.035,13.035,0,0,1,3.569-10.067A10.757,10.757,0,0,1,832.4,430.8c6.066.289,10.851,5.711,10.894,12.343.067,10.271-.235,10.977-.335,11.209-3.027,7.065-1.374,16.982-.8,19.853a1.534,1.534,0,0,1-.454,1.423C838.383,478.789,834.82,480.389,831.116,480.389Z" transform="translate(-636.591 -336.431)" fill="#3f3d56"/>
    <path id="Path_9042" data-name="Path 9042" d="M882.813,483.795a1.527,1.527,0,0,1-1.488-1.187l-3.709-16.156-4.97-18.466a5.307,5.307,0,0,1,.893-4.594,3.892,3.892,0,0,1,3.963-1.5,4.463,4.463,0,0,1,3.26,3.51l4.061,18.083,2.026,18.325A1.532,1.532,0,0,1,885.5,483.5l-2.514.287a1.527,1.527,0,0,1-.175.01Z" transform="translate(-672.639 -343.703)" fill="#3f3d56"/>
    <path id="Path_9043" data-name="Path 9043" d="M303.888,498.292a3.649,3.649,0,0,0,.537-5.57l1.416-31.6-7.207.809.419,30.909a3.669,3.669,0,0,0,4.835,5.452Z" transform="translate(-293.414 -356.458)" fill="#ffb8b8"/>
    <path id="Path_9044" data-name="Path 9044" d="M69.534,544.214l4.1.721,4.054-15.479-5.375-1.064Z" transform="translate(-45.912 -348.889)" fill="#ffb8b8"/>
    <path id="Path_9045" data-name="Path 9045" d="M0,0H13.089V5.057H5.057A5.057,5.057,0,0,1,0,0Z" transform="translate(34.966 201.244) rotate(-170.029)" fill="#2f2e41"/>
    <path id="Path_9046" data-name="Path 9046" d="M36.391,549.786h4.165l1.981-16.064H36.39Z" transform="translate(-24.027 -352.408)" fill="#ffb8b8"/>
    <path id="Path_9047" data-name="Path 9047" d="M0,0H13.089V5.057H5.057A5.057,5.057,0,0,1,0,0H0Z" transform="translate(24.559 201.246) rotate(179.997)" fill="#2f2e41"/>
    <path id="Path_9048" data-name="Path 9048" d="M337.377,613.116a1.605,1.605,0,0,1-.194-.012l-4.9-.4a1.658,1.658,0,0,1-1.441-1.923l4.527-25.37-3.059-16.128a.553.553,0,0,0-1.094.054l-3.824,43.017a1.673,1.673,0,0,1-1.77,1.507L321,613.688a1.66,1.66,0,0,1-1.541-1.573l-.31-51.558,23.944-2.993,1.673,25.832-.007.027-5.772,28.426A1.66,1.66,0,0,1,337.377,613.116Z" transform="translate(-307.297 -420.137)" fill="#2f2e41"/>
    <circle id="Ellipse_95" data-name="Ellipse 95" cx="8.344" cy="8.344" r="8.344" transform="translate(11.404 67.5)" fill="#ffb8b8"/>
    <path id="Path_9049" data-name="Path 9049" d="M324.14,466.961a6.831,6.831,0,0,1-3.688-1.055c-4.042-2.526-8.632-1.522-11.009-.7a1.658,1.658,0,0,1-1.434-.163,1.634,1.634,0,0,1-.756-1.207l-4.322-38.6a13.526,13.526,0,0,1,9.263-14.458h0q.343-.108.7-.2a13.442,13.442,0,0,1,11.2,1.944,13.658,13.658,0,0,1,5.832,9.972l3.638,38.859a1.633,1.633,0,0,1-.519,1.361C331.77,463.89,328.068,466.961,324.14,466.961Z" transform="translate(-296.53 -322.773)" fill="#5c98e9"/>
    <path id="Path_9050" data-name="Path 9050" d="M304.474,444.522l-9.751-1.072a1.942,1.942,0,0,1-1.666-2.423l2.482-9.46a5.394,5.394,0,1,1,10.72,1.21l.368,9.741a1.942,1.942,0,0,1-2.153,2Z" transform="translate(-290.026 -333.781)" fill="#5c98e9"/>
    <path id="Path_9051" data-name="Path 9051" d="M374.492,494.378a3.649,3.649,0,0,0-.138-5.594l-2.4-31.54-7.062,1.59,4.146,30.715a3.669,3.669,0,0,0,5.457,4.829Z" transform="translate(-337.497 -353.897)" fill="#ffb8b8"/>
    <path id="Path_9052" data-name="Path 9052" d="M355.716,439.675a1.94,1.94,0,0,1-.618-1.495l.368-9.741a5.394,5.394,0,1,1,10.72-1.21l2.482,9.46A1.942,1.942,0,0,1,367,439.112l-9.751,1.072A1.94,1.94,0,0,1,355.716,439.675Z" transform="translate(-331.031 -330.916)" fill="#5c98e9"/>
    <path id="Path_9053" data-name="Path 9053" d="M321.629,363.359a1.93,1.93,0,0,1-.44-.051l-.042-.01c-7.336-1.122-8.957-5.371-9.313-7.146-.368-1.837.051-3.611,1-4.3a5.289,5.289,0,0,1,.247-4.3,6.957,6.957,0,0,1,4.11-2.943,5.093,5.093,0,0,1,4.968-.3c3.981-1.473,5.5-.247,5.778.027,1.779.32,2.864,1.007,3.224,2.044.676,1.947-1.463,4.369-1.554,4.471l-.047.053-3.187.152a2.16,2.16,0,0,0-2.032,2.486h0a10.051,10.051,0,0,0,.326,1.14c.544,1.7.952,3.154.426,3.706a.853.853,0,0,1-.892.155c-.5-.133-.836-.105-1.005.083-.262.292-.182,1.031.225,2.081a1.95,1.95,0,0,1-.355,1.986,1.892,1.892,0,0,1-1.436.668Z" transform="translate(-302.378 -278.858)" fill="#2f2e41"/>
    <path id="Path_9054" data-name="Path 9054" d="M332.159,745.649H284.6a.34.34,0,1,1,0-.679h47.56a.34.34,0,1,1,0,.679Z" transform="translate(-284.259 -543.878)" fill="#ccc"/>
    <path id="Path_9055" data-name="Path 9055" d="M820.159,745.649H772.6a.34.34,0,1,1,0-.679h47.56a.34.34,0,1,1,0,.679Z" transform="translate(-606.477 -543.878)" fill="#ccc"/>
    <path id="Path_9056" data-name="Path 9056" d="M530.072,297.069H447.861a11.9,11.9,0,0,1-11.89-11.89V164.92a11.9,11.9,0,0,1,11.89-11.89h82.211a11.9,11.9,0,0,1,11.89,11.89V285.179A11.9,11.9,0,0,1,530.072,297.069Z" transform="translate(-384.432 -153.03)" fill="#fff"/>
    <path id="Path_9057" data-name="Path 9057" d="M556.95,416.892H500.557c-5.761-.028-5.784-8.8,0-8.833H556.95C562.706,408.086,562.737,416.861,556.95,416.892Z" transform="translate(-424.218 -321.421)" fill="#ccc"/>
    <path id="Path_9058" data-name="Path 9058" d="M556.95,208.833H500.557c-5.761-.028-5.784-8.8,0-8.833H556.95C562.706,200.027,562.737,208.8,556.95,208.833Z" transform="translate(-424.218 -184.043)" fill="#ccc"/>
    <path id="Path_9059" data-name="Path 9059" d="M556.95,464.892H500.557c-5.761-.028-5.784-8.8,0-8.833H556.95C562.706,456.086,562.737,464.861,556.95,464.892Z" transform="translate(-424.218 -353.115)" fill="#ccc"/>
    <path id="Path_9060" data-name="Path 9060" d="M556.95,512.892H500.557c-5.761-.028-5.784-8.8,0-8.833H556.95C562.706,504.086,562.737,512.861,556.95,512.892Z" transform="translate(-424.218 -384.809)" fill="#ccc"/>
    <path id="Path_9061" data-name="Path 9061" d="M555.431,295.908H501.076a5.612,5.612,0,0,1-5.605-5.605V259.864a5.612,5.612,0,0,1,5.605-5.605h54.354a5.612,5.612,0,0,1,5.605,5.605V290.3A5.612,5.612,0,0,1,555.431,295.908Z" transform="translate(-423.719 -219.869)" fill="#5c98e9"/>
    <path id="Path_9062" data-name="Path 9062" d="M530.072,297.069H447.861a11.9,11.9,0,0,1-11.89-11.89V164.92a11.9,11.9,0,0,1,11.89-11.89h82.211a11.9,11.9,0,0,1,11.89,11.89V285.179A11.9,11.9,0,0,1,530.072,297.069Zm-82.211-142a9.863,9.863,0,0,0-9.852,9.852V285.179a9.863,9.863,0,0,0,9.852,9.852h82.211a9.863,9.863,0,0,0,9.852-9.852V164.92a9.863,9.863,0,0,0-9.852-9.852Z" transform="translate(-384.432 -153.03)" fill="#e6e6e6"/>
  </g>
</svg>
