<svg xmlns="http://www.w3.org/2000/svg" width="250.896" height="221.136" viewBox="0 0 250.896 221.136">
  <g id="undraw_delivery_address_re_cjca" transform="translate(0 -0.001)">
    <path id="Path_8904" data-name="Path 8904" d="M684.7,711.589l-.616-8.562a27.7,27.7,0,0,0-13-2.916c6.341,4.9,5.833,14.7,10.225,21.4a16.66,16.66,0,0,0,12.423,7.362l5.277,3.036a27.918,27.918,0,0,0-6.5-22.453,26.969,26.969,0,0,0-5.08-4.468C686.276,708.3,684.7,711.589,684.7,711.589Z" transform="translate(-523.575 -511.915)" fill="#f2f2f2"/>
    <path id="f02c4e45-f306-4b42-b3ad-5ddd3016d7d2" d="M612.821,804.544H733.636a.387.387,0,1,0,0-.774H612.821a.387.387,0,0,0,0,.774Z" transform="translate(-483.127 -583.407)" fill="#ccc"/>
    <path id="Path_8905" data-name="Path 8905" d="M340.218,299.883v.166h.115a1.655,1.655,0,0,1-.115-.166Zm.889-70.245a59.9,59.9,0,0,0-12.414,36.581q0,3.022.3,5.959c.03.336.065.673.111,1a59.758,59.758,0,0,0,10.186,27.113c.216.316.437.627.658.939a60.16,60.16,0,0,0,93.176,5.878c.346-.366.678-.738,1-1.109a60.1,60.1,0,0,0,2.636-76.364c-.256-.336-.517-.673-.788-1q-.891-1.122-1.847-2.2c-.326-.372-.658-.743-1-1.109a60.058,60.058,0,0,0-44.186-19.347c-.577,0-1.15.01-1.722.025q-.572.015-1.144.045a60.131,60.131,0,0,0-44.171,22.585c-.271.331-.532.668-.788,1Zm-.773,70.41a1.648,1.648,0,0,1-.115-.166v.166Z" transform="translate(-287.445 -171.143)" fill="#fff"/>
    <path id="Path_8906" data-name="Path 8906" d="M363.334,299.322l.171-.346,12.781-25.738v-.005l.5-1v-.005L397.9,229.694v-.005l.5-1,0-.005,10.693-21.551.512-1.029q.572-.03,1.144-.045l-.507,1.024-10.723,21.6v.005l-.5,1v0l-21.667,43.644,0,.005L364.569,299.1l-.5,1-.08.166-.507,1.019c-.221-.311-.442-.622-.658-.939Z" transform="translate(-310.983 -171.199)" fill="#3f3d56"/>
    <path id="Path_8907" data-name="Path 8907" d="M354.26,419.279v1h-24.5c-.045-.331-.08-.668-.111-1Z" transform="translate(-288.104 -318.245)" fill="#3f3d56"/>
    <path id="Path_8908" data-name="Path 8908" d="M531.647,442.283v-1h24.5c.045.331.08.668.111,1Z" transform="translate(-427.412 -333.417)" fill="#3f3d56"/>
    <path id="Path_8909" data-name="Path 8909" d="M597.682,433.243h1v24.5c-.331.045-.668.08-1,.111Z" transform="translate(-472.953 -327.875)" fill="#3f3d56"/>
    <path id="Path_8910" data-name="Path 8910" d="M464.345,272.63c-.256-.336-.517-.673-.788-1h-1.847v-2.2c-.326-.371-.658-.743-1-1.109v3.308H369.482c-.271.331-.532.668-.788,1h92.012V350.1c.346-.366.678-.738,1-1.109V272.63Z" transform="translate(-315.032 -214.135)" fill="#3f3d56"/>
    <rect id="Rectangle_2172" data-name="Rectangle 2172" width="93.403" height="1.004" transform="translate(52.772 127.901)" fill="#3f3d56"/>
    <path id="Path_8911" data-name="Path 8911" d="M340.218,299.883v.166h.115a1.655,1.655,0,0,1-.115-.166Zm.889-70.245a59.9,59.9,0,0,0-12.414,36.581q0,3.022.3,5.959c.03.336.065.673.111,1a59.758,59.758,0,0,0,10.186,27.113c.216.316.437.627.658.939a60.16,60.16,0,0,0,93.176,5.878c.346-.366.678-.738,1-1.109a60.1,60.1,0,0,0,2.636-76.364c-.256-.336-.517-.673-.788-1q-.891-1.122-1.847-2.2c-.326-.372-.658-.743-1-1.109a60.058,60.058,0,0,0-44.186-19.347c-.577,0-1.15.01-1.722.025q-.572.015-1.144.045a60.131,60.131,0,0,0-44.171,22.585c-.271.331-.532.668-.788,1Zm-11,43.543c-.045-.331-.08-.668-.115-1a59.246,59.246,0,0,1,12.379-42.539c.266-.336.532-.673.808-1a59.16,59.16,0,0,1,42.374-21.556c.381-.02.763-.04,1.15-.05q1.107-.045,2.229-.045a59.068,59.068,0,0,1,44.186,19.829c.346.382.683.763,1,1.155.2.221.381.442.562.668.276.331.542.668.808,1a59.117,59.117,0,0,1-1.371,74.833c-.321.392-.658.773-1,1.155a59.167,59.167,0,0,1-92.669-5.412c-.04-.055-.08-.11-.115-.166a1.655,1.655,0,0,1-.115-.166q-.218-.309-.422-.617a58.709,58.709,0,0,1-9.689-26.084Zm10.226,26.867a1.655,1.655,0,0,1-.115-.166v.166Z" transform="translate(-287.445 -171.143)" fill="#ccc"/>
    <path id="Path_8912" data-name="Path 8912" d="M606.631,531.166h-60.1a2.775,2.775,0,0,1-2.772-2.772V499.11a2.775,2.775,0,0,1,2.772-2.772h60.1a2.775,2.775,0,0,1,2.772,2.772v29.284A2.775,2.775,0,0,1,606.631,531.166Z" transform="translate(-435.765 -371.388)" fill="#cacaca"/>
    <path id="Path_8913" data-name="Path 8913" d="M584.3,532.948c-13.162,0-26.887-.126-32.008-.207a2.582,2.582,0,0,1-2.529-2.572V503.251a.913.913,0,0,1,.909-.912h60.1a.913.913,0,0,1,.911.909v18.264a11.394,11.394,0,0,1-11.2,11.35C595.7,532.924,590.052,532.948,584.3,532.948Z" transform="translate(-439.904 -375.527)" fill="#e4e4e4"/>
    <path id="Path_8914" data-name="Path 8914" d="M601.97,515.036h-48.9a1.54,1.54,0,0,1-1.448-1.021l-5.535-15.528a1.537,1.537,0,0,1,1.446-2.053l61.127-.085h0a1.537,1.537,0,0,1,1.413,2.143l-.084-.036.084.036L603.382,514.1a1.536,1.536,0,0,1-1.413.932Z" transform="translate(-437.309 -371.395)" fill="#cacaca"/>
    <path id="Path_8915" data-name="Path 8915" d="M573.5,584.275H556.639a1.567,1.567,0,0,1,0-3.133H573.5a1.567,1.567,0,1,1,0,3.133Z" transform="translate(-443.568 -429.873)" fill="#cacaca"/>
    <circle id="Ellipse_70" data-name="Ellipse 70" cx="3.829" cy="3.829" r="3.829" transform="translate(136.895 139.811)" fill="#3f3d56"/>
    <path id="Path_8916" data-name="Path 8916" d="M215.205,101.655a43.39,43.39,0,0,1,60.459,10.493c13.8,19.593,27.643,70.97,17.87,100.733-29.151-30.792-73.937-33.992-88.822-50.767C188.808,144.189,195.613,115.452,215.205,101.655Z" transform="translate(-195.848 -93.736)" fill="#5c98e9"/>
    <circle id="b262ea8c-1946-46c9-a449-3a1996c39394" cx="14.151" cy="14.151" r="14.151" transform="translate(30.78 23.983)" fill="#fff"/>
    <circle id="bcc29a3a-8123-4529-80aa-6f70df2823cf" cx="9.269" cy="9.269" r="9.269" transform="translate(100.38 116.018)" fill="#5c98e9"/>
    <path id="Path_8917" data-name="Path 8917" d="M287.485,198.287a14.151,14.151,0,1,0,24.44,14.27,14.149,14.149,0,0,1-21.544-17.78A14.151,14.151,0,0,0,287.485,198.287Z" transform="translate(-257.694 -163.418)" fill="#231f20" opacity="0.2"/>
    <path id="Path_8918" data-name="Path 8918" d="M204.629,188.28c14.885,16.775,59.67,19.975,88.822,50.767a60.013,60.013,0,0,0,2.1-8.615c-29.137-27.993-71.429-31.531-85.81-47.738-12.872-14.506-10.868-36.092.749-51.112C194.552,146.35,190.053,171.854,204.629,188.28Z" transform="translate(-195.791 -119.835)" fill="#231f20" opacity="0.2"/>
    <path id="Path_8919" data-name="Path 8919" d="M774.636,501.173l-6.009-1.83c-2.616,3.154-4.785,12.291-4.785,12.291L755.617,525a2.773,2.773,0,1,0,3.954,2.719l12.448-15.112Z" transform="translate(-580.779 -373.461)" fill="#ffb6b6"/>
    <path id="Path_8920" data-name="Path 8920" d="M796.05,475.012l1.111-9.1-2.49-4.158a5.1,5.1,0,0,0-4.8-2.446h0a5.088,5.088,0,0,0-4.624,5.184c.093,3.91.709,8.854,3.113,10.206l.024.014Z" transform="translate(-602.308 -345.84)" fill="#5c98e9"/>
    <path id="Path_8921" data-name="Path 8921" d="M652.231,650.178l-3.6,1.739L640.2,638.845l5.319-2.567Z" transform="translate(-441.513 -438.806)" fill="#ffb6b6"/>
    <path id="Path_8922" data-name="Path 8922" d="M855.171,776.821l-11.082,5.349-.068-.14a4.79,4.79,0,0,1,2.231-6.4h0l1.283-2.513,4.518-.287.967-.467Z" transform="translate(-642.511 -561.75)" fill="#2f2e41"/>
    <path id="Path_8923" data-name="Path 8923" d="M579.405,662.468h-4l-1.9-15.435h5.906Z" transform="translate(-395.511 -446.223)" fill="#ffb6b6"/>
    <path id="Path_8924" data-name="Path 8924" d="M761.428,789.174H749.123v-.156a4.79,4.79,0,0,1,4.789-4.789h0l2.248-1.705,4.194,1.706h1.074Z" transform="translate(-577.394 -568.754)" fill="#2f2e41"/>
    <path id="Path_8925" data-name="Path 8925" d="M764.485,555.57,759.9,587.191l1.248,4.161L759.51,594.3l2.4,22.179-.976,2.149,2.727,1.682h5.55l.294-23.429,1.371-3.44v-1.9l2.791-14.286.644,22.24.891,1.719c3.319,7.53,7.789,10,10.95,15.623l5.55-3.006-.116-2.242c1.115-.565-1.674-2.214-1.942-3.435l-.485-2.185-3.237-6.706L785.8,596.9l.886-16.063-.417-21.63-7.28-5.567Z" transform="translate(-584.557 -410.909)" fill="#2f2e41"/>
    <circle id="Ellipse_71" data-name="Ellipse 71" cx="7.21" cy="7.21" r="7.21" transform="translate(179.923 91.886)" fill="#ffb6b6"/>
    <path id="Path_8926" data-name="Path 8926" d="M764.194,491.525l-.105-.037,1.4-4.536a3.694,3.694,0,0,1,.666-3.445,3.136,3.136,0,0,1,.359-3.8c-.091-.457-.546-3.162,1.044-4.485,0,0,3.086-23.387,4.816-29.564.05-.452-.355-4.142,1.973-4.287,1.228-.076,3.07-.193,5.835-.371.357-.026.566.578.883,1.559.215.664-.89,1.572-.623,1.557h.019l.018,0a11.624,11.624,0,0,1,8.6,11.88l-.822,13.974c.124.562,2.742,16.5,2.058,18.208-.388.97.274,1.575.757,2.016.249.227.429.392.4.571a.3.3,0,0,1-.186.22c-.437.219-.2,1.718.059,2.612l.026.091-.084.043a49.527,49.527,0,0,0-17.427-3.539C770.273,490.195,768.2,492.923,764.194,491.525Z" transform="translate(-587.715 -333.223)" fill="#5c98e9"/>
    <path id="Path_8927" data-name="Path 8927" d="M783.3,392.6a.6.6,0,0,1-.306-.381l-.1-.419.316.329A1.248,1.248,0,0,0,782.84,390a2.614,2.614,0,0,0-.426-.1,2.954,2.954,0,0,1-.447-.108,2.037,2.037,0,0,1-1.222-1.718,5.4,5.4,0,0,1,.214-1.938,26.384,26.384,0,0,1-9.572-.288,4.443,4.443,0,0,1-1.374-.54,5.321,5.321,0,0,1-1.88-1.891.568.568,0,0,1,.077-.669.618.618,0,0,1,.449-.2l-.115-.312a.588.588,0,0,1,.659-.781l.408.076-.039-.271a.587.587,0,0,1,.788-.634.647.647,0,0,0,.862-.475l.14-.682.014-.036a5.31,5.31,0,0,1,3.639-2.294,15.552,15.552,0,0,1,4.353,0,3.985,3.985,0,0,1,1.74.44,1.521,1.521,0,0,1,.759,1.4,3.473,3.473,0,0,1,3.663,1.515,7.61,7.61,0,0,1,1.057,4.179,12.118,12.118,0,0,1-1.834,7.284,1.716,1.716,0,0,1-.791.7.813.813,0,0,1-.262.042A.842.842,0,0,1,783.3,392.6Z" transform="translate(-590.452 -289.073)" fill="#2f2e41"/>
    <path id="Path_8928" data-name="Path 8928" d="M757.9,511.273l-5.292-3.385c-3.37,2.331-7.925,10.543-7.925,10.543l-11.527,10.649a2.774,2.774,0,1,0,3.074,3.686l16.065-11.191Z" transform="translate(-564.791 -379.354)" fill="#ffb6b6"/>
    <path id="Path_8929" data-name="Path 8929" d="M797.4,485.733l3.525-8.46-1.275-4.675a5.1,5.1,0,0,0-3.957-3.65h0a5.088,5.088,0,0,0-5.852,3.744c-.965,3.79-1.707,8.717.243,10.667l.02.02Z" transform="translate(-604.8 -352.441)" fill="#5c98e9"/>
  </g>
</svg>
