<svg width="512" height="512" viewBox="0 0 512 512" fill="none" xmlns="http://www.w3.org/2000/svg">
<g clip-path="url(#clip0_101_202)">
<rect width="512" height="512" fill="white"/>
<g opacity="0.1" clip-path="url(#clip1_101_202)" filter="url(#filter0_f_101_202)">
<path d="M102.4 51.2002H51.2V102.4H102.4V51.2002Z" fill="black"/>
<path d="M358.4 0V25.6H332.8V51.2H358.4V153.6H384V179.2H358.4V204.8H384H409.6V153.6H486.4V179.2H512V153.6V0H358.4ZM486.4 128H384V25.6H486.4V128Z" fill="black"/>
<path d="M460.8 51.2002H409.6V102.4H460.8V51.2002Z" fill="black"/>
<path d="M102.4 409.6H51.2V460.8H102.4V409.6Z" fill="black"/>
<path d="M384 358.4H358.4V384H384V358.4Z" fill="black"/>
<path d="M256 486.4H230.4V512H256V486.4Z" fill="black"/>
<path d="M281.6 384H256V409.6H281.6V384Z" fill="black"/>
<path d="M281.6 435.2H256V460.8H281.6V435.2Z" fill="black"/>
<path d="M512 307.2H486.4V332.8H512V307.2Z" fill="black"/>
<path d="M25.6 307.2H0V332.8H25.6V307.2Z" fill="black"/>
<path d="M25.6 179.2H0V204.8H25.6V179.2Z" fill="black"/>
<path d="M281.6 25.6001V51.2001H230.4V76.8001H307.2V51.2001V25.6001H281.6Z" fill="black"/>
<path d="M486.4 204.8V230.4H435.2V256H358.4V230.4H332.8V256H281.6V281.6H358.4V307.2H307.2H281.6V281.6H256V307.2H230.4V281.6H204.8V307.2H179.2V332.8H230.4V358.4H256V332.8H307.2V358.4H281.6V384H307.2V435.2H332.8V460.8H358.4V435.2H435.2V384H460.8V358.4H435.2V307.2H384V281.6H435.2V307.2H460.8V281.6H486.4V256H512V230.4V204.8H486.4ZM409.6 332.8V409.6H332.8V332.8H409.6Z" fill="black"/>
<path d="M332.8 153.6H307.2V179.2H281.6V204.8V230.4H307.2V204.8H332.8V179.2H358.4V153.6H332.8Z" fill="black"/>
<path d="M332.8 486.4H281.6V512H332.8V486.4Z" fill="black"/>
<path d="M230.4 25.6001H204.8V51.2001H230.4V25.6001Z" fill="black"/>
<path d="M435.2 204.8H409.6V230.4H435.2V204.8Z" fill="black"/>
<path d="M460.8 179.2H435.2V204.8H460.8V179.2Z" fill="black"/>
<path d="M128 307.2H102.4V332.8H128V307.2Z" fill="black"/>
<path d="M153.6 486.4V384H179.2V358.4V332.8H153.6V358.4H76.8V332.8H51.2H25.6V358.4H0V512H153.6H204.8V486.4H153.6ZM128 486.4H25.6V384H128V486.4Z" fill="black"/>
<path d="M179.2 153.6H153.6V179.2H179.2V153.6Z" fill="black"/>
<path d="M179.2 0H153.6H0V153.6H25.6V179.2H51.2V153.6H76.8V179.2H102.4V153.6H153.6V102.4H179.2V76.8H153.6V25.6H179.2H204.8V0H179.2ZM128 128H25.6V25.6H128V128Z" fill="black"/>
<path d="M332.8 76.7998H307.2V102.4H332.8V76.7998Z" fill="black"/>
<path d="M281.6 0H256V25.6H281.6V0Z" fill="black"/>
<path d="M307.2 153.6V128H281.6V102.4H256V128H204.8V102.4H179.2V128V153.6H204.8V204.8H128V179.2H102.4V204.8H25.6V230.4H76.8V256H0V281.6H76.8V307.2H102.4V281.6H128V307.2H153.6V281.6H204.8V256H179.2V230.4H204.8H230.4V256H256H281.6V230.4H256V204.8H230.4V153.6H307.2ZM153.6 256H102.4V230.4H153.6V256Z" fill="black"/>
<path d="M230.4 409.6V384V358.4H204.8V384H179.2V409.6H204.8V435.2H179.2V460.8H230.4V435.2H256V409.6H230.4Z" fill="black"/>
<path d="M460.8 460.8V435.2H435.2V460.8H358.4V486.4H409.6V512H435.2V486.4H486.4V512H512V486.4V460.8H460.8Z" fill="black"/>
<path d="M486.4 358.4V384H460.8V409.6H512V384V358.4H486.4Z" fill="black"/>
</g>
<path d="M31.1717 371.4C31.1717 373.187 30.7584 374.813 29.9317 376.28C29.1051 377.72 27.8784 378.867 26.2517 379.72C24.6517 380.573 22.7051 381 20.4117 381H16.8917V390H8.01172V361.68H20.4117C23.8784 361.68 26.5317 362.56 28.3717 364.32C30.2384 366.08 31.1717 368.44 31.1717 371.4ZM19.4117 374C21.2517 374 22.1717 373.133 22.1717 371.4C22.1717 369.667 21.2517 368.8 19.4117 368.8H16.8917V374H19.4117ZM49.7883 367.28C52.3749 367.28 54.3883 368.147 55.8283 369.88C57.2949 371.613 58.0283 373.96 58.0283 376.92V390H49.1883V378.04C49.1883 376.973 48.8949 376.133 48.3083 375.52C47.7483 374.88 46.9883 374.56 46.0283 374.56C45.0416 374.56 44.2683 374.88 43.7083 375.52C43.1483 376.133 42.8683 376.973 42.8683 378.04V390H33.9883V360.4H42.8683V370.88C43.5616 369.813 44.4816 368.947 45.6283 368.28C46.8016 367.613 48.1883 367.28 49.7883 367.28ZM72.5989 390.28C70.3322 390.28 68.2922 389.813 66.4789 388.88C64.6656 387.947 63.2389 386.613 62.1989 384.88C61.1856 383.12 60.6789 381.067 60.6789 378.72C60.6789 376.373 61.1856 374.333 62.1989 372.6C63.2389 370.84 64.6656 369.493 66.4789 368.56C68.2922 367.627 70.3322 367.16 72.5989 367.16C74.8656 367.16 76.9056 367.627 78.7189 368.56C80.5322 369.493 81.9456 370.84 82.9589 372.6C83.9989 374.333 84.5189 376.373 84.5189 378.72C84.5189 381.067 83.9989 383.12 82.9589 384.88C81.9456 386.613 80.5322 387.947 78.7189 388.88C76.9056 389.813 74.8656 390.28 72.5989 390.28ZM72.5989 382.6C73.4256 382.6 74.1189 382.28 74.6789 381.64C75.2389 380.973 75.5189 380 75.5189 378.72C75.5189 377.44 75.2389 376.48 74.6789 375.84C74.1189 375.173 73.4256 374.84 72.5989 374.84C71.7722 374.84 71.0789 375.173 70.5189 375.84C69.9589 376.48 69.6789 377.44 69.6789 378.72C69.6789 380 69.9456 380.973 70.4789 381.64C71.0389 382.28 71.7456 382.6 72.5989 382.6ZM101.349 382.44V390H97.9886C91.8019 390 88.7086 386.92 88.7086 380.76V374.84H85.9086V367.44H88.7086V362H97.5886V367.44H101.269V374.84H97.5886V380.92C97.5886 381.453 97.7086 381.84 97.9486 382.08C98.2153 382.32 98.6419 382.44 99.2286 382.44H101.349ZM115.45 390.28C113.184 390.28 111.144 389.813 109.33 388.88C107.517 387.947 106.09 386.613 105.05 384.88C104.037 383.12 103.53 381.067 103.53 378.72C103.53 376.373 104.037 374.333 105.05 372.6C106.09 370.84 107.517 369.493 109.33 368.56C111.144 367.627 113.184 367.16 115.45 367.16C117.717 367.16 119.757 367.627 121.57 368.56C123.384 369.493 124.797 370.84 125.81 372.6C126.85 374.333 127.37 376.373 127.37 378.72C127.37 381.067 126.85 383.12 125.81 384.88C124.797 386.613 123.384 387.947 121.57 388.88C119.757 389.813 117.717 390.28 115.45 390.28ZM115.45 382.6C116.277 382.6 116.97 382.28 117.53 381.64C118.09 380.973 118.37 380 118.37 378.72C118.37 377.44 118.09 376.48 117.53 375.84C116.97 375.173 116.277 374.84 115.45 374.84C114.624 374.84 113.93 375.173 113.37 375.84C112.81 376.48 112.53 377.44 112.53 378.72C112.53 380 112.797 380.973 113.33 381.64C113.89 382.28 114.597 382.6 115.45 382.6ZM138.28 367.16C139.747 367.16 141.013 367.467 142.08 368.08C143.147 368.667 143.96 369.48 144.52 370.52V367.44H153.36V389.6C153.36 391.707 152.973 393.627 152.2 395.36C151.427 397.093 150.173 398.48 148.44 399.52C146.733 400.56 144.533 401.08 141.84 401.08C138.213 401.08 135.333 400.227 133.2 398.52C131.093 396.84 129.893 394.547 129.6 391.64H138.32C138.56 392.813 139.52 393.4 141.2 393.4C142.24 393.4 143.053 393.133 143.64 392.6C144.227 392.067 144.52 391.067 144.52 389.6V386.92C143.96 387.96 143.147 388.787 142.08 389.4C141.013 389.987 139.747 390.28 138.28 390.28C136.52 390.28 134.933 389.827 133.52 388.92C132.107 387.987 130.987 386.653 130.16 384.92C129.36 383.16 128.96 381.093 128.96 378.72C128.96 376.347 129.36 374.293 130.16 372.56C130.987 370.8 132.107 369.467 133.52 368.56C134.933 367.627 136.52 367.16 138.28 367.16ZM144.52 378.72C144.52 377.52 144.213 376.587 143.6 375.92C142.987 375.253 142.2 374.92 141.24 374.92C140.28 374.92 139.493 375.253 138.88 375.92C138.267 376.587 137.96 377.52 137.96 378.72C137.96 379.92 138.267 380.853 138.88 381.52C139.493 382.187 140.28 382.52 141.24 382.52C142.2 382.52 142.987 382.187 143.6 381.52C144.213 380.853 144.52 379.92 144.52 378.72ZM166.228 371.6C167.134 370.293 168.241 369.253 169.548 368.48C170.854 367.68 172.214 367.28 173.628 367.28V376.76H171.108C169.428 376.76 168.188 377.053 167.388 377.64C166.614 378.227 166.228 379.267 166.228 380.76V390H157.348V367.44H166.228V371.6ZM174.82 378.72C174.82 376.347 175.22 374.293 176.02 372.56C176.846 370.8 177.966 369.467 179.38 368.56C180.793 367.627 182.38 367.16 184.14 367.16C185.606 367.16 186.873 367.467 187.94 368.08C189.006 368.667 189.82 369.48 190.38 370.52V367.44H199.22V390H190.38V386.92C189.82 387.96 189.006 388.787 187.94 389.4C186.873 389.987 185.606 390.28 184.14 390.28C182.38 390.28 180.793 389.827 179.38 388.92C177.966 387.987 176.846 386.653 176.02 384.92C175.22 383.16 174.82 381.093 174.82 378.72ZM190.38 378.72C190.38 377.52 190.073 376.587 189.46 375.92C188.846 375.253 188.06 374.92 187.1 374.92C186.14 374.92 185.353 375.253 184.74 375.92C184.126 376.587 183.82 377.52 183.82 378.72C183.82 379.92 184.126 380.853 184.74 381.52C185.353 382.187 186.14 382.52 187.1 382.52C188.06 382.52 188.846 382.187 189.46 381.52C190.073 380.853 190.38 379.92 190.38 378.72ZM212.087 370.52C212.647 369.48 213.447 368.667 214.487 368.08C215.554 367.467 216.82 367.16 218.287 367.16C220.047 367.16 221.634 367.627 223.047 368.56C224.46 369.467 225.567 370.8 226.367 372.56C227.194 374.293 227.607 376.347 227.607 378.72C227.607 381.093 227.194 383.16 226.367 384.92C225.567 386.653 224.46 387.987 223.047 388.92C221.634 389.827 220.047 390.28 218.287 390.28C216.82 390.28 215.554 389.987 214.487 389.4C213.447 388.787 212.647 387.96 212.087 386.92V400.8H203.207V367.44H212.087V370.52ZM218.607 378.72C218.607 377.52 218.3 376.587 217.687 375.92C217.074 375.253 216.287 374.92 215.327 374.92C214.367 374.92 213.58 375.253 212.967 375.92C212.354 376.587 212.047 377.52 212.047 378.72C212.047 379.92 212.354 380.853 212.967 381.52C213.58 382.187 214.367 382.52 215.327 382.52C216.287 382.52 217.074 382.187 217.687 381.52C218.3 380.853 218.607 379.92 218.607 378.72ZM246.195 367.28C248.781 367.28 250.795 368.147 252.235 369.88C253.701 371.613 254.435 373.96 254.435 376.92V390H245.595V378.04C245.595 376.973 245.301 376.133 244.715 375.52C244.155 374.88 243.395 374.56 242.435 374.56C241.448 374.56 240.675 374.88 240.115 375.52C239.555 376.133 239.275 376.973 239.275 378.04V390H230.395V360.4H239.275V370.88C239.968 369.813 240.888 368.947 242.035 368.28C243.208 367.613 244.595 367.28 246.195 367.28ZM280.882 367.28C283.469 367.28 285.482 368.147 286.922 369.88C288.389 371.613 289.122 373.96 289.122 376.92V390H280.282V378.04C280.282 376.973 279.989 376.133 279.402 375.52C278.842 374.88 278.082 374.56 277.122 374.56C276.135 374.56 275.362 374.88 274.802 375.52C274.242 376.133 273.962 376.973 273.962 378.04V390H265.082V367.44H273.962V370.88C274.655 369.813 275.575 368.947 276.722 368.28C277.895 367.613 279.282 367.28 280.882 367.28ZM303.693 390.28C301.426 390.28 299.386 389.813 297.573 388.88C295.759 387.947 294.333 386.613 293.293 384.88C292.279 383.12 291.773 381.067 291.773 378.72C291.773 376.373 292.279 374.333 293.293 372.6C294.333 370.84 295.759 369.493 297.573 368.56C299.386 367.627 301.426 367.16 303.693 367.16C305.959 367.16 307.999 367.627 309.813 368.56C311.626 369.493 313.039 370.84 314.053 372.6C315.093 374.333 315.613 376.373 315.613 378.72C315.613 381.067 315.093 383.12 314.053 384.88C313.039 386.613 311.626 387.947 309.813 388.88C307.999 389.813 305.959 390.28 303.693 390.28ZM303.693 382.6C304.519 382.6 305.213 382.28 305.773 381.64C306.333 380.973 306.613 380 306.613 378.72C306.613 377.44 306.333 376.48 305.773 375.84C305.213 375.173 304.519 374.84 303.693 374.84C302.866 374.84 302.173 375.173 301.613 375.84C301.053 376.48 300.773 377.44 300.773 378.72C300.773 380 301.039 380.973 301.573 381.64C302.133 382.28 302.839 382.6 303.693 382.6ZM332.442 382.44V390H329.082C322.896 390 319.802 386.92 319.802 380.76V374.84H317.002V367.44H319.802V362H328.682V367.44H332.362V374.84H328.682V380.92C328.682 381.453 328.802 381.84 329.042 382.08C329.309 382.32 329.736 382.44 330.322 382.44H332.442ZM341.421 378.72C341.421 376.347 341.821 374.293 342.621 372.56C343.448 370.8 344.568 369.467 345.981 368.56C347.394 367.627 348.981 367.16 350.741 367.16C352.208 367.16 353.474 367.467 354.541 368.08C355.608 368.667 356.421 369.48 356.981 370.52V367.44H365.821V390H356.981V386.92C356.421 387.96 355.608 388.787 354.541 389.4C353.474 389.987 352.208 390.28 350.741 390.28C348.981 390.28 347.394 389.827 345.981 388.92C344.568 387.987 343.448 386.653 342.621 384.92C341.821 383.16 341.421 381.093 341.421 378.72ZM356.981 378.72C356.981 377.52 356.674 376.587 356.061 375.92C355.448 375.253 354.661 374.92 353.701 374.92C352.741 374.92 351.954 375.253 351.341 375.92C350.728 376.587 350.421 377.52 350.421 378.72C350.421 379.92 350.728 380.853 351.341 381.52C351.954 382.187 352.741 382.52 353.701 382.52C354.661 382.52 355.448 382.187 356.061 381.52C356.674 380.853 356.981 379.92 356.981 378.72ZM378.689 360.4V390H369.809V360.4H378.689ZM391.579 360.4V390H382.699V360.4H391.579ZM406.31 390.28C404.043 390.28 402.003 389.813 400.19 388.88C398.377 387.947 396.95 386.613 395.91 384.88C394.897 383.12 394.39 381.067 394.39 378.72C394.39 376.373 394.897 374.333 395.91 372.6C396.95 370.84 398.377 369.493 400.19 368.56C402.003 367.627 404.043 367.16 406.31 367.16C408.577 367.16 410.617 367.627 412.43 368.56C414.243 369.493 415.657 370.84 416.67 372.6C417.71 374.333 418.23 376.373 418.23 378.72C418.23 381.067 417.71 383.12 416.67 384.88C415.657 386.613 414.243 387.947 412.43 388.88C410.617 389.813 408.577 390.28 406.31 390.28ZM406.31 382.6C407.137 382.6 407.83 382.28 408.39 381.64C408.95 380.973 409.23 380 409.23 378.72C409.23 377.44 408.95 376.48 408.39 375.84C407.83 375.173 407.137 374.84 406.31 374.84C405.483 374.84 404.79 375.173 404.23 375.84C403.67 376.48 403.39 377.44 403.39 378.72C403.39 380 403.657 380.973 404.19 381.64C404.75 382.28 405.457 382.6 406.31 382.6ZM455.26 367.44L449.9 390H439.9L437.18 377.28L434.3 390H424.3L418.98 367.44H427.78L429.66 381.16L432.58 367.44H442.06L445.14 381.32L447.06 367.44H455.26ZM478.992 378.52C478.992 379.133 478.952 379.72 478.872 380.28H464.592C464.726 382.227 465.539 383.2 467.032 383.2C467.992 383.2 468.686 382.76 469.112 381.88H478.512C478.192 383.48 477.512 384.92 476.472 386.2C475.459 387.453 474.166 388.453 472.592 389.2C471.046 389.92 469.339 390.28 467.472 390.28C465.232 390.28 463.232 389.813 461.472 388.88C459.739 387.947 458.379 386.613 457.392 384.88C456.432 383.12 455.952 381.067 455.952 378.72C455.952 376.373 456.432 374.333 457.392 372.6C458.379 370.84 459.739 369.493 461.472 368.56C463.232 367.627 465.232 367.16 467.472 367.16C469.712 367.16 471.699 367.627 473.432 368.56C475.192 369.467 476.552 370.773 477.512 372.48C478.499 374.187 478.992 376.2 478.992 378.52ZM469.992 376.4C469.992 375.653 469.752 375.093 469.272 374.72C468.792 374.32 468.192 374.12 467.472 374.12C465.899 374.12 464.979 374.88 464.712 376.4H469.992ZM480.601 378.72C480.601 376.347 481.001 374.293 481.801 372.56C482.627 370.8 483.747 369.467 485.161 368.56C486.574 367.627 488.161 367.16 489.921 367.16C491.387 367.16 492.641 367.467 493.681 368.08C494.747 368.667 495.561 369.48 496.121 370.52V360.4H505.001V390H496.121V386.92C495.561 387.96 494.747 388.787 493.681 389.4C492.641 389.987 491.387 390.28 489.921 390.28C488.161 390.28 486.574 389.827 485.161 388.92C483.747 387.987 482.627 386.653 481.801 384.92C481.001 383.16 480.601 381.093 480.601 378.72ZM496.161 378.72C496.161 377.52 495.854 376.587 495.241 375.92C494.627 375.253 493.841 374.92 492.881 374.92C491.921 374.92 491.134 375.253 490.521 375.92C489.907 376.587 489.601 377.52 489.601 378.72C489.601 379.92 489.907 380.853 490.521 381.52C491.134 382.187 491.921 382.52 492.881 382.52C493.841 382.52 494.627 382.187 495.241 381.52C495.854 380.853 496.161 379.92 496.161 378.72Z" fill="#1D2F8E"/>
<path d="M233.467 172.924L194.137 130.741C191.583 132.211 189.854 134.883 189.854 137.969V205.47C189.854 210.13 193.754 213.906 198.564 213.906H271.68L255.657 196.723C243.472 194.962 234.059 185.077 233.467 172.924Z" fill="#1D4E8E"/>
<path d="M320.503 129.531H290.018L283.716 117.32C282.24 114.462 279.225 112.657 275.924 112.657H243.143C239.843 112.657 236.827 114.462 235.352 117.32L232.402 123.035L213.747 102.793C210.536 99.3305 205.024 99.0482 201.447 102.165C197.87 105.284 197.581 110.619 200.801 114.082L309.673 232.207C311.391 234.059 313.764 235 316.15 235C318.226 235 320.31 234.285 321.973 232.835C325.549 229.716 325.838 224.38 322.619 220.917L316.159 213.906H320.503C325.313 213.906 329.213 210.13 329.213 205.47V137.969C329.213 133.31 325.313 129.531 320.503 129.531ZM254.415 146.918C256.072 146.596 257.779 146.407 259.534 146.407C273.964 146.407 285.664 157.74 285.664 171.72C285.664 174.415 285.185 176.992 284.377 179.426L254.415 146.918Z" fill="#1D4E8E"/>
</g>
<defs>
<filter id="filter0_f_101_202" x="-20" y="-20" width="552" height="552" filterUnits="userSpaceOnUse" color-interpolation-filters="sRGB">
<feFlood flood-opacity="0" result="BackgroundImageFix"/>
<feBlend mode="normal" in="SourceGraphic" in2="BackgroundImageFix" result="shape"/>
<feGaussianBlur stdDeviation="10" result="effect1_foregroundBlur_101_202"/>
</filter>
<clipPath id="clip0_101_202">
<rect width="512" height="512" fill="white"/>
</clipPath>
<clipPath id="clip1_101_202">
<rect width="512" height="512" fill="white"/>
</clipPath>
</defs>
</svg>
