<svg width="25" height="23" viewBox="0 0 19 23" fill="white" xmlns="http://www.w3.org/2000/svg">
<path d="M10.8435 19.5405C11.3809 19.5564 11.9086 19.6882 12.3903 19.9268H12.4193C12.8218 20.2569 12.8902 20.8462 12.574 21.2596C11.9983 22.0879 11.0771 22.6101 10.07 22.6792C9.03533 22.8033 7.99336 22.5153 7.16964 21.8776C6.74601 21.5856 6.47071 21.1237 6.41554 20.6125C6.41554 20.0717 6.91828 19.8206 7.38234 19.7143C7.92588 19.5992 8.47993 19.541 9.03555 19.5405H10.8435ZM9.62529 0.978455C12.9704 0.978455 16.4218 3.41219 16.7796 6.93724C16.8376 7.66156 16.7796 8.41486 16.8376 9.14884C17.0274 10.0954 17.4643 10.975 18.1041 11.6985C18.5018 12.2931 18.7322 12.9835 18.7712 13.6976V13.9197C18.7771 14.8833 18.4337 15.8164 17.8044 16.5466C17.0067 17.404 15.9245 17.9429 14.759 18.0629C11.3154 18.5071 7.82888 18.5071 4.38528 18.0629C3.20601 17.952 2.10855 17.4124 1.30121 16.5466C0.691629 15.8094 0.37197 14.8755 0.402097 13.9197V13.6976C0.439826 12.9862 0.66313 12.297 1.04985 11.6985C1.69245 10.9743 2.13555 10.0957 2.33568 9.14884C2.39369 8.41486 2.33568 7.67122 2.39369 6.93724C2.76107 3.41219 6.14484 0.978455 9.52861 0.978455H9.62529Z"/>
</svg>
