<svg width="60" height="60" viewBox="0 0 20 8" fill="currentColor" xmlns="http://www.w3.org/2000/svg">
<path fill-rule="evenodd" clip-rule="evenodd" d="M11.5847 4.82253L10.9282 5.02916C11.0582 4.7992 11.2148 4.54591 11.3714 4.34927L11.5847 4.82253ZM9.41843 0L10.7049 2.86619C10.5586 3.06581 10.1205 3.67096 9.70823 4.26391V2.36126H8.54176V4.90841C8.38087 4.79945 8.21159 4.72281 8.04852 4.69534V4.56757C8.04852 4.55757 8.04185 4.55424 8.03519 4.5609C8.03519 4.5609 7.90854 4.66089 7.3553 4.71754C7.19866 4.73421 7.12201 4.72754 7.06535 4.71754C6.27881 4.58423 6.24215 4.01099 6.24215 4.01099C6.24215 4.00549 6.24114 3.99796 6.24023 3.9912C6.23949 3.98568 6.23882 3.98066 6.23882 3.97767V3.7577C6.23882 3.7477 6.23882 3.73104 6.24215 3.72438C6.24215 3.72438 6.29548 3.10781 7.06535 3.04116H7.3553C7.69191 3.08448 7.9652 3.25112 7.9652 3.25112C7.9752 3.25445 7.98186 3.25112 7.98186 3.24112V2.46792C7.98186 2.45792 7.9752 2.44792 7.9652 2.44126C7.9652 2.44126 7.81189 2.34127 7.3453 2.31461C7.32197 2.30128 6.91204 2.29795 6.80206 2.31461C5.10234 2.45125 5.03902 3.68105 5.03902 3.73437V4.03432C5.03902 4.07098 5.03902 5.32744 6.80206 5.43742C6.94352 5.4483 7.1938 5.44142 7.29911 5.43852H7.29912L7.29922 5.43852C7.32287 5.43787 7.33919 5.43742 7.3453 5.43742L7.35096 5.43741C7.38809 5.64364 7.49005 5.86485 7.63206 6.06899L2.60957 7.65206L0 0.533244L9.41843 0ZM9.83821 1.39809C9.83821 1.77136 9.51826 2.07131 9.125 2.07131C8.73173 2.07131 8.41178 1.76803 8.41178 1.39809C8.41178 1.02482 8.73173 0.724871 9.125 0.724871C9.51826 0.724871 9.83821 1.02482 9.83821 1.39809ZM1.81622 5.41742C1.80622 5.41742 1.79955 5.41076 1.79955 5.40076V2.37793C1.79955 2.36793 1.80622 2.36127 1.81622 2.36127H3.28931C3.66258 2.3446 4.80239 2.44792 4.80239 3.41109C4.80239 4.62755 2.98602 4.49758 2.98602 4.49758C2.97602 4.49758 2.96936 4.50424 2.96936 4.51424V5.40076C2.96936 5.41076 2.96269 5.41742 2.95269 5.41742H1.81622ZM2.94936 3.02449V3.82102H3.26264C3.26264 3.82102 3.61258 3.80436 3.66591 3.48108C3.67257 3.47441 3.67257 3.33777 3.66591 3.31777C3.63258 3.04115 3.22932 3.02449 3.22932 3.02449H2.94936Z" />
<path fill-rule="evenodd" clip-rule="evenodd" d="M9.15848 6.88218C9.25179 6.88218 9.32512 6.88218 9.4451 6.82886C9.85836 6.61223 11.2548 3.2028 12.7279 2.15297C12.7379 2.14631 12.7479 2.13631 12.7545 2.12631C12.7645 2.11298 12.7645 2.09965 12.7645 2.09965C12.7645 2.09965 12.7645 2.02966 12.5479 2.02966C11.2381 1.993 9.87502 4.74254 9.15848 5.82903C9.14848 5.84236 9.10182 5.82903 9.10182 5.82903C9.10182 5.82903 8.6219 5.26245 8.2053 5.04582C8.1953 5.04249 8.14864 5.02583 8.09865 5.02916C8.06532 5.02916 7.87202 5.06915 7.78204 5.16247C7.67539 5.27579 7.67872 5.33911 7.67872 5.47575C7.67872 5.48575 7.68539 5.53241 7.69872 5.55574C7.80204 5.73571 8.26529 6.3756 8.64856 6.72888C8.70522 6.7722 8.7952 6.88218 9.15848 6.88218Z" />
<path fill-rule="evenodd" clip-rule="evenodd" d="M13.1143 1.12305H14.2041C14.4207 1.12305 14.594 1.15304 14.724 1.2097C14.8573 1.26969 14.9673 1.35301 15.0506 1.45966C15.1373 1.56964 15.2006 1.69628 15.2372 1.83959C15.2772 1.9829 15.2972 2.13621 15.2972 2.29952C15.2972 2.55281 15.2672 2.74944 15.2106 2.88942C15.1539 3.0294 15.0739 3.14604 14.9706 3.24269C14.8673 3.33601 14.7573 3.39933 14.6407 3.43266C14.4807 3.47599 14.3341 3.49598 14.2041 3.49598H13.1143V1.12305ZM13.8475 1.65962V2.95607H14.0274C14.1807 2.95607 14.2907 2.93941 14.3541 2.90608C14.4174 2.87276 14.4707 2.81277 14.5074 2.72945C14.544 2.64613 14.564 2.50615 14.564 2.31618C14.564 2.06289 14.524 1.89292 14.4407 1.7996C14.3574 1.70628 14.2241 1.65962 14.0308 1.65962H13.8475Z" />
<path fill-rule="evenodd" clip-rule="evenodd" d="M15.501 2.7129L16.2009 2.66957C16.2175 2.78288 16.2475 2.86954 16.2942 2.92953C16.3708 3.02618 16.4775 3.07284 16.6175 3.07284C16.7208 3.07284 16.8041 3.04951 16.8608 2.99951C16.9174 2.94952 16.9474 2.89287 16.9474 2.82954C16.9474 2.76955 16.9207 2.7129 16.8674 2.6629C16.8141 2.61291 16.6874 2.56959 16.4908 2.52626C16.1675 2.45294 15.9409 2.35629 15.8009 2.23631C15.6609 2.11633 15.5943 1.96302 15.5943 1.77638C15.5943 1.65307 15.631 1.53976 15.7009 1.42978C15.7709 1.31979 15.8776 1.23647 16.0209 1.17315C16.1642 1.10983 16.3575 1.07983 16.6041 1.07983C16.9074 1.07983 17.1407 1.13649 17.2973 1.24981C17.4573 1.36312 17.5506 1.54309 17.5806 1.78972L16.8874 1.82971C16.8674 1.72306 16.8308 1.64641 16.7708 1.59642C16.7108 1.54642 16.6308 1.52309 16.5275 1.52309C16.4408 1.52309 16.3775 1.53976 16.3342 1.57642C16.2908 1.61308 16.2708 1.6564 16.2708 1.70973C16.2708 1.74639 16.2875 1.78305 16.3242 1.81305C16.3575 1.84304 16.4408 1.87303 16.5708 1.8997C16.8907 1.96969 17.1207 2.03967 17.2607 2.10966C17.4007 2.17965 17.5006 2.26964 17.564 2.37295C17.6273 2.47627 17.6573 2.59625 17.6573 2.72623C17.6573 2.87953 17.614 3.01951 17.5306 3.14616C17.4473 3.27613 17.3273 3.37279 17.1774 3.43944C17.0274 3.5061 16.8341 3.53942 16.6041 3.53942C16.2009 3.53942 15.9209 3.46277 15.7643 3.30613C15.611 3.14949 15.5243 2.95286 15.501 2.7129Z" />
<path fill-rule="evenodd" clip-rule="evenodd" d="M17.8438 2.7129L18.5436 2.66957C18.5603 2.78288 18.5903 2.86954 18.637 2.92953C18.7136 3.02618 18.8203 3.07284 18.9602 3.07284C19.0635 3.07284 19.1469 3.04951 19.2035 2.99951C19.2602 2.94952 19.2902 2.89287 19.2902 2.82954C19.2902 2.76955 19.2635 2.7129 19.2102 2.6629C19.1569 2.61291 19.0302 2.56959 18.8336 2.52626C18.5103 2.45294 18.2837 2.35629 18.1437 2.23631C18.0071 2.11633 17.9371 1.96302 17.9371 1.77638C17.9371 1.65307 17.9737 1.53976 18.0437 1.42978C18.1137 1.31979 18.2204 1.23647 18.3637 1.17315C18.507 1.10983 18.7003 1.07983 18.9469 1.07983C19.2502 1.07983 19.4835 1.13649 19.6401 1.24981C19.8001 1.36312 19.8934 1.54309 19.9234 1.78972L19.2302 1.82971C19.2102 1.72306 19.1735 1.64641 19.1135 1.59642C19.0535 1.54642 18.9736 1.52309 18.8702 1.52309C18.7836 1.52309 18.7203 1.53976 18.6769 1.57642C18.6336 1.61308 18.6136 1.6564 18.6136 1.70973C18.6136 1.74639 18.6303 1.78305 18.6669 1.81305C18.7003 1.84304 18.7836 1.87303 18.9136 1.8997C19.2335 1.96969 19.4635 2.03967 19.6035 2.10966C19.7434 2.17965 19.8434 2.26964 19.9067 2.37295C19.9701 2.47627 20.0001 2.59625 20.0001 2.72623C20.0001 2.87953 19.9567 3.01951 19.8734 3.14616C19.7901 3.27613 19.6701 3.37279 19.5201 3.43944C19.3702 3.5061 19.1769 3.53942 18.9469 3.53942C18.5436 3.53942 18.2637 3.46277 18.107 3.30613C17.9504 3.14949 17.8637 2.95286 17.8438 2.7129Z" />
<path fill-rule="evenodd" clip-rule="evenodd" d="M13.9503 4.36276H13.7407C13.7368 4.33563 13.729 4.31154 13.7172 4.29047C13.7054 4.26908 13.6902 4.25089 13.6717 4.23589C13.6532 4.22089 13.6318 4.2094 13.6076 4.20142C13.5836 4.19344 13.5576 4.18945 13.5295 4.18945C13.4788 4.18945 13.4346 4.20206 13.3969 4.22727C13.3592 4.25217 13.33 4.28855 13.3093 4.33643C13.2885 4.38399 13.2782 4.44176 13.2782 4.50974C13.2782 4.57964 13.2885 4.63837 13.3093 4.68593C13.3303 4.73349 13.3597 4.76939 13.3974 4.79365C13.435 4.81791 13.4786 4.83004 13.5281 4.83004C13.5558 4.83004 13.5815 4.82637 13.6052 4.81903C13.6291 4.81169 13.6503 4.80099 13.6688 4.78695C13.6873 4.77259 13.7027 4.75519 13.7148 4.73476C13.7272 4.71434 13.7359 4.69104 13.7407 4.66486L13.9503 4.66582C13.9449 4.71083 13.9314 4.75423 13.9097 4.79605C13.8883 4.83754 13.8594 4.87472 13.823 4.9076C13.7869 4.94015 13.7438 4.96601 13.6937 4.98516C13.6439 5.00399 13.5876 5.01341 13.5247 5.01341C13.4373 5.01341 13.3591 4.99362 13.2901 4.95404C13.2215 4.91446 13.1672 4.85717 13.1274 4.78216C13.0878 4.70716 13.068 4.61635 13.068 4.50974C13.068 4.40282 13.0881 4.31185 13.1283 4.23685C13.1685 4.16184 13.2231 4.10471 13.292 4.06545C13.361 4.02587 13.4385 4.00608 13.5247 4.00608C13.5815 4.00608 13.6342 4.01406 13.6827 4.03002C13.7316 4.04598 13.7748 4.06928 13.8125 4.09992C13.8501 4.13024 13.8808 4.16743 13.9044 4.21147C13.9283 4.25552 13.9436 4.30595 13.9503 4.36276ZM14.099 5V4.01949H14.7597V4.19041H14.3063V4.42405H14.7257V4.59496H14.3063V4.82908H14.7616V5H14.099ZM14.9245 5V4.01949H15.3114C15.3854 4.01949 15.4486 4.03273 15.501 4.05923C15.5536 4.0854 15.5937 4.12258 15.6211 4.17078C15.6489 4.21865 15.6628 4.27499 15.6628 4.33978C15.6628 4.40489 15.6487 4.46091 15.6206 4.50783C15.5926 4.55443 15.5519 4.59018 15.4986 4.61507C15.4456 4.63997 15.3814 4.65242 15.3061 4.65242H15.0471V4.48581H15.2726C15.3122 4.48581 15.345 4.48038 15.3712 4.46953C15.3974 4.45868 15.4168 4.4424 15.4296 4.42069C15.4427 4.39899 15.4492 4.37202 15.4492 4.33978C15.4492 4.30723 15.4427 4.27978 15.4296 4.25743C15.4168 4.23509 15.3972 4.21818 15.3707 4.20669C15.3446 4.19488 15.3115 4.18897 15.2716 4.18897H15.1318V5H14.9245ZM15.454 4.55379L15.6977 5H15.4689L15.2304 4.55379H15.454ZM15.7719 4.19041V4.01949H16.5772V4.19041H16.277V5H16.0721V4.19041H15.7719ZM16.9171 4.01949V5H16.7098V4.01949H16.9171ZM17.0877 5V4.01949H17.7369V4.19041H17.295V4.42405H17.6938V4.59496H17.295V5H17.0877ZM18.0837 4.01949V5H17.8763V4.01949H18.0837ZM18.2542 5V4.01949H18.9149V4.19041H18.4615V4.42405H18.8809V4.59496H18.4615V4.82908H18.9168V5H18.2542ZM19.4273 5H19.0797V4.01949H19.4302C19.5288 4.01949 19.6137 4.03912 19.6849 4.07838C19.7561 4.11732 19.8108 4.17333 19.8491 4.24642C19.8877 4.31951 19.907 4.40697 19.907 4.50879C19.907 4.61092 19.8877 4.6987 19.8491 4.77211C19.8108 4.84552 19.7557 4.90185 19.6839 4.94111C19.6124 4.98037 19.5269 5 19.4273 5ZM19.287 4.82238H19.4187C19.48 4.82238 19.5315 4.81153 19.5733 4.78982C19.6155 4.7678 19.6471 4.73381 19.6681 4.68784C19.6895 4.64156 19.7002 4.58188 19.7002 4.50879C19.7002 4.43633 19.6895 4.37713 19.6681 4.33116C19.6471 4.2852 19.6156 4.25137 19.5738 4.22967C19.532 4.20796 19.4804 4.19711 19.4192 4.19711H19.287V4.82238Z" />
</svg>
