<svg width="49" height="51" viewBox="0 0 49 51" fill="none" xmlns="http://www.w3.org/2000/svg">
<path d="M10.2083 8.5V27.625H49V8.5H10.2083ZM23.3036 20.2512L20.4167 23.256L18.3138 21.0672L16.2108 23.256L13.3239 20.2512L15.4268 18.0625L13.3239 15.8737L16.2108 12.869L18.3138 15.0577L20.4167 12.869L23.3036 15.8737L21.2007 18.0625L23.3036 20.2512ZM34.6532 20.2512L31.7663 23.256L29.6634 21.0672L27.5605 23.256L24.6735 20.2512L26.7765 18.0625L24.6735 15.8737L27.5605 12.869L29.6634 15.0577L31.7663 12.869L34.6532 15.8737L32.5503 18.0625L34.6532 20.2512ZM46.0008 20.2512L43.1139 23.256L41.011 21.0672L38.908 23.256L36.0211 20.2512L38.124 18.0625L36.0211 15.8737L38.908 12.869L41.011 15.0577L43.1139 12.869L46.0008 15.8737L43.8979 18.0625L46.0008 20.2512ZM28.5854 34H4.08333V4.25H32.6667V0H0V44.625C0 48.1398 2.74808 51 6.125 51H26.5417C29.9186 51 32.6667 48.1398 32.6667 44.625V31.875H28.5833V34H28.5854ZM26.5437 46.75H6.125C4.998 46.75 4.08333 45.7959 4.08333 44.625V38.25H28.5833V44.625C28.5833 45.7959 27.6687 46.75 26.5417 46.75H26.5437ZM12.252 40.375H20.4187V44.625H12.252V40.375Z" fill="#FFCD02"/>
</svg>
