<svg width="50" height="50" viewBox="0 0 46 46" fill="none" xmlns="http://www.w3.org/2000/svg">
<circle cx="22.7867" cy="22.7867" r="21.6182" fill="#D6D6D6" stroke="#F8F8F8" stroke-width="1.66294"/>
<path d="M19.8796 27.0935C21.8248 26.9391 23.7789 26.9391 25.7241 27.0935C26.7834 27.1543 27.8376 27.2847 28.8801 27.4841C31.1361 27.9338 32.6089 28.6676 33.2401 29.8512C33.7142 30.775 33.7142 31.8746 33.2401 32.7983C32.6089 33.9819 31.1946 34.7631 28.8568 35.1655C27.815 35.3723 26.7606 35.5068 25.7007 35.5679C24.7189 35.6745 23.737 35.6745 22.7434 35.6745H20.955C20.5809 35.6271 20.2186 35.6034 19.8679 35.6034C18.808 35.5498 17.7533 35.4192 16.7119 35.2129C14.4559 34.7868 12.9831 34.0293 12.3519 32.8457C12.1082 32.3872 11.9797 31.875 11.9777 31.3544C11.9728 30.8305 12.0973 30.3138 12.3402 29.8512C12.9597 28.6676 14.4325 27.8983 16.7119 27.4841C17.7579 27.2819 18.8162 27.1514 19.8796 27.0935ZM22.7902 9.06749C26.7088 9.06749 29.8854 12.284 29.8854 16.2518C29.8854 20.2197 26.7088 23.4362 22.7902 23.4362C18.8716 23.4362 15.6949 20.2197 15.6949 16.2518C15.6949 12.284 18.8716 9.06749 22.7902 9.06749Z" fill="#222223"/>
</svg>
