
<svg width="32" height="32" viewBox="0 0 32 32" fill="currentColor" xmlns="http://www.w3.org/2000/svg">
<g clip-path="url(#clip0_1684_3671)">
<path d="M26.6667 21.333C26.6667 22.437 25.7707 23.333 24.6667 23.333C23.5627 23.333 22.6667 22.437 22.6667 21.333C22.6667 20.229 23.5627 19.333 24.6667 19.333C25.7707 19.333 26.6667 20.229 26.6667 21.333ZM30.6667 10.6663C29.9293 10.6663 29.3333 11.2637 29.3333 11.9997V27.9997C29.3333 28.7343 28.736 29.333 28 29.333H6.66667C4.46133 29.333 2.66667 27.5383 2.66667 25.333V11.9997V11.993C3.80533 12.8463 5.204 13.333 6.66533 13.333H19.9987C20.736 13.333 21.332 12.7357 21.332 11.9997C21.332 11.2637 20.736 10.6663 19.9987 10.6663H6.66667C5.52533 10.6663 4.46267 10.1583 3.71067 9.32767C4.44267 8.51833 5.49067 7.99967 6.66667 7.99967H16C16.7373 7.99967 17.3333 7.40233 17.3333 6.66633C17.3333 5.93033 16.7373 5.333 16 5.333H6.66667C2.66667 5.333 0 8.66633 0 11.9997V25.333C0 29.009 2.99067 31.9997 6.66667 31.9997H28C30.2053 31.9997 32 30.205 32 27.9997V11.9997C32 11.2637 31.404 10.6663 30.6667 10.6663ZM22.2707 5.61433L24 3.90633V11.9997C24 12.7357 24.596 13.333 25.3333 13.333C26.0707 13.333 26.6667 12.7357 26.6667 11.9997V3.93033L28.404 5.621C28.6627 5.873 28.9973 5.99967 29.3333 5.99967C29.6813 5.99967 30.028 5.865 30.2893 5.597C30.8027 5.069 30.792 4.225 30.2627 3.71166L27.2933 0.820998C26.1987 -0.271002 24.424 -0.269668 23.3333 0.815665L20.3947 3.71833C19.8707 4.23567 19.8667 5.07967 20.3827 5.60367C20.9027 6.129 21.744 6.13166 22.2693 5.61566L22.2707 5.61433Z" />
</g>
<defs>
<clipPath id="clip0_1684_3671">
<rect width="32" height="32" />
</clipPath>
</defs>
</svg>
