<svg id="undraw_circled-x" xmlns="http://www.w3.org/2000/svg" width="70.411" height="73.791" viewBox="0 0 70.411 73.791">
  <path id="Path_6468" data-name="Path 6468" d="M34.811.009C27.492-.1,19.878,1.294,13.679,5.377a29.689,29.689,0,0,0-11.422,14.6C-2.078,31.544.155,45.33,6.2,55.87c6.311,11,17.771,18.92,30.821,17.82a37.475,37.475,0,0,0,22.455-10,35.38,35.38,0,0,0,10.844-23.24C71.585,22.646,59.451,5.921,42.3,1.292A44.293,44.293,0,0,0,34.811.009,3.033,3.033,0,0,0,31.8,3.02a3.075,3.075,0,0,0,3.011,3.011,32.643,32.643,0,0,1,21,10.153,26.147,26.147,0,0,1,3.3,4.239,36.08,36.08,0,0,1,2.667,4.952c.232.524-.255-.643.11.258q.114.281.223.563.245.635.466,1.279.49,1.428.857,2.893a28.328,28.328,0,0,1,.842,4.982,34.1,34.1,0,0,1-.025,5.7c-.016.184-.163,1.442-.1.991-.055.4-.121.793-.193,1.188q-.269,1.484-.675,2.94a29.438,29.438,0,0,1-4.768,9.647,28.918,28.918,0,0,1-9.18,7.977,32.9,32.9,0,0,1-9.318,3.422q-.618.131-1.24.237c-.244.042-1.1.165-.425.077q-1.2.157-2.4.213a29.813,29.813,0,0,1-4.383-.139c-.891-.089.3.076-.422-.059-.328-.061-.657-.111-.985-.176q-1.078-.215-2.135-.518-.94-.27-1.858-.609c-.3-.112-.605-.233-.906-.354-.426-.171.673.309.025.007-.2-.091-.392-.177-.587-.269a28.353,28.353,0,0,1-3.552-2.007c-.538-.357-1.063-.734-1.578-1.122.527.4-.023-.022-.238-.2q-.461-.376-.907-.77A33.8,33.8,0,0,1,15.5,58.6c-.438-.493-.854-1-1.271-1.514-.446-.547.233.339-.269-.353-.217-.3-.436-.6-.647-.9A41.721,41.721,0,0,1,9.2,48.408c.311.724-.1-.256-.168-.429q-.187-.473-.362-.95-.391-1.061-.726-2.14Q7.3,42.84,6.865,40.735q-.206-.992-.367-1.994c-.026-.159-.166-1.144-.109-.711.067.51-.026-.225-.031-.268-.025-.223-.051-.445-.073-.668a41.134,41.134,0,0,1-.212-4.112A38.228,38.228,0,0,1,6.3,28.814c.022-.2.17-1.253.041-.388.048-.322.1-.643.151-.964q.173-1.01.405-2.008a31.477,31.477,0,0,1,1.17-3.879c.124-.331.254-.658.389-.985-.255.618,0,.022.12-.248q.44-.957.951-1.879.459-.828.976-1.622.287-.441.592-.87c.131-.185.793-1.037.288-.4a26.166,26.166,0,0,1,2.75-2.967q.72-.661,1.491-1.265c-.619.488.21-.146.362-.254q.5-.355,1.018-.686a28.472,28.472,0,0,1,3.769-2.007c.443-.2-.675.262.054-.021.151-.059.3-.119.451-.177q.573-.22,1.155-.416,1.14-.385,2.306-.682,1.151-.295,2.321-.509c.4-.074.806-.14,1.21-.2.594-.092.149-.024.025-.008.28-.037.56-.069.841-.1a46.654,46.654,0,0,1,5.679-.24c3.876.057,3.877-5.964,0-6.021Z" transform="translate(0 0)" fill="#0c1f57"/>
  <g id="undraw_question-mark" transform="translate(26.156 19.116)">
    <path id="Path_7888" data-name="Path 7888" d="M3.3,6.814c2.171-3.644,7.653-4.6,10.3-.876a5.464,5.464,0,0,1,.264,5.837,12,12,0,0,1-2.352,2.5,11.494,11.494,0,0,0-2.423,2.918c-1.418,2.64-1.419,5.7-1.3,8.618.089,2.26,3.613,2.272,3.524,0-.1-2.519-.3-5.516,1.325-7.641.882-1.15,2.123-1.986,3.094-3.057a8.854,8.854,0,0,0,2.1-3.8,9.084,9.084,0,0,0-1.938-8.136A9.471,9.471,0,0,0,8.175.029,10.252,10.252,0,0,0,.26,5.035C-.9,6.988,2.142,8.762,3.3,6.814h0Z" transform="translate(0 0)" fill="#0c1f57"/>
    <path id="Path_7889" data-name="Path 7889" d="M14.286,45.479l-.395-.088a1.335,1.335,0,0,0-.7-.031,1.311,1.311,0,0,0-.655.209,1.331,1.331,0,0,0-.494.454,1.327,1.327,0,0,0-.315.6l-.063.468a1.754,1.754,0,0,0,.241.889l.276.357a1.76,1.76,0,0,0,.778.453l.395.088a1.335,1.335,0,0,0,.7.031,1.312,1.312,0,0,0,.655-.209,1.971,1.971,0,0,0,.81-1.053l.063-.468a1.754,1.754,0,0,0-.241-.889l-.276-.357a1.76,1.76,0,0,0-.778-.453Z" transform="translate(-3.442 -13.381)" fill="#0c1f57"/>
  </g>
</svg>
