<svg xmlns="http://www.w3.org/2000/svg" xmlns:xlink="http://www.w3.org/1999/xlink" width="247.47" height="191.032" viewBox="0 0 247.47 191.032">
  <defs>
    <clipPath id="clip-path">
      <rect id="Rectangle_2085" data-name="Rectangle 2085" width="247.47" height="191.032" fill="none"/>
    </clipPath>
  </defs>
  <g id="Group_13823" data-name="Group 13823" transform="translate(-88.006 -226.202)">
    <g id="Group_13875" data-name="Group 13875" transform="translate(88.006 226.202)">
      <path id="Path_8073" data-name="Path 8073" d="M285.021,334.073l7.07,1.465,21.482-103.675,58.132,88.793,6.041-3.955-67.7-103.406Z" transform="translate(-193.099 -144.505)" fill="#59595b"/>
      <g id="Group_13874" data-name="Group 13874">
        <g id="Group_13873" data-name="Group 13873" clip-path="url(#clip-path)">
          <path id="Path_8074" data-name="Path 8074" d="M322.488,223.956a62.687,62.687,0,1,1-73.144-50.1,62.7,62.7,0,0,1,73.144,50.1" transform="translate(-134.261 -117.053)" fill="#ff8282"/>
          <path id="Path_8075" data-name="Path 8075" d="M322.488,223.956a62.687,62.687,0,1,1-73.144-50.1,62.7,62.7,0,0,1,73.144,50.1" transform="translate(-134.261 -117.053)" fill="#ff8282"/>
          <path id="Path_8076" data-name="Path 8076" d="M325.637,230.392a59.871,59.871,0,1,1-69.858-47.85,59.888,59.888,0,0,1,69.858,47.85" transform="translate(-140.177 -122.972)" fill="#ff8282"/>
          <path id="Path_8077" data-name="Path 8077" d="M319.868,224.046A49.994,49.994,0,1,0,336.7,253a49.866,49.866,0,0,0-16.831-28.958" transform="translate(-160.963 -143.763)" fill="#fff"/>
          <path id="Path_8078" data-name="Path 8078" d="M343.132,248.932a49.988,49.988,0,0,1-71.206,69.537,49.987,49.987,0,1,0,71.206-69.537" transform="translate(-184.227 -168.649)" fill="#f0f1f1"/>
          <path id="Path_8079" data-name="Path 8079" d="M488.934,149.359a28.687,28.687,0,0,0-46.94-32.988Z" transform="translate(-299.447 -70.676)" fill="#ff8282"/>
          <path id="Path_8080" data-name="Path 8080" d="M482.183,146.933a24.718,24.718,0,0,0-40.445-28.424Z" transform="translate(-299.273 -73.254)" fill="#ff8282"/>
          <path id="Path_8081" data-name="Path 8081" d="M137.5,213.987a28.691,28.691,0,0,1,31.844-47.733Z" transform="translate(-84.61 -109.411)" fill="#ff8282"/>
          <path id="Path_8082" data-name="Path 8082" d="M154.749,208.789a24.739,24.739,0,0,1,27.457-41.158Z" transform="translate(-97.474 -110.789)" fill="#ff8282"/>
          <path id="Path_8083" data-name="Path 8083" d="M369.726,307.949l-6.207-33.188,7.1-1.327,4.879,26.09,20.9-3.912,1.328,7.1Z" transform="translate(-246.281 -185.249)" fill="#59595b"/>
          <path id="Path_8084" data-name="Path 8084" d="M384.94,351.4a6.916,6.916,0,1,1-8.07-5.527,6.918,6.918,0,0,1,8.07,5.527" transform="translate(-251.501 -234.247)" fill="#ff8282"/>
          <path id="Path_8085" data-name="Path 8085" d="M266.154,382.039a3.548,3.548,0,1,1-4.14-2.835,3.549,3.549,0,0,1,4.14,2.835" transform="translate(-175.55 -256.865)" fill="#59595b"/>
          <path id="Path_8086" data-name="Path 8086" d="M515.314,335.408a3.548,3.548,0,1,1-4.14-2.836,3.549,3.549,0,0,1,4.14,2.836" transform="translate(-344.353 -225.273)" fill="#59595b"/>
          <path id="Path_8087" data-name="Path 8087" d="M364.6,238.254a3.549,3.549,0,1,1,2.835-4.141,3.548,3.548,0,0,1-2.835,4.141" transform="translate(-244.164 -156.647)" fill="#59595b"/>
          <path id="Path_8088" data-name="Path 8088" d="M411.2,487.474a3.549,3.549,0,1,1,2.835-4.141,3.548,3.548,0,0,1-2.835,4.141" transform="translate(-275.74 -325.491)" fill="#59595b"/>
          <path id="Path_8089" data-name="Path 8089" d="M432.626,0l-1.794,19.844,5.616-2.777,2.632,12.791,2.254-19.812-6,2.895Z" transform="translate(-291.884)" fill="#4674b7"/>
          <path id="Path_8090" data-name="Path 8090" d="M506.218,18.1,489.5,28.938l5.652,2.7-8.434,9.969,16.972-10.46-5.982-2.935Z" transform="translate(-329.75 -12.26)" fill="#4674b7"/>
          <path id="Path_8091" data-name="Path 8091" d="M134.033,105.848l14.793,13.342,1.149-6.161,11.809,5.569-14.493-13.691-1.287,6.54Z" transform="translate(-90.806 -71.074)" fill="#4674b7"/>
          <path id="Path_8092" data-name="Path 8092" d="M212.126,30.042l-1.359,19.878,5.555-2.9,2.911,12.73,1.819-19.857-5.938,3.025Z" transform="translate(-142.793 -20.353)" fill="#4674b7"/>
          <path id="Path_8093" data-name="Path 8093" d="M668.516,144.908l-15.768,12.176,5.855,2.231-7.589,10.627,16.057-11.817-6.2-2.435Z" transform="translate(-441.056 -98.174)" fill="#4674b7"/>
          <path id="Path_8094" data-name="Path 8094" d="M703.269,228.2l-19.311-4.888,1.86,5.984-13.042.592,19.207,5.337-1.915-6.384Z" transform="translate(-455.8 -151.291)" fill="#4674b7"/>
          <path id="Path_8095" data-name="Path 8095" d="M24.038,272.406l19.1,5.65-4.652,4.2L49.4,289.418l-19.242-5.211,4.9-4.513Z" transform="translate(-16.285 -184.553)" fill="#4674b7"/>
          <path id="Path_8096" data-name="Path 8096" d="M0,357.831,16.238,346.29l.428,6.252,12.374-4.165L13.061,360.3l-.521-6.645Z" transform="translate(0 -234.608)" fill="#4674b7"/>
        </g>
      </g>
    </g>
  </g>
</svg>
