<svg xmlns="http://www.w3.org/2000/svg" width="70" height="71" fill="currentColor"><path  d="M52.823.113c0 .08-.178.121-.695.145-.46.025-.71.073-.76.146-.04.064-.266.121-.556.145-.348.024-.493.065-.493.146 0 .08-.113.113-.404.113-.29 0-.404.032-.404.113 0 .064-.121.137-.283.161-.17.033-.282.105-.282.17 0 .089-.105.121-.404.121-.307 0-.404.032-.404.121 0 .065-.073.121-.161.121-.09 0-.162.057-.162.122 0 .064-.113.137-.283.17-.161.023-.282.096-.282.16 0 .073-.09.114-.243.114-.161 0-.242.04-.242.12 0 .066-.048.122-.105.122-.057 0-.162.073-.242.162a.463.463 0 0 1-.3.161c-.088 0-.16.057-.16.121 0 .065-.073.121-.162.121-.09 0-.162.049-.162.114 0 .064-.105.137-.242.17-.13.031-.242.104-.242.169 0 .064-.073.113-.162.113-.105 0-.161.056-.161.161 0 .09-.057.162-.122.162a.124.124 0 0 0-.12.121c0 .065-.074.121-.162.121-.09 0-.162.057-.162.121a.124.124 0 0 1-.121.121c-.065 0-.121.073-.121.162 0 .089-.057.162-.121.162a.124.124 0 0 0-.121.12c0 .065-.073.122-.162.122-.105 0-.162.056-.162.161 0 .09-.056.162-.12.162a.124.124 0 0 0-.122.121c0 .065-.048.121-.113.121s-.137.105-.17.243c-.032.129-.104.242-.17.242-.064 0-.112.073-.112.161 0 .09-.049.162-.113.162-.065 0-.138.105-.17.234-.024.13-.105.259-.17.283a.187.187 0 0 0-.113.17.124.124 0 0 1-.12.12c-.081 0-.122.081-.122.243 0 .137-.048.266-.113.29-.065.025-.145.154-.17.283-.032.13-.105.235-.17.235-.072 0-.112.088-.112.282 0 .186-.04.283-.113.283-.065 0-.138.121-.162.283-.032.153-.089.282-.13.282-.04 0-.096.13-.128.283-.025.162-.097.283-.162.283-.08 0-.113.113-.113.404 0 .29-.032.403-.113.403-.08 0-.121.146-.145.493-.025.299-.081.517-.146.557-.08.049-.12.3-.145.84-.024.59-.065.776-.146.776-.088 0-.113.178-.113.848v.848h-.444c-.323 0-.444-.032-.444-.113 0-.08-.145-.121-.493-.146-.266-.016-.517-.08-.549-.129-.032-.056-.347-.12-.719-.153-.476-.033-.662-.081-.662-.154 0-.089-.186-.113-.848-.113-.703 0-.848-.024-.848-.12 0-.106-.356-.122-2.706-.122s-2.706.016-2.706.121c0 .097-.153.121-.929.121-.727 0-.928.024-.928.113 0 .073-.162.121-.534.154-.315.024-.565.08-.605.145-.033.065-.275.121-.59.137-.387.025-.533.065-.533.146 0 .08-.113.113-.404.113-.29 0-.404.032-.404.113 0 .121-.242.21-.581.21-.146 0-.226.04-.226.121 0 .089-.097.121-.404.121-.299 0-.404.033-.404.121 0 .065-.113.138-.283.17-.161.024-.282.097-.282.162 0 .072-.097.113-.283.113-.194 0-.283.04-.283.12 0 .082-.08.122-.242.122-.154 0-.242.04-.242.113 0 .065-.122.137-.283.162-.17.032-.283.105-.283.17 0 .08-.089.12-.282.12-.194 0-.283.04-.283.122a.124.124 0 0 1-.121.12.187.187 0 0 0-.17.114c-.024.064-.153.145-.282.17-.13.032-.235.104-.235.169 0 .073-.089.113-.282.113-.194 0-.283.04-.283.121 0 .065-.049.121-.113.121-.057 0-.13.073-.154.162-.032.121-.113.161-.29.161-.17 0-.25.04-.25.122 0 .064-.05.12-.114.12-.056 0-.13.073-.153.162-.025.09-.097.162-.17.162-.073 0-.13.056-.13.12 0 .066-.072.122-.16.122-.09 0-.162.049-.162.113 0 .065-.105.137-.243.17-.129.032-.242.105-.242.17 0 .064-.056.113-.121.113a.124.124 0 0 0-.121.12c0 .065-.073.122-.162.122-.089 0-.161.056-.161.12a.124.124 0 0 1-.121.122c-.065 0-.122.073-.122.162 0 .105-.056.161-.161.161-.089 0-.162.057-.162.121a.124.124 0 0 1-.12.121.124.124 0 0 0-.122.122.124.124 0 0 1-.121.12c-.065 0-.121.073-.121.162 0 .105-.057.162-.162.162-.089 0-.161.056-.161.121a.124.124 0 0 1-.122.121c-.064 0-.12.073-.12.162 0 .088-.057.161-.122.161a.124.124 0 0 0-.12.121c0 .065-.058.122-.13.122-.073 0-.146.072-.17.161-.024.089-.097.162-.153.162-.065 0-.113.056-.113.12 0 .065-.049.122-.113.122-.065 0-.138.105-.17.234-.024.13-.105.259-.17.283a.187.187 0 0 0-.113.17.124.124 0 0 1-.12.12c-.066 0-.122.073-.122.162 0 .089-.048.162-.113.162s-.137.105-.17.242c-.032.13-.105.242-.17.242-.064 0-.112.073-.112.162 0 .089-.049.161-.114.161-.064 0-.137.105-.17.243-.031.129-.104.242-.169.242-.064 0-.113.073-.113.162 0 .088-.056.161-.12.161-.082 0-.122.08-.122.242 0 .138-.049.267-.113.291-.065.024-.146.153-.17.283-.032.129-.105.234-.17.234-.072 0-.112.089-.112.283 0 .194-.04.282-.114.282-.064 0-.137.105-.17.235-.023.129-.104.258-.169.282-.064.024-.113.154-.113.291 0 .162-.04.242-.121.242-.089 0-.121.09-.121.283 0 .178-.049.307-.113.331-.065.024-.146.162-.178.299a.895.895 0 0 1-.161.364c-.065.056-.113.25-.113.428 0 .226-.033.315-.122.315-.088 0-.12.097-.12.363 0 .25-.041.38-.138.428-.097.057-.146.218-.17.574-.024.347-.064.492-.145.492-.089 0-.113.13-.113.525 0 .388-.032.541-.113.574-.09.032-.13.266-.178.848-.04.605-.08.8-.17.8-.088 0-.105.516-.088 3.351.016 2.334.048 3.376.113 3.417.048.032.113.363.145.743.032.38.097.71.154.743.056.032.105.315.12.662.025.42.065.614.138.614.057 0 .121.162.145.42.033.226.097.444.146.477.048.024.113.218.129.428.032.242.08.371.153.371.081 0 .114.113.114.404 0 .299.032.404.113.404.064 0 .145.113.17.258.031.146.096.291.136.315.04.024.097.202.122.388.024.186.088.331.145.331.057 0 .13.121.154.275.032.153.104.299.17.323.072.024.12.145.12.29 0 .162.04.243.121.243.081 0 .122.089.122.283 0 .193.04.282.12.282.065 0 .122.057.122.121 0 .073.048.146.113.17.065.024.145.154.17.283.032.129.105.234.17.234.072 0 .112.089.112.283 0 .226.033.282.162.282.105 0 .161.057.161.162 0 .089.057.161.122.161.08 0 .12.081.12.243 0 .153.041.242.114.242.056 0 .129.073.153.162.024.088.097.161.17.161.072 0 .129.057.129.121 0 .065.056.121.121.121.08 0 .121.081.121.243 0 .17.04.242.13.242.072 0 .145.073.17.161.023.09.096.162.153.162.064 0 .113.073.113.162 0 .088.056.161.12.161.065 0 .122.057.122.121 0 .065.048.121.113.121.057 0 .13.073.153.162.025.089.097.162.17.162.073 0 .13.056.13.12 0 .065.048.122.112.122.065 0 .138.105.17.242.032.13.105.242.17.242.064 0 .113.057.113.122 0 .064.056.12.129.12.073 0 .145.073.17.154.024.097.137.186.274.21.13.032.234.105.234.17 0 .064.057.113.122.113.064 0 .12.056.12.121s.073.121.162.121c.09 0 .162.057.162.121 0 .065.056.121.121.121s.121.073.121.162c0 .105.057.162.162.162.088 0 .161.056.161.12 0 .065.057.122.121.122.065 0 .122.048.122.113s.105.137.242.17c.129.032.242.105.242.17 0 .064.073.112.162.112.088 0 .161.057.161.121 0 .065.073.122.162.122.088 0 .161.048.161.113 0 .064.113.137.242.17.138.032.243.104.243.169 0 .064.072.113.161.113.09 0 .162.048.162.113s.105.137.234.17c.13.024.259.105.283.17.024.064.153.112.29.112.162 0 .243.04.243.121 0 .065.073.122.161.122.09 0 .162.056.162.12 0 .065.113.138.283.17.161.025.282.097.282.162 0 .073.09.113.243.113.161 0 .242.04.242.121 0 .08.08.121.242.121.13 0 .267.057.307.13.04.08.226.145.444.17.25.031.38.08.38.153 0 .072.097.113.283.113.194 0 .282.04.282.12 0 .082.13.13.404.17.259.033.404.09.404.162 0 .08.113.113.404.113.307 0 .404.032.404.121 0 .09.097.121.404.121.266 0 .42.04.46.121.049.081.267.138.695.17.444.04.622.089.622.162 0 .089.161.113.686.113s.687.024.687.113.355.121 1.785.17c2.334.072 5.08-.017 5.08-.17 0-.089.178-.113.808-.113.63 0 .807-.024.807-.113 0-.073.162-.121.533-.154.307-.024.566-.08.598-.145.04-.057.283-.121.557-.137.348-.025.493-.065.493-.146 0-.08.113-.113.404-.113.299 0 .404-.032.404-.121 0-.08.129-.13.404-.17.258-.032.403-.089.403-.161 0-.073.097-.113.283-.113.194 0 .283-.04.283-.121 0-.081.089-.122.282-.122.194 0 .283-.04.283-.12 0-.065.113-.138.283-.17.161-.025.282-.097.282-.162 0-.073.097-.113.283-.113.194 0 .283-.04.283-.121 0-.08.08-.121.242-.121.162 0 .242-.04.242-.122 0-.064.114-.137.283-.17.162-.023.283-.096.283-.16 0-.065.073-.114.161-.114a.463.463 0 0 0 .3-.161c.08-.09.185-.162.242-.162.056 0 .105-.056.105-.12 0-.082.088-.122.282-.122.194 0 .283-.04.283-.121 0-.065.048-.121.105-.121.056 0 .161-.073.242-.162a.462.462 0 0 1 .3-.161c.088 0 .16-.057.16-.122 0-.064.057-.12.122-.12a.195.195 0 0 0 .17-.122c.032-.065.096-.121.16-.121.066 0 .114-.073.114-.162 0-.129.056-.161.242-.161.162 0 .243-.04.243-.121 0-.065.072-.121.161-.121.105 0 .162-.057.162-.162 0-.089.056-.162.12-.162a.124.124 0 0 0 .122-.12c0-.065.073-.122.162-.122.088 0 .161-.056.161-.121s.057-.121.121-.121c.065 0 .121-.073.121-.162 0-.105.057-.161.162-.161.089 0 .161-.057.161-.121 0-.065.057-.121.122-.121a.124.124 0 0 0 .12-.122c0-.064.057-.12.13-.12.073 0 .145-.073.17-.162.024-.09.097-.162.153-.162.065 0 .113-.056.113-.121s.057-.121.121-.121c.065 0 .121-.073.121-.162 0-.089.057-.161.122-.161a.124.124 0 0 0 .12-.121c0-.065.073-.122.162-.122.105 0 .162-.056.162-.161 0-.089.048-.162.113-.162.064 0 .137-.105.17-.242.032-.13.105-.242.17-.242.064 0 .112-.057.112-.121 0-.065.057-.122.121-.122.065 0 .121-.072.121-.161 0-.089.057-.162.122-.162a.124.124 0 0 0 .12-.12c0-.073.05-.146.114-.17.065-.025.145-.154.17-.283.032-.13.105-.234.17-.234.064 0 .112-.073.112-.162 0-.089.049-.161.113-.161.065 0 .138-.113.17-.243.032-.137.105-.242.17-.242.072 0 .112-.089.112-.283 0-.194.04-.282.122-.282.064 0 .12-.049.12-.105 0-.057.074-.162.162-.243a.463.463 0 0 0 .162-.298c0-.09.056-.162.121-.162.08 0 .121-.089.121-.283 0-.194.04-.282.121-.282.065 0 .138-.113.17-.283.024-.162.097-.283.162-.283.072 0 .113-.097.113-.283 0-.185.04-.282.113-.282.064 0 .12-.13.153-.34.024-.185.105-.363.17-.403.08-.049.129-.186.129-.348 0-.193.04-.282.121-.282.089 0 .121-.097.121-.404 0-.29.033-.404.113-.404.073 0 .121-.13.154-.371.016-.21.089-.404.145-.437.057-.04.121-.282.138-.557.024-.323.072-.493.137-.493.073 0 .113-.177.137-.533.016-.307.073-.557.137-.59.065-.048.114-.37.146-1.009.04-.71.072-.937.153-.937.097 0 .113-.484.113-2.706 0-2.213-.016-2.705-.105-2.705s-.129-.21-.161-.824c-.032-.525-.089-.84-.154-.88-.064-.04-.113-.3-.129-.67-.024-.429-.064-.615-.137-.615-.073 0-.113-.17-.137-.533-.017-.315-.073-.557-.138-.59-.056-.04-.121-.234-.145-.427l-.04-.364.944-.048c.525-.025.978-.081 1.002-.13.032-.048.355-.105.719-.137.476-.04.662-.089.662-.161 0-.081.137-.114.525-.114.412 0 .525-.024.525-.12 0-.073.073-.122.194-.122.363 0 .694-.105.694-.21 0-.072.097-.113.283-.113.194 0 .283-.04.283-.121 0-.08.08-.121.275-.121.153 0 .33-.057.403-.121a.431.431 0 0 1 .243-.122c.072 0 .129-.064.129-.161 0-.13.056-.162.283-.162.185 0 .282-.04.282-.113 0-.064.121-.137.283-.161.17-.032.283-.105.283-.17 0-.064.056-.12.12-.12a.124.124 0 0 0 .122-.122c0-.08.089-.121.283-.121.194 0 .282-.04.282-.121 0-.065.057-.122.121-.122.065 0 .122-.072.122-.161 0-.13.056-.162.242-.162.162 0 .242-.04.242-.12 0-.065.073-.122.162-.122.105 0 .161-.056.161-.162 0-.088.057-.161.121-.161a.124.124 0 0 0 .122-.121c0-.065.072-.121.161-.121.089 0 .162-.057.162-.122 0-.064.048-.12.113-.12.056 0 .129-.073.153-.162.024-.089.097-.162.17-.162.072 0 .13-.056.13-.12 0-.066.056-.122.12-.122.065 0 .121-.073.121-.162 0-.088.057-.161.121-.161a.124.124 0 0 0 .122-.121c0-.065.072-.121.161-.121.13 0 .162-.057.162-.283 0-.194.04-.283.12-.283a.124.124 0 0 0 .122-.12c0-.066.073-.122.162-.122.105 0 .161-.057.161-.162 0-.088.057-.161.121-.161.081 0 .121-.08.121-.242 0-.162.04-.243.122-.243.064 0 .137-.113.17-.282.023-.162.096-.283.16-.283.065 0 .114-.073.114-.162 0-.088.056-.161.121-.161.08 0 .121-.081.121-.242 0-.13.057-.267.13-.307.064-.04.145-.219.169-.404.032-.21.089-.34.153-.34.073 0 .114-.096.114-.282 0-.186.04-.283.113-.283.072 0 .129-.137.161-.396.032-.234.097-.412.17-.444.089-.032.12-.178.12-.573 0-.388.025-.525.114-.525.08 0 .121-.17.145-.655.025-.444.073-.678.154-.726.17-.105.17-3.926 0-4.03-.081-.05-.13-.284-.154-.76-.024-.517-.064-.695-.145-.695-.089 0-.113-.137-.113-.525 0-.387-.032-.525-.113-.525-.073 0-.13-.145-.162-.403-.04-.275-.089-.404-.17-.404-.08 0-.12-.09-.12-.283 0-.194-.04-.283-.122-.283-.08 0-.12-.08-.12-.226 0-.339-.09-.581-.21-.581-.073 0-.114-.09-.114-.243 0-.161-.04-.242-.121-.242-.065 0-.121-.073-.121-.161 0-.09-.049-.186-.113-.21-.065-.025-.146-.154-.17-.283-.032-.13-.105-.234-.17-.234-.072 0-.113-.09-.113-.243 0-.161-.04-.242-.12-.242-.065 0-.122-.065-.122-.153 0-.081-.073-.17-.161-.194-.09-.025-.162-.097-.162-.17 0-.073-.056-.13-.121-.13-.08 0-.121-.08-.121-.233 0-.162-.049-.243-.162-.275-.089-.024-.161-.097-.161-.17 0-.072-.057-.129-.121-.129a.124.124 0 0 1-.122-.121.124.124 0 0 0-.12-.121c-.065 0-.122-.049-.122-.113 0-.057-.073-.13-.161-.154-.09-.024-.162-.097-.162-.17 0-.072-.056-.129-.121-.129a.124.124 0 0 1-.121-.12.124.124 0 0 0-.121-.122.126.126 0 0 1-.122-.129c0-.073-.072-.145-.161-.17-.089-.024-.162-.097-.162-.153 0-.065-.072-.113-.161-.113-.09 0-.162-.049-.162-.113 0-.065-.105-.138-.242-.17-.13-.032-.242-.105-.242-.17 0-.064-.057-.113-.122-.113a.124.124 0 0 1-.12-.12c0-.065-.073-.122-.162-.122-.09 0-.162-.048-.162-.113s-.105-.137-.242-.17c-.13-.032-.242-.105-.242-.17 0-.072-.09-.112-.283-.112-.194 0-.283-.04-.283-.121 0-.065-.072-.122-.161-.122-.09 0-.162-.056-.162-.12 0-.065-.113-.138-.282-.17-.162-.025-.283-.097-.283-.162 0-.073-.097-.113-.275-.113-.153 0-.33-.048-.387-.113a.895.895 0 0 0-.364-.162c-.137-.032-.275-.113-.299-.177-.032-.073-.161-.113-.412-.113-.258 0-.363-.033-.363-.113 0-.081-.146-.122-.533-.146-.323-.016-.557-.072-.598-.145-.04-.073-.29-.121-.719-.146-.484-.024-.654-.064-.654-.145 0-.097-.363-.113-2.02-.113-1.655 0-2.018.016-2.018.113zm4.603 2.18c0 .082.162.13.541.17.291.033.59.105.647.17.064.065.258.113.436.113.226 0 .315.032.315.121 0 .081.089.121.282.121.186 0 .332.057.42.162a.56.56 0 0 0 .364.162c.145 0 .226.04.226.12 0 .081.089.122.283.122.194 0 .282.04.282.121 0 .065.073.121.162.121.089 0 .162.049.162.113 0 .065.113.137.242.17.137.032.242.105.242.17 0 .064.073.112.162.112.089 0 .161.049.161.114 0 .064.105.137.234.17.13.023.259.104.283.169a.187.187 0 0 0 .17.113c.064 0 .12.048.12.113 0 .056.074.13.163.153.088.025.161.097.161.17 0 .073.057.13.121.13.065 0 .121.056.121.12 0 .065.057.122.121.122.065 0 .122.048.122.113 0 .056.072.129.161.153.089.024.162.097.162.17 0 .072.056.129.12.129.066 0 .122.056.122.121s.056.121.121.121.121.057.121.13c0 .072.073.145.162.17.089.023.161.096.161.153 0 .064.057.113.121.113.081 0 .122.08.122.234 0 .161.048.242.161.274.09.025.162.097.162.17 0 .073.056.13.12.13.082 0 .122.08.122.242 0 .161.04.242.121.242.065 0 .121.073.121.161 0 .09.049.186.113.21.065.025.146.154.17.283.032.13.105.234.17.234.072 0 .113.09.113.283 0 .194.04.283.12.283.082 0 .122.08.122.218 0 .347.089.59.21.59.08 0 .113.112.113.403 0 .307.032.404.121.404.09 0 .121.105.121.436 0 .315.04.485.146.582.121.129.137.371.137 2.673 0 2.124-.016 2.544-.113 2.609-.08.049-.13.25-.153.598-.025.387-.065.533-.146.533-.08 0-.113.105-.113.363 0 .242-.04.38-.13.428-.08.04-.145.227-.169.445-.032.25-.08.38-.153.38s-.113.088-.113.241c0 .154-.04.243-.113.243-.065 0-.138.12-.162.282-.032.17-.105.283-.17.283-.064 0-.12.073-.12.162 0 .088-.057.161-.122.161-.08 0-.12.081-.12.242 0 .146-.05.267-.122.291-.065.033-.121.097-.121.162 0 .064-.073.113-.162.113-.129 0-.161.056-.161.283 0 .193-.04.282-.121.282a.124.124 0 0 0-.122.121c0 .065-.072.122-.161.122-.105 0-.162.056-.162.161 0 .089-.056.162-.12.162a.124.124 0 0 0-.122.12c0 .065-.049.122-.113.122-.057 0-.13.073-.154.162-.024.088-.096.161-.17.161a.126.126 0 0 0-.128.121.124.124 0 0 1-.122.121.124.124 0 0 0-.12.122.124.124 0 0 1-.122.12.124.124 0 0 0-.121.122c0 .064-.073.12-.162.12-.105 0-.161.058-.161.163 0 .105-.057.161-.162.161-.088 0-.161.049-.161.113 0 .065-.105.137-.242.17-.13.032-.243.105-.243.17 0 .064-.072.112-.161.112-.09 0-.162.057-.162.121 0 .081-.08.122-.242.122-.162 0-.242.04-.242.12 0 .066-.073.122-.162.122-.089 0-.162.056-.162.121s-.113.137-.282.17c-.162.024-.283.097-.283.161 0 .073-.097.113-.283.113-.193 0-.282.04-.282.122 0 .072-.073.12-.178.12-.315 0-.55.098-.55.21 0 .081-.12.114-.443.114-.324 0-.445.032-.445.113 0 .08-.145.121-.492.145-.307.024-.517.081-.558.154-.105.161-5.056.17-5.16 0-.041-.065-.283-.122-.606-.146-.372-.032-.533-.08-.533-.153 0-.08-.114-.113-.404-.113-.3 0-.404-.033-.404-.121 0-.081-.13-.13-.404-.17-.258-.032-.404-.089-.404-.162 0-.072-.097-.113-.283-.113-.185 0-.282-.04-.282-.113 0-.064-.121-.137-.283-.161-.17-.033-.283-.105-.283-.17 0-.064-.072-.121-.161-.121-.089 0-.162-.056-.162-.121 0-.08-.08-.121-.242-.121-.162 0-.242-.04-.242-.122 0-.064-.049-.12-.105-.12-.057 0-.162-.073-.243-.162a.463.463 0 0 0-.299-.162c-.088 0-.161-.056-.161-.12 0-.066-.048-.122-.113-.122-.057 0-.13-.073-.154-.162-.024-.088-.096-.161-.17-.161a.126.126 0 0 1-.128-.121.124.124 0 0 0-.122-.121.124.124 0 0 1-.12-.121c0-.065-.073-.122-.162-.122-.09 0-.162-.056-.162-.12a.124.124 0 0 0-.12-.122c-.066 0-.122-.073-.122-.162 0-.105-.057-.161-.162-.161-.088 0-.161-.057-.161-.121a.124.124 0 0 0-.121-.121c-.065 0-.121-.073-.121-.162 0-.089-.057-.161-.122-.161a.124.124 0 0 1-.12-.122.124.124 0 0 0-.122-.12c-.065 0-.137-.114-.17-.283-.024-.162-.096-.283-.161-.283s-.113-.057-.113-.121c0-.065-.049-.121-.113-.121-.065 0-.137-.122-.162-.283-.032-.17-.105-.283-.17-.283-.064 0-.12-.073-.12-.161 0-.09-.057-.162-.122-.162-.08 0-.12-.08-.12-.242 0-.137-.05-.267-.114-.29-.065-.025-.145-.163-.178-.3a.895.895 0 0 0-.161-.363c-.065-.057-.113-.235-.113-.388 0-.178-.04-.274-.113-.274-.073 0-.121-.13-.154-.372-.016-.21-.08-.404-.137-.436-.057-.032-.113-.3-.137-.598-.033-.347-.081-.533-.146-.533-.072 0-.113-.347-.137-1.316-.049-1.98.016-3.853.137-3.853.065 0 .113-.186.146-.533.024-.3.08-.566.137-.598.056-.032.121-.226.137-.436.025-.218.09-.372.146-.372.056 0 .12-.153.145-.38.024-.21.08-.395.13-.411.048-.016.104-.154.137-.307.024-.154.096-.275.161-.275.073 0 .113-.088.113-.242 0-.161.04-.242.121-.242.065 0 .121-.065.121-.146 0-.08.073-.202.162-.282a.462.462 0 0 0 .162-.3c0-.088.056-.16.12-.16.065 0 .122-.073.122-.162 0-.09.048-.162.113-.162s.137-.113.17-.242c.032-.137.105-.242.17-.242.064 0 .112-.057.112-.122 0-.064.057-.12.121-.12.065 0 .122-.073.122-.162 0-.09.056-.162.12-.162.065 0 .122-.048.122-.113 0-.056.072-.13.161-.153.09-.025.162-.097.162-.17 0-.073.056-.13.121-.13a.124.124 0 0 0 .121-.12c0-.065.057-.121.121-.121a.124.124 0 0 0 .121-.122c0-.064.073-.12.162-.12.105 0 .162-.057.162-.162 0-.09.056-.162.12-.162a.124.124 0 0 0 .122-.121c0-.065.073-.121.161-.121.09 0 .162-.049.162-.113 0-.065.113-.138.242-.17.138-.032.243-.105.243-.17 0-.064.072-.113.161-.113.089 0 .162-.056.162-.12 0-.065.072-.122.161-.122a.462.462 0 0 0 .299-.161c.08-.09.186-.162.242-.162.057 0 .105-.056.105-.121 0-.08.09-.121.283-.121.194 0 .283-.04.283-.121 0-.081.08-.121.242-.121.13 0 .267-.057.307-.13.04-.08.226-.145.444-.17.25-.032.38-.08.38-.153 0-.08.113-.113.404-.113.299 0 .404-.032.404-.113 0-.08.153-.13.516-.17.331-.04.541-.096.566-.17.064-.169 5.217-.169 5.217 0zM32.808 16c.016.049.541.097 1.381.13 1.05.04 1.35.072 1.35.161 0 .08.16.105.686.105.533 0 .686.024.686.113 0 .073.162.13.517.17.34.032.533.088.566.17.032.072.17.112.452.112.307 0 .404.033.404.122 0 .08.08.12.226.12.34 0 .581.09.581.21a.11.11 0 0 0 .113.114c.081 0 .122.145.146.492.016.275.08.517.137.558.065.032.121.29.146.597.032.372.08.534.153.534.08 0 .113.113.113.403 0 .291.032.404.113.404.065 0 .137.121.162.283.032.153.088.283.129.283.04 0 .097.129.13.282.023.162.096.283.16.283.073 0 .114.097.114.283 0 .193.04.282.113.282.064 0 .137.105.17.243.032.129.104.242.169.242.073 0 .113.089.113.283 0 .193.04.282.121.282.065 0 .121.049.121.105 0 .057.073.162.162.243.089.072.162.21.162.298 0 .09.056.162.12.162.065 0 .122.056.122.121s.056.121.121.121.121.057.121.121c0 .073.049.146.113.17.065.024.146.154.17.283.032.129.105.234.17.234.064 0 .112.056.112.13 0 .072.073.145.162.169.089.024.162.097.162.153 0 .065.056.113.12.113.065 0 .122.073.122.162 0 .105.056.161.161.161.09 0 .162.057.162.121 0 .065.056.122.121.122s.121.056.121.12c0 .066.057.122.121.122.065 0 .122.049.122.113 0 .065.113.137.242.17.137.032.242.105.242.17 0 .064.073.112.162.112.097 0 .161.057.161.13 0 .072.073.145.162.17.089.023.161.096.161.153 0 .072.09.113.243.113.161 0 .242.04.242.12 0 .066.073.122.161.122.09 0 .162.049.162.113 0 .065.113.137.242.17.138.032.243.105.243.17 0 .072.088.112.282.112.194 0 .283.04.283.122 0 .064.113.137.283.17.161.023.282.096.282.16 0 .073.097.114.283.114.194 0 .283.04.283.121 0 .08.089.121.282.121.186 0 .283.04.283.113 0 .121.242.21.59.21.137 0 .218.04.218.121 0 .097.113.122.525.122.412 0 .525.024.525.12 0 .09.097.122.388.122.492 0 .742.073.742.21a.11.11 0 0 0 .114.113c.072 0 .129.145.161.404.04.274.089.404.17.404.089 0 .12.105.12.403 0 .307.033.404.122.404.097 0 .121.113.121.525 0 .364.032.533.113.582.081.04.138.282.178.71.032.356.097.67.145.703.057.04.097.533.113 1.398.025 1.09.049 1.332.146 1.332.089 0 .113.162.113.808 0 .662-.024.807-.121.807-.105 0-.121.203-.121 1.333 0 1.058-.025 1.35-.113 1.381-.073.025-.122.259-.162.695-.032.396-.097.695-.17.767-.08.073-.12.275-.12.558 0 .33-.033.436-.122.436s-.121.097-.121.404c0 .282-.04.42-.13.468-.08.04-.145.226-.169.444-.032.25-.08.38-.153.38-.081 0-.114.113-.114.363 0 .259-.032.364-.113.364-.064 0-.137.12-.161.274-.032.154-.105.3-.17.323-.072.025-.12.146-.12.291 0 .162-.041.242-.122.242-.08 0-.121.09-.121.283 0 .194-.04.283-.121.283-.065 0-.138.113-.17.283-.024.161-.097.282-.162.282-.072 0-.112.09-.112.243s-.04.242-.114.242c-.064 0-.137.121-.161.283-.032.17-.105.282-.17.282-.064 0-.12.073-.12.162 0 .089-.057.161-.122.161-.08 0-.121.081-.121.235 0 .161-.049.242-.162.274-.089.024-.161.097-.161.17 0 .072-.057.129-.121.129a.124.124 0 0 0-.122.121c0 .065-.048.121-.113.121-.064 0-.137.122-.161.283-.032.17-.105.283-.17.283a.124.124 0 0 0-.121.12.124.124 0 0 1-.121.122c-.065 0-.121.073-.121.162 0 .088-.057.161-.121.161a.124.124 0 0 0-.122.121c0 .065-.072.121-.161.121-.105 0-.162.057-.162.162 0 .089-.048.161-.113.161-.064 0-.137.113-.17.243-.032.137-.104.242-.169.242-.065 0-.113.057-.113.121a.124.124 0 0 1-.121.121c-.065 0-.121.073-.121.162 0 .105-.057.161-.162.161-.089 0-.161.049-.161.114 0 .064-.105.137-.243.17-.129.031-.242.104-.242.169 0 .064-.057.113-.121.113a.124.124 0 0 0-.121.121c0 .065-.073.121-.162.121-.089 0-.161.057-.161.121a.124.124 0 0 1-.122.121c-.064 0-.12.073-.12.162 0 .105-.057.161-.162.161-.09 0-.162.057-.162.122 0 .064-.048.12-.105.12-.056 0-.161.073-.242.162a.463.463 0 0 1-.299.162c-.089 0-.161.056-.161.121a.124.124 0 0 1-.122.121c-.064 0-.12.049-.12.113 0 .065-.122.138-.284.162-.17.032-.282.105-.282.17 0 .064-.073.12-.162.12-.088 0-.161.057-.161.122 0 .08-.081.12-.242.12-.154 0-.243.041-.243.114 0 .065-.105.137-.234.17-.13.024-.258.105-.283.17-.024.064-.12.112-.21.112-.089 0-.161.057-.161.121 0 .081-.081.122-.243.122-.153 0-.242.04-.242.113 0 .064-.121.137-.283.161-.17.032-.282.105-.282.17 0 .089-.105.12-.404.12-.29 0-.404.033-.404.114 0 .065-.121.137-.275.161-.153.033-.29.09-.306.138-.017.048-.202.105-.412.13-.227.023-.38.088-.38.144 0 .057-.154.122-.371.146-.21.016-.404.08-.437.137-.032.049-.282.113-.557.137-.34.033-.493.081-.493.154 0 .089-.145.113-.565.113-.42 0-.565.024-.565.113 0 .08-.235.121-.945.162-.59.032-.97.096-1.01.153-.08.137-4.248.137-4.33 0-.04-.056-.42-.121-1.009-.153-.71-.04-.945-.081-.945-.162 0-.089-.153-.113-.646-.113s-.646-.024-.646-.113c0-.073-.137-.121-.412-.145-.226-.025-.444-.09-.477-.146-.032-.056-.226-.121-.436-.137-.242-.033-.371-.08-.371-.154 0-.08-.113-.113-.404-.113-.29 0-.404-.032-.404-.113 0-.12-.242-.21-.581-.21-.146 0-.227-.04-.227-.12 0-.082-.088-.122-.282-.122-.186 0-.283-.04-.283-.113 0-.065-.121-.137-.283-.162-.17-.032-.282-.105-.282-.17 0-.08-.09-.12-.283-.12-.194 0-.283-.04-.283-.122 0-.08-.08-.12-.242-.12-.162 0-.242-.041-.242-.122a.124.124 0 0 0-.122-.121.194.194 0 0 1-.17-.121c-.023-.065-.169-.138-.322-.17-.154-.024-.275-.097-.275-.153 0-.065-.105-.13-.242-.162s-.242-.105-.242-.17c0-.064-.073-.113-.162-.113-.089 0-.162-.056-.162-.12 0-.081-.08-.122-.242-.122-.17 0-.242-.04-.242-.129 0-.073-.073-.145-.162-.17-.088-.024-.161-.097-.161-.153 0-.065-.057-.113-.121-.113a.124.124 0 0 1-.122-.121c0-.065-.072-.121-.161-.121-.089 0-.161-.049-.161-.114 0-.064-.105-.137-.243-.17-.13-.032-.242-.104-.242-.169 0-.064-.073-.113-.162-.113-.105 0-.161-.056-.161-.161 0-.09-.057-.162-.121-.162a.124.124 0 0 1-.121-.121.124.124 0 0 0-.122-.121.124.124 0 0 1-.12-.121c0-.065-.073-.122-.162-.122-.105 0-.162-.056-.162-.161 0-.089-.056-.162-.121-.162a.124.124 0 0 1-.121-.12c0-.065-.073-.122-.162-.122-.089 0-.161-.056-.161-.121a.124.124 0 0 0-.121-.121c-.065 0-.122-.073-.122-.162 0-.089-.056-.161-.12-.161a.124.124 0 0 1-.122-.121.124.124 0 0 0-.121-.122c-.065 0-.137-.113-.17-.282-.024-.162-.097-.283-.161-.283-.065 0-.113-.056-.113-.121s-.073-.121-.162-.121c-.105 0-.161-.057-.161-.162 0-.089-.057-.161-.122-.161a.124.124 0 0 1-.12-.121c0-.065-.05-.122-.114-.122s-.137-.12-.161-.282c-.033-.17-.105-.283-.17-.283a.124.124 0 0 1-.121-.121.124.124 0 0 0-.121-.121c-.08 0-.121-.09-.121-.283 0-.194-.04-.283-.113-.283-.065 0-.138-.105-.17-.242-.032-.13-.105-.242-.17-.242-.064 0-.113-.073-.113-.162 0-.089-.056-.161-.12-.161-.082 0-.122-.09-.122-.283 0-.194-.04-.283-.121-.283-.065 0-.137-.113-.17-.283-.024-.161-.097-.282-.161-.282-.073 0-.113-.089-.113-.242 0-.154-.04-.243-.114-.243-.064 0-.137-.12-.161-.274-.032-.154-.089-.291-.137-.307-.049-.017-.105-.202-.13-.412-.024-.226-.088-.38-.145-.38-.056 0-.121-.153-.145-.371-.016-.21-.081-.404-.138-.436-.056-.033-.12-.227-.137-.437-.032-.242-.08-.371-.153-.371-.081 0-.113-.121-.113-.444 0-.324-.033-.445-.114-.445-.072 0-.12-.177-.161-.622-.024-.355-.089-.646-.145-.686-.073-.04-.114-.364-.13-.994-.024-.727-.056-.928-.145-.928-.097 0-.113-.372-.113-2.181 0-1.825.016-2.18.113-2.18.089 0 .121-.195.145-.93.017-.678.057-.953.138-1.001.064-.04.12-.283.145-.606.032-.372.08-.533.154-.533.08 0 .113-.137.113-.525s.032-.525.113-.525c.064 0 .12-.137.153-.404.024-.226.105-.46.178-.533.064-.065.12-.25.12-.404 0-.194.041-.274.122-.274.08 0 .121-.09.121-.283 0-.162.049-.299.13-.347.064-.04.145-.218.17-.404.031-.21.088-.34.152-.34.073 0 .114-.096.114-.282 0-.186.04-.283.113-.283.064 0 .137-.121.161-.283.033-.17.105-.282.17-.282.065 0 .121-.073.121-.162 0-.089.056-.161.121-.161.08 0 .121-.081.121-.243 0-.153.04-.242.113-.242.065 0 .138-.121.162-.283.032-.17.105-.282.17-.282.064 0 .12-.073.12-.162 0-.089.057-.161.122-.161.08 0 .121-.081.121-.243 0-.186.032-.242.162-.242.104 0 .161-.056.161-.162 0-.088.057-.161.121-.161.081 0 .121-.08.121-.242 0-.17.04-.243.13-.243.072 0 .145-.072.17-.161.023-.09.096-.162.153-.162.064 0 .113-.056.113-.12 0-.066.056-.122.12-.122.066 0 .122-.073.122-.162 0-.088.057-.161.121-.161a.124.124 0 0 0 .121-.121c0-.065.073-.121.162-.121.121 0 .161-.057.161-.235 0-.161.049-.242.162-.274.089-.024.162-.097.162-.17 0-.073.056-.13.12-.13a.124.124 0 0 0 .122-.12c0-.065.056-.121.121-.121s.121-.049.121-.114c0-.056.073-.129.162-.153.088-.024.161-.097.161-.162 0-.072.105-.145.242-.177.138-.032.243-.105.243-.17 0-.064.056-.113.12-.113a.124.124 0 0 0 .122-.121c0-.065.073-.121.162-.121.088 0 .161-.057.161-.121 0-.065.057-.122.121-.122a.126.126 0 0 0 .122-.129c0-.072.072-.145.161-.17.089-.024.162-.096.162-.153 0-.064.072-.113.161-.113a.462.462 0 0 0 .299-.161c.08-.09.186-.162.242-.162.057 0 .105-.056.105-.121s.073-.121.162-.121c.089 0 .161-.057.161-.121 0-.081.081-.122.243-.122.185 0 .242-.032.242-.161 0-.105.056-.162.161-.162.09 0 .162-.056.162-.12 0-.081.08-.122.242-.122.154 0 .243-.04.243-.113 0-.065.12-.137.282-.162.17-.032.283-.105.283-.17 0-.08.08-.12.242-.12.162 0 .243-.04.243-.121 0-.073.072-.122.201-.122a.5.5 0 0 0 .34-.161.559.559 0 0 1 .363-.162c.146 0 .226-.04.226-.12 0-.082.09-.122.283-.122.194 0 .283-.04.283-.121 0-.08.08-.121.226-.121.34 0 .581-.09.581-.21 0-.081.113-.113.404-.113.307 0 .404-.033.404-.122 0-.088.097-.12.404-.12.29 0 .404-.033.404-.114 0-.08.161-.129.565-.17.404-.04.566-.088.566-.169 0-.089.153-.113.686-.113.517 0 .687-.024.687-.105 0-.089.298-.121 1.348-.162.808-.032 1.365-.088 1.381-.137.04-.113 1.608-.105 1.648.008z"/><path  d="M48.566 6.841c-.105.016-.186.089-.186.154a.11.11 0 0 1-.113.113c-.08 0-.137.12-.17.355-.072.468.017 1.018.17 1.018a.11.11 0 0 1 .113.113c0 .12.55.21 1.341.21.38 0 .509.032.55.129.023.073.048 1.09.048 2.261 0 1.842.016 2.133.12 2.133.066 0 .122.072.122.161 0 .09.048.162.113.162.057 0 .13.072.154.161.024.09.096.162.17.162.072 0 .128.056.128.121s.057.121.122.121c.064 0 .12.049.12.113 0 .065.122.138.283.162.17.032.283.105.283.17 0 .064.073.12.162.12.088 0 .161.05.161.114s.113.137.242.17c.138.032.243.08.243.12 0 .04-.105.09-.243.122-.129.032-.242.105-.242.17 0 .064-.073.112-.161.112-.09 0-.162.057-.162.121 0 .081-.08.122-.25.122-.178 0-.259.04-.291.161-.024.089-.097.162-.154.162-.064 0-.113.056-.113.12 0 .065-.072.122-.161.122-.089 0-.162.056-.162.121a.124.124 0 0 1-.12.121c-.066 0-.122.073-.122.162 0 .089-.056.161-.121.161-.105 0-.121.291-.121 2.117 0 1.17-.025 2.204-.049 2.301-.048.178-.089.186-.791.186-.84 0-1.099.049-1.099.21a.11.11 0 0 1-.113.113c-.08 0-.137.121-.17.356-.072.468.017 1.017.17 1.017.065 0 .113.057.113.121 0 .105.768.122 6.421.122 5.412 0 6.421-.017 6.421-.114 0-.056.073-.129.162-.153.121-.032.161-.113.161-.29 0-.17.04-.251.122-.251a.124.124 0 0 0 .12-.121.124.124 0 0 0-.12-.121c-.081 0-.122-.09-.122-.283 0-.226-.032-.283-.161-.283-.089 0-.162-.048-.162-.113 0-.161-.258-.21-1.106-.21h-.751v-2.124c0-2.205-.025-2.48-.21-2.48-.065 0-.113-.072-.113-.161 0-.089-.057-.162-.122-.162a.124.124 0 0 1-.12-.12.124.124 0 0 0-.122-.122.124.124 0 0 1-.12-.121c0-.065-.074-.121-.163-.121-.105 0-.161-.057-.161-.162 0-.105-.057-.161-.162-.161-.088 0-.161-.057-.161-.122 0-.08-.08-.12-.242-.12-.162 0-.243-.041-.243-.122 0-.065-.072-.121-.161-.121-.105 0-.162-.057-.162-.162 0-.105.057-.161.162-.161.089 0 .161-.057.161-.121 0-.065.057-.121.121-.121a.187.187 0 0 0 .17-.114c.024-.064.154-.145.283-.17.129-.031.234-.104.234-.169 0-.064.073-.113.161-.113.09 0 .162-.056.162-.12 0-.066.057-.122.121-.122a.124.124 0 0 0 .121-.121c0-.065.057-.121.121-.121.065 0 .122-.073.122-.162 0-.089.048-.162.113-.162.177 0 .21-.387.21-2.552V8.804h.557c.767 0 1.3-.081 1.3-.202 0-.057.073-.121.162-.146.121-.032.161-.113.161-.29 0-.17.04-.25.122-.25a.124.124 0 0 0 .12-.122.124.124 0 0 0-.12-.121c-.081 0-.122-.089-.122-.283 0-.226-.032-.282-.161-.282-.089 0-.162-.049-.162-.113 0-.057-.113-.13-.25-.162-.283-.057-12.115-.048-12.406.008zm8.812 2.092c.024.073.048.905.048 1.858 0 1.526-.016 1.728-.129 1.728-.073 0-.145.073-.17.162-.032.113-.113.161-.274.161-.145 0-.234.04-.234.113 0 .065-.121.137-.283.162-.17.032-.283.105-.283.17 0 .08-.08.12-.242.12-.162 0-.242.04-.242.122 0 .064-.073.12-.162.12-.08 0-.186.05-.218.106-.145.242-.751.25-.751.008 0-.065-.073-.113-.162-.113-.089 0-.161-.057-.161-.121 0-.081-.081-.121-.242-.121-.138 0-.267-.049-.291-.114-.025-.064-.154-.145-.283-.17-.13-.032-.234-.104-.234-.169 0-.072-.089-.113-.283-.113-.226 0-.283-.032-.283-.161 0-.09-.056-.162-.12-.162-.106 0-.122-.258-.122-1.858V8.804h2.536c2.238 0 2.544.016 2.585.129zm-2.165 7.584c.033.065.09.121.146.121.048 0 .153.073.234.162.073.089.21.161.299.161.088 0 .161.057.161.122 0 .08.081.12.242.12.138 0 .267.05.291.114.025.064.154.145.283.17.13.032.234.104.234.169 0 .065.073.113.162.113.153 0 .161.057.161 1.712 0 .945-.024 1.801-.048 1.898l-.049.186h-5.072v-1.898c0-1.631.016-1.898.121-1.898a.124.124 0 0 0 .121-.121c0-.08.081-.121.25-.121.178 0 .26-.04.292-.162.032-.113.113-.161.274-.161.146 0 .234-.04.234-.113 0-.065.122-.138.275-.162.154-.032.299-.105.323-.17a.194.194 0 0 1 .17-.12.124.124 0 0 0 .12-.122c0-.089.098-.121.364-.121.25 0 .38.04.412.121zM25.12 26.936a.124.124 0 0 1-.122.121.124.124 0 0 0-.121.122c0 .064-.049.12-.113.12-.146 0-.243.542-.17.89.032.128.105.241.17.241.064 0 .113.073.113.162 0 .105.056.162.161.162.09 0 .162.056.162.12 0 .106.29.122 2.14.122 1.76 0 2.14.016 2.14.113 0 .073.13.121.38.153.218.025.404.09.444.17.04.073.178.13.307.13.162 0 .243.04.243.12 0 .065.072.122.161.122.089 0 .162.048.162.113 0 .064.113.137.242.17.137.032.242.104.242.169 0 .064.073.113.162.113.089 0 .161.056.161.121s.057.121.121.121c.065 0 .122.057.122.13 0 .072.072.145.161.169.113.032.162.113.162.275 0 .153.04.234.12.234.066 0 .122.056.122.121 0 .073.048.145.113.17.065.024.145.153.17.282.032.13.105.235.17.235.08 0 .112.097.112.323 0 .218.033.323.114.323.072 0 .12.145.153.46.016.259.024.493 0 .525-.016.04-1.995.065-4.394.065-3.812 0-4.353.016-4.353.12 0 .065-.049.122-.113.122-.178 0-.275.751-.162 1.187.032.105.105.186.162.186a.11.11 0 0 1 .113.113c0 .057.08.13.186.162.097.024 2.06.048 4.361.048H33.6v.525c0 .412-.025.525-.121.525-.081 0-.122.089-.122.283 0 .194-.04.282-.113.282-.064 0-.137.105-.17.235-.023.129-.104.258-.169.282a.187.187 0 0 0-.113.17.124.124 0 0 1-.121.121c-.065 0-.121.073-.121.162a.462.462 0 0 1-.162.299c-.089.08-.161.185-.161.242 0 .056-.057.105-.121.105-.065 0-.122.048-.122.113s-.105.137-.242.17c-.13.032-.242.105-.242.17 0 .064-.073.112-.162.112-.089 0-.161.057-.161.121 0 .065-.073.122-.162.122a.463.463 0 0 0-.299.161.559.559 0 0 1-.363.162c-.146 0-.226.04-.226.12 0 .09-.097.122-.404.122-.283 0-.404.032-.404.105 0 .13-1.163.218-2.956.218-.945 0-1.155.024-1.195.121a.194.194 0 0 1-.17.121.124.124 0 0 0-.121.121c0 .065-.049.122-.113.122-.146 0-.235.476-.162.848.024.161.097.282.162.282.064 0 .113.073.113.162 0 .089.056.161.12.161.066 0 .122.057.122.122 0 .064.057.12.121.12.073 0 .146.098.178.243.024.13.08.242.121.242.121 0 .468.348.468.46 0 .057.057.106.122.106.064 0 .12.048.12.113 0 .056.074.129.162.153.09.025.162.097.162.17 0 .073.056.13.121.13s.121.056.121.12c0 .065.057.121.121.121.065 0 .122.049.122.114 0 .056.072.129.161.153.089.024.162.097.162.17 0 .072.056.129.12.129.065 0 .122.056.122.12 0 .066.056.122.121.122s.121.073.121.162c0 .105.057.161.162.161.089 0 .161.057.161.121 0 .065.057.121.121.121.065 0 .122.073.122.162 0 .089.048.162.113.162.064 0 .129.056.161.12a.194.194 0 0 0 .17.122c.064 0 .12.056.12.121s.057.121.122.121.121.073.121.162c0 .089.057.161.121.161.065 0 .122.057.122.121 0 .065.072.121.161.121.105 0 .162.057.162.162 0 .089.056.162.12.162.065 0 .122.056.122.12 0 .065.056.122.121.122s.121.056.121.121.073.121.162.121c.105 0 .161.057.161.162 0 .089.057.161.122.161.064 0 .12.057.12.121 0 .065.05.122.114.122s.137.113.17.242c.032.137.104.242.177.242.065 0 .137.073.162.162.024.089.097.161.153.161.065 0 .113.057.113.121 0 .065.057.122.121.122.065 0 .121.072.121.161 0 .105.057.162.162.162.089 0 .161.056.161.12 0 .065.057.122.122.122.064 0 .12.056.12.121s.057.121.122.121.121.073.121.162c0 .105.057.161.162.161.088 0 .161.057.161.122 0 .064.057.12.121.12.065 0 .121.073.121.162 0 .089.057.162.122.162.064 0 .12.056.12.12 0 .066.073.122.162.122.105 0 .162.056.162.162 0 .088.056.161.121.161s.121.057.121.121c0 .097.13.121.687.121s.686-.024.686-.12c0-.065.049-.122.113-.122.178 0 .275-.751.162-1.195-.032-.097-.105-.178-.162-.178-.064 0-.113-.056-.113-.121s-.056-.121-.13-.121c-.072 0-.144-.073-.169-.162-.024-.089-.097-.161-.153-.161-.065 0-.113-.057-.113-.122a.124.124 0 0 0-.121-.12c-.065 0-.121-.073-.121-.162 0-.105-.057-.162-.162-.162-.089 0-.162-.056-.162-.12a.124.124 0 0 0-.12-.122c-.065 0-.122-.073-.122-.162 0-.088-.056-.161-.121-.161a.124.124 0 0 1-.121-.121c0-.065-.073-.121-.162-.121-.089 0-.161-.057-.161-.122a.124.124 0 0 0-.121-.12c-.065 0-.122-.073-.122-.162 0-.09-.056-.162-.12-.162a.124.124 0 0 1-.122-.121c0-.065-.073-.121-.161-.121-.105 0-.162-.057-.162-.162 0-.088-.056-.161-.121-.161a.124.124 0 0 1-.121-.121.124.124 0 0 0-.121-.122.126.126 0 0 1-.122-.129c0-.072-.072-.145-.161-.17-.089-.024-.162-.096-.162-.153 0-.064-.056-.113-.12-.113-.065 0-.122-.048-.122-.113 0-.056-.073-.13-.162-.153-.088-.025-.161-.097-.161-.17 0-.073-.056-.13-.121-.13a.124.124 0 0 1-.121-.12.124.124 0 0 0-.122-.121c-.064 0-.12-.049-.12-.106 0-.113-.348-.46-.47-.46-.047 0-.104-.113-.136-.242-.033-.138-.105-.242-.17-.242-.065 0-.113-.057-.113-.122a.124.124 0 0 0-.121-.12c-.065 0-.121-.074-.121-.162 0-.105-.057-.162-.162-.162-.089 0-.161-.048-.161-.113s-.057-.13-.122-.161a.195.195 0 0 1-.12-.17.124.124 0 0 0-.122-.121c-.065 0-.121-.049-.121-.113 0-.057-.073-.13-.162-.154-.088-.024-.161-.097-.161-.17 0-.072-.057-.129-.121-.129-.065 0-.121-.048-.121-.113 0-.056-.073-.129-.17-.153-.258-.065-.137-.259.178-.283.145-.016.299-.073.33-.121.033-.057.332-.105.712-.121.484-.024.646-.065.646-.146 0-.08.105-.113.363-.113.25 0 .38-.04.412-.113.024-.064.153-.145.283-.17.129-.032.234-.104.234-.169 0-.073.089-.113.283-.113.193 0 .282-.04.282-.113 0-.065.105-.137.235-.17.129-.024.258-.105.282-.17a.187.187 0 0 1 .17-.112.124.124 0 0 0 .121-.122c0-.064.073-.12.162-.12.088 0 .161-.057.161-.122s.057-.121.121-.121c.065 0 .121-.073.121-.162 0-.105.057-.161.162-.161.089 0 .162-.057.162-.121 0-.065.056-.121.12-.121.065 0 .122-.073.122-.162 0-.089.056-.161.121-.161a.124.124 0 0 0 .121-.122c0-.064.057-.12.121-.12.065 0 .138-.114.17-.284.024-.161.097-.282.161-.282.065 0 .114-.073.114-.162 0-.088.056-.161.12-.161.081 0 .122-.081.122-.242 0-.162.04-.243.121-.243.08 0 .13-.13.17-.404.032-.258.088-.404.161-.404.08 0 .113-.113.113-.403 0-.291.033-.42.121-.453.065-.032.122-.129.122-.226 0-.089.024-.25.048-.355.048-.178.065-.178 1.478-.178 1.51 0 1.785-.032 1.785-.21a.11.11 0 0 1 .113-.113c.145 0 .234-.476.162-.848-.025-.162-.097-.283-.162-.283s-.113-.056-.113-.12a.124.124 0 0 0-.121-.122.124.124 0 0 1-.121-.121c0-.105-.218-.121-1.486-.121-1.47 0-1.487 0-1.535-.186a1.96 1.96 0 0 1-.048-.388c0-.12-.057-.234-.122-.266-.088-.033-.12-.162-.12-.453 0-.29-.033-.404-.114-.404-.073 0-.13-.145-.161-.403-.04-.275-.09-.404-.17-.404-.08 0-.121-.08-.121-.242 0-.162-.04-.243-.121-.243-.065 0-.121-.072-.121-.161 0-.09-.049-.162-.114-.162-.064 0-.137-.105-.17-.234-.023-.13-.104-.258-.169-.283a.187.187 0 0 1-.113-.17.124.124 0 0 0-.121-.12c-.065 0-.121-.049-.121-.105 0-.122-.356-.46-.477-.46-.048 0-.089-.057-.089-.122 0-.105.348-.121 2.617-.121 2.222 0 2.641-.016 2.746-.121a.431.431 0 0 1 .243-.122c.072 0 .129-.064.129-.161 0-.089.048-.162.113-.162.25 0 .25-.985 0-1.082a.187.187 0 0 1-.113-.17c0-.064-.073-.12-.162-.12-.088 0-.161-.057-.161-.122 0-.105-.816-.12-6.825-.12-6.01 0-6.825.015-6.825.12zm2.745-20.515c0 .08-.089.121-.283.121-.194 0-.282.04-.282.121a.124.124 0 0 1-.122.122c-.064 0-.12.072-.12.161 0 .089-.057.162-.122.162-.08 0-.12.088-.12.282 0 .194.04.283.12.283.081 0 .121.08.121.234 0 .162.049.243.162.275.089.024.162.105.162.178 0 .12.096.129.904.105.63-.017.913-.057.937-.13.016-.064.202-.097.525-.097.614 0 .864-.064.864-.21a.11.11 0 0 1 .113-.113c.081 0 .138-.129.178-.363.065-.469-.016-.929-.17-.929-.064 0-.12-.073-.12-.162 0-.153-.057-.161-1.374-.161-1.163 0-1.373.016-1.373.121zm5.493 0c0 .065-.049.121-.114.121-.177 0-.274.751-.161 1.188.032.105.105.185.161.185a.11.11 0 0 1 .114.113c0 .146.25.21.823.21.283 0 .469.04.485.097.024.065.315.113.897.13.734.032.864.016.864-.09 0-.072.105-.145.242-.177l.242-.057v-.638c0-.492-.024-.638-.113-.638-.056 0-.129-.072-.153-.161-.033-.121-.113-.162-.331-.162-.202 0-.291-.032-.291-.12 0-.106-.202-.122-1.333-.122-1.13 0-1.332.016-1.332.121zm-9.774.799c0 .073-.137.122-.412.146-.226.024-.444.089-.476.145-.032.057-.226.122-.436.138-.243.032-.372.08-.372.153s-.097.113-.282.113c-.227 0-.283.033-.283.162 0 .089-.049.161-.113.161-.065 0-.121.122-.154.315-.048.412.017.735.154.735.064 0 .113.073.113.162 0 .089.056.161.121.161s.121.057.121.13c0 .113.08.129.533.097.315-.017.558-.073.59-.138.04-.056.234-.129.444-.145.242-.032.372-.08.372-.154 0-.08.113-.113.403-.113.307 0 .404-.032.404-.12 0-.065.073-.122.162-.122.089 0 .161-.056.161-.121s.057-.121.122-.121c.096 0 .12-.113.12-.566 0-.452-.024-.565-.12-.565-.065 0-.122-.057-.122-.13 0-.072-.072-.145-.161-.169-.089-.024-.162-.097-.162-.153 0-.081-.105-.113-.363-.113-.25 0-.364.032-.364.113zM17.77 9.393c0 .081-.106.146-.283.186-.162.024-.283.097-.283.162 0 .072-.089.113-.242.113-.154 0-.243.04-.243.113 0 .064-.12.137-.282.161-.17.033-.283.105-.283.17 0 .065-.073.121-.162.121-.089 0-.161.057-.161.121a.124.124 0 0 1-.121.121c-.097 0-.122.13-.122.687 0 .63.017.686.162.686.089 0 .162.057.162.122 0 .096.113.12.525.12.412 0 .525-.024.525-.12 0-.081.088-.122.282-.122.194 0 .283-.04.283-.113 0-.064.113-.137.242-.17.138-.031.243-.104.243-.169 0-.073.088-.113.282-.113.194 0 .283-.04.283-.121 0-.065.073-.121.161-.121.09 0 .162-.057.162-.121 0-.065.056-.121.121-.121s.121-.073.121-.162c0-.089.057-.162.122-.162.08 0 .12-.08.12-.242 0-.161-.04-.242-.12-.242-.081 0-.122-.089-.122-.283 0-.194-.04-.283-.12-.283-.057 0-.146-.064-.187-.137-.113-.194-1.066-.266-1.066-.08zm-5.17 3.32c0 .065-.121.137-.283.162-.17.032-.283.104-.283.17a.124.124 0 0 1-.12.12.124.124 0 0 0-.122.121c0 .065-.073.122-.162.122-.088 0-.161.056-.161.12a.124.124 0 0 1-.121.122c-.065 0-.121.048-.121.113 0 .056-.073.13-.162.153-.089.025-.161.097-.161.17 0 .073-.057.13-.121.13-.098 0-.122.128-.122.686v.686h.243c.161 0 .242.04.242.121 0 .097.105.122.444.122.34 0 .444-.025.444-.122 0-.064.073-.12.162-.12.089 0 .161-.057.161-.122s.057-.121.122-.121c.064 0 .12-.049.12-.113 0-.065.114-.137.243-.17.137-.032.242-.105.242-.17 0-.064.073-.112.162-.112.105 0 .161-.057.161-.162 0-.089.057-.162.122-.162a.124.124 0 0 0 .12-.12c0-.065.073-.122.162-.122.105 0 .162-.056.162-.161 0-.09.056-.162.121-.162.089 0 .121-.097.121-.363 0-.267-.032-.364-.121-.364-.065 0-.121-.072-.121-.161 0-.105-.057-.162-.162-.162-.089 0-.161-.056-.161-.121 0-.097-.113-.121-.525-.121-.396 0-.525.024-.525.113zm-4.257 3.982c-.105.016-.186.089-.186.153 0 .065-.056.113-.12.113a.124.124 0 0 0-.122.122c0 .064-.048.12-.113.12-.056 0-.13.073-.153.162-.025.089-.097.162-.17.162-.073 0-.13.056-.13.12a.124.124 0 0 1-.12.122c-.065 0-.122.073-.122.162 0 .088-.048.161-.113.161-.064 0-.137.105-.17.242-.032.13-.104.243-.169.243-.064 0-.113.072-.113.161 0 .09-.056.162-.121.162-.08 0-.121.089-.121.283 0 .193.04.282.12.282.082 0 .122.08.122.242 0 .186.032.243.162.243.088 0 .161.048.161.113 0 .073.121.121.347.145.445.04.703-.008.703-.145 0-.065.073-.113.162-.113.089 0 .161-.057.161-.121 0-.065.057-.122.121-.122.065 0 .122-.072.122-.161 0-.089.056-.162.12-.162a.124.124 0 0 0 .122-.12c0-.065.056-.122.121-.122s.137-.113.17-.283c.024-.161.097-.282.161-.282a.11.11 0 0 0 .113-.113c0-.057.073-.13.162-.154.12-.032.161-.113.161-.29 0-.138.04-.251.081-.251.048 0 .08-.056.08-.121s-.032-.121-.072-.121c-.04 0-.097-.13-.121-.283-.032-.17-.105-.283-.17-.283-.064 0-.12-.048-.12-.113 0-.177-.445-.25-.946-.153zm-3.796 5.064c-.105.105-.186.234-.186.283 0 .048-.048.088-.113.088-.064 0-.137.122-.161.283-.032.17-.105.283-.17.283-.064 0-.12.073-.12.161 0 .09-.057.162-.122.162-.08 0-.121.08-.121.242 0 .154-.04.243-.113.243-.073 0-.13.153-.162.476-.064.55 0 .897.162.897.064 0 .113.072.113.161 0 .089.056.162.12.162.066 0 .122.056.122.12 0 .09.097.122.404.122.315 0 .404-.024.404-.13 0-.072.072-.145.161-.169.09-.024.162-.097.162-.153a.11.11 0 0 1 .113-.113c.065 0 .137-.121.161-.283.033-.17.105-.283.17-.283.08 0 .121-.08.121-.242 0-.153.04-.242.113-.242.065 0 .138-.122.162-.275.032-.153.105-.299.17-.323.072-.024.12-.145.12-.29 0-.13.041-.243.081-.243.049 0 .081-.057.081-.121 0-.065-.032-.121-.073-.121-.04 0-.096-.13-.12-.283-.033-.17-.106-.283-.17-.283-.065 0-.121-.048-.121-.113 0-.13-.25-.21-.687-.21-.234 0-.372.057-.5.194zM2.18 27.178a.126.126 0 0 1-.128.122c-.073 0-.146.072-.17.161-.024.09-.097.162-.154.162-.072 0-.113.097-.113.282 0 .194-.04.283-.12.283-.09 0-.122.097-.122.404 0 .29-.032.404-.113.404-.08 0-.13.161-.17.557-.064.646 0 1.058.17 1.058.065 0 .113.057.113.121 0 .065.113.138.283.17.153.024.282.08.282.121 0 .04.057.073.122.073.064 0 .12-.032.12-.073 0-.04.13-.097.283-.121.17-.032.283-.105.283-.17 0-.064.049-.12.113-.12.073 0 .121-.13.154-.372.016-.21.08-.404.137-.436.057-.033.121-.227.137-.437.033-.242.081-.371.154-.371.089 0 .113-.178.113-.8v-.8l-.242-.056c-.13-.032-.243-.105-.243-.17 0-.08-.113-.113-.444-.113-.34 0-.444.025-.444.122zM.71 33.09c-.08.017-.145.09-.145.154a.11.11 0 0 1-.113.113c-.137 0-.21.25-.21.743 0 .291-.032.388-.12.388-.098 0-.122.162-.122.97 0 .783.024.968.113.968.065 0 .137.105.17.243l.056.242h.638c.517 0 .638-.024.638-.121 0-.065.073-.121.162-.121.13 0 .161-.057.161-.283 0-.194.04-.283.122-.283.105 0 .12-.21.12-1.373s-.015-1.373-.12-1.373c-.065 0-.122-.048-.122-.113 0-.17-.783-.274-1.227-.153zm61.32.146a.124.124 0 0 1-.12.121.124.124 0 0 0-.122.121.124.124 0 0 1-.121.122c-.097 0-.121.161-.121.969 0 .807.024.969.12.969.098 0 .122.13.122.687 0 .63.016.686.162.686.088 0 .161.049.161.113 0 .13.444.202.953.146.218-.025.34-.081.34-.146 0-.064.056-.113.12-.113.065 0 .138-.113.17-.275.08-.444.008-2.39-.097-2.455-.048-.032-.113-.226-.145-.444-.057-.355-.073-.38-.3-.38-.153 0-.233-.04-.233-.12 0-.098-.105-.122-.445-.122-.339 0-.444.024-.444.121zM.485 39.213a.124.124 0 0 1-.122.121c-.064 0-.12.073-.12.162 0 .088-.057.161-.122.161-.097 0-.121.162-.121.97 0 .807.024.969.121.969s.121.113.121.525c0 .468.016.525.162.525.089 0 .161.056.161.12 0 .065.113.138.283.17.154.025.283.081.283.122 0 .04.056.072.12.072.066 0 .122-.032.122-.072 0-.04.13-.097.283-.122.17-.032.282-.105.282-.17 0-.064.057-.12.122-.12.105 0 .12-.202.12-1.333 0-1.13-.015-1.333-.12-1.333-.09 0-.122-.088-.122-.29 0-.218-.04-.3-.161-.332-.089-.024-.162-.096-.162-.153 0-.089-.137-.113-.565-.113-.452 0-.565.024-.565.121zm62.191.032c0 .04-.145.097-.323.13-.202.032-.323.096-.323.17 0 .064-.056.112-.12.112-.098 0-.122.113-.122.566 0 .452-.024.565-.121.565-.105 0-.121.17-.121 1.05s.016 1.05.12 1.05c.065 0 .122.073.122.162 0 .145.056.161.686.161.558 0 .687-.024.687-.121 0-.065.048-.121.113-.121.08 0 .137-.13.178-.388.032-.21.097-.404.145-.436.057-.04.097-.5.113-1.276.032-1.188.024-1.212-.137-1.212-.097 0-.17-.048-.17-.12 0-.066-.113-.138-.282-.17-.154-.025-.283-.081-.283-.122 0-.04-.032-.072-.08-.072-.041 0-.082.032-.082.072zm-61.158 5.88c-.08.016-.145.09-.145.154s-.056.113-.121.113-.137.113-.17.282c-.072.396.04 1.333.178 1.47.065.073.113.283.113.517 0 .3.032.396.121.396.065 0 .121.073.121.154 0 .242.09.412.21.412.065 0 .113.072.113.161 0 .145.057.162.566.162.452 0 .565-.025.565-.122 0-.064.057-.12.121-.12a.124.124 0 0 0 .121-.122c0-.065.057-.121.122-.121.097 0 .12-.121.12-.606 0-.468-.023-.606-.112-.606-.081 0-.13-.145-.17-.476-.032-.299-.097-.5-.17-.525-.072-.032-.113-.178-.113-.452 0-.307-.032-.404-.12-.404-.065 0-.122-.049-.122-.113 0-.17-.783-.275-1.228-.154zm59.995.145c-.024.073-.145.122-.29.122-.187 0-.243.032-.243.161 0 .09-.048.162-.113.162s-.13.137-.162.371c-.024.202-.105.42-.17.485-.064.073-.12.267-.12.444 0 .226-.033.315-.121.315-.097 0-.122.13-.122.687s.025.686.122.686c.064 0 .12.057.12.121 0 .065.057.122.122.122.064 0 .12.056.12.12 0 .098.106.122.445.122.34 0 .444-.024.444-.121 0-.065.057-.121.121-.121a.124.124 0 0 0 .122-.122c0-.064.048-.12.113-.12.064 0 .137-.122.161-.283.033-.17.105-.283.17-.283.089 0 .121-.105.121-.404 0-.283.032-.404.113-.404.073 0 .121-.177.154-.605.064-.687 0-1.09-.154-1.09-.065 0-.113-.057-.113-.122s-.073-.121-.162-.121c-.088 0-.161-.057-.161-.121 0-.081-.08-.121-.234-.121-.13 0-.25.048-.283.12zM3.877 50.714c0 .04-.121.097-.275.122-.21.04-.29.105-.33.274-.033.121-.081.234-.122.259-.032.024-.089.161-.121.298-.04.21-.024.267.065.267.072 0 .137.113.17.283.032.17.104.282.169.282.08 0 .121.09.121.283 0 .194.04.283.121.283.08 0 .121.08.121.25 0 .178.04.259.162.29.113.033.161.114.161.276 0 .153.04.234.121.234.065 0 .122.048.122.113 0 .13.25.21.686.21.436 0 .687-.08.687-.21a.11.11 0 0 1 .113-.113c.129 0 .21-.243.21-.646 0-.404-.081-.647-.21-.647-.065 0-.113-.072-.113-.161 0-.089-.057-.162-.121-.162-.081 0-.122-.089-.122-.282 0-.194-.04-.283-.12-.283-.065 0-.138-.113-.17-.283-.025-.161-.097-.282-.162-.282-.073 0-.113-.09-.113-.235 0-.202-.04-.242-.283-.282-.153-.033-.282-.09-.282-.13 0-.048-.105-.08-.243-.08-.129 0-.242.032-.242.072zm55.164.291a.124.124 0 0 1-.12.121c-.065 0-.122.049-.122.105 0 .057-.072.162-.161.243a.463.463 0 0 0-.162.299c0 .088-.056.161-.121.161-.08 0-.121.089-.121.283 0 .194-.04.282-.121.282-.065 0-.121.073-.121.162a.463.463 0 0 1-.162.299c-.137.12-.162.242-.162.767s.025.63.13.63c.072 0 .145.073.17.162.04.137.112.161.557.161.403 0 .517-.024.517-.121 0-.065.072-.121.161-.121.105 0 .162-.057.162-.162 0-.089.056-.161.12-.161.065 0 .122-.073.122-.162 0-.089.056-.161.121-.161.08 0 .121-.081.121-.243 0-.161.04-.242.121-.242.065 0 .138-.113.17-.283.024-.161.097-.282.161-.282.073 0 .114-.097.114-.283 0-.194.04-.283.12-.283.082 0 .122-.08.122-.242 0-.161-.04-.242-.121-.242-.081 0-.121-.09-.121-.283 0-.226-.033-.283-.162-.283-.089 0-.161-.056-.161-.12 0-.098-.114-.122-.526-.122-.411 0-.525.024-.525.121zM6.865 55.932c0 .065-.073.121-.161.121-.09 0-.162.057-.162.121a.124.124 0 0 1-.121.121c-.097 0-.121.114-.121.566 0 .452.024.565.12.565.066 0 .122.057.122.121 0 .065.057.122.121.122.065 0 .138.113.17.282.024.162.097.283.161.283.065 0 .113.056.113.121s.057.121.122.121c.064 0 .12.057.12.13 0 .072.073.145.162.17.09.023.162.096.162.152 0 .065.056.114.121.114s.121.072.121.161c0 .145.057.162.509.162.614 0 .864-.065.864-.21a.11.11 0 0 1 .113-.113c.065 0 .121-.13.154-.34.056-.436-.016-.791-.154-.791-.072 0-.113-.089-.113-.242 0-.162-.04-.243-.121-.243a.124.124 0 0 1-.121-.12c0-.066-.057-.122-.13-.122-.072 0-.145-.073-.169-.162-.024-.088-.097-.161-.153-.161-.065 0-.113-.057-.113-.121a.124.124 0 0 0-.122-.121.124.124 0 0 1-.12-.122.194.194 0 0 0-.122-.17c-.065-.032-.121-.096-.121-.16 0-.065-.073-.114-.162-.114-.088 0-.161-.056-.161-.121 0-.089-.097-.121-.404-.121-.307 0-.404.032-.404.121zm48.946.242c0 .065-.073.121-.161.121-.105 0-.162.057-.162.162 0 .089-.057.162-.121.162a.124.124 0 0 0-.121.12c0 .065-.049.122-.113.122-.057 0-.13.073-.154.161-.024.09-.097.162-.17.162-.088 0-.129.073-.129.242 0 .17-.04.243-.129.243-.073 0-.145.072-.17.161-.024.089-.096.162-.153.162-.089 0-.113.137-.113.565 0 .468.032.59.161.703.09.08.162.186.162.242 0 .073.153.105.525.105.412 0 .525-.024.525-.121 0-.065.073-.121.162-.121.088 0 .161-.057.161-.122 0-.064.057-.12.121-.12.065 0 .121-.073.121-.162 0-.089.057-.162.122-.162.064 0 .12-.056.12-.129 0-.073.073-.145.162-.17.089-.024.162-.096.162-.153 0-.065.056-.113.12-.113.066 0 .122-.073.122-.162 0-.089.049-.161.113-.161.065 0 .137-.113.17-.242.032-.138.105-.243.17-.243.08 0 .112-.105.112-.404 0-.29-.032-.403-.113-.403-.056 0-.129-.073-.153-.162-.024-.089-.097-.162-.17-.162-.072 0-.129-.056-.129-.12 0-.098-.113-.122-.525-.122-.412 0-.525.024-.525.121zm-44.584 4.12c0 .08-.09.12-.283.12-.226 0-.283.033-.283.162 0 .09-.056.162-.12.162-.098 0-.122.113-.122.525 0 .412.024.525.121.525.065 0 .121.056.121.12 0 .066.057.122.121.122.065 0 .121.073.121.162 0 .105.057.161.162.161.089 0 .162.057.162.121 0 .065.056.121.12.121.065 0 .122.057.122.122 0 .064.113.137.283.17.161.023.282.096.282.16 0 .065.057.114.121.114.065 0 .122.048.122.113s.12.137.282.161c.154.033.283.09.283.13 0 .048.073.08.162.08.088 0 .161-.032.161-.072 0-.04.113-.097.242-.13.138-.032.243-.104.243-.17a.11.11 0 0 1 .113-.112c.226 0 .307-1.018.089-1.099-.065-.032-.122-.097-.122-.161 0-.065-.072-.113-.161-.113-.089 0-.162-.057-.162-.121a.124.124 0 0 0-.12-.122.126.126 0 0 1-.122-.129c0-.072-.073-.145-.161-.17-.09-.024-.162-.096-.162-.153 0-.065-.057-.113-.121-.113a.187.187 0 0 1-.17-.113c-.024-.065-.153-.145-.283-.17-.129-.032-.234-.105-.234-.17 0-.064-.072-.112-.161-.112-.09 0-.162-.057-.162-.121 0-.081-.08-.122-.242-.122-.162 0-.242.04-.242.122zm40.465.242c0 .064-.057.121-.13.121-.072 0-.145.073-.17.162-.031.113-.112.161-.274.161-.145 0-.234.04-.234.113 0 .057-.073.13-.162.154-.088.024-.161.096-.161.17a.125.125 0 0 1-.121.128.124.124 0 0 0-.121.122c0 .064-.073.12-.162.12-.089 0-.161.057-.161.122a.124.124 0 0 1-.122.121c-.064 0-.12.073-.12.162 0 .088-.057.161-.122.161-.08 0-.121.089-.121.283 0 .194.04.282.121.282.08 0 .121.081.121.243 0 .17.04.242.13.242.072 0 .145.073.17.162.04.137.112.161.556.161.404 0 .517-.024.517-.121 0-.065.057-.121.13-.121.072 0 .145-.073.17-.162.032-.113.112-.161.274-.161.145 0 .234-.04.234-.113 0-.057.073-.13.162-.154.088-.024.161-.097.161-.17 0-.072.057-.129.121-.129a.124.124 0 0 0 .121-.12c0-.065.073-.122.162-.122.089 0 .161-.048.161-.113s.057-.13.122-.162c.072-.024.12-.145.12-.29 0-.162.041-.243.122-.243.065 0 .121-.072.121-.161 0-.089-.056-.162-.121-.162-.08 0-.121-.08-.121-.242 0-.17-.04-.242-.13-.242-.072 0-.145-.073-.169-.162-.04-.137-.113-.161-.557-.161-.404 0-.517.024-.517.12zm-35.538 3.311c0 .081-.089.121-.283.121-.226 0-.283.033-.283.162 0 .089-.056.162-.12.162-.098 0-.122.113-.122.525 0 .412.024.525.121.525.065 0 .121.072.121.161 0 .089.049.162.114.162.064 0 .129.056.161.12.024.074.145.122.29.122.154 0 .243.04.243.113 0 .065.121.137.283.162.17.032.283.105.283.17 0 .08.08.12.242.12.161 0 .242.04.242.121 0 .097.13.122.679.122h.678l.056-.243c.033-.137.105-.242.17-.242.08 0 .113-.113.113-.444 0-.323-.032-.445-.113-.445-.056 0-.13-.072-.153-.161-.024-.089-.097-.162-.17-.162-.073 0-.13-.056-.13-.12 0-.081-.08-.122-.241-.122-.162 0-.243-.04-.243-.121 0-.065-.072-.121-.161-.121-.09 0-.162-.049-.162-.113 0-.065-.121-.138-.282-.162-.17-.032-.283-.105-.283-.17 0-.08-.089-.12-.283-.12-.194 0-.283-.04-.283-.122 0-.08-.08-.12-.242-.12-.161 0-.242.04-.242.12zm30.562.235c-.024.064-.153.145-.282.17-.13.032-.234.104-.234.169 0 .072-.09.113-.283.113-.194 0-.283.04-.283.121 0 .08-.08.121-.242.121-.146 0-.267.049-.29.121-.033.065-.098.121-.162.121-.065 0-.113.073-.113.162 0 .089-.049.161-.114.161-.064 0-.137.122-.161.283-.073.372.016.848.161.848.065 0 .114.057.114.122 0 .064.072.12.161.12.089 0 .162.057.162.122 0 .089.096.12.363.12s.363-.031.363-.12c0-.081.09-.121.283-.121.186 0 .283-.04.283-.114 0-.064.121-.137.282-.161.17-.032.283-.105.283-.17 0-.064.073-.12.162-.12.089 0 .161-.057.161-.122 0-.08.081-.121.243-.121.153 0 .242-.04.242-.113 0-.057.073-.13.161-.154.122-.032.162-.113.162-.33 0-.203.032-.291.121-.291.065 0 .121-.04.121-.081 0-.049-.056-.081-.12-.081-.082 0-.122-.089-.122-.283 0-.202-.032-.282-.13-.282-.072 0-.145-.073-.169-.162-.04-.137-.113-.161-.557-.161-.38 0-.533.032-.566.113zm-25.248 2.366c-.08.016-.145.089-.145.154 0 .064-.073.113-.162.113-.089 0-.161.048-.161.113 0 .064-.057.129-.121.161-.186.065-.154.582.04.751.089.081.162.186.162.243 0 .056.056.105.12.105.065 0 .122.048.122.113 0 .072.129.12.371.153.21.016.404.081.437.138.032.056.226.12.436.137.242.032.371.08.371.153 0 .09.162.113.687.113.533 0 .686-.024.686-.113 0-.056.073-.129.162-.153.089-.024.161-.097.161-.17 0-.073.057-.129.122-.129.088 0 .12-.097.12-.364 0-.266-.032-.363-.12-.363-.065 0-.122-.065-.122-.153 0-.081-.072-.17-.161-.194-.09-.025-.162-.097-.162-.17 0-.097-.08-.13-.363-.13-.267 0-.364-.031-.364-.12 0-.097-.105-.121-.444-.121-.323 0-.444-.033-.444-.114 0-.145-.848-.258-1.228-.153zm19.562.146c0 .096-.105.12-.444.12s-.444.025-.444.122c0 .089-.097.12-.364.12-.25 0-.38.041-.411.122-.033.065-.097.121-.162.121-.064 0-.113.073-.113.162 0 .089-.056.161-.121.161-.097 0-.121.113-.121.566 0 .452.024.565.12.565.066 0 .122.048.122.113 0 .137.444.194 1.18.145.37-.024.516-.064.516-.145 0-.073.097-.113.275-.113.436 0 .775-.089.775-.21 0-.073.097-.113.283-.113.194 0 .282-.04.282-.121 0-.065.057-.121.122-.121.097 0 .12-.13.12-.687 0-.63-.015-.686-.16-.686-.09 0-.162-.057-.162-.121 0-.097-.13-.122-.646-.122-.517 0-.647.025-.647.122zm-13.787 1.227c-.105.016-.186.089-.186.154 0 .064-.056.113-.12.113-.098 0-.122.129-.122.686 0 .558.024.687.121.687.065 0 .121.048.121.113 0 .073.186.121.663.161.363.033.686.09.71.138.033.04.445.08.921.097.751.016.88 0 .945-.13.049-.072.137-.137.194-.137.08 0 .121-.08.121-.242 0-.146.049-.267.121-.291.13-.057.17-.275.04-.275-.04 0-.096-.129-.128-.282-.025-.162-.097-.283-.162-.283a.11.11 0 0 1-.113-.113c0-.065-.121-.137-.275-.162-.153-.032-.29-.08-.307-.12-.024-.073-2.261-.178-2.544-.114zm7.286 0c-.598.024-.824.057-.873.145-.032.065-.17.122-.299.122-.161 0-.242.04-.242.12 0 .065-.049.122-.113.122-.137 0-.21.25-.21.743 0 .29.032.388.121.388.065 0 .121.056.121.12 0 .066.073.122.162.122.113 0 .161.057.161.17 0 .177.017.177.945.12.525-.031.97-.088.994-.128.024-.04.266-.097.549-.13.34-.032.5-.088.5-.161 0-.065.073-.113.162-.113.105 0 .162-.057.162-.162 0-.089.056-.161.121-.161.089 0 .121-.097.121-.364 0-.266-.032-.363-.121-.363-.065 0-.121-.073-.121-.162 0-.105-.057-.161-.162-.161-.089 0-.161-.049-.161-.113 0-.138-.267-.21-.687-.194-.178.008-.686.032-1.13.04z"/></svg>