<svg width="223" height="24" viewBox="0 0 223 24" fill="currentColor" xmlns="http://www.w3.org/2000/svg">
<path fill-rule="evenodd" clip-rule="evenodd" d="M31.8372 17.1114C31.0947 17.1114 30.4264 16.9841 29.8323 16.7295C29.2383 16.4643 28.7715 16.093 28.4321 15.6157C28.0926 15.1383 27.9229 14.5814 27.9229 13.9449H29.8642C29.9066 14.4223 30.0922 14.8148 30.4211 15.1224C30.7605 15.43 31.2326 15.5838 31.8372 15.5838C32.4631 15.5838 32.9511 15.4353 33.3011 15.1383C33.6512 14.8307 33.8262 14.4382 33.8262 13.9608C33.8262 13.5895 33.7149 13.2872 33.4921 13.0538C33.2799 12.8205 33.0094 12.6401 32.6806 12.5128C32.3623 12.3855 31.9168 12.2476 31.344 12.0991C30.6226 11.9082 30.0339 11.7172 29.5777 11.5263C29.1322 11.3247 28.7503 11.0171 28.4321 10.6034C28.1138 10.1897 27.9547 9.63806 27.9547 8.94854C27.9547 8.31206 28.1138 7.75514 28.4321 7.27778C28.7503 6.80042 29.1959 6.43444 29.7687 6.17985C30.3415 5.92526 31.0045 5.79796 31.7577 5.79796C32.8291 5.79796 33.7042 6.06847 34.3832 6.60947C35.0727 7.13987 35.4546 7.87182 35.5288 8.80533H33.5239C33.4921 8.40222 33.3011 8.05746 32.9511 7.77105C32.601 7.48463 32.1396 7.34142 31.5667 7.34142C31.0469 7.34142 30.6226 7.47403 30.2938 7.73923C29.9649 8.00442 29.8005 8.38631 29.8005 8.88489C29.8005 9.22434 29.9013 9.50546 30.1028 9.72822C30.315 9.94038 30.5802 10.1101 30.8984 10.2374C31.2167 10.3647 31.6516 10.5026 32.2032 10.6511C32.9352 10.8527 33.5292 11.0542 33.9854 11.2558C34.4521 11.4573 34.8446 11.7703 35.1628 12.1946C35.4917 12.6083 35.6561 13.1652 35.6561 13.8653C35.6561 14.4276 35.5023 14.958 35.1947 15.4565C34.8976 15.9551 34.4574 16.3582 33.874 16.6658C33.3011 16.9629 32.6222 17.1114 31.8372 17.1114Z" />
<path fill-rule="evenodd" clip-rule="evenodd" d="M37.1919 12.5765C37.1919 11.696 37.3722 10.9163 37.7329 10.2374C38.1042 9.5585 38.6027 9.0334 39.2286 8.66212C39.8651 8.28023 40.5652 8.08929 41.329 8.08929C42.0185 8.08929 42.6179 8.22719 43.127 8.503C43.6468 8.7682 44.0605 9.10235 44.3682 9.50546V8.2325H46.1981V17H44.3682V15.6952C44.0605 16.1089 43.6415 16.4537 43.1111 16.7295C42.5807 17.0053 41.9761 17.1432 41.2972 17.1432C40.544 17.1432 39.8545 16.9523 39.2286 16.5704C38.6027 16.1779 38.1042 15.6369 37.7329 14.9474C37.3722 14.2472 37.1919 13.4569 37.1919 12.5765ZM44.3682 12.6083C44.3682 12.0036 44.2409 11.4785 43.9863 11.033C43.7423 10.5875 43.4188 10.248 43.0157 10.0146C42.6126 9.78126 42.1776 9.66458 41.7109 9.66458C41.2441 9.66458 40.8092 9.78126 40.4061 10.0146C40.003 10.2374 39.6741 10.5716 39.4196 11.0171C39.1756 11.452 39.0536 11.9718 39.0536 12.5765C39.0536 13.1811 39.1756 13.7115 39.4196 14.1677C39.6741 14.6238 40.003 14.9739 40.4061 15.2179C40.8198 15.4512 41.2547 15.5679 41.7109 15.5679C42.1776 15.5679 42.6126 15.4512 43.0157 15.2179C43.4188 14.9845 43.7423 14.645 43.9863 14.1995C44.2409 13.7433 44.3682 13.2129 44.3682 12.6083Z" />
<path fill-rule="evenodd" clip-rule="evenodd" d="M52.2563 9.71231H50.6333V17H48.8034V9.71231H47.7691V8.2325H48.8034V7.61193C48.8034 6.60417 49.0686 5.87222 49.599 5.41608C50.14 4.94932 50.9833 4.71595 52.129 4.71595V6.22759C51.5774 6.22759 51.1902 6.33367 50.9674 6.54583C50.7447 6.74738 50.6333 7.10275 50.6333 7.61193V8.2325H52.2563V9.71231Z" />
<path fill-rule="evenodd" clip-rule="evenodd" d="M61.8995 12.4014C61.8995 12.7303 61.8782 13.0273 61.8358 13.2925H55.1369C55.1899 13.9926 55.4498 14.5549 55.9165 14.9792C56.3833 15.4035 56.9561 15.6157 57.635 15.6157C58.611 15.6157 59.3005 15.2072 59.7036 14.3904H61.6608C61.3956 15.1966 60.9129 15.8596 60.2128 16.3794C59.5233 16.8886 58.664 17.1432 57.635 17.1432C56.797 17.1432 56.0438 16.9576 55.3755 16.5863C54.7178 16.2044 54.1981 15.674 53.8162 14.9951C53.4449 14.3056 53.2593 13.51 53.2593 12.6083C53.2593 11.7066 53.4396 10.9163 53.8003 10.2374C54.1715 9.54789 54.686 9.01749 55.3437 8.64621C56.012 8.27493 56.7758 8.08929 57.635 8.08929C58.4625 8.08929 59.1997 8.26963 59.8468 8.6303C60.4939 8.99097 60.9978 9.50015 61.3584 10.1578C61.7191 10.8049 61.8995 11.5528 61.8995 12.4014ZM60.0059 11.8286C59.9953 11.1603 59.7566 10.6246 59.2899 10.2215C58.8231 9.81839 58.245 9.61684 57.5555 9.61684C56.9296 9.61684 56.3939 9.81839 55.9484 10.2215C55.5028 10.614 55.2376 11.1497 55.1528 11.8286H60.0059Z" />
<path fill-rule="evenodd" clip-rule="evenodd" d="M76.3627 17L74.9943 15.6316C74.4639 16.162 73.8857 16.5598 73.2599 16.825C72.634 17.0796 71.9339 17.2069 71.1595 17.2069C70.3745 17.2069 69.6797 17.069 69.075 16.7931C68.4704 16.5173 68.0036 16.1248 67.6748 15.6157C67.3459 15.0959 67.1815 14.4965 67.1815 13.8176C67.1815 13.0538 67.3989 12.3749 67.8339 11.7809C68.2688 11.1762 68.9159 10.6989 69.7751 10.3488C69.4675 9.97751 69.25 9.63275 69.1227 9.31451C68.9955 8.98566 68.9318 8.62499 68.9318 8.2325C68.9318 7.74453 69.0538 7.3096 69.2978 6.92771C69.5524 6.54583 69.913 6.2435 70.3798 6.02073C70.8466 5.79796 71.3876 5.68658 72.0028 5.68658C72.6287 5.68658 73.1591 5.80857 73.594 6.05256C74.0396 6.28593 74.3684 6.60947 74.5806 7.02319C74.8033 7.4369 74.8935 7.89835 74.8511 8.40753H73.0371C73.0477 8.01503 72.9522 7.71271 72.7507 7.50055C72.5491 7.27778 72.2733 7.16639 71.9233 7.16639C71.5732 7.16639 71.2868 7.27247 71.064 7.48463C70.8519 7.68618 70.7458 7.93547 70.7458 8.2325C70.7458 8.51891 70.8253 8.80533 70.9845 9.09174C71.1542 9.36755 71.4459 9.72822 71.8596 10.1738L74.7874 13.0857L75.9172 11.2239H77.8743L76.4423 13.6744L76.0445 14.3268L78.7336 17H76.3627ZM71.1595 15.6634C72.1566 15.6634 73.0371 15.255 73.8009 14.4382L70.8731 11.4945C69.6213 11.993 68.9955 12.7462 68.9955 13.754C68.9955 14.295 69.197 14.7511 69.6001 15.1224C70.0032 15.4831 70.523 15.6634 71.1595 15.6634Z" />
<path fill-rule="evenodd" clip-rule="evenodd" d="M87.7001 17.1114C86.9576 17.1114 86.2893 16.9841 85.6952 16.7295C85.1012 16.4643 84.6344 16.093 84.295 15.6157C83.9555 15.1383 83.7858 14.5814 83.7858 13.9449H85.727C85.7695 14.4223 85.9551 14.8148 86.284 15.1224C86.6234 15.43 87.0955 15.5838 87.7001 15.5838C88.326 15.5838 88.814 15.4353 89.164 15.1383C89.5141 14.8307 89.6891 14.4382 89.6891 13.9608C89.6891 13.5895 89.5777 13.2872 89.355 13.0538C89.1428 12.8205 88.8723 12.6401 88.5434 12.5128C88.2252 12.3855 87.7797 12.2476 87.2068 12.0991C86.4855 11.9082 85.8968 11.7172 85.4406 11.5263C84.9951 11.3247 84.6132 11.0171 84.295 10.6034C83.9767 10.1897 83.8176 9.63806 83.8176 8.94854C83.8176 8.31206 83.9767 7.75514 84.295 7.27778C84.6132 6.80042 85.0587 6.43444 85.6316 6.17985C86.2044 5.92526 86.8674 5.79796 87.6206 5.79796C88.692 5.79796 89.5671 6.06847 90.246 6.60947C90.9356 7.13987 91.3174 7.87182 91.3917 8.80533H89.3868C89.355 8.40222 89.164 8.05746 88.814 7.77105C88.4639 7.48463 88.0024 7.34142 87.4296 7.34142C86.9098 7.34142 86.4855 7.47403 86.1567 7.73923C85.8278 8.00442 85.6634 8.38631 85.6634 8.88489C85.6634 9.22434 85.7642 9.50546 85.9657 9.72822C86.1779 9.94038 86.4431 10.1101 86.7613 10.2374C87.0795 10.3647 87.5145 10.5026 88.0661 10.6511C88.798 10.8527 89.3921 11.0542 89.8482 11.2558C90.315 11.4573 90.7075 11.7703 91.0257 12.1946C91.3546 12.6083 91.519 13.1652 91.519 13.8653C91.519 14.4276 91.3652 14.958 91.0575 15.4565C90.7605 15.9551 90.3203 16.3582 89.7368 16.6658C89.164 16.9629 88.4851 17.1114 87.7001 17.1114Z" />
<path fill-rule="evenodd" clip-rule="evenodd" d="M101.695 12.4014C101.695 12.7303 101.674 13.0273 101.631 13.2925H94.9324C94.9854 13.9926 95.2453 14.5549 95.7121 14.9792C96.1788 15.4035 96.7516 15.6157 97.4305 15.6157C98.4065 15.6157 99.096 15.2072 99.4991 14.3904H101.456C101.191 15.1966 100.708 15.8596 100.008 16.3794C99.3188 16.8886 98.4595 17.1432 97.4305 17.1432C96.5925 17.1432 95.8393 16.9576 95.171 16.5863C94.5133 16.2044 93.9936 15.674 93.6117 14.9951C93.2404 14.3056 93.0547 13.51 93.0547 12.6083C93.0547 11.7066 93.2351 10.9163 93.5958 10.2374C93.967 9.54789 94.4815 9.01749 95.1392 8.64621C95.8075 8.27493 96.5713 8.08929 97.4305 8.08929C98.258 8.08929 98.9952 8.26963 99.6423 8.6303C100.289 8.99097 100.793 9.50015 101.154 10.1578C101.515 10.8049 101.695 11.5528 101.695 12.4014ZM99.8014 11.8286C99.7908 11.1603 99.5521 10.6246 99.0854 10.2215C98.6186 9.81839 98.0405 9.61684 97.351 9.61684C96.7251 9.61684 96.1894 9.81839 95.7439 10.2215C95.2983 10.614 95.0331 11.1497 94.9483 11.8286H99.8014Z" />
<path fill-rule="evenodd" clip-rule="evenodd" d="M102.875 12.6083C102.875 11.7066 103.056 10.9163 103.416 10.2374C103.788 9.54789 104.297 9.01749 104.944 8.64621C105.591 8.27493 106.334 8.08929 107.172 8.08929C108.232 8.08929 109.108 8.34388 109.797 8.85306C110.497 9.35164 110.969 10.0677 111.213 11.0012H109.256C109.097 10.5663 108.842 10.2268 108.492 9.98281C108.142 9.73883 107.702 9.61684 107.172 9.61684C106.429 9.61684 105.835 9.88204 105.39 10.4124C104.955 10.9322 104.737 11.6642 104.737 12.6083C104.737 13.5524 104.955 14.2897 105.39 14.8201C105.835 15.3505 106.429 15.6157 107.172 15.6157C108.222 15.6157 108.917 15.1542 109.256 14.2313H111.213C110.959 15.1224 110.481 15.8331 109.781 16.3635C109.081 16.8833 108.211 17.1432 107.172 17.1432C106.334 17.1432 105.591 16.9576 104.944 16.5863C104.297 16.2044 103.788 15.674 103.416 14.9951C103.056 14.3056 102.875 13.51 102.875 12.6083Z" />
<path fill-rule="evenodd" clip-rule="evenodd" d="M120.961 8.2325V17H119.147V15.9657C118.861 16.3264 118.484 16.6128 118.017 16.825C117.561 17.0265 117.073 17.1273 116.554 17.1273C115.864 17.1273 115.243 16.9841 114.692 16.6977C114.151 16.4113 113.721 15.9869 113.403 15.4247C113.095 14.8625 112.941 14.1836 112.941 13.388V8.2325H114.74V13.1175C114.74 13.9025 114.936 14.5071 115.328 14.9314C115.721 15.3452 116.256 15.552 116.935 15.552C117.614 15.552 118.15 15.3452 118.543 14.9314C118.946 14.5071 119.147 13.9025 119.147 13.1175V8.2325H120.961Z" />
<path fill-rule="evenodd" clip-rule="evenodd" d="M125.168 9.50546C125.434 9.05992 125.784 8.71516 126.219 8.47118C126.664 8.21659 127.189 8.08929 127.794 8.08929V9.9669H127.333C126.622 9.9669 126.081 10.1472 125.709 10.5079C125.349 10.8686 125.168 11.4945 125.168 12.3855V17H123.355V8.2325H125.168V9.50546Z" />
<path fill-rule="evenodd" clip-rule="evenodd" d="M137.497 12.4014C137.497 12.7303 137.476 13.0273 137.433 13.2925H130.734C130.787 13.9926 131.047 14.5549 131.514 14.9792C131.981 15.4035 132.554 15.6157 133.233 15.6157C134.208 15.6157 134.898 15.2072 135.301 14.3904H137.258C136.993 15.1966 136.51 15.8596 135.81 16.3794C135.121 16.8886 134.261 17.1432 133.233 17.1432C132.394 17.1432 131.641 16.9576 130.973 16.5863C130.315 16.2044 129.796 15.674 129.414 14.9951C129.042 14.3056 128.857 13.51 128.857 12.6083C128.857 11.7066 129.037 10.9163 129.398 10.2374C129.769 9.54789 130.283 9.01749 130.941 8.64621C131.609 8.27493 132.373 8.08929 133.233 8.08929C134.06 8.08929 134.797 8.26963 135.444 8.6303C136.091 8.99097 136.595 9.50015 136.956 10.1578C137.317 10.8049 137.497 11.5528 137.497 12.4014ZM135.603 11.8286C135.593 11.1603 135.354 10.6246 134.887 10.2215C134.421 9.81839 133.842 9.61684 133.153 9.61684C132.527 9.61684 131.991 9.81839 131.546 10.2215C131.1 10.614 130.835 11.1497 130.75 11.8286H135.603Z" />
<path fill-rule="evenodd" clip-rule="evenodd" d="M151.149 9.23495C151.149 9.79717 151.016 10.3276 150.751 10.8261C150.486 11.3247 150.061 11.7331 149.478 12.0514C148.894 12.359 148.147 12.5128 147.234 12.5128H145.229V17H143.415V5.94117H147.234C148.083 5.94117 148.799 6.08968 149.382 6.38671C149.976 6.67312 150.417 7.06562 150.703 7.56419C151 8.06277 151.149 8.61969 151.149 9.23495ZM147.234 11.033C147.924 11.033 148.438 10.8792 148.778 10.5716C149.117 10.2533 149.287 9.80778 149.287 9.23495C149.287 8.02564 148.603 7.42099 147.234 7.42099H145.229V11.033H147.234Z" />
<path fill-rule="evenodd" clip-rule="evenodd" d="M152.274 12.5765C152.274 11.696 152.454 10.9163 152.815 10.2374C153.186 9.5585 153.685 9.0334 154.311 8.66212C154.947 8.28023 155.647 8.08929 156.411 8.08929C157.101 8.08929 157.7 8.22719 158.209 8.503C158.729 8.7682 159.143 9.10235 159.45 9.50546V8.2325H161.28V17H159.45V15.6952C159.143 16.1089 158.724 16.4537 158.193 16.7295C157.663 17.0053 157.058 17.1432 156.379 17.1432C155.626 17.1432 154.937 16.9523 154.311 16.5704C153.685 16.1779 153.186 15.6369 152.815 14.9474C152.454 14.2472 152.274 13.4569 152.274 12.5765ZM159.45 12.6083C159.45 12.0036 159.323 11.4785 159.068 11.033C158.824 10.5875 158.501 10.248 158.098 10.0146C157.695 9.78126 157.26 9.66458 156.793 9.66458C156.326 9.66458 155.891 9.78126 155.488 10.0146C155.085 10.2374 154.756 10.5716 154.502 11.0171C154.258 11.452 154.136 11.9718 154.136 12.5765C154.136 13.1811 154.258 13.7115 154.502 14.1677C154.756 14.6238 155.085 14.9739 155.488 15.2179C155.902 15.4512 156.337 15.5679 156.793 15.5679C157.26 15.5679 157.695 15.4512 158.098 15.2179C158.501 14.9845 158.824 14.645 159.068 14.1995C159.323 13.7433 159.45 13.2129 159.45 12.6083Z" />
<path fill-rule="evenodd" clip-rule="evenodd" d="M171.555 8.2325L166.177 21.1212H164.299L166.081 16.8568L162.629 8.2325H164.649L167.116 14.9155L169.678 8.2325H171.555Z" />
<path fill-rule="evenodd" clip-rule="evenodd" d="M183.537 8.08929C184.227 8.08929 184.842 8.2325 185.383 8.51891C185.935 8.80533 186.364 9.22965 186.672 9.79187C186.99 10.3541 187.149 11.033 187.149 11.8286V17H185.351V12.0991C185.351 11.3141 185.155 10.7148 184.763 10.3011C184.37 9.87673 183.834 9.66458 183.155 9.66458C182.477 9.66458 181.936 9.87673 181.532 10.3011C181.14 10.7148 180.944 11.3141 180.944 12.0991V17H179.146V12.0991C179.146 11.3141 178.949 10.7148 178.557 10.3011C178.164 9.87673 177.629 9.66458 176.95 9.66458C176.271 9.66458 175.73 9.87673 175.327 10.3011C174.934 10.7148 174.738 11.3141 174.738 12.0991V17H172.924V8.2325H174.738V9.23495C175.035 8.87428 175.412 8.59317 175.868 8.39162C176.324 8.19007 176.812 8.08929 177.332 8.08929C178.032 8.08929 178.658 8.2378 179.209 8.53482C179.761 8.83185 180.185 9.26147 180.482 9.8237C180.747 9.2933 181.161 8.87428 181.723 8.56665C182.286 8.24841 182.89 8.08929 183.537 8.08929Z" />
<path fill-rule="evenodd" clip-rule="evenodd" d="M197.493 12.4014C197.493 12.7303 197.472 13.0273 197.43 13.2925H190.731C190.784 13.9926 191.044 14.5549 191.51 14.9792C191.977 15.4035 192.55 15.6157 193.229 15.6157C194.205 15.6157 194.894 15.2072 195.297 14.3904H197.254C196.989 15.1966 196.507 15.8596 195.807 16.3794C195.117 16.8886 194.258 17.1432 193.229 17.1432C192.391 17.1432 191.638 16.9576 190.969 16.5863C190.312 16.2044 189.792 15.674 189.41 14.9951C189.039 14.3056 188.853 13.51 188.853 12.6083C188.853 11.7066 189.033 10.9163 189.394 10.2374C189.765 9.54789 190.28 9.01749 190.937 8.64621C191.606 8.27493 192.37 8.08929 193.229 8.08929C194.056 8.08929 194.793 8.26963 195.441 8.6303C196.088 8.99097 196.591 9.50015 196.952 10.1578C197.313 10.8049 197.493 11.5528 197.493 12.4014ZM195.6 11.8286C195.589 11.1603 195.35 10.6246 194.884 10.2215C194.417 9.81839 193.839 9.61684 193.149 9.61684C192.523 9.61684 191.988 9.81839 191.542 10.2215C191.097 10.614 190.831 11.1497 190.746 11.8286H195.6Z" />
<path fill-rule="evenodd" clip-rule="evenodd" d="M203.702 8.08929C204.391 8.08929 205.007 8.2325 205.548 8.51891C206.099 8.80533 206.529 9.22965 206.836 9.79187C207.144 10.3541 207.298 11.033 207.298 11.8286V17H205.5V12.0991C205.5 11.3141 205.304 10.7148 204.911 10.3011C204.519 9.87673 203.983 9.66458 203.304 9.66458C202.625 9.66458 202.084 9.87673 201.681 10.3011C201.289 10.7148 201.092 11.3141 201.092 12.0991V17H199.278V8.2325H201.092V9.23495C201.389 8.87428 201.766 8.59317 202.222 8.39162C202.689 8.19007 203.182 8.08929 203.702 8.08929Z" />
<path fill-rule="evenodd" clip-rule="evenodd" d="M211.728 9.71231V14.5655C211.728 14.8943 211.802 15.133 211.951 15.2815C212.11 15.4194 212.375 15.4884 212.746 15.4884H213.86V17H212.428C211.611 17 210.985 16.8091 210.551 16.4272C210.116 16.0453 209.898 15.4247 209.898 14.5655V9.71231H208.864V8.2325H209.898V6.05256H211.728V8.2325H213.86V9.71231H211.728Z" />
<path fill-rule="evenodd" clip-rule="evenodd" d="M218.715 17.1432C218.025 17.1432 217.404 17.0212 216.853 16.7772C216.312 16.5226 215.882 16.1832 215.564 15.7589C215.246 15.3239 215.076 14.8413 215.055 14.3109H216.932C216.964 14.6822 217.139 14.9951 217.457 15.2497C217.786 15.4937 218.195 15.6157 218.683 15.6157C219.192 15.6157 219.584 15.5202 219.86 15.3292C220.147 15.1277 220.29 14.8731 220.29 14.5655C220.29 14.2366 220.131 13.9926 219.812 13.8335C219.505 13.6744 219.012 13.4994 218.333 13.3084C217.675 13.1281 217.139 12.9531 216.726 12.7833C216.312 12.6136 215.951 12.3537 215.644 12.0036C215.347 11.6536 215.198 11.1921 215.198 10.6193C215.198 10.1525 215.336 9.72822 215.612 9.34634C215.888 8.95384 216.28 8.64621 216.789 8.42344C217.309 8.20067 217.903 8.08929 218.571 8.08929C219.568 8.08929 220.369 8.34388 220.974 8.85306C221.589 9.35164 221.918 10.0359 221.961 10.9057H220.147C220.115 10.5132 219.956 10.2003 219.669 9.9669C219.383 9.73353 218.996 9.61684 218.508 9.61684C218.03 9.61684 217.664 9.70701 217.41 9.88734C217.155 10.0677 217.028 10.3064 217.028 10.6034C217.028 10.8368 217.113 11.033 217.282 11.1921C217.452 11.3512 217.659 11.4785 217.903 11.574C218.147 11.6589 218.508 11.7703 218.985 11.9082C219.622 12.0779 220.141 12.2529 220.544 12.4333C220.958 12.603 221.313 12.8576 221.611 13.197C221.908 13.5365 222.061 13.9873 222.072 14.5496C222.072 15.0481 221.934 15.4937 221.658 15.8862C221.382 16.2787 220.99 16.5863 220.481 16.8091C219.982 17.0318 219.393 17.1432 218.715 17.1432Z" />
<path fill-rule="evenodd" clip-rule="evenodd" d="M16.581 2.14024L10.316 0.0512408C10.1109 -0.0170803 9.88913 -0.0170803 9.684 0.0512408L3.419 2.14024C2.42291 2.47112 1.55642 3.1075 0.942645 3.95895C0.328874 4.8104 -0.000961674 5.83363 2.10612e-06 6.88324V12.0002C2.10612e-06 19.5632 9.2 23.7402 9.594 23.9142C9.72182 23.971 9.86013 24.0004 10 24.0004C10.1399 24.0004 10.2782 23.971 10.406 23.9142C10.8 23.7402 20 19.5632 20 12.0002V6.88324C20.001 5.83363 19.6711 4.8104 19.0574 3.95895C18.4436 3.1075 17.5771 2.47112 16.581 2.14024ZM18 12.0002C18 17.4552 11.681 21.0332 10 21.8892C8.317 21.0362 2 17.4692 2 12.0002V6.88324C2.00006 6.25352 2.19828 5.63978 2.56657 5.12898C2.93486 4.61819 3.45455 4.23623 4.052 4.03724L10 2.05424L15.948 4.03724C16.5455 4.23623 17.0651 4.61819 17.4334 5.12898C17.8017 5.63978 17.9999 6.25352 18 6.88324V12.0002Z" />
<path fill-rule="evenodd" clip-rule="evenodd" d="M13.3002 8.30028L9.11221 12.5003L6.86821 10.1603C6.77815 10.0618 6.6693 9.98237 6.54807 9.92663C6.42684 9.87088 6.29567 9.83996 6.16231 9.83569C6.02894 9.83142 5.89607 9.85389 5.77151 9.90176C5.64696 9.94964 5.53325 10.022 5.43708 10.1145C5.34091 10.207 5.26423 10.3178 5.21154 10.4404C5.15886 10.563 5.13124 10.6949 5.13032 10.8283C5.1294 10.9617 5.1552 11.094 5.20619 11.2173C5.25717 11.3406 5.33232 11.4525 5.42721 11.5463L7.73321 13.9463C7.90519 14.132 8.11305 14.281 8.34423 14.3841C8.57541 14.4872 8.8251 14.5424 9.07821 14.5463H9.11121C9.35927 14.5471 9.60501 14.4986 9.83419 14.4037C10.0634 14.3088 10.2714 14.1693 10.4462 13.9933L14.7182 9.72128C14.8115 9.62817 14.8856 9.5176 14.9361 9.39588C14.9867 9.27415 15.0128 9.14366 15.0129 9.01184C15.0131 8.88003 14.9873 8.74948 14.9369 8.62765C14.8866 8.50582 14.8128 8.39509 14.7197 8.30178C14.6266 8.20848 14.516 8.13443 14.3943 8.08386C14.2726 8.03328 14.1421 8.00718 14.0103 8.00704C13.8785 8.00691 13.7479 8.03273 13.6261 8.08304C13.5042 8.13336 13.3935 8.20718 13.3002 8.30028Z" />
</svg>
