<svg width="29" height="24" viewBox="0 0 29 24" fill="none" xmlns="http://www.w3.org/2000/svg">
<path d="M25.0525 8.11449V6.77989C25.0556 5.44929 24.5284 4.17229 23.5875 3.23141C22.6466 2.29054 21.3697 1.76332 20.0391 1.7664H19.0758M4.16304 8.11449V6.77989C4.15997 5.4513 4.68559 4.17607 5.62396 3.23553C6.56232 2.29499 7.83633 1.76641 9.16492 1.76641H10.1746M25.0525 13.2092V17.6424C25.0556 18.973 24.5284 20.25 23.5875 21.1909C22.6466 22.1318 21.3697 22.659 20.0391 22.6559H19.0758M4.16304 13.2092V17.6424C4.15996 18.973 4.68717 20.25 5.62805 21.1909C6.56893 22.1318 7.84592 22.659 9.17653 22.6559H10.1746" stroke="currentColor" stroke-width="1.89" stroke-linecap="round" stroke-linejoin="round"/>
<path d="M27.2921 13.2086H1.87665" stroke="currentColor" stroke-width="1.89" stroke-linecap="round" stroke-linejoin="round"/>
</svg>
