<svg width="23" height="24" viewBox="0 0 23 24" fill="white" xmlns="http://www.w3.org/2000/svg">
<path d="M21.4957 19.6385L16.6314 14.7481C17.4783 13.3693 17.9903 11.761 17.9903 10.0219C17.9903 5.02711 13.9633 0.978455 8.99516 0.978455C4.02707 0.978455 0 5.02711 0 10.0219C0 15.0166 4.02707 19.0652 8.99516 19.0652C10.725 19.0652 12.3248 18.5505 13.6948 17.7004L18.5605 22.5908C18.9521 22.9714 19.4768 23.1821 20.0214 23.1775C20.5661 23.1728 21.0872 22.9531 21.4722 22.5658C21.8573 22.1785 22.0755 21.6546 22.0799 21.107C22.0843 20.5594 21.8745 20.032 21.4957 19.6385ZM8.99516 16.2827C5.55624 16.2827 2.76774 13.4792 2.76774 10.0219C2.76774 6.56449 5.55624 3.76104 8.99516 3.76104C12.4341 3.76104 15.2226 6.56449 15.2226 10.0219C15.2226 13.4792 12.4341 16.2827 8.99516 16.2827Z"/>
</svg>
