
<svg width="25" height="28" viewBox="0 0 25 28" fill="none" xmlns="http://www.w3.org/2000/svg">
<path d="M24.2235 5.3788H22.4305C22.3116 5.37883 22.1976 5.42607 22.1135 5.51015L20.6374 6.9863L19.7409 6.08976V1.34439C19.7409 1.2255 19.6936 1.11148 19.6096 1.02741C19.5255 0.943346 19.4115 0.896118 19.2926 0.896118H17.4995C17.3806 0.896144 17.2666 0.943388 17.1826 1.02746L15.7064 2.50361L14.2303 1.02746C14.1462 0.943388 14.0322 0.896144 13.9134 0.896118H12.1203C12.0014 0.896144 11.8874 0.943388 11.8034 1.02746L10.3272 2.50361L8.85107 1.02746C8.76702 0.943388 8.65302 0.896144 8.53414 0.896118H6.74107C6.62219 0.896144 6.50819 0.943388 6.42414 1.02746L4.94799 2.50361L3.47184 1.02746C3.3878 0.943388 3.2738 0.896144 3.15492 0.896118H1.36184C1.24295 0.896118 1.12894 0.943346 1.04487 1.02741C0.960802 1.11148 0.913574 1.2255 0.913574 1.34439V22.8613C0.913574 22.9802 0.960802 23.0942 1.04487 23.1783C1.12894 23.2623 1.24295 23.3095 1.36184 23.3095H3.15492C3.2738 23.3095 3.3878 23.2623 3.47184 23.1782L4.94799 21.7021L5.84453 22.5986V27.344C5.84453 27.4629 5.89176 27.5769 5.97582 27.6609C6.05989 27.745 6.17391 27.7922 6.2928 27.7922H8.08587C8.20475 27.7922 8.31875 27.745 8.4028 27.6609L9.87895 26.1847L11.3551 27.6609C11.4391 27.745 11.5531 27.7922 11.672 27.7922H13.4651C13.584 27.7922 13.698 27.745 13.782 27.6609L15.2582 26.1847L16.7343 27.6609C16.8184 27.745 16.9324 27.7922 17.0512 27.7922H18.8443C18.9632 27.7922 19.0772 27.745 19.1612 27.6609L20.6374 26.1847L22.1135 27.6609C22.1976 27.745 22.3116 27.7922 22.4305 27.7922H24.2235C24.3424 27.7922 24.4565 27.745 24.5405 27.6609C24.6246 27.5769 24.6718 27.4629 24.6718 27.344V5.82707C24.6718 5.70818 24.6246 5.59417 24.5405 5.5101C24.4565 5.42603 24.3424 5.3788 24.2235 5.3788ZM4.63107 20.7513L2.96933 22.413H1.81011V1.79266H2.96933L4.63107 3.45439C4.71513 3.53842 4.82913 3.58563 4.94799 3.58563C5.06686 3.58563 5.18086 3.53842 5.26492 3.45439L6.92665 1.79266H8.34856L10.0103 3.45439C10.0944 3.53842 10.2084 3.58563 10.3272 3.58563C10.4461 3.58563 10.5601 3.53842 10.6441 3.45439L12.3059 1.79266H13.7278L15.3895 3.45439C15.4736 3.53842 15.5876 3.58563 15.7064 3.58563C15.8253 3.58563 15.9393 3.53842 16.0234 3.45439L17.6851 1.79266H18.8443V22.413H17.6851L16.0234 20.7513C15.9393 20.6672 15.8253 20.62 15.7064 20.62C15.5876 20.62 15.4736 20.6672 15.3895 20.7513L13.7278 22.413H12.3059L10.6441 20.7513C10.5601 20.6672 10.4461 20.62 10.3272 20.62C10.2084 20.62 10.0944 20.6672 10.0103 20.7513L8.34856 22.413H6.92665L5.26492 20.7513C5.18086 20.6672 5.06686 20.62 4.94799 20.62C4.82913 20.62 4.71513 20.6672 4.63107 20.7513ZM23.7753 26.8957H22.6161L20.9543 25.234C20.8703 25.1499 20.7563 25.1027 20.6374 25.1027C20.5185 25.1027 20.4045 25.1499 20.3205 25.234L18.6587 26.8957H17.2368L15.5751 25.234C15.491 25.1499 15.377 25.1027 15.2582 25.1027C15.1393 25.1027 15.0253 25.1499 14.9412 25.234L13.2795 26.8957H11.8576L10.1959 25.234C10.1118 25.1499 9.99781 25.1027 9.87895 25.1027C9.76008 25.1027 9.64608 25.1499 9.56202 25.234L7.90029 26.8957H6.74107V23.3095H8.53414C8.65302 23.3095 8.76702 23.2623 8.85107 23.1782L10.3272 21.7021L11.8034 23.1782C11.8874 23.2623 12.0014 23.3095 12.1203 23.3095H13.9134C14.0322 23.3095 14.1462 23.2623 14.2303 23.1782L15.7064 21.7021L17.1826 23.1782C17.2666 23.2623 17.3806 23.3095 17.4995 23.3095H19.2926C19.4115 23.3095 19.5255 23.2623 19.6096 23.1783C19.6936 23.0942 19.7409 22.9802 19.7409 22.8613V7.35746L20.3205 7.93707C20.4045 8.02111 20.5185 8.06832 20.6374 8.06832C20.7563 8.06832 20.8703 8.02111 20.9543 7.93707L22.6161 6.27534H23.7753V26.8957Z" fill="white"/>
<path d="M6.74134 13.4476V9.41322H8.08615V8.51668H4.5V9.41322H5.84481V13.4476H6.74134Z" fill="white"/>
<path d="M12.1203 13.4476V10.758C12.1204 10.6885 12.1043 10.6199 12.0733 10.5576L11.1767 8.76457C11.1395 8.69005 11.0822 8.62739 11.0114 8.5836C10.9405 8.53981 10.8588 8.51664 10.7755 8.51668H9.87899C9.79568 8.51664 9.71402 8.53981 9.64315 8.5836C9.57229 8.62739 9.51502 8.69005 9.47779 8.76457L8.58125 10.5576C8.55023 10.6199 8.53412 10.6885 8.53418 10.758V13.4476H9.43072V12.1028H11.2238V13.4476H12.1203ZM9.43072 11.2063V10.8638L10.156 9.41322H10.4985L11.2238 10.8638V11.2063H9.43072ZM16.1547 9.41322V8.51668H15.2582C15.1715 8.51667 15.0866 8.54182 15.0139 8.58908C14.9412 8.63634 14.8837 8.70369 14.8485 8.78295L14.3617 9.87852L13.8749 8.78295C13.8396 8.70369 13.7822 8.63634 13.7095 8.58908C13.6367 8.54182 13.5519 8.51667 13.4651 8.51668H12.5686V9.41322H13.1738L13.8713 10.9822L13.1738 12.5511H12.5686V13.4476H13.4651C13.5519 13.4476 13.6367 13.4225 13.7095 13.3752C13.7822 13.328 13.8396 13.2606 13.8749 13.1814L14.3617 12.0858L14.8485 13.1814C14.8837 13.2606 14.9412 13.328 15.0139 13.3752C15.0866 13.4225 15.1715 13.4476 15.2582 13.4476H16.1547V12.5511H15.5496L14.8521 10.9822L15.5496 9.41322H16.1547Z" fill="white"/>
<path d="M17.0511 14.3442H3.60303V15.2407H17.0511V14.3442Z" fill="white"/>
<path d="M17.0511 6.7236H3.60303V7.62014H17.0511V6.7236Z" fill="white"/>
</svg>
