
<svg width="22" height="22" viewBox="0 0 22 22" fill="currentColor" xmlns="http://www.w3.org/2000/svg">
<path d="M9.16667 21.0833C9.16667 21.5903 8.75692 22 8.25 22H4.58333C2.05608 22 0 19.9439 0 17.4167V4.58333C0 2.05608 2.05608 0 4.58333 0H11.9167C14.4439 0 16.5 2.05608 16.5 4.58333V6.41667C16.5 6.92358 16.0903 7.33333 15.5833 7.33333C15.0764 7.33333 14.6667 6.92358 14.6667 6.41667V4.58333C14.6667 3.06717 13.4328 1.83333 11.9167 1.83333H4.58333C3.06717 1.83333 1.83333 3.06717 1.83333 4.58333V17.4167C1.83333 18.9328 3.06717 20.1667 4.58333 20.1667H8.25C8.75692 20.1667 9.16667 20.5764 9.16667 21.0833ZM12.8333 5.5C12.8333 4.99308 12.4236 4.58333 11.9167 4.58333H4.58333C4.07642 4.58333 3.66667 4.99308 3.66667 5.5C3.66667 6.00692 4.07642 6.41667 4.58333 6.41667H11.9167C12.4236 6.41667 12.8333 6.00692 12.8333 5.5ZM9.16667 10.0833C9.16667 9.57642 8.75692 9.16667 8.25 9.16667H4.58333C4.07642 9.16667 3.66667 9.57642 3.66667 10.0833C3.66667 10.5903 4.07642 11 4.58333 11H8.25C8.75692 11 9.16667 10.5903 9.16667 10.0833ZM4.58333 13.75C4.07642 13.75 3.66667 14.1598 3.66667 14.6667C3.66667 15.1736 4.07642 15.5833 4.58333 15.5833H6.41667C6.92358 15.5833 7.33333 15.1736 7.33333 14.6667C7.33333 14.1598 6.92358 13.75 6.41667 13.75H4.58333ZM22 15.5833C22 19.1208 19.1208 22 15.5833 22C12.0459 22 9.16667 19.1208 9.16667 15.5833C9.16667 12.0459 12.0459 9.16667 15.5833 9.16667C19.1208 9.16667 22 12.0459 22 15.5833ZM20.1667 15.5833C20.1667 13.0561 18.1106 11 15.5833 11C13.0561 11 11 13.0561 11 15.5833C11 18.1106 13.0561 20.1667 15.5833 20.1667C18.1106 20.1667 20.1667 18.1106 20.1667 15.5833ZM17.2407 14.4458L15.2029 16.4019C15.0709 16.5312 14.8555 16.5339 14.7244 16.4038L13.6877 15.3881C13.3247 15.0324 12.7453 15.0379 12.3915 15.4009C12.0367 15.763 12.0422 16.3423 12.4043 16.6971L13.442 17.7137C13.8637 18.1252 14.4155 18.3315 14.9664 18.3315C15.5173 18.3315 16.0673 18.1253 16.4817 17.7164L18.5103 15.7694C18.8751 15.4183 18.887 14.8381 18.5368 14.4732C18.1858 14.1066 17.6046 14.0965 17.2407 14.4467V14.4458Z" />
</svg>
