<svg width="15" height="25" viewBox="0 0 800 1600"  xmlns="http://www.w3.org/2000/svg" fill="currentColor">
<g clip-path="url(#clip0_3_19)">
<path d="M366.667 900V833.333H433.333V900H366.667ZM433.333 1033.33V966.667H366.667V1033.33H433.333ZM433.333 1433.33V1366.67H366.667V1433.33H433.333ZM433.333 1566.67V1500H366.667V1566.67H433.333ZM433.333 1166.67L433.333 1100H366.667V1166.67H433.333ZM433.333 1300V1233.33H366.667V1300H433.333Z" />
</g>
<g clip-path="url(#clip1_3_19)">
<path d="M400 244.444C430.766 244.444 460.841 253.568 486.422 270.66C512.003 287.753 531.941 312.047 543.715 340.471C555.488 368.896 558.569 400.173 552.567 430.347C546.564 460.522 531.749 488.24 509.994 509.994C488.24 531.749 460.522 546.564 430.347 552.567C400.173 558.569 368.896 555.488 340.471 543.715C312.047 531.941 287.753 512.003 270.66 486.422C253.568 460.841 244.444 430.766 244.444 400C244.444 358.744 260.833 319.178 290.006 290.006C319.178 260.833 358.744 244.444 400 244.444Z" />
<path d="M400 755.556C329.678 755.556 260.935 734.703 202.464 695.634C143.993 656.565 98.4207 601.035 71.5095 536.065C44.5984 471.096 37.5572 399.606 51.2764 330.635C64.9956 261.664 98.8589 198.31 148.584 148.584C198.31 98.8589 261.664 64.9956 330.635 51.2764C399.606 37.5572 471.096 44.5984 536.065 71.5095C601.035 98.4207 656.565 143.993 695.634 202.464C734.703 260.935 755.556 329.678 755.556 400C755.556 494.299 718.095 584.736 651.416 651.416C584.736 718.095 494.299 755.556 400 755.556ZM400 88.8889C338.468 88.8889 278.318 107.135 227.156 141.321C175.994 175.506 136.118 224.095 112.571 280.943C89.0236 337.791 82.8625 400.345 94.8668 460.695C106.871 521.044 136.502 576.479 180.011 619.989C223.521 663.498 278.956 693.129 339.305 705.133C399.655 717.137 462.209 710.976 519.057 687.429C575.905 663.882 624.494 624.006 658.679 572.844C692.865 521.682 711.111 461.532 711.111 400C711.111 317.488 678.333 238.356 619.989 180.011C561.644 121.667 482.512 88.8889 400 88.8889Z" />
</g>
<defs>
<clipPath id="clip0_3_19">
<rect width="800" height="800"  transform="matrix(0 1 -1 0 800 800)"/>
</clipPath>
<clipPath id="clip1_3_19">
<rect width="800" height="800" />
</clipPath>
</defs>
</svg>
