<svg xmlns="http://www.w3.org/2000/svg" width="15.513" height="19.58" viewBox="0 0 15.513 19.58">
  <g id="Group_13372" data-name="Group 13372" transform="translate(-48.886 -381.71)">
    <g id="Livello_22" transform="translate(48.886 381.71)">
      <path id="Path_6204" data-name="Path 6204" d="M27.421,8.266a.751.751,0,1,1-.751-.752.751.751,0,0,1,.751.752m0-2.255L23.664,9.6V2.254h3.758ZM25.167,1.127a.381.381,0,0,1-.375.386H21.78a.381.381,0,0,1,0-.762h.005V.741h3.006a.381.381,0,0,1,.375.386M22.913,9.6,19.155,6.012V2.254h3.758V9.6ZM19.044,8.266a.752.752,0,1,1,.751.751.751.751,0,0,1-.751-.751m1.684,3.757H25.8l.892,1.544H19.837ZM18.97,15.07h8.594l.868,1.5H18.1Zm9.2-4.174V1.127A1.127,1.127,0,0,0,27.046,0H19.531A1.127,1.127,0,0,0,18.4,1.127V10.9a1.127,1.127,0,0,0,1.127,1.127h.341L15.51,19.58h.856l.868-1.5H29.3l.868,1.5h.856l-4.362-7.556h.385A1.127,1.127,0,0,0,28.173,10.9m.164,2.671.036.061v-.061Z" transform="translate(-15.51)" fill="#c0282c"/>
    </g>
    <g id="Livello_22-2" data-name="Livello_22" transform="translate(48.886 393.733)">
      <path id="Path_6204-2" data-name="Path 6204" d="M20.729,18.778H25.8l.892,1.544H19.837ZM18.97,21.825h8.594l.868,1.5H18.1Zm.561-3.047h.341L15.51,26.334h.856l.868-1.5H29.3l.868,1.5h.856l-4.362-7.556h.385m1.291,1.544.036.061v-.061Z" transform="translate(-15.51 -18.778)" fill="#c0282c"/>
    </g>
  </g>
</svg>
