
<svg width="22" height="22" viewBox="0 0 22 22" fill="white" xmlns="http://www.w3.org/2000/svg">
<path d="M21.4628 14.7492C21.4628 14.7492 13.4567 11.11 13.4283 11.1008C12.7609 10.8735 12.0368 11.0412 11.5381 11.5399C11.0394 12.0386 10.8717 12.7627 11.1329 13.5117L14.7483 21.4637C14.894 21.7855 15.2121 21.9945 15.5659 22.0009H15.5833C15.9298 22.0009 16.2479 21.8047 16.4038 21.494L18.1005 18.1005L21.494 16.4037C21.8103 16.2452 22.0073 15.9207 22.0009 15.5668C21.9945 15.2139 21.7855 14.8958 21.4638 14.7492H21.4628ZM17.0069 16.5972C16.83 16.6861 16.6852 16.83 16.5972 17.0069L15.6218 18.9576L12.8315 12.8379L18.9558 15.6227L17.0078 16.5962L17.0069 16.5972ZM11.836 20.13C11.6783 20.1437 11.5198 20.1538 11.3593 20.1602C10.747 19.5543 9.15017 17.8521 8.03733 15.5842H8.70833C9.21433 15.5842 9.625 15.1745 9.625 14.6676C9.625 14.1607 9.21433 13.7509 8.70833 13.7509H7.30583C7.03908 12.8782 6.875 11.9542 6.875 11.0009C6.875 10.0476 7.04 9.1245 7.30767 8.25092H14.6932C14.8014 8.60567 14.8931 8.96867 14.9637 9.339C15.059 9.83675 15.5403 10.1649 16.0353 10.0677C16.5321 9.97333 16.8584 9.493 16.764 8.99617C16.7163 8.74408 16.6595 8.49567 16.5962 8.25092H19.7065C19.7184 8.25092 19.7313 8.25092 19.7432 8.25092C20.0173 9.11992 20.1648 10.0439 20.1648 11.0018C20.1648 11.2832 20.152 11.561 20.1273 11.836C20.0823 12.3402 20.4536 12.7857 20.9578 12.8315C21.4638 12.881 21.9083 12.5052 21.9532 12.001C21.9826 11.6719 21.9982 11.3382 21.9982 11.0018C22 4.93442 17.0656 0 11 0C4.93442 0 0 4.93442 0 11C0 17.0656 4.93442 22 10.9991 22C11.3355 22 11.6683 21.9844 11.9964 21.9551C12.5006 21.9102 12.8737 21.4656 12.8288 20.9605C12.7838 20.4572 12.3402 20.0851 11.8351 20.1291L11.836 20.13ZM5.401 13.7509H2.29167C2.27975 13.7509 2.26783 13.7509 2.255 13.7509C1.98092 12.8819 1.83333 11.9579 1.83333 11C1.83333 10.0421 1.98092 9.11808 2.255 8.24908C2.26692 8.24908 2.27883 8.24908 2.29167 8.24908H5.401C5.17642 9.1245 5.04167 10.0448 5.04167 10.9991C5.04167 11.9533 5.1755 12.8737 5.401 13.7491V13.7509ZM8.04192 6.41758C8.97783 4.51367 10.2557 3.00392 11.0018 2.21192C11.7489 3.003 13.0268 4.51 13.9627 6.41758H8.04192ZM18.9365 6.41758H15.9775C15.2524 4.68875 14.2468 3.22025 13.3815 2.14867C15.7456 2.78575 17.7348 4.34592 18.9365 6.41758ZM8.61667 2.14867C7.75133 3.22025 6.74483 4.68875 6.02067 6.41667H3.0635C4.26433 4.345 6.25258 2.78483 8.61667 2.14867ZM3.0635 15.5833H6.02067C6.74483 17.3122 7.75133 18.7797 8.61667 19.8513C6.2535 19.2142 4.26525 17.6541 3.0635 15.5833Z" />
</svg>
